<svg id="Livello_1" data-name="Livello 1" xmlns="http://www.w3.org/2000/svg" xmlns:xlink="http://www.w3.org/1999/xlink" viewBox="0 0 199.58 191.01"><defs><style>.cls-1{fill:none;}.cls-2{clip-path:url(#clip-path);}.cls-3{fill:#f6eee3;}.cls-4{clip-path:url(#clip-path-2);}.cls-5{fill:#cc0b36;}.cls-6{clip-path:url(#clip-path-3);}.cls-7{clip-path:url(#clip-path-4);}.cls-8{clip-path:url(#clip-path-5);}.cls-9{clip-path:url(#clip-path-6);}.cls-10{clip-path:url(#clip-path-7);}</style><clipPath id="clip-path" transform="translate(-158.26 -144.93)"><rect class="cls-1" x="170.67" y="145.33" width="160" height="190.59"/></clipPath><clipPath id="clip-path-2" transform="translate(-158.26 -144.93)"><rect class="cls-1" x="170.68" y="144.93" width="160.55" height="191"/></clipPath><clipPath id="clip-path-3" transform="translate(-158.26 -144.93)"><rect class="cls-1" x="170.67" y="169.33" width="52" height="166.59"/></clipPath><clipPath id="clip-path-4" transform="translate(-158.26 -144.93)"><rect class="cls-1" x="157.94" y="240" width="76.73" height="86.67"/></clipPath><clipPath id="clip-path-5" transform="translate(-158.26 -144.93)"><rect class="cls-1" x="157.94" y="240" width="76.73" height="88"/></clipPath><clipPath id="clip-path-6" transform="translate(-158.26 -144.93)"><rect class="cls-1" x="326.67" y="200" width="31.27" height="88"/></clipPath><clipPath id="clip-path-7" transform="translate(-158.26 -144.93)"><rect class="cls-1" x="325.33" y="200" width="32.6" height="89.33"/></clipPath></defs><g class="cls-2"><path class="cls-3" d="M329.38,307.23l-69.86,16.59L216.69,334h0L211,335.34a1.55,1.55,0,0,1-1.86-1.16L171.55,175.49a1.55,1.55,0,0,1,1.16-1.85l5.68-1.35,30.92-7.35,30.8-7.31,8.6-2,42.37-10.06a1.55,1.55,0,0,1,1.88,1.15l2.1,8.91.49,2,35,147.72a2.42,2.42,0,0,1,0,.25,1.56,1.56,0,0,1-1.19,1.63" transform="translate(-158.26 -144.93)"/></g><g class="cls-4"><path class="cls-5" d="M291.44,146a.91.91,0,0,0-.23,0l-51,12.1-30.8,7.31-30.92,7.35-5.68,1.35a1,1,0,0,0-.75,1.19l37.58,158.68a1,1,0,0,0,1.2.75l5.68-1.35h0l42.82-10.16,69.86-16.59a1,1,0,0,0,.77-1.05.5.5,0,0,0,0-.16L295,157.76l-2.59-10.95a1.06,1.06,0,0,0-.45-.62A1,1,0,0,0,291.44,146ZM210.65,335.93a2.11,2.11,0,0,1-2.06-1.62L171,175.63a2.12,2.12,0,0,1,1.57-2.54l36.61-8.69,39.4-9.35L291,145a2.11,2.11,0,0,1,2.54,1.57l2.6,10.95,35,147.72a2,2,0,0,1,.06.34,2.11,2.11,0,0,1-1.62,2.21l-69.86,16.59-42.83,10.17h0l-5.68,1.35a2.06,2.06,0,0,1-.48.05" transform="translate(-158.26 -144.93)"/></g><g class="cls-6"><path class="cls-5" d="M222.27,332.18l-12.05,3.34a.75.75,0,0,1-.9-.56L171.37,174.72a.75.75,0,0,1,.56-.9l12-3.34,38.3,161.7" transform="translate(-158.26 -144.93)"/></g><path class="cls-3" d="M335.19,323.82H213.54a1.56,1.56,0,0,1-1.56-1.56V159.19a1.56,1.56,0,0,1,1.56-1.56H335.19a1.56,1.56,0,0,1,1.56,1.56V322.26a1.56,1.56,0,0,1-1.56,1.56" transform="translate(-158.26 -144.93)"/><path class="cls-5" d="M213.54,158.19a1,1,0,0,0-1,1V322.26a1,1,0,0,0,1,1H335.19a1,1,0,0,0,1-1V159.19a1,1,0,0,0-1-1ZM335.19,324.38H213.54a2.12,2.12,0,0,1-2.11-2.12V159.19a2.11,2.11,0,0,1,2.11-2.12H335.19a2.11,2.11,0,0,1,2.11,2.12V322.26a2.12,2.12,0,0,1-2.11,2.12" transform="translate(-158.26 -144.93)"/><path class="cls-5" d="M227.33,175.22a5.18,5.18,0,1,0,5.16,5.18A5.18,5.18,0,0,0,227.33,175.22Zm0,10.91a5.73,5.73,0,1,1,5.72-5.73,5.73,5.73,0,0,1-5.72,5.73" transform="translate(-158.26 -144.93)"/><path class="cls-5" d="M224.88,175.53a5.13,5.13,0,0,0-1.44,1,5.25,5.25,0,0,0-1.22,1.76,4.6,4.6,0,0,0-.32,1,5.36,5.36,0,0,0,0,2.16,6.18,6.18,0,0,0,.32,1,5.79,5.79,0,0,0,1.22,1.76,5.55,5.55,0,0,0,1.38.95,5.57,5.57,0,0,1-2.44-2.78,6.54,6.54,0,0,1-.29-1,5.16,5.16,0,0,1-.1-1,5.49,5.49,0,0,1,1.53-3.82A5.76,5.76,0,0,1,224.88,175.53Zm2.64-.12h-.18a4.92,4.92,0,0,0-1.88.44,5,5,0,0,0-1.54,1.11,4.95,4.95,0,0,0-1.37,3.43,4.13,4.13,0,0,0,.09.93,4,4,0,0,0,.26.91,5,5,0,0,0,6.37,2.83A5.15,5.15,0,0,0,231,184a5,5,0,0,0,1.14-1.64,5.29,5.29,0,0,0,.3-1,5,5,0,0,0-.3-3,5,5,0,0,0-4.57-3Zm-.38,10.91a5.86,5.86,0,0,1-4.08-1.64,5.88,5.88,0,0,1-1.35-2,6,6,0,0,1-.36-1.14,6.76,6.76,0,0,1-.12-1.19,5.93,5.93,0,0,1,.12-1.19,6.35,6.35,0,0,1,.36-1.15,5.88,5.88,0,0,1,3.34-3.2,5.75,5.75,0,0,1,2.29-.38,5.93,5.93,0,0,1,2.23.53,5.79,5.79,0,0,1,1.85,1.31,5.87,5.87,0,0,1,1.63,4.08,5.88,5.88,0,0,1-.42,2.19,5.89,5.89,0,0,1-3.06,3.2,5.91,5.91,0,0,1-2.23.52h-.2" transform="translate(-158.26 -144.93)"/><path class="cls-5" d="M227.33,199.35a5.18,5.18,0,1,0,5.16,5.18A5.18,5.18,0,0,0,227.33,199.35Zm0,10.91a5.73,5.73,0,1,1,5.72-5.73,5.74,5.74,0,0,1-5.72,5.73" transform="translate(-158.26 -144.93)"/><path class="cls-5" d="M224.88,199.66a5.35,5.35,0,0,0-1.44,1,5.25,5.25,0,0,0-1.22,1.76,4.6,4.6,0,0,0-.32,1,5.36,5.36,0,0,0,0,2.16,5.91,5.91,0,0,0,.32,1,5.67,5.67,0,0,0,1.22,1.76,5.55,5.55,0,0,0,1.38,1,5.43,5.43,0,0,1-1.31-1,5.58,5.58,0,0,1-1.13-1.76,6.54,6.54,0,0,1-.29-1,5.16,5.16,0,0,1-.1-1,5.63,5.63,0,0,1,2.89-4.87Zm2.64-.12h-.18a4.92,4.92,0,0,0-1.88.44,5,5,0,0,0-1.54,1.11,4.95,4.95,0,0,0-1.37,3.43,4.13,4.13,0,0,0,.09.93,4,4,0,0,0,.26.91,5,5,0,0,0,4.44,3.14,5.21,5.21,0,0,0,1.93-.31,5.15,5.15,0,0,0,1.68-1.06,5,5,0,0,0,1.14-1.64,5.29,5.29,0,0,0,.3-1,4.94,4.94,0,0,0,.1-1,4.87,4.87,0,0,0-.1-1,5,5,0,0,0-1.44-2.61,5.13,5.13,0,0,0-1.68-1A4.93,4.93,0,0,0,227.52,199.54Zm-.38,10.91a6,6,0,0,1-2.09-.38,6.07,6.07,0,0,1-2-1.26,5.88,5.88,0,0,1-1.35-1.95,6,6,0,0,1-.36-1.14,6.76,6.76,0,0,1-.12-1.19,6.11,6.11,0,0,1,.12-1.2,6.51,6.51,0,0,1,.36-1.14,5.84,5.84,0,0,1,1.35-1.95,6.07,6.07,0,0,1,2-1.26,5.9,5.9,0,0,1,4.52.16,5.92,5.92,0,0,1,3.06,3.19,6,6,0,0,1,.42,2.2,5.88,5.88,0,0,1-.42,2.19,5.89,5.89,0,0,1-3.06,3.2,5.91,5.91,0,0,1-2.23.52h-.2" transform="translate(-158.26 -144.93)"/><path class="cls-5" d="M227.33,223.49a5.17,5.17,0,1,0,5.16,5.17A5.17,5.17,0,0,0,227.33,223.49Zm0,10.9a5.73,5.73,0,1,1,5.72-5.73,5.73,5.73,0,0,1-5.72,5.73" transform="translate(-158.26 -144.93)"/><path class="cls-5" d="M224.88,223.8a5.28,5.28,0,0,0-1.44,1,5.4,5.4,0,0,0-1.22,1.77,4.6,4.6,0,0,0-.32,1,5.36,5.36,0,0,0,0,2.16,5.28,5.28,0,0,0,1.54,2.8,5.55,5.55,0,0,0,1.38,1,5.19,5.19,0,0,1-1.31-1,5.51,5.51,0,0,1-1.13-1.77,6.12,6.12,0,0,1-.29-1,5.16,5.16,0,0,1-.1-1,5.49,5.49,0,0,1,1.53-3.82A5.46,5.46,0,0,1,224.88,223.8Zm2.64-.12h-.18a4.76,4.76,0,0,0-1.88.45,5,5,0,0,0-2.91,4.53,4.13,4.13,0,0,0,.09.93,4,4,0,0,0,.26.91,5,5,0,0,0,6.37,2.83,5.15,5.15,0,0,0,1.68-1.06,5,5,0,0,0,1.14-1.64,5.29,5.29,0,0,0,.3-1,5,5,0,0,0,.1-1,4.87,4.87,0,0,0-.1-1A5,5,0,0,0,231,225a4.93,4.93,0,0,0-3.43-1.36Zm-.38,10.9a5.86,5.86,0,0,1-4.08-1.64,5.88,5.88,0,0,1-1.35-1.95,6.26,6.26,0,0,1-.36-1.14,6.76,6.76,0,0,1-.12-1.19,5.93,5.93,0,0,1,.12-1.19,6.35,6.35,0,0,1,.36-1.15,5.84,5.84,0,0,1,1.35-1.95,6.07,6.07,0,0,1,2-1.26,6,6,0,0,1,6.37,1.46,6.1,6.1,0,0,1,1.21,1.89,6,6,0,0,1,.42,2.2,5.88,5.88,0,0,1-.42,2.19,6,6,0,0,1-1.21,1.89,6.11,6.11,0,0,1-1.85,1.31,5.91,5.91,0,0,1-2.23.52h-.2" transform="translate(-158.26 -144.93)"/><path class="cls-5" d="M227.33,247.62a5.17,5.17,0,1,0,5.16,5.17A5.17,5.17,0,0,0,227.33,247.62Zm0,10.9a5.73,5.73,0,1,1,5.72-5.73,5.73,5.73,0,0,1-5.72,5.73" transform="translate(-158.26 -144.93)"/><path class="cls-5" d="M224.88,247.92a5.35,5.35,0,0,0-1.44,1,5.25,5.25,0,0,0-1.22,1.76,4.6,4.6,0,0,0-.32,1,5.36,5.36,0,0,0,0,2.16,6.18,6.18,0,0,0,.32,1,5.67,5.67,0,0,0,1.22,1.76,5.3,5.3,0,0,0,1.38.95,5.19,5.19,0,0,1-1.31-1,5.51,5.51,0,0,1-1.13-1.77,6.12,6.12,0,0,1-.29-1,5.16,5.16,0,0,1-.1-1,5.49,5.49,0,0,1,1.53-3.82A5.76,5.76,0,0,1,224.88,247.92Zm2.64-.12h-.18a4.92,4.92,0,0,0-1.88.44,5,5,0,0,0-1.54,1.11,4.95,4.95,0,0,0-1.37,3.43,4.13,4.13,0,0,0,.09.93,4,4,0,0,0,.26.91,5,5,0,0,0,6.37,2.83A5.15,5.15,0,0,0,231,256.4a4.94,4.94,0,0,0,1.14-1.64,5.29,5.29,0,0,0,.3-1,5.15,5.15,0,0,0,0-2,5,5,0,0,0-1.44-2.61,5,5,0,0,0-3.43-1.37Zm-.38,10.91a5.93,5.93,0,0,1-5.43-3.58,6.35,6.35,0,0,1-.36-1.15,6.76,6.76,0,0,1-.12-1.19,5.93,5.93,0,0,1,.12-1.19,6.35,6.35,0,0,1,.36-1.15,5.84,5.84,0,0,1,1.35-1.95,6.07,6.07,0,0,1,2-1.26,6,6,0,0,1,6.37,1.46,6.1,6.1,0,0,1,1.21,1.89,6,6,0,0,1,.42,2.2,5.88,5.88,0,0,1-.42,2.19,5.89,5.89,0,0,1-3.06,3.2,5.91,5.91,0,0,1-2.23.52h-.2" transform="translate(-158.26 -144.93)"/><path class="cls-5" d="M227.33,271.74a5.18,5.18,0,1,0,5.16,5.18A5.18,5.18,0,0,0,227.33,271.74Zm0,10.91a5.73,5.73,0,1,1,5.72-5.73,5.74,5.74,0,0,1-5.72,5.73" transform="translate(-158.26 -144.93)"/><path class="cls-5" d="M224.88,272.05a5.35,5.35,0,0,0-1.44,1,5.25,5.25,0,0,0-1.22,1.76,4.69,4.69,0,0,0-.32,1,5.76,5.76,0,0,0-.11,1.09,5.57,5.57,0,0,0,.11,1.08,6.18,6.18,0,0,0,.32,1,5.79,5.79,0,0,0,1.22,1.76,5.3,5.3,0,0,0,1.38.95,5.19,5.19,0,0,1-1.31-1,5.58,5.58,0,0,1-1.13-1.76,6.54,6.54,0,0,1-.29-1,5.16,5.16,0,0,1-.1-1,5.49,5.49,0,0,1,1.53-3.82A5.76,5.76,0,0,1,224.88,272.05Zm2.64-.12h-.18a4.76,4.76,0,0,0-1.88.45,5,5,0,0,0-2.91,4.53,4.13,4.13,0,0,0,.09.93,4,4,0,0,0,.26.91,5,5,0,0,0,4.44,3.14,5.21,5.21,0,0,0,1.93-.31,5.15,5.15,0,0,0,1.68-1.06,4.94,4.94,0,0,0,1.14-1.64,5.15,5.15,0,0,0,.3-1,4.78,4.78,0,0,0,.1-1,4.87,4.87,0,0,0-.1-1A5,5,0,0,0,231,273.3a5,5,0,0,0-3.43-1.37Zm-.38,10.91a6,6,0,0,1-2.09-.38,6.07,6.07,0,0,1-2-1.26,6,6,0,0,1-1.35-1.94,6.35,6.35,0,0,1-.36-1.15,6.76,6.76,0,0,1-.12-1.19,6.11,6.11,0,0,1,.12-1.2,6.51,6.51,0,0,1,.36-1.14,5.88,5.88,0,0,1,3.34-3.2,5.75,5.75,0,0,1,2.29-.38,6.11,6.11,0,0,1,2.23.52,5.91,5.91,0,0,1,3.48,5.4,5.88,5.88,0,0,1-.42,2.19,5.89,5.89,0,0,1-3.06,3.2,5.73,5.73,0,0,1-2.23.52h-.2" transform="translate(-158.26 -144.93)"/><path class="cls-5" d="M227.33,295.88a5.17,5.17,0,1,0,5.16,5.17A5.17,5.17,0,0,0,227.33,295.88Zm0,10.9a5.73,5.73,0,1,1,5.72-5.73,5.73,5.73,0,0,1-5.72,5.73" transform="translate(-158.26 -144.93)"/><path class="cls-5" d="M224.88,296.18a5.55,5.55,0,0,0-1.44,1,5.4,5.4,0,0,0-1.22,1.77,4.76,4.76,0,0,0-.32,1,5.36,5.36,0,0,0,0,2.16,5.34,5.34,0,0,0,.32,1,5.6,5.6,0,0,0,1.22,1.77,5.3,5.3,0,0,0,1.38.95,5.19,5.19,0,0,1-1.31-1,5.51,5.51,0,0,1-1.13-1.77,6.12,6.12,0,0,1-.29-1,5.16,5.16,0,0,1-.1-1,5.53,5.53,0,0,1,.39-2.05,5.63,5.63,0,0,1,2.5-2.82Zm2.64-.11h-.18a4.76,4.76,0,0,0-1.88.45,4.85,4.85,0,0,0-1.54,1.1,5,5,0,0,0-1,1.59,4.85,4.85,0,0,0-.35,1.84,4.13,4.13,0,0,0,.09.93,4,4,0,0,0,.26.91,5,5,0,0,0,4.44,3.14,5.21,5.21,0,0,0,1.93-.31,5.15,5.15,0,0,0,1.68-1.06,5,5,0,0,0,1.44-2.6,4.94,4.94,0,0,0,.1-1,4.87,4.87,0,0,0-.1-1,5,5,0,0,0-1.44-2.61,5.13,5.13,0,0,0-1.68-1.05A4.93,4.93,0,0,0,227.52,296.07Zm-.38,10.9a6,6,0,0,1-2.09-.38,6.07,6.07,0,0,1-2-1.26,5.88,5.88,0,0,1-1.35-1.95,5.8,5.8,0,0,1-.36-1.14,6.76,6.76,0,0,1-.12-1.19,5.93,5.93,0,0,1,.12-1.19,6.35,6.35,0,0,1,.36-1.15,5.88,5.88,0,0,1,3.34-3.2,5.75,5.75,0,0,1,2.29-.38,6,6,0,0,1,4.08,1.83,6.1,6.1,0,0,1,1.21,1.89,6,6,0,0,1,.42,2.2,5.88,5.88,0,0,1-.42,2.19,5.89,5.89,0,0,1-3.06,3.2,5.73,5.73,0,0,1-2.23.52h-.2" transform="translate(-158.26 -144.93)"/><path class="cls-5" d="M324.5,200.73H238.21a1.17,1.17,0,0,1,0-2.33H324.5a1.17,1.17,0,1,1,0,2.33" transform="translate(-158.26 -144.93)"/><path class="cls-5" d="M324.5,214H238.21a1.17,1.17,0,0,1,0-2.33H324.5a1.17,1.17,0,1,1,0,2.33" transform="translate(-158.26 -144.93)"/><path class="cls-5" d="M324.5,227.2H238.21a1.17,1.17,0,0,1,0-2.34H324.5a1.17,1.17,0,1,1,0,2.34" transform="translate(-158.26 -144.93)"/><path class="cls-5" d="M324.5,240.43H238.21a1.17,1.17,0,0,1,0-2.34H324.5a1.17,1.17,0,1,1,0,2.34" transform="translate(-158.26 -144.93)"/><path class="cls-5" d="M324.5,253.67H238.21a1.17,1.17,0,0,1,0-2.34H324.5a1.17,1.17,0,1,1,0,2.34" transform="translate(-158.26 -144.93)"/><path class="cls-5" d="M324.5,266.9H238.21a1.17,1.17,0,0,1,0-2.34H324.5a1.17,1.17,0,0,1,0,2.34" transform="translate(-158.26 -144.93)"/><path class="cls-5" d="M324.5,280.13H238.21a1.17,1.17,0,0,1,0-2.34H324.5a1.17,1.17,0,1,1,0,2.34" transform="translate(-158.26 -144.93)"/><path class="cls-5" d="M324.5,293.36H238.21a1.17,1.17,0,0,1,0-2.33H324.5a1.17,1.17,0,1,1,0,2.33" transform="translate(-158.26 -144.93)"/><path class="cls-5" d="M324.5,306.59H238.21a1.17,1.17,0,0,1,0-2.33H324.5a1.17,1.17,0,1,1,0,2.33" transform="translate(-158.26 -144.93)"/><path class="cls-5" d="M261.39,169.79l-.12,5.62a13.19,13.19,0,0,0,.07,1.64h.05c.13,0,.35-.17.67-.52a5.27,5.27,0,0,0,.67-.85,3.07,3.07,0,0,0,.29-1,7.65,7.65,0,0,0,.12-1.21,8.87,8.87,0,0,0-.07-1,11.5,11.5,0,0,0-.22-1.15,2.54,2.54,0,0,0-.48-1,.94.94,0,0,0-.77-.41v-.07Zm-.71-.13-.05-.46c0-.15.17-.23.51-.23a2.16,2.16,0,0,1,1.62.59,2.9,2.9,0,0,1,.73,1.27c.12.45.22.8.29,1a4.93,4.93,0,0,1,.21,1.2,8.89,8.89,0,0,1-.71,3.11,8.63,8.63,0,0,0-.47,1.28,26.3,26.3,0,0,0,1,5.08,50.73,50.73,0,0,0,1.65,5.41c0,.56-.12.84-.34.84a.51.51,0,0,1-.43-.23c-.12-.15-.18-.25-.21-.27a12.9,12.9,0,0,0-.66-2.8c-.39-1.19-.63-2-.72-2.39s-.24-1.2-.46-2.43-.43-2.16-.61-2.82l-.2-.15-.49.21v9.65l.05.64c0,.34-.16.52-.46.52a.45.45,0,0,1-.32-.12.43.43,0,0,1-.12-.31l.08-.14.11-15.62v-2.86" transform="translate(-158.26 -144.93)"/><path class="cls-5" d="M267.94,188.33l0-.65-.09-.11a2.91,2.91,0,0,0,.19-1l-.13-3.39.18-7.76-.1-3.08a.65.65,0,0,1,.74-.73.51.51,0,0,1,.42.16,4.87,4.87,0,0,0,.74.1c1.05.12,1.59.34,1.62.65,0,.13-.17.3-.49.49a8.44,8.44,0,0,0-2.09-.49l-.13.14q0,.38,0,1.11l-.1,4c0,.48.12.72.37.72l.86-.05c.66,0,1,.15,1,.46a.83.83,0,0,1-.13.47.51.51,0,0,1-.47.2.63.63,0,0,1-.5-.2l-.84-.13h-.11l-.13.13v.07c0,.44.05,1.13.05,2l-.05,3.66c0,1.71.12,2.65.35,2.84a1.39,1.39,0,0,0,.83.18l.95-.05c.51,0,.76.12.76.34s-.38.47-1.12.47h-2.12c-.32,0-.49-.18-.52-.54" transform="translate(-158.26 -144.93)"/><path class="cls-5" d="M274.93,178.14l-.11,5.19a8.23,8.23,0,0,0,.42,3.11,2.57,2.57,0,0,0,1.22,1.44,2.35,2.35,0,0,0,1,.21,1.1,1.1,0,0,0,.76-.23c.26,0,.39.1.39.28s-.12.28-.35.45a2.91,2.91,0,0,1-.63.35h-.86a4.11,4.11,0,0,0-.6-.22,2.81,2.81,0,0,1-.81-.41,2.46,2.46,0,0,1-.69-.89,4.64,4.64,0,0,1-.47-1.46,18.54,18.54,0,0,1-.23-3V180a28.15,28.15,0,0,1,.26-4.7c.33-1.72.79-2.8,1.36-3.25a2.78,2.78,0,0,1,.7-.36c.31-.12.53-.22.65-.28H278l.06,0h.08l.06,0,.06,0,0,0a.34.34,0,0,1,.12.27l-.34.37H277a1.16,1.16,0,0,0-.92.5,3.8,3.8,0,0,0-.6,1.17,9.92,9.92,0,0,0-.33,1.58A19.51,19.51,0,0,0,275,178l0,.15" transform="translate(-158.26 -144.93)"/><path class="cls-5" d="M285,188.33l-.85-.09a1,1,0,0,0-.47.15,1.53,1.53,0,0,1-.66.14c-.26,0-.42-.08-.49-.25l-.42,0c-.37,0-.61-.09-.71-.26a.32.32,0,0,1,.15-.27,1.19,1.19,0,0,0,.19-.17h.74l.1-.1.09-.54-.19-5.63.13-6a28.14,28.14,0,0,0-.13-3,2.86,2.86,0,0,0-.76-.07l-.62,0c-.33,0-.49-.15-.49-.44,0-.08.08-.15.23-.22a1,1,0,0,1,.39-.1c2.38,0,3.58.26,3.58.78a.53.53,0,0,1-.07.2l-.59.05a1.3,1.3,0,0,0-.74-.15l-.13.08a5.88,5.88,0,0,1,.08,1.37l-.08,6.12.18,5.64,0,.79a2,2,0,0,0,.07.72l0,.06c0,.17.19.25.56.25l.76,0c.51,0,.76.12.76.36a.46.46,0,0,1-.16.37.58.58,0,0,1-.41.15" transform="translate(-158.26 -144.93)"/><path class="cls-5" d="M288.78,173.23l.13,3.71-.1,2.43.16.24c1.26,0,1.91-1.31,2-4V175c0-.28,0-.51,0-.7a4.3,4.3,0,0,0-.12-.65,1.72,1.72,0,0,0-.26-.56,1.39,1.39,0,0,0-1.19-.52.53.53,0,0,0-.45.16A.92.92,0,0,0,288.78,173.23Zm0,10.34.21,5c0,.31-.16.47-.49.47l-.36-.21a19.76,19.76,0,0,1-.29-3.7l.11-4.79a1.87,1.87,0,0,1-.16-.59,6.13,6.13,0,0,0,.26-2.38,37.33,37.33,0,0,0-.15-5c.17-.43.29-.64.38-.64h1.13a1.87,1.87,0,0,1,.83.28,5.44,5.44,0,0,1,.85.56c.43.39.64,1.41.64,3a10,10,0,0,1-.19,2.64,6.62,6.62,0,0,1-.4.8,1.84,1.84,0,0,1-.54.57,6.49,6.49,0,0,1-1.83.86v3.07" transform="translate(-158.26 -144.93)"/><path class="cls-5" d="M294.47,188.33l0-.65-.08-.11a3.13,3.13,0,0,0,.18-1l-.12-3.39.18-7.76-.1-3.08a.65.65,0,0,1,.74-.73.49.49,0,0,1,.41.16,5.4,5.4,0,0,0,.74.1c1.05.12,1.59.34,1.62.65,0,.13-.16.3-.49.49a8.25,8.25,0,0,0-2.09-.49l-.12.14q0,.38,0,1.11l-.1,4q0,.72.36.72l.87-.05c.65,0,1,.15,1,.46a.92.92,0,0,1-.13.47.54.54,0,0,1-.47.2.61.61,0,0,1-.5-.2l-.85-.13h-.11l-.13.13v.07c0,.44.06,1.13.06,2l-.06,3.66c0,1.71.12,2.65.36,2.84a1.37,1.37,0,0,0,.83.18l1-.05c.5,0,.75.12.75.34s-.37.47-1.12.47H295c-.31,0-.49-.18-.51-.54" transform="translate(-158.26 -144.93)"/><path class="cls-5" d="M301.1,176.08a.65.65,0,0,1-.17-.43.68.68,0,0,1,.21-.46.56.56,0,0,1,.89,0,.66.66,0,0,1,.2.44c0,.43-.25.65-.73.65A.52.52,0,0,1,301.1,176.08Zm-.25,9.73a.62.62,0,0,1,0-.89.6.6,0,0,1,.44-.22.57.57,0,0,1,.44.22.64.64,0,0,1,.19.44c0,.43-.24.65-.72.65a.52.52,0,0,1-.39-.2" transform="translate(-158.26 -144.93)"/><g class="cls-7"><path class="cls-3" d="M232.61,320.23a3.73,3.73,0,0,1-.39,5.27,3.84,3.84,0,0,1-1.37.75A3.7,3.7,0,0,1,227,325.1l-34.63-40.25a6.52,6.52,0,0,0-2-1.58l-.13-.06a7.3,7.3,0,0,0-1-.37l-.62-.13-.44,0a8.68,8.68,0,0,1-1.26-.17,8.19,8.19,0,0,1-4.29-2.43l-.32-.3c-.79-.85-1.59-1.71-2.38-2.58a174.22,174.22,0,0,1-16.75-21.28,39.56,39.56,0,0,1-3.59-7.35c-.9-2.58-1.28-5-.47-6.44a2.77,2.77,0,0,1,4.5-.43l31.32,36.42,1.13,1.25,2.39,2.67,34.25,38.21" transform="translate(-158.26 -144.93)"/></g><g class="cls-8"><path class="cls-5" d="M182.44,279.54l.3.29a7.88,7.88,0,0,0,4.14,2.35,10,10,0,0,0,1.22.17l.47,0c.22,0,.44.08.65.14a7.19,7.19,0,0,1,1.07.38.91.91,0,0,1,.14.07,6.64,6.64,0,0,1,2.14,1.66L227.2,324.9a3.42,3.42,0,0,0,3.56,1.05,3.46,3.46,0,0,0,1.26-.69,3.38,3.38,0,0,0,1.17-2.34,3.42,3.42,0,0,0-.81-2.48l-36.65-40.87-1.12-1.26h0l-31.33-36.42a2.43,2.43,0,0,0-4,.39c-.67,1.17-.5,3.3.5,6.17a38.31,38.31,0,0,0,3.55,7.27A173.52,173.52,0,0,0,180.06,277Zm47.36,47.18a4.08,4.08,0,0,1-3.08-1.41l-34.63-40.25a5.92,5.92,0,0,0-1.94-1.5l-.12-.06a5.94,5.94,0,0,0-1-.35,5.6,5.6,0,0,0-.59-.12l-.41,0a9.27,9.27,0,0,1-1.3-.18,8.7,8.7,0,0,1-4.45-2.51L182,280h0c-.8-.84-1.6-1.71-2.39-2.57a172.64,172.64,0,0,1-16.77-21.33h0a38,38,0,0,1-3.62-7.4c-1.07-3.09-1.23-5.34-.46-6.7a3.1,3.1,0,0,1,5-.49l31.32,36.42,3.51,3.92L232.85,320h0a3.94,3.94,0,0,1,1,2.94,4,4,0,0,1-1.39,2.77,4,4,0,0,1-1.49.81,3.75,3.75,0,0,1-1.14.17" transform="translate(-158.26 -144.93)"/></g><path class="cls-3" d="M232.61,320.23a3.73,3.73,0,0,1-.39,5.27,3.84,3.84,0,0,1-1.37.75c-3.33-9.35-32.8-45.9-39.77-43.28l-.79.3-.13-.06a6.16,6.16,0,0,0-2.08-.55,8.68,8.68,0,0,1-1.26-.17c1.05-.77,5.08-4.05,7.08-5.48l.94,1.09,37.77,42.13" transform="translate(-158.26 -144.93)"/><path class="cls-5" d="M191.87,282.53a5.86,5.86,0,0,1,2.44.65c2.41,1.12,5.67,3.66,9.67,7.56a165.35,165.35,0,0,1,11.46,12.56c7.62,9.18,14,18.35,15.6,22.55a3.51,3.51,0,0,0,1-.59,3.38,3.38,0,0,0,1.17-2.34,3.42,3.42,0,0,0-.81-2.48l-37.77-42.13h0l-.75-.88c-1.23.9-3.06,2.35-4.56,3.54l-1.69,1.33.5.05a6.45,6.45,0,0,1,2.19.57h0l.66-.25A2.57,2.57,0,0,1,191.87,282.53Zm39,44a.32.32,0,0,1-.3-.21c-1.42-4-7.83-13.3-15.6-22.65-8.67-10.44-16.49-17.9-20.9-19.95a3.9,3.9,0,0,0-2.86-.49l-.74.28,0,0a.31.31,0,0,1-.25,0l-.12-.07a6.23,6.23,0,0,0-2-.51,9.27,9.27,0,0,1-1.3-.18.31.31,0,0,1-.25-.24.33.33,0,0,1,.12-.33c.4-.29,1.27-1,2.27-1.76,1.59-1.27,3.58-2.84,4.82-3.72a.31.31,0,0,1,.42.05l.94,1.09L232.85,320h0a3.94,3.94,0,0,1,1,2.94,4,4,0,0,1-1.39,2.77,4,4,0,0,1-1.49.81l-.09,0" transform="translate(-158.26 -144.93)"/><path class="cls-3" d="M166.19,244.79,193,276c-1.07,2.92-2.64,5.42-4.5,6.73l-.44,0a8.68,8.68,0,0,1-1.26-.17,8.19,8.19,0,0,1-4.29-2.43l-.32-.3c-.79-.85-1.59-1.71-2.38-2.58,1.22-.13,2.88,0,3.72-.89,3.93-4.3-11.2-21.18-17.36-31.5" transform="translate(-158.26 -144.93)"/><path class="cls-5" d="M182.44,279.54l.3.29a7.88,7.88,0,0,0,4.14,2.35,10,10,0,0,0,1.22.17,1.86,1.86,0,0,1,.34,0,14.09,14.09,0,0,0,4.22-6.34l-23.72-27.58c1.4,2.07,3,4.29,4.64,6.57a144.93,144.93,0,0,1,8.55,12.74,21.12,21.12,0,0,1,2.19,5.11c.37,1.6.19,2.82-.54,3.62s-2,.87-3.1.93h-.18Zm6.08,3.49h-.05l-.41,0a9.27,9.27,0,0,1-1.3-.18,8.7,8.7,0,0,1-4.45-2.51L182,280h0c-.8-.84-1.6-1.71-2.39-2.57a.33.33,0,0,1-.06-.33.35.35,0,0,1,.27-.21c.27,0,.55,0,.85-.05,1-.06,2.1-.11,2.66-.73,2.6-2.84-4.22-12.31-10.24-20.66-2.73-3.8-5.31-7.39-7.15-10.47a.3.3,0,0,1,.08-.41.32.32,0,0,1,.43,0l26.83,31.2a.29.29,0,0,1,.06.31,14.56,14.56,0,0,1-4.61,6.88.33.33,0,0,1-.19.06" transform="translate(-158.26 -144.93)"/><path class="cls-5" d="M198.36,282c-3.91-2.33-6.58-1.91-9.22.82a7.33,7.33,0,0,0-1.06-.18,8.68,8.68,0,0,1-1.26-.17,8.19,8.19,0,0,1-4.29-2.43c3.33,1.63,4.64.33,5.11-.09,2.34-2.11,2-6.45-2.6-13.26l9.8,11.39,1.13,1.25,2.39,2.67" transform="translate(-158.26 -144.93)"/><g class="cls-9"><path class="cls-3" d="M351.9,228.74c0,.14-.08.27-.13.4a5.74,5.74,0,0,1-1.92,2.65,5.6,5.6,0,0,1-.76.51,6.12,6.12,0,0,1-1.38.55,3.22,3.22,0,0,0-1.81,1.24,3.16,3.16,0,0,0-.49,1,.31.31,0,0,0,0,.08v.05l-.13.5v0l-12,49.63a3.25,3.25,0,0,1-1.55,2,3.27,3.27,0,0,1-4.75-3.74l15.85-49.12h0a2.66,2.66,0,0,0,.1-.38s0-.06,0-.09,0-.07,0-.1a3.5,3.5,0,0,0,0-1s0-.06,0-.09a3.28,3.28,0,0,0-.86-1.62,5.75,5.75,0,0,1-.92-1.22,5.19,5.19,0,0,1-.37-.79,5.81,5.81,0,0,1-.26-3.34l.09-.37.48-1.38.55-1.61,7.34-21.26a.85.85,0,0,1,.4-.47.78.78,0,0,1,.62-.06l-6.17,21.93a.73.73,0,0,0,.54.91.74.74,0,0,0,.87-.53l6-21.25a.7.7,0,0,1,.33-.42.67.67,0,0,1,1,.77l-6,21.29a.73.73,0,0,0,.54.91.75.75,0,0,0,.87-.54l6-21.29a.64.64,0,0,1,.79-.45h0a.71.71,0,0,1,.48.88l-6,21.25a.73.73,0,0,0,.54.92.76.76,0,0,0,.87-.54l6.16-21.92a1,1,0,0,1,.73,1.23l-5.35,23.55-.28,1.27" transform="translate(-158.26 -144.93)"/></g><g class="cls-10"><path class="cls-5" d="M327.21,283.72a3,3,0,0,0,2.08,3.69,3,3,0,0,0,3.69-2.07l12-49.65.13-.55a.32.32,0,0,0,0-.09,3.54,3.54,0,0,1,.53-1.13h0a3.51,3.51,0,0,1,2-1.34,5.37,5.37,0,0,0,1.32-.53,5,5,0,0,0,.72-.48,5.58,5.58,0,0,0,1.83-2.53l.12-.36,5.63-24.82a.75.75,0,0,0-.28-.77l-6.07,21.6a1,1,0,0,1-1.85.26,1,1,0,0,1-.1-.79l6-21.26a.42.42,0,0,0-.3-.52h0a.32.32,0,0,0-.28,0,.32.32,0,0,0-.17.22l-6,21.29a1,1,0,0,1-1.21.73,1,1,0,0,1-.64-.47,1,1,0,0,1-.1-.78l6-21.3a.4.4,0,0,0-.27-.49.45.45,0,0,0-.32,0,.42.42,0,0,0-.2.25l-6,21.25a1,1,0,0,1-1.2.73,1,1,0,0,1-.75-1.26l6.07-21.6-.12,0a.57.57,0,0,0-.27.32l-8.37,24.25c0,.11-.05.22-.08.33a5.6,5.6,0,0,0,.25,3.19,6.56,6.56,0,0,0,.35.76,5.82,5.82,0,0,0,.88,1.16,3.6,3.6,0,0,1,.94,1.76v.09a3.71,3.71,0,0,1,0,1l0,.11s0,.07,0,.1a2.73,2.73,0,0,1-.1.41h0Zm2.89,4.36a3.54,3.54,0,0,1-2.3-.84,3.58,3.58,0,0,1-1.12-3.68h0l15.86-49.11h0c0-.11.06-.23.09-.34s0-.06,0-.08l0-.1a3.24,3.24,0,0,0,0-.88l0-.08a2.93,2.93,0,0,0-.79-1.48,6.25,6.25,0,0,1-.95-1.28,4.88,4.88,0,0,1-.4-.83,6.15,6.15,0,0,1-.27-3.5c0-.13.06-.26.09-.38v0l8.37-24.26a1.09,1.09,0,0,1,.54-.62,1.16,1.16,0,0,1,.82-.09.28.28,0,0,1,.18.35l-6.16,21.94a.43.43,0,0,0,0,.35.47.47,0,0,0,.29.21.46.46,0,0,0,.54-.33l6-21.25a1,1,0,0,1,.46-.59,1,1,0,0,1,.74-.09,1,1,0,0,1,.65,1.18l-6,21.29a.43.43,0,0,0,0,.35.45.45,0,0,0,.83-.13l6-21.3a.9.9,0,0,1,.44-.55.94.94,0,0,1,.7-.09h0a1,1,0,0,1,.68,1.21l-6,21.26a.43.43,0,0,0,.05.35.46.46,0,0,0,.29.22.47.47,0,0,0,.54-.34l6.17-21.92a.27.27,0,0,1,.13-.17.3.3,0,0,1,.21,0,1.3,1.3,0,0,1,.92,1.55l-5.63,24.83h0a3.24,3.24,0,0,1-.13.41,6.12,6.12,0,0,1-2.8,3.31,6.28,6.28,0,0,1-1.45.58,3,3,0,0,0-1.65,1.13h0a3.2,3.2,0,0,0-.45.93s0,.05,0,.08l-.14.57-12,49.64h0a3.58,3.58,0,0,1-1.69,2.14,3.52,3.52,0,0,1-1.73.45" transform="translate(-158.26 -144.93)"/></g><path class="cls-3" d="M351.77,229.14a5.74,5.74,0,0,1-1.92,2.65,5.6,5.6,0,0,1-.76.51,6.12,6.12,0,0,1-1.38.55,3.22,3.22,0,0,0-1.81,1.24l-3-1.11s0-.06,0-.09a3.28,3.28,0,0,0-.86-1.62,5.75,5.75,0,0,1-.92-1.22,5.19,5.19,0,0,1-.37-.79,5.81,5.81,0,0,1-.26-3.34,8.39,8.39,0,0,0,5.32,3.68,9.39,9.39,0,0,0,6-.46" transform="translate(-158.26 -144.93)"/><path class="cls-5" d="M343.15,232.77l2.65,1a3.52,3.52,0,0,1,1.84-1.18,5.37,5.37,0,0,0,1.32-.53,5,5,0,0,0,.72-.48,5.56,5.56,0,0,0,1.58-1.93,9.85,9.85,0,0,1-5.53.24,9.06,9.06,0,0,1-5.08-3.2,5.37,5.37,0,0,0,.35,2.48,6.56,6.56,0,0,0,.35.76,5.82,5.82,0,0,0,.88,1.16A3.52,3.52,0,0,1,343.15,232.77Zm2.75,1.59h-.1l-3-1.11a.26.26,0,0,1-.17-.21l0-.08a2.93,2.93,0,0,0-.79-1.48,6.25,6.25,0,0,1-.95-1.28,4.88,4.88,0,0,1-.4-.83,6.15,6.15,0,0,1-.27-3.5.27.27,0,0,1,.23-.22.28.28,0,0,1,.28.14,8.14,8.14,0,0,0,5.14,3.55,9.12,9.12,0,0,0,5.8-.45.26.26,0,0,1,.3.05.28.28,0,0,1,.07.3,6.12,6.12,0,0,1-2.8,3.31,6.28,6.28,0,0,1-1.45.58,3,3,0,0,0-1.65,1.13.3.3,0,0,1-.23.11" transform="translate(-158.26 -144.93)"/><path class="cls-3" d="M333.25,285.41a3.25,3.25,0,0,1-1.55,2A3.28,3.28,0,0,1,328,287c3-7.63,13.44-33.85,16.13-48.74a4.18,4.18,0,0,0-1.31-3.77h0a4.05,4.05,0,0,0,.12-.47s0-.07,0-.1a20.76,20.76,0,0,1,2.45,1.3l-12.13,50.16" transform="translate(-158.26 -144.93)"/><path class="cls-5" d="M343.11,234.44a4.5,4.5,0,0,1,1.33,3.5l.62-2.56a18,18,0,0,0-1.92-1A.32.32,0,0,1,343.11,234.44Zm-14.79,52.5a3,3,0,0,0,1,.47,3,3,0,0,0,3.69-2.07l8.65-35.76c-4.06,13.93-10.61,30.52-13.16,36.95Zm1.78,1.14a3.54,3.54,0,0,1-2.3-.84.3.3,0,0,1-.08-.32l.24-.59c3.28-8.31,13.26-33.59,15.87-48.09a3.9,3.9,0,0,0-1.22-3.52.26.26,0,0,1-.07-.28h0a3.2,3.2,0,0,0,.1-.42l0-.1a.26.26,0,0,1,.14-.2.26.26,0,0,1,.24,0,19.8,19.8,0,0,1,2.48,1.33.28.28,0,0,1,.13.3l-12.13,50.16h0a3.58,3.58,0,0,1-1.69,2.14,3.52,3.52,0,0,1-1.73.45" transform="translate(-158.26 -144.93)"/><path class="cls-5" d="M349.09,232.3a6.12,6.12,0,0,1-1.38.55,3.22,3.22,0,0,0-1.81,1.24,3.16,3.16,0,0,0-.49,1,.74.74,0,0,0,0,.14v0l-.11.45v0a4.48,4.48,0,0,0-2.34-1.64s0-.06,0-.09,0-.07,0-.1a3.42,3.42,0,0,0,0-1.06,3.28,3.28,0,0,0-.86-1.62,5.75,5.75,0,0,1-.92-1.22,12.77,12.77,0,0,0,8,2.25" transform="translate(-158.26 -144.93)"/></svg>