<svg id="Livello_1" data-name="Livello 1" xmlns="http://www.w3.org/2000/svg" viewBox="0 0 185.05 214.04"><defs><style>.cls-1,.cls-3{fill:#332421;}.cls-2{fill:none;stroke:#332421;stroke-miterlimit:10;stroke-width:2.36px;}.cls-3{isolation:isolate;opacity:0.85;}.cls-4{fill:#fff;}.cls-5{fill:#cc0b36;}</style></defs><path class="cls-1" d="M523,551.87v0c0,.72.1,1.45.19,2.16h0l.36.6c.18.31.37.62.57.92l.21.32c.26.4.54.81.83,1.23l.05.06.47.66c.49.65,1,1.34,1.59,2l.29.34a32.07,32.07,0,0,0,2.21,2.39l.34.34.3.3q1.27,1.21,2.73,2.4l.65.51.07.05.36.27.36.27.4.29q.85.62,1.71,1.17l.14.09.57.36.36.21c.56.35,1.12.65,1.68,1l1,.54.33.16.65.32.23.1c.48.24,1,.45,1.43.66l.45.19.42.17.49.19.13.05.66.24h1c.53,0,1-.06,1.57-.11A40.62,40.62,0,0,1,523,551.87Zm51.58,20.5c.88-.35,1.75-.73,2.62-1.15l.74-.37h0c.53-.26,1.06-.54,1.58-.84h0a41.23,41.23,0,0,0,8.43-6.25l.65-.66.66-.65c.54-.55,1.06-1.14,1.57-1.74a43.28,43.28,0,0,0,3-3.92h0a41.58,41.58,0,0,0,5.52-12c0-.14.08-.27.11-.4s.08-.29.11-.44a41.79,41.79,0,0,0,1.24-12.7v0a41.77,41.77,0,0,0-1.62-9.41v0a41.83,41.83,0,0,0-44.36-29.84,42.34,42.34,0,0,0-6.42,1.15l-1.24.34a44.39,44.39,0,0,0-4.24,1.5c-.4.16-.78.34-1.17.51l-.59.27c-.57.27-1.14.55-1.71.85l-.56.31c-.37.2-.74.41-1.1.65a42.49,42.49,0,0,0-8,6.1l-1.3,1.31a27.64,27.64,0,0,0-1.83,2.09,42,42,0,0,0-4.68,7,41.55,41.55,0,0,0-4.63,23.72h0a41.72,41.72,0,0,0,2.47,10.56,42.84,42.84,0,0,0,2.57,5.54c.33.59.66,1.17,1,1.74a42.19,42.19,0,0,0,20.2,16.88l.76.3a41.44,41.44,0,0,0,17.33,2.47c.51,0,1-.07,1.55-.12a42,42,0,0,0,11.37-2.75Zm-50.38-59.44a42.13,42.13,0,0,1,3.2-4.65l.39-.48.4-.48c.4-.47.81-.93,1.24-1.38a40.35,40.35,0,0,1,8.06-6.68c.34-.22.66-.42,1-.62.72-.43,1.46-.83,2.22-1.21.34-.18.69-.35,1-.52h0l.55-.26c.75-.34,1.52-.65,2.28-.95l1.15-.41a38.56,38.56,0,0,1,5-1.36c.34-.08.7-.15,1-.21,1-.19,2.12-.34,3.19-.45a40.29,40.29,0,0,1,15.29,1.39c.4.11.8.23,1.19.36a34,34,0,0,1,3.45,1.31c.51.21,1,.43,1.49.65a40.13,40.13,0,0,1,12,8.75,13.17,13.17,0,0,1,1,1l.26.3c.29.34.57.66.85,1,.55.65,1.08,1.38,1.58,2.09.27.38.52.76.78,1.15.41.65.82,1.3,1.2,2,.25.43.5.86.73,1.3.43.83.84,1.68,1.22,2.54.21.45.4.9.57,1.37.07.15.13.3.19.46.19.47.36,1,.53,1.45s.37,1.13.54,1.7h0a41.11,41.11,0,0,1,1.44,7.36c.06.61.11,1.21.14,1.81h0a40.42,40.42,0,0,1-.93,11.18c0,.17-.07.33-.12.49s-.07.32-.11.47a37,37,0,0,1-1.42,4.48c-.17.46-.36.92-.55,1.38h0l-.05.11c-.38.87-.78,1.73-1.21,2.57s-1,1.76-1.48,2.61-.94,1.48-1.45,2.19c-.71,1-1.47,2-2.28,2.95l-.7.8h0a5.79,5.79,0,0,1-.66.65h0l-.65.65-.15.15c-.29.3-.59.59-.88.87l-.87.79-.9.78c-.43.37-.87.72-1.31,1.07-.11.08-.22.18-.34.25h0l-.65.51,0,0q-.39.3-.81.57h0l-.19.13c-.22.16-.45.3-.65.45-.35.23-.71.45-1.06.65l-.4.24-1.13.65c-.49.27-1,.53-1.5.77l-1,.46-.17.07c-.87.41-1.77.78-2.67,1.1a38.36,38.36,0,0,1-4.58,1.39l-1.09.25c-.59.12-1.19.23-1.78.33l-1.2.18-1.31.15h-.3c-.41,0-.82.08-1.23.1s-.87,0-1.3.06a40.09,40.09,0,0,1-11.54-1.31l-.93-.26A40.62,40.62,0,0,1,523,551.76c-.23-.44-.44-.88-.66-1.31a40.18,40.18,0,0,1-3.57-12.89h0c-.06-.55-.1-1.11-.13-1.66h0v-.66a39.59,39.59,0,0,1,.85-10.24c0-.22.09-.45.15-.66a40.15,40.15,0,0,1,3.62-9.71v0a17.65,17.65,0,0,1,.89-1.66ZM523,551.87v0c0,.72.1,1.45.19,2.16h0l.36.6c.18.3.37.62.57.92l.21.32.83,1.23.05.06.47.66c.49.65,1,1.34,1.59,2l.29.34a32.07,32.07,0,0,0,2.21,2.39l.34.34.3.3q1.27,1.21,2.73,2.4l.65.51.07.05.36.27.36.27.4.29q.85.62,1.71,1.17l.14.09.57.36.36.21c.56.35,1.12.65,1.68,1l1,.54.33.16.65.32.23.1c.48.24,1,.45,1.43.66l.45.19.42.17.49.19.13.05.66.24h1c.53,0,1-.06,1.57-.11A40.62,40.62,0,0,1,523,551.87Z" transform="translate(-511.93 -491.64)"/><path class="cls-1" d="M553.49,586v-.06a0,0,0,0,1,0,0,.36.36,0,0,1,0-.09v0l.07-.1h0l.06-.06h0l.07-.06h.11a30,30,0,0,1-9.41-2s0,0,0,0a.62.62,0,0,1,.11.17h0a.5.5,0,0,1,0,.13V584a.54.54,0,0,1,0,.18v.1l-.24.78a31.19,31.19,0,0,0,8.8,1.85Zm0,0v-.06a0,0,0,0,1,0,0,.36.36,0,0,1,0-.09v0l.07-.1h0l.06-.06h0l.07-.06h.11a30,30,0,0,1-9.41-2s0,0,0,0a.62.62,0,0,1,.11.17h0a.5.5,0,0,1,0,.13V584a.54.54,0,0,1,0,.18v.1l-.24.78a31.19,31.19,0,0,0,8.8,1.85Zm6.12.66a32,32,0,0,0,7.46-1.87l.31-.11c1-.4,2.08-.86,3.1-1.37-.08-.26-.17-.5-.26-.75v-.07a.62.62,0,0,1,0-.27h0a.61.61,0,0,1,.07-.17.19.19,0,0,1,.06-.07l.06-.06.08-.06.07,0h0l-.06-.12a38.39,38.39,0,0,1-3.7,1.67l-.19.07a30.13,30.13,0,0,1-7.71,1.85h-.22l-.6.06a31,31,0,0,1-3.61.07H554a30.45,30.45,0,0,1-9.42-2l-.48-.19h0a31.3,31.3,0,0,1-4.73-2.39l-.48-.31a34,34,0,0,1-4.16-3.13l-.17-.16-.13-.11a36.76,36.76,0,0,1-3.42-3.53l-.12.09a.35.35,0,0,1,.08.16,0,0,0,0,1,0,0v.18h0v.08h0v0h0a.09.09,0,0,1,0,.07v0a.09.09,0,0,1,0,.05l0,0-.52.57a35.52,35.52,0,0,0,3.46,3.48c.33.29.66.58,1,.84l.32.27.37.29c.69.54,1.4,1,2.11,1.52l.5.33a31.68,31.68,0,0,0,5.23,2.73c.41.17.83.33,1.25.48a31.54,31.54,0,0,0,8.8,1.85c.45,0,.91.05,1.36.07a36.63,36.63,0,0,0,4.32-.17h0Zm0,0a32,32,0,0,0,7.46-1.87l.31-.11c1-.4,2.08-.86,3.1-1.37-.08-.26-.17-.5-.26-.75v-.07a.62.62,0,0,1,0-.27h0a.61.61,0,0,1,.07-.17.19.19,0,0,1,.06-.07l.06-.06.08-.06.07,0h0l-.06-.12a38.39,38.39,0,0,1-3.7,1.67l-.19.07a30.13,30.13,0,0,1-7.71,1.85h-.22l-.6.06a31,31,0,0,1-3.61.07H554a30.45,30.45,0,0,1-9.42-2l-.48-.19h0a31.3,31.3,0,0,1-4.73-2.39l-.48-.31a34,34,0,0,1-4.16-3.13l-.17-.16-.13-.11c.31,1.08.54,2,.65,2.46l.37.28c.69.55,1.4,1.05,2.11,1.53l.5.32a32.5,32.5,0,0,0,5.23,2.73c.41.17.83.33,1.25.48a31.26,31.26,0,0,0,8.8,1.85c.45,0,.91.06,1.36.07a34.52,34.52,0,0,0,4.32-.17h0Zm0,0a32,32,0,0,0,7.46-1.87l.31-.11c1-.4,2.08-.86,3.1-1.37-.08-.26-.17-.5-.26-.75v-.07a.62.62,0,0,1,0-.27h0a.61.61,0,0,1,.07-.17.19.19,0,0,1,.06-.07l.06-.06.08-.06.07,0h0l-.06-.12a38.39,38.39,0,0,1-3.7,1.67l-.19.07a30.13,30.13,0,0,1-7.71,1.85h-.22l-.6.06a31,31,0,0,1-3.61.07H554a30.45,30.45,0,0,1-9.42-2l-.48-.19h0a31.3,31.3,0,0,1-4.73-2.39l-.48-.31a34,34,0,0,1-4.16-3.13l-.17-.16-.13-.11c.31,1.08.54,2,.65,2.46l.37.28c.69.55,1.4,1.05,2.11,1.53l.5.32a32.5,32.5,0,0,0,5.23,2.73c.41.17.83.33,1.25.48a31.26,31.26,0,0,0,8.8,1.85c.45,0,.91.06,1.36.07a34.52,34.52,0,0,0,4.32-.17h0Zm-.93-1.32c.15.17.29.35.42.53s.36.54.52.81a32,32,0,0,0,7.46-1.86c-.15-.44-.3-.89-.47-1.35a30.13,30.13,0,0,1-7.71,1.85Zm11.88-3.5h0a.58.58,0,0,1,.73.34h0c.08.21.16.42.23.63a45.53,45.53,0,0,0,6-3.83h0c.82-1.18,1.68-2.25,2.54-3.34l2.12-2.61a47.35,47.35,0,0,1-11.66,8.71Zm-17,4.1a0,0,0,0,1,0,0,.36.36,0,0,1,0-.09v0l.07-.1h0l.06-.06h0l.07-.06h.11a30,30,0,0,1-9.41-2s0,0,0,0a.62.62,0,0,1,.11.17h0a.5.5,0,0,1,.05.13V584a.54.54,0,0,1,0,.18v.1l-.24.78a31.19,31.19,0,0,0,8.8,1.85l.17-.85Zm-14.16-5-.49-.31a33.16,33.16,0,0,1-4.15-3.13l-.17-.16c.11.32.22.66.33,1,0,.12.09.24.13.37s.06.16.08.23l.13.37.24.71c.69.55,1.4,1.05,2.11,1.53l.5.32.28-.2c.33-.23.66-.43,1-.68Zm49.52-14.54L589,566l-.72.85.65-.46Zm-29.25,20.31a32,32,0,0,0,7.46-1.86l.31-.12c1-.4,2.07-.85,3.1-1.36.35-.17.69-.35,1-.53a45.63,45.63,0,0,0,6-3.83h0c1-.74,2-1.53,2.93-2.38a57.55,57.55,0,0,0,5.76-5.82h0c1.11-1.3,2.19-2.65,3.23-4.08a61.78,61.78,0,0,0,10.23-21.57l.1-.4h0a2.05,2.05,0,0,1,.09-.43h0a41.34,41.34,0,0,0,.95-13.07v0a73.27,73.27,0,0,0-1.61-9.42v0a41.85,41.85,0,0,0-44.37-29.84,42.34,42.34,0,0,0-6.42,1.15l-1.24.35a42.62,42.62,0,0,0-4.24,1.49l-1.17.51-.58.27c-.58.28-1.15.56-1.72.86l-.56.3c-.37.2-.74.42-1.1.65a41.74,41.74,0,0,0-8,6.11l-1.31,1.31c-.66.65-1.24,1.37-1.83,2.08a42.83,42.83,0,0,0-4.68,7l0,.08a76.57,76.57,0,0,0-3.08,10.15l-.15.65a54.07,54.07,0,0,0-1.35,12.8v.05q.07,2.88.35,5.65a68.91,68.91,0,0,0,2.1,11.4h0l.16.55.14.48c.13.48.28.94.43,1.41h0c.3.94.61,1.86,1,2.76h0a49.4,49.4,0,0,0,8.06,14.21c.25.29.49.58.75.87a36.67,36.67,0,0,0,3.46,3.48c.33.29.66.58,1,.84l.32.27.37.29c.69.54,1.4,1,2.11,1.52l.5.33a32.5,32.5,0,0,0,5.23,2.73c.41.17.83.33,1.25.48a31.61,31.61,0,0,0,8.8,1.85c.45,0,.91,0,1.36.06a34.52,34.52,0,0,0,4.32-.16h0Zm-5.15-1.21H554a30.45,30.45,0,0,1-9.42-2l-.48-.19h0a31.3,31.3,0,0,1-4.73-2.39l-.48-.31a34,34,0,0,1-4.16-3.13l-.17-.16-.13-.11a36.76,36.76,0,0,1-3.42-3.53,49.27,49.27,0,0,1-9.38-17.84l0-.14a64.79,64.79,0,0,1-1.74-7.41c-.19-1.09-.35-2.19-.49-3.31h0c-.08-.57-.13-1.15-.19-1.73-.19-1.83-.31-3.7-.36-5.6v-2.74h0a66.34,66.34,0,0,1,4.46-20.27c.3-.56.6-1.11.93-1.65a42.13,42.13,0,0,1,3.2-4.65l.39-.48.4-.48c.4-.47.81-.93,1.23-1.39a40.71,40.71,0,0,1,8.07-6.67c.33-.22.65-.42,1-.62.73-.43,1.47-.83,2.23-1.21.34-.18.69-.35,1-.52h0l.56-.26c.75-.34,1.51-.65,2.28-.95l1.15-.41a38.87,38.87,0,0,1,4.94-1.36q.52-.12,1.05-.21c1-.19,2.12-.34,3.19-.45a40.29,40.29,0,0,1,15.29,1.39c.4.11.8.23,1.19.36a36.53,36.53,0,0,1,3.45,1.3l1.49.66a40.38,40.38,0,0,1,12,8.75,13.05,13.05,0,0,1,.94,1l.26.3c.3.34.58.66.85,1,.55.65,1.08,1.38,1.59,2.09.26.38.52.76.77,1.15.42.65.83,1.3,1.21,2,.25.43.49.87.72,1.3.44.83.85,1.68,1.23,2.54.2.45.39.9.57,1.37.07.15.12.3.18.45.19.48.36,1,.53,1.46s.37,1.13.54,1.7h0a71.15,71.15,0,0,1,1.58,9.15h0a39.27,39.27,0,0,1-.65,11.5l-.1.49a1.89,1.89,0,0,1-.11.47A51.81,51.81,0,0,1,597,549c-.21.66-.44,1.31-.65,2h0c-.12.32-.25.65-.38,1h0c-.21.55-.44,1.09-.65,1.64l-.06.14h0c-.44,1-.92,2.05-1.43,3.07h0a62.51,62.51,0,0,1-4.39,7.39c-.4.57-.8,1.14-1.21,1.69l-.13.2h0a62,62,0,0,1-6,7,47.16,47.16,0,0,1-11.67,8.71,36.17,36.17,0,0,1-3.7,1.68l-.19.06a30.15,30.15,0,0,1-7.71,1.86h-.22l-.6.05a31.08,31.08,0,0,1-3.61.09Zm-16.13-3.88a9.65,9.65,0,0,1,1-.65l-.49-.31a34.16,34.16,0,0,1-4.15-3.13l-.17-.16c.11.31.22.65.33.94,0,.13.09.24.13.37s.06.16.08.24.09.24.13.37l.24.71c.69.54,1.4,1,2.11,1.52l.5.33ZM553.49,586v-.1l0-.09v0l.07-.1h0l.07-.06h0l.07-.06h.12a30.11,30.11,0,0,1-9.42-2,.06.06,0,0,1,0,0,1,1,0,0,1,.11.17h0a.28.28,0,0,1,0,.13V584a.54.54,0,0,1,0,.18.17.17,0,0,1,0,.1l-.24.78a31.25,31.25,0,0,0,8.81,1.85Zm24-7h0c.82-1.18,1.67-2.25,2.54-3.34l2.12-2.61a47.35,47.35,0,0,1-11.66,8.71l.06.12h0a.57.57,0,0,1,.73.33h0c.08.2.15.41.22.62a44.69,44.69,0,0,0,6-3.84Zm-10.42,5.84.31-.12c-.08-.2-.17-.4-.26-.61s-.22-.46-.33-.69l-.19.07a30.13,30.13,0,0,1-7.71,1.85h-.22c.15.17.29.35.42.53s.36.54.52.81a31.85,31.85,0,0,0,7.45-1.84Zm-7.46,1.86a32,32,0,0,0,7.46-1.86l.31-.12c1-.4,2.07-.85,3.1-1.36-.08-.26-.18-.51-.26-.76v-.07a.57.57,0,0,1,0-.26h0a.49.49,0,0,1,.06-.17l.06-.07.07-.07.08,0,.07,0h0l-.06-.12a35.38,35.38,0,0,1-3.71,1.68l-.19.06a30,30,0,0,1-7.7,1.86h-.22l-.6.05a31.08,31.08,0,0,1-3.61.08H554a30.33,30.33,0,0,1-9.41-2l-.48-.2h0a30.79,30.79,0,0,1-4.73-2.38l-.48-.31a33.51,33.51,0,0,1-4.16-3.13l-.17-.16-.13-.12c.31,1.08.54,2,.65,2.46l.37.29c.69.54,1.4,1.05,2.11,1.52l.5.33a31.68,31.68,0,0,0,5.23,2.73c.41.17.83.33,1.24.48a31.68,31.68,0,0,0,8.81,1.85c.45,0,.91,0,1.36.06a34.59,34.59,0,0,0,4.32-.16h0Zm0,0a32,32,0,0,0,7.46-1.86l.31-.12c1-.4,2.07-.85,3.1-1.36-.08-.26-.18-.51-.26-.76v-.07a.57.57,0,0,1,0-.26h0a.49.49,0,0,1,.06-.17l.06-.07.07-.07.08,0,.07,0h0l-.06-.12a35.38,35.38,0,0,1-3.71,1.68l-.19.06a30,30,0,0,1-7.7,1.86h-.22l-.6.05a31.08,31.08,0,0,1-3.61.08H554a30.33,30.33,0,0,1-9.41-2l-.48-.2h0a30.79,30.79,0,0,1-4.73-2.38l-.48-.31a33.51,33.51,0,0,1-4.16-3.13l-.17-.16-.13-.12c.31,1.08.54,2,.65,2.46l.37.29c.69.54,1.4,1.05,2.11,1.52l.5.33a31.68,31.68,0,0,0,5.23,2.73c.41.17.83.33,1.24.48a31.68,31.68,0,0,0,8.81,1.85c.45,0,.91,0,1.36.06a34.59,34.59,0,0,0,4.32-.16h0Zm-6.13-.65v-.11s0,0,0-.08v0l.07-.1h0l.07-.07h0l.07-.05h.12a30.39,30.39,0,0,1-9.42-2,.06.06,0,0,1,0,0,.91.91,0,0,1,.11.16h0a.33.33,0,0,1,0,.13V584a.6.6,0,0,1,0,.19.17.17,0,0,1,0,.1l-.24.78a31.61,31.61,0,0,0,8.81,1.85Zm0,0v-.11s0,0,0-.08v0l.07-.1h0l.07-.07h0l.07-.05h.12a30.39,30.39,0,0,1-9.42-2,.06.06,0,0,1,0,0,.91.91,0,0,1,.11.16h0a.33.33,0,0,1,0,.13V584a.6.6,0,0,1,0,.19.17.17,0,0,1,0,.1l-.24.78a31.61,31.61,0,0,0,8.81,1.85Z" transform="translate(-511.93 -491.64)"/><path class="cls-1" d="M552,594.5a.16.16,0,0,1-.11-.19l1.45-7.49.17-.85a.17.17,0,0,1,0-.1.36.36,0,0,1,0-.09v0l.07-.1h0l.06-.06h0l.07-.06h.61a.72.72,0,0,1,.42.8v.09l-.19.56-2.49,7.5A.15.15,0,0,1,552,594.5Z" transform="translate(-511.93 -491.64)"/><path class="cls-1" d="M542.11,592.65a.14.14,0,0,1-.08-.09h0l1.24-8,.09-.62a.72.72,0,0,1,.71-.6h0l.48.19.05,0a.91.91,0,0,1,.11.16h0a.74.74,0,0,1,0,.14v.09a.54.54,0,0,1,0,.18.17.17,0,0,1,0,.1l-.24.78-2.28,7.61a.11.11,0,0,1-.12.07Z" transform="translate(-511.93 -491.64)"/><path class="cls-1" d="M530.82,574.47c-.18.18-.36.38-.53.57l-.75-.88c.14-.16.29-.33.45-.48a.56.56,0,0,1,.79,0h0l.07.08a.35.35,0,0,1,.08.16v.22h0v.07h0v0h0v.12l0,0Z" transform="translate(-511.93 -491.64)"/><path class="cls-1" d="M571.58,588.5v-.11a24.45,24.45,0,0,0-1.08-5.08c-.09-.26-.18-.51-.26-.76a.08.08,0,0,1,0-.07.57.57,0,0,1,0-.26h0a.49.49,0,0,1,.06-.17l.06-.07.07-.07.07,0,.08,0h0a.57.57,0,0,1,.73.34h0c.08.2.15.41.22.62a25.38,25.38,0,0,1,1.06,4.46C572.26,587.67,571.92,588.08,571.58,588.5Z" transform="translate(-511.93 -491.64)"/><path class="cls-1" d="M553.35,593.09a6.06,6.06,0,0,1-.51,2.41,6.7,6.7,0,0,1-.62,1.11,6.06,6.06,0,0,1-.87.95l-.24.22-.26.2a4,4,0,0,1-.56.35,6.56,6.56,0,0,1-1.19.51,7.29,7.29,0,0,1-1.31.29,7.06,7.06,0,0,1-1.3,0,5.8,5.8,0,0,1-2.49-.87,6.17,6.17,0,0,1-1.86-1.81,6.94,6.94,0,0,1-1.14-4.77,8.75,8.75,0,0,0,1.86,4.23A5.75,5.75,0,0,0,546.6,598a6.09,6.09,0,0,0,2.17-.19,10.24,10.24,0,0,0,1.06-.37,4.53,4.53,0,0,0,.48-.27l.24-.13.22-.17a6.09,6.09,0,0,0,1.57-1.63A8.07,8.07,0,0,0,553.35,593.09Z" transform="translate(-511.93 -491.64)"/><path class="cls-1" d="M567.92,592.78c0-.41.07-.83.07-1.25a17.26,17.26,0,0,0-.06-2.49,22.47,22.47,0,0,0-.38-2.46c-.14-.61-.3-1.2-.48-1.79-.14-.44-.3-.89-.47-1.35l.19-.07q.18.35.33.69c.11.24.18.41.26.61q.35.89.6,1.8a17.07,17.07,0,0,1,.59,5.08v.54C568.34,592.32,568.13,592.55,567.92,592.78Z" transform="translate(-511.93 -491.64)"/><path class="cls-1" d="M564.88,595.88a23.06,23.06,0,0,0,.47-2.74c.06-.55.09-1.09.11-1.64s0-1.09,0-1.64a30.15,30.15,0,0,0-.32-3.27,13.65,13.65,0,0,1,.77,3.27,15.82,15.82,0,0,1,0,3.37,19.83,19.83,0,0,1-.35,2Z" transform="translate(-511.93 -491.64)"/><path class="cls-1" d="M538.59,591.29l-.47-1.4a8.22,8.22,0,0,1,.17-1.09,6.89,6.89,0,0,1,1-2.15,5.79,5.79,0,0,1,1.63-1.64,11,11,0,0,0-1.25,1.86,9.28,9.28,0,0,0-.45,1c-.07.17-.12.34-.18.51s-.09.36-.14.53a10.16,10.16,0,0,0-.26,2.19Z" transform="translate(-511.93 -491.64)"/><path class="cls-1" d="M537.25,587.09c-.09-.26-.17-.53-.24-.79a6.41,6.41,0,0,1,.65-1.06,6.56,6.56,0,0,1,1.71-1.57,15.64,15.64,0,0,0-1.31,1.83A11.88,11.88,0,0,0,537.25,587.09Z" transform="translate(-511.93 -491.64)"/><path class="cls-1" d="M535.91,583.38c0-.09.1-.17.15-.26a5.78,5.78,0,0,1,.77-1,6.49,6.49,0,0,1,.73-.66,5.3,5.3,0,0,1,.45-.34,6.66,6.66,0,0,1,.85-.52l.48.31c-.34.21-.65.45-1,.65l-.28.2c-.31.22-.65.45-.93.66s-.65.53-1,.79Z" transform="translate(-511.93 -491.64)"/><path class="cls-1" d="M554.57,590.28a6.21,6.21,0,0,1,.75,2.82,6.31,6.31,0,0,1-.6,2.91,6.39,6.39,0,0,1-.78,1.31,7,7,0,0,1-1.05,1.06,6.28,6.28,0,0,1-2.61,1.26,9.53,9.53,0,0,0,2.34-1.6,7.44,7.44,0,0,0,1.61-2.24,6.15,6.15,0,0,0,.45-1.31,6.4,6.4,0,0,0,.21-1.37A8.77,8.77,0,0,0,554.57,590.28Z" transform="translate(-511.93 -491.64)"/><path class="cls-1" d="M555.81,601.56l.27-.26c.27-.26.51-.53.75-.81a10.82,10.82,0,0,0,2.06-3.93,12.91,12.91,0,0,0,.43-4.46,10.41,10.41,0,0,1,0,4.58,9.93,9.93,0,0,1-2.05,4.15c-.1.13-.21.24-.32.37A9.31,9.31,0,0,1,555.81,601.56Z" transform="translate(-511.93 -491.64)"/><path class="cls-1" d="M560.94,595.26a16.47,16.47,0,0,0-.18-3.84,13.94,13.94,0,0,0-1.17-3.62,11.3,11.3,0,0,0-.59-1.08,15.45,15.45,0,0,0-.92-1.36l.6-.05c.14.17.28.35.41.53s.36.54.52.81a9.75,9.75,0,0,1,.49.9c.15.3.27.61.4.91s.11.32.17.47l.15.47a12,12,0,0,1,.37,2A10.84,10.84,0,0,1,560.94,595.26Z" transform="translate(-511.93 -491.64)"/><path class="cls-1" d="M588.1,553.11a10.07,10.07,0,0,1-1-.81c-.32-.3-.66-.6-.93-.91a22.87,22.87,0,0,1-1.73-2,13.84,13.84,0,0,1-2.5-4.7,8.48,8.48,0,0,1-.33-2.74,3.3,3.3,0,0,1,0-.7l.11-.65a3.51,3.51,0,0,1,.14-.66c.05-.22.11-.44.18-.65a9.84,9.84,0,0,1,1.11-2.53,8.49,8.49,0,0,1,.84-1.13,6.26,6.26,0,0,1,.51-.52,3.22,3.22,0,0,1,.28-.24l.34-.25.2-.12h.27a8.18,8.18,0,0,1,2.48.6,8.49,8.49,0,0,1,1.16.6c.37.24.65.48,1,.65a7.9,7.9,0,0,0,.94.54,8.09,8.09,0,0,0,1,.42,10.21,10.21,0,0,1,1.15.46,7.22,7.22,0,0,1,1.1.65,12.79,12.79,0,0,1,1.84,1.61c.56.55,1.12,1.15,1.63,1.74,1,1.21,2,2.47,2.89,3.74l1.34,2c.44.66.85,1.31,1.28,2s.83,1.31,1.23,2,.79,1.37,1.15,2.07a42.18,42.18,0,0,1,3.47,8.8l-.13-.25a7.36,7.36,0,0,1,1.68,3,7.59,7.59,0,0,1,.13,3.45,27.92,27.92,0,0,1-2.13,6.14,63.26,63.26,0,0,1-3,5.66c-1.06,1.84-2.14,3.64-3.27,5.43-.54.89-1.09,1.78-1.54,2.66a13.94,13.94,0,0,0-.61,1.37c-.19.5-.41,1-.65,1.5a22.25,22.25,0,0,1-1.62,2.85c-.32.46-.62.85-.88,1.27a11.62,11.62,0,0,0-1.59,4.17l-.08.39-.05.37-.06.37v.38a13,13,0,0,0,0,1.53,16.41,16.41,0,0,0,1.45,6l-.15.08a14.62,14.62,0,0,1-1.37-2.88,13.36,13.36,0,0,1-.73-3.12,13.09,13.09,0,0,1,1.49-8c.27-.5.58-1,.84-1.37a21.45,21.45,0,0,0,1.38-2.7c.21-.47.38-.94.55-1.43a14.56,14.56,0,0,1,.62-1.54c.48-1,1-1.92,1.55-2.83,1.06-1.83,2.15-3.62,3.21-5.43s2.09-3.61,3-5.47c.45-.93.88-1.86,1.26-2.82a20.92,20.92,0,0,0,.91-2.88,6.12,6.12,0,0,0-1.23-5.35l-.1-.14v-.12a37.05,37.05,0,0,0-2.86-8.81c-.33-.69-.69-1.38-1.07-2.06s-.78-1.35-1.19-2-.84-1.31-1.31-2-.9-1.31-1.38-1.88a36.33,36.33,0,0,0-3.06-3.5c-.55-.55-1.11-1.06-1.7-1.56a12.63,12.63,0,0,0-1.79-1.31,7.1,7.1,0,0,0-1-.47,11,11,0,0,0-1.06-.35,8.33,8.33,0,0,1-1.18-.43,10,10,0,0,1-1.12-.59c-.36-.23-.65-.47-1-.66a6.76,6.76,0,0,0-.93-.47,7.8,7.8,0,0,0-2-.56l.46-.1a.82.82,0,0,0-.17.13l-.21.17a3.09,3.09,0,0,0-.41.4,6.43,6.43,0,0,0-.71.92,10.08,10.08,0,0,0-1,2.15,3.86,3.86,0,0,0-.17.58c0,.2-.12.39-.15.59l-.13.61a5.7,5.7,0,0,1-.06.58,7.57,7.57,0,0,0,.16,2.37,13.94,13.94,0,0,0,2,4.53c.45.71.95,1.4,1.47,2.07.26.34.54.66.81,1a7.71,7.71,0,0,0,.87.93Z" transform="translate(-511.93 -491.64)"/><path class="cls-1" d="M598.52,622.46a38.14,38.14,0,0,0,2.19-3.77c.32-.65.62-1.31.88-2,.12-.33.25-.65.4-1s.26-.66.38-1a18.32,18.32,0,0,0,.66-2c.08-.35.14-.7.19-1.06a6.37,6.37,0,0,0,0-1.07,19.09,19.09,0,0,0-1-4.28c-.46-1.41-1-2.73-1.4-4.23-.19-.74-.36-1.47-.5-2.22s-.22-1.5-.27-2.26-.08-1.48-.12-2.21-.08-1.47-.1-2.2a41.67,41.67,0,0,1,.06-4.47H600a40.77,40.77,0,0,1,1.11,4.35c.16.72.31,1.45.43,2.19s.2,1.47.27,2.2l.23,2.16c.09.71.19,1.43.31,2.13s.29,1.41.42,2.15.21,1.49.31,2.23.17,1.48.29,2.21l.39,2.19a13.44,13.44,0,0,1,.2,2.29,11.26,11.26,0,0,1-.22,2.32,12.69,12.69,0,0,1-5.11,7.41Z" transform="translate(-511.93 -491.64)"/><path class="cls-1" d="M602.79,615.91a7.38,7.38,0,0,1,2,2.24,8,8,0,0,1,1,2.89,6.35,6.35,0,0,1,0,1.57,9.64,9.64,0,0,1-.25,1.52,21.8,21.8,0,0,1-.92,2.87,28,28,0,0,1-1.23,2.74c-.24.44-.5.88-.73,1.31s-.46.82-.66,1.25c-.39.85-.76,1.74-1.07,2.61-.16.45-.29.9-.45,1.37s-.33,1-.52,1.42a26.05,26.05,0,0,1-2.93,5.23c-.57.81-1.13,1.6-1.66,2.41s-1,1.65-1.53,2.48c-2,3.38-3.74,6.87-5.44,10.38-.85,1.75-1.66,3.53-2.47,5.29l-2.43,5.32c-.8,1.78-1.62,3.55-2.4,5.33s-1.53,3.55-2.16,5.35a53.62,53.62,0,0,0-1.56,5.54c-.23.94-.45,1.89-.66,2.84l-.65,2.85c-.88,3.81-1.73,7.62-2.74,11.4h-.16c.2-2,.45-3.92.71-5.83.13-1,.27-2,.41-2.9s.29-2,.45-2.9l.48-2.89c.18-1,.35-2,.54-2.9a44.31,44.31,0,0,1,1.46-5.77,51.63,51.63,0,0,1,2.26-5.5q1.26-2.67,2.57-5.28c.87-1.75,1.73-3.51,2.65-5.23s1.9-3.44,2.88-5.13,2-3.37,2.94-5.08,1.91-3.41,2.85-5.12,1.88-3.45,2.87-5.13a29.4,29.4,0,0,0,2.39-5.23c.16-.44.3-.89.43-1.35s.26-1,.42-1.43a26,26,0,0,1,1.16-2.79,14.89,14.89,0,0,1,.74-1.31c.26-.39.51-.83.74-1.24.46-.81.89-1.67,1.31-2.55a27.41,27.41,0,0,0,1-2.65,7.74,7.74,0,0,0,.42-2.7,8.41,8.41,0,0,0-.61-2.71,8.22,8.22,0,0,0-1.56-2.39Z" transform="translate(-511.93 -491.64)"/><path class="cls-1" d="M534.5,577.14c.42,1.16.83,2.33,1.21,3.5l1.18,3.47c.2.58.4,1.16.59,1.75l.59,1.73.6,1.74c.19.58.4,1.16.6,1.74v.15h0l0-.15.48,1.3c.16.42.32.85.49,1.23a10.14,10.14,0,0,0,1.42,2.13,18.24,18.24,0,0,0,1.85,1.88,22.42,22.42,0,0,0,2.1,1.65c.37.26.72.48,1.1.7a12.81,12.81,0,0,0,1.18.57,13,13,0,0,0,2.53.79,12.56,12.56,0,0,0,5.32-.06h0c.59-.17,1.2-.31,1.78-.54a15.18,15.18,0,0,0,1.69-.78,18.11,18.11,0,0,0,3.08-2.12c1-.81,1.88-1.66,2.75-2.56s1.7-1.86,2.55-2.79l.11-.12h.19l-.3.15c.22-.27.45-.53.66-.8l.65-.82,1.31-1.65c.87-1.08,1.69-2.19,2.52-3.32s1.62-2.25,2.41-3.4,1.57-2.3,2.35-3.47,1.7-2.29,2.58-3.4,1.77-2.17,2.61-3.27,1.75-2.16,2.55-3.26a27,27,0,0,0,2.18-3.41l-.08.41a.62.62,0,0,1,0-.27.83.83,0,0,1,.14-.3,1.09,1.09,0,0,1,.29-.23.6.6,0,0,1,.27-.07l-.72.86a1.22,1.22,0,0,1,0-.27,1.11,1.11,0,0,1,.14-.29.86.86,0,0,1,.56-.31l-.66.47a6.71,6.71,0,0,0,.4-1,2.55,2.55,0,0,0,.15-.86l0-.54a2.93,2.93,0,0,0,0-.59l-.09-1.16c-.1-1.57-.1-3.12-.08-4.67,0-.77,0-1.54,0-2.31s0-1.55.1-2.32c.11-1.55.19-3.09.32-4.63h.17c.09,1.55.14,3.08.21,4.62s.17,3.07.25,4.58.2,3.06.38,4.57l.14,1.14a3.43,3.43,0,0,0,.08.56l0,.28a.88.88,0,0,0,0,.33,4.26,4.26,0,0,1-.17,1.42,8,8,0,0,1-.43,1.19l-.66.47a.77.77,0,0,0,.27-.08.92.92,0,0,0,.29-.23.76.76,0,0,0,.13-.29.57.57,0,0,0,0-.26l-.71.86a.84.84,0,0,0,.26-.07.81.81,0,0,0,.28-.24.73.73,0,0,0,.15-.29,1.13,1.13,0,0,0,0-.26l-.07.4a20.38,20.38,0,0,1-1,2c-.38.62-.77,1.21-1.18,1.79-.81,1.17-1.66,2.3-2.54,3.4s-1.77,2.19-2.66,3.27-1.79,2.15-2.57,3.27c-1.61,2.28-3.27,4.58-5,6.77-.43.56-.88,1.1-1.34,1.64s-.92,1.06-1.39,1.59l-1.42,1.56-.71.78c-.24.26-.49.51-.74.76l-.13.14h-.17l.3-.15-1.37,1.31c-.47.44-.9.9-1.37,1.31-.95.86-1.9,1.7-2.91,2.48-.49.4-1,.79-1.53,1.15s-1.07.7-1.63,1a18.2,18.2,0,0,1-3.56,1.48h0a14.78,14.78,0,0,1-5.65.47,13.51,13.51,0,0,1-2.81-.66,13.1,13.1,0,0,1-1.35-.54,12.72,12.72,0,0,1-1.31-.71,20.19,20.19,0,0,1-2.31-1.7,17.86,17.86,0,0,1-2-2,11.64,11.64,0,0,1-1.59-2.5c-.38-.92-.65-1.79-.94-2.68v-.15h0v.15c-.37-1.18-.72-2.36-1-3.55s-.66-2.38-1-3.56-.58-2.4-.86-3.6-.5-2.4-.74-3.61Z" transform="translate(-511.93 -491.64)"/><path class="cls-1" d="M515.49,571.12a12.13,12.13,0,0,1-1.73-2.48c-.24-.45-.45-.89-.65-1.36a8,8,0,0,1-.49-1.42c-.23-1-.27-2-.45-3-.08-.5-.18-1-.23-1.52a2.67,2.67,0,0,1,0-.4v-1.14a13.22,13.22,0,0,1,.06-1.54,3.74,3.74,0,0,1,.6-1.67c.09-.12.18-.26.28-.38l.34-.34.36-.29.38-.23a7.12,7.12,0,0,1,.79-.37c.26-.09.53-.16.79-.23a9,9,0,0,1,1.56-.22h1.58a5.43,5.43,0,0,1,2.92,1.19l-.07.16a9.59,9.59,0,0,0-2.83,0l-.32.06L518,556l-.69.15-.66.17-.65.17-.66.2a5.42,5.42,0,0,0-.56.22,2.32,2.32,0,0,0-.9.61,7.63,7.63,0,0,0-1,2.42l-.25.72c0,.13,0,.21-.09.32s0,.22,0,.33a4.45,4.45,0,0,0,.2,1.41,17.05,17.05,0,0,0,1.26,2.62,10.52,10.52,0,0,1,.56,1.34c.16.46.32.93.45,1.4a16.15,16.15,0,0,1,.66,2.93Z" transform="translate(-511.93 -491.64)"/><path class="cls-1" d="M516.51,555.39a5.3,5.3,0,0,1,1.73.2,4.62,4.62,0,0,1,1.62.87A4.1,4.1,0,0,1,521,558a8.09,8.09,0,0,1,.28.83,6.25,6.25,0,0,1,.18.86,10.87,10.87,0,0,1-.23,3.46c-.05.27-.13.55-.19.83a6,6,0,0,1-.25.82c-.09.27-.2.53-.3.81a4.79,4.79,0,0,1-.4.78,7.25,7.25,0,0,1-.47.75l-.28.36-.14.17-.14.15c-.36.41-.73.79-1.06,1.19a9.59,9.59,0,0,0-1.61,2.46c-.77,1.66-.6,3.79-.24,6l-.08.12h0l.06,0v-.1h0l-.12.14h0v-.06s0,0,.06,0h0l-.07.12a8.08,8.08,0,0,1-1.49-3.11,6.8,6.8,0,0,1-.18-1.8,5.6,5.6,0,0,1,.38-1.85,6,6,0,0,1,.92-1.61,12.44,12.44,0,0,1,1.21-1.31,13.57,13.57,0,0,1,1.31-1.07l.65-.46c.19-.17.4-.32.58-.51a4.34,4.34,0,0,0,1.3-2.77,4.83,4.83,0,0,0-.13-1.56c-.14-.5-.3-1-.48-1.49-.08-.25-.18-.48-.25-.73s-.16-.51-.24-.73a3.66,3.66,0,0,0-.66-1.15,8.4,8.4,0,0,0-2.44-1.87Z" transform="translate(-511.93 -491.64)"/><path class="cls-1" d="M516.19,574.94c.13,1.8.2,3.59.17,5.41V581c0,.21,0,.41,0,.61,0,.43.09.86.15,1.31.11.87.28,1.75.43,2.61l.24,1.31.26,1.31c.17.87.35,1.74.55,2.61.4,1.74.8,3.48,1.24,5.19l.34,1.31c.12.42.25.84.37,1.27s.25.89.36,1.34.19.89.28,1.31l.25,1.34.21,1.31c.13.89.27,1.78.39,2.68.25,1.78.49,3.57.7,5.35s.46,3.58.66,5.37c.09.9.17,1.8.23,2.72s.07,1.76.16,2.66c.16,1.77.35,3.55.56,5.33.4,3.56.88,7.11,1.3,10.67q1.28,10.68,2.65,21.37l-.16,0c-1-3.45-1.83-7-2.53-10.51-.36-1.76-.66-3.54-1-5.31s-.56-3.57-.81-5.34c-.48-3.57-.82-7.19-1.11-10.76-.14-1.8-.26-3.59-.32-5.4v-1.39c0-.48.05-.89.06-1.34v-2.67a71.16,71.16,0,0,0-1-10.7,47.15,47.15,0,0,0-1.21-5.23c-.14-.42-.28-.84-.41-1.26s-.31-.82-.46-1.24l-.49-1.27c-.15-.43-.31-.86-.45-1.31a45.79,45.79,0,0,1-1.36-5.27c-.17-.89-.34-1.78-.5-2.67s-.26-1.79-.38-2.69-.2-1.8-.26-2.71c0-.46,0-.92,0-1.39a6.27,6.27,0,0,1,0-.74l.09-.65c.2-1.77.36-3.56.57-5.35Z" transform="translate(-511.93 -491.64)"/><path class="cls-1" d="M526.78,655.42c.2,2.1.3,4.21.29,6.31a60.42,60.42,0,0,1-.27,6.31c-.23,2.09-.65,4.17-.81,6.26s-.24,4.2-.22,6.3v3.16c0,1-.06,2.1-.11,3.15-.09,2.1-.19,4.2-.39,6.3-.1,1-.21,2.09-.35,3.13l-.2,1.57-.23,1.56c-.32,2.08-.66,4.16-1.18,6.22h-.17c-.09-2.12,0-4.22,0-6.33l.05-1.57.07-1.57q.06-1.58.18-3.15c.15-2.09.38-4.17.6-6.26.11-1,.22-2.09.36-3.13s.29-2.09.44-3.12a57.33,57.33,0,0,0,.6-6.27c.08-2.1-.07-4.21-.06-6.31,0-1.05,0-2.1.11-3.15s.15-2.1.25-3.13a59.83,59.83,0,0,1,.87-6.27Z" transform="translate(-511.93 -491.64)"/><path class="cls-1" d="M577.1,571.32a9,9,0,0,1-3.27-2.29c-.88-1-1.4-2.17-2.18-3.17a23.36,23.36,0,0,0-3.79-3.78c-5.33-3.44-7.78-11-2.23-15.47l.25-.19.46.1c3.32.65,6.64,2.54,9.69,4.08,3,1.87,5.14,4.63,7.74,7,1.62,1.61,3.23,3.22,4.74,5l-.15.2a65.94,65.94,0,0,1-11.27-7.93c-2.43-2.17-5.48-3.56-8.29-5.26-.95-.5-2-1-3-1.4l.71-.1a5.74,5.74,0,0,0-2.7,7.65,5.82,5.82,0,0,0,.91,1.35c1.23,1.51,2.87,2.16,4.46,3.21a14.54,14.54,0,0,1,4.13,4.46c1,1.65,1.36,3.51,2.62,5,.39.48.84.91,1.26,1.41l-.14.21Z" transform="translate(-511.93 -491.64)"/><path class="cls-1" d="M574.5,572.48a13,13,0,0,1-7.76-5.05c-1-1.21-1.85-2.66-3.27-2.76s-3.07.21-4.54.19l1-.57a9.7,9.7,0,0,0-.53,5.38,13.51,13.51,0,0,0,2.3,5.5l-.16.21a8.13,8.13,0,0,1-4.94-8.77,9.92,9.92,0,0,1,1.83-4.08,42.23,42.23,0,0,1,5.18,1.31c1.61.47,2.72,1.68,4.19,2.38,2.08,1,3.58,2.75,5.23,4.33a17.34,17.34,0,0,1,1.59,1.73l-.13.23Z" transform="translate(-511.93 -491.64)"/><path class="cls-1" d="M593.78,601.88a30.18,30.18,0,0,0,1.3,9.9A9.25,9.25,0,0,1,593.78,601.88Z" transform="translate(-511.93 -491.64)"/><path class="cls-1" d="M591.72,606.72c.41,2.46.89,4.75,1.49,7.19A6.52,6.52,0,0,1,591.72,606.72Z" transform="translate(-511.93 -491.64)"/><path class="cls-1" d="M590.27,609.6c.24,2.42.56,4.68,1,7.09A6.27,6.27,0,0,1,590.27,609.6Z" transform="translate(-511.93 -491.64)"/><path class="cls-1" d="M588.51,613.55a9,9,0,0,1,1,4.48A3.85,3.85,0,0,1,588.51,613.55Z" transform="translate(-511.93 -491.64)"/><path class="cls-1" d="M596.48,595.75c.23,1.24.38,2.92.55,4.17s.41,2.91.49,4.18A9.21,9.21,0,0,1,596.48,595.75Z" transform="translate(-511.93 -491.64)"/><path class="cls-1" d="M596.05,595.94a8,8,0,0,1,1.74,5.45A8,8,0,0,1,596.05,595.94Z" transform="translate(-511.93 -491.64)"/><path class="cls-1" d="M595.55,596.5a3.15,3.15,0,0,1,3.6,2.6,3.08,3.08,0,0,1,0,.74A19.52,19.52,0,0,0,595.55,596.5Z" transform="translate(-511.93 -491.64)"/><path class="cls-1" d="M600.27,620.57c0,1-.26,2.27-.38,3.27s-.25,2.25-.46,3.27a5.9,5.9,0,0,1,.84-6.5Z" transform="translate(-511.93 -491.64)"/><path class="cls-1" d="M599.6,621.47a20.14,20.14,0,0,0-.87,7.94A6.23,6.23,0,0,1,599.6,621.47Z" transform="translate(-511.93 -491.64)"/><path class="cls-1" d="M599,622.12a23.65,23.65,0,0,0-1.31,10.14A9,9,0,0,1,599,622.12Z" transform="translate(-511.93 -491.64)"/><path class="cls-1" d="M596.54,627.1c.08,1.11,0,2.58.05,3.68s.07,2.56,0,3.69A7.19,7.19,0,0,1,596.54,627.1Z" transform="translate(-511.93 -491.64)"/><path class="cls-1" d="M595.1,630.72a14.08,14.08,0,0,1,.15,4.58A3.53,3.53,0,0,1,595.1,630.72Z" transform="translate(-511.93 -491.64)"/><path class="cls-1" d="M600.94,631.88a8,8,0,0,1-3.8,5.43A16.61,16.61,0,0,1,600.94,631.88Z" transform="translate(-511.93 -491.64)"/><path class="cls-1" d="M553,606.15a13.33,13.33,0,0,1-11.31-5A41.51,41.51,0,0,0,553,606.15Z" transform="translate(-511.93 -491.64)"/><path class="cls-1" d="M552.18,607.72a11.3,11.3,0,0,1-10.34-3.58A41.7,41.7,0,0,0,552.18,607.72Z" transform="translate(-511.93 -491.64)"/><path class="cls-1" d="M548.92,609.89a6.41,6.41,0,0,1-6.36-2.1,15.5,15.5,0,0,1,1.65.46c1.54.53,3.2,1,4.71,1.64Z" transform="translate(-511.93 -491.64)"/><path class="cls-1" d="M555.55,604.13a14.07,14.07,0,0,1-11.25-2.74,85.47,85.47,0,0,0,11.26,2.72Z" transform="translate(-511.93 -491.64)"/><path class="cls-1" d="M604.86,564.65a3.84,3.84,0,0,1,3.18,2A3.49,3.49,0,0,1,604.86,564.65Z" transform="translate(-511.93 -491.64)"/><path class="cls-1" d="M605.31,566.75a2.51,2.51,0,0,1,2.69,2.33h0A5.35,5.35,0,0,1,605.31,566.75Z" transform="translate(-511.93 -491.64)"/><path class="cls-1" d="M604.21,567.25a3.77,3.77,0,0,1,3.46,3.49A22,22,0,0,1,604.21,567.25Z" transform="translate(-511.93 -491.64)"/><path class="cls-1" d="M605.75,560.27a9.23,9.23,0,0,1-3.57-.94,2.42,2.42,0,0,1,3.38.6A2.27,2.27,0,0,1,605.75,560.27Z" transform="translate(-511.93 -491.64)"/><path class="cls-1" d="M605.18,558.48a5,5,0,0,1-3.09-.34,2,2,0,0,1,2.77-.06A2.08,2.08,0,0,1,605.18,558.48Z" transform="translate(-511.93 -491.64)"/><path class="cls-1" d="M516.85,575a4,4,0,0,1,3.68-2.76,3.3,3.3,0,0,1,1.58.29c-.51.19-1,.34-1.43.5a18.21,18.21,0,0,0-3.83,2Z" transform="translate(-511.93 -491.64)"/><path class="cls-1" d="M517.35,576.3a9,9,0,0,1,10.26-2.11A21.51,21.51,0,0,0,517.35,576.3Z" transform="translate(-511.93 -491.64)"/><path class="cls-1" d="M516.46,573.36A3.74,3.74,0,0,1,521,571c-.69.44-1.56.84-2.26,1.21S517.2,573,516.46,573.36Z" transform="translate(-511.93 -491.64)"/><path class="cls-1" d="M517.09,571.32a3.21,3.21,0,0,1,3.66-2.28A10.9,10.9,0,0,1,517.09,571.32Z" transform="translate(-511.93 -491.64)"/><path class="cls-1" d="M517.15,579.82a4.56,4.56,0,0,1,5.47-2.61A49.83,49.83,0,0,0,517.15,579.82Z" transform="translate(-511.93 -491.64)"/><path class="cls-1" d="M610,567.13a7.86,7.86,0,0,0-7-5.74C606.58,559.29,611.36,563.16,610,567.13Z" transform="translate(-511.93 -491.64)"/><path class="cls-2" d="M595.88,552.7c.47-3.13,2-16-6.27-27.59-10.13-14.21-26.75-15.24-30.27-15.43s-16.6-.8-28.24,8.59a40.2,40.2,0,0,0-13,19.14" transform="translate(-511.93 -491.64)"/><path class="cls-1" d="M596.17,549.75A19.29,19.29,0,0,0,591.56,539a20.39,20.39,0,0,1,6.63,10.41Z" transform="translate(-511.93 -491.64)"/><path class="cls-1" d="M595.37,551.49a8.15,8.15,0,0,0-1.27-5.08l-.65-1a37,37,0,0,1-3.33-6.28,7.89,7.89,0,0,0-3.27-3.18,8.11,8.11,0,0,1,3.69,2.93c.43.7.75,1.37,1.18,2a35.33,35.33,0,0,0,3.5,4.58,9.88,9.88,0,0,1,2.21,5.88l-2,.05Z" transform="translate(-511.93 -491.64)"/><path class="cls-1" d="M594.31,553.7c-.25-3.21-1.9-5.93-3.41-8.68a41.45,41.45,0,0,0-2.14-4.33,14.09,14.09,0,0,0-3.34-3.42,13.49,13.49,0,0,1,5.15,5.18c1.12,2.19,2.7,4,4,6.13a18,18,0,0,1,1.79,4.76l-2,.36Z" transform="translate(-511.93 -491.64)"/><path class="cls-1" d="M592.72,555.89a29.42,29.42,0,0,0-3-9.68c-.79-1.51-1.64-3.06-2.41-4.61a9.43,9.43,0,0,0-3.5-3.67,9.72,9.72,0,0,1,3.92,3.41c.92,1.49,1.89,2.89,2.86,4.38a30.85,30.85,0,0,1,4.09,9.8l-2,.39Z" transform="translate(-511.93 -491.64)"/><path class="cls-1" d="M591.1,558.16c.13-7-3.07-13.85-7.91-18.91a29.6,29.6,0,0,1,8.93,13.39,24.64,24.64,0,0,1,1,5.45Z" transform="translate(-511.93 -491.64)"/><path class="cls-1" d="M587.87,560.86c2.19-4.81,1.14-10.38-1.4-14.88a38.57,38.57,0,0,0-2.75-4.58,39.55,39.55,0,0,1,3.19,4.33c3.18,4.53,4.74,10.46,2.88,15.87l-1.92-.72Z" transform="translate(-511.93 -491.64)"/><path class="cls-1" d="M587.26,554.85c.4-4.24-2.14-8.11-3.88-11.8l1.87,2.65c2,2.68,3.81,5.66,4.06,9.1Z" transform="translate(-511.93 -491.64)"/><polygon class="cls-1" points="74.19 72.36 73.74 68.8 76.07 71.54 74.19 72.36 74.19 72.36"/><path class="cls-1" d="M585,564.78a17.92,17.92,0,0,0-3.56-7.92,18.53,18.53,0,0,1,4.66,7.63Z" transform="translate(-511.93 -491.64)"/><path class="cls-1" d="M582.61,566.41a17.07,17.07,0,0,0-1-5.88,18.18,18.18,0,0,0-1.25-2.77,16.88,16.88,0,0,0-1.73-2.53,17.22,17.22,0,0,1,2,2.38,17.58,17.58,0,0,1,1.54,2.7,18.1,18.1,0,0,1,1.58,6.08Z" transform="translate(-511.93 -491.64)"/><path class="cls-1" d="M581.62,567.26a19,19,0,0,0-.75-4.68,19.84,19.84,0,0,0-1.93-4.37c-.4-.7-.83-1.39-1.26-2.08a17.82,17.82,0,0,0-1.39-2,20.18,20.18,0,0,0-3.47-3.38,19.42,19.42,0,0,1,3.69,3.2,18.94,18.94,0,0,1,1.53,1.92c.47.65.94,1.3,1.39,2a20.6,20.6,0,0,1,2.25,4.41,19.29,19.29,0,0,1,1.08,4.87Z" transform="translate(-511.93 -491.64)"/><path class="cls-1" d="M579.87,568.54a19.62,19.62,0,0,0-1.1-6.12,21.26,21.26,0,0,0-2.94-5.55,22.66,22.66,0,0,0-4.4-4.51,21.72,21.72,0,0,0-5.55-3.13,22,22,0,0,1,5.71,2.88,23.63,23.63,0,0,1,4.69,4.41,22,22,0,0,1,3.27,5.6,20.77,20.77,0,0,1,1.44,6.37Z" transform="translate(-511.93 -491.64)"/><path class="cls-1" d="M578.3,569.22a13.2,13.2,0,0,0-.74-5.54,20.05,20.05,0,0,0-2.87-4.95,24.15,24.15,0,0,0-8.9-7.3,24.32,24.32,0,0,1,9.35,7c.61.77,1.21,1.53,1.78,2.36a15.44,15.44,0,0,1,1.44,2.61,14.16,14.16,0,0,1,1.07,5.89Z" transform="translate(-511.93 -491.64)"/><path class="cls-1" d="M575.68,570.47a19.26,19.26,0,0,0-.57-5.76,18.75,18.75,0,0,0-2.24-5.37,21.1,21.1,0,0,0-8.73-7.75,21.34,21.34,0,0,1,9.21,7.44,19.42,19.42,0,0,1,2.61,5.45,20.8,20.8,0,0,1,.89,6Z" transform="translate(-511.93 -491.64)"/><path class="cls-1" d="M575.45,570.22a45.08,45.08,0,0,0-4.83-8.9,39.3,39.3,0,0,0-3.19-4,39.78,39.78,0,0,0-3.68-3.55,38.31,38.31,0,0,1,7.36,7.18,45.82,45.82,0,0,1,5.42,8.78Z" transform="translate(-511.93 -491.64)"/><path class="cls-1" d="M573.66,568.71a19.91,19.91,0,0,0-2.3-8.5,20.62,20.62,0,0,0-5.8-6.79,20.79,20.79,0,0,1,9.25,15.2Z" transform="translate(-511.93 -491.64)"/><path class="cls-1" d="M568.29,561.56a16.37,16.37,0,0,0-5.28-7.19,16.88,16.88,0,0,1,6.33,6.73Z" transform="translate(-511.93 -491.64)"/><path class="cls-1" d="M567.39,573.38A11,11,0,0,0,566,568.8c-.14-.24-.28-.47-.43-.69a8,8,0,0,0-.48-.66,10.85,10.85,0,0,0-2.39-2.25,11.61,11.61,0,0,0-3-1.51,11.81,11.81,0,0,1,3.13,1.26,11.49,11.49,0,0,1,2.68,2.13c.19.22.38.42.56.65s.35.46.52.7a12.5,12.5,0,0,1,.86,1.51,12.26,12.26,0,0,1,1,3.35Z" transform="translate(-511.93 -491.64)"/><path class="cls-1" d="M564.31,573.76a8.21,8.21,0,0,0,.56-3,7.57,7.57,0,0,0-.66-3,8.33,8.33,0,0,0-1.78-2.58,10.26,10.26,0,0,0-2.61-1.88,10.28,10.28,0,0,1,2.77,1.67,8.79,8.79,0,0,1,2.1,2.53,8.35,8.35,0,0,1,1,3.21,9.24,9.24,0,0,1-.33,3.39Z" transform="translate(-511.93 -491.64)"/><path class="cls-1" d="M561.5,573.9a8.52,8.52,0,0,0,0-7.53,9.27,9.27,0,0,0-1.53-2.19,9.18,9.18,0,0,1,1.78,2.05,9.37,9.37,0,0,1,1.11,2.53,9.49,9.49,0,0,1-.27,5.58Z" transform="translate(-511.93 -491.64)"/><path class="cls-1" d="M559.53,573.36a10.93,10.93,0,0,0,.61-2.31,10.21,10.21,0,0,0,.08-2.41,10.37,10.37,0,0,0-1.56-4.63,10.74,10.74,0,0,1,2.34,7.12,11.91,11.91,0,0,1-.38,2.58Z" transform="translate(-511.93 -491.64)"/><path class="cls-3" d="M571.52,512a39.85,39.85,0,0,1,8,3.72,36,36,0,0,1,6.31,4.95,35,35,0,0,1,5.23,6.69,36.2,36.2,0,0,1,3.58,8.1,40.24,40.24,0,0,1,1.22,17.25,58.65,58.65,0,0,1-3.76,5.23,46.61,46.61,0,0,1-8.76,8.82A37.82,37.82,0,0,1,571,572.58a41,41,0,0,1-20.79,1.31A41.76,41.76,0,0,1,520.3,548,39,39,0,0,1,518,536.67a61.46,61.46,0,0,1,2.92-5.93,63.64,63.64,0,0,1,3.44-5.48,39.6,39.6,0,0,1,10.75-9.81,40.55,40.55,0,0,1,20.17-5.83A45.57,45.57,0,0,1,571.52,512Z" transform="translate(-511.93 -491.64)"/><path class="cls-1" d="M582.13,570.3c-14.3,12-35.78,11.12-49.77-1a39.59,39.59,0,0,1-5.3-5.53,44.55,44.55,0,0,0,12,9.25,41,41,0,0,0,43.07-2.75Z" transform="translate(-511.93 -491.64)"/><path class="cls-1" d="M553.13,580.64a25.4,25.4,0,0,1-19.14-7.9A47,47,0,0,0,553.13,580.64Z" transform="translate(-511.93 -491.64)"/><path class="cls-1" d="M569.33,581.32a29.71,29.71,0,0,1-23.82.92A49.88,49.88,0,0,0,569.33,581.32Z" transform="translate(-511.93 -491.64)"/><path class="cls-1" d="M576,501.12c-13.65-4.53-28.3-2.23-40.44,5.28C546.79,497.61,562.91,495.14,576,501.12Z" transform="translate(-511.93 -491.64)"/><path class="cls-1" d="M568.29,503.84A35.69,35.69,0,0,1,595.68,530,42.79,42.79,0,0,0,568.29,503.84Z" transform="translate(-511.93 -491.64)"/><path class="cls-4" d="M567.62,517.54a66.23,66.23,0,0,0-18.6.31,33.88,33.88,0,0,0-16.15,8.7,42,42,0,0,0-7.66,9.7l-.1,0a29.74,29.74,0,0,1,7-10.46c4.57-4.49,10.65-7,16.83-8.24a36.39,36.39,0,0,1,12.5-1.26,31.75,31.75,0,0,1,6.19,1.17v.11Z" transform="translate(-511.93 -491.64)"/><path class="cls-4" d="M581.07,567.49h0a26.38,26.38,0,0,0,2.13-2.1l.59-.66a5.17,5.17,0,0,0,.48-.59l.18-.22.46-.61h0l.31-.44c.4-.59.78-1.19,1.14-1.81a3.3,3.3,0,0,1,.18-.32L587,560c.21-.43.42-.86.6-1.3.06-.11.1-.23.15-.33a25.25,25.25,0,0,0,1.52-5l.06-.3a21.78,21.78,0,0,0,.32-2.41v-.43a7,7,0,0,1,0-.8c0-.66,0-1.31,0-2v-.29l-.08-.69a8.36,8.36,0,0,0-.12-1h0a28.57,28.57,0,0,0-1.18-4.74,25.37,25.37,0,0,0-1.13-2.76c-.31-.65-.65-1.36-1-2l-.25-.44c-.27-.48-.56-1-.86-1.42a31.49,31.49,0,0,0-2-2.82,28.3,28.3,0,0,0-12.84-8.9v.06a35.05,35.05,0,0,1,6.8,3.84,32.92,32.92,0,0,1,5.69,5.31,33.32,33.32,0,0,1,2.2,2.82l.19.27c.22.33.44.66.65,1,0,0,0,.07.08.11A23.78,23.78,0,0,1,587,538l.2.45.19.45c.13.3.27.6.38.9l.14.4.18.53c.06.15.11.3.17.46l.13.47.27.94.19,1a9.58,9.58,0,0,1,.19,1.07l.12.86a23.06,23.06,0,0,1,.15,3.11,9.43,9.43,0,0,1-.06,1.31v.36a26.36,26.36,0,0,1-2,7.7c-.19.44-.39.89-.6,1.3s-.32.66-.49,1l-.11.23c-.29.53-.6,1-.93,1.57a13.59,13.59,0,0,1-.9,1.3h0c-.25.36-.52.71-.79,1h0l-.19.23-.65.76c-.23.25-.37.42-.57.65l-.31.33a27.47,27.47,0,0,1-2.17,2h0Z" transform="translate(-511.93 -491.64)"/><path class="cls-4" d="M523.72,552.09c.06.49.13,1,.22,1.45-.35-.57-.69-1.14-1-1.73,0-.43,0-.85-.06-1.28v-2a29.71,29.71,0,0,1,1.26-7.37h.08a34.54,34.54,0,0,0-.65,8.67v0A19.8,19.8,0,0,0,523.72,552.09Z" transform="translate(-511.93 -491.64)"/><path class="cls-4" d="M551.91,572.09c-.83.07-1.66.11-2.48.12H547.6l-.77-.3c.53,0,1.06.05,1.59.05h1c.53,0,1.05-.06,1.57-.11l.62-.08c.72-.09,1.44-.21,2.16-.35a38.6,38.6,0,0,0,4.23-1.09c1.12-.35,2.24-.75,3.33-1.18l.77-.31c.46-.18.92-.39,1.37-.6L564,568c.43-.21.85-.43,1.27-.66l.4-.21.35-.19,1-.56.42-.25.17-.11.41-.26h0l1.08-.72a46.36,46.36,0,0,0,4.08-3.17h0v0a33.31,33.31,0,0,1-3.76,3.46c-.33.26-.65.51-1,.77l-.43.3-.26.17-.44.3c-.31.2-.62.4-.94.59l-.44.26-.47.27a10,10,0,0,1-1.31.66l-.65.31c-.65.31-1.31.59-2,.86a33.08,33.08,0,0,1-3.32,1.1A35.66,35.66,0,0,1,551.91,572.09Z" transform="translate(-511.93 -491.64)"/><path class="cls-4" d="M571.24,530.08c-1.17-.65-2.32-1.36-3.51-2l-.9-.43c-.3-.15-.6-.28-.9-.42l-1.84-.76a21.86,21.86,0,0,0-3.8-1.22,18.55,18.55,0,0,0-4-.35,29.24,29.24,0,0,0-4,.33,17.7,17.7,0,0,0-1.92.41c-.32.09-.66.19-.94.29s-.61.22-.91.34a11.29,11.29,0,0,0-5.77,5.09l-.08,0a9.15,9.15,0,0,1,2.08-3.53,9.71,9.71,0,0,1,1.58-1.36,10.22,10.22,0,0,1,1.83-1,14.39,14.39,0,0,1,4-1,18.64,18.64,0,0,1,4.09,0c1.35.14,2.69.35,4,.55a27.31,27.31,0,0,1,4,.83,17.08,17.08,0,0,1,3.72,1.69,17.38,17.38,0,0,1,3.26,2.47Z" transform="translate(-511.93 -491.64)"/><path class="cls-4" d="M548.84,539.12a19.77,19.77,0,0,0,2,3.84,15.56,15.56,0,0,0,2.83,3.23,12.06,12.06,0,0,0,3.62,2.22,13.27,13.27,0,0,0,4.18.82,14.59,14.59,0,0,0,4.27-.42,8,8,0,0,0,3.77-2,4.74,4.74,0,0,0,.66-.82c.1-.15.18-.31.27-.47a2.1,2.1,0,0,0,.2-.49,5,5,0,0,0,.25-2.11,7.85,7.85,0,0,0-1-3.05l-.26-.46-.3-.44a8,8,0,0,0-1.49-1.52,10.93,10.93,0,0,0-1.82-1.11,19.78,19.78,0,0,0-4.1-1.31c-.71-.15-1.42-.31-2.13-.42a7.24,7.24,0,0,0-2.08-.1,3,3,0,0,0-1.76.82,3.39,3.39,0,0,0-.88,1.76,5.49,5.49,0,0,0,0,2.06,5.34,5.34,0,0,0,.73,1.92,6.47,6.47,0,0,0,3.2,2.61,5.56,5.56,0,0,0,2.06.33,4.71,4.71,0,0,0,2-.54,6.43,6.43,0,0,0,2.74-3.21h0a6.78,6.78,0,0,1-1,2,5.4,5.4,0,0,1-1.63,1.49,5,5,0,0,1-2.13.66,5.63,5.63,0,0,1-2.23-.29,6.87,6.87,0,0,1-3.52-2.71,5.62,5.62,0,0,1-.85-2.11,6.3,6.3,0,0,1,0-2.29,3.91,3.91,0,0,1,1.05-2.07,3.46,3.46,0,0,1,2.12-1,8.09,8.09,0,0,1,2.25.13c.73.12,1.44.29,2.15.45a19.15,19.15,0,0,1,4.17,1.41,8.49,8.49,0,0,1,4.84,7,5.22,5.22,0,0,1-.29,2.18,4.15,4.15,0,0,1-.49,1,5.2,5.2,0,0,1-.69.86,7.37,7.37,0,0,1-1.78,1.31,10.91,10.91,0,0,1-2,.83,15,15,0,0,1-4.37.58,12.43,12.43,0,0,1-4.35-.82,12.09,12.09,0,0,1-3.74-2.36,15.91,15.91,0,0,1-2.78-3.4,16.65,16.65,0,0,1-1-2,15.42,15.42,0,0,1-.78-2Z" transform="translate(-511.93 -491.64)"/><path class="cls-5" d="M637.22,580.63V592.1l-.41.35-.42.35-.43.37-.26-.11a3.58,3.58,0,0,0,.09-.45v-10.1a1.73,1.73,0,0,0-.25-1,1.14,1.14,0,0,0-.94-.34v-.33c.33,0,.65.05,1,.05a6.36,6.36,0,0,0,.87-.06A3.61,3.61,0,0,0,637.22,580.63Zm2.45,4a2.6,2.6,0,0,1,2.13,1.06,5,5,0,0,1,.85,3.2,5.22,5.22,0,0,1-.48,2.37,3.27,3.27,0,0,1-3,1.89,2.9,2.9,0,0,1-1.51-.45,2.76,2.76,0,0,1-1.1-1.31l.32.17a2.54,2.54,0,0,0,2.16,1.24,1.69,1.69,0,0,0,1.58-.95,6.37,6.37,0,0,0,.53-3,9.33,9.33,0,0,0-.21-2.11,2.58,2.58,0,0,0-.65-1.27,1.54,1.54,0,0,0-1.08-.41,1.86,1.86,0,0,0-1.31.66,3.25,3.25,0,0,0-.75,1.91l-.19-.23a3.44,3.44,0,0,1,.94-2.07,2.51,2.51,0,0,1,1.79-.75Z" transform="translate(-511.93 -491.64)"/><path class="cls-5" d="M647.65,584.62a2.77,2.77,0,0,1,2.16.84,3.72,3.72,0,0,1,.78,2.61h-5.54v-.3h4.05a5.22,5.22,0,0,0-.13-1.42,2.5,2.5,0,0,0-.49-1,1.1,1.1,0,0,0-.87-.4,1.61,1.61,0,0,0-1.31.73,4.3,4.3,0,0,0-.66,2.29l.05.06c0,.16,0,.33-.05.52s0,.37,0,.56a4.47,4.47,0,0,0,.35,1.84,2.8,2.8,0,0,0,.9,1.17,2,2,0,0,0,1.15.4,2.74,2.74,0,0,0,.9-.15,2.34,2.34,0,0,0,.78-.49,3,3,0,0,0,.66-.93l.31.12a3.25,3.25,0,0,1-.57,1,2.95,2.95,0,0,1-2.36,1.1,3.54,3.54,0,0,1-2-.52,3.36,3.36,0,0,1-1.25-1.44,4.92,4.92,0,0,1-.43-2.11,5.84,5.84,0,0,1,.44-2.37,3.53,3.53,0,0,1,1.24-1.54A3.23,3.23,0,0,1,647.65,584.62Z" transform="translate(-511.93 -491.64)"/><path class="cls-5" d="M658.89,584.84v.31a.9.9,0,0,0-.55.27,2,2,0,0,0-.47.83L655.29,593H655l-2.86-7a1.51,1.51,0,0,0-.5-.74.83.83,0,0,0-.41-.13v-.33l.65,0h1.76a8.36,8.36,0,0,0,1,0v.33a5.36,5.36,0,0,0-.7.05.48.48,0,0,0-.4.31,1.49,1.49,0,0,0,.15.86l2,4.85-.1.08,1.79-4.69a1.67,1.67,0,0,0,.16-.82.62.62,0,0,0-.31-.47,2,2,0,0,0-.84-.19v-.31h2.48Z" transform="translate(-511.93 -491.64)"/><path class="cls-5" d="M663.06,584.62a2.78,2.78,0,0,1,2.16.84,3.81,3.81,0,0,1,.78,2.61h-5.54v-.3h4a5.22,5.22,0,0,0-.13-1.42,2.27,2.27,0,0,0-.49-1,1.11,1.11,0,0,0-.87-.4,1.61,1.61,0,0,0-1.31.73,4.2,4.2,0,0,0-.65,2.29l.05.06a1.94,1.94,0,0,1-.05.52,2.1,2.1,0,0,0,0,.56,4.46,4.46,0,0,0,.34,1.84,3,3,0,0,0,.9,1.17,2,2,0,0,0,1.16.4,2.68,2.68,0,0,0,.89-.15,2.29,2.29,0,0,0,.79-.49,3.32,3.32,0,0,0,.65-.93l.32.12a3.47,3.47,0,0,1-.57,1,3,3,0,0,1-1,.79,3,3,0,0,1-1.38.31,3.56,3.56,0,0,1-2-.52,3.4,3.4,0,0,1-1.24-1.44,5.08,5.08,0,0,1-.43-2.11,5.84,5.84,0,0,1,.44-2.37,3.53,3.53,0,0,1,1.24-1.54A3.27,3.27,0,0,1,663.06,584.62Z" transform="translate(-511.93 -491.64)"/><path class="cls-5" d="M672.07,584.62a1.47,1.47,0,0,1,.74.17,1.36,1.36,0,0,1,.51.44,1.19,1.19,0,0,1,.17.66,1,1,0,0,1-.24.69.78.78,0,0,1-.65.29.87.87,0,0,1-.58-.2.77.77,0,0,1-.25-.61.79.79,0,0,1,.16-.51,1.5,1.5,0,0,1,.37-.34.37.37,0,0,0-.33-.15,1.57,1.57,0,0,0-.89.28,2.73,2.73,0,0,0-.69.75,3.86,3.86,0,0,0-.44,1,3.32,3.32,0,0,0-.16,1v3.32a1.09,1.09,0,0,0,.45,1,2.41,2.41,0,0,0,1.21.26V593l-1,0h-3.22v-.33a1.38,1.38,0,0,0,.92-.24,1.15,1.15,0,0,0,.27-.89v-4.91a1.76,1.76,0,0,0-.25-1,1.12,1.12,0,0,0-.94-.33v-.33c.34,0,.65,0,1,0a6.35,6.35,0,0,0,.87-.05,4.89,4.89,0,0,0,.76-.16v2a4.59,4.59,0,0,1,.49-.93,3.35,3.35,0,0,1,.78-.77A1.82,1.82,0,0,1,672.07,584.62Z" transform="translate(-511.93 -491.64)"/><path class="cls-5" d="M676.4,593a2.35,2.35,0,0,1-1.11-.25,1.63,1.63,0,0,1-.72-.68,2.14,2.14,0,0,1-.25-1,1.89,1.89,0,0,1,.33-1.13,2.31,2.31,0,0,1,.82-.7,6.13,6.13,0,0,1,1.06-.45l1.06-.35a3.28,3.28,0,0,0,.83-.38.67.67,0,0,0,.32-.58v-1a2.06,2.06,0,0,0-.2-1,1,1,0,0,0-.53-.46,2.24,2.24,0,0,0-.73-.12,3.4,3.4,0,0,0-.84.11,1.29,1.29,0,0,0-.72.46.88.88,0,0,1,.52.31.86.86,0,0,1,.22.65.81.81,0,0,1-.25.66.94.94,0,0,1-.66.23.81.81,0,0,1-.65-.29,1.1,1.1,0,0,1-.21-.66,1,1,0,0,1,.2-.65,2.57,2.57,0,0,1,.52-.47,3.57,3.57,0,0,1,.93-.43,4.19,4.19,0,0,1,1.31-.18,3.44,3.44,0,0,1,1.1.15,2,2,0,0,1,.75.43,1.73,1.73,0,0,1,.54.92,5.76,5.76,0,0,1,.12,1.31v4.36a1.09,1.09,0,0,0,.12.56.43.43,0,0,0,.37.18.76.76,0,0,0,.33-.08,1.9,1.9,0,0,0,.37-.26l.18.27a7.39,7.39,0,0,1-.66.42,1.69,1.69,0,0,1-.8.16,1.49,1.49,0,0,1-.75-.16,1,1,0,0,1-.45-.46,1.73,1.73,0,0,1-.15-.78,2.93,2.93,0,0,1-1,1.06A2.72,2.72,0,0,1,676.4,593Zm.57-.66a1.68,1.68,0,0,0,1-.3,2.66,2.66,0,0,0,.81-.89V588.1a1.48,1.48,0,0,1-.55.45c-.24.12-.51.24-.79.36a5.25,5.25,0,0,0-.81.43,2,2,0,0,0-.65.65,1.84,1.84,0,0,0-.25,1,1.44,1.44,0,0,0,.33,1,1.18,1.18,0,0,0,1,.39Z" transform="translate(-511.93 -491.64)"/><path class="cls-5" d="M684.86,595.86a6.35,6.35,0,0,1-1.57-.17,2.8,2.8,0,0,1-1.19-.54,1.17,1.17,0,0,1-.45-.93,1.25,1.25,0,0,1,.45-1,2.9,2.9,0,0,1,1.19-.59l.1.25a1,1,0,0,0-.56.44,1.31,1.31,0,0,0-.2.74,1.23,1.23,0,0,0,.65,1.11,3.51,3.51,0,0,0,1.74.38,5.33,5.33,0,0,0,1.38-.18,2.51,2.51,0,0,0,1.11-.6,1.48,1.48,0,0,0,.44-1.12,1.12,1.12,0,0,0-.37-.86,2.23,2.23,0,0,0-1.45-.33H685a6.24,6.24,0,0,1-1-.08,1.56,1.56,0,0,1-.77-.33,1,1,0,0,1-.3-.77,1.51,1.51,0,0,1,.44-1,4.83,4.83,0,0,1,1.62-1l.19.14a6.31,6.31,0,0,0-.93.58.8.8,0,0,0-.39.65c0,.34.24.5.75.5h2a3.83,3.83,0,0,1,1.21.19,1.94,1.94,0,0,1,.91.6A1.57,1.57,0,0,1,689,593a2.26,2.26,0,0,1-.47,1.39,3.44,3.44,0,0,1-1.4,1A5.86,5.86,0,0,1,684.86,595.86Zm.07-6.29a3.5,3.5,0,0,1-1.39-.26,2.11,2.11,0,0,1-1-.8,3,3,0,0,1,0-2.83,2.19,2.19,0,0,1,1-.81,3.68,3.68,0,0,1,1.39-.25,3.74,3.74,0,0,1,1.41.25,2.22,2.22,0,0,1,1,.81,3,3,0,0,1,0,2.83,2.13,2.13,0,0,1-1,.8,3.5,3.5,0,0,1-1.39.26Zm0-.28a1.06,1.06,0,0,0,.94-.47,4.67,4.67,0,0,0,0-3.45,1.16,1.16,0,0,0-1.61-.25,1.48,1.48,0,0,0-.25.25,4.48,4.48,0,0,0,0,3.45,1.07,1.07,0,0,0,.94.47Zm2.27-3.37-.28-.11a2.23,2.23,0,0,1,.75-.94,1.78,1.78,0,0,1,1.11-.41,1,1,0,0,1,.65.22.91.91,0,0,1,.25.66.8.8,0,0,1-.25.65.94.94,0,0,1-.53.2.66.66,0,0,1-.44-.17.73.73,0,0,1-.24-.52,2,2,0,0,1,.23-.93l.2,0a2.73,2.73,0,0,0-.94.53,2.75,2.75,0,0,0-.5.77Z" transform="translate(-511.93 -491.64)"/><path class="cls-5" d="M693.92,584.62a2.77,2.77,0,0,1,2.16.84,3.72,3.72,0,0,1,.78,2.61h-5.54v-.3h4a5.22,5.22,0,0,0-.12-1.42,2.4,2.4,0,0,0-.5-1,1.08,1.08,0,0,0-.87-.4,1.57,1.57,0,0,0-1.27.73,4.21,4.21,0,0,0-.66,2.29l0,.06c0,.16,0,.33,0,.52v.56a4.63,4.63,0,0,0,.35,1.84,2.8,2.8,0,0,0,.9,1.17,2,2,0,0,0,1.15.4,2.74,2.74,0,0,0,.9-.15,2.19,2.19,0,0,0,.78-.49,3,3,0,0,0,.66-.93l.31.12a3.23,3.23,0,0,1-.56,1,3,3,0,0,1-2.38,1.1,3.56,3.56,0,0,1-2-.52,3.4,3.4,0,0,1-1.24-1.44,5.08,5.08,0,0,1-.43-2.11,5.84,5.84,0,0,1,.44-2.37,3.53,3.53,0,0,1,1.24-1.54A3.21,3.21,0,0,1,693.92,584.62Z" transform="translate(-511.93 -491.64)"/><path class="cls-5" d="M646.39,597.84c.65,11-4.65,21.92-15.57,25.49a35,35,0,0,1-10.59,1.82v-1.31a34.18,34.18,0,0,0,10.3-1.43c10.77-3.13,16.22-13.82,15.88-24.55Z" transform="translate(-511.93 -491.64)"/></svg>