<svg id="Livello_1" data-name="Livello 1" xmlns="http://www.w3.org/2000/svg" xmlns:xlink="http://www.w3.org/1999/xlink" viewBox="0 0 411.77 219.76"><defs><style>.cls-1{fill:none;}.cls-2,.cls-5{fill:#cc0b36;}.cls-2,.cls-3{opacity:0.3;}.cls-4{clip-path:url(#clip-path);}.cls-6{clip-path:url(#clip-path-2);}</style><clipPath id="clip-path" transform="translate(-478.87 -276.16)"><rect class="cls-1" x="478.69" y="275.71" width="355.7" height="44.17"/></clipPath><clipPath id="clip-path-2" transform="translate(-478.87 -276.16)"><rect class="cls-1" x="713.73" y="491.46" width="98.93" height="4.46"/></clipPath></defs><path class="cls-2" d="M803.13,322.53c-.24,2.48,2.11-3.22,3.94-1.93,1,.72,45.57,50.71,46.21,49.69,1.31-2.11,32.51-45.44,33.8-47.21.64-.86-1-1.71-1.85-2.53-38.46-37.54-38.16-38.82-39.82-36.78S815,304.92,812.58,306.5C798.64,315.57,804.24,311,803.13,322.53Zm-22.57,30.21c-15,16.83-10.13,14.34-19.2,14.35-246.84.59-251,1.38-253.87,1-3.42-.47.53-2.56,34-48.17.93-1.28,251.45-3.31,253.67-3.15,31.33,2.13-249.58,4.63-251.34,4.6-1.28,0-2,1.47-5.4,6.14-1.28,1.75-24.63,33.06-27,35.9-3.7,4.45-26.47,2.62,224.17,1.48,45.63-.2,20,7.75,64.43-37.91,1.75-1.79-.47-14.52,1.69-15.77,1.77-1,39.82-27.77,43.06-28.87,1.69-.53,2-3.67,4.17-1.79,35.86,36.08,43.77,39.88,41.34,43.19-42.9,58.08-32.86,57.59-46.75,41.57-1.61-1.87-34.29-38.46-36.06-40.84-6.1-8.21-4.29,27.87-4.58,146.2,0,3.31-3.34,4.38,37.44-22.47,4.24-2.78,2.32-.21,3.36-19.52,2.74-51.26-2.19-56.22,2.09-55.51,3.19,1.11-.51,6.64.65,9.18-.36,79.35,6.74,61.86-14.13,75.94-10.58,7.16-12.69,8.58-25,16.58-4.28,2.79-242.54,4.74-264.56,5.48-4.7.16-3.29-2.75-3.27-9.47.51-33.51,2.05-83.24,1.38-99.65.92-2.73,4.68-1.74,3.84,2-1.3,5.71-.9,78.83-1.07,85.45-.59,22.28-2.33,18.64,6.38,18.51,1.36,0,249.22-3.4,249.37-4.76.25-2.67.95-111.08,1.12-141.2,0-1.93-.05-.69-19.89,21.58" transform="translate(-478.87 -276.16)"/><g class="cls-3"><g class="cls-4"><path class="cls-5" d="M485.11,310.28c1.13-.62,54.21,6.57,58.84,6,1.63-2,27.14-27.78,28.9-29.56-1.47-2.12-7.59-.94-35.18-6.11C532.08,277.09,492.91,306.66,485.11,310.28Zm49.29-34.11c23.49,13.35,267.74.62,299.48,3.57,1.42,1.68-.37,3.71-3.54,3.12-1.85-.34.09-.06-65.24,1.07-18.26.3-37.45-.32-131.19,3-58.81,2.06-56.46-.47-57.95,1.37-1.79,2.22-29.47,29.59-31.71,31.11-1.36.94-42.76-4.15-44.77-4.46-24.94-3.75-29,1.12-2.51-15.78,33.21-21.17,35.58-23.09,37.43-23" transform="translate(-478.87 -276.16)"/></g></g><g class="cls-3"><g class="cls-6"><path class="cls-5" d="M715.05,495.5c.88-1.28,0-.67-.73-1.42,1.07-.26,1.82-1.2,3-1.15,2.19.08,93.67-1.77,95.21-.08-1.35,3.26-1.42,2-93.87,3.07-.45,0-3.29-.05-3.64-.42" transform="translate(-478.87 -276.16)"/></g></g></svg>