<svg id="Livello_1" data-name="Livello 1" xmlns="http://www.w3.org/2000/svg" xmlns:xlink="http://www.w3.org/1999/xlink" viewBox="0 0 139.93 95.9"><defs><style>.cls-1{fill:none;}.cls-2{clip-path:url(#clip-path);}.cls-3{fill:#332421;}.cls-4{clip-path:url(#clip-path-2);}.cls-5{clip-path:url(#clip-path-3);}.cls-6{clip-path:url(#clip-path-4);}.cls-7{clip-path:url(#clip-path-5);}.cls-8{clip-path:url(#clip-path-6);}.cls-9{clip-path:url(#clip-path-7);}.cls-10{clip-path:url(#clip-path-8);}.cls-11{clip-path:url(#clip-path-9);}.cls-12{clip-path:url(#clip-path-10);}.cls-13{clip-path:url(#clip-path-11);}.cls-14{clip-path:url(#clip-path-12);}.cls-15{clip-path:url(#clip-path-13);}.cls-16{clip-path:url(#clip-path-14);}.cls-17{clip-path:url(#clip-path-15);}.cls-18{clip-path:url(#clip-path-16);}.cls-19{clip-path:url(#clip-path-17);}.cls-20{clip-path:url(#clip-path-18);}</style><clipPath id="clip-path" transform="translate(-164.16 -160.81)"><rect class="cls-1" x="164.11" y="160.75" width="140" height="96"/></clipPath><clipPath id="clip-path-2" transform="translate(-164.16 -160.81)"><rect class="cls-1" x="273.33" y="160.75" width="4" height="96"/></clipPath><clipPath id="clip-path-3" transform="translate(-164.16 -160.81)"><rect class="cls-1" x="164.11" y="168" width="10.56" height="2.67"/></clipPath><clipPath id="clip-path-4" transform="translate(-164.16 -160.81)"><rect class="cls-1" x="164.11" y="169.33" width="10.56" height="2.67"/></clipPath><clipPath id="clip-path-5" transform="translate(-164.16 -160.81)"><rect class="cls-1" x="164.11" y="172" width="9.22" height="2.67"/></clipPath><clipPath id="clip-path-6" transform="translate(-164.16 -160.81)"><rect class="cls-1" x="164.11" y="177.33" width="9.22" height="2.67"/></clipPath><clipPath id="clip-path-7" transform="translate(-164.16 -160.81)"><rect class="cls-1" x="164.11" y="181.33" width="9.22" height="1.33"/></clipPath><clipPath id="clip-path-8" transform="translate(-164.16 -160.81)"><rect class="cls-1" x="164.11" y="184" width="9.22" height="2.67"/></clipPath><clipPath id="clip-path-9" transform="translate(-164.16 -160.81)"><rect class="cls-1" x="164.11" y="186.67" width="9.22" height="2.67"/></clipPath><clipPath id="clip-path-10" transform="translate(-164.16 -160.81)"><rect class="cls-1" x="164.11" y="189.33" width="9.22" height="2.67"/></clipPath><clipPath id="clip-path-11" transform="translate(-164.16 -160.81)"><rect class="cls-1" x="164.11" y="192" width="9.22" height="2.67"/></clipPath><clipPath id="clip-path-12" transform="translate(-164.16 -160.81)"><rect class="cls-1" x="164.11" y="194.67" width="7.89" height="2.67"/></clipPath><clipPath id="clip-path-13" transform="translate(-164.16 -160.81)"><rect class="cls-1" x="164.11" y="196" width="7.89" height="2.67"/></clipPath><clipPath id="clip-path-14" transform="translate(-164.16 -160.81)"><rect class="cls-1" x="164.11" y="198.67" width="7.89" height="2.67"/></clipPath><clipPath id="clip-path-15" transform="translate(-164.16 -160.81)"><rect class="cls-1" x="164.11" y="201.33" width="7.89" height="2.67"/></clipPath><clipPath id="clip-path-16" transform="translate(-164.16 -160.81)"><rect class="cls-1" x="164.11" y="210.67" width="7.89" height="2.67"/></clipPath><clipPath id="clip-path-17" transform="translate(-164.16 -160.81)"><rect class="cls-1" x="164.11" y="216" width="9.22" height="2.67"/></clipPath><clipPath id="clip-path-18" transform="translate(-164.16 -160.81)"><rect class="cls-1" x="164.11" y="218.67" width="15.89" height="36"/></clipPath></defs><g class="cls-2"><path class="cls-3" d="M295.61,256.7H172.67a8.49,8.49,0,0,1-8.47-8.5V169.31a8.49,8.49,0,0,1,8.47-8.5H295.61a8.5,8.5,0,0,1,8.48,8.5V248.2A8.5,8.5,0,0,1,295.61,256.7ZM172.67,162.79a6.51,6.51,0,0,0-6.49,6.52V248.2a6.51,6.51,0,0,0,6.49,6.52H295.61a6.52,6.52,0,0,0,6.5-6.52V169.31a6.52,6.52,0,0,0-6.5-6.52Z" transform="translate(-164.16 -160.81)"/></g><g class="cls-4"><path class="cls-3" d="M275.64,208.64c-.13-7.82-.16-15.6.07-23.42s1.2-16.06-.28-23.66c-.1-.52-.77-.33-.83.11-.94,7.71-.39,15.82-.67,23.59-.3,8.29-.35,16.54-.28,24.83.07,8-.23,16-.24,24,0,6.92-.28,14.08.57,21,.19,1.55,2.44,1,2.33-.44C275.17,239.35,275.89,224,275.64,208.64Z" transform="translate(-164.16 -160.81)"/></g><path class="cls-3" d="M298.56,170.4a.37.37,0,0,0-.36-.35c-3.38-.28-6.76-.35-10.15-.36-2.87,0-6.6-.72-9.32.2a.08.08,0,0,0,0,.14c1.75,1,4.17.7,6.12.72,4.35,0,8.7,0,13.05.06a14.27,14.27,0,0,0-.19,3.66c0,1,0,2-.11,3,0,.14,0,.27,0,.41-6.13.5-12.24-.21-18.36.09a14.6,14.6,0,0,0,0-4c0-1,.27-3.16-.6-3.85a.16.16,0,0,0-.21,0c-.68.82-.2,2.87-.18,3.87s-.26,2.87.14,4a.47.47,0,0,0,.29.83,126.09,126.09,0,0,0,19.14.12.48.48,0,0,0,.43-.28c.69-.68.54-2.65.58-3.39C298.89,174,299.25,171.69,298.56,170.4Z" transform="translate(-164.16 -160.81)"/><path class="cls-3" d="M267.87,226c-.31-5-.34-10.09-.36-15.14s.23-10.18.21-15.28c0-4,.23-8.22-.16-12.25.89-.84.41-2.46-.22-3.33a3.73,3.73,0,0,0-2.86-1.47c-2.2-.17-4.72,2.05-4.07,4.35-.79,8-.23,16.43,0,24.43.23,8.67.11,17.33,0,26a.67.67,0,0,0,.23.54,3,3,0,0,0,.58,1.75,3.49,3.49,0,0,0,3.06,1.23,4.24,4.24,0,0,0,3-1.5,2.81,2.81,0,0,0,.47-1C269,232.07,268,228.38,267.87,226ZM264,235.41a2.53,2.53,0,0,1-2.07-.79,7.75,7.75,0,0,1-.42-.86.73.73,0,0,0,.16-.46c-.08-8.3.15-16.54-.17-24.85s.53-17.19-.29-25.62a3.84,3.84,0,0,1,.89-2,3,3,0,0,1,2.09-.75,2.41,2.41,0,0,1,1.83.87c.51.59.36,1.41.65,2.07a109.76,109.76,0,0,0,.06,11.33c.06,4.66,0,9.32,0,14,0,8.14.29,16.33.14,24.45-.34.51-.33,1.22-.79,1.71A3,3,0,0,1,264,235.41Z" transform="translate(-164.16 -160.81)"/><path class="cls-3" d="M242,235.4l-.17-.18a.4.4,0,0,0-.27-.65c-3.43-.55-7-.1-10.5-.3a163.55,163.55,0,0,0-16.57-.14c-5.05.21-10.1.29-15.14.46-4.81.16-9.89-.15-14.66.57a.26.26,0,0,0-.4.05h0a.15.15,0,0,0-.07.27c-.13,1.17,1.75,2,2.54,2.42,2,1.07,4.18,1.79,6.21,2.79h0a.26.26,0,0,0,.15.07c6.9.78,14.14,0,21.07-.05,5.92,0,12.18.89,18.06.16a.35.35,0,0,0,.16-.08h0a37.14,37.14,0,0,0,9.48-4.71A.45.45,0,0,0,242,235.4Zm-4,1.8c-1.86,1-3.73,2-5.63,3l-.1,0c-2-.49-4.26-.21-6.32-.3-3.5-.13-7-.15-10.49-.14-7.14,0-14.59-.29-21.69.48a.52.52,0,0,0-.32-.51c-1.45-.66-3-1.18-4.44-1.78-1-.42-3.38-1.13-4.06-2.29,4.3.56,8.89.1,13.2,0,5-.15,10.08-.33,15.13-.44s10.24-.06,15.34.07c4.14.1,8.27-.23,12.39.21C240.49,236.24,238.73,236.8,238,237.2Z" transform="translate(-164.16 -160.81)"/><path class="cls-3" d="M244.67,247.89H182.22a8.5,8.5,0,0,1-8.48-8.49V178.08a8.5,8.5,0,0,1,8.48-8.5h62.45a8.5,8.5,0,0,1,8.48,8.5V239.4A8.5,8.5,0,0,1,244.67,247.89Zm-62.45-76.32a6.51,6.51,0,0,0-6.5,6.51V239.4a6.52,6.52,0,0,0,6.5,6.51h62.45a6.52,6.52,0,0,0,6.5-6.51V178.08a6.51,6.51,0,0,0-6.5-6.51Z" transform="translate(-164.16 -160.81)"/><path class="cls-3" d="M288.9,219.41a9.24,9.24,0,1,1,9.2-9.24A9.24,9.24,0,0,1,288.9,219.41Zm0-17.14a7.91,7.91,0,1,0,7.88,7.9A7.9,7.9,0,0,0,288.9,202.27Z" transform="translate(-164.16 -160.81)"/><path class="cls-3" d="M288.9,245.11a9.23,9.23,0,1,1,9.2-9.23A9.23,9.23,0,0,1,288.9,245.11Zm0-17.14a7.91,7.91,0,1,0,7.88,7.91A7.91,7.91,0,0,0,288.9,228Z" transform="translate(-164.16 -160.81)"/><path class="cls-3" d="M295.31,205.27c-4.66,2.48-6.81,8.28-7.68,13.2-.06.36.53.46.63.12,1.37-4.94,3.25-9.57,7.47-12.72C296.08,205.61,295.67,205.08,295.31,205.27Z" transform="translate(-164.16 -160.81)"/><path class="cls-3" d="M289.19,202c-.05-.24-.42-.32-.5-.05-.65,2.42-1,4.6-2.22,6.86a18.47,18.47,0,0,1-4.62,5.41c-.41.35.17.92.58.59C285.84,212.16,290.27,206.78,289.19,202Z" transform="translate(-164.16 -160.81)"/><path class="cls-3" d="M288.75,227.38a.16.16,0,0,0-.29,0,25.82,25.82,0,0,1-2.67,7,18,18,0,0,1-2.75,3.41c-.57.55-1.18.84-1.52,1.57-.11.22.15.44.35.4,1.91-.34,3.64-3.49,4.6-5C287.73,232.82,289.42,229.76,288.75,227.38Z" transform="translate(-164.16 -160.81)"/><path class="cls-3" d="M295.27,230.55a28.79,28.79,0,0,0-5.76,7c-.93,1.58-2.44,4.65-1.72,6.49a.26.26,0,0,0,.46,0,4.64,4.64,0,0,0,.42-1.75A15.35,15.35,0,0,1,290.2,238c1.33-2.68,3.61-4.75,5.37-7.12C295.72,230.66,295.45,230.39,295.27,230.55Z" transform="translate(-164.16 -160.81)"/><path class="cls-3" d="M262.63,181.41a4.18,4.18,0,0,0-1.37,1.24c-.24.37-.73,1.14-.39,1.56a.12.12,0,0,0,.16,0c.38-.17.45-.8.64-1.16a5,5,0,0,1,1.11-1.43C262.9,181.55,262.77,181.32,262.63,181.41Z" transform="translate(-164.16 -160.81)"/><path class="cls-3" d="M263.06,182.89a6.45,6.45,0,0,0-1.49,1.46c-.3.42-.77,1.11-.63,1.64a.16.16,0,0,0,.26.09c.38-.33.52-1,.78-1.44a5.7,5.7,0,0,1,1.32-1.49C263.47,183,263.24,182.76,263.06,182.89Z" transform="translate(-164.16 -160.81)"/><path class="cls-3" d="M263.15,184.46a9.74,9.74,0,0,0-1.46,1.81c-.29.49-.75,1.17-.51,1.74a.17.17,0,0,0,.24.07c.29-.17.34-.35.48-.66a13.53,13.53,0,0,1,1.58-2.7C263.63,184.52,263.31,184.3,263.15,184.46Z" transform="translate(-164.16 -160.81)"/><path class="cls-3" d="M262.77,186.91c-1,.9-2.2,2.34-2.19,3.74,0,.3.38.3.51.1a11.36,11.36,0,0,0,.67-1.51,8.35,8.35,0,0,1,1.33-2A.23.23,0,0,0,262.77,186.91Z" transform="translate(-164.16 -160.81)"/><path class="cls-3" d="M262.39,189.73a7.06,7.06,0,0,0-1.32,1.7c-.27.51-.71,1.22-.5,1.81a.16.16,0,0,0,.27.09,4.93,4.93,0,0,0,.73-1.47,7.63,7.63,0,0,1,1.17-1.8A.24.24,0,0,0,262.39,189.73Z" transform="translate(-164.16 -160.81)"/><path class="cls-3" d="M262.65,191.82a8.38,8.38,0,0,0-1.49,2c-.31.56-.85,1.39-.62,2.05a.19.19,0,0,0,.32.09,1.89,1.89,0,0,0,.53-1,11.16,11.16,0,0,1,1.58-2.82C263.14,191.92,262.86,191.61,262.65,191.82Z" transform="translate(-164.16 -160.81)"/><path class="cls-3" d="M262.51,194.4a14,14,0,0,0-1.19,1.83,3.41,3.41,0,0,0-.64,1.94c0,.13.19.16.29.09a4.43,4.43,0,0,0,.85-1.57c.34-.68.7-1.36,1.09-2C263.05,194.44,262.67,194.17,262.51,194.4Z" transform="translate(-164.16 -160.81)"/><path class="cls-3" d="M262.63,196.85a9.1,9.1,0,0,0-1.23,1.78c-.29.52-.71,1.32-.46,1.91a.18.18,0,0,0,.27.05,4.1,4.1,0,0,0,.65-1.51,7.67,7.67,0,0,1,1.12-1.89C263.18,196.94,262.84,196.62,262.63,196.85Z" transform="translate(-164.16 -160.81)"/><path class="cls-3" d="M262.36,199.3c-.84,1.06-1.86,2.61-1.7,4a.2.2,0,0,0,.35.06,16.58,16.58,0,0,0,.66-1.73,8.85,8.85,0,0,1,1.1-2C263,199.38,262.58,199,262.36,199.3Z" transform="translate(-164.16 -160.81)"/><path class="cls-3" d="M262.63,202.14a6.23,6.23,0,0,0-1.54,2.18,3,3,0,0,0-.26,2.23.16.16,0,0,0,.27,0,6,6,0,0,0,.57-1.76,6.78,6.78,0,0,1,1.32-2.34A.24.24,0,0,0,262.63,202.14Z" transform="translate(-164.16 -160.81)"/><path class="cls-3" d="M262.69,204.63c-1,1.17-2,3-1.84,4.56a.25.25,0,0,0,.49,0c.23-.71.32-1.46.58-2.18a13.81,13.81,0,0,1,1-2.2C263.06,204.69,262.82,204.46,262.69,204.63Z" transform="translate(-164.16 -160.81)"/><path class="cls-3" d="M262.63,215.4a10.61,10.61,0,0,0-1.24,2c.19-.57.27-1.2.44-1.78a17.26,17.26,0,0,1,1.15-2.86.2.2,0,0,0-.34-.2,15,15,0,0,0-1,1.58c.19-.57.35-1.16.57-1.73a24,24,0,0,0,1.06-2.65.12.12,0,0,0-.21-.12,9.78,9.78,0,0,0-1.46,2.23c.13-.5.19-1,.32-1.52A10.85,10.85,0,0,1,263,207.7c.14-.24-.24-.51-.4-.28-.93,1.29-2.09,3.35-1.61,5a.21.21,0,0,0,.3.12,5.38,5.38,0,0,0-.36,2,.27.27,0,0,0,.35.22,4.89,4.89,0,0,0-.5,3.12.17.17,0,0,0,.29.07,2.84,2.84,0,0,0-.18,2.32.2.2,0,0,0,.34,0,7.39,7.39,0,0,0,.59-2.07,17.15,17.15,0,0,1,1.17-2.59C263.15,215.45,262.81,215.18,262.63,215.4Z" transform="translate(-164.16 -160.81)"/><path class="cls-3" d="M262.86,217.92c-.79,1.37-2.19,3.51-1.66,5.17,0,.1.19.18.26.06a15.15,15.15,0,0,0,.75-2.57,17.49,17.49,0,0,1,1-2.44A.22.22,0,0,0,262.86,217.92Z" transform="translate(-164.16 -160.81)"/><path class="cls-3" d="M263,220.73c-.74,1.55-2.16,3.66-1.8,5.45a.18.18,0,0,0,.33,0,16.23,16.23,0,0,0,.85-2.49c.33-.93.7-1.85,1.06-2.77C263.51,220.68,263.1,220.44,263,220.73Z" transform="translate(-164.16 -160.81)"/><path class="cls-3" d="M262.61,224.55a13.75,13.75,0,0,0-1.3,2.38,3.87,3.87,0,0,0-.52,2.2c0,.12.22.2.31.09a6.71,6.71,0,0,0,.79-2,16.42,16.42,0,0,1,1.11-2.41C263.15,224.52,262.78,224.32,262.61,224.55Z" transform="translate(-164.16 -160.81)"/><path class="cls-3" d="M262.69,227a18.69,18.69,0,0,0-1.35,2.44,3.69,3.69,0,0,0-.53,2.38.16.16,0,0,0,.27.09,6.32,6.32,0,0,0,1-2.23c.32-.83.71-1.64,1.11-2.45C263.33,226.92,262.88,226.72,262.69,227Z" transform="translate(-164.16 -160.81)"/><path class="cls-3" d="M262.63,230.2a10.67,10.67,0,0,0-1.17,2.31,2.46,2.46,0,0,0-.16,1.82c.06.14.24.11.32,0a5,5,0,0,0,.55-1.85,10.88,10.88,0,0,1,.82-2.07A.21.21,0,0,0,262.63,230.2Z" transform="translate(-164.16 -160.81)"/><path class="cls-3" d="M262.59,233c-.33.54-1.18,2.57,0,2.74a.17.17,0,0,0,.16-.11c.12-.31,0-.59,0-.91a3.67,3.67,0,0,1,.33-1.49A.24.24,0,0,0,262.59,233Z" transform="translate(-164.16 -160.81)"/><path class="cls-3" d="M264.23,235.44c-.1-.22-.28-.36-.33-.61a2.17,2.17,0,0,1,.13-1.15c.09-.27-.34-.41-.46-.16-.3.62-.78,2.33.41,2.34A.3.3,0,0,0,264.23,235.44Z" transform="translate(-164.16 -160.81)"/><path class="cls-3" d="M265.37,235.28c-.11-.3-.52-.37-.46-.74s-.39-.46-.5-.17a1,1,0,0,0,0,.84.65.65,0,0,0,.81.35A.24.24,0,0,0,265.37,235.28Z" transform="translate(-164.16 -160.81)"/><path class="cls-3" d="M287.9,216.88c-.81-1.45-2.77-2.42-4.18-3.16-.18-.1-.36.15-.18.26.71.47,1.41,1,2.1,1.45a21.67,21.67,0,0,0,2.11,1.6C287.84,217.08,288,217,287.9,216.88Z" transform="translate(-164.16 -160.81)"/><path class="cls-3" d="M288.07,215.49A4.27,4.27,0,0,0,286.3,214a5.26,5.26,0,0,0-2-.69.1.1,0,0,0-.06.19,17.55,17.55,0,0,1,2,1.16,15.54,15.54,0,0,0,1.69,1.13A.18.18,0,0,0,288.07,215.49Z" transform="translate(-164.16 -160.81)"/><path class="cls-3" d="M287.83,214.06a9.92,9.92,0,0,0-1.41-1,8,8,0,0,0-1.27-.72c-.14-.06-.26.14-.17.25a7.1,7.1,0,0,0,1.37,1.14,4.15,4.15,0,0,0,1.27.69A.22.22,0,0,0,287.83,214.06Z" transform="translate(-164.16 -160.81)"/><path class="cls-3" d="M287.78,212.69a3.78,3.78,0,0,0-1.4-.74.19.19,0,0,0-.15.34,14,14,0,0,1,1.17.85C287.68,213.4,288.07,212.93,287.78,212.69Z" transform="translate(-164.16 -160.81)"/><path class="cls-3" d="M287.44,211.39a.19.19,0,1,0-.27.26,2.24,2.24,0,0,0,.44.43c.06,0,.15,0,.16-.06A.77.77,0,0,0,287.44,211.39Z" transform="translate(-164.16 -160.81)"/><path class="cls-3" d="M294,204.93a7.78,7.78,0,0,0-3.84-2,.14.14,0,0,0-.09.26c1.27.63,2.52,1.3,3.8,1.94C294,205.16,294.08,205,294,204.93Z" transform="translate(-164.16 -160.81)"/><path class="cls-3" d="M293.18,205.39a4.72,4.72,0,0,0-1.53-1,5.94,5.94,0,0,0-1.64-.75c-.1,0-.16.12-.1.19a5,5,0,0,0,1.5,1.11,3.74,3.74,0,0,0,1.64.7A.17.17,0,0,0,293.18,205.39Z" transform="translate(-164.16 -160.81)"/><path class="cls-3" d="M292,205.68a2.52,2.52,0,0,0-2.13-.91c-.13,0-.19.17-.06.22a6,6,0,0,1,1.72,1.17C291.85,206.43,292.24,206,292,205.68Z" transform="translate(-164.16 -160.81)"/><path class="cls-3" d="M290,205.68a.19.19,0,0,0-.1.34c.34.24.94.76,1.38.6a.15.15,0,0,0,.09-.13C291.34,205.94,290.45,205.71,290,205.68Z" transform="translate(-164.16 -160.81)"/><path class="cls-3" d="M290.35,206.86a.33.33,0,0,0-.37-.15.26.26,0,0,0-.08.5A.29.29,0,0,0,290.35,206.86Z" transform="translate(-164.16 -160.81)"/><path class="cls-3" d="M295.38,207.54c-.05-.11-.23-.09-.23,0a14.1,14.1,0,0,1-.69,5.17c-.76,1.8-2.28,2.33-3.72,3.37-.16.13-.12.43.12.42C294.81,216.33,296.7,210.73,295.38,207.54Z" transform="translate(-164.16 -160.81)"/><path class="cls-3" d="M294.36,208.79c0-.08-.15-.07-.15,0a7.15,7.15,0,0,1-.7,3.12c-.54,1.07-1.48,1.5-2.26,2.31a.15.15,0,0,0,.13.26,4.09,4.09,0,0,0,2.43-2.07A4.52,4.52,0,0,0,294.36,208.79Z" transform="translate(-164.16 -160.81)"/><path class="cls-3" d="M286.93,203.57a5.45,5.45,0,0,0-4.18,2.62c-.64.9-1.89,3.32-.95,4.33a.16.16,0,0,0,.25,0,2.85,2.85,0,0,0,.23-1.27,6.34,6.34,0,0,1,1.05-2.63,7.37,7.37,0,0,1,3.64-2.87C287.06,203.7,287,203.57,286.93,203.57Z" transform="translate(-164.16 -160.81)"/><path class="cls-3" d="M286.3,204.94a5,5,0,0,0-3.4,4.37.36.36,0,0,0,.23.37.31.31,0,0,0,.28,0,.36.36,0,0,0,.2-.3,5.88,5.88,0,0,1,2.75-4.31C286.43,205,286.38,204.92,286.3,204.94Z" transform="translate(-164.16 -160.81)"/><path class="cls-3" d="M286.24,241.65a4.59,4.59,0,0,0-1.22-1.34,6.29,6.29,0,0,0-1.53-1.14c-.18-.07-.45.11-.3.32A18.24,18.24,0,0,0,286,241.9.19.19,0,0,0,286.24,241.65Z" transform="translate(-164.16 -160.81)"/><path class="cls-3" d="M286.2,239.7a10.32,10.32,0,0,0-1.87-1.28c-.14-.08-.32.09-.2.22a20.2,20.2,0,0,0,1.54,1.38c.41.33.81.88,1.34,1a.18.18,0,0,0,.22-.2C287.09,240.34,286.58,240,286.2,239.7Z" transform="translate(-164.16 -160.81)"/><path class="cls-3" d="M286.47,238.7c-.47-.38-1-.73-1.42-1.12-.11-.1-.27.08-.17.19a15.4,15.4,0,0,0,1.25,1.31c.35.32.81.81,1.31.8.08,0,.11-.09.09-.15C287.39,239.27,286.82,239,286.47,238.7Z" transform="translate(-164.16 -160.81)"/><path class="cls-3" d="M287.15,238.06c-.37-.28-.74-.59-1.11-.87-.14-.12-.3.1-.2.23a7.27,7.27,0,0,0,.87,1c.23.2.58.57.91.42a.16.16,0,0,0,.09-.14C287.71,238.36,287.38,238.22,287.15,238.06Z" transform="translate(-164.16 -160.81)"/><path class="cls-3" d="M286.83,236.81a.2.2,0,0,0-.28.27c.24.25.49.64.84.72a.13.13,0,0,0,.17-.14C287.47,237.3,287.09,237.06,286.83,236.81Z" transform="translate(-164.16 -160.81)"/><path class="cls-3" d="M293.41,231.7a6.79,6.79,0,0,0-1.53-1.34c-.64-.5-1.23-1.09-1.91-1.54-.13-.08-.33.07-.24.22a7.78,7.78,0,0,0,1.59,1.6,5.8,5.8,0,0,0,1.94,1.28A.14.14,0,0,0,293.41,231.7Z" transform="translate(-164.16 -160.81)"/><path class="cls-3" d="M292.23,232.2a5.18,5.18,0,0,0-1.36-1.32,13.2,13.2,0,0,0-1.77-1.3.14.14,0,0,0-.19.21,11.91,11.91,0,0,0,1.4,1.44,4.43,4.43,0,0,0,1.72,1.21A.17.17,0,0,0,292.23,232.2Z" transform="translate(-164.16 -160.81)"/><path class="cls-3" d="M291.63,232.86c-.16-.5-.77-.78-1.17-1.05s-.91-.6-1.35-.92c-.16-.12-.38.14-.22.29.43.4.87.8,1.34,1.18s.78.7,1.23.69C291.55,233.05,291.66,233,291.63,232.86Z" transform="translate(-164.16 -160.81)"/><path class="cls-3" d="M290.14,232.65a5.83,5.83,0,0,0-1.07-.64c-.17-.08-.26.17-.14.27l.87.75c.26.22.6.54,1,.49a.14.14,0,0,0,.11-.16C290.77,233,290.4,232.85,290.14,232.65Z" transform="translate(-164.16 -160.81)"/><path class="cls-3" d="M289,233c-.23-.1-.43.2-.2.34s.64.62,1,.57a.15.15,0,0,0,.11-.11C289.93,233.36,289.29,233.1,289,233Z" transform="translate(-164.16 -160.81)"/><path class="cls-3" d="M286.8,228.71c-3.33.65-5.58,4.6-5.34,7.8,0,.38.68.37.67,0a7.85,7.85,0,0,1,1.26-4.42,13.23,13.23,0,0,1,3.5-3.13A.13.13,0,0,0,286.8,228.71Z" transform="translate(-164.16 -160.81)"/><path class="cls-3" d="M285.7,230.85c-1.62.3-2.65,2.37-3,3.83-.1.45.57.7.69.24a8.64,8.64,0,0,1,2.37-3.95C285.82,230.93,285.77,230.84,285.7,230.85Z" transform="translate(-164.16 -160.81)"/><path class="cls-3" d="M295.7,233a.23.23,0,0,0-.42.12,16.25,16.25,0,0,1-.14,4.62,8.93,8.93,0,0,1-2.87,4c-.07.06,0,.2.09.16C295.48,240.53,297.36,236.17,295.7,233Z" transform="translate(-164.16 -160.81)"/><path class="cls-3" d="M294.63,234.45a.11.11,0,0,0-.21,0c-.15.79-.1,1.58-.22,2.37a7.54,7.54,0,0,1-1.29,3c-.12.17.13.37.28.23A5.37,5.37,0,0,0,294.63,234.45Z" transform="translate(-164.16 -160.81)"/><path class="cls-3" d="M290.42,170.15a58.85,58.85,0,0,0-4.95,3.64,14.73,14.73,0,0,0-3.93,3.86c-.1.16.09.31.24.2,1.6-1.16,3-2.69,4.54-3.94a38.71,38.71,0,0,0,4.27-3.6C290.69,170.2,290.52,170.08,290.42,170.15Z" transform="translate(-164.16 -160.81)"/><path class="cls-3" d="M292.34,170.73a50.09,50.09,0,0,0-7,5.86c-.17.19.06.51.29.36a49.5,49.5,0,0,0,7-6A.17.17,0,0,0,292.34,170.73Z" transform="translate(-164.16 -160.81)"/><path class="cls-3" d="M292.42,172.55c-.57.52-1.16,1-1.74,1.55a5.63,5.63,0,0,0-1.42,1.46.16.16,0,0,0,.2.23,5.29,5.29,0,0,0,1.61-1.27c.58-.53,1.12-1.1,1.65-1.67A.21.21,0,0,0,292.42,172.55Z" transform="translate(-164.16 -160.81)"/><path class="cls-3" d="M293.42,173.59a10.82,10.82,0,0,0-1.44,1.08.15.15,0,0,0,.13.27,4,4,0,0,0,1.57-.93C293.94,173.82,293.68,173.4,293.42,173.59Z" transform="translate(-164.16 -160.81)"/><path class="cls-3" d="M242.59,176.17c-8.14,7.5-16.1,15.17-24.41,22.5-8,7-16.56,13.63-24.09,21.18-.18.19.08.53.29.36,8.53-6.32,16.45-13.69,24.43-20.68,8.32-7.3,16.76-14.73,24-23.1C243,176.26,242.77,176,242.59,176.17Z" transform="translate(-164.16 -160.81)"/><path class="cls-3" d="M229.63,193.19a213.92,213.92,0,0,0-27.31,25.5c-.1.1.08.26.17.16q13.56-12.85,27.28-25.48C229.88,193.27,229.74,193.1,229.63,193.19Z" transform="translate(-164.16 -160.81)"/><path class="cls-3" d="M225.49,201.79c-5.41,5.41-10.92,10.76-16.27,16.23a.15.15,0,0,0,.19.22c6-4.72,11.3-10.48,16.35-16.17C225.92,201.89,225.67,201.61,225.49,201.79Z" transform="translate(-164.16 -160.81)"/><path class="cls-3" d="M223,210.46a35.75,35.75,0,0,0-6.66,6.46c-.15.2.16.4.32.26,2.3-2,4.38-4.32,6.55-6.48A.16.16,0,0,0,223,210.46Z" transform="translate(-164.16 -160.81)"/><path class="cls-3" d="M227.88,174c-7.7,6.73-15.19,13.85-22.71,20.79a.11.11,0,0,0,.14.17c8.3-5.7,16-13.27,22.76-20.73C228.2,174.07,228,173.85,227.88,174Z" transform="translate(-164.16 -160.81)"/><path class="cls-3" d="M223.42,174.37c-2.28.58-4.41,3-6.13,4.54-2.09,1.83-4.23,3.64-6.2,5.6-.13.13,0,.38.18.27a58.43,58.43,0,0,0,6.41-5.35c1.81-1.61,4.3-3.08,5.78-5C223.48,174.41,223.45,174.36,223.42,174.37Z" transform="translate(-164.16 -160.81)"/><path class="cls-3" d="M218.83,175.09a5.54,5.54,0,0,0-1.42,1,3.82,3.82,0,0,0-1,1.28c-.07.17.16.26.28.18a6.89,6.89,0,0,0,1-1c.42-.43.88-.81,1.3-1.23A.12.12,0,0,0,218.83,175.09Z" transform="translate(-164.16 -160.81)"/><g class="cls-5"><path class="cls-3" d="M173.92,168.74a34.7,34.7,0,0,0-9-.38c-.25,0-.31.39-.05.45a25.9,25.9,0,0,0,9,.57A.32.32,0,0,0,173.92,168.74Z" transform="translate(-164.16 -160.81)"/></g><g class="cls-6"><path class="cls-3" d="M173.46,171.09a50.87,50.87,0,0,0-8.36-.67.21.21,0,0,0,0,.42,18,18,0,0,0,8.4.6C173.62,171.42,173.64,171.12,173.46,171.09Z" transform="translate(-164.16 -160.81)"/></g><g class="cls-7"><path class="cls-3" d="M172.21,173.63a29.89,29.89,0,0,0-7.12-.72c-.29,0-.3.41,0,.49a20.2,20.2,0,0,0,7.14.54C172.35,173.93,172.36,173.66,172.21,173.63Z" transform="translate(-164.16 -160.81)"/></g><path class="cls-3" d="M172.83,176a10.43,10.43,0,0,0-3.65-.43,18,18,0,0,0-3.67.05c-.24,0-.19.37,0,.44a12.16,12.16,0,0,0,3.13.33,14.2,14.2,0,0,0,4.17-.08A.16.16,0,0,0,172.83,176Z" transform="translate(-164.16 -160.81)"/><g class="cls-8"><path class="cls-3" d="M172.68,178.77a14.21,14.21,0,0,0-4.12-.14,21.67,21.67,0,0,0-4.11.37.13.13,0,0,0,0,.26,19.29,19.29,0,0,0,4.09.21,15.41,15.41,0,0,0,4.13-.3A.21.21,0,0,0,172.68,178.77Z" transform="translate(-164.16 -160.81)"/></g><g class="cls-9"><path class="cls-3" d="M172.84,181.59a12.56,12.56,0,0,0-3.35-.23,25.22,25.22,0,0,0-4.43.25c-.18,0-.2.34,0,.37a23.05,23.05,0,0,0,3.89.26,14.13,14.13,0,0,0,3.9-.23A.22.22,0,0,0,172.84,181.59Z" transform="translate(-164.16 -160.81)"/></g><g class="cls-10"><path class="cls-3" d="M172.21,184.74a13,13,0,0,0-3.74-.28c-1.38,0-2.76,0-4.14,0-.17,0-.24.25-.06.3,2.32.64,5.59,1.11,7.94.37A.22.22,0,0,0,172.21,184.74Z" transform="translate(-164.16 -160.81)"/></g><g class="cls-11"><path class="cls-3" d="M172.21,187.57c-2-.79-4.75-.64-6.83-.42-.17,0-.17.28,0,.31a19.5,19.5,0,0,0,3.41.42,21.35,21.35,0,0,0,3.39.11A.22.22,0,0,0,172.21,187.57Z" transform="translate(-164.16 -160.81)"/></g><g class="cls-12"><path class="cls-3" d="M172.36,190.06a22.52,22.52,0,0,0-6.76-.1.31.31,0,0,0-.26.21.34.34,0,0,0,0,.17l0,.09a.36.36,0,0,0,.28.21,22.53,22.53,0,0,0,6.76-.12A.24.24,0,0,0,172.36,190.06Z" transform="translate(-164.16 -160.81)"/></g><g class="cls-13"><path class="cls-3" d="M172.11,192.76a8.82,8.82,0,0,0-3.24-.36,18.68,18.68,0,0,0-3.81.24c-.15,0-.18.3,0,.33a24.52,24.52,0,0,0,3.83.3,11.35,11.35,0,0,0,3.19-.08A.23.23,0,0,0,172.11,192.76Z" transform="translate(-164.16 -160.81)"/></g><g class="cls-14"><path class="cls-3" d="M171.27,195.39a8.92,8.92,0,0,0-2.73-.18c-1.1,0-2.19.07-3.28.07-.23,0-.29.37-.06.4,1.87.28,4.25.79,6.09.2A.26.26,0,0,0,171.27,195.39Z" transform="translate(-164.16 -160.81)"/></g><g class="cls-15"><path class="cls-3" d="M171.63,197.51a5.84,5.84,0,0,0-2.46-.43,10,10,0,0,0-3.81.18c-.11,0-.09.2,0,.23a14.91,14.91,0,0,0,3.34.43,7.29,7.29,0,0,0,2.87,0A.2.2,0,0,0,171.63,197.51Z" transform="translate(-164.16 -160.81)"/></g><g class="cls-16"><path class="cls-3" d="M171,200a7.35,7.35,0,0,0-2.6-.33,16.29,16.29,0,0,0-3.35.11.15.15,0,0,0,0,.29,10.46,10.46,0,0,0,2.94.43,10.33,10.33,0,0,0,3,0A.27.27,0,0,0,171,200Z" transform="translate(-164.16 -160.81)"/></g><g class="cls-17"><path class="cls-3" d="M170.8,202.52a12.17,12.17,0,0,0-5.27-.29.33.33,0,0,0,0,.66,19.38,19.38,0,0,0,5.27,0C171,202.88,171,202.58,170.8,202.52Z" transform="translate(-164.16 -160.81)"/></g><path class="cls-3" d="M170.71,205.14a7.64,7.64,0,0,0-5-.36.14.14,0,0,0,0,.28c1.61.2,3.21.38,4.82.61C170.84,205.71,171,205.27,170.71,205.14Z" transform="translate(-164.16 -160.81)"/><path class="cls-3" d="M171.58,207a15.79,15.79,0,0,0-3.08-.19,9.5,9.5,0,0,0-2.81-.11.09.09,0,0,0,0,.14,3.91,3.91,0,0,0,2.49.83,7.26,7.26,0,0,0,3.47-.16A.27.27,0,0,0,171.58,207Z" transform="translate(-164.16 -160.81)"/><path class="cls-3" d="M172.05,209.77a12.72,12.72,0,0,0-2.76-.25c-1.2-.05-2.4-.23-3.61-.21a.33.33,0,0,0-.08.63c1.86.6,4.66,1,6.49.18A.19.19,0,0,0,172.05,209.77Z" transform="translate(-164.16 -160.81)"/><g class="cls-18"><path class="cls-3" d="M171.79,212.29a5.66,5.66,0,0,0-2.61-.43,20.13,20.13,0,0,0-4,.12.18.18,0,0,0,0,.35,12.55,12.55,0,0,0,3.05.44,8.9,8.9,0,0,0,3.49-.1A.21.21,0,0,0,171.79,212.29Z" transform="translate(-164.16 -160.81)"/></g><path class="cls-3" d="M172.12,214.7a13.94,13.94,0,0,0-3.23-.41,11.38,11.38,0,0,0-3.19-.07c-.09,0-.16.15-.08.22a3.62,3.62,0,0,0,2.3.69,18.33,18.33,0,0,0,4.12.16C172.32,215.26,172.43,214.8,172.12,214.7Z" transform="translate(-164.16 -160.81)"/><g class="cls-19"><path class="cls-3" d="M172,217.64a6.52,6.52,0,0,0-3-.29,27.17,27.17,0,0,0-3.92.43c-.23,0-.17.39,0,.39,1.12,0,2.24,0,3.36,0a13.17,13.17,0,0,0,3.44-.16C172.05,218,172.12,217.71,172,217.64Z" transform="translate(-164.16 -160.81)"/></g><g class="cls-20"><path class="cls-3" d="M179.58,253.6l-.09,0c-.06-.21-.11-.42-.18-.64-.14-.49-.28-1-.39-1.5a.25.25,0,0,0-.47,0,6.82,6.82,0,0,0,.07,1.91l-.47-.1c-.07-.28-.16-.55-.21-.81a11.78,11.78,0,0,1-.19-2.06.23.23,0,0,0-.38-.18l-.06,0c-.56-.1-1.14-.18-1.73-.25-.06-.34-.13-.68-.19-1s-.48-.36-.53,0a6.56,6.56,0,0,0,0,1c-.39,0-.77-.07-1.16-.09-.07-.47-.14-1-.25-1.4.9-.06,1.79-.13,2.64-.25a.3.3,0,0,0,0-.59,24.25,24.25,0,0,0-4.65-.51c0-.37-.07-.75-.11-1.13a22.49,22.49,0,0,0,3.07-.35c.24,0,.2-.43,0-.47a22.56,22.56,0,0,0-3.19-.35c-.06-.4-.13-.79-.22-1.18,0-.23-.4-.17-.4.06s0,.73,0,1.1l-.94,0c0-.62,0-1.25,0-1.88,1.51.09,3.43.24,4.63-.45a.22.22,0,0,0,0-.37c-1.25-.69-3.19-.23-4.55-.21h-.09c0-.53,0-1.07,0-1.61a6,6,0,0,0,2.77-.41c.19-.1.29-.42,0-.51a6.79,6.79,0,0,0-2.84-.17c0-.58,0-1.17-.05-1.75a7,7,0,0,0,2.74-.2.33.33,0,0,0,0-.61,7.32,7.32,0,0,0-2.76-.2l0-1.19c0-.39,0-.79,0-1.19a9.6,9.6,0,0,0,3-.06.21.21,0,0,0,0-.4,7.81,7.81,0,0,0-3-.43c0-.52,0-1,0-1.56a16.14,16.14,0,0,0,3.19-.06.27.27,0,0,0,0-.54,11.19,11.19,0,0,0-3.23-.31l0-1.91a7.5,7.5,0,0,0,2.63,0,.19.19,0,0,0,0-.36,8.76,8.76,0,0,0-2.53-.46l-.13,0c0-.59,0-1.2-.05-1.8a10,10,0,0,0,2.81.31.21.21,0,0,0,.1-.4,5.71,5.71,0,0,0-2.94-.8l-.09-1.84a7.11,7.11,0,0,0,2.84-.24c.18-.07.26-.36.05-.45a7.84,7.84,0,0,0-2.94-.28c0-.47-.06-.95-.1-1.43a10.07,10.07,0,0,0,3,.25.22.22,0,0,0,.09-.37,5.25,5.25,0,0,0-3-.83,17.77,17.77,0,0,0-4.25,0c-.21,0-.19.36,0,.41a25.24,25.24,0,0,0,4,.51l-.09,1.47a32.44,32.44,0,0,0-3.69.16.18.18,0,0,0,0,.34,18.87,18.87,0,0,0,3.66.44l-.06,1.79a9,9,0,0,0-3.43.24c-.17.06-.22.34,0,.37a27.81,27.81,0,0,0,3.42.26l0,1.82a10.58,10.58,0,0,0-3.08.06.2.2,0,0,0,0,.39,20.25,20.25,0,0,0,3,.36h.06q0,1,0,2c-.87.05-1.73.13-2.55.18a.21.21,0,0,0,0,.41c.83.05,1.69.13,2.55.21v1.66c-.89.06-1.78.17-2.55.23a.21.21,0,0,0,0,.42c.85.07,1.7.13,2.56.16v0c0,.8,0,1.62,0,2.44a21.91,21.91,0,0,0-3.23.29.19.19,0,0,0,0,.37,23.35,23.35,0,0,0,3.23.29c0,.61,0,1.23,0,1.84a19,19,0,0,0-4,.47c-.2.05-.22.38,0,.41a25.18,25.18,0,0,0,3.88.14h.1c0,.54,0,1.08,0,1.62-.43,0-.86,0-1.28-.06a6.91,6.91,0,0,1-1.37,0s0,0,0,0c.38.35.35.58.94.78a6.66,6.66,0,0,0,1.74.27c0,.65,0,1.31,0,2a30.12,30.12,0,0,0-3.69.37c-.23,0-.2.42,0,.45a28.61,28.61,0,0,0,3.7.37c0,.4,0,.79,0,1.18a28.21,28.21,0,0,0-4.06.55c-.18,0-.2.36,0,.39,1.32.18,2.72.3,4.14.37,0,.49.06,1,.11,1.46a23.69,23.69,0,0,0-3.47.59.22.22,0,0,0,.06.43,50.27,50.27,0,0,0,5.52.17,5.71,5.71,0,0,0,.37,1.42.31.31,0,0,0,.08.11,19.91,19.91,0,0,0-4.28.45.15.15,0,0,0,0,.3c3.4.13,7,.93,10.49.86a.76.76,0,0,0,.11.14c.19.17.41,0,.5-.15l.73,0a.57.57,0,0,0,.22.19l.06.08c.13.17.35,0,.37-.15a1,1,0,0,1,0-.2h0A.23.23,0,0,0,179.58,253.6ZM169.51,246h1c0,.37,0,.73.05,1.1h-1.08C169.49,246.7,169.51,246.33,169.51,246Zm-.19,3.86c0-.46.07-.91.09-1.37h1.22c0,.43,0,.86.05,1.3C170.22,249.77,169.77,249.78,169.32,249.82Zm3.24-1.39a9.8,9.8,0,0,0,.1,1.33l-1.1,0c-.05-.42-.1-.84-.13-1.27C171.81,248.46,172.19,248.45,172.56,248.43Zm-1,4.16a.2.2,0,0,0,.06-.11,6.83,6.83,0,0,0,.07-1.43l1.16,0a12.23,12.23,0,0,0,.22,1.61C172.54,252.6,172,252.59,171.53,252.59Zm2.48.1c0-.07,0-.15,0-.24l-.24-1.47,1.06,0c0,.36.11.72.18,1.07s.09.51.15.8Zm3,.39-.79-.13c-.08-.31-.2-.61-.26-.88s-.18-.77-.26-1.16l1.38,0A6.84,6.84,0,0,0,177,253.08Z" transform="translate(-164.16 -160.81)"/></g><path class="cls-3" d="M177.54,166.65a41.12,41.12,0,0,0-6.28-.2c-1.14,0-4-.68-4.93.06,0,0,0,0,0,.07.6,1,3.35.69,4.34.72a37.87,37.87,0,0,0,6.9-.23C177.76,167,177.75,166.69,177.54,166.65Z" transform="translate(-164.16 -160.81)"/><path class="cls-3" d="M177.23,164.78a25.73,25.73,0,0,0-10.27-.07.27.27,0,0,0,0,.53c3.36,0,6.83.15,10.17-.06C177.4,165.17,177.46,164.83,177.23,164.78Z" transform="translate(-164.16 -160.81)"/><path class="cls-3" d="M181.15,253.73a4,4,0,0,1-.31-1.53c0-.38-.65-.37-.66,0,0,.73,0,2.73,1.09,2.69a.26.26,0,0,0,.24-.22C181.56,254.32,181.31,254.05,181.15,253.73Z" transform="translate(-164.16 -160.81)"/><path class="cls-3" d="M183.26,253.86a3.6,3.6,0,0,1-.15-.87c0-.52-.82-.55-.81,0,0,.7.16,1.76.84,2.09a.28.28,0,0,0,.39-.26A3.07,3.07,0,0,0,183.26,253.86Z" transform="translate(-164.16 -160.81)"/><path class="cls-3" d="M268.48,238c-5.06,4.27-10.35,8.89-14.34,14.21-.08.11.07.26.17.17,4.9-4.6,9.29-9.7,14.33-14.19C268.76,238.11,268.6,237.92,268.48,238Z" transform="translate(-164.16 -160.81)"/><path class="cls-3" d="M268.28,240.52a105.2,105.2,0,0,0-9.14,9.74c-.09.11.08.26.19.17a104.71,104.71,0,0,0,9.14-9.69C268.6,240.6,268.42,240.38,268.28,240.52Z" transform="translate(-164.16 -160.81)"/><path class="cls-3" d="M269.91,241.24c-2,2.14-4.55,4.26-6,6.84-.1.17.12.37.27.23a61.51,61.51,0,0,0,5.9-6.88C270.19,241.31,270,241.14,269.91,241.24Z" transform="translate(-164.16 -160.81)"/><path class="cls-3" d="M270,243.88a20,20,0,0,0-3.91,4.2.18.18,0,0,0,.27.22c1.45-1.22,2.58-2.81,4-4.09C270.57,244,270.22,243.68,270,243.88Z" transform="translate(-164.16 -160.81)"/><path class="cls-3" d="M269.47,247.3a5.61,5.61,0,0,0-.66.8.13.13,0,0,0,.1.2c.43,0,.62-.4.88-.69S269.67,247.08,269.47,247.3Z" transform="translate(-164.16 -160.81)"/><path class="cls-3" d="M289.22,181.24c-5.19,4.92-10.65,10.28-14.69,16.21-.09.13.1.31.21.19,5-5.21,9.93-10.71,14.69-16.16C289.56,181.34,289.38,181.1,289.22,181.24Z" transform="translate(-164.16 -160.81)"/><path class="cls-3" d="M291.2,183.05a85.41,85.41,0,0,0-14.18,16c-.1.14.11.34.24.21,5-4.9,9.58-10.69,14.16-16C291.53,183.11,291.32,183,291.2,183.05Z" transform="translate(-164.16 -160.81)"/><path class="cls-3" d="M291.77,185.63c-3,3.59-6.41,7-9.22,10.72-.14.18.13.37.28.24a40.59,40.59,0,0,0,9.08-10.88C292,185.63,291.83,185.56,291.77,185.63Z" transform="translate(-164.16 -160.81)"/><path class="cls-3" d="M294.45,186.7c-1,1.1-2,2.23-3,3.36a30.46,30.46,0,0,0-3,3.6c-.13.2.14.37.31.24,2.35-1.75,4.28-4.64,5.84-7.09A.09.09,0,0,0,294.45,186.7Z" transform="translate(-164.16 -160.81)"/><path class="cls-3" d="M294.67,190l-1.29,1.25c-.31.29-.82.63-.83,1.08a.18.18,0,0,0,.17.18c.47,0,.8-.51,1.1-.81s.84-.89,1.26-1.34C295.33,190.09,294.92,189.74,294.67,190Z" transform="translate(-164.16 -160.81)"/></svg>