<svg id="Livello_1" data-name="Livello 1" xmlns="http://www.w3.org/2000/svg" viewBox="0 0 295.73 172.97"><defs><style>.cls-1,.cls-3{fill:#cc0b36;}.cls-2{fill:none;}.cls-3{fill-rule:evenodd;}</style></defs><path class="cls-1" d="M668.91,418.23a9,9,0,0,1-.9-2.07,6.42,6.42,0,0,1-.25-2.11,4,4,0,0,1,.41-1.72,2.92,2.92,0,0,1,1.1-1.16,2,2,0,0,1,1.56-.3,1.9,1.9,0,0,1,1.15.91,2.2,2.2,0,0,1,.31,1.43,1.61,1.61,0,0,1-.84,1.19,2,2,0,0,1-1.38.3,2.06,2.06,0,0,1-1.1-.58,2.68,2.68,0,0,0-.27,1.65,4.61,4.61,0,0,0,.64,1.91,4.15,4.15,0,0,0,1.29,1.32,4.61,4.61,0,0,0,2.07.69,7.88,7.88,0,0,0,2.95-.33,16.68,16.68,0,0,0,3.9-1.79,14.29,14.29,0,0,0,4-3.21,5.59,5.59,0,0,0,1.34-3,4.46,4.46,0,0,0-.63-2.63,5.48,5.48,0,0,0-1.29-1.45,5.54,5.54,0,0,0-1.94-1,7,7,0,0,0-2.63-.15l-.14-.71a8.19,8.19,0,0,1,2.61-.17,6.29,6.29,0,0,1,5.09,3.28,7.4,7.4,0,0,1,1.08,4.06,8,8,0,0,1-1.36,4.14,11.35,11.35,0,0,1-3.83,3.53,12.09,12.09,0,0,1-5,1.76,8.57,8.57,0,0,1-4.55-.74A7.71,7.71,0,0,1,668.91,418.23Z" transform="translate(-637.38 -249.13)"/><path class="cls-1" d="M660.3,401.4a8.44,8.44,0,0,1-.75-4.19,7.19,7.19,0,0,1,1.71-4A12.39,12.39,0,0,1,666,390a12.18,12.18,0,0,1,5.56-1.25,7.19,7.19,0,0,1,4.07,1.41,8.49,8.49,0,0,1,2.59,3.38,8.57,8.57,0,0,1,.75,4.18,7.23,7.23,0,0,1-1.69,4,12.24,12.24,0,0,1-4.68,3.27,12.39,12.39,0,0,1-5.58,1.26,7.14,7.14,0,0,1-4.09-1.42A8.41,8.41,0,0,1,660.3,401.4Zm.66-.29a3.85,3.85,0,0,0,3.3,2.22q2.47.35,6.89-1.6t5.81-4a3.74,3.74,0,0,0-2.72-6.16q-2.46-.35-6.87,1.6c-2.94,1.3-4.88,2.63-5.83,4A3.87,3.87,0,0,0,661,401.11Z" transform="translate(-637.38 -249.13)"/><path class="cls-1" d="M653,381.31a8.35,8.35,0,0,1-.2-4.25,7.21,7.21,0,0,1,2.21-3.71,12.43,12.43,0,0,1,5.08-2.63,12.14,12.14,0,0,1,5.68-.52,7.23,7.23,0,0,1,3.85,1.92,9,9,0,0,1,2.33,7.93,7.19,7.19,0,0,1-2.19,3.72,12.32,12.32,0,0,1-5.07,2.63,12.46,12.46,0,0,1-5.69.53,7.28,7.28,0,0,1-3.88-1.94A8.5,8.5,0,0,1,653,381.31Zm.69-.2a3.87,3.87,0,0,0,3,2.63c1.61.45,4,.21,7-.69s5.18-2,6.28-3.21a3.75,3.75,0,0,0-1.89-6.46q-2.4-.67-7,.69t-6.3,3.21A3.88,3.88,0,0,0,653.65,381.11Z" transform="translate(-637.38 -249.13)"/><path class="cls-1" d="M639.78,365.41l24.56-3.91a3,3,0,0,0,1.95-.85,2.58,2.58,0,0,0,.24-1.9l.75-.12c0,.38.09.95.18,1.7s.18,1.51.3,2.27.28,1.62.45,2.44.29,1.44.38,1.84l-.75.12a3.22,3.22,0,0,0-.86-2,2.63,2.63,0,0,0-2.13-.3l-20.3,3.23a4,4,0,0,0-2.27.94,2.57,2.57,0,0,0-.43,2.26l-.74.12c-.05-.77-.14-1.52-.25-2.23a14.61,14.61,0,0,0-.44-1.95A9.73,9.73,0,0,0,639.78,365.41Zm7.76-12.83.71-.11a4.65,4.65,0,0,0,.75,1.59,6,6,0,0,0,1.43,1.34l6.06,4.18-1.07-.34,8-8.06a7.42,7.42,0,0,0,1.1-1.35,2.65,2.65,0,0,0,.36-1.43l.74-.12c0,.27.06.68.11,1.24s.12,1.12.21,1.67c.12.73.25,1.47.41,2.23s.28,1.31.36,1.69l-.75.12a1.19,1.19,0,0,0-.51-.94q-.4-.23-.84.24l-5.32,5a4,4,0,0,0-1,1.42,3.85,3.85,0,0,0-.07,1.64l-.71.11a6.41,6.41,0,0,0-.77-1.77,4.52,4.52,0,0,0-1.23-1.19l-3.16-2.2a3.31,3.31,0,0,0-2-.84,1,1,0,0,0-.88.89,5.27,5.27,0,0,0,0,1.95l-.71.11c-.07-.62-.15-1.32-.24-2.09s-.17-1.43-.25-2-.13-.79-.21-1.17-.14-.73-.22-1.06S647.61,352.81,647.54,352.58Z" transform="translate(-637.38 -249.13)"/><path class="cls-1" d="M637.38,344.68l26.3-.88.84.92.84.93.86.94-.23.62a6,6,0,0,0-1-.16c-.35,0-.7,0-1.06,0l-22.1.74a4,4,0,0,0-2.37.66,2.54,2.54,0,0,0-.7,2.18l-.76,0c0-.77.06-1.52,0-2.24a15.59,15.59,0,0,0-.2-2A10.17,10.17,0,0,0,637.38,344.68Zm9-5.92a6,6,0,0,1,2.26-5c1.58-1.35,4-2.07,7.3-2.19a12.06,12.06,0,0,1,5.45.92,7.63,7.63,0,0,1,3.35,2.82,7.78,7.78,0,0,1,1.22,4,6.63,6.63,0,0,1-.91,3.51,6.21,6.21,0,0,1-3,2.6l.37-.73a5.81,5.81,0,0,0,2.68-5.06,3.92,3.92,0,0,0-2.3-3.55q-2.22-1.12-6.79-1a21.2,21.2,0,0,0-4.84.64,5.93,5.93,0,0,0-2.85,1.53,3.44,3.44,0,0,0-.87,2.52,4.21,4.21,0,0,0,1.6,3,7.31,7.31,0,0,0,4.43,1.6l-.49.45a7.83,7.83,0,0,1-4.82-2A5.74,5.74,0,0,1,646.33,338.76Z" transform="translate(-637.38 -249.13)"/><path class="cls-1" d="M647.07,318.71a8.42,8.42,0,0,1,1.41-4,7.06,7.06,0,0,1,3.43-2.61,14.91,14.91,0,0,1,11.17,1.08,7.2,7.2,0,0,1,2.85,3.23,8.94,8.94,0,0,1-.81,8.22,7.06,7.06,0,0,1-3.42,2.63,12.17,12.17,0,0,1-5.67.55,12.47,12.47,0,0,1-5.49-1.63,7.18,7.18,0,0,1-2.87-3.25A8.53,8.53,0,0,1,647.07,318.71Zm.72.07a3.88,3.88,0,0,0,1.79,3.56q2,1.52,6.78,2c3.2.31,5.55.1,7-.64a3.86,3.86,0,0,0,2.42-3.14A3.9,3.9,0,0,0,664,317q-2-1.51-6.77-2t-7,.64A3.85,3.85,0,0,0,647.79,318.78Z" transform="translate(-637.38 -249.13)"/><path class="cls-1" d="M650.51,297.61a8.49,8.49,0,0,1,1.91-3.81,7.21,7.21,0,0,1,3.75-2.15,14.85,14.85,0,0,1,10.93,2.52,7.24,7.24,0,0,1,2.41,3.56,8.44,8.44,0,0,1,0,4.27,8.56,8.56,0,0,1-1.9,3.79,7.29,7.29,0,0,1-3.74,2.17A14.87,14.87,0,0,1,653,305.44a7.18,7.18,0,0,1-2.43-3.59A8.44,8.44,0,0,1,650.51,297.61Zm.7.16a3.91,3.91,0,0,0,1.32,3.76q1.77,1.75,6.47,2.84t7,.27a3.74,3.74,0,0,0,1.51-6.56q-1.75-1.75-6.46-2.83T654,295A3.88,3.88,0,0,0,651.21,297.77Z" transform="translate(-637.38 -249.13)"/><path class="cls-1" d="M646.8,277.29l23.34,8.62a2.94,2.94,0,0,0,2.11.21,2.59,2.59,0,0,0,1.14-1.54l.71.26c-.16.35-.38.88-.68,1.57s-.57,1.41-.84,2.13-.55,1.55-.81,2.35-.44,1.4-.56,1.79l-.71-.26a3.28,3.28,0,0,0,.22-2.17A2.62,2.62,0,0,0,669,289l-19.28-7.12a4.08,4.08,0,0,0-2.45-.29,2.57,2.57,0,0,0-1.47,1.76l-.71-.26c.33-.7.63-1.38.88-2.06a14.84,14.84,0,0,0,.57-1.92A10.6,10.6,0,0,0,646.8,277.29Zm13.05-7.38.67.25a4.5,4.5,0,0,0-.13,1.75,6.06,6.06,0,0,0,.6,1.87l3.24,6.61-.77-.82,10.93-3.1a7.45,7.45,0,0,0,1.62-.65,2.61,2.61,0,0,0,1-1.07l.71.26c-.12.24-.29.62-.52,1.14s-.44,1-.63,1.55c-.25.7-.5,1.41-.73,2.15s-.41,1.28-.52,1.65l-.71-.26a1.25,1.25,0,0,0,0-1.07c-.16-.27-.44-.33-.85-.2l-7.11,1.79a3.78,3.78,0,0,0-1.61.73,3.73,3.73,0,0,0-.86,1.39l-.68-.25a6.41,6.41,0,0,0,.2-1.93,4.7,4.7,0,0,0-.49-1.64l-1.68-3.46c-.48-1-.94-1.57-1.37-1.73a1.06,1.06,0,0,0-1.21.34,5.07,5.07,0,0,0-1,1.7l-.68-.25c.24-.57.52-1.22.82-1.94s.55-1.33.73-1.82.27-.76.39-1.12.23-.71.33-1S659.79,270.14,659.85,269.91Z" transform="translate(-637.38 -249.13)"/><path class="cls-1" d="M664.08,260.13a5.82,5.82,0,0,1,1.53-2,6.71,6.71,0,0,1,1.44-.93c.94-.41.77-1-.5-1.87l.38-.74c.58.35,1.27.75,2.08,1.19s1.91,1,3.3,1.73l-.37.73a11.85,11.85,0,0,0-2.65-.52,5.19,5.19,0,0,0-2.54.42,4.11,4.11,0,0,0-1.91,2,3.16,3.16,0,0,0-.34,2.2A2.54,2.54,0,0,0,666,264a2.79,2.79,0,0,0,1.95.27,7.27,7.27,0,0,0,2.05-.85l2.33-1.36a27.11,27.11,0,0,1,2.7-1.41,7.61,7.61,0,0,1,2.58-.68,4.7,4.7,0,0,1,2.57.57,4.37,4.37,0,0,1,2.08,2,5.38,5.38,0,0,1,.48,2.77,8.49,8.49,0,0,1-1.66,4.24,6.67,6.67,0,0,1-.95,1,8.15,8.15,0,0,1-.72.47c-.26.14-.54.28-.82.41a.42.42,0,0,0-.28.58,2.43,2.43,0,0,0,.88.94l-.38.73c-.66-.39-1.47-.85-2.45-1.37s-2.27-1.2-3.89-2l.37-.74a22.39,22.39,0,0,0,3.47,1,4.83,4.83,0,0,0,2.78-.25,4.26,4.26,0,0,0,2-2.11,3.74,3.74,0,0,0,.37-1.45,2.84,2.84,0,0,0-.4-1.59,3.5,3.5,0,0,0-1.56-1.37,3.28,3.28,0,0,0-2.83-.15,22.7,22.7,0,0,0-3.22,1.63c-.89.51-1.75,1-2.58,1.41a7.61,7.61,0,0,1-2.5.78,4.42,4.42,0,0,1-5-4.82A7,7,0,0,1,664.08,260.13Z" transform="translate(-637.38 -249.13)"/><rect class="cls-2" x="45.88" width="249.85" height="171.87"/><path class="cls-3" d="M717.79,372.28c1.16-.06,1.09,1.11,2,1.32.48.51,1.69.29,2.64.33,5.19,4.52,12.55,5.53,19.11,8.23,2.56,1,4.65,2.77,7.25,3.62,1.5.49,3.11,1,4.62,1.31a149.67,149.67,0,0,1,17.13,5.6c5.62,2.1,11.94,3.21,15.82,7.9-1,1.1-1.07,3.1-2,4.28A188.21,188.21,0,0,1,749.76,392c-7.51-3.77-14.9-7.78-22.41-11.19-7.1-3.22-15.55-3.75-19.11-9.87a17.36,17.36,0,0,1,8.9-2.31C717,370.22,717.61,371,717.79,372.28Zm24.06-19.75c-6.91-3-14.65-5.16-19.77-7.9-2.21-1.18-5.37-7.19-3.3-8.88,23.52,7.34,43.43,18.28,64.93,27.64.17,2.33.13,6.18-1.32,8.56-2.24.31-6.4-3.3-8.9-1.64,2.34,2.05,6.4,2.38,8.9,4.28.61.63-.2.59,0,1.64-4.11,2.1-6.83-3.11-9.56-1.31,1.54,2.9,6.68,3.41,9.23,4.27a16.19,16.19,0,0,0,0,3.95,82.85,82.85,0,0,1-13.84-4.28c-4.21-1.83-8-5.31-12.2-4.93,7.66,5,17,8.22,26,11.85a7.18,7.18,0,0,1,0,3c-3.82-.13-7.22-2.44-10.22-2.31,2.56,4,12.22,2.71,11.53,8.89-10.41-5.17-22.15-7.82-31.3-12.18-6-2.87-12.78-3.47-18.79-5.92-2.33-1-4.72-3.05-7.25-4.28-2-1-5.73-1-4.94-4.61a200.65,200.65,0,0,1,30.32,9.55c-3.17-4.18-10.3-5.38-16.15-7.24-4.83-1.54-9.59-3-13.84-4.61,0-.66.41-3.42.33-4.28,3.24,1.59,6.37,3.3,10.87,3.62-3.61-3.19-9.59-4-13.18-7.24-.06-1.8,1.71-2.91,1.65-5.6,6.3.85,10.78,5.26,16.48,5.6-3.73-5-17.53-4.85-17.8-11.85C734.55,350,747,357.73,760,362.08,755.73,358.79,748.89,355.64,741.85,352.53Zm-15.48-19.74c3.59,1.67,7.88,2,11.86,3.62,3.31,1.29,6.82,3.64,10.54,5.26,4.44,1.94,9.81,4.05,14.83,5.93,7.2,2.69,13.92,5.73,20.11,4.28,8-1.91,14.44-4.6,21.41-7.25,4.93-1.87,10.17-3.37,15.16-4.93,10.3-3.23,20.56-6.1,30.65-8.56,4.14-2.77,9.26-4.07,14.83-5.93,3.5-1.16,6.94-3.07,10.22-3.94,1-.28,2.25,0,3.29-.33,4.19-1.37,8.57-4.36,12.53-4.94,2.69,1.42,6.21,1.67,9.22,2a8.64,8.64,0,0,0,4.94,2.64c11.48,8.92,10.23,32.54,1.65,43.44a11.45,11.45,0,0,0-5.93,3.3c-4.6.63-7.44,2.52-10.87,3.94-5.94,2.46-11.19,4.36-16.48,6.59-8.83,3.72-18.06,6.38-27.35,10.53-3.61-.05-6.35,2.12-9.56,3.29-2.69,1-5.78,1.1-8.57,2s-5,2.24-7.91,3.3c-2.27.82-5.16,1.51-7.58,2.3-5.53,1.8-10.79,4.4-16.81,5.27,2.59-9.9,2.12-21.6.34-31.93-.74-4.31-4.23-19.79-10.88-13.49.53,2,2.59,1.22,3.62,1.31,6.93,11.9,6.72,28.45,4.29,41.14a13.5,13.5,0,0,1-3.29,3.3c-.72.6-1,2.64-2.64,1.64-.79-4.38,2.13-8.6,3-13.49,2-11.91-1.59-23.78-5.27-32.26C760,349.48,736,337.92,708.24,329.17c0-1.1,3.3-1.75,4.28-3C717.38,327.83,722,330.75,726.37,332.79Zm-15.49-26c3.42,1.42,9.34,3.63,13.17,5.27s8.05,2.81,12.2,4.61c4.5,1.95,9.13,4.08,12.85,4.93,9.71,2.23,20.27,4.58,27,10.54-.86-.1-1.08.45-1,1.32-3.47-.11-6.63-2.21-8.9-1.65a22.45,22.45,0,0,0,5.27,3.29c1,.42,3.63.06,3.3,2-5-.72-10.11-4.17-15.16-5.93,3.52,4.82,10.92,5.77,15.49,9.55-.2,1.52.45,2,0,3-2.87-.5-4.82-2.3-7.25-2.31-7.85-3.69-18-6.85-25.71-9.54-8.73-4.08-21-10.41-29-14.48-3.25-1.67-5.35-3-3.29-6.26,9.05,4.15,19,10.88,28.34,12.51-8.85-5.76-20.19-9-28.67-15.14a2.12,2.12,0,0,1,.33-1.65Zm1.31-9.21c16.76-2.08,33-8.64,49.11-10.21.35,4.1-7.35,3.28-6.26,8.23.43,2,3.31,2.59,5.6,3.29,16.39,5,29.58,15.49,45.47,18.76,1.09.69-2.71,1-1.32,2,4.51-1.42,8.63-3.24,13.52-4.28,1.22-1.63,3.33-2.38,5.93-2.63.45-.76,1.64-.77,2-1.65,20.6-5.2,40.88-10.73,60-17.44,4.37.36,8.81,1.43,10.54,4.94.34.69-.24,1.75,0,2.63s1,1,1.31,2c.72,2.48-.13,4.76-.65,6.91-23.18,11.31-49.61,17.34-73.49,27-13.89,2.42-25.4,10.11-39.88,12.17-.46-.68,1.2-3.48.33-4.61,1.58-2,2.16-6.87,1.65-10.86-.43-3.4-2.76-5.3-2.64-7.24,3.72-2.43,10.86-1.44,13.84-4.6-6.29-.42-13,2-19.44,3a1.46,1.46,0,0,1-.33,1c.47,1.35,1.83,2.62,3.3,2,4.14,6.43,2,14.06,0,21.06-2.73,1-3-.44-6.26,0-9.34-2.55-17.76-7.77-26-10.86-15.16-5.66-30.54-11.29-43.17-18.76,0-1.4,2.17-.68,2.31-2,5.68,2.61,10.91,5.62,16.47,8.23,2.52,1.17,5.6,2,7.92,3.29,1,.56,1.6,1.76,2.63,2.3,3.44,1.81,7.62,2.44,11.21,3.95,1.68.71,2.89,2,4.61,2.63,2.2.82,4.87.79,7.25,1.65,2,.71,3.59,2.21,5.6,3,4.84,1.8,10.22,3.51,13.84,5.6,1.55-1,3.69-2.84,4-3.95.81-3.44-3.63-10.32-.66-12.84.15-1.65-5.63-4.16-8.24-5.27-3.58-1.52-6.61-3.1-9.23-3.94-5.07-1.63-12-2-18.45-4.29-5.15-1.81-10.06-4.73-15.16-6.58s-10.37-3.42-15.16-5.26a69,69,0,0,1-12.52-5.93A24.49,24.49,0,0,0,712.19,297.57Zm52.73-15.8c12.83,6.28,26,12.25,38.88,18.43.65,1.7,1.94,7.14-1,8.23-1.27.47-2.19-.82-3.63-1.32-10.14-3.51-24.15-10.24-33.28-14.81a14.42,14.42,0,0,0-3.3-.33c.17-1.19,0-2,1-3,3.7,1.38,8.2,3.64,11.87,3.95-2.55-3.93-9.39-3.57-12.2-7.24,8.77,2.56,15.89,7,23.07,9.55-5.8-6.29-16-8.14-23.73-12.51C763.33,282.37,763.41,281.35,764.92,281.77ZM809.74,268c4-.86,7.75-1.29,11.53-2,4.72-.86,9.67-4.05,14.5-3.62,7.78.69,14.23,5.49,21.42,7.57,6.73,1.94,13.27,3.45,20.1,6.25,2.78,0,5.06.72,7.91.66,1.19,1.89,3.42,2.74,4.62,4.61.21,4-.67,4.2-.33,7.57-14.37,8.1-33.79,9.78-50.42,16.46-7.23-.18-17.86,5.41-25.05,6.91,1.38-2.05,1.44-6.45-1-7.9-.12,4.33-.54,10.84-5.93,10.86-1,0-3.34-1.36-5.27-2s-4-1.07-5.6-1.65c-9.8-3.63-20.69-10.47-30-13.82-3.18-1.15-6-.85-8.24-3.29.31-1,2.07-.58,2.64-1.32.32,1.65,2.66,1.28,4.61,1.32,9,5.43,21,9,29.33,14.15,1.17.25,1.19,0,2.63.33,3.83,2.3,5.29,3.07,10.55,2,3.78-2.66,2.18-9.63-1-12.18-16.84-7.78-32-15.68-49.11-22.71C774.89,273.55,793.23,271.53,809.74,268Zm-57,7.24c.28,2.76,3.87,4,7.25,4.6-1.08,1.19.06,2.27-1,3.95-15.34,5.26-33.5,8-48.45,11.85-2,.52-4.37-.1-5.93,1.65-1.08,0-1.26-.94-2.63-.66-7.26,2.89.16,7.54,4.28,8.56-.34,1.31,1,3,1.32,4.61-.16,5.49-6.38,6.13-5.6,11.52,1.84,1.45,4.48,2.1,6.91,3-1,1.91-4.56,2.46-4.94,4.61.73,4.41,7.75,3.14,11.54,5.59-2,4.25.85,6.06,2.3,9.22-3,2.1.34,5,.66,7.9.28,2.38-1.68,4.31-1.64,6.58,0,1.51,2.9,3.79,2.31,5.59-1.38,4.14-8.59,1.59-12.2,3.95-2.69,1.76-1.71,4.8-1,8.23,3.91,3.12,9.92,4.14,13.84,7.24,3-.46,4.66,1.93,6.92,3,4.33,2,9.36,2.81,14.17,4.6,6.55,2.45,12.56,6.88,19.12,9.22,3.47,1.24,7.14,2.51,10.54,3.62,3.55,1.16,7,2.86,10.22,3.62,2.74.66,6-.24,7.91,3,20.69-6.31,40.12-15.22,61.3-20.4.36-.85,1.64-.78,2-1.65,16.75-3.87,31.32-12.88,47.45-18.43,7.58-2.61,11.82-3.87,14.84-11.52,6.65-16.88,1.94-43.76-19.78-43.45,1.32-.88,3.33-1.06,4.94-1.64,3.06-9.15,0-19.63-8.56-21.07.64-3.78,4-10.54-.66-13.82.48-.51,1.33-.65,1-2-7.79-2.73-14.24-2.3-22.41-5.26-10.45-3.79-21.78-6.66-32-11.52-7.16,2-18.46,4.86-28,6.91-3.73.8-7.56.46-11.2,1-8.63,1.24-17.2,4-25.38,4.61-5.48.43-10.79.25-15.49,2.3a2.81,2.81,0,0,0-3.95,1" transform="translate(-637.38 -249.13)"/></svg>