<svg id="Livello_1" data-name="Livello 1" xmlns="http://www.w3.org/2000/svg" xmlns:xlink="http://www.w3.org/1999/xlink" viewBox="0 0 227.67 187"><defs><style>.cls-1{fill:none;}.cls-2{clip-path:url(#clip-path);}.cls-3{fill:#332421;}.cls-4{clip-path:url(#clip-path-2);}.cls-5{clip-path:url(#clip-path-3);}</style><clipPath id="clip-path" transform="translate(-92.33 -124.64)"><rect class="cls-1" x="250" y="124.64" width="70" height="70"/></clipPath><clipPath id="clip-path-2" transform="translate(-92.33 -124.64)"><rect class="cls-1" x="92" y="216" width="191.17" height="95.64"/></clipPath><clipPath id="clip-path-3" transform="translate(-92.33 -124.64)"><rect class="cls-1" x="134.67" y="124.64" width="21.33" height="51.36"/></clipPath></defs><g class="cls-2"><path class="cls-3" d="M285,124.64a35,35,0,1,0,35,35A35,35,0,0,0,285,124.64Zm0,63a28,28,0,1,1,28-28A28,28,0,0,1,285,187.64Z" transform="translate(-92.33 -124.64)"/></g><path class="cls-3" d="M286.75,142.14H281.5v21l18.36,11,2.64-4.31-15.75-9.34Z" transform="translate(-92.33 -124.64)"/><g class="cls-4"><path class="cls-3" d="M144.18,303.36H129.09v-72h15.09Zm116.88-72-7.22,8.07V224.4h7v-7.64H114.43v7.64h7.23v15.07l-7.23-8.07H92.33v14.23h22.1l7.23,8.28v45a12.74,12.74,0,0,0,12.75,12.74H241.09a12.74,12.74,0,0,0,12.75-12.74v-45l7.22-8.28h22.1V231.4h-22.1" transform="translate(-92.33 -124.64)"/></g><path class="cls-3" d="M214.06,171.23l-28.2-4,.69-4.83,28.2,4-.69,4.83" transform="translate(-92.33 -124.64)"/><path class="cls-3" d="M187.64,177.19l-3.13-.45,2-14.33,3.13.44-2,14.34" transform="translate(-92.33 -124.64)"/><path class="cls-3" d="M212.3,180.68l-3.13-.44,2-14.34,3.13.44-2,14.34" transform="translate(-92.33 -124.64)"/><path class="cls-3" d="M152.35,194.65l-14.94-2.12s12.76-17.27,60.63-10.48C164.69,177.31,152.35,194.65,152.35,194.65Zm46.19-16.18c-69.11-9.8-69.45,19.74-69.45,19.74L260,216.76s7.7-28.49-61.42-38.29" transform="translate(-92.33 -124.64)"/><path class="cls-3" d="M129.09,211s-45.9-19.31,6.38-57.1c0,0-26.56,28.55-6.38,57.1" transform="translate(-92.33 -124.64)"/><g class="cls-5"><path class="cls-3" d="M135.47,175.55s23-20.08,2.26-50.91c0,0,40.93,27.46-2.26,50.91" transform="translate(-92.33 -124.64)"/></g></svg>