<svg id="Livello_1" data-name="Livello 1" xmlns="http://www.w3.org/2000/svg" xmlns:xlink="http://www.w3.org/1999/xlink" viewBox="0 0 216.46 198.37"><defs><style>.cls-1{fill:none;}.cls-2{clip-path:url(#clip-path);}.cls-3{clip-path:url(#clip-path-2);}</style><clipPath id="clip-path" transform="translate(-669.45 -371.63)"><rect class="cls-1" x="694.87" y="371.63" width="164.12" height="64.94"/></clipPath><clipPath id="clip-path-2" transform="translate(-669.45 -371.63)"><rect class="cls-1" x="669.1" y="443.35" width="217.02" height="126.65"/></clipPath></defs><g class="cls-2"><path d="M857,436.07a1.8,1.8,0,0,1-1.8-1.79c0-10.51-.31-18.28-.55-25.79l-.11-3.56c-.22-6.72-.37-12.62-.37-19.56a11,11,0,0,0-1.61-6.44c-2.08-2.92-6.54-3.33-11-3.34L714,375.22h-.14c-5.42,0-10.76.51-13.3,4.09-1.65,2.33-1.77,5.51-1.76,9.13q0,8.91,0,17.82l.06,26.05v1.87a1.79,1.79,0,0,1-1.79,1.8h0a1.8,1.8,0,0,1-1.8-1.79v-1.87c0-8.69,0-17.36-.06-26.06q0-8.89,0-17.81c0-3.27,0-7.75,2.42-11.22,3.49-4.9,9.85-5.6,16.23-5.6H714l127.52.36c5.46,0,10.94.62,14,4.86,1.53,2.16,2.27,4.94,2.27,8.52,0,6.9.15,12.76.37,19.44l.11,3.56c.25,7.54.5,15.33.55,25.89a1.79,1.79,0,0,1-1.78,1.81h0" transform="translate(-669.45 -371.63)"/></g><path d="M741.8,408.31q-15.78,0-31.49-.13-6.25,0-12.5-.12H697a1.8,1.8,0,0,1,0-3.59h.85l12.49.12c44.32.35,89.26,0,133.56-1.19q6.18-.13,12.35-.33a1.76,1.76,0,0,1,1.85,1.74,1.8,1.8,0,0,1-1.75,1.85q-6.18.19-12.36.34c-33.88.87-68.12,1.31-102.18,1.31" transform="translate(-669.45 -371.63)"/><path d="M709.91,435.94a1.79,1.79,0,0,1-1.79-1.77c-.13-9.31,0-18.68.4-27.87a1.82,1.82,0,0,1,1.88-1.71,1.8,1.8,0,0,1,1.72,1.87c-.4,9.11-.54,18.42-.41,27.66a1.8,1.8,0,0,1-1.78,1.82h0" transform="translate(-669.45 -371.63)"/><path d="M843.92,436h0a1.79,1.79,0,0,1-1.78-1.8q0-14.49,0-29a1.8,1.8,0,1,1,3.59,0q0,14.51,0,29a1.8,1.8,0,0,1-1.8,1.79" transform="translate(-669.45 -371.63)"/><path d="M729.22,386.28a3.93,3.93,0,1,0,3.86,4.28,4.14,4.14,0,0,0-3.63-4.28Zm-.11,11.44-.57,0a7.52,7.52,0,0,1,1.16-15,7.4,7.4,0,0,1,5.12,2.67,7.55,7.55,0,0,1,1.83,5.52,7.75,7.75,0,0,1-7.54,6.83" transform="translate(-669.45 -371.63)"/><path d="M761.57,385.92a3.79,3.79,0,1,0,3.71,4.35,4,4,0,0,0-.9-3,3.59,3.59,0,0,0-2.69-1.34Zm-.13,11.17a6.06,6.06,0,0,1-.73,0,7.38,7.38,0,0,1,1.13-14.71,7.16,7.16,0,0,1,5.31,2.62,7.36,7.36,0,0,1-5.71,12.13" transform="translate(-669.45 -371.63)"/><path d="M794,386.29a3.69,3.69,0,1,0,3.66,3.82,3.93,3.93,0,0,0-3.57-3.82Zm-.05,11h-.22a7.28,7.28,0,0,1,.48-14.56,7.47,7.47,0,0,1,7,7.53,7.48,7.48,0,0,1-7.29,7" transform="translate(-669.45 -371.63)"/><path d="M825.26,386.33a3.78,3.78,0,0,0-3.54,2.76,3.5,3.5,0,0,0,6.79,1.71,3.69,3.69,0,0,0-.45-2.87,3.33,3.33,0,0,0-2.29-1.55A2.21,2.21,0,0,0,825.26,386.33ZM825,396.9a6.13,6.13,0,0,1-1.59-.2,7.09,7.09,0,0,1,3-13.86h0a6.87,6.87,0,0,1,4.7,3.2,7.26,7.26,0,0,1,.85,5.76,7.39,7.39,0,0,1-7,5.1" transform="translate(-669.45 -371.63)"/><g class="cls-3"><path d="M674.51,463l25.1,86.37c1.71,5.85,3.44,10.94,7.45,13.9s9.08,3.09,15,3.1c39.19.06,79.72.13,119.71-.36h.17c1.09,0,4.86,0,7.45-2.56,1.6-1.6,2.31-4,3-6.55l.29-1,28.52-95c1.08-3.62,1.91-7.63-.22-9.88-1.7-1.79-5.64-2.86-8.46-2.86-6.82,0-88.53-.37-142.59-.62l-41.56-.19c-4.86-.05-9.07-.08-12.64,2.68S672.45,455.7,674.51,463Zm87.8,107c-13.53,0-27,0-40.28,0-5,0-12,0-17.1-3.8-5.31-3.91-7.31-10.78-8.76-15.79L671.06,464v0c-2-7.15-3-12.55,2.5-16.83,4.56-3.52,9.57-3.48,14.88-3.42h1.35l40.18.18c54.06.24,135.77.62,142.58.62,3.51,0,8.47,1.25,11.06,4,3.42,3.62,2.36,9.06,1.06,13.4l-28.81,96c-.79,2.74-1.69,5.84-4,8.09-3.64,3.64-8.71,3.69-10.17,3.61-26.41.33-53.07.41-79.43.41" transform="translate(-669.45 -371.63)"/></g><path d="M672.24,453.05a1.84,1.84,0,0,1-.93-.26,1.8,1.8,0,0,1-.61-2.47c2.4-4,5.34-8,8.19-12l.25-.34a13.56,13.56,0,0,1,10.93-5.61c53.24-.17,113.58-.36,173.12.1a15.83,15.83,0,0,1,12.17,5.83c2.36,2.9,5.32,6.54,8.34,10.27a1.8,1.8,0,1,1-2.79,2.26c-3-3.73-6-7.36-8.34-10.25a12.21,12.21,0,0,0-9.4-4.51c-59.52-.47-119.85-.28-173.09-.11a10,10,0,0,0-8,4.13l-.24.33c-2.93,4.06-5.71,7.89-8,11.72a1.8,1.8,0,0,1-1.54.87" transform="translate(-669.45 -371.63)"/><path d="M701.89,470a8,8,0,0,0,6.65,3.56l73.61,0,63.93,0a6.06,6.06,0,0,0,5.39-3.36,2.38,2.38,0,0,0-2.13-3.44c-20.58,0-47.93,0-75-.08l-70.65-.07h0a2.1,2.1,0,0,0-1.88,1.12A2.14,2.14,0,0,0,701.89,470Zm144.19,7.21-63.94,0-73.6,0A11.54,11.54,0,0,1,698.9,472a5.73,5.73,0,0,1,4.76-8.91h0c19.3,0,44.86,0,70.66.07,27.1,0,54.44.07,75,.07a6,6,0,0,1,5.35,8.64,9.54,9.54,0,0,1-8.61,5.35" transform="translate(-669.45 -371.63)"/><path d="M708.12,492.4a3.9,3.9,0,0,0-3.79,4.85c2.84,11.35,7.11,26.38,10.89,39.64,1.25,4.41,2.46,8.64,3.55,12.51a5.25,5.25,0,0,0,5.13,3.87l20.62-.15c29.51-.21,60-.42,85-.45a5.87,5.87,0,0,0,5.56-4h0c1.37-4,2.88-8.41,4.46-12.94,4.29-12.36,9.15-26.37,12.62-38.08a3.51,3.51,0,0,0-.56-3.18,3.56,3.56,0,0,0-2.88-1.46c-27,0-73-.27-106.6-.45l-34-.17Zm15.74,64.46a8.9,8.9,0,0,1-8.55-6.49c-1.09-3.86-2.29-8.09-3.54-12.49-3.79-13.29-8.08-28.35-10.93-39.76a7.5,7.5,0,0,1,7.28-9.31h0l34,.17c33.58.17,79.58.41,106.58.45a7.2,7.2,0,0,1,6.89,9.25c-3.51,11.79-8.38,25.84-12.68,38.23-1.57,4.54-3.08,8.89-4.45,12.93a9.48,9.48,0,0,1-9,6.42c-25,0-55.49.25-85,.45l-20.62.15h-.06" transform="translate(-669.45 -371.63)"/></svg>