<svg id="Livello_1" data-name="Livello 1" xmlns="http://www.w3.org/2000/svg" xmlns:xlink="http://www.w3.org/1999/xlink" viewBox="0 0 248.74 302.86"><defs><style>.cls-1{fill:none;}.cls-2{clip-path:url(#clip-path);}.cls-3{fill:#cc0b36;fill-rule:evenodd;}</style><clipPath id="clip-path" transform="translate(-483.71 -155.23)"><rect class="cls-1" x="483.32" y="155.23" width="249.63" height="303.22"/></clipPath></defs><g class="cls-2"><path class="cls-3" d="M589.13,211.75l-1.31.29c.35-.74.66-1.41,1.13-2.43-2.84,1.18-3.26,4.17-5.29,5.67-2.44-1.95-1.33-4.06-.71-6.38-.52.3-1,.62-1.57.88-1.24.62-2,.16-2-1.25a9.61,9.61,0,0,1,.51-2.34c.18-.61.47-1.18.75-1.87a2.71,2.71,0,0,0-3.16,1.58c-.47-2.18.46-3.81,1.76-5.68l-2,.57,3.55-4.71-.31-.26-2.41,2.46c.6-2.33,2.62-3.81,2.85-6.25l-2.09,2.86-.38-.2c.74-1.55,1.47-3.09,2.21-4.63l-.19-.14-1.48,1.58c.37-1.25.6-2,.89-3l-1.32.67a14,14,0,0,0,.4-1.48c.08-.51,1-1.28-.36-1.45a.48.48,0,0,1-.07-.4c.6-.89-.32-1.63-.23-2.4a15.74,15.74,0,0,1,.85-2.71,3.84,3.84,0,0,0,.25-1.66l-1.35,2.43-.32-.08c.27-1.55.53-3.11.8-4.66l-.3-.09-1.41,3.3c.13-2.23-1.31-4.14-.76-6.34a5.14,5.14,0,0,1-.55-.06l-1,3.45c-.44-1.77.48-3.36-.84-4.86l-.69,1.72-.78-2.15c-.16,0-.32,0-.49.06l-.48,2.07c-.23-.76-.43-1.41-.62-2-2.46.34-3.1,1-2.93,3.22.07.94.37,1.87.47,2.81a7.67,7.67,0,0,1-.31,1.75c-.69-.81-1.07-1.21-1.4-1.65a11.65,11.65,0,0,0-6.88-4.39,5.72,5.72,0,0,0-2.18-.09,2.29,2.29,0,0,0-1.75,3.59,10.68,10.68,0,0,0,2.62,2.9c1.81,1.34,3.8,2.46,5.72,3.66a16.92,16.92,0,0,1,1.71,1c.58.48,1.44,1.06,1.49,1.66.1,1.07-1.1,1.18-1.89,1.48-1,.39-2.08.68-3.11,1.06a10.77,10.77,0,0,0-1.37.76,4.07,4.07,0,0,0,2.79,2.41c1.16.38,2.37.6,3.54.89.07,1.74-1.84,1.43-2.31,2.66.14,1.34,1.24,2,2.38,2.45s2.1.63,3.13,1c1.46.49,1.75,1,1.52,2.45-.16,1.08-.3,2.17-.53,3.24-.48,2.25-1.59,2.64-3.46,1.29-.08-.05-.26,0-.59,0a2.8,2.8,0,0,0,.5.85c.46.35,1,.54,1.48.93s1.2,1,1.23,1.58-.83.94-1.37,1.49c.31,1,2,1.73,1.33,3.54a11.15,11.15,0,0,1-3.6-3.84c-.29-.46,0-1.3.06-2.17a11.84,11.84,0,0,1-1.13-2.13c-.13-.37.21-1,.5-1.37.79-1,1.43-1,3.3.24.27-1.55.52-3,.79-4.58-.81-.26-1.51-.43-2.18-.68a16.41,16.41,0,0,1-2.61-1.12c-2.07-1.25-2.53-2.65-1.82-4.8a24.43,24.43,0,0,1-3.43-2.36c-1.57-1.48-1.17-3.09.83-3.93.67-.28,1.4-.45,2.09-.68s1.21-.43,2.16-.76l-2-1.25c-2-1.23-4.07-2.33-5.94-3.71a12,12,0,0,1-3.08-3.36c-1.64-2.74,0-5.6,3.21-5.76,2.45-.14,4.56.87,6.61,2,.56.31,1.09.67,1.63,1a2.11,2.11,0,0,0,.27-.47c.38-3.49,2.07-4.93,5.56-4.47,4.69.62,7.56,3.6,9.35,7.73a26.35,26.35,0,0,1,1.74,10.77c0,1.52-.12,3-.19,4.61l2.85-1.4a12.91,12.91,0,0,1,2.13-7.65,9.23,9.23,0,0,1,4.69-3.8c2.68-1,4.77.09,5.68,2.82a9.52,9.52,0,0,1,.06,5.42c-.4,1.62-1,3.2-1.47,4.79,5.82,1,5.92,5.48,2.6,9.32,0,.12.08.3.18.36,2.88,1.73,3.11,4.24.47,6.29a9.83,9.83,0,0,1-6.71,2c-.39,1.62-.8,3.29-1.2,5,3.52.24,4,1.27,2.11,5.16a3.07,3.07,0,0,1,.86,3.61,5.26,5.26,0,0,1-3,3.28c-1.06.46-2.2.75-3.16,1.06a10.66,10.66,0,0,1-.62,2.88c-.55,1.1-1.75,1.44-2.91,1.77s-2.79.53-3.6,1.38-.58,2.28-.81,3.43c2.24,1.47,4.67,2.64,6.54,4.41s3.18,4.14,4.77,6.3a16.74,16.74,0,0,0,.81-1.94c3.4-11,8.63-21.13,14.26-31.08a51,51,0,0,1,22.61-21.41,31,31,0,0,1,24.09-1.6,14,14,0,0,1,8.57,7.7c1.15,2.51,2,5.16,3,7.9a10.63,10.63,0,0,0,.46-1.38c2.58-12.47,2.46-25,1.24-37.64-.25-2.53-.57-5.11-2-7.36-.1-.14,0-.4,0-.74,1,0,1.35.83,1.74,1.43a33.1,33.1,0,0,1,5.09,12.07,61.77,61.77,0,0,1,1.13,17.48c-.44,4.81-.62,9.65-1.1,14.46-.32,3.2-1,6.36-1.49,9.55-.39,2.6-.74,5.2-1.11,7.8l-2,3-.26-.1c.26-1.12.53-2.23.82-3.42l-1.32.31c.6-1.72,1.15-3.3,1.75-5.05l-1.21.71c.43-1.36,1.27-2.59,1-3.47-.42-1.33.18-2.24.43-3.32.08-.35.37-.9.25-1-1-.94-.21-1.81,0-2.7.12-.49.32-1.41.3-1.41-1.54-.4-.47-1.32-.32-1.92.62-2.66,1.33-5.31,2.08-8.22l-1.29,1.21a22.38,22.38,0,0,1,1.17-3.35,3.87,3.87,0,0,0,.19-1.38c-1-.25-.43-.89-.32-1.33.21-.85.54-1.67.77-2.52a1.94,1.94,0,0,0,0-1.07c-.54-1.32-.53-1.3-.47-1.67.15-.92.83-1.8.37-3-.25.35-.37.54-.51.71a7.1,7.1,0,0,1-.58.59c.94-4.47.94-4.47.07-5,1-3.09-.14-9.74-2.09-12.25.25,3,.53,6,.75,9.09a107.82,107.82,0,0,1-2.69,33.39,18.12,18.12,0,0,0-.28,3.91c0,2.41.16,4.84,0,7.24-.29,4.1-.77,8.19-1.17,12.28,1.64-3.25,3.1-6.59,4.55-9.93,0-.11,0-.28-.08-.43a11.35,11.35,0,0,0,1.12-1.73c3.6-8.21,6-16.81,8.17-25.47,1.92-7.45,3.92-14.87,6.17-22.21a97.62,97.62,0,0,1,8-18.07c.36-.65.84-1.23,1.49-2.17.3.76.54,1.07.53,1.37-.83,11.27-2.18,22.47-5.08,33.4C687,200.41,684,210.72,681,221.08a5.23,5.23,0,0,0-.26,2.35c.34-.71.7-1.42,1-2.15,5.39-12.83,10.81-25.64,16.11-38.5a95,95,0,0,0,6.71-25c0-.47.18-.93.29-1.49,1.2.26,1.3,1.16,1.4,1.89q.4,2.82.59,5.67A47.53,47.53,0,0,1,705.28,178c-3.12,13-7.73,25.49-12.78,37.83-.56,1.35-1,2.74-1.49,4.12,0,.1.09.25.19.5.33-.48.64-.86.89-1.3a145.47,145.47,0,0,1,20.58-27.32,104.24,104.24,0,0,0,17.07-24.41c.4-.79.68-2.17,1.82-1.87s.87,1.77.71,2.66a23.74,23.74,0,0,1-1.55,5.68,113,113,0,0,1-14,23.28q-6.29,7.92-12.49,15.9a39,39,0,0,0-3,4.57c-5.75,10.22-10.62,20.87-15.35,31.6a1.86,1.86,0,0,0-.12,1.25l1.58-1.57A307.74,307.74,0,0,0,719,212.83a9.68,9.68,0,0,1,1.27-1.51c1-.87,2.06-.53,2.22.76a9.16,9.16,0,0,1-.12,2.61,42.35,42.35,0,0,1-4,11.35,82.57,82.57,0,0,1-16.62,23.59q-7.75,7.62-15.59,15.17a38,38,0,0,0-8.25,10.46c-1.19,2.4-1.39,4.92-1.75,7.42-1.75,12-2.92,24.15-3.67,36.29-.67,11-1.53,21.94-2,32.93-.74,17.36-.79,34.74-.47,52.11a99.25,99.25,0,0,0,1.6,18.37c.36,1.72.86,3.4,1.32,5.09.34,1.25,0,1.83-1.22,2.4a11.9,11.9,0,0,0-1.89,1c-2.43,1.75-4.82,3.57-7.26,5.31q-10.8,7.74-21.62,15.45c-1.49,1.07-3,2.1-4.52,3.12-.95.64-2,1.1-2.3,2.45a1,1,0,0,1-1.75.58,1.87,1.87,0,0,0-1.82-.27,8.83,8.83,0,0,1-5.36-.56c-1.82-.78-3.66-1.49-5.49-2.23a33.06,33.06,0,0,0-12-2.39c-9.88-.16-19.76-.24-29.64-.46-9.72-.23-19.45-.49-29.18-.92-4.59-.2-9.17-.84-13.76-1.28-5.68-.56-11.36-1.06-17-1.68a43.05,43.05,0,0,1-10.94-3c-2.34-.91-2.47-2.24-2.48-4.23-.14-19.07-.36-38.13-.52-57.18-.1-12.4-.22-24.78-.16-37.17.07-15,.29-30.06.52-45.08.12-7.85.41-15.69.64-23.53,0-.77.13-1.53.19-2.29l.51-.05a6.77,6.77,0,0,1,.37,1.49c.1,2.71.22,5.43.19,8.14-.12,14.66-.3,29.32-.41,44-.08,10.49-.18,21-.08,31.46.17,20.59.48,41.2.72,61.8.07,6.08.09,12.17.13,18.25,0,1.09,0,2.18,0,3.5,2.74.45,5.29,1,7.87,1.27,3.35.38,6.71.58,10.06.82,7.81.57,15.61,1.28,23.42,1.65,8.12.39,16.24.52,24.37.66,11.33.2,22.68.29,34,.43a39.91,39.91,0,0,1,16.19,3.43,37.69,37.69,0,0,0,3.87,1.56,7.53,7.53,0,0,0,2.77.42c2.21-.19,2.57-.65,2.69-2.86.31-5.71.54-11.42,1-17.12a255.71,255.71,0,0,1,4.47-34.19,254.17,254.17,0,0,0,4.43-32.42c1.05-13.16,1.47-26.35,1.5-39.55,0-9.15-.28-18.32-.32-27.48,0-4.09.26-8.18.4-12.31-1.23-.95-2.63-2-4-3.07a2,2,0,0,0-2.24-.38c-.94.39-1.89.78-2.8,1.25a5.2,5.2,0,0,1-5.61-.21c-.49-.32-1-.57-1.53-.85a3.34,3.34,0,0,0-3-.12c-.81.34-1.61.68-2.43,1a6.08,6.08,0,0,1-4.7.06c-1.15-.45-2.32-.87-3.49-1.29a2.8,2.8,0,0,0-2.86.46c-2,1.51-2.68,1.44-4.6-.16l-.34-.29L602,281.71c-2.55.84-5.4.75-7.66,2.46-.76.58-1.51,1.17-2.29,1.71-2,1.38-3,1.36-4.95-.13-.81-.63-1.57-1.33-2.32-2a2.85,2.85,0,0,0-3-.82c-2.87.83-5.93,1.21-8.64,2.41-4.28,1.89-8.17,1.08-11.95-1a9,9,0,0,0-6.28-1.15,8,8,0,0,1-3.18-.42,13.64,13.64,0,0,1-2.09-.92c-.7.57-1.36,1.13-2,1.65a5.14,5.14,0,0,1-4.93.91c-4-1.21-7.57-2.92-10.26-6.35-2-2.62-5.25-2.59-7.71-.35-.22.2-.43.41-.65.6-3.13,2.82-4.36,2.26-6.44.39a2.42,2.42,0,0,0-3.16-.39,2.38,2.38,0,0,1-3.63-1.21,3,3,0,0,0-2.92-1.88,21.42,21.42,0,0,1-4.32-1.12l2-.92a2,2,0,0,0-.24-.58c-1.21-1.47-2.45-2.92-3.65-4.4a16.15,16.15,0,0,1-3.88-10.49,9.72,9.72,0,0,1,1.41-5.25A20.72,20.72,0,0,0,501,233.1,140.06,140.06,0,0,0,494,218.19a22,22,0,0,0-10.13-9.44,3.5,3.5,0,0,1,1.41-4.26,4.39,4.39,0,0,1,5-.2,17.42,17.42,0,0,1,2.73,2.2,40.49,40.49,0,0,1,6.88,8.79c2.39,4,4.9,8,7.46,11.91a21.24,21.24,0,0,0,8.48,7.46,10.14,10.14,0,0,0,6.77,1,11.73,11.73,0,0,1,12,4.11l1.16,1.42c1.79-3.57,4.93-5,8.47-5.68a6.9,6.9,0,0,0-6.58-6.08c-1.75-.19-3.51-.24-5.24-.52a9.54,9.54,0,0,1-2.87-1,2,2,0,0,1-1.17-2.36,2.09,2.09,0,0,1,1.9-1.59c.64-.12,1.29-.18,2-.27-.06-1.54-.91-2.32-2.21-3-2.24-1.18-2.36-2.23-.66-4.56-.79-.16-1.48-.27-2.14-.46-3.07-.82-4-3.34-2.27-6.15a12.21,12.21,0,0,1-1.7-1.22c-.65-.66-1.57-1.38-1.67-2.18a3.09,3.09,0,0,0-1.71-2.32,13.21,13.21,0,0,1-4.75-5.35,7.77,7.77,0,0,1-.67-4.29,3.52,3.52,0,0,1,4.51-3.24,37.19,37.19,0,0,1,4.08,1.43c-.18-1.23-.45-2.41-.51-3.6a16.87,16.87,0,0,1,.2-3.69,3.16,3.16,0,0,1,2.58-2.68,3.37,3.37,0,0,1,3.65,1.46,21.14,21.14,0,0,1,1.64,3.08,16.37,16.37,0,0,1,.63,2.12c.41-.3.81-.46.94-.74s0-.71,0-1.07c.15-3,1-4,3.8-4.69a17.28,17.28,0,0,1,0-2.16,11.82,11.82,0,0,1,.58-3,3.85,3.85,0,0,1,5.45-2.08,10.21,10.21,0,0,1,3,2.48,20.27,20.27,0,0,1,4.49,11c0,.34.09.68.17,1.25.44-.33.71-.55,1-.73a2.9,2.9,0,0,1,4,.37,6.57,6.57,0,0,1,1.77,6.27,29.87,29.87,0,0,1-.8,2.89c2.46.64,3,2.49,2.64,4.82.42-.12.64-.17.84-.25,2.55-1,3.88-.1,4.09,2.65a12.68,12.68,0,0,1-1.18,6c.85,1.54,1.64,3,2.47,4.44a17.31,17.31,0,0,1,1.83-1.27,3.1,3.1,0,0,1,3.7,0,3.2,3.2,0,0,1,.89,3.43c-.14.63-.37,1.25-.6,2,1.32.48,2.8.94,2.95,2.52a26,26,0,0,1-.34,4.4c1.19,1.66,1.24,2.55-.29,4.44a2.91,2.91,0,0,0-.71,2.19c0,.65,0,1.31,0,2-2.13-1.2-2.48-3.32-.89-4.85a2.36,2.36,0,0,0,1-2.41,6.41,6.41,0,0,0-1.22.17c-.56.2-1.13,1-1.7.22s.37-1.22.81-1.73a20.57,20.57,0,0,0,1.52-1.86,3.31,3.31,0,0,0,.5-1.43c.13-1.55-1-2.35-2.37-1.64-.63.32-1.12.93-1.75,1.28a4.24,4.24,0,0,1-1.32.23,4.26,4.26,0,0,1,.19-1.36c.7-1.27,1.57-2.46,2.23-3.75.45-.9,1-2.08-.17-2.77s-2.06.14-2.68.9c-1.33,1.65-2.48,3.43-3.68,5.18A4.85,4.85,0,0,1,561,224c.29-1,.58-2,.95-3.38l-1.8,1.13c0-.26-.06-.48,0-.6a29,29,0,0,0,2.3-4.11l-2.89,2.27c.81-2,2.43-3.06,2.44-4.94-.5.66-1,1.32-1.5,2l-.24-.07c.11-.57.23-1.13.39-1.94l-2.2.52a10,10,0,0,0-.76-1.64c-.21-.3-.73-.64-1-.57a1.31,1.31,0,0,0-.68,1,16.13,16.13,0,0,0,.2,2.28l-1.5.52c.15.66.29,1.34.44,2-1.61-.9-1.89-1.67-.8-2.88a1.75,1.75,0,0,0,.55-1.52,2.28,2.28,0,0,1,1.42-2.67c1-.38,1.77.08,2.75,1.58.12.17.27.32.41.49,2.36-3.08,3-6.62,1.51-9-2.23.12-2.9,2.72-4.94,3.31-.73-.92-.26-1.66.07-2.47a11.8,11.8,0,0,0,.9-2.91c.2-1.7-.51-2.22-2.16-1.85-.4.09-.82.1-1.64.19a22.62,22.62,0,0,0,.78-2.42,21.42,21.42,0,0,0,.84-4.69,5.35,5.35,0,0,0-1.29-2.91,1.44,1.44,0,0,0-2.55.16,20.23,20.23,0,0,0-1.47,3.16c-.28.7-.17,1.61-1.43,1.56-.35,0-.74,1-1.12,1.46l-.49-.34,1.25-3.82-.27-.14-1.68,2.11c.4-2.41.73-4.44,1.11-6.66l-1,.86-.31-.15,1.34-4.59-.19-.08L545.08,187l-.35-.11c.15-.8.29-1.58.46-2.51l-.89.16c.17-1.08.33-2.11.48-3.14l-.26-.11-1,1.76-.26-.08c.22-1.13.45-2.25.67-3.38a1.79,1.79,0,0,1-.24-.12l-.84,1.57-.25-.08c.09-1,.17-2.05.25-3.07l-.39-.09-1.22,2.85-.23-.08c.12-1.26.24-2.53.36-3.76-2.07-.7-3.37-.07-3.62,1.84a28.89,28.89,0,0,0,0,4.16V185c-.65-.17-1.11-.25-1.54-.41-1.4-.55-2.1-.27-2.39,1.17a5.8,5.8,0,0,0,.62,4.45,20.51,20.51,0,0,1,1.29,2.28c1.26,2.66,3.56,4,6.23,5-.68,2.41-2.59.46-3.78,1-.08,1,.66.84,1.18,1,.78.19,1.56.36,2.34.53-.44,1.42,1,.94,1.57,1.6-.61.25-1.19.49-1.9.8l2.48.39-2.45.76,2.1,1.22c-.5.11-1.06,0-1.31.31-.8.82-1.58.48-2.41.15s-1.91-.75-2.87-1.1c-.77-.3-1.63-.58-2.14.34s.37,1.28.86,1.77l.5.47c-1.93,0-2.33-.4-2.66-2.8-2.17.63-2.48,1.62-1,3.12a9.52,9.52,0,0,1,1.64,1.75l-2-.67c.34,1.21.34,1.21,4.33,1.82a12.83,12.83,0,0,1-1.46.34,13.59,13.59,0,0,1-1.57,0c0,.87.36,1.09,1,1,1.21-.13,2.41-.27,3.62-.39l.11.52-3.18.87c1.61.6,3.27.14,4.87.31,0,.15,0,.29,0,.44l-3.29,1c0,.15.07.31.11.46l5.8-.76c-1,1-1,1-3.8,1.76.9.93.9.94,2.28.68a7,7,0,0,1,2.78-.15L541.76,217c.07.15.14.3.2.45l3.88-1.6.18.21-2,1.77c1.61.37,2.38-1.18,3.94-1.3l-1.57,1.65c1.38.51,2-.88,3.19-1.11l-.8,1.6,1.29-.26c-1.42,2.56-.94,4.55,1.53,6.3a19.15,19.15,0,0,1,1.84,1.17,1.39,1.39,0,0,1,.34,1.1c0,.2-.57.41-.88.43-.73,0-1.46-.08-2.18-.05-.22,0-.44.28-1,.66l4.37,1.05c-.75,1.08-1.91.22-2.93.6,1.36,1.5,3,.11,4.44.72-.44,1.05-1.88.39-2.62,1.61l2.29-.45a5.39,5.39,0,0,1,2.28-.08l-2.69,1.42c1.76.9,2.94-.83,4.51-.35l-1.68,1.35c0,.08.08.17.12.25l3.38-.82-1,1.38c2.56.62,4.85,1.6,6,4.1l9.07-1.2c0-.36.12-1,.2-1.63.27-2.09,1.21-3.56,3.43-4a12.51,12.51,0,0,0,2.2-.92c-1.31-1.18-1.93.14-2.91.26-.67-1.17,0-2.11.73-2.81a22.13,22.13,0,0,1,3-1.92c-1.74-.6-3.06-1.27-4.66-.59l1.49-1.32-1.26-.47,3.24-1.3-.43-.87a12.55,12.55,0,0,0,6.52-.85c-.28-.08-.55-.19-.84-.25a1.82,1.82,0,0,1-.91-.29l3.2-.93c0-.11,0-.21,0-.32h-2c1.06-1.25,2.5-1.3,3.67-2.37l-2.41.46,3.56-5.56-2.82,1.7.9-1.92c1.38-1.11,1.38-1.11,1.14-2.51ZM500,219.17c-.08.58-.35.93-1,.87s-1.15-.08-2.2-.14c1.59,1.35,3.14,1.09,4.47,1.51l-3.18.78c1,1.49,3.39.49,4.47,2.42l-3.71-.59.93,1.37h0c.54,1.48,1.09,3,1.55,4.18l3.05.61c0,.13,0,.27,0,.4l-2.25.25c.07,2.26,2.66,1.2,3.39,2.82l-2.31.14c-.19.94.26,1.24,1,1.29a2.17,2.17,0,0,1,2,.87l-2.56.16c-.29,1.87,1,1.61,2.05,1.73.2-.49.4-1,.62-1.48,2.15,2,3,6.7,1.75,8.48-.26-.9-.52-1.8-.76-2.67h-3.15l-.1.4,2.72,1.54c-1,1.05-1.91-.32-2.38,0-1.28,1.55-.25,2.18,1.07,3h-2.17l-1.43,2.81A4.06,4.06,0,0,0,504,249c1.17-.87,2.28-1.83,3.43-2.73a2.45,2.45,0,0,1,3.83.33c.53.61.95,1.31,1.47,1.91s1.24,1.32,2.12,2.25c.37-2.34.73-4.21.95-6.1.17-1.47.72-2.5,2.28-2.78,2.05-.36,3.21-1.93,4.43-3.38.25-.31.22-.86.37-1.54-3.58,1.11-6.43,0-9.22-1.68a22.2,22.2,0,0,1-6.81-6.13c-1.5-2.08-2.91-4.22-4.39-6.32a18,18,0,0,0-1.23-1.41c-.43-.75-.85-1.5-1.27-2.25a3.06,3.06,0,0,0-.15-.82A39.37,39.37,0,0,0,491,206.72a8.85,8.85,0,0,0-1.72-1.34c-1.75-.94-3.56-.13-4.24,2l2.43-.28c-.35.46-.65.88-1,1.3a9.75,9.75,0,0,0,3.07-.4c.05,0,.15.17.55.61l-1.52.91.19.32,3.38-.32-1.89,1.24c.76,1.8,2.4.5,3.68,1.2l-1.48,1c.39,1.54,2,.69,2.93,1.43l-1.34.89,2.38.61-1.55,1c1.26.39,2.19.69,3.43,1.09l-1.91.76Zm45.27,9-1.19-.29a15.91,15.91,0,0,0,1.49-2,2.29,2.29,0,0,0-.22-2.68c-.77-.9-1.56-.36-2.35.06-.09.05-.24,0-.41,0a22.61,22.61,0,0,0-.59-3,2.05,2.05,0,0,0-3.56-.95c-.37.32-.76.6-1.11.89-4.31-3.61-6.23-4-7.92-1.8,1.07,1.85,3.36,1.83,4.86,2.94-.36,1.06-.36,1.06,0,2s.18,1.5-.9,1.67a17,17,0,0,1-1.75,0c-.79,0-1.64,0-2,1a2.71,2.71,0,0,0,2.42,1.6c1.94.37,3.9.62,5.85.86a8.15,8.15,0,0,1,6.84,5.13c.24.51.44,1.05.67,1.65l1.73-.32c-.35-1.32-.65-2.51-1-3.7-.3-1-.63-2.07-1-3.11.37.15.94.21,1.07.48a14.06,14.06,0,0,1,1.14,3,24.88,24.88,0,0,1,.29,3.35h6.11c-.89-.69-1.54-1.14-2.14-1.65s-1.22-1.11-1.94-1.76c0,.88.09,1.54.16,2.65-1.27-2.08-1.27-2.08-.52-3.36-1.64-3.14-1.62-3.58.11-5.06-.73-1.89-1.4-3.68-2.15-5.65l-4.37-.52c.15,1,.26,1.77.39,2.61a2.3,2.3,0,0,1,3,.95,3.19,3.19,0,0,1,0,3.34C545.94,227,545.58,227.58,545.24,228.14Zm.51,38.84h0l5.93,10.12A48.47,48.47,0,0,0,552,270c-.17-5.12-.58-10.24-.55-15.35,0-7.3,3.57-11.9,10.44-14.2l3.58-1.21c-.73-1-1.73-2-2.39-1.49-1.08.78-1.89.23-2.78.11-1.88-.23-3.74-.67-5.62-.87a30.57,30.57,0,0,0-12,.67,7,7,0,0,0-3.93,2.37l3.16,1.9c1.46-1.45,4.2-2.29,7.31-2.23-1.89.86-3.38,1.58-4.91,2.2a6.09,6.09,0,0,1-2.23.55,4.91,4.91,0,0,1-3.55-1.48c-.13-.13-.38-.14-.63-.22l-.75,1.52c1.54.75,3,1.47,4.46,2.17-.05.13-.09.26-.13.39l-4.12-1A2.63,2.63,0,0,0,540,246.5c.81.11,1.61.35,2.41.53,0,.13,0,.28-.07.41h-3.59c.3,2.22,2.63,1.38,3.61,2.81l-2.83-.18c.85,2,2.9.94,4.15,2.21h-3.38c.45,2.17,2.68,1.46,3.7,2.85l-2.74-.32c-.18,2.68,2.42,1.85,3.52,3.15H542c.56,1.62,2.46.85,3.18,2.08l-2.26.19c.43,1.84,1.61,3.17,2.07,4.85A15.74,15.74,0,0,0,545.75,267Zm-26.68-23.77c-1.24.09-1.75.77-1.83,2-.14,2-.42,3.94-.62,5.9-.21,2.21-1.18,2.68-3,1.35-.87-.63-1.63-1.4-2.46-2.12-1.87,3.23-2.27,5.07-1.53,6.74.58-1.09,1.16-2.16,1.73-3.24.15,2.18-1.43,3.83-1.29,6.19l2.12-4.18.49.22-2,5.84A20,20,0,0,1,507,248.4a26,26,0,0,1-3.91,2.44c-2.34.94-2.63,2.88-3,4.9,1-1.17,1.51-2.79,3.47-3.54a12.69,12.69,0,0,1-.54,1.41c-.75,1.26-1.48,2.54-2.31,3.73-1.16,1.67-.88,3.23.14,5.22.78-2.78,1.18-5.4,3.42-7.06a5.92,5.92,0,0,1-.42,1.63c-.73,1.76-1.41,3.53-2.2,5.26a2.41,2.41,0,0,0,.76,3.15c.72-2.09.63-4.44,2.68-6.3-.68,2.38-1.23,4.34-1.81,6.3-.27.92-.22,1.68.92,2.06.33-1.71.08-3.55,1.95-5.1-.25,1.52-.41,2.59-.61,3.66s-.67,1.95-.18,2.94c.58-1.29.46-2.84,2-3.94-.21,1.3-.39,2.3-.54,3.3-.28,1.86-.28,1.86.38,2.8.23-.68.47-1.37.7-2.07l.48.1c-.08,1.43-.16,2.86-.24,4.35l.87.12c.21-.63.39-1.21.59-1.83.41.88.63,2.06,1.07,2.15.91.19.91.78,1.19,1.33s.61,1,.93,1.46c2-.89,3.89-1.3,5.77.31s2.09,1.55,4-.32c.36-.37.72-.73,1.07-1.11a6.29,6.29,0,0,1,4.72-2,7.09,7.09,0,0,1,6.11,2.88c2.25,3,5.47,4.29,8.86,5.34a3.1,3.1,0,0,0,2.86-.58c2-1.38,2.17-3.42,2.21-5.59-.58,1.21-1.17,2.41-1.75,3.62l-.39-.15c.39-1.82.79-3.63,1.19-5.45l-.36-.09-2,3.77-.46-.18a26,26,0,0,0,.74-3.08c.12-1,1.14-2,.2-3.22-.73,1.51-1.37,2.86-2,4.2l-.44-.17c.22-1.11.53-2.21.65-3.34s.85-2.23.32-3.72c-1.1,1.67-1.12,3.61-2.83,4.87.45-2.75,1.33-5.17,1.43-7.76-1.07,1.32-1.24,3.17-2.75,4.36-.08-3.06,1.88-5.69.85-8.7q-1.12,2.52-2.26,5l-.44-.17c.35-1.4.7-2.8,1.06-4.19.74-2.92.75-2.92.28-4.17-.54,1.43-1,2.76-1.52,4.07l-.43-.11c.39-2.43.76-4.86,1.14-7.29l-.33-.09L537,256.14c-.17-2.36,1.57-4.24.19-6.44-.48,1.08-.88,2-1.44,3.21-.18-2.63,1.5-4.76,0-7.16l-1.11,2.51c-.17-1.91.78-3.75-.47-5.68-.39.87-.67,1.52-1,2.16-.3-4.07-.3-4.07-1.54-4.79,0,.93-.1,1.84-.16,2.75-1.58-5-2.92-6.15-6.9-5.65-.11,2.12-1.39,3.4-3.16,4.4a20.47,20.47,0,0,0-2.39,1.8Zm67.49,14.23,2.12,1.89c.33-.9.54-1.48.75-2-.87-.71-1.67-1-2.55-.2a.85.85,0,0,0-.63-1.17c-1-.36-1.94-.77-2.9-1.17l.12-.36,2.69.41c.14-.53.28-1,.41-1.49a3.35,3.35,0,0,0-.59-.26c-1.54-.19-1.52-.18-.84-1.49a5.49,5.49,0,0,0,.23-1.29l-1.61.66c.1-1.06.18-2,.27-3.12-1,0-1.54-.36-1.36-1.55a11.51,11.51,0,0,0-.18-2.85A1.43,1.43,0,0,0,581,242c.11,1.47.21,2.84.31,4.2a17.18,17.18,0,0,1-1.2-3.92,1.64,1.64,0,0,0-2-1.46c.23,1.41.45,2.7.67,4a9.45,9.45,0,0,1-1.44-3.2c-.31-1.12-.92-1.58-2.06-1.13.26.95.52,1.83.76,2.71l-.29.06-1.82-3.31-.43.18c.08.57.15,1.15.27,2-1.65-2.25-1.68-2.39-4.12-1.8-3.26.8-6.47,1.81-9.69,2.76a2.77,2.77,0,0,0-2.08,2.77c-.05,1.16,0,2.31,0,3.47l-.39,0c-.18-1.33-.35-2.64-.52-3.95-1.47,1.19-1.47,1.19.32,7.45-1.56-1.26-1.59-3.21-2.44-4.81a3.08,3.08,0,0,0,0,4.33c.91,1.16,1.88,2.28,2.83,3.41l-.35.33c-1.29-1.29-2.59-2.58-3.91-3.91a2.85,2.85,0,0,0,1,3.68c1.05.82,2,1.75,3,2.63l-.26.36-3.78-2.71c-.6,2.88-.46,3.21,1.85,4.62l2.1,1.25c-.09.16-.17.33-.25.49l-3.74-1.6a2.29,2.29,0,0,0,1.35,3c1,.5,2,1.07,3,1.61-.06.13-.12.27-.17.4l-3.82-1.32c-.49,1,.06,1.5.82,1.93l3.67,2.06-.22.46-4.21-1.78a1.89,1.89,0,0,0,1.15,2.57c1.14.55,2.23,1.22,3.79,2.08-2.24,0-3.4-1.23-4.8-2-.26,2.75-.25,2.75,2,3.69.86.35,1.71.72,2.56,1.08-.06.16-.11.31-.17.46l-4.27-1.36c-.41,1.08.23,1.4,1.08,1.69a14.7,14.7,0,0,1,4,1.58c0,.16-.08.32-.13.48l-4.8-1.07c-.37,2.19-.34,2.38,1.63,2.94a49.42,49.42,0,0,1,7.48,3c1.74.83,3.9,1.59,5.68,1.27a73.13,73.13,0,0,0,11.3-3.35,6,6,0,0,1,2.11-.58c.06,0,.12-.23.26-.51l-1.45-1.11c1,0,2.11.3,1.71-1.2l-2.06-1c0-.12.09-.24.13-.35.74.1,1.48.2,2.19.28.46-.83.38-1.35-.47-1.65s-1.5-.61-2.25-.92l.18-.5,3.16.73c.11-.48.21-.89.32-1.36L581.33,271c0-.14.1-.28.14-.43l3,.58c.13-.7.24-1.29.32-1.78l-3.27-1.74.19-.42,3.58,1.21c.2-.7.37-1.28.55-1.89L582,265.26c0-.16.09-.32.14-.47l4.1.69c.59-1,0-1.32-.67-1.55l-4-1.39c2.28-.67,3.85.32,5.46.73.75-.95.28-1.38-.53-1.69-1.36-.5-2.71-1-4.06-1.54,0-.15.09-.3.14-.46L588,261.2c.15-.53.28-1,.42-1.5l-5.82-2.77c0-.14.09-.28.13-.42Zm58.73,49.76-.06-.05a20.44,20.44,0,0,0-.35,3c.17,6.71.41,13.42.61,20.15a2.59,2.59,0,0,0,1,2.29c-1.08.43-.88,1.39-.9,2.22-.07,3-.14,5.93-.13,8.9,0,1.19.23,2.39.35,3.59l0,0c-.73,2.46-.45,4.95-.28,7.47,1.57-2.35,2.93-4.75,4.34-7.12s2.9-4.75,4.38-7.11,3-4.85,4.59-7.24a46.14,46.14,0,0,1,4.8-6.43,3.55,3.55,0,0,1-.59,1.41q-8.4,13.38-16.83,26.78A6.84,6.84,0,0,0,645,358.7c0,2.05-.2,4.09-.32,6.14-.06,1-.13,2-.2,3,3.25-5.49,6.11-11.06,9.08-16.58s5.74-11.24,9.29-16.84c.36,1.55.41,1.62,0,2.4-.79,1.65-1.59,3.3-2.47,4.9-5,9.05-10,18.08-14.93,27.14a10.71,10.71,0,0,0-1.38,3.87c-.85,9.12-2.16,18.18-3.79,27.19-1,5.76-2.11,11.54-2.8,17.34-.87,7.21-1.42,14.44-2,21.68-.33,4.13-.42,8.29-.62,12.72a14.82,14.82,0,0,0,1.51-.84c4.11-2.95,8.21-5.89,12.28-8.89a9.83,9.83,0,0,0,1.83-1.87c3.1-3.9,6.15-7.83,9.23-11.75.37-.46.8-.86,1.2-1.29l.34.29c-1.22,1.78-2.43,3.59-3.69,5.34s-2.51,3.36-3.76,5l.36.33,15.49-11a12.36,12.36,0,0,0-.2-1.57c-1.69-6.51-2-13.18-2.11-19.84-.16-10.63-.17-21.26-.09-31.88.06-8.06.17-16.14.61-24.18.67-12.37,1.58-24.73,2.49-37.08a267.36,267.36,0,0,1,3.47-28.34c.36-2,.79-3.94,1.28-6.33-3.36,1.68-6.32,3.26-9.36,4.65-2.45,1.11-4.93,2.34-7.72,2.17a2.21,2.21,0,0,0-2.31,1.15c-2.29,3.41-4.66,6.76-7,10.14a6,6,0,0,1-.53.69,2.59,2.59,0,0,1-.5.37l-.29-.3c2.56-4,5.14-8,7.86-12.27l-4.43-.46-6.41,5.26a1.27,1.27,0,0,0-.07.49c.1,5.42.18,10.84.33,16.26C644.69,306.36,645.08,306.78,645.29,307.2Zm-1.89-29.33c.53-.38,1.09-.72,1.58-1.15,3-2.59,6-5.15,8.89-7.82a5,5,0,0,0,1.84-4c-3.47,3-6.82,5.86-10.89,7.71,4.34-4,8.94-7.74,12.3-12.66-1.76,1.17-3.36,2.51-5,3.73a15.9,15.9,0,0,1-5.78,3c4.35-3.8,8.81-6.87,11.62-11.58-2.78,2-5.4,4.12-8.63,5.33,1.69-1.8,3.53-3.43,5.25-5.15s3.73-3.38,4.68-5.81a35.21,35.21,0,0,1-11.7,8.16,23,23,0,0,1,2.65-2.29,43.19,43.19,0,0,0,8.92-9c.44-.64.78-1.36,1.17-2-5.43,4.95-8.56,7.2-11.19,7.5l1.54-1.19c4-3.24,7.88-6.57,10.67-11a16.43,16.43,0,0,0,.8-1.63c-1.85,1.16-3.43,2.45-5.07,3.67a16.39,16.39,0,0,1-5.36,3,8.65,8.65,0,0,1,1.39-1.44c2.94-2.74,5.89-5.48,8.8-8.25a3.75,3.75,0,0,0,1.27-3.55c-1.42,1.3-2.71,2.58-4.12,3.74a13,13,0,0,1-4.76,2.86,20.9,20.9,0,0,1,1.94-2q3.26-3.27,6.46-6.58a3.4,3.4,0,0,0,1-3.56c-4.41,5.21-6.75,7.13-9.72,7.76.88-.77,1.49-1.25,2-1.79,1.87-1.85,3.8-3.66,5.56-5.61a15.81,15.81,0,0,0,2.1-3.32,5.65,5.65,0,0,0,.28-1.73c-3.13,4.18-4.88,6-7.2,7.07,1.24-1.62,2.45-3.08,3.52-4.64s2.41-2.9,2.78-5.22c-1.21,1.37-2.13,2.47-3.12,3.52a9.87,9.87,0,0,1-3.24,2.58c2.3-3.51,5.31-6.51,6.67-10.56-1,1-1.88,2.07-2.81,3.08a9.2,9.2,0,0,1-3.08,2.49,6.18,6.18,0,0,1,.88-1.51c1.35-1.92,2.72-3.82,4-5.75.59-.86.55-.89.24-2.19-1.46,1.88-2.74,3.8-4.72,5.06a2.58,2.58,0,0,1,.48-1.12c1.09-1.65,2.19-3.29,3.27-4.95a1.85,1.85,0,0,0,.07-2.48c-1.82,1.92-3.18,4.19-5.58,5.37a3.47,3.47,0,0,1,.59-1.11c1.29-1.77,2.59-3.54,3.87-5.33.48-.67.82-1.37-.16-2-1,1.4-1.77,3.07-3.7,4.22,1-2,1.68-3.64,2.45-5.21a1.58,1.58,0,0,0-.58-2.33c-.86,1.38-1.28,3.08-3,4.07a5.22,5.22,0,0,1,.23-.79c2.51-5,2-5.68-2.92-7.49a28.68,28.68,0,0,0-18.33-.2,40.54,40.54,0,0,0-18.2,11.82c-2.53,2.74-5.5,5.27-6.38,9.21a.51.51,0,0,1-.33.25c-1,.24-1,1-1.22,1.82s-1.07,1.2-1.25,1.89a10.45,10.45,0,0,0,0,2.62c0,.11-.13.21-.23.35l-1-1.36c-.56,2.33-.68,4.44-2.07,6.09l-.8-.4c-1.31,2.44,0,5.16-.85,7.68-1-.82-.41-2.24-1.83-3.26.2,3.81.37,7.15.54,10.49l-.39.06c-.37-2.23-.75-4.46-1.12-6.69-1.78,4-.69,8.18-1.25,12.32q-.6-3.07-1.18-6.14c-1.74,4.13,0,8.24,0,12.8-1.46-2.24-1.47-4.56-2.34-6.84-.27.66-.62,1.09-.56,1.46.53,3.72,1.13,7.42,1.74,11.34-1.55-2.27-2.05-4.82-3-7.34a3.93,3.93,0,0,0-.68,3.74c.87,2.92,1.7,5.86,2.54,8.78-1.84-2.13-2.69-4.77-3.91-7.25-.48,4.25,1.25,8.14,1.67,12.27-1.63-2.29-2.35-5-3.6-7.57a6.41,6.41,0,0,0-.41,3.2c.74,3.21,1.67,6.37,2.52,9.56.12.42.19.87.29,1.3a29.09,29.09,0,0,1-4.11-8.93c-.94,1.53-1.33,2.77-.66,4.32.78,1.81,1.35,3.72,2,5.59a8.36,8.36,0,0,1,.22,1.25l-.36.11c-1-1.73-2-3.47-3.06-5.29-1.6,3.53.24,7.14,4.63,9.3.5-.35,1.06-.7,1.56-1.11a13.47,13.47,0,0,1,7.09-3.23,8.16,8.16,0,0,0,2.12-.54,3.65,3.65,0,0,1,4.22.87c1.22,1.14,2.52,2.21,3.79,3.31a7.63,7.63,0,0,0,.84-.51,4.87,4.87,0,0,1,5.15-.77c1,.36,2.07.73,3.07,1.16a4.29,4.29,0,0,0,3.81-.07,20.43,20.43,0,0,1,2.22-.93,5.63,5.63,0,0,1,4.48.17,18.85,18.85,0,0,1,2.12,1.15,2.76,2.76,0,0,0,2.91.14l1.58-.76c2.05-1,4.11-1.56,6.29-.12,2.26-1.63,4.48-3.16,6.63-4.81,1.85-1.42,3.62-3,5.4-4.48a3.52,3.52,0,0,0,.57-1.07C650.36,274.74,647.24,276.87,643.4,277.87Zm48.66-112.32a12.13,12.13,0,0,1-2,2.22,6.15,6.15,0,0,0-2.23,3.39c-1.59,4.86-3.34,9.69-4.72,14.61-2.13,7.61-3.92,15.31-6,22.94-2.41,8.78-6.15,17.06-10,25.27-2,4.17-4,8.33-4.47,13a10.58,10.58,0,0,1-.4,1.71q-3,11.34-6.08,22.69a11.05,11.05,0,0,0-.22,1.53,9.38,9.38,0,0,0,2.35-3.93c.42-1.41,2.13-2.27,2.51-4.26l-1.94,1.42c1.14-2.63,3.61-4.21,4.68-6.86l-3.59,3a3.05,3.05,0,0,1,.94-1.68c1.31-1.29,2.64-2.55,3.94-3.84a3.42,3.42,0,0,0,1.37-2.88l-2.6,2.13c1.54-3.14,4.63-5.13,6.2-8.82-1.73.92-2.53,2.24-4.16,2.84,2.27-3.7,6.38-5.64,7.49-10.28l-4.45,3.56-.36-.43c1.9-1.92,3.79-3.84,5.71-5.74.7-.69,1.49-1.29,1.47-2.59-1.74,1.22-2.93,2.87-4.75,3.69.84-1.15,1.89-2.08,2.75-3.15s2.45-1.6,2.56-3.45l-3.92,3.09c1.3-3,4.85-4.36,5.24-8.22-1.75,1.6-3,3.32-4.88,4.44,1.54-2.07,3.2-4,4.88-5.93a3.84,3.84,0,0,0,1.26-3.21l-3.94,4-.4-.37a54.7,54.7,0,0,1,4.56-5.24,3.1,3.1,0,0,0,1.11-2.65c-1.5,1.37-2.53,2.87-4.09,3.79a35.41,35.41,0,0,1,2.5-3.28c.81-1,2.23-1.6,2.62-3.45l-3.3,2.62a16.62,16.62,0,0,1,2.48-3.44c.86-1,2.2-1.87,1.93-3.75L680,212.57c.88-3,3.43-5.1,3.95-8.57l-2.34,2.23a15.47,15.47,0,0,1,1.93-3.59c.67-1.07,1.91-1.91,1.62-3.72l-2.21,2.61-.4-.27c.71-1.06,1.44-2.11,2.12-3.18s1.69-1.8,1.76-3.11a7.1,7.1,0,0,0-1.35,1.19c-.4.4-.82.77-1.23,1.16,1-2.73,3.59-4.44,4-7.38-1.23.77-1.77,2.22-3.28,2.68l4-6-1.46.78c1.1-2.44,3.09-4.18,2.84-7-.91,1-1.72,1.85-2.52,2.72.52-2.46,2.58-4.07,3-6.55l-1.75,1.61c.58-2,2.18-3.28,2.47-5.31l-2,1.84-.31-.23,3-4.55-.31-.22-2.29,2.11C689.87,169.51,691.57,167.85,692.06,165.55Zm-4.63,50.74-.31-.32,4.56-5.55L690,211l4.84-6.79-1.52.53c.9-2.59,3.15-4.24,3.57-6.86-.54.57-1.07,1.16-1.95,2.12,1.09-3.18,3.58-5,4.14-8.16l-1.62,1.37c.89-2.48,2.72-4,3.23-6.62l-1.79,1.46c.68-2.41,2.83-3.72,3-6.07l-1.24.25c.89-1.6,1.7-3,2.52-4.49-.76-2,1.27-3.11,1.4-4.84s.53-3.33.65-5,0-3.36,0-5a1.36,1.36,0,0,0-.61,1,75.18,75.18,0,0,1-5.14,18.35c-10.09,24.58-19.9,49.27-31.87,73-3.36,6.68-6.56,13.45-11.07,19.43a15.46,15.46,0,0,0-2.8,6.74c1,1,1.74.48,2.44-.22,1.09-1.08,2.14-2.2,3.18-3.33a8.12,8.12,0,0,0,.74-1.17l-1.9.58,4.46-4.05-.23-.3-2,.64a7.43,7.43,0,0,1,1.76-1.74c.86-.68,1.7-1.37,2.53-2.07,0-.05,0-.24-.06-.37l-1.43.31c1-2.07,3.57-2.53,4.39-5.05l-1.31.75c-.35.17-.71.32-1.47.66,1.6-2.33,4.16-3.07,5.24-5.48l-1.47.42-.19-.31,4.09-4.22-.3-.31-2.65,1.53c-.08-.12-.15-.24-.24-.35a42.64,42.64,0,0,0,4-3.33c.91-1,2.12-2.3,2.06-3.41a4,4,0,0,1,.84-2.67c.58-.93,1.3-1.76,1.93-2.67.29-.42.5-.9.91-1.67l-1.49,1-.25-.25,4.33-6.16-.17-.18-1.87,1.41c.36-1.66,1.49-2.7,2.47-3.84s2.51-2,2.65-3.95l-3.35,2.79c0-.52-.05-.71,0-.78,1.75-1.95,3.48-3.94,5.3-5.82.49-.52,1.13-.84,1-1.76-2.27.74-3.18,3.15-5.52,4.26,1.52-3.16,4.34-5,5.59-7.91-1.81,1.44-3,3.52-5.25,4.49a48.26,48.26,0,0,1,5.53-6.75,6.72,6.72,0,0,0,1.82-4c-1.9,2.14-3.8,4.3-5.7,6.45,1.78-3.61,4.5-6.46,6.91-9.6Zm-13.27,45.62c-.09-.12-.18-.25-.28-.37,1.58-1.36,3.12-2.75,4.73-4.06,3.88-3.15,3.9-3.14,4.16-4.52l-4,3.54-.33-.32c1-1.05,2-2.05,2.83-3.17s2.53-1.7,2.63-3.65l-3.07,2.81c1.16-2.71,3.68-4.37,4.53-7.19l-2.7,2.52-.3-.32c1-1.18,1.88-2.43,3-3.52A16.76,16.76,0,0,0,689,238c2.79-6.95,6.45-13.46,10-20a50.17,50.17,0,0,1,4.16-6.44c3.86-5.07,7.77-10.1,11.78-15a125.62,125.62,0,0,0,12.54-19.84,6.92,6.92,0,0,0,.4-1.24,1.74,1.74,0,0,0-.86.8A99.84,99.84,0,0,1,716,191c-4.17,4.71-8.43,9.37-12.32,14.31-8.07,10.22-14.36,21.54-20,33.22a322.81,322.81,0,0,1-16.87,31.3c-2.39,3.77-5,7.37-7.54,11.06l-.86,1.23c3.85-.14,8.3-3,9.07-5.75l-1.56.85A9.91,9.91,0,0,1,668,275a3.38,3.38,0,0,0,1.38-2.58l-3.08,1.83-.23-.34,3.78-3.46-.21-.18-2,.83c-.08-.15-.15-.29-.24-.44,1.69-1.28,3.34-2.59,5.06-3.82a4.62,4.62,0,0,0,2-2.72l-3.68,2.07-.23-.38c1.15-.88,2.29-1.8,3.46-2.65,2.65-1.93,2.65-1.92,3-3Zm46.17-47.43c-.11,0-.29,0-.36.09-.44.49-.87,1-1.26,1.52a246.53,246.53,0,0,1-27.45,31.36,120,120,0,0,0-22.19,29c-.26.46-.48.95-.89,1.78,1.7-.62,3-1,4.28-1.56.53-.21,1.23-.52,1.42-1,1-2.24,3-3.59,4.47-5.36.11-.12.1-.35.16-.61l-1.88.56c1.41-2.5,4.55-2.65,6.17-5.22l-4.22,1.57c-.07-.17-.14-.33-.22-.5l8-4.22-2.79.32c2.06-1.9,5-1.94,6.81-4.25l-2.38.26a23.69,23.69,0,0,1,3.58-2.25c2.27-1.25,2.27-1.25,3-2.39l-2.43.67a26.92,26.92,0,0,1,4.14-2.87c2.7-1.62,2.7-1.62,3.56-3.2l-2.94,1-.14-.35,5.4-3c0-.08,0-.15-.07-.23l-2,.27c2-1.82,4.8-2.1,6.35-4.88L703,242.54a30.17,30.17,0,0,1,4.62-3.45,6,6,0,0,0,1.07-1c-1-1.27.49-1.28.91-1.78s1.12-1.18,1.7-1.77l-.31-.34-2.61,1.2c1.52-2.11,3.87-2.68,5.22-4.89l-2.1.76-.07-.21,3.4-3-2,.25,3.54-3.18a2.28,2.28,0,0,0-.22-.22l-1.54.39,3.57-3.73-.25-.24-1.54.8-.12-.23,3.09-3.32C718.73,217,721.24,216.14,720.33,214.48Zm-182,3.26c-1.06-.82-2.14-1.57-3.12-2.44a15.86,15.86,0,0,1-5.18-7.73c-.81-3.08,1-5.48,4.19-5.45a15,15,0,0,1,3.2.63c.62.14,1.22.38,2.33.74l-2.87-3.35-.9.26c-.25,0-.5.06-1.22.17a15.68,15.68,0,0,0,1.26-1.17c1-1.28.76-2-.89-2.39l-1.2-.3c1.67-3.08-.6-4.86-2-7.6-.5,2.08-2.18,1.15-3,2.52.32-1.46.56-2.52.88-4L528,189.38c.38-1.46.67-2.55,1-3.64l-.36-.15-1.25,1.84c-.28-1.3.72-2.31-.06-3.45l-.89,1.76-.5-2.34a2.76,2.76,0,0,0-2.23,3c.13,2.1.48,4.19.78,6.29.1.68.33,1.35.62,2.5l-3.3-2c-.17.81-.3,1.44-.42,2.07l-.27,0-.69-3.14c-.31.89-.53,1.49-.8,2.26-.56-1-.24-2.35-1.72-2.48,0,.88.08,1.68.13,2.49l-.24,0c-.31-.69-.61-1.38-1-2.29a4.14,4.14,0,0,0-1,4.59c.44,1.48.92,3.11,2.46,3.7a26,26,0,0,0,4.55.91v.23l-3.07.22c0,.13,0,.27,0,.41l4,.21,0,.26-2,.77.09.36h2.71c0,.11,0,.22.07.32l-1.95.78c-.51,1.69,1.21,1.42,1.72,2.2.2.3,1,.21,1.39.27.32.55.65,1.09,1.08,1.82-.09.62-.89,1.28-.34,2.42.32.67-.75,1.85.45,2.79.24-.55.42-1,.66-1.53.27.72.48,1.32.77,2.08l1.12-.56c.72.34,1.43.9,1.68.74.71-.45.81-.13,1.11.38a1,1,0,0,0,.94.34c.67-.39,1,.31,1.31.34,1.69.17,1.9,1.88,3.06,2.66a6.07,6.07,0,0,0,.66-.52A2.51,2.51,0,0,0,538.38,217.74Zm57.77-34.47c-.37-.87-1.69,0-1.43-1.27a1.29,1.29,0,0,0-.75-.24,7.44,7.44,0,0,0-2.26.7c-3.09,1.86-4.33,4.82-4.7,8.26a9.59,9.59,0,0,1-.18,2c-.13.37-.75.91-1,.85-2.21-.55-2.93,1.07-3.51,2.51-.82,2-1.33,4.15-2,6.23,1.9.92,2.1,1.43,1.33,3.37-.28.71-.56,1.44-1,2.51.75-.37,1.1-.61,1.48-.74a1.81,1.81,0,0,1,2.5,2.17,8.93,8.93,0,0,1-.63,1.38c-.21.53-.36,1.08-.53,1.62a39.58,39.58,0,0,0,3.06-3.27c1.78-1.8,3-1.79,5.28-.7,1.08.52,2.25,1.35,3.71.8l-1.65-1.31c2.22.08,4.35,1.68,5.59-1.06l-2-.36,2.44-.47c-.23-1.69-1.21-.3-1.75-.52l.52-1.08h-5.27l2.34-1.55c0-.1-.07-.2-.11-.31H594a8.84,8.84,0,0,1,2.5-1.38c.83-.36,2-.16,2.61-1.38l-2.62.76c2.95-2.47,2.95-2.48,3-3.32l-1.78,1.32c1.19-2.41,1.19-2.41.64-3.09l-1.2,2.13v-2.4c-2.15.1-3.36,1.71-5.32,2.93l1-1.79-.72-.57,2.88-3.53-2.33.87-.2-.31c.77-.87,1.54-1.73,2.52-2.85-1,.29-1.59.45-2.2.62a2.71,2.71,0,0,0-.13-.3l2.82-2.6c0-.08-.08-.16-.13-.24l-1.38.65-.18-.24c.85-1,1.69-2.06,2.68-3.28l-1.39.52C595.54,184.47,595.86,183.85,596.15,183.27Zm-15.61,45.64c.56.67,1.42,1.24,1.51,1.91.18,1.2-.89,1.71-1.91,2.05a5.58,5.58,0,0,0-1.45.45,4.33,4.33,0,0,0-1.64,1.59,14.21,14.21,0,0,0-.63,3.1,15,15,0,0,0,1.53.39,11,11,0,0,0,1.29,0c0-.55.11-1,.13-1.42.16-2.9,2-4.51,4.87-4.44a2.66,2.66,0,0,0,2.83-1.47c-.53-1.3-2.5-.76-2.78-2.62l2.24-.44a34.7,34.7,0,0,0,4.68-1c1.87-.66,2.49-1.9,2.36-4l-2.05-.57c.82-1.57,2.6-2.53,2-4.54a3.11,3.11,0,0,0-3.4,1.44,30.9,30.9,0,0,1-3.07,3.7,2.61,2.61,0,0,1-3.13.9,1.76,1.76,0,0,0-2.29.64C583.46,227.22,583.46,227.22,580.54,228.91ZM643,284.68c2.89-1.78,5.73-3.53,8.58-5.27a2.22,2.22,0,0,0,1.16-2.4c-3.62,2.22-7.18,4.43-10.84,6.68ZM509.37,247.46a7.11,7.11,0,0,0-.56,5.58l2.08-3.37Zm-5.28-6.86,3,.79c-.3-1-.51-1.71-.72-2.4l-2.37-.15C504,239.46,504,240,504.09,240.6Zm186.13-75.15.33.29c.77-1.48,2.5-2.52,2.05-5.12ZM586,247.66c.59-1.33.73-2.28-.66-2.9C585.12,246.69,585.12,246.69,586,247.66Zm-2-.63c.26-1.52.74-2.63-.53-3.79C583.39,244.56,583.05,245.65,584,247Zm5.6,9.56c.41-.75,1-1.44,0-1.87-.28-.13-.88.48-1.6.91Zm-2.06-9.75c-.68,1.61,0,2,1.42,2.52Zm-1.84,5.3,1.7.18C586.74,250.94,586.74,250.94,585.71,252.14Zm-35.28,27.22.23-.34-1-1.45c-.21.64-.35,1-.51,1.5Zm34.08-30.27c.34.25.56.53.73.5s.53-.35.52-.52a.83.83,0,0,0-.53-.55C585.08,248.49,584.85,248.81,584.51,249.09Zm3.72,5.13-.48-.44-1.15,1.43C587.91,255.4,588.16,254.9,588.23,254.22Zm-34,25.68c0,.16-.07.31-.11.47.36.08.71.17,1.07.24,0-.16.06-.31.1-.47ZM536.6,196.41c-.93-1.09-.93-1.09-1.38-.15Z" transform="translate(-483.71 -155.23)"/></g><path class="cls-3" d="M634.23,363.42a8.13,8.13,0,0,1-.46.88c-8.75,13.27-18.5,25.72-30.21,36.51-3.17,2.92-6.78,5.35-10.19,8a2.77,2.77,0,0,1-1.14.51,3.79,3.79,0,0,1,1.55-1.95c2.58-2.25,5.24-4.4,7.75-6.72a243.36,243.36,0,0,0,31.1-35.53l1.35-1.86Z" transform="translate(-483.71 -155.23)"/><path class="cls-3" d="M636.79,371.13c-1.06,3.18-10.74,16.12-18.15,24.23-7.73,8.45-16,16.36-25.4,22.89l-.34-.32a10.78,10.78,0,0,1,.88-.91c9.55-8.28,18.93-16.75,27.24-26.3,5-5.78,9.66-11.93,14.47-17.91C635.87,372.34,636.23,371.86,636.79,371.13Z" transform="translate(-483.71 -155.23)"/><path class="cls-3" d="M628.49,362.93A4.65,4.65,0,0,1,628,364c-9.19,11.24-18.86,22-30,31.34-1.49,1.25-3.16,2.27-4.77,3.37a7.46,7.46,0,0,1-1.5.47c2.37-2,4.45-3.75,6.44-5.56,10-9.16,19.5-18.93,28.6-29,.55-.6,1.19-1.11,1.79-1.66Z" transform="translate(-483.71 -155.23)"/><path class="cls-3" d="M630.79,389.57c-5.09,8.34-31.27,34.14-36.46,35.78C607.31,413.82,619.09,401.73,630.79,389.57Z" transform="translate(-483.71 -155.23)"/><path class="cls-3" d="M630.8,400.9c-3.6,5.05-28.35,28.56-31,29.28.56-.63,1.07-1.29,1.68-1.87Q609.23,421,617,413.65c4.16-3.92,8.36-7.79,12.55-11.67C629.94,401.6,630.38,401.26,630.8,400.9Z" transform="translate(-483.71 -155.23)"/><path class="cls-3" d="M594.34,389.53l27.58-26.91s.09.12.06.16a187.23,187.23,0,0,1-24.83,25.37C595.68,389.37,595.65,389.32,594.34,389.53Z" transform="translate(-483.71 -155.23)"/><path class="cls-3" d="M629.23,418.49A200.52,200.52,0,0,1,611,436.21a41,41,0,0,1-3.55,2.56c-.12.09-.38,0-.59,0C607.8,437,625,421.22,629.23,418.49Z" transform="translate(-483.71 -155.23)"/><path class="cls-3" d="M604.43,433.55l27.21-27.07-.09-.17c-.3.41-.6.82-.92,1.2-6.8,8.05-14.25,15.48-21.76,22.84-1.31,1.28-2.83,2.35-4.24,3.52Z" transform="translate(-483.71 -155.23)"/><path class="cls-3" d="M621.42,332.23c7.28-9.13,14.63-18.18,22.65-26.67l.42.28c-.4.58-.74,1.2-1.19,1.74-4.63,5.5-9.25,11-13.92,16.47-2.08,2.45-4.27,4.8-6.42,7.19-.4.43-.79.87-1.19,1.31Z" transform="translate(-483.71 -155.23)"/><path class="cls-3" d="M614.88,444.6a81.61,81.61,0,0,1,15.46-2.6c-3.32,1.65-7,2.19-11,3.35l7.78,1-.06.55c-4.48-.06-9,.36-13.48-1.14.11-.41.2-.72.28-1Z" transform="translate(-483.71 -155.23)"/><path class="cls-3" d="M614.56,355.75c-.89,2.66-15.89,21.82-21.91,28C593.31,381.72,611.57,358.38,614.56,355.75Z" transform="translate(-483.71 -155.23)"/><path class="cls-3" d="M583.7,225.74c.17-1.67.37-3,.39-4.3a5,5,0,0,0-.48-2.2,1.63,1.63,0,0,0-2.43-.74c.17.86.33,1.72.49,2.54-1.54,1.24-1.54,1.24-.52,4.13-2.44-1-2.76-2.74-.79-4.72,0-.3-.07-.64-.13-1a1.8,1.8,0,0,1,.83-2.16,2.23,2.23,0,0,1,2.38.21c1.53.91,1.73,2.44,1.73,4a15.16,15.16,0,0,1-.23,2c.14.11.25.27.34.26,2.38-.26,3.35.67,3.11,3s-1.59,3.6-3.58,4.54a15.28,15.28,0,0,0,1.35-1.87,10.71,10.71,0,0,0,1.17-2.86,2.52,2.52,0,0,0-.63-1.85c-.56-.64-1.29-.17-1.9.19C584.51,225.19,584.24,225.39,583.7,225.74Z" transform="translate(-483.71 -155.23)"/><path class="cls-3" d="M629.79,430.61c-4.62,4.6-19.49,13.28-23,13.67a.51.51,0,0,1-.09-.16c0-.07,0-.18,0-.2Q618.24,437.26,629.79,430.61Z" transform="translate(-483.71 -155.23)"/><path class="cls-3" d="M614.88,444.6l-1,.1-4.28,1.08c2.17-2.35,16.54-8.62,21.11-9.12a15.74,15.74,0,0,1-1.34.84c-4.28,2-8.57,3.95-12.84,5.95A10.76,10.76,0,0,0,614.88,444.6Z" transform="translate(-483.71 -155.23)"/><path class="cls-3" d="M630,423.31c-7.72,7.17-15.36,14.42-24.26,20.14-.1-.12-.2-.23-.29-.35L629.73,423C629.83,423.12,629.93,423.22,630,423.31Z" transform="translate(-483.71 -155.23)"/><path class="cls-3" d="M608.8,354.47c-3.14,5.13-15.08,18.62-17.07,19.57a4.78,4.78,0,0,1,.53-1.38c1.28-1.55,2.58-3.1,3.93-4.59,3.66-4,7.34-8,11-12C607.73,355.53,608.27,355,608.8,354.47Z" transform="translate(-483.71 -155.23)"/><path class="cls-3" d="M644.28,301a232.15,232.15,0,0,1-19.92,20.49A237.83,237.83,0,0,1,644.28,301Z" transform="translate(-483.71 -155.23)"/><path class="cls-3" d="M550.9,437.92a139.92,139.92,0,0,1-21.76-.42,4.15,4.15,0,0,1-1.1-.57C529.86,436.15,545.94,436.82,550.9,437.92Z" transform="translate(-483.71 -155.23)"/><path class="cls-3" d="M524.67,440.5h21.58l0,.42c-2.29.68-4.71.4-7,.57-2.5.17-5,.22-7.53.25C525.66,441.81,525.66,441.79,524.67,440.5Z" transform="translate(-483.71 -155.23)"/><path class="cls-3" d="M553,435.6c-6,.72-17.41-.52-20-2.26A142.14,142.14,0,0,1,553,435.6Z" transform="translate(-483.71 -155.23)"/><path class="cls-3" d="M627.85,334.51a161.27,161.27,0,0,1,15-19.33A174.82,174.82,0,0,1,627.85,334.51Z" transform="translate(-483.71 -155.23)"/><path class="cls-3" d="M539.26,429c1.69-.27,11.88,2,13.88,3.11C550.37,432.32,540.66,430.14,539.26,429Z" transform="translate(-483.71 -155.23)"/><path class="cls-3" d="M602.53,352c0,.13,0,.3,0,.4l-7.8,11c.07-.51,0-.77.14-.93,2.3-3.3,4.6-6.6,6.94-9.88.17-.24.54-.34.81-.51Z" transform="translate(-483.71 -155.23)"/><path class="cls-3" d="M635.18,338.68c1.56-1.94,3.12-3.9,4.67-5.85a22.14,22.14,0,0,1-4.28,6.14Z" transform="translate(-483.71 -155.23)"/><path class="cls-3" d="M545.89,425.42a9,9,0,0,1,5.11,1.69L545.82,426C545.84,425.82,545.87,425.62,545.89,425.42Z" transform="translate(-483.71 -155.23)"/><path class="cls-3" d="M637.71,329.39a13.33,13.33,0,0,1-3.8,5l0,0c1.25-1.69,2.49-3.38,3.74-5.06Z" transform="translate(-483.71 -155.23)"/><path class="cls-3" d="M571.15,236.23l.87-.32c-.2,1.25-.38,2.31-.55,3.37-.82-1.05-.39-2.09-.29-3.11Z" transform="translate(-483.71 -155.23)"/><path class="cls-3" d="M637.69,329.37c.58-1,1.15-2,1.72-2.95a3.66,3.66,0,0,1-1.7,3Z" transform="translate(-483.71 -155.23)"/><path class="cls-3" d="M550.81,421.41l-2.31.87C549,421.12,549.61,420.66,550.81,421.41Z" transform="translate(-483.71 -155.23)"/><path class="cls-3" d="M571.18,236.17l-.64.9a2.52,2.52,0,0,1,.61-2.84v2Z" transform="translate(-483.71 -155.23)"/><path class="cls-3" d="M573.66,243.12c-.17-.68-.33-1.36-.5-2l.37-.09c.2.65.39,1.3.58,2Z" transform="translate(-483.71 -155.23)"/><path class="cls-3" d="M628.5,362.94l.84-1.37.35.3-1.2,1.06Z" transform="translate(-483.71 -155.23)"/><path class="cls-3" d="M633.91,334.39l-.6,1.36-.37-.28,1-1Z" transform="translate(-483.71 -155.23)"/><path class="cls-3" d="M602.57,352.06l.65-1.21a4.19,4.19,0,0,0,.33.26l-1,.91Z" transform="translate(-483.71 -155.23)"/><path class="cls-3" d="M647.7,274.68c-.86,1.42-2.25,1.54-3.64,1.67a3,3,0,0,1-1-.13c-5.37-1.54-11-1.8-16.43-2.74-3.82-.67-7.74-.71-11.61-1.09a25.37,25.37,0,0,1-4.71-.7c-1.55-.44-1.7-1.42-.64-2.67a3,3,0,0,1,2.51-1.23c6.39.15,12.8.06,19.18.41a32,32,0,0,1,14.88,5,5.64,5.64,0,0,1,1,.74A3.87,3.87,0,0,1,647.7,274.68Zm-1.76.1c-7.13-4.51-14.8-6-23-5.62l-.61.76-.73,1c2.41-.27,4.54.39,6.53-.8-.24.42-.48.86-.71,1.28l.23.3,3.12-1.38.15.22-1,1.25.22.27,3.12-1.75c.07.09.13.18.2.26l-1.58,1.88,3.34-1.16c-.24.71-.38,1.09-.6,1.73l3.2-1.4a2.55,2.55,0,0,1,.14.24l-1.43,1.5,2.65-.59c.63,1.71,1.9.33,2.83.63-.07.32-.14.63-.21,1C643.14,274.8,644.37,275.66,645.94,274.78Zm-28-4.33c1.71.39,2.78-.38,4-1.22A3.63,3.63,0,0,0,617.92,270.45Zm-.58-1.23c-1.65-.33-2.76-.17-3.3,1.4Zm-6.09.2c.07.23.14.45.22.66l1.64-.71L613,269Z" transform="translate(-483.71 -155.23)"/><path class="cls-3" d="M651.37,253.76c-.79,1.07-1.88,1-2.9.89-4.57-.43-9.18-.57-13.67-1.71a39.72,39.72,0,0,0-4.11-.44c-1.2-.18-2.39-.57-3.6-.71-1.72-.21-3.48-.19-5.2-.44a7.54,7.54,0,0,1-2.7-1,1.65,1.65,0,0,1-.15-2.94,7,7,0,0,1,3-1.37,41.46,41.46,0,0,1,25.69,4.49A7.56,7.56,0,0,1,651.37,253.76Zm-2.49-.32.12-.29a6.85,6.85,0,0,0-.89-.74,41.06,41.06,0,0,0-25.54-5.3,3.07,3.07,0,0,0-2.48,1.89l7.15-1.32-2.68,2,.19.35,4.8-2.14.19.34L628,250c.06.1.11.21.18.32l3.7-1.16-1,1.65c2.53-.23,4.82-.1,7.15-.69l-1.29,1.11.12.23,2.67-.73.37.48-1.48.9.18.27,4.06-1.54c-.29.65-.44,1-.63,1.39l2.65-.44c-.27.51-.43.83-.64,1.2Z" transform="translate(-483.71 -155.23)"/><path class="cls-3" d="M657.81,232.38a19,19,0,0,1-6.14-.53c-3.21-.59-6.35-1.59-9.56-2.16-3.47-.62-7-.94-10.5-1.39-1-.13-1.94-.21-2.9-.41a4.07,4.07,0,0,1-1.72-.68,1.91,1.91,0,0,1-.59-1.4c0-.28.62-.63,1-.76a6.35,6.35,0,0,1,1.84-.32c6.2-.29,12.41-.68,18.54.71a18.17,18.17,0,0,1,8.84,4.92,9,9,0,0,1,1,1.08C657.73,231.59,657.71,231.83,657.81,232.38Zm-2-1c0-.17.06-.34.1-.5a16.09,16.09,0,0,0-10-5c-4.5-.45-9-.49-13.55-.64-1.38-.05-2.78.11-4.37.19.31.36.38.54.47.55.81,0,1.63,0,2.42.1s1.57.42,2.36.58c.24,0,.52-.16.78-.24l1.84-.55c.05.41.09.71.13,1l.84.15a11.18,11.18,0,0,1,3.15.36,17.36,17.36,0,0,0,4.38.67s0,.28-.15.84l3.56-1.09c-.55.69-.89,1.1-1.33,1.64l4.43-.65-.71.76-.64.79Z" transform="translate(-483.71 -155.23)"/><path class="cls-3" d="M644.45,418.36A279.69,279.69,0,0,1,665.32,385C664.93,387.79,649,413.36,644.45,418.36Z" transform="translate(-483.71 -155.23)"/><path class="cls-3" d="M648.68,394.79A207.71,207.71,0,0,1,667.13,359C666.87,361.12,652.45,389.19,648.68,394.79Z" transform="translate(-483.71 -155.23)"/><path class="cls-3" d="M663.69,416.54a12.62,12.62,0,0,1-1,2.14c-1.82,2.64-3.59,5.33-5.6,7.83-4.08,5.05-8.29,10-12.44,15-.36.42-.72.84-1.07,1.27l-.41-.29c.39-.58.75-1.18,1.17-1.73q7.85-10.33,15.72-20.66c.63-.83,1.22-1.7,1.85-2.53.36-.47.77-.9,1.16-1.34Z" transform="translate(-483.71 -155.23)"/><path class="cls-3" d="M649.66,384.11c1.15-6.14,14.34-31.57,18.46-35.46Z" transform="translate(-483.71 -155.23)"/><path class="cls-3" d="M647.51,406.39c.51-2.62,16.3-30.74,19.31-34.41C666.3,374.65,650.41,402.94,647.51,406.39Z" transform="translate(-483.71 -155.23)"/><path class="cls-3" d="M644.41,426l20.22-30.55.36.23c-5.62,10.92-12.92,20.74-20.13,30.61Z" transform="translate(-483.71 -155.23)"/><path class="cls-3" d="M650.54,338.49a5.51,5.51,0,0,1,0-1.4,6.26,6.26,0,0,1,.68-1.52c5.39-9.6,10.9-19.14,17.88-27.71.31-.37.64-.73,1.07-1.22.3.87-.31,1.24-.6,1.68-5.7,8.84-11.44,17.66-17.13,26.5A39.43,39.43,0,0,0,650.54,338.49Z" transform="translate(-483.71 -155.23)"/><path class="cls-3" d="M650.19,344.82A260.77,260.77,0,0,1,670,315.2l.46.31-19.79,29.58Z" transform="translate(-483.71 -155.23)"/><path class="cls-3" d="M649.9,352.51a7.3,7.3,0,0,1,.46-1.34,212.36,212.36,0,0,1,18.28-27.53,4.27,4.27,0,0,1,1.63-1.37c-.26.44-.51.89-.79,1.31q-9.27,13.83-18.56,27.66a12.29,12.29,0,0,1-1.06,1.23Z" transform="translate(-483.71 -155.23)"/><path class="cls-3" d="M663.71,407.43a17.09,17.09,0,0,1-.79,1.81,36,36,0,0,1-2.33,3.7c-4.91,6.5-9.88,13-14.82,19.42a12.38,12.38,0,0,1-.93,1l-.32-.27L663.3,407.2Z" transform="translate(-483.71 -155.23)"/><path class="cls-3" d="M643.19,447.58,661.9,425a3.88,3.88,0,0,1,.31.26,160.17,160.17,0,0,1-18.68,22.65Z" transform="translate(-483.71 -155.23)"/><path class="cls-3" d="M650.81,327.76c5.42-9.08,11.08-18,17.25-26.9C667.54,303.32,655.48,322.23,650.81,327.76Z" transform="translate(-483.71 -155.23)"/><path class="cls-3" d="M649.4,314.29c.91-1.56,1.72-3.19,2.75-4.66,3.5-4.95,7.07-9.84,10.63-14.74a19.34,19.34,0,0,1,1.41-1.61l.33.26a14.94,14.94,0,0,1-.77,1.36q-6.74,9.32-13.5,18.6a4.15,4.15,0,0,1-.91.74Z" transform="translate(-483.71 -155.23)"/><path class="cls-3" d="M665.76,297.9c-4.74,6.85-9.49,13.69-14.48,20.89C651.85,316.24,662.62,300.41,665.76,297.9Z" transform="translate(-483.71 -155.23)"/><path class="cls-3" d="M567.39,259.14c1.42-1.92,6.55-2,10.26-.19-3.39.25-6.54.48-9.69.68C567.78,259.64,567.58,259.31,567.39,259.14Z" transform="translate(-483.71 -155.23)"/><path class="cls-3" d="M579,271a19.68,19.68,0,0,1-8.73.29c.63-.56.92-1,1.22-1,2.21,0,4.42.06,6.64.15C578.35,270.38,578.56,270.65,579,271Z" transform="translate(-483.71 -155.23)"/><path class="cls-3" d="M581.71,261.42c2.63-1.17,4.22.35,6,1.31a6.54,6.54,0,0,1-4.47-.09C582.71,262.51,582.34,262,581.71,261.42Z" transform="translate(-483.71 -155.23)"/><path class="cls-3" d="M575.79,282.62c1.07-1.26,2.62-1.26,4.35,0C578.38,283.7,577,283.7,575.79,282.62Z" transform="translate(-483.71 -155.23)"/><path class="cls-3" d="M579.32,287.37a3.23,3.23,0,0,1,3.48.29C581.43,288.56,580.39,287.75,579.32,287.37Z" transform="translate(-483.71 -155.23)"/><path class="cls-3" d="M587.5,279.42c-1.31.48-1.51-.14-1.31-1.18Z" transform="translate(-483.71 -155.23)"/><path class="cls-3" d="M529.05,253.34c3.51.28,5.87,2.22,7.61,5.14a19.09,19.09,0,0,1,3,7.09c-2.86-4.6-5.27-9.63-11.35-11.09.36-.51.59-.84.81-1.18Z" transform="translate(-483.71 -155.23)"/><path class="cls-3" d="M527.29,280.74c-1.09-1.43-2.66-2.56-2.19-4.51.17-.7.28-1.42.42-2.13l.46,0c0,.93.11,1.87.17,2.88h1C527.16,278.25,527.23,279.49,527.29,280.74Z" transform="translate(-483.71 -155.23)"/><path class="cls-3" d="M522.11,273.18c.33-1.63.66-3.27,1-4.89a8,8,0,0,1-.52,5Z" transform="translate(-483.71 -155.23)"/><path class="cls-3" d="M524.69,271.16c-.24,1.37-.47,2.73-.7,4.1l-.52-.1c.25-1.36.49-2.73.74-4.09Z" transform="translate(-483.71 -155.23)"/><path class="cls-3" d="M531.39,284c-1.59-.27-1.77-.53-1.57-2.46Z" transform="translate(-483.71 -155.23)"/><path class="cls-3" d="M528.08,280.17l.69,2-.4.17c-.28-.62-.57-1.23-.84-1.85Z" transform="translate(-483.71 -155.23)"/><path class="cls-3" d="M559.71,257.82c-1.94.57-1.94.57-3.34.16C558,257.25,558.55,257.22,559.71,257.82Z" transform="translate(-483.71 -155.23)"/><path class="cls-3" d="M561.06,251.56c1.44-1,2.66-.79,4.19-.46C563.86,252,562.64,251.82,561.06,251.56Z" transform="translate(-483.71 -155.23)"/><path class="cls-3" d="M554.53,276h1.81l0,.44-1.79-.43Z" transform="translate(-483.71 -155.23)"/><path class="cls-3" d="M532.63,206.61l.24,1.37-.43.09-.28-1.39Z" transform="translate(-483.71 -155.23)"/><path class="cls-3" d="M524.33,250.92c-2.16-1.49-4.14-3.13-4.53-6A17.7,17.7,0,0,1,524.33,250.92Z" transform="translate(-483.71 -155.23)"/><path class="cls-3" d="M510.68,236.32l3.55.93c-1.79.94-2.12.84-3.54-.94Z" transform="translate(-483.71 -155.23)"/><path class="cls-3" d="M651.15,229.64l1.44-.37c0,.18.07.37.1.55l-1.46.21C651.2,229.9,651.17,229.77,651.15,229.64Z" transform="translate(-483.71 -155.23)"/></svg>