<svg id="Livello_1" data-name="Livello 1" xmlns="http://www.w3.org/2000/svg" xmlns:xlink="http://www.w3.org/1999/xlink" viewBox="0 0 215.93 319.14"><defs><style>.cls-1{fill:none;}.cls-2{clip-path:url(#clip-path);}.cls-3{fill:#cc0b36;}.cls-4{fill:#f8f8f8;}</style><clipPath id="clip-path" transform="translate(-576.59 -225.02)"><rect class="cls-1" x="576.28" y="224.19" width="216.81" height="320"/></clipPath></defs><g class="cls-2"><path class="cls-3" d="M747.47,225.71c0,2.52-1.17,9.73.78,10.82,1.2.67,4.2-.69,5.34-1.11,3.44-1.29,1.41.77,2.85,1.58.51.3-.17,1.31,1.37,1.56,1.06.18,2.46-.47,3.43-.19,4.74,1.41,1.79,5.59,7.82,5.25,3.68-.2,3.19,3.88,5.8,5.63,2,1.3,4.95.75,5.86,3.27.23.6-3.45,1.16-.76,2.61,1.51.81,3,.64,4.25,1.87,1.81,1.85-1.78,2.31,2.16,3,1.81.33,4.06-.73,6-.53.66.07-.93,23.36-1.08,26.39-1.69,36.17-2,72.45-2.4,108.65-.22,18.27-.34,36.54-.46,54.81q-.09,14.9-.09,29.8,0,5.87,0,11.72c0,3.27,1.14,9.52-.18,12.59-1.93,4.47-9.06,4.25-13.25,5-8.3,1.52-16.55,3.25-24.81,5-16.61,3.45-33.15,7.25-49.84,10.3-17.4,3.18-34.64,7.36-52,10.6-8.55,1.6-17.23,2.43-25.85,3.56-3.95.51-7.87,1.23-11.8,1.93-.93.16-2.7,2.94-4.19,3.53-6.95,2.77-13.15-2-18.21-5.83-2.94-2.2-6-4.59-7.73-7.89s-.49-8.75-.51-12.43q-.15-27.85-.32-55.69-.28-57.58-.56-115.16c-.09-16.85,1.41-34.68-.44-51.44-.72-6.62-5.57-17.09,2.82-20.52a37.63,37.63,0,0,1,6.13-2.27c2.85-.6,5.22,1,8.26.73,16.49-1.7,33.57-10,49.17-15.24,17.3-5.8,34.58-11.63,51.92-17.27q13.39-4.37,26.82-8.68c4.42-1.41,20.71-8.92,23.71-5.93" transform="translate(-576.59 -225.02)"/></g><path class="cls-4" d="M744.88,229.93c-31.34,11.74-63.58,21.89-94.6,34.14-13.85,5.48-28.3,9.56-42.29,14.78-3.14,1.17-6.6,2.91-9.55,2.74-2.51-.14-4.33-1.51-7.12-.95-2.38.48-3,1.47-1.27,3.43,1.39,1.6,1.89-.42,2.37-.15v-.85c1.89,3.91,5.84,5.86,9.88,6.86-5.7-1.87-14.62-4.85-16.26-11.54-1.34-5.51,4.81-2.05,6.05-2.29,15.51-2.92,29.37-9,44.22-13.88,17.12-5.67,34.21-11.44,51.38-17,16-5.18,32.54-8.74,48.37-14.3,2.17-.75,9.53-5.25,8.82-1" transform="translate(-576.59 -225.02)"/><path class="cls-4" d="M745.3,237.27c-22.22,9.12-45,16.5-67.83,23.94-10.88,3.54-22.07,6-33,9.73-9.4,3.18-23.25,10.71-33.25,9.54,24-8.45,48.09-16.71,72.11-25.16,20.47-7.21,40.53-16.76,61.5-22.33-.26,1.56-.63,3.1.42,4.28" transform="translate(-576.59 -225.02)"/><path class="cls-4" d="M754.27,238.11c.3.9-.16,1.37.48,2.16-43.69,13.81-86.9,29.45-131.51,40.21,23.73-7.93,47.75-14.85,71.67-22.19,11.9-3.66,23.62-7.79,35.3-12.1,7.76-2.86,15.91-7,24-8.08" transform="translate(-576.59 -225.02)"/><path class="cls-4" d="M762.46,242.38c2.23,4.72-8.82,5.44-12.15,6.23-5.76,1.37-11.57,2.61-17.36,3.87-11.12,2.41-22.15,5.06-33.05,8.32,10.23-3.25,20.41-6.67,30.61-10,4.46-1.47,29.88-11.78,32-8.41" transform="translate(-576.59 -225.02)"/><path class="cls-4" d="M772.71,251.36l2.16.42c-51.59,12.6-104.31,20.15-155.89,33,29.06-9.16,59-15,88.26-23.24,13-3.68,26.2-6.19,39.34-9.48,6.6-1.65,13.16-3.44,19.77-5,5.7-1.38,2.28,2.68,6.36,4.35" transform="translate(-576.59 -225.02)"/><path class="cls-4" d="M777,254.36c0,4.5-49.83,9.93-56.48,10.72,9.61-1.42,19.2-3,28.71-5,5-1,9.93-2,14.88-3.17,3.41-.78,9.83-3.44,12.89-2.55" transform="translate(-576.59 -225.02)"/><path class="cls-4" d="M780.83,260.33C755.3,264,730.32,270.27,705,275c-23,4.27-46.5,7.13-69.75,9.36,24.26-5.13,48.52-10.14,72.94-14.41s48.89-7.1,73.13-11.71c0,.21-.46,2.09-.47,2.11" transform="translate(-576.59 -225.02)"/><path class="cls-4" d="M789.38,262.07c1.36,74.3-3.19,148.78-3.36,223.11,0,3.13,0,6.25.12,9.38.14,4.41,2.28,9-2.48,9.92q-14,2.63-28,5.35c-15.95,3.11-31.84,6.49-47.75,9.76-32.41,6.66-65,11.66-97.5,17.78-.79-74.11.29-148.29.74-222.39,0-1.55-.54-24.55.32-24.65q13.75-1.51,27.5-3.14c15.85-1.88,31.67-4.23,47.4-6.81,34.12-5.61,68.62-15.7,103-18.31" transform="translate(-576.59 -225.02)"/><path class="cls-4" d="M592.84,289.46c1.76.1,2.46,1.2,4,1.74,3.52,1.26,7.17,1.14,11,1.31-3.43,6.62-12.91,1.19-17.15-1.31-3-1.75-16.63-11.8-7.66-15-1,6.11,5.56,10.44,9.82,13.25" transform="translate(-576.59 -225.02)"/><path class="cls-4" d="M602.24,285.18c-.48-.2-.89-.25-1.22-.84l6.82-3c1.14,3.43-3.3,3.39-5.6,3.85" transform="translate(-576.59 -225.02)"/><path class="cls-4" d="M615.49,285.18l-6.81.9c2-1.36,4.67-.79,6.81-.9" transform="translate(-576.59 -225.02)"/><path class="cls-4" d="M604.41,298.48a19.76,19.76,0,0,1,3.43-1.32Q607.18,416,606.53,534.8c0,3.54,1.46,5.26-2.86,6.11-6.4,1.25-12.06-3.95-16.61-7.66-7-5.7-4.58-16.34-4.64-24.67L582.18,479q-.42-53.07-.81-106.16-.18-26-.35-52.06c-.07-11.06,1.08-23.34-1-34.29,6.4,6.66,14.74,12.5,24.4,12" transform="translate(-576.59 -225.02)"/><path class="cls-4" d="M607.42,289c-.59.43-1.17.88-1.75,1.31.62-2,.05-1-.84-3l1.26-.85c.25,1,1,1.71,1.33,2.54" transform="translate(-576.59 -225.02)"/></svg>