<svg id="Livello_1" data-name="Livello 1" xmlns="http://www.w3.org/2000/svg" viewBox="0 0 220 301"><defs><style>.cls-1{fill:#f8f8f8;}.cls-2{fill:#cc0b36;}.cls-3{fill:none;}</style></defs><path class="cls-1" d="M800.93,334.83c-1.53-28.72-2-57.62-6.83-85.91-.07-.43-3.37.44-3.61.46l-3.36.21c-4.88.28-9.75.51-14.64.7-9.43.38-9.81-1.13-19.25-.95-18.55.36-37.17,1.31-55.71,1.19-29.5-.21-59-7.66-88.48-2.93A72.62,72.62,0,0,0,590.7,253a.68.68,0,0,0-.31.55c-.17,2.7.36,5.5.48,8.19.16,3.7.09,7.42,0,11.12-.26,8-1.63,66.46-1.86,87.39-.12,11.09-1.37,39.65-1.44,42.86-.33,15,.89,29.78,1.68,44.72,1.55,28.72,2,57.63,6.83,85.92.08.43,3.38-.45,3.62-.46,1.12-.08,2.24-.14,3.37-.21q7.31-.42,14.63-.71c9.43-.37,9.81,1.15,19.25,1,18.55-.36,37.17-1.31,55.72-1.18,29.5.19,59,7.65,88.47,2.92a73,73,0,0,0,18.35-5.41.69.69,0,0,0,.32-.56c.16-2.69-.37-5.49-.49-8.18-.16-3.7-.09-7.42,0-11.12.26-8,1.63-66.46,1.86-87.4.12-11.08,1.37-39.64,1.45-42.85.31-15-.9-29.78-1.7-44.73" transform="translate(-583.33 -242.9)"/><path class="cls-2" d="M786.86,325c-1.32,0-2.64,0-4,0q-11.76,0-23.52-.05H719.68c-7,0-15.33,0-23.6.21H696a.29.29,0,0,0-.28.3v.18a.29.29,0,0,0,.09.22.3.3,0,0,0,.2.08h0c8.36-.19,16.77-.21,23.89-.21h32.33l29,.05c1.9,0,3.79,0,5.68.05a.34.34,0,0,0,.21-.09.27.27,0,0,0,.09-.21v-.18a.29.29,0,0,0-.29-.29" transform="translate(-583.33 -242.9)"/><path class="cls-2" d="M734.48,296.86h-117v.77h98.59l49,0v-.78l-30.59,0" transform="translate(-583.33 -242.9)"/><path class="cls-2" d="M786.86,331.56c-1.32,0-2.64,0-4,0q-11.88-.06-23.75-.06H719.7c-7,0-15.35,0-23.63.2H696a.29.29,0,0,0-.28.29v.19a.24.24,0,0,0,.09.2.27.27,0,0,0,.2.09h0c8.37-.19,16.81-.21,24-.21h32.26q14.49,0,29,.05c1.9,0,3.79,0,5.68,0a.23.23,0,0,0,.21-.09.27.27,0,0,0,.09-.2v-.18a.31.31,0,0,0-.29-.3" transform="translate(-583.33 -242.9)"/><path class="cls-2" d="M786.86,338.1l-4,0L759.1,338H719.68c-7,0-15.33,0-23.6.21H696a.29.29,0,0,0-.28.29v.19a.29.29,0,0,0,.09.21.26.26,0,0,0,.2.08h0c8.37-.18,16.81-.21,24-.21h32.26l29,.05,5.68,0a.29.29,0,0,0,.3-.29v-.18a.3.3,0,0,0-.29-.3" transform="translate(-583.33 -242.9)"/><path class="cls-2" d="M786.86,344.65c-1.32,0-2.64,0-4,0q-11.76,0-23.52-.05H719.7c-7,0-15.35,0-23.62.21H696a.29.29,0,0,0-.28.29v.19a.31.31,0,0,0,.09.22.36.36,0,0,0,.2.08h0c8.35-.19,16.75-.22,23.87-.22h32.35l29,.06c1.9,0,3.79,0,5.68,0a.29.29,0,0,0,.21-.09.27.27,0,0,0,.09-.21v-.18a.29.29,0,0,0-.29-.29" transform="translate(-583.33 -242.9)"/><path class="cls-2" d="M786.86,351.19l-4,0q-11.88,0-23.75,0H719.73c-7.05,0-15.38,0-23.65.2H696a.29.29,0,0,0-.28.29v.18a.29.29,0,0,0,.09.22.3.3,0,0,0,.2.08h0c8.36-.19,16.79-.21,23.94-.21H737l15.15,0q14.49,0,29,.05l5.68,0a.29.29,0,0,0,.21-.09.27.27,0,0,0,.09-.21v-.18a.3.3,0,0,0-.29-.29" transform="translate(-583.33 -242.9)"/><path class="cls-2" d="M786.86,357.73c-1.32,0-2.64,0-4,0-8,0-16,0-24.08-.06H719.68c-7,0-15.33,0-23.61.21H696a.29.29,0,0,0-.28.29v.19a.27.27,0,0,0,.09.21.26.26,0,0,0,.2.08h0c8.36-.18,16.79-.21,23.94-.21h32.28l29,0,5.68,0a.25.25,0,0,0,.21-.08.29.29,0,0,0,.09-.21V358a.3.3,0,0,0-.29-.3" transform="translate(-583.33 -242.9)"/><path class="cls-2" d="M636.54,326a.33.33,0,0,0-.14.32v.23c.11,2.33.17,3.76.18,4.24,0,1.64,0,3.26.1,5,0,.69.06,1.39.1,2.06v0c0,.28,0,.56.05.85v.08c.06,1,0,1.62-.21,1.83a.21.21,0,0,1-.23.05h-.08l-.1,0a2.73,2.73,0,0,1-.56-.71,3.1,3.1,0,0,1-.2-1.59v-.12c0-1.36.17-2.73.29-4,0-.25,0-.5.07-.76v-.1c.1-1,.2-2,.23-3.06,0-.6,0-1.57,0-2.48a12.74,12.74,0,0,0,0-1.54h0a6.45,6.45,0,0,0-.66-1.94,5.43,5.43,0,0,1-.66-2.09c0-1.22.44-2.72,1.53-3.13a1.53,1.53,0,0,1,.5-.1c1.08,0,1.75,1.51,1.92,2.54a3.2,3.2,0,0,1-.57,2.42l-.09.14A5.9,5.9,0,0,1,636.54,326Zm-1.69-1.28a4.71,4.71,0,0,1,.63,1.95c0,.09,0,2.8,0,4.14,0,1-.15,2.07-.25,3.09-.06.57-.12,1.15-.17,1.73l-.06.71a12.16,12.16,0,0,0,0,3.46c.09.48.67,1.61,1.39,1.61a.41.41,0,0,0,.16,0l.07,0a.67.67,0,0,0,.51-.26c.59-.64.39-2.39.29-3.33v0c0-.14,0-.26,0-.33-.09-1.36-.1-2.75-.12-4.11,0-.56,0-1.11,0-1.68,0-.87,0-1.79,0-2.59v-.2c0-.23-.05-.69-.11-1.19s-.11-1-.11-1.22a5.85,5.85,0,0,0,1.33-1.55l0,0,.2-.29a3.94,3.94,0,0,0,.81-2.74c-.15-1.52-1-3.13-2.46-3.28s-2.37,1.42-2.64,2.76a4.47,4.47,0,0,0,.09,2.16,7.69,7.69,0,0,0,.53,1.25" transform="translate(-583.33 -242.9)"/><path class="cls-2" d="M645.67,351.31h0a1.5,1.5,0,0,1,.22.11,1,1,0,0,1-.24.3.21.21,0,0,0-.08.25.21.21,0,0,0,.32.11,1.2,1.2,0,0,0,.36-.41,8.87,8.87,0,0,1,.75.76,4.84,4.84,0,0,1,.55.75h0l-.13.05a1.06,1.06,0,0,1-.31.05.22.22,0,0,0-.21.23.21.21,0,0,0,.22.21,1.63,1.63,0,0,0,.45-.08h0a.69.69,0,0,0,.19-.07h0c.1.19.18.37.25.54a4,4,0,0,1,.26.92l0,0h-.06l-.3,0a.21.21,0,0,0-.17.22.23.23,0,0,0,.23.22h.12a1.15,1.15,0,0,0,.26,0,4.26,4.26,0,0,1-.42,2.07l-.34-.17a.23.23,0,0,0-.32.15.2.2,0,0,0,.11.24l.33.16a3.4,3.4,0,0,1-1.16,1.13s0-.07-.06-.12a1.52,1.52,0,0,1-.11-.32.2.2,0,0,0-.2-.17.21.21,0,0,0-.18.09.24.24,0,0,0,0,.18,1.67,1.67,0,0,0,.21.54,4.49,4.49,0,0,1-1.62.4l0-.2c0-.12,0-.24,0-.36a.2.2,0,0,0-.22-.2.19.19,0,0,0-.15.06.22.22,0,0,0-.06.15c0,.14,0,.27,0,.4a.76.76,0,0,1,0,.16,5.11,5.11,0,0,1-1.46-.28,1.87,1.87,0,0,1,.17-.31.18.18,0,0,0,0-.2.23.23,0,0,0-.38,0,2.88,2.88,0,0,0-.22.38l-.17-.09a4,4,0,0,1-1.47-1.44,1.19,1.19,0,0,1,.38-.25.2.2,0,0,0,.12-.23.23.23,0,0,0-.31-.16,1.51,1.51,0,0,0-.41.25,5.42,5.42,0,0,1-.46-1.48,1.76,1.76,0,0,0,.81-.18.22.22,0,1,0-.21-.38,1.44,1.44,0,0,1-.64.12,4.46,4.46,0,0,1,.2-1.65v0a.79.79,0,0,1,.3.16.22.22,0,0,0,.25-.36,1.17,1.17,0,0,0-.38-.21,3.76,3.76,0,0,1,1.61-1.57.82.82,0,0,1,.2.24.45.45,0,0,0,0,.08l0,.06a.26.26,0,0,0,.3.19.24.24,0,0,0,.14-.11.25.25,0,0,0,0-.17.32.32,0,0,0-.08-.13,1.57,1.57,0,0,0-.22-.36,5.42,5.42,0,0,1,1.69-.4s0,.09,0,.14l0,.17a.76.76,0,0,0,.06.26.22.22,0,0,0,.21.15.2.2,0,0,0,.18-.1.21.21,0,0,0,0-.19,1,1,0,0,1,0-.21v-.06a1.1,1.1,0,0,0,0-.18A4.75,4.75,0,0,1,645.67,351.31Zm-5.58,1.44a3.59,3.59,0,0,0-.31.55l0,0a.3.3,0,0,0-.07.16,5.27,5.27,0,0,0,.93,5,4.53,4.53,0,0,0,3.62,1.63h0a5.28,5.28,0,0,0,2.09-.43,4.46,4.46,0,0,0,2.08-5.86,6,6,0,0,0-1.17-1.8,3.25,3.25,0,0,0-1.73-1.21,5.23,5.23,0,0,0-1.19-.13,5.29,5.29,0,0,0-4.23,2.06" transform="translate(-583.33 -242.9)"/><path class="cls-2" d="M643.76,354.08l0,0a6.58,6.58,0,0,0-.7-.48l-.3-.19h0a.67.67,0,0,0,.06-.12.19.19,0,0,0,0-.19.22.22,0,0,0-.18-.1l-.9.11a.28.28,0,0,0-.19.14.24.24,0,0,0,0,.23,1.11,1.11,0,0,1,.23.6.22.22,0,0,0,.22.16.21.21,0,0,0,.21-.15l0-.07a6.06,6.06,0,0,1,1.33,1.09.77.77,0,0,0,.15.74.49.49,0,0,0,.13.12l.21,1.34c.08.47.15,1,.22,1.42a.21.21,0,0,0,.22.17h.14a.22.22,0,0,0,.17-.07.17.17,0,0,0,0-.15,26.27,26.27,0,0,0-.42-2.78s0,0,0,0a1.14,1.14,0,0,0,.2-.75.47.47,0,0,0-.38-.49,1.19,1.19,0,0,0-.47-.52" transform="translate(-583.33 -242.9)"/><path class="cls-2" d="M654.47,344.67a.13.13,0,0,0-.08,0H633.77a.11.11,0,0,0-.08,0Zm-.76.6c-.07.09-.17.18-.25.27a1.49,1.49,0,0,0-.23.43,1.69,1.69,0,0,1-.12.27c-.35.6-1.26.62-2,.64h-.42c-.72,0-1.5.07-2.39.07s-1.82,0-2.7,0h-3.06c-.88,0-1.8,0-2.7,0s-1.66,0-2.39-.07H637c-.73,0-1.63,0-2-.64l-.12-.27a1.49,1.49,0,0,0-.23-.43l-.25-.27-.08-.07h19.42Zm-6.6,4.13c0-.09,0-.22,0-.42s0-.24,0-.31l0-.34c0-.29,0-.62,0-.89h.52c-.07.68-.12,1.41-.13,2Zm-5.63-2h5.21c0,.23,0,.5,0,.76s0,.28,0,.4l0,.15c0,.3,0,.48,0,.59-.88-.1-1.76-.12-2.52-.14s-1.64,0-2.52.14c0-.11,0-.29,0-.59v-.15c0-.13,0-.26,0-.41S641.48,347.66,641.48,347.43Zm-1,0H641c0,.27,0,.59,0,.88v.35c0,.07,0,.19,0,.32s0,.32,0,.41l-.47.07C640.57,348.85,640.52,348.12,640.44,347.44Zm8.5,2.91a4,4,0,0,1,2,1.47,6.52,6.52,0,0,1,.79,2.45c.28,1.73.46,5.59.5,6.82-2.37,0-4.78-.11-7.12-.23l-1,0-1.13.05c-2.36.12-4.59.24-6.92.22a30,30,0,0,1,.44-6.81c0-.16.06-.3.1-.44a5.89,5.89,0,0,1,.69-2,4,4,0,0,1,2-1.47,13.33,13.33,0,0,1,4.41-.65h.92A13.24,13.24,0,0,1,648.94,350.35Zm3.22,11.59a3.76,3.76,0,0,0-.07.5l-2.84,0c-1.73,0-3.47,0-5.16-.09h0c-1.68.06-3.42.09-5.16.09l-2.83,0,0-.33c0-.17,0-.35,0-.51,2.38,0,4.65-.11,7.06-.23l1-.05.87,0c2.38.12,4.85.25,7.27.24C652.19,361.71,652.18,361.83,652.16,361.94Zm-19-16.88.3.07a.21.21,0,0,0,.17.07h.09l0,0a3.51,3.51,0,0,0,.36.4l.16.17a1.68,1.68,0,0,1,.3.51,2.39,2.39,0,0,0,.27.49,2,2,0,0,0,1.52.52l.19,0c1,.07,2.1.1,3.39.11.07.68.15,1.46.16,2.13l-.18,0a5.07,5.07,0,0,0-3.17,2.09,9.61,9.61,0,0,0-1,4.18c0,.25,0,.48-.06.7-.18,1.74-.08,5.72-.06,6.11a.25.25,0,0,0,.25.24l1.12,0c1.39,0,2.84.05,4.26,0,1,0,2.07-.05,2.84-.09s1.82.08,2.86.09h.73c1.17,0,2.38,0,3.53,0l1.12,0a.25.25,0,0,0,.25-.24c0-.2.05-.55.09-.87a4.93,4.93,0,0,0,.06-.69c0-2.93-.42-8.07-1.28-9.43a5.1,5.1,0,0,0-3.17-2.09l-.18,0c0-.67.09-1.45.17-2.13,1.28,0,2.36,0,3.39-.11l.18,0a2,2,0,0,0,1.52-.52,2.39,2.39,0,0,0,.27-.49,1.68,1.68,0,0,1,.3-.51l.16-.17a4.86,4.86,0,0,0,.37-.4,0,0,0,0,1,0,0h.09a.21.21,0,0,0,.17-.07l.31-.07a.24.24,0,0,0,.16-.19.61.61,0,0,0-.09-.49.28.28,0,0,0-.06-.15.29.29,0,0,0-.18-.07H633.31a.29.29,0,0,0-.18.07.22.22,0,0,0-.06.15.66.66,0,0,0-.1.49.27.27,0,0,0,.18.19" transform="translate(-583.33 -242.9)"/><path class="cls-2" d="M649.24,328.61c.36,0,1.29,0,2.37,0s2,0,2.36,0,.88,0,1.37,0c.85,0,1.71,0,2.53-.07h0c.71,0,1.43-.05,2.16-.06a20.76,20.76,0,0,1-.68,3.88c-.14.54-.27,1.1-.39,1.66-.25,1.24-.53,2.63-1.77,3.17a11.82,11.82,0,0,1-4.25.7h-2.73a11.85,11.85,0,0,1-4.25-.7c-1.23-.54-1.52-1.94-1.77-3.18-.12-.57-.26-1.15-.38-1.67a19.52,19.52,0,0,1-.68-3.86l2.16.06h0c.83,0,1.69.07,2.53.07C648.37,328.65,648.82,328.64,649.24,328.61Zm8.67-.59h0c-.83,0-1.67.07-2.5.07s-1.37,0-2-.08c-.33,0-1.15-.05-1.82-.05s-1.5,0-1.83.05c-.6.05-1.23.08-2,.08s-1.68,0-2.51-.07h0l-1.53-.06a10.88,10.88,0,0,1,4.22-.68c.58,0,1.13,0,1.67-.09.29,0,1.06,0,2,0s1.67,0,2,0c.53.05,1.09.07,1.67.09a10.8,10.8,0,0,1,4.21.68Zm-14.6,4.54c.09.37.16.75.24,1.14a18.06,18.06,0,0,0,.52,2.08,3.28,3.28,0,0,0,1.55,1.91,9.31,9.31,0,0,0,3.51.74l.21,0c.62,0,1.26.07,2,.07h.6c.7,0,1.35,0,2-.07l.22,0a9.26,9.26,0,0,0,3.5-.74,3.29,3.29,0,0,0,1.56-1.91,19.76,19.76,0,0,0,.52-2.08c.07-.38.15-.77.24-1.14l0-.13a19,19,0,0,0,.68-4.2s0,0,0-.06a.27.27,0,0,0-.11-.25,7.23,7.23,0,0,0-3.65-1.1c-.76-.07-1.52-.11-2.27-.15h0l-1.87-.12-1.09,0-1.09,0-1.87.12h0c-.74,0-1.51.08-2.27.15a7.22,7.22,0,0,0-3.64,1.1.3.3,0,0,0-.12.25v.06a18.52,18.52,0,0,0,.69,4.21l0,.12" transform="translate(-583.33 -242.9)"/><path class="cls-2" d="M663.14,343.48c1.14.09,2.27.18,3.37.21a30.22,30.22,0,0,0,3.19-.23l.19-.06c.52,2.44,3.44,3.37,3.65,6a17.52,17.52,0,0,1,.05,1.77l0,0c-.08-.05-.09-.15-.15-.21s-.18-.11-.25-.2a.21.21,0,0,0-.25,0l-.11.05c-.12-.15-.19-.18-.47-.15s-.23-.11-.37-.08l-.16.09,0,0a.18.18,0,0,0,0-.06.22.22,0,0,0-.33-.05l-.13.07.06-1.22v0a.24.24,0,0,0-.27-.23c-3.19.6-6.44,0-9.67.1h0a.22.22,0,0,0-.26.26c.07.44.13.87.18,1.3l-.05,0c-.57.31-1.21.44-1.79.74,0-.72,0-1.43.06-2.15C659.74,346.75,662.66,346,663.14,343.48Zm-.29-3.26.3,0a3,3,0,0,0,0,1,12.13,12.13,0,0,0,.1,1.81l-.2,0a.16.16,0,0,0,0-.07,10,10,0,0,1-.15-2.73Zm.73,0a.29.29,0,0,0,0-.09h.21c0,.62,0,1.25,0,1.86a5.91,5.91,0,0,0,0,1.07l-.25,0a7.76,7.76,0,0,1-.12-1.74C663.52,341,663.41,340.56,663.58,340.27Zm.85-.12c0,.54,0,1.07,0,1.61s.12.93.15,1.41l-.26,0,0,0c.1.07,0-.32,0-.46,0-.34,0-.69,0-1,0-.49,0-1,0-1.46Zm.41,0,.32,0c0,.57.08,1.12.12,1.68s0,.95.07,1.43l-.33,0c0-.42-.1-.84-.14-1.25A15.8,15.8,0,0,1,664.84,340.13Zm1,0a9.53,9.53,0,0,1,.08,1.6c0,.53.09,1,.09,1.57l-.28,0s0,0,0,0a13.88,13.88,0,0,1-.07-1.44c0-.57-.11-1.12-.12-1.69Zm.64,0v.06a25.37,25.37,0,0,1,.23,3.14h-.29c0-.53-.05-1-.09-1.58a12.32,12.32,0,0,0-.07-1.61Zm.7,0c.06,1.07.18,2.13.18,3.2h-.23a28.53,28.53,0,0,0-.24-3.2Zm.6,0c.08,1,0,2.12.17,3.17h-.18c0-1.06-.12-2.12-.17-3.18Zm.64,0a3.78,3.78,0,0,1,0,1.3c0,.58.19,1.14.17,1.74a.07.07,0,0,0,0,.06l-.27,0s0,0,0,0c-.13-1-.09-2.08-.17-3.11h.23Zm.67,0a4.65,4.65,0,0,0,0,1.29c0,.58,0,1.14.13,1.71l-.2,0c0-.63-.16-1.24-.16-1.87a5,5,0,0,0,0-1.16Zm.43,0h.07c0,.47.11.93.17,1.4,0,.29.07.57.09.86l0,.39c0,.12-.07.24.05.15s0,0,0,0l-.26.07c-.09-.54-.07-1.09-.11-1.63A4.23,4.23,0,0,1,669.55,340Zm.64,0a12.63,12.63,0,0,0,.29,2.6.59.59,0,0,1-.14.06,5.36,5.36,0,0,0-.07-.78c-.07-.63-.18-1.26-.23-1.89Zm.62.13a3.48,3.48,0,0,1,.12,2,.48.48,0,0,1-.09.19,11.1,11.1,0,0,1-.23-2.23A.57.57,0,0,1,670.81,340.2Zm2.78,11.33a.09.09,0,0,0-.07,0,3.81,3.81,0,0,1-2.33.93c0-.49.07-1,.1-1.48h.05l.19-.05c.14.15.3.11.52,0a1,1,0,0,0,.43,0l.14.18a.23.23,0,0,0,.26,0l.09-.07a2.19,2.19,0,0,0,.39.36.16.16,0,0,0,.23,0Zm-10.88,6.62-.24-.15a3.43,3.43,0,0,0-.06-.84.51.51,0,0,0,0-.13h.14s0,0,0,.05C662.59,357.43,662.62,357.8,662.71,358.15Zm.68.28-.2-.08a.15.15,0,0,0,0-.11,7,7,0,0,1-.24-1.21h.12a.13.13,0,0,0,0,.06,4.63,4.63,0,0,1,.21.91A2.83,2.83,0,0,0,663.39,358.43Zm.4-.1c.05,0,0,0,0,0a.75.75,0,0,0,0-.16,2.7,2.7,0,0,1-.08-.39,3.9,3.9,0,0,0-.18-.75l.42,0a9,9,0,0,0,.11,1c0,.17,0,.42.08.63l-.21-.05A.19.19,0,0,0,663.79,358.33Zm1,.41-.21,0a.19.19,0,0,0-.07-.14c0-.09,0-.23,0-.26s-.05-.29-.07-.43a8,8,0,0,1-.09-1l.25,0C664.73,357.46,664.58,358.17,664.8,358.74Zm.77.08-.28,0s0,0,0,0a2.31,2.31,0,0,1-.18-1.05,3.8,3.8,0,0,0-.11-.89l.35,0A11.71,11.71,0,0,1,665.57,358.82Zm.68.05-.26,0a18.84,18.84,0,0,0-.24-2.12l.21,0c.09.47.13,1,.19,1.41A3.88,3.88,0,0,0,666.25,358.87Zm.42-.11c0-.08,0-.16,0-.25,0-.26-.07-.52-.1-.78s-.08-.7-.14-1.05l.41,0v0c0,.75.15,1.48.15,2.23h-.21l0-.07h0a.1.1,0,0,0-.06-.05.1.1,0,0,1,.06,0S666.68,358.8,666.67,358.76Zm.69.14c0-.75-.14-1.48-.16-2.22v0h.29v0a7.63,7.63,0,0,1,0,1.17c0,.36.1.71.12,1.06h-.29v0Zm.55-2.22.29,0c0,.74.06,1.49.07,2.24h-.21c0-.4-.1-.8-.12-1.2S668,357,667.91,356.68Zm.93,2.22h-.16c0-.73,0-1.46-.07-2.18h.33A13,13,0,0,0,668.84,358.9Zm.65-.15-.23.07a12.87,12.87,0,0,1,.09-2.06h.15a10.62,10.62,0,0,1,0,1.87A.13.13,0,0,0,669.49,358.75Zm.54-.24-.14.08a10,10,0,0,0,0-1.81h.2c0,.56-.09,1.12-.09,1.68C670,358.48,670,358.49,670,358.51Zm.41-.28c0-.49.07-1,.09-1.46h.06A4.06,4.06,0,0,1,670.44,358.23Zm.15-6.32s0,0,0,0c.11-.65.23-1.3.32-2,0,.67-.08,1.33-.13,2h-.2Zm-.45-1.17a4.16,4.16,0,0,1,.24-1.1h0l.17,0c-.1.72-.22,1.44-.35,2.17a.22.22,0,0,0,0,.14H670a.2.2,0,0,0,0-.11A4.25,4.25,0,0,1,670.14,350.74Zm-.6.45a5.33,5.33,0,0,1,.12-1.49l.27,0a6.15,6.15,0,0,0-.19.95,4.67,4.67,0,0,0-.09,1.18.43.43,0,0,0,.05.12h-.19A3.73,3.73,0,0,0,669.54,351.19Zm-.65-1.43.32,0a10,10,0,0,0-.09,1.23c0,.24.09.71,0,.91a.14.14,0,0,0,0,.06h-.24a11.6,11.6,0,0,1,.07-2.12S668.89,349.78,668.89,349.76ZM668.4,352h-.16a11.32,11.32,0,0,1,0-2.18h.2A13.21,13.21,0,0,0,668.4,352Zm-.58,0h-.23c0-.35.06-.69.06-1s-.1-.76-.11-1.16h.33A13.33,13.33,0,0,0,667.82,352Zm-1-2.2h.25c0,.44.1.88.11,1.32s-.06.59,0,.89h-.32C667,351.25,666.79,350.51,666.87,349.77Zm-.42,2.21s0,0,0,0h-.21c0-.76-.07-1.51-.1-2.26h.32C666.4,350.5,666.57,351.24,666.45,352Zm-1.09-2.26h.36c0,.76.11,1.52.1,2.28h-.24v0A12.28,12.28,0,0,1,665.36,349.72Zm-.66,0h.24a12.94,12.94,0,0,0,.23,2.32h-.49C664.69,351.24,664.75,350.46,664.7,349.69Zm-.73,0h.31c.06.78,0,1.56,0,2.34H664a.2.2,0,0,0,0-.13A3,3,0,0,1,664,351,11.1,11.1,0,0,0,664,349.66Zm-.73,0h.32c0,.51,0,1,0,1.52a2.06,2.06,0,0,0,0,.82h-.24a.14.14,0,0,0,0-.09A21.07,21.07,0,0,1,663.24,349.63Zm7.52,2.7q-.1,1.17-.12,2.34c0,.56,0,1.12,0,1.68-1.23.08-2.47-.09-3.7-.11h0a7.71,7.71,0,0,1-1.18.07h0a23.71,23.71,0,0,1-3.37.3c-.09-.69-.15-1.39-.21-2.09s-.13-1.49-.21-2.24h0A72.4,72.4,0,0,0,670.76,352.33Zm-7.88-.39h-.29a.24.24,0,0,0-.05-.14s0-.29,0-.36c0-.23,0-.46,0-.69a7.09,7.09,0,0,1,0-1.13h.37A22.32,22.32,0,0,0,662.88,351.94Zm-.82-1.09a3.75,3.75,0,0,0,.08,1l-.22,0h0c-.08-.75-.17-1.5-.29-2.25H662A10.26,10.26,0,0,0,662.06,350.85Zm-2.29,1c.52-.25,1.09-.39,1.6-.65.06.42.1.85.14,1.28a.22.22,0,0,0-.3-.11v0a.21.21,0,0,0-.28-.07c-.18.08-.18,0-.3-.12a.2.2,0,0,0-.25,0h0a.36.36,0,0,0-.35-.08l0-.1A.21.21,0,0,0,659.77,351.85Zm13.77.82a.3.3,0,0,0-.31-.29h0a.32.32,0,0,0,0,.63h0a.28.28,0,0,0,.3-.25c0,.34,0,.67-.08,1a.31.31,0,0,0-.23.26.28.28,0,0,0-.23-.1h0a.3.3,0,0,0-.29.38h0a.21.21,0,0,0,0,.41h0a.2.2,0,0,0,.2-.17H673a.28.28,0,0,0,.3-.26.21.21,0,0,0,.11.07c0,.21,0,.41-.06.63a.28.28,0,0,0-.18-.06.31.31,0,0,0,0,.62.18.18,0,0,0,.12,0c-.06.59-.11,1.17-.16,1.74a.31.31,0,0,0-.17,0,.31.31,0,0,0,0,.62.22.22,0,0,0,.12,0c0,.24,0,.49-.05.73a.28.28,0,0,0-.26-.17.32.32,0,0,0,0,.63.28.28,0,0,0,.24-.12c0,.29,0,.59,0,.88a1.56,1.56,0,0,1-.48.76.29.29,0,0,0-.3-.29.32.32,0,0,0-.1.61l-.39.22a.42.42,0,0,0,0-.16.3.3,0,0,0-.11-.24.32.32,0,0,0-.24-.11.31.31,0,0,0-.31.31v.06a.3.3,0,0,0-.43,0,.38.38,0,0,0-.13.3.33.33,0,0,0,.12.25l-.63.17,0,0a.31.31,0,0,0-.44-.44.28.28,0,0,0-.22-.09h-.06a.24.24,0,0,0-.19.08.22.22,0,0,0-.18-.31.21.21,0,0,0,0,.42.18.18,0,0,0,.11,0,.32.32,0,0,0,.26.48h.06a.29.29,0,0,0,.17-.05.24.24,0,0,0,.11.06,14.66,14.66,0,0,1-1.69.23.32.32,0,0,0,.28-.44.18.18,0,0,0,.06-.15v-.05a.21.21,0,0,0-.42,0v0a.32.32,0,0,0,.08.62,19.55,19.55,0,0,1-2.17,0,.31.31,0,1,0-.42,0l-.55,0a.34.34,0,0,0,0-.35.32.32,0,0,0-.07-.62h0a.32.32,0,0,0-.28.45.32.32,0,0,0-.19.46c-.36-.05-.72-.11-1.06-.18a.29.29,0,0,0,.2-.28v-.06a.32.32,0,0,0-.63,0v.06a.32.32,0,0,0,.07.2,6,6,0,0,1-2-.84.31.31,0,0,0-.16-.57h-.05a.29.29,0,0,0-.26.15,1.72,1.72,0,0,1-.31-.58c0-.94-.08-1.88-.17-2.83a.28.28,0,0,0,.18.06.32.32,0,0,0,0-.63.32.32,0,0,0-.22.1l-.15-1.39.13,0a.29.29,0,0,0,.24-.12.24.24,0,0,0,.08-.09h.13a.31.31,0,0,0,0-.62h-.05a.28.28,0,0,0-.28.17l-.08,0a.39.39,0,0,0-.22.08l-.06-.67a.29.29,0,0,0,.28-.3v0a.3.3,0,0,0-.33-.3c0-.31-.05-.61-.06-.92a.32.32,0,0,0,.14,0s0,0,0,.07a.25.25,0,0,0,0,.07.31.31,0,0,0,.16.58H660a.31.31,0,0,0,.27-.46l0,0a.19.19,0,0,0,.19,0,.57.57,0,0,0,.21.12.33.33,0,0,0,.12.48h0a.31.31,0,0,0,0,.62h0a.29.29,0,0,0,.27-.15.2.2,0,0,0,.13.18.32.32,0,0,0,.09.62h0a.32.32,0,0,0,.08-.62.21.21,0,0,0-.07-.4h-.07a.19.19,0,0,0-.17.09.28.28,0,0,0-.18-.32h0a.29.29,0,0,0,.29-.3.19.19,0,0,0,.11-.05l.14.05h.09c0,.41.07.81.12,1.21.05.6.1,1.19.16,1.8a.28.28,0,0,0-.24-.11.29.29,0,0,0-.28.2.32.32,0,0,0,0,.63.29.29,0,0,0,.28-.2.29.29,0,0,0,.26-.15c0,.05,0,.12,0,.17,0,.24.06.61.1.93a.29.29,0,0,0-.29-.21h0l-.12,0a.2.2,0,0,0-.2-.23.21.21,0,0,0-.13.05h0a.33.33,0,0,0-.32.32.36.36,0,0,0,.36.36.23.23,0,0,0,.16-.06l0,.06a.3.3,0,0,0,.28.43.31.31,0,0,0,.26-.47.28.28,0,0,0,0-.13c0,.35.06.64.06.64a9.2,9.2,0,0,0,4.63,1.16h.19a.31.31,0,1,0,.33,0c.36,0,.74,0,1.12,0a.32.32,0,1,0,.05,0,3.76,3.76,0,0,0,2.11-.58l.11,0c.39-.26.49-1,.5-1.73a.32.32,0,0,0,.55-.2v0a.32.32,0,0,0-.55-.21c0-.42,0-.8,0-1,0-.65.05-1.31.08-2a.32.32,0,0,0,.41.22.27.27,0,0,0,.22.09h0a.27.27,0,0,0,.25-.13.29.29,0,0,0,.3.29h0a.31.31,0,0,0,0-.62h0a.3.3,0,0,0-.25.13.29.29,0,0,0-.3-.29h-.12a.33.33,0,0,0-.54.07c0-.11,0-.23,0-.34a4.11,4.11,0,0,0,2.41-.87Zm-2.42,8.64h0a.24.24,0,0,0,0-.2.35.35,0,0,0,.2.1Zm-8.93-21.06h.25a10.1,10.1,0,0,0,.15,2.8C661.85,342.91,662.09,340.87,662.19,340.25ZM660,347a4.36,4.36,0,0,0-.92,2.39c-.4,3.52.61,10.75.67,10.78,1,3,12.48,3,13.5,0a.19.19,0,0,0,.09-.17c0-3.51,1-7.09.58-10.61A4.44,4.44,0,0,0,673,347c-1-1.21-2.47-2.08-2.75-3.73a1.54,1.54,0,0,0,1.07-1.1,5.6,5.6,0,0,0,0-1.53,1.12,1.12,0,0,0-.49-1c-.14-.09-6,0-8.78.18a.24.24,0,0,0-.16.09.18.18,0,0,0-.11.14c-.15.84-.37,3.56,1,3.35C662.41,345,661,345.81,660,347" transform="translate(-583.33 -242.9)"/><path class="cls-2" d="M660.48,353.84h-.1a.21.21,0,0,0,0,.41h.1a.21.21,0,0,0,0-.41" transform="translate(-583.33 -242.9)"/><path class="cls-2" d="M660.83,356.27h-.05a.21.21,0,0,0,0,.42h.05a.21.21,0,0,0,0-.42" transform="translate(-583.33 -242.9)"/><path class="cls-2" d="M660.62,357.94a.3.3,0,0,0-.25.09l0,0a.3.3,0,0,0,0,.43.31.31,0,0,0,.45,0l0,0a.31.31,0,0,0,.09-.19l.07-.06a.21.21,0,0,0-.19-.35.17.17,0,0,0-.16.07" transform="translate(-583.33 -242.9)"/><path class="cls-2" d="M660.69,356a.28.28,0,0,0,.09-.26.27.27,0,0,0-.06-.21h.06a.19.19,0,0,0,.19-.22.32.32,0,0,0,.54-.22v0a.31.31,0,0,0-.62,0v.1a.21.21,0,0,0-.11,0,.2.2,0,0,0-.19.29.33.33,0,0,0-.34.07.36.36,0,0,0,0,.52.31.31,0,0,0,.44,0" transform="translate(-583.33 -242.9)"/><path class="cls-2" d="M660.13,353.29a.21.21,0,0,0,0,.42.21.21,0,0,0,0-.42" transform="translate(-583.33 -242.9)"/><path class="cls-2" d="M671.88,354.25a.21.21,0,0,0,0-.41.21.21,0,0,0,0,.41" transform="translate(-583.33 -242.9)"/><path class="cls-2" d="M672.87,353.46a.21.21,0,0,0,0-.42.21.21,0,0,0,0,.42" transform="translate(-583.33 -242.9)"/><path class="cls-2" d="M672.67,355.65a.21.21,0,0,0,0-.42.21.21,0,0,0,0,.42" transform="translate(-583.33 -242.9)"/><path class="cls-2" d="M671.73,356.24a.21.21,0,0,0,.12-.38.29.29,0,0,0-.3-.26.32.32,0,0,0,0,.63h.09l.09,0" transform="translate(-583.33 -242.9)"/><path class="cls-2" d="M672.22,357.56v0a.27.27,0,0,0-.09-.22.2.2,0,0,0-.2-.23.2.2,0,0,0-.2.21.26.26,0,0,0-.13.24v0a.31.31,0,0,0,.62,0" transform="translate(-583.33 -242.9)"/><path class="cls-2" d="M672.67,356.67a.25.25,0,0,0-.15.06h0a.31.31,0,0,0,0,.62.3.3,0,0,0,.31-.29.21.21,0,0,0-.11-.39" transform="translate(-583.33 -242.9)"/><path class="cls-2" d="M671.73,360.05a.19.19,0,0,0-.15.06h0v0a.32.32,0,0,0-.09-.23.3.3,0,0,0-.44,0,.32.32,0,0,0-.12.25.33.33,0,0,0,.23.31h.11a.32.32,0,0,0,.26-.15.2.2,0,0,0,.2.2.21.21,0,0,0,0-.41" transform="translate(-583.33 -242.9)"/><path class="cls-2" d="M670.89,359.35a.11.11,0,0,0,0-.05v-.05a.32.32,0,0,0-.63,0v.05a.31.31,0,0,0,.42.28.2.2,0,0,0,.2.19.21.21,0,0,0,0-.42" transform="translate(-583.33 -242.9)"/><path class="cls-2" d="M667.26,360.31v.05a.21.21,0,0,0,.42,0v-.05a.21.21,0,0,0-.42,0" transform="translate(-583.33 -242.9)"/><path class="cls-2" d="M664.3,360.35a.32.32,0,0,0-.25-.12h0a.25.25,0,0,0-.15,0,.29.29,0,0,0-.3-.32.32.32,0,0,0,0,.63.26.26,0,0,0,.14,0,.29.29,0,0,0,.31.31h0a.28.28,0,0,0,.29-.25.21.21,0,0,0,.36-.14v-.06a.2.2,0,0,0-.4,0" transform="translate(-583.33 -242.9)"/><path class="cls-2" d="M663.6,360.8h-.05a.21.21,0,0,0,0,.41h.05a.21.21,0,0,0,0-.41" transform="translate(-583.33 -242.9)"/><path class="cls-2" d="M661.91,359.26h0a.31.31,0,0,0,0,.62h0a.27.27,0,0,0,.28-.19.38.38,0,0,0,.16,0,.31.31,0,0,0,0-.62h-.1a.21.21,0,0,0-.15-.06.2.2,0,0,0-.2.21" transform="translate(-583.33 -242.9)"/><path class="cls-2" d="M661.07,359.46a.21.21,0,0,0-.15-.06.2.2,0,0,0-.2.21.33.33,0,0,0,0,.43.33.33,0,0,0,.45,0s0,0,.05-.06a.31.31,0,0,0,0-.44.35.35,0,0,0-.16-.08" transform="translate(-583.33 -242.9)"/><path class="cls-2" d="M663.41,359.76a.22.22,0,0,0,.35-.12.25.25,0,0,0,.2.08.31.31,0,0,0,0-.62.29.29,0,0,0-.29.33.4.4,0,0,0-.23-.12.2.2,0,0,0-.2.15.26.26,0,0,0,0,.21.19.19,0,0,0,.14.09" transform="translate(-583.33 -242.9)"/><path class="cls-2" d="M666.08,360.51a.21.21,0,0,0,0-.41.21.21,0,0,0,0,.41" transform="translate(-583.33 -242.9)"/><path class="cls-2" d="M669.71,360.06V360a.2.2,0,0,0-.31-.17.3.3,0,0,0-.3-.25H669a.32.32,0,0,0,0,.63h.08a.3.3,0,0,0,.2-.07.21.21,0,0,0,.41,0" transform="translate(-583.33 -242.9)"/><path class="cls-2" d="M670.59,360.41a.21.21,0,1,0-.29.29l0,.05c.19.19.49-.1.3-.29l0,0" transform="translate(-583.33 -242.9)"/><path class="cls-2" d="M671.83,351.6h-.05a.21.21,0,0,0,0,.41h.05a.21.21,0,0,0,0-.41" transform="translate(-583.33 -242.9)"/><path class="cls-2" d="M672.52,351.3a.21.21,0,0,0,0,.42.21.21,0,0,0,0-.42" transform="translate(-583.33 -242.9)"/><path class="cls-2" d="M660.78,352a.21.21,0,0,0,0-.41.21.21,0,0,0,0,.41" transform="translate(-583.33 -242.9)"/><path class="cls-2" d="M672.39,357.81a.28.28,0,0,0-.28.21.22.22,0,0,0-.12.29.3.3,0,0,0-.35.3v0a.09.09,0,0,0,0,.05h0a.31.31,0,0,0,0,.62h0a.31.31,0,0,0,.3-.37.3.3,0,0,0,.3-.3v0a.29.29,0,0,0-.07-.19h0a.32.32,0,0,0,.14,0,.32.32,0,0,0,0-.63" transform="translate(-583.33 -242.9)"/><path class="cls-2" d="M672,359.41v0a.29.29,0,0,0,.27.3.31.31,0,1,0,.3-.12.35.35,0,0,0,0-.18v0a.31.31,0,0,0-.62,0" transform="translate(-583.33 -242.9)"/><path class="cls-2" d="M672.35,356.63a.31.31,0,0,0,.3-.38.28.28,0,0,0,.18.06h0a.32.32,0,0,0,0-.63h0a.3.3,0,0,0-.29.38.36.36,0,0,0-.19-.06.32.32,0,0,0,0,.63" transform="translate(-583.33 -242.9)"/><path class="cls-2" d="M661.72,359.08a.32.32,0,0,0,0-.63.3.3,0,0,1-.56.17.31.31,0,0,0,0,.62.3.3,0,0,0,.3-.3.29.29,0,0,0,.26.14" transform="translate(-583.33 -242.9)"/><path class="cls-2" d="M662.92,359.71h0a.32.32,0,0,0-.14.59.23.23,0,0,0-.11.11.2.2,0,0,0-.11,0h0a.3.3,0,0,1-.56,0,.21.21,0,0,0-.06-.38.28.28,0,0,0-.2-.05.21.21,0,0,0-.14.26.26.26,0,0,0,.24.2.31.31,0,0,0,.11.6h0a.3.3,0,0,1,.56,0h0a.28.28,0,0,0,.26-.14.29.29,0,0,0,.1,0,.32.32,0,0,0,.16-.59.31.31,0,0,0-.12-.6" transform="translate(-583.33 -242.9)"/><path class="cls-2" d="M667.29,361.23a.34.34,0,0,0-.09-.38.32.32,0,0,0-.27-.47.26.26,0,0,0-.14.05.32.32,0,0,0-.57.19v0a.31.31,0,0,0,.49.25l0,0a.36.36,0,0,0,0,.21.31.31,0,0,0-.45.18.19.19,0,0,0-.19-.15.21.21,0,0,0-.12,0,.31.31,0,0,0-.14-.55.51.51,0,0,0,0-.13v-.05a.3.3,0,0,1,0-.56v0a.32.32,0,0,0-.63,0v0a.28.28,0,0,0,.17.27.29.29,0,0,0-.21.29v.05a.28.28,0,0,0,.24.29.31.31,0,0,0,.27.45h0a.27.27,0,0,0,.18-.05.21.21,0,0,0,.13.37.22.22,0,0,0,.19-.13.31.31,0,0,0,.62,0v-.08l.05,0a.31.31,0,0,0,.27.45h0a.32.32,0,0,0,0-.63" transform="translate(-583.33 -242.9)"/><path class="cls-2" d="M664.85,359.61a.31.31,0,0,0-.28-.43.75.75,0,1,0,.28.43" transform="translate(-583.33 -242.9)"/><path class="cls-2" d="M668.46,360.26a.31.31,0,0,0-.24.12l0,0a.27.27,0,0,0-.22-.09.31.31,0,0,0,0,.62.27.27,0,0,0,.22-.09.29.29,0,0,0,.22.09.34.34,0,0,0,.35-.35.31.31,0,0,0-.31-.32" transform="translate(-583.33 -242.9)"/><path class="cls-2" d="M669.43,360.66v0a.32.32,0,0,0,.63,0v0a.32.32,0,0,0-.63,0" transform="translate(-583.33 -242.9)"/><path class="cls-2" d="M670.58,360v0a.32.32,0,0,0-.63,0v0a.32.32,0,0,0,.63,0" transform="translate(-583.33 -242.9)"/><path class="cls-2" d="M671.27,358.36a.32.32,0,0,0,0-.63.32.32,0,0,0,0,.63" transform="translate(-583.33 -242.9)"/><path class="cls-2" d="M671.43,354.86a.25.25,0,0,0,.13,0,.31.31,0,0,0,.09.18.31.31,0,1,0,.31.07.29.29,0,0,0,.22-.29v-.08a.31.31,0,0,0-.47-.27.28.28,0,0,0-.28-.21h0a.32.32,0,0,0,0,.63h0" transform="translate(-583.33 -242.9)"/><path class="cls-2" d="M660.47,357.59a.31.31,0,0,0,0-.62.31.31,0,0,0,0,.62" transform="translate(-583.33 -242.9)"/><path class="cls-2" d="M660.44,358.86a.31.31,0,0,0,0,.62.31.31,0,0,0,0-.62" transform="translate(-583.33 -242.9)"/><path class="cls-2" d="M662.84,359.28a.31.31,0,0,0,0-.62.31.31,0,0,0,0,.62" transform="translate(-583.33 -242.9)"/><path class="cls-2" d="M606.56,332.88h0l.21-.05a2.54,2.54,0,0,1,1-1.15l0,.17q.61,1.26,1.07,13.08v1l0,.51q.12.06.12.12a.34.34,0,0,0,.34-.21V345c0-1.42-.11-3.6-.34-6.56q-.3-7.24-1.19-7.25h-.13c-.8.61-1.24,1.11-1.31,1.5.07.11.13.17.17.17" transform="translate(-583.33 -242.9)"/><path class="cls-2" d="M613.43,345.9v-.18c-.07-.11-.13-.17-.16-.17h-.18a1,1,0,0,0-.29.39v.12c0,.06.08.12.21.17s.25-.11.42-.33" transform="translate(-583.33 -242.9)"/><path class="cls-2" d="M631.57,402.44c1.63-.12,3.29-.14,4.89-.15l1.95,0c1.23,0,2.49-.1,3.71-.17,1.47-.1,3-.19,4.49-.19a24.31,24.31,0,0,1,3.78.26,8.41,8.41,0,0,0-.7,2.8c0,.12,0,.24,0,.36,0,.7,0,1.35-.65,1.66a9.56,9.56,0,0,1-2.95.68l-.66.09a35,35,0,0,1-4.55.34h-.39a27.12,27.12,0,0,1-15.34-4.36A18.88,18.88,0,0,1,631.57,402.44Zm18.87,1.32a9.16,9.16,0,0,1,.54-1.52l.41,0a8.49,8.49,0,0,1-.12,1.08l0,.1c0,.21-.08.42-.1.63a1.16,1.16,0,0,1-.27,0h-.06a.76.76,0,0,1-.42-.13A1.7,1.7,0,0,1,650.44,403.76Zm1.37-.13a5,5,0,0,0,.12-1.45v-.05c0-.38,0-.75.19-.91a.79.79,0,0,1,.37-.07h.22a5.92,5.92,0,0,1,.93.12l.41.07a27.37,27.37,0,0,0,3.25.26l1.2.07.54,0a5.31,5.31,0,0,1,3.34.87,2.56,2.56,0,0,1,.1,3.33,1.13,1.13,0,0,1-.89.33h-.05a1.06,1.06,0,0,0,.68-.67.68.68,0,0,0-.18-.69l0-.05a1,1,0,0,0-.47-.29.56.56,0,0,0-.21,0,.48.48,0,0,0-.2.05.71.71,0,0,0-.31.16,1,1,0,0,0-.32,1,.74.74,0,0,0,.24.45l-.78-.25-.11,0-.76-.28a8,8,0,0,0-1.86-.55l-1.31-.13c-.53-.05-1.06-.09-1.59-.16l-.14,0a3.92,3.92,0,0,1-2.39-.86Zm9.54,2-.14,0c-.1,0-.13,0-.14-.07a.53.53,0,0,1,0-.39.29.29,0,0,1,.27-.13h0c.13.06.29.17.27.28A.49.49,0,0,1,661.35,405.67Zm-20.7,3h.64a35.51,35.51,0,0,0,4.43-.38l.46-.06a10.61,10.61,0,0,0,3.22-.78,1.82,1.82,0,0,0,.84-1.72c0-.13,0-.27,0-.4s0-.5.05-.75a1.73,1.73,0,0,0,1.17,0,.24.24,0,0,0,.15-.09,4.82,4.82,0,0,0,2.16.72l.15,0c.52.09,1.06.12,1.58.16a15,15,0,0,1,1.89.22,9.33,9.33,0,0,1,1.34.46,8.07,8.07,0,0,0,2.73.74,1.8,1.8,0,0,0,1.74-1,3.16,3.16,0,0,0-.15-3.29c-.88-1.12-2.21-1.23-3.5-1.33h-.19c-.67-.06-1.34-.09-2-.12-1.08,0-2.2-.11-3.29-.26l-.42-.08a5.61,5.61,0,0,0-1.1-.15,1.13,1.13,0,0,0-1.11.56,1,1,0,0,0-.1.53l-.69,0h-.06a26.25,26.25,0,0,0-4.06-.29c-1.53,0-3.09.1-4.59.19-1.23.08-2.51.16-3.76.18l-1.79,0c-1.74,0-3.54,0-5.31.19a17.43,17.43,0,0,0-6.69,1.53.28.28,0,0,0-.15.24.33.33,0,0,0,.12.27c4.21,3.06,10,4.75,16.26,4.75" transform="translate(-583.33 -242.9)"/><path class="cls-2" d="M682.71,407.34c-.77,0-1.53,0-2.18.09-1.43.1-2.75.17-4,.2s-2.6-.1-4-.2c-.65-.05-1.41-.09-2.19-.09a12.93,12.93,0,0,0-3,.31.42.42,0,0,1,.05-.25.85.85,0,0,1,.58-.31,13.27,13.27,0,0,1,2.54-.21c1,0,2.14.08,3.2.15s1.92.12,2.84.13,1.9-.08,2.84-.13,2.16-.15,3.19-.15a13.38,13.38,0,0,1,2.55.21.85.85,0,0,1,.58.31.42.42,0,0,1,.05.25A13,13,0,0,0,682.71,407.34Zm-14.07-2.69c.22-.84.44-1.75.65-2.8.33-1.59.61-3.28.9-5.49.15-1.14.3-2.31.43-3.43.31-2.5.62-5.09,1.08-7.62.75,0,1.52,0,2.25,0s1.62,0,2.42,0h.28c.8,0,1.62,0,2.41,0s1.51,0,2.26,0c.46,2.53.77,5.12,1.08,7.62.13,1.12.28,2.29.42,3.43.3,2.21.58,3.9.91,5.49.21,1,.43,2,.66,2.8s.41,1.44.64,2.08a14.34,14.34,0,0,0-2.75-.23c-1,0-2,.07-2.93.13-.79.05-1.61.1-2.4.12h-.88c-.8,0-1.61-.07-2.4-.12-1-.06-1.95-.13-2.93-.13a14.2,14.2,0,0,0-2.75.23C668.22,406.09,668.44,405.39,668.64,404.65Zm10.47-21.4a3.39,3.39,0,0,1-.08.92,4.52,4.52,0,0,0-.12.7l-2.22,0h-.36l-2.22,0a4.52,4.52,0,0,0-.12-.7,3.39,3.39,0,0,1-.08-.92,1.78,1.78,0,0,1,1-1.64,4.13,4.13,0,0,1,3.14,0A1.77,1.77,0,0,1,679.11,383.25Zm-6.22-2.18c.58-.87,2.08-1.21,3.18-1.24H677c1.1,0,2.6.37,3.18,1.24a3.49,3.49,0,0,1,.6,2.35,5.69,5.69,0,0,1,0,.79,6.06,6.06,0,0,0-.05.7l-1.33,0c0-.15,0-.32.07-.5a5.74,5.74,0,0,0,.1-1.53,2.19,2.19,0,0,0-1.21-1.6,4.25,4.25,0,0,0-1.75-.35h0a4.27,4.27,0,0,0-1.76.35,2.23,2.23,0,0,0-1.22,1.6,6.28,6.28,0,0,0,.11,1.53c0,.18.05.35.07.5l-1.33,0a6.06,6.06,0,0,0,0-.7,5.69,5.69,0,0,1,0-.79A3.49,3.49,0,0,1,672.89,381.07Zm12.56,25.71c0-.14-.11-.42-.32-1.07-.15-.47-.31-1-.4-1.34-.25-.92-.46-1.86-.64-2.77-.33-1.66-.63-3.44-.9-5.6q-.21-1.56-.39-3.12c-.32-2.57-.64-5.22-1.11-7.81a.18.18,0,0,0-.22-.15H681c0-.41,0-.62.05-.83a6.21,6.21,0,0,0,0-1.1,3.11,3.11,0,0,0-.73-2.22,4.51,4.51,0,0,0-3.18-1.33H675.8a4.49,4.49,0,0,0-3.18,1.33,3.11,3.11,0,0,0-.73,2.22,6.21,6.21,0,0,0,0,1.1c0,.21,0,.42.05.83h-.43a.18.18,0,0,0-.22.15c-.47,2.59-.79,5.24-1.11,7.8-.12,1.05-.25,2.09-.39,3.13-.28,2.16-.57,3.93-.9,5.6-.19.91-.4,1.85-.64,2.77-.09.34-.25.87-.4,1.34a10,10,0,0,0-.32,1.07.89.89,0,0,0-.58.4.91.91,0,0,0,0,.78.22.22,0,0,0,.25.13,11.89,11.89,0,0,1,3.09-.35c.87,0,1.75.06,2.65.13s2.13.12,3.58.17,2.53-.1,3.56-.17,1.78-.13,2.64-.13a12,12,0,0,1,3.1.35h0a.21.21,0,0,0,.2-.13,1,1,0,0,0,0-.78.91.91,0,0,0-.58-.4" transform="translate(-583.33 -242.9)"/><path class="cls-2" d="M673.2,387.48h0a.37.37,0,0,1,.14,0h0c.17.05.19.29.19.49l0,.05a.55.55,0,0,1-.52.4.3.3,0,0,1-.31-.25l0,0C672.76,387.83,672.92,387.48,673.2,387.48Zm.1,1.36a.37.37,0,0,1-.43-.13.82.82,0,0,0,.64-.1A.37.37,0,0,1,673.3,388.84Zm-.51.2a1,1,0,0,0,.41.12c.45,0,.7-.53.71-1s-.15-.89-.52-.9a.67.67,0,0,0-.85.54c-.12.37-.16,1,.25,1.28" transform="translate(-583.33 -242.9)"/><path class="cls-2" d="M674.91,387.48h0a.37.37,0,0,1,.14,0h0c.17.05.2.29.2.49l0,.05a.57.57,0,0,1-.53.4.31.31,0,0,1-.31-.25v0C674.46,387.83,674.62,387.48,674.91,387.48Zm.1,1.36a.37.37,0,0,1-.43-.13.79.79,0,0,0,.63-.1A.36.36,0,0,1,675,388.84Zm-.51.2a1,1,0,0,0,.41.12c.45,0,.7-.53.71-1s-.15-.89-.53-.9-.7.09-.85.54-.15,1,.26,1.28" transform="translate(-583.33 -242.9)"/><path class="cls-2" d="M676.62,387.48h0a.37.37,0,0,1,.14,0h0c.16.05.19.29.19.49l0,.05a.57.57,0,0,1-.53.4.31.31,0,0,1-.31-.25v0C676.17,387.83,676.33,387.48,676.62,387.48Zm.1,1.36a.39.39,0,0,1-.43-.13.8.8,0,0,0,.63-.1A.35.35,0,0,1,676.72,388.84Zm-.51.2a.92.92,0,0,0,.4.12c.46,0,.71-.53.72-1s-.15-.89-.52-.9a.67.67,0,0,0-.86.54c-.12.37-.15,1,.26,1.28" transform="translate(-583.33 -242.9)"/><path class="cls-2" d="M678.32,387.48h0a.37.37,0,0,1,.14,0h0c.17.05.2.29.19.49,0,0,0,0,0,.05a.55.55,0,0,1-.52.4.31.31,0,0,1-.31-.25l0,0C677.88,387.83,678,387.48,678.32,387.48Zm.11,1.36a.37.37,0,0,1-.43-.13.82.82,0,0,0,.64-.1A.4.4,0,0,1,678.43,388.84Zm-.51.2a.92.92,0,0,0,.4.12c.46,0,.71-.53.72-1s-.15-.89-.52-.9a.67.67,0,0,0-.86.54c-.12.37-.15,1,.26,1.28" transform="translate(-583.33 -242.9)"/><path class="cls-2" d="M680,387.48h.05a.27.27,0,0,1,.13,0h0c.16.05.19.29.19.49,0,0,0,0,0,.05a.55.55,0,0,1-.52.4.31.31,0,0,1-.31-.25l0,0C679.59,387.83,679.75,387.48,680,387.48Zm.11,1.36a.37.37,0,0,1-.43-.13.79.79,0,0,0,.63-.1A.36.36,0,0,1,680.14,388.84Zm-.52.2a1,1,0,0,0,.41.12c.45,0,.7-.53.71-1s-.15-.89-.52-.9a.68.68,0,0,0-.86.54c-.11.37-.15,1,.26,1.28" transform="translate(-583.33 -242.9)"/><path class="cls-2" d="M672.16,389.86h.05a.26.26,0,0,1,.14,0h0c.17.05.2.29.19.5,0,0,0,0,0,.05a.55.55,0,0,1-.52.38.29.29,0,0,1-.31-.24l0,0C671.72,390.21,671.88,389.86,672.16,389.86Zm.11,1.36a.38.38,0,0,1-.43-.13.8.8,0,0,0,.63-.1A.38.38,0,0,1,672.27,391.22Zm-.51.2a.8.8,0,0,0,.4.12c.45,0,.7-.52.71-1s-.15-.88-.52-.9-.7.09-.86.54-.14,1,.27,1.28" transform="translate(-583.33 -242.9)"/><path class="cls-2" d="M673.92,389.87a.28.28,0,0,1,.14,0h0c.17.05.2.29.19.5a.08.08,0,0,0,0,.05.56.56,0,0,1-.52.38.29.29,0,0,1-.31-.24l0,0c0-.35.18-.7.46-.7Zm.05,1.35a.36.36,0,0,1-.42-.13.8.8,0,0,0,.63-.1A.35.35,0,0,1,674,391.22Zm-.77-1.08c-.11.37-.15,1,.26,1.28a.83.83,0,0,0,.41.12c.45,0,.7-.52.71-1s-.15-.88-.52-.9a.68.68,0,0,0-.86.54" transform="translate(-583.33 -242.9)"/><path class="cls-2" d="M675.63,389.87a.3.3,0,0,1,.14,0h0c.17.05.19.29.19.5a.08.08,0,0,0,0,.05.55.55,0,0,1-.52.38.28.28,0,0,1-.31-.24l0,0c0-.35.18-.7.46-.7Zm0,1.35a.37.37,0,0,1-.42-.13.8.8,0,0,0,.63-.1A.35.35,0,0,1,675.68,391.22Zm-.77-1.08c-.11.37-.14,1,.26,1.28a.83.83,0,0,0,.41.12c.45,0,.7-.52.71-1s-.15-.88-.52-.9-.71.09-.86.54" transform="translate(-583.33 -242.9)"/><path class="cls-2" d="M677.33,389.87a.26.26,0,0,1,.14,0h0c.17.05.19.29.19.5a.08.08,0,0,0,0,.05.56.56,0,0,1-.52.38.3.3,0,0,1-.32-.24v0c0-.35.18-.7.46-.7Zm.06,1.35a.37.37,0,0,1-.42-.13.77.77,0,0,0,.62-.1A.35.35,0,0,1,677.39,391.22Zm-.77-1.08c-.11.37-.15,1,.25,1.28a.9.9,0,0,0,.42.12c.45,0,.7-.52.71-1s-.15-.88-.53-.9-.7.09-.85.54" transform="translate(-583.33 -242.9)"/><path class="cls-2" d="M679.05,389.87a.24.24,0,0,1,.13,0h0c.18.05.2.29.2.5a.08.08,0,0,0,0,.05.56.56,0,0,1-.53.38.3.3,0,0,1-.31-.24v0c0-.34.16-.7.46-.7Zm.05,1.35a.38.38,0,0,1-.43-.13.8.8,0,0,0,.63-.1A.33.33,0,0,1,679.1,391.22Zm-.77-1.08c-.12.37-.15,1,.26,1.28a.8.8,0,0,0,.4.12c.46,0,.71-.52.72-1s-.15-.88-.52-.9a.67.67,0,0,0-.86.54" transform="translate(-583.33 -242.9)"/><path class="cls-2" d="M680.75,389.87a.26.26,0,0,1,.14,0h0c.16.05.19.29.18.5,0,0,0,0,0,.05a.54.54,0,0,1-.52.38.29.29,0,0,1-.31-.24l0,0c0-.35.18-.7.47-.7Zm.06,1.35a.37.37,0,0,1-.42-.13.77.77,0,0,0,.62-.1A.36.36,0,0,1,680.81,391.22Zm-.77-1.08c-.12.37-.15,1,.25,1.28a.86.86,0,0,0,.41.12c.46,0,.71-.52.72-1s-.15-.88-.52-.9a.67.67,0,0,0-.86.54" transform="translate(-583.33 -242.9)"/><path class="cls-2" d="M673.41,392.88a.57.57,0,0,1-.52.39.31.31,0,0,1-.32-.24s0,0,0,0c0-.34.17-.69.46-.69h0l.14,0h0c.16.05.2.29.19.5C673.42,392.85,673.41,392.86,673.41,392.88Zm-.29.78a.38.38,0,0,1-.42-.13.81.81,0,0,0,.62-.1A.38.38,0,0,1,673.12,393.66Zm.08-1.62c-.39-.12-.71.08-.85.54s-.15,1,.26,1.27a.83.83,0,0,0,.41.12c.45,0,.7-.52.71-1s-.15-.89-.53-.9" transform="translate(-583.33 -242.9)"/><path class="cls-2" d="M675.11,392.88a.56.56,0,0,1-.52.39.3.3,0,0,1-.31-.24s0,0,0,0c0-.34.17-.69.46-.69h0l.14,0h0c.17.05.21.29.2.5A.13.13,0,0,0,675.11,392.88Zm-.28.78a.38.38,0,0,1-.43-.13.83.83,0,0,0,.63-.1A.41.41,0,0,1,674.83,393.66Zm.08-1.62c-.39-.12-.71.08-.85.54s-.15,1,.26,1.27a.83.83,0,0,0,.4.12c.46,0,.71-.52.72-1s-.15-.89-.53-.9" transform="translate(-583.33 -242.9)"/><path class="cls-2" d="M676.82,392.88a.55.55,0,0,1-.52.39A.3.3,0,0,1,676,393l0,0c0-.33.17-.69.46-.69h.05l.14,0h0c.17.05.2.29.19.5Zm-.28.78a.39.39,0,0,1-.43-.13.83.83,0,0,0,.63-.1A.41.41,0,0,1,676.54,393.66Zm.08-1.62c-.39-.12-.71.08-.85.54s-.16,1,.26,1.27a.8.8,0,0,0,.4.12c.46,0,.71-.52.72-1s-.16-.89-.53-.9" transform="translate(-583.33 -242.9)"/><path class="cls-2" d="M678.53,392.88a.56.56,0,0,1-.52.39.3.3,0,0,1-.31-.24s0,0,0,0c0-.33.17-.69.47-.69h0a.31.31,0,0,1,.13,0h0c.17.05.2.29.2.5A.13.13,0,0,0,678.53,392.88Zm-.29.78a.38.38,0,0,1-.42-.13.88.88,0,0,0,.63-.1A.37.37,0,0,1,678.24,393.66Zm.09-1.62c-.39-.12-.71.08-.86.54s-.15,1,.26,1.27a.86.86,0,0,0,.41.12c.45,0,.7-.52.71-1s-.15-.89-.52-.9" transform="translate(-583.33 -242.9)"/><path class="cls-2" d="M680.24,392.88a.56.56,0,0,1-.53.39.29.29,0,0,1-.3-.24l0,0c0-.34.18-.69.46-.69h0l.13,0h0c.16.05.2.29.19.5C680.25,392.85,680.24,392.86,680.24,392.88Zm-.29.78a.37.37,0,0,1-.42-.13.85.85,0,0,0,.63-.1A.4.4,0,0,1,680,393.66ZM680,392c-.39-.12-.71.08-.85.54s-.15,1,.25,1.27a.83.83,0,0,0,.41.12c.45,0,.7-.52.71-1s-.15-.89-.52-.9" transform="translate(-583.33 -242.9)"/><path class="cls-2" d="M672.25,394.65a.14.14,0,0,1,.13,0h0c.16.05.19.29.19.5l0,.05a.54.54,0,0,1-.51.39.31.31,0,0,1-.32-.24s0,0,0,0c0-.33.17-.69.46-.69Zm0,1.34a.37.37,0,0,1-.43-.13.82.82,0,0,0,.64-.1A.37.37,0,0,1,672.3,396Zm-.77-1.07c-.11.37-.15,1,.26,1.27a.73.73,0,0,0,.4.12c.46,0,.71-.52.72-1s-.15-.89-.52-.91-.71.09-.86.55" transform="translate(-583.33 -242.9)"/><path class="cls-2" d="M673.9,394.65a.13.13,0,0,1,.13,0h0c.16.05.2.3.19.5,0,0,0,0,0,.05a.57.57,0,0,1-.52.39.31.31,0,0,1-.32-.24s0,0,0,0c0-.33.17-.69.46-.69ZM674,396a.36.36,0,0,1-.42-.13.8.8,0,0,0,.63-.1A.37.37,0,0,1,674,396Zm-.77-1.07c-.12.37-.15,1,.26,1.27a.73.73,0,0,0,.4.12c.46,0,.71-.52.72-1s-.15-.89-.52-.91-.71.09-.86.55" transform="translate(-583.33 -242.9)"/><path class="cls-2" d="M675.6,394.65a.15.15,0,0,1,.14,0h0c.17.05.19.3.19.5,0,0,0,0,0,.05a.57.57,0,0,1-.53.39.3.3,0,0,1-.31-.24.08.08,0,0,0,0,0c0-.35.19-.69.47-.69Zm.06,1.34a.37.37,0,0,1-.43-.13.79.79,0,0,0,.63-.1A.33.33,0,0,1,675.66,396Zm-.77-1.07c-.12.37-.15,1,.26,1.27a.74.74,0,0,0,.41.12c.45,0,.7-.52.71-1s-.16-.89-.53-.91-.7.09-.85.55" transform="translate(-583.33 -242.9)"/><path class="cls-2" d="M677.31,394.65a.15.15,0,0,1,.14,0h0c.17.05.2.3.2.5,0,0,0,0,0,.05a.58.58,0,0,1-.52.39.31.31,0,0,1-.32-.24s0,0,0,0c0-.35.17-.69.46-.69Zm.06,1.34a.37.37,0,0,1-.43-.13.79.79,0,0,0,.63-.1A.36.36,0,0,1,677.37,396Zm-.77-1.07c-.12.37-.15,1,.25,1.27a.79.79,0,0,0,.41.12c.46,0,.71-.52.72-1s-.15-.89-.53-.91-.71.09-.85.55" transform="translate(-583.33 -242.9)"/><path class="cls-2" d="M679,394.65a.16.16,0,0,1,.14,0h0c.17.05.2.3.2.5,0,0,0,0,0,.05a.56.56,0,0,1-.52.39.3.3,0,0,1-.31-.24.08.08,0,0,1,0,0c0-.35.17-.69.45-.69Zm.06,1.34a.37.37,0,0,1-.43-.13.8.8,0,0,0,.63-.1A.38.38,0,0,1,679.08,396Zm-.77-1.07c-.12.37-.15,1,.25,1.27a.76.76,0,0,0,.41.12c.45,0,.71-.52.72-1s-.16-.89-.53-.91-.71.09-.85.55" transform="translate(-583.33 -242.9)"/><path class="cls-2" d="M681.07,395.22a.56.56,0,0,1-.52.39.31.31,0,0,1-.32-.24.06.06,0,0,0,0,0c0-.33.17-.69.46-.69h.05a.14.14,0,0,1,.13,0h0c.17.05.2.3.19.5C681.08,395.19,681.07,395.2,681.07,395.22Zm-.28.77a.37.37,0,0,1-.43-.13.8.8,0,0,0,.63-.1A.36.36,0,0,1,680.79,396Zm.61-.71c0-.44-.16-.89-.53-.91s-.71.09-.85.55-.16,1,.25,1.27a.76.76,0,0,0,.41.12c.46,0,.7-.52.72-1" transform="translate(-583.33 -242.9)"/><path class="cls-2" d="M673.59,397.58a.56.56,0,0,1-.52.38.29.29,0,0,1-.31-.24l0,0c0-.35.18-.7.46-.7h0a.28.28,0,0,1,.14,0l0,0c.17.05.19.29.19.5A.08.08,0,0,0,673.59,397.58Zm-.29.77a.37.37,0,0,1-.43-.13.86.86,0,0,0,.64-.1A.37.37,0,0,1,673.3,398.35Zm.61-.72c0-.43-.15-.89-.52-.9s-.71.09-.85.54-.16,1,.25,1.28a.83.83,0,0,0,.41.12c.45,0,.7-.52.71-1" transform="translate(-583.33 -242.9)"/><path class="cls-2" d="M671.49,397h0a.24.24,0,0,1,.13,0l0,0c.16.05.2.29.2.5,0,0,0,0,0,.05a.56.56,0,0,1-.52.38.3.3,0,0,1-.31-.24l0,0C671.05,397.34,671.21,397,671.49,397Zm.1,1.36a.36.36,0,0,1-.42-.13.85.85,0,0,0,.63-.1A.37.37,0,0,1,671.59,398.35Zm-.51.2a.83.83,0,0,0,.41.12c.45,0,.7-.52.71-1s-.15-.89-.52-.9-.71.09-.85.54-.16,1,.25,1.28" transform="translate(-583.33 -242.9)"/><path class="cls-2" d="M674.58,398.22a.83.83,0,0,0,.63-.1.36.36,0,0,1-.2.23A.37.37,0,0,1,674.58,398.22Zm-.12-.5s0,0,0,0c0-.35.17-.7.46-.7h0a.28.28,0,0,1,.14,0l0,0c.17.05.2.29.2.5a.08.08,0,0,0,0,.05.58.58,0,0,1-.53.38A.3.3,0,0,1,674.46,397.72Zm.45.95c.45,0,.7-.52.71-1s-.15-.89-.53-.9-.7.09-.85.54-.15,1,.26,1.28a.83.83,0,0,0,.41.12" transform="translate(-583.33 -242.9)"/><path class="cls-2" d="M676.29,398.22a.83.83,0,0,0,.63-.1.35.35,0,0,1-.2.23A.37.37,0,0,1,676.29,398.22Zm-.12-.5s0,0,0,0c0-.35.17-.7.46-.7h0a.28.28,0,0,1,.14,0l0,0c.16.05.19.29.19.5a.08.08,0,0,0,0,.05.58.58,0,0,1-.53.38A.3.3,0,0,1,676.17,397.72Zm.44.95c.46,0,.71-.52.72-1s-.15-.89-.52-.9a.67.67,0,0,0-.86.54c-.12.37-.15,1,.26,1.28a.8.8,0,0,0,.4.12" transform="translate(-583.33 -242.9)"/><path class="cls-2" d="M678,398.22a.86.86,0,0,0,.64-.1.4.4,0,0,1-.21.23A.37.37,0,0,1,678,398.22Zm-.12-.5,0,0c0-.35.18-.7.46-.7h0a.28.28,0,0,1,.14,0l0,0c.17.05.2.29.19.5,0,0,0,0,0,.05a.56.56,0,0,1-.52.38A.3.3,0,0,1,677.88,397.72Zm.44.95c.46,0,.71-.52.72-1s-.15-.89-.52-.9a.67.67,0,0,0-.86.54c-.12.37-.15,1,.26,1.28a.8.8,0,0,0,.4.12" transform="translate(-583.33 -242.9)"/><path class="cls-2" d="M679.71,398.22a.83.83,0,0,0,.63-.1.36.36,0,0,1-.2.23A.37.37,0,0,1,679.71,398.22Zm-.12-.5,0,0c0-.35.18-.7.46-.7h.05a.23.23,0,0,1,.13,0l0,0c.16.05.19.29.19.5,0,0,0,0,0,.05a.56.56,0,0,1-.52.38A.3.3,0,0,1,679.59,397.72Zm.44.95c.45,0,.7-.52.71-1s-.15-.89-.52-.9-.71.09-.86.54-.15,1,.26,1.28a.9.9,0,0,0,.41.12" transform="translate(-583.33 -242.9)"/><path class="cls-2" d="M681.72,397h0a.31.31,0,0,1,.14,0l0,0c.17.05.2.29.2.5a.05.05,0,0,0,0,.05.56.56,0,0,1-.52.38.3.3,0,0,1-.31-.24,0,0,0,0,1,0,0C681.28,397.34,681.44,397,681.72,397Zm.11,1.36a.37.37,0,0,1-.43-.13.85.85,0,0,0,.63-.1A.36.36,0,0,1,681.83,398.35Zm-.77-1.08c-.12.37-.15,1,.25,1.28a.83.83,0,0,0,.41.12c.46,0,.7-.52.72-1s-.16-.89-.53-.9-.71.09-.85.54" transform="translate(-583.33 -242.9)"/><path class="cls-2" d="M672.21,399.38a.19.19,0,0,1,.14,0h0c.17,0,.2.29.19.49,0,0,0,0,0,.05a.56.56,0,0,1-.52.39.3.3,0,0,1-.31-.24l0,0c0-.35.18-.7.46-.7Zm.06,1.35a.39.39,0,0,1-.43-.13.79.79,0,0,0,.63-.1A.38.38,0,0,1,672.27,400.73Zm-.78-1.07c-.11.36-.14,1,.27,1.27a.8.8,0,0,0,.4.12c.45,0,.7-.52.71-1s-.15-.89-.52-.9-.7.09-.86.55" transform="translate(-583.33 -242.9)"/><path class="cls-2" d="M673.87,399.37h0a.2.2,0,0,1,.14,0h0c.17,0,.2.29.19.49l0,.05a.57.57,0,0,1-.52.39.3.3,0,0,1-.31-.24l0,0C673.43,399.72,673.59,399.37,673.87,399.37Zm.1,1.36a.38.38,0,0,1-.42-.13.8.8,0,0,0,.63-.1A.35.35,0,0,1,674,400.73Zm-.51.2a.83.83,0,0,0,.41.12c.45,0,.7-.52.71-1s-.15-.89-.52-.9-.71.09-.86.55-.15,1,.26,1.27" transform="translate(-583.33 -242.9)"/><path class="cls-2" d="M675.58,399.37h0a.21.21,0,0,1,.14,0h0c.17,0,.19.29.19.49l0,.05a.56.56,0,0,1-.52.39.29.29,0,0,1-.31-.24l0,0C675.14,399.72,675.3,399.37,675.58,399.37Zm.1,1.36a.37.37,0,0,1-.42-.13.8.8,0,0,0,.63-.1A.35.35,0,0,1,675.68,400.73Zm-.51.2a.83.83,0,0,0,.41.12c.45,0,.7-.52.71-1s-.15-.89-.52-.9-.71.09-.86.55-.14,1,.26,1.27" transform="translate(-583.33 -242.9)"/><path class="cls-2" d="M677.29,399.37h0a.19.19,0,0,1,.14,0h0c.17,0,.19.29.19.49l0,.05a.57.57,0,0,1-.52.39.31.31,0,0,1-.32-.24s0,0,0,0C676.84,399.72,677,399.37,677.29,399.37Zm.1,1.36a.37.37,0,0,1-.42-.13.77.77,0,0,0,.62-.1A.35.35,0,0,1,677.39,400.73Zm-.52.2a.9.9,0,0,0,.42.12c.45,0,.7-.52.71-1s-.15-.89-.53-.9-.7.09-.85.55-.15,1,.25,1.27" transform="translate(-583.33 -242.9)"/><path class="cls-2" d="M679,399.37h0a.17.17,0,0,1,.13,0h0c.18,0,.2.29.2.49l0,.05a.57.57,0,0,1-.53.39.31.31,0,0,1-.31-.24s0,0,0,0C678.56,399.73,678.7,399.37,679,399.37Zm.1,1.36a.38.38,0,0,1-.42-.13.78.78,0,0,0,.62-.1A.33.33,0,0,1,679.1,400.73Zm-.51.2a.8.8,0,0,0,.4.12c.46,0,.71-.52.72-1s-.15-.89-.52-.9-.72.09-.86.55-.15,1,.26,1.27" transform="translate(-583.33 -242.9)"/><path class="cls-2" d="M680.71,399.37h0a.19.19,0,0,1,.14,0h0c.16,0,.19.29.18.49,0,0,0,0,0,.05a.55.55,0,0,1-.52.39.3.3,0,0,1-.31-.24s0,0,0,0C680.26,399.72,680.42,399.37,680.71,399.37Zm.1,1.36a.37.37,0,0,1-.42-.13.77.77,0,0,0,.62-.1A.36.36,0,0,1,680.81,400.73Zm-.52.2a.86.86,0,0,0,.41.12c.46,0,.71-.52.72-1s-.15-.89-.52-.9-.72.09-.86.55-.15,1,.25,1.27" transform="translate(-583.33 -242.9)"/><path class="cls-2" d="M673.41,402.38a.58.58,0,0,1-.52.4.33.33,0,0,1-.32-.24s0,0,0,0c0-.34.17-.69.46-.69h0a.26.26,0,0,1,.14,0h0c.16.05.2.29.19.49Zm-.29.78a.36.36,0,0,1-.42-.13.77.77,0,0,0,.62-.09A.36.36,0,0,1,673.12,403.16Zm.61-.71c0-.44-.15-.89-.53-.91s-.71.09-.85.55-.15,1,.26,1.27a.83.83,0,0,0,.41.12c.45,0,.7-.52.71-1" transform="translate(-583.33 -242.9)"/><path class="cls-2" d="M671.19,401.81h0a.2.2,0,0,1,.13,0h0c.16.05.19.29.18.49,0,0,0,0,0,.05a.57.57,0,0,1-.52.4.33.33,0,0,1-.32-.24s0,0,0,0C670.74,402.15,670.9,401.81,671.19,401.81Zm.1,1.35a.37.37,0,0,1-.43-.13.79.79,0,0,0,.63-.09A.36.36,0,0,1,671.29,403.16Zm-.52.2a.86.86,0,0,0,.41.12c.46,0,.71-.52.72-1s-.16-.89-.53-.91-.71.09-.85.55-.16,1,.25,1.27" transform="translate(-583.33 -242.9)"/><path class="cls-2" d="M675.11,402.38a.57.57,0,0,1-.52.4.32.32,0,0,1-.31-.24s0,0,0,0c0-.35.17-.69.46-.69h0a.26.26,0,0,1,.14,0h0c.17.05.21.29.2.49C675.12,402.35,675.12,402.37,675.11,402.38Zm-.28.78a.36.36,0,0,1-.42-.13.77.77,0,0,0,.62-.09A.36.36,0,0,1,674.83,403.16Zm.61-.71c0-.44-.15-.89-.53-.91s-.71.09-.85.55-.15,1,.26,1.27a.83.83,0,0,0,.4.12c.46,0,.71-.52.72-1" transform="translate(-583.33 -242.9)"/><path class="cls-2" d="M676.82,402.38a.56.56,0,0,1-.52.4.32.32,0,0,1-.31-.24l0,0c0-.34.18-.69.46-.69h.05a.26.26,0,0,1,.14,0h0c.17.05.2.29.19.49C676.83,402.35,676.83,402.37,676.82,402.38Zm-.28.78a.37.37,0,0,1-.43-.13.79.79,0,0,0,.63-.09A.36.36,0,0,1,676.54,403.16Zm.61-.71c0-.44-.16-.89-.53-.91s-.71.09-.85.55-.16,1,.26,1.27a.8.8,0,0,0,.4.12c.46,0,.71-.52.72-1" transform="translate(-583.33 -242.9)"/><path class="cls-2" d="M678.53,402.38a.57.57,0,0,1-.52.4.32.32,0,0,1-.31-.24s0,0,0,0c0-.35.18-.69.47-.69h0a.2.2,0,0,1,.13,0h0c.17.05.2.29.2.49C678.54,402.35,678.54,402.37,678.53,402.38Zm-.29.78a.36.36,0,0,1-.42-.13.79.79,0,0,0,.63-.09A.35.35,0,0,1,678.24,403.16Zm.61-.71c0-.44-.15-.89-.52-.91s-.71.09-.86.55-.15,1,.26,1.27a.86.86,0,0,0,.41.12c.45,0,.7-.52.71-1" transform="translate(-583.33 -242.9)"/><path class="cls-2" d="M680.24,402.38a.57.57,0,0,1-.53.4.3.3,0,0,1-.3-.24l0,0c0-.34.18-.69.46-.69h0a.22.22,0,0,1,.13,0h0c.16.05.2.29.19.49Zm-.29.78a.36.36,0,0,1-.42-.13.8.8,0,0,0,.63-.09A.38.38,0,0,1,680,403.16Zm.61-.71c0-.44-.15-.89-.52-.91s-.71.09-.85.55-.15,1,.25,1.27a.83.83,0,0,0,.41.12c.45,0,.7-.52.71-1" transform="translate(-583.33 -242.9)"/><path class="cls-2" d="M681.94,402.38a.58.58,0,0,1-.52.4.32.32,0,0,1-.31-.24l0,0c0-.34.18-.69.46-.69h.05a.22.22,0,0,1,.13,0h0c.17.05.2.29.19.49Zm-.28.78a.37.37,0,0,1-.43-.13.83.83,0,0,0,.63-.09A.36.36,0,0,1,681.66,403.16Zm.61-.71c0-.44-.16-.89-.53-.91s-.71.09-.85.55-.16,1,.26,1.27a.8.8,0,0,0,.4.12c.46,0,.71-.52.72-1" transform="translate(-583.33 -242.9)"/><path class="cls-2" d="M672.58,404.73a.54.54,0,0,1-.51.39.32.32,0,0,1-.32-.24s0,0,0,0c0-.35.18-.69.46-.69h0l.13,0h0c.16.05.19.29.19.5Zm-.28.77a.37.37,0,0,1-.43-.13.86.86,0,0,0,.64-.09A.38.38,0,0,1,672.3,405.5Zm.09-1.62c-.4-.11-.71.09-.86.55s-.15,1,.26,1.27a.83.83,0,0,0,.4.12c.46,0,.71-.52.72-1s-.15-.89-.52-.91" transform="translate(-583.33 -242.9)"/><path class="cls-2" d="M670.9,404.73a.57.57,0,0,1-.52.39.31.31,0,0,1-.31-.24l0,0c0-.35.18-.69.46-.69h0l.13,0h0c.17.05.2.29.19.5C670.91,404.69,670.91,404.71,670.9,404.73Zm-.29.77a.36.36,0,0,1-.42-.13.83.83,0,0,0,.63-.09A.35.35,0,0,1,670.61,405.5Zm.61-.71c0-.44-.15-.89-.52-.91s-.71.09-.86.55-.14,1,.26,1.27a.83.83,0,0,0,.41.12c.45,0,.7-.52.71-1" transform="translate(-583.33 -242.9)"/><path class="cls-2" d="M674.24,404.73a.57.57,0,0,1-.52.39.32.32,0,0,1-.32-.24s0,0,0,0c0-.35.18-.69.46-.69h0l.13,0h0c.16.05.2.29.19.5A.08.08,0,0,0,674.24,404.73Zm-.29.77a.36.36,0,0,1-.42-.13.84.84,0,0,0,.63-.09A.38.38,0,0,1,674,405.5Zm.09-1.62c-.39-.11-.71.09-.86.55s-.15,1,.26,1.27a.83.83,0,0,0,.4.12c.46,0,.71-.52.72-1s-.15-.89-.52-.91" transform="translate(-583.33 -242.9)"/><path class="cls-2" d="M676,404.73a.57.57,0,0,1-.53.39.32.32,0,0,1-.31-.24.05.05,0,0,0,0,0c0-.35.19-.69.47-.69h0l.14,0h0c.17.05.19.29.19.5A.08.08,0,0,0,676,404.73Zm-.29.77a.37.37,0,0,1-.43-.13.83.83,0,0,0,.63-.09A.33.33,0,0,1,675.66,405.5Zm.08-1.62c-.39-.11-.7.09-.85.55s-.15,1,.26,1.27a.83.83,0,0,0,.41.12c.45,0,.7-.52.71-1s-.16-.89-.53-.91" transform="translate(-583.33 -242.9)"/><path class="cls-2" d="M677.66,404.73a.58.58,0,0,1-.52.39.32.32,0,0,1-.32-.24s0,0,0,0c0-.35.17-.69.46-.69h0l.14,0h0c.17.05.2.29.2.5A.08.08,0,0,0,677.66,404.73Zm-.29.77a.37.37,0,0,1-.43-.13.83.83,0,0,0,.63-.09A.36.36,0,0,1,677.37,405.5Zm.08-1.62c-.39-.11-.71.09-.85.55s-.15,1,.25,1.27a.9.9,0,0,0,.41.12c.46,0,.71-.52.72-1s-.15-.89-.53-.91" transform="translate(-583.33 -242.9)"/><path class="cls-2" d="M679.36,404.73a.56.56,0,0,1-.52.39.32.32,0,0,1-.31-.24.08.08,0,0,1,0,0c0-.35.17-.69.45-.69h0l.14,0h0c.17.05.2.29.2.5A.05.05,0,0,0,679.36,404.73Zm-.28.77a.37.37,0,0,1-.43-.13.83.83,0,0,0,.63-.09A.39.39,0,0,1,679.08,405.5Zm.08-1.62c-.39-.11-.71.09-.85.55s-.15,1,.25,1.27a.86.86,0,0,0,.41.12c.45,0,.71-.52.72-1s-.16-.89-.53-.91" transform="translate(-583.33 -242.9)"/><path class="cls-2" d="M681.07,404.73a.56.56,0,0,1-.52.39.33.33,0,0,1-.32-.24s0,0,0,0c0-.35.18-.69.46-.69h.05l.13,0h0c.17.05.2.29.19.5A.08.08,0,0,0,681.07,404.73Zm-.28.77a.37.37,0,0,1-.43-.13.83.83,0,0,0,.63-.09A.36.36,0,0,1,680.79,405.5Zm.08-1.62c-.39-.11-.71.09-.85.55s-.16,1,.25,1.27a.86.86,0,0,0,.41.12c.46,0,.7-.52.72-1s-.16-.89-.53-.91" transform="translate(-583.33 -242.9)"/><path class="cls-2" d="M682.44,404.15l.14,0h0c.17.05.2.29.19.5l0,.05a.56.56,0,0,1-.52.39.32.32,0,0,1-.31-.24s0,0,0,0c0-.35.18-.69.47-.69Zm.06,1.35a.37.37,0,0,1-.43-.13.83.83,0,0,0,.63-.09A.36.36,0,0,1,682.5,405.5Zm-.77-1.07c-.12.36-.15,1,.26,1.27a.83.83,0,0,0,.4.12c.45,0,.71-.52.72-1s-.16-.89-.53-.91-.71.09-.85.55" transform="translate(-583.33 -242.9)"/><path class="cls-2" d="M626,374a3.13,3.13,0,0,1,2.11-.42h.1l2,.08c1.08.05,2.18.1,3.28.09,2.39,0,4.82.07,7.18.17s4.77.19,7.16.17a36.33,36.33,0,0,0,4.46-.29,12,12,0,0,1,3.5-.13c1,.15,1,.57,1,.71a.62.62,0,0,1,0,.12c0,2.21,0,4.46.09,6.62l0,1.84h.26l.1,0,.21,0c1.64.57,4.4-.06,5.88-.62a6.26,6.26,0,0,1,2.68-.57,2.57,2.57,0,0,1,2.24,1.85,2.87,2.87,0,0,1,.17,1,2.79,2.79,0,0,1-.67,1.84c-.71.82-2,.63-3.06.37-.41-.09-.82-.22-1.22-.35a14.39,14.39,0,0,0-1.57-.43,28.77,28.77,0,0,0-3.23-.24c-.63,0-1.17,0-1.52-.07a.2.2,0,0,0-.17.05l-.07.08V386s0,0,0,.07v.43c0,1,.12,2,.23,3a30,30,0,0,1,.23,3.13,9.15,9.15,0,0,1-.26,2.34c-.57,1.26-2,1.25-3.1,1.24h-.16c-.55,0-1.12,0-1.66-.09a17,17,0,0,0-1.89-.08c-2.38,0-4.73.12-7,.24-.82,0-1.65.11-2.45.18-1.51.11-3.06.23-4.6.23h-.91c-1.51,0-3.08,0-4.62.15l-.31,0c-1.24.11-2.78.26-3.83-.38-.51-.31-.53-1.05-.55-1.65a15.08,15.08,0,0,1,.16-2.34,24.66,24.66,0,0,0,.06-5.16c-.16-1.73-.16-3.47-.16-5.16,0-.55,0-1.11,0-1.66a24.29,24.29,0,0,0-.26-2.87c-.08-.59-.16-1.19-.21-1.79,0-.21,0-.42,0-.63A1.5,1.5,0,0,1,626,374Zm-1,1.46a14.75,14.75,0,0,0,.23,2l0,.27a23.62,23.62,0,0,1,.23,3.56c0,.55,0,1.1,0,1.65v.56c0,1.18.08,2.35.17,3.49s.17,2.11.17,3.18a16.63,16.63,0,0,1-.19,2.22c-.07.66-.16,1.34-.18,2,0,1,0,2.22,1.23,2.74a7.75,7.75,0,0,0,3.71.28l.26,0c1.79-.14,3.57-.15,5.37-.15s3.36-.13,5-.25l2.09-.15c2.32-.15,4.68-.2,7-.26h.18a20.44,20.44,0,0,1,2.08.08,20.22,20.22,0,0,0,2.21.08c1,0,2.39-.19,2.95-1.18a4.92,4.92,0,0,0,.5-2.69c0-1.12-.11-2.41-.22-3.66-.07-.94-.15-1.83-.17-2.59v-.2l1.21.06a21.36,21.36,0,0,1,3.78.38l.82.26a11.51,11.51,0,0,0,2.21.54,3.07,3.07,0,0,0,2.63-.75,3.15,3.15,0,0,0,.84-2.29,2.56,2.56,0,0,0,0-.39,3.24,3.24,0,0,0-1.18-2.3,3.57,3.57,0,0,0-2.71-.74,15.24,15.24,0,0,0-2.43.6c-1.81.53-3.85,1.14-5.24.57,0-2.52-.07-4.95-.07-7.87a1.13,1.13,0,0,0-.38-1.07c-.91-.8-3.18-.5-4.27-.35l-.22,0a66.39,66.39,0,0,1-11.29.17c-2.41-.12-4.78-.22-7.16-.19-1.74,0-3.54,0-5.5-.14-1-.06-2.58-.16-3.33.94a2.18,2.18,0,0,0-.26,1.19c0,.1,0,.21,0,.31v.06" transform="translate(-583.33 -242.9)"/><path class="cls-2" d="M666.23,383.75a.37.37,0,0,1,.34.07,1,1,0,0,1,.32.66h0a.54.54,0,0,1-.48.36.7.7,0,0,1-.69-.34C665.58,384.24,666,383.83,666.23,383.75Zm-.08,1.72a1.21,1.21,0,0,0,1.13-.41.28.28,0,0,0,.22-.24,1.41,1.41,0,0,0-1.07-1.7,1.15,1.15,0,0,0-.9.3,1.31,1.31,0,0,0-.47,1v0a1.21,1.21,0,0,0,1.09,1" transform="translate(-583.33 -242.9)"/><path class="cls-2" d="M628.37,375.3a2.76,2.76,0,0,1,1.86-.36h.08c.6,0,1.2,0,1.79.06.95.05,1.93.09,2.91.08,2.12,0,4.27.07,6.35.16s4.24.17,6.36.15a32.07,32.07,0,0,0,3.95-.26,11,11,0,0,1,3.1-.12c.83.14.83.49.83.61v.11c0,1.33.13,4.83.26,7.92.09,2.23.17,4.34.19,5.3.07,1.32.12,2.1.15,2.35a11.84,11.84,0,0,1-.27,2.5c-.39.87-2,1.09-2.88,1.09-.49,0-1,0-1.47-.08s-1.12-.08-1.68-.08c-2.1,0-4.18.11-6.18.22l-2.16.15c-1.34.11-2.72.22-4.09.22h-.8c-1.34,0-2.72,0-4.09.12l-.28,0a5.84,5.84,0,0,1-3.38-.33c-.44-.27-.46-.91-.48-1.45a14.3,14.3,0,0,1,.14-2.07,21.19,21.19,0,0,0,0-4.58c-.13-1.53-.14-3.07-.14-4.57V381a23.41,23.41,0,0,0-.23-2.56c-.07-.51-.15-1-.19-1.58a5.21,5.21,0,0,1,0-.55A1.34,1.34,0,0,1,628.37,375.3Zm-.93,1.28a14.75,14.75,0,0,0,.21,1.77l0,.25a21.7,21.7,0,0,1,.2,3.15c0,.48,0,1,0,1.45v.51c0,1,.07,2.08.15,3.09s.16,1.87.16,2.81a16.37,16.37,0,0,1-.17,2,17.7,17.7,0,0,0-.16,1.8c0,.93,0,2,1.1,2.45a6.93,6.93,0,0,0,3.3.25l.22,0c1.59-.13,3.16-.14,4.77-.13s3-.11,4.41-.23c.62,0,1.23-.09,1.85-.12,2.06-.13,4.16-.18,6.18-.23h.16c.61,0,1.23,0,1.84.08a18.17,18.17,0,0,0,2,.06c.89,0,2.13-.16,2.64-1.07a6.6,6.6,0,0,0,.51-2.74,19.63,19.63,0,0,0-.14-2.09c0-1-.1-3.13-.18-5.4-.12-3.33-.26-7.1-.26-8.43a1,1,0,0,0-.34-1c-.82-.72-2.83-.45-3.8-.32l-.2,0a58.49,58.49,0,0,1-10,.14c-2.14-.1-4.25-.19-6.35-.16-1.54,0-3.13,0-4.87-.13-.86,0-2.3-.14-3,.85a2,2,0,0,0-.23,1.06v.33" transform="translate(-583.33 -242.9)"/><path class="cls-2" d="M609.84,382.55a10.68,10.68,0,0,0,1.19-4.09l0-.29a2,2,0,0,0-1.92-1.5,9.73,9.73,0,0,0-1.4.34,2.6,2.6,0,0,0-1.36,1.36v.18a.3.3,0,0,0,.3.17l.09,0a1.78,1.78,0,0,1,.38-.69c0-.3.66-.59,2-.89a2,2,0,0,0,.34,0c.8.31,1.19.76,1.19,1.36a7.45,7.45,0,0,1-.42,2.09,32.33,32.33,0,0,0-2,6.77c-.54,2.46-.81,3.75-.81,3.88v.13l.13.17a22.83,22.83,0,0,1,2.85-.38h.21c.08,0,.13-.09.13-.13v-.13c-.07-.11-.13-.17-.17-.17h-.17c-.28,0-1.12.1-2.51.3h0c.28-1.12.46-1.93.55-2.43a55.83,55.83,0,0,1,1.53-6.05" transform="translate(-583.33 -242.9)"/><path class="cls-2" d="M614.27,390.49h-.17a1.1,1.1,0,0,0-.29.39V391c0,.06.08.11.21.17s.25-.11.42-.34v-.17c-.07-.12-.13-.18-.17-.18" transform="translate(-583.33 -242.9)"/><path class="cls-2" d="M621.5,433.21h0Zm53.64,12.28a7.57,7.57,0,0,1,1-1.17c0,.18,0,.36,0,.54A3.44,3.44,0,0,1,676,446a.15.15,0,0,0,0,.06c-.38.37-.76.74-1.13,1.12a10.66,10.66,0,0,0,.28-1.66Zm1.33.82h0l.48-.44a10.85,10.85,0,0,1-1,3.18,6.38,6.38,0,0,1-3.71,2.91l-.1-.06c-.52-.18,0-.9.58-1.54A5.85,5.85,0,0,0,674,449c.45-.52.86-1.07,1.3-1.59a9.68,9.68,0,0,1,1-1A.24.24,0,0,0,676.47,446.31Zm.19,4.38a4.63,4.63,0,0,1-2.19,1.44l-.05,0H674a.27.27,0,0,0-.27.19c-.27,0-.55,0-.82-.05a7.75,7.75,0,0,0,2.17-1.39h.09C675.69,450.86,676.17,450.75,676.66,450.69ZM675.39,454s0,0,0,.06H657.76a.57.57,0,0,0,0-.13,4,4,0,0,1,0-1c3.76,0,7.57.44,11.32.18C670.11,453,675.52,452.28,675.39,454Zm-18.95.06a2.18,2.18,0,0,0-.21-1.65h1a.27.27,0,0,0-.08.19,7.12,7.12,0,0,0,0,1.46Zm-.58-.12a.27.27,0,0,0,0,.12h-.39l0-.12a3.43,3.43,0,0,0-.19-1.52h.36a.3.3,0,0,0,0,.18A1.56,1.56,0,0,1,655.86,453.94Zm-1,0s-.24-.1-.29-.13a.24.24,0,0,0-.31,0,.23.23,0,0,0-.15-.23,6.87,6.87,0,0,1-.07-.9c0-.12-.08-.27-.22-.28l-.2,0h1a4.69,4.69,0,0,1,.23,1A1.21,1.21,0,0,1,654.86,454Zm-18.9.1a8.07,8.07,0,0,1,0-1.3c3.66-.29,7.36.11,11,0a44,44,0,0,1,5.39.11c.77.06,1-.2,1.16.57a2.43,2.43,0,0,0,.13.64Zm-1.55-6a9.17,9.17,0,0,0-1.34-2.61c.68.46,1.34.95,2,1.46a.26.26,0,0,0,.17.14l.22.17a15.39,15.39,0,0,1,1.61,1.72c.21.24.42.46.64.68l.33.35a1.3,1.3,0,0,1,.29,1.73.24.24,0,0,0-.26.16A5.38,5.38,0,0,1,634.41,448.06Zm.06-4,.13,0a11,11,0,0,1,.41,2.12l-1.12-.89a.3.3,0,0,0,0-.24c-.17-.59-.47-1.15-.65-1.74Zm1.61,1.4a.24.24,0,0,0,.24.14,9.26,9.26,0,0,0,.47,2.21c-.39-.37-.78-.73-1.19-1.08a11.46,11.46,0,0,0-.56-3.28C635.41,444.13,635.74,444.81,636.08,445.49Zm31,6.6a1.12,1.12,0,0,0-.08.38c-2,0-4.11-.06-6.17-.11C663.23,452.31,665.44,452.22,667.11,452.09Zm-23.21,0c.59.05,1.27.1,2,.14l-.39,0c-.56,0-1.1,0-1.65,0a.29.29,0,0,0,0-.14Zm32.17-17,0-.4.86,0a13.74,13.74,0,0,1,1.7,0,3.07,3.07,0,0,1,1.42.3,1.46,1.46,0,0,1,.49.61v0a.71.71,0,0,1-.54.15,5.7,5.7,0,0,1-1.09-.16l-.14,0-.4-.09-.69-.14-.86-.1Zm-40.74,0c-.25,0-.52.06-.78.09l-.85.1-.68.14a2.88,2.88,0,0,1-.4.09l-.15,0a5.47,5.47,0,0,1-1.08.16c-.28,0-.47-.05-.54-.15s0,0,0,0a1.44,1.44,0,0,1,.48-.61,3.11,3.11,0,0,1,1.43-.3h.45c.41,0,.84,0,1.27.05l.83,0C635.32,434.78,635.33,434.92,635.33,435.05Zm37.55-2.58-1.85,0c-.89,0-1.81,0-2.71,0-.73,0-1.47-.08-2.22-.13s-1.57-.11-2.37-.13c-1.48-.06-5.12-.07-8-.07s-6.55,0-8,.07c-.8,0-1.6.08-2.4.13s-1.47.1-2.2.13c-.9,0-1.81,0-2.72,0l-1.83,0c-1,0-1.93.08-2.79.17h-.16l-.28,0a.5.5,0,0,1-.21,0,.68.68,0,0,1,.23-.3,1,1,0,0,1,.42-.21,5,5,0,0,1,1.36-.19,23.57,23.57,0,0,1,2.36,0l.48,0c.49,0,1,0,1.65,0h2.25c1.75,0,3.31,0,4.75-.06,1.1,0,3.83-.05,7.11-.05s6,0,7.12.05c1.44,0,3,.06,4.75.06h2.25c.63,0,1.15,0,1.64,0l.48,0a23.67,23.67,0,0,1,2.37,0,5,5,0,0,1,1.36.19,1.11,1.11,0,0,1,.42.21.93.93,0,0,1,.24.29.41.41,0,0,1-.23,0l-.28,0h-.13C674.81,432.55,673.9,432.49,672.88,432.47Zm1.59,12v.07a8.24,8.24,0,0,1-.85,3.77,6,6,0,0,1-2.52,2.21c-1.51.75-9.34,1.14-16.29,1.14-7.68,0-13.36-.45-14.47-1.13a7.35,7.35,0,0,1-2.54-2.22,8.37,8.37,0,0,1-.85-3.77v-.07c0-.33-.12-1.15-.23-2.19-.3-2.7-.8-7.17-.74-9,1.5-.14,3-.15,4.5-.16s2.71,0,4.07-.13c2.16-.17,4.47-.25,7.49-.25h7.34c3,0,5.33.08,7.49.25,1.36.11,2.74.12,4.07.13,1.48,0,3,0,4.51.16,0,1.8-.44,6.28-.74,9C674.58,443.34,674.49,444.16,674.47,444.49Zm-38.31-15.62,3.29-.36,2.19-.23,2.62-.24,1-.1,1.45-.14c2.36-.23,4.81-.47,7.23-.47h.86a19.41,19.41,0,0,1,3.51.26,2.57,2.57,0,0,1,1.5,1.11L622,432.65a2.6,2.6,0,0,1,1.28-1.47,17.89,17.89,0,0,1,3.39-1l.38-.09a71.13,71.13,0,0,1,7.63-1.09Zm8.61-1.74s0,.06,0,.08l0,.06-1.46.14a2.56,2.56,0,0,0-.78-1.78,3.22,3.22,0,0,0-2.51-.69c-1.66.17-3.47,1.34-3.62,3.19l-1.44.16a4.83,4.83,0,0,1,4.24-4.9,3.31,3.31,0,0,1,.45,0h.34a7,7,0,0,1,3.39,1.28,4,4,0,0,1,1.19,1.24,2.29,2.29,0,0,1,.28.81A1.62,1.62,0,0,1,644.77,427.13ZM640,425.64l.35,0a2.33,2.33,0,0,1,1.6.54,1.88,1.88,0,0,1,.57,1.31l-3,.31-2.52.27A3.19,3.19,0,0,1,640,425.64Zm-.08,25.52a6,6,0,0,1,.38,1l-1.13,0c.37-.28.27-.86,0-1.41a7.33,7.33,0,0,0,.73.39A.13.13,0,0,0,639.94,451.16Zm1.66.66c.07.13.14.26.2.39l-.9,0v-.13a3.33,3.33,0,0,0-.21-.63,7.54,7.54,0,0,0,.88.29A.26.26,0,0,0,641.6,451.82Zm1.72.33s0,.07,0,.1l-.93,0a.3.3,0,0,0,0-.12,2.56,2.56,0,0,0-.11-.24c.27,0,.58.09.94.12A.29.29,0,0,0,643.32,452.15Zm25.87.3h-1.58a.25.25,0,0,1,0-.19.31.31,0,0,0,.07-.23c.67-.07,1.21-.14,1.61-.22a2.07,2.07,0,0,0-.16.56A.15.15,0,0,0,669.19,452.45Zm2.49-.13-1,.06c-.3,0-.6,0-.89,0,0,0,0,0,0,0a2.2,2.2,0,0,1,.21-.56.3.3,0,0,0,0-.17,10.06,10.06,0,0,0,1.4-.52A.85.85,0,0,0,671.68,452.32ZM634.37,432.7c0,.4.37.65.9.68,0,.19,0,.36,0,.55l-.79-.05c-.43,0-.87-.05-1.31-.05a7.31,7.31,0,0,0-1.09.07,2.65,2.65,0,0,0-1.39.54,1.46,1.46,0,0,0-.55,1.24c.07.3.33.66,1.19.66a6.51,6.51,0,0,0,.76-.06h0c.37-.06.73-.13,1.08-.22a14.71,14.71,0,0,1,1.46-.22c.22,0,.45,0,.68-.08.1,1.56.26,3.09.43,4.66,0,.33.08.66.11,1v.11c.11.88.21,1.79.27,2.69v.1a.66.66,0,0,0,0,.14,16,16,0,0,0-1.57-2.64.3.3,0,0,0-.54.23,11.49,11.49,0,0,0,.3,1.32c-.47-.27-.93-.56-1.4-.82-.18-.1-.47,0-.44.25a9.42,9.42,0,0,0,.66,2.09c-.43-.31-.88-.62-1.35-.92-.3-.19-.55.22-.35.46a10.68,10.68,0,0,1,2.17,3.34,9.81,9.81,0,0,0,1.06,2.44,5.86,5.86,0,0,0,2.27,1.91c-.45,0-.91,0-1.36.08a.31.31,0,0,0-.3.29,10.42,10.42,0,0,0,0,1.58h-8.92a.3.3,0,0,0,0,.59h55.06a.3.3,0,0,0,0-.59H676a.11.11,0,0,0,0-.06,1.35,1.35,0,0,0-1.08-1.41,4.21,4.21,0,0,0,2.55-2.15.29.29,0,0,0-.28-.37,10.62,10.62,0,0,0-1.38.17l.39-.45a9.5,9.5,0,0,0,1.47-4.73.3.3,0,0,0-.5-.21l-.44.46c.06-.58,0-1.17.11-1.71,0-.28-.33-.35-.5-.21a10.67,10.67,0,0,0-1.12,1.11,1.21,1.21,0,0,1,0-.19v-.1c.07-.9.17-1.81.27-2.68q.07-.55.12-1.11c.18-1.57.34-3.11.44-4.66.23,0,.45.06.68.08a14.51,14.51,0,0,1,1.45.22c.36.09.72.16,1.08.22h0a6.91,6.91,0,0,0,.77.06c.85,0,1.11-.36,1.18-.66a1.45,1.45,0,0,0-.54-1.24,2.68,2.68,0,0,0-1.4-.54,12.9,12.9,0,0,0-2.42,0l-.76.05c0-.19,0-.36,0-.55.54,0,.87-.28.9-.68s-.48-1-.94-1.17l-.35-.13h0a1.81,1.81,0,0,0-.51-.13,6.46,6.46,0,0,0-1.22-.09c-.37,0-.74,0-1.09,0h-.29c-1.46.07-3,.1-4.69.1s-3.41,0-5.67-.1c-1.22,0-4.19,0-6.57,0s-5.34,0-6.56,0c-2.27.08-4,.1-5.68.1-.81,0-1.6,0-2.34,0l19.37-2a.35.35,0,0,0,.35-.35.34.34,0,0,0-.28-.31,7.42,7.42,0,0,0-.76-1,2.42,2.42,0,0,0-1.3-.71,18.65,18.65,0,0,0-3.84-.31h-1c-2.49,0-5,.26-7.41.5l-.73.08v-.05a1.84,1.84,0,0,0,0-.53,2.81,2.81,0,0,0-.31-1,4.36,4.36,0,0,0-1.34-1.49,7.55,7.55,0,0,0-4-1.48,4.15,4.15,0,0,0-.79,0,5.53,5.53,0,0,0-4.83,5.68c-2.12.23-4.36.49-6.52.92h-.07a23.09,23.09,0,0,0-4.66,1.27,2.42,2.42,0,0,0-1.12,1,6.42,6.42,0,0,0-.63,1.34.34.34,0,0,0,0,.12l-.07.24.11,0,0,0a.35.35,0,0,0,.27.11L634.66,432a.92.92,0,0,0-.29.71" transform="translate(-583.33 -242.9)"/><path class="cls-2" d="M608.34,435.45a.94.94,0,0,1,.13-.38,7.5,7.5,0,0,0,1.06-3.71,1.15,1.15,0,0,0-.08-.42q-.57-1.32-2.64-1.32l-.09,0s0,0,0,0h-.12c-.12.07-.17.12-.17.17v.13l.13.16.55,0a4.08,4.08,0,0,1,.76.08c.85.33,1.28.74,1.28,1.23,0,.07,0,.34-.09.82a7.28,7.28,0,0,1-1.36,3.4v.13a.38.38,0,0,0,.21.17l.13,0a1.48,1.48,0,0,1,1.11.51,5.51,5.51,0,0,1,.93,2.81v0a7.61,7.61,0,0,1-.47,2.86c0,.33-.48.91-1.44,1.75q-1,.26-1,.42v.09c.07.11.12.17.17.17h0a.43.43,0,0,0,.17,0,2.27,2.27,0,0,0,1.28-.64q1.69-1.2,1.7-4.65a5,5,0,0,0-.3-1.57c-.5-1.43-1.11-2.14-1.83-2.14" transform="translate(-583.33 -242.9)"/><path class="cls-2" d="M613.91,443.67h-.17c-.08,0-.18.16-.3.38v.13a.42.42,0,0,0,.22.17c.1,0,.25-.12.42-.35v-.16c-.07-.12-.13-.17-.17-.17" transform="translate(-583.33 -242.9)"/><path class="cls-2" d="M632.49,484.27v0a4.89,4.89,0,0,0,0,.51c.06.93.08,2.5.1,3.77,0,.45,0,.86,0,1.2,0,1,.08,2,.16,3v0a38,38,0,0,1,.12,4.9,3.16,3.16,0,0,1-.24,1.15.53.53,0,0,1-.52.33,1.09,1.09,0,0,1-.74-.31,1.53,1.53,0,0,1-.3-1.33v-.07c0-.63.12-1.26.19-1.87l0-.22c.2-1.85.28-3.74.37-5.57v-.08c0-.84.09-1.69.14-2.53,0-.67.08-1.32.12-2a2.83,2.83,0,0,1,0-.29,7.62,7.62,0,0,0,0-1.51h0a1.66,1.66,0,0,0-.42-.86c-.09-.12-.19-.22-.28-.34-.24-.29-.51-.62-.76-1a4.15,4.15,0,0,1-.75-2.83,5,5,0,0,1,1.19-2.67,2.73,2.73,0,0,1,1.88-1.13,1.44,1.44,0,0,1,.6.13,3.79,3.79,0,0,1,1.72,2.28,4.56,4.56,0,0,1,.07,2.83,4.2,4.2,0,0,1-.66,1.3,3.25,3.25,0,0,1-.8.73l-.31.23A2.81,2.81,0,0,0,632.49,484.27Zm1-10.07a2,2,0,0,0-.72-.13c-1.66,0-2.94,2.05-3.34,3.36a4.65,4.65,0,0,0,.09,3,6.14,6.14,0,0,0,1.1,1.7,9.23,9.23,0,0,1,.79,1.07.52.52,0,0,1,.06.33.3.3,0,0,0,0,.1,7.4,7.4,0,0,1,0,1.41c0,.15,0,.3,0,.45,0,.72-.1,1.44-.13,2.15-.1,1.6-.16,2.92-.2,4.16s-.18,2.59-.32,3.87v.13c-.08.77-.14,1.37-.18,1.94a1.81,1.81,0,0,0,.29,1.27,1.54,1.54,0,0,0,1.21.62,1.08,1.08,0,0,0,.73-.25,2.79,2.79,0,0,0,.56-2.06v-.19c0-1.56,0-2.84-.08-4,0-.23,0-.45-.05-.68v-.18c-.08-1-.16-2.08-.17-3.14v-.46c0-1.11,0-3-.11-3.87,0-.19,0-.35,0-.45a2.82,2.82,0,0,1,.32-1.36,2.51,2.51,0,0,1,.8-.75c.14-.1.28-.19.42-.31a4.43,4.43,0,0,0,1.37-2.74,5.43,5.43,0,0,0-.44-2.88,3.82,3.82,0,0,0-1.89-2.1" transform="translate(-583.33 -242.9)"/><path class="cls-2" d="M626.55,483.17a.19.19,0,0,0-.07.17,4.71,4.71,0,0,0-.22,2.41l0,.25c.06.85.06,1.72.07,2.57v.08c0,.38,0,.75,0,1.13,0,1,.09,2,.16,3v0a39.89,39.89,0,0,1,.12,4.9,3.16,3.16,0,0,1-.24,1.15.56.56,0,0,1-.53.33,1.13,1.13,0,0,1-.74-.31,1.5,1.5,0,0,1-.29-1.33v-.07c0-.63.12-1.27.19-1.88l0-.21c.19-1.86.28-3.76.37-5.6v-.05c0-.84.08-1.69.13-2.53,0-.67.09-1.32.12-2,0-.07,0-.14,0-.21v-.09a7.52,7.52,0,0,0,0-1.5l0-.06a1.3,1.3,0,0,0-.38-.56l-.14-.13a2.21,2.21,0,0,1-.59-.78,4.07,4.07,0,0,1,0-1.84c0-.13,0-.24,0-.35,0-.27.06-.52.09-.78l0-.12c.07-.58.14-1.19.2-1.78,0-.39.11-.78.18-1.16l0-.23c0-.13,0-.3,0-.49s0-.14,0-.22a1,1,0,0,1,0,.2,3,3,0,0,1,0,.52l0,.45-.06,1.26c0,.34,0,.68,0,1v.11c0,.17,0,.33,0,.5s0,.21,0,.32a3.27,3.27,0,0,0,.08,1.08.41.41,0,0,0,.39.35.67.67,0,0,0,.56-.45,2.93,2.93,0,0,0,.1-1.15c0-.1,0-.19,0-.28v-.64c0-.31,0-.61,0-.92s0-.7,0-1.06v0c0-.41,0-.84,0-1.25a1.46,1.46,0,0,1,0-.22v0a1,1,0,0,1,0,.31v0a9.48,9.48,0,0,0,0,1.05,10.59,10.59,0,0,1,0,1.13c0,.12,0,.23,0,.35a9.72,9.72,0,0,0,.08,1v.05c0,.09,0,.18,0,.27s0,.26,0,.42a1.59,1.59,0,0,0,.38,1.29.25.25,0,0,0,.16.05s.25,0,.33-.15a2,2,0,0,0,.15-1v-.07c0-.14,0-.29,0-.43v-.11c0-.35,0-.71,0-1.07,0-.57,0-1.16,0-1.81v-.33c0-.14,0-.27,0-.4h0c0,.06,0,.12,0,.17s0,.35.07.53v0a5.6,5.6,0,0,1,.07.59l0,.31c.07.75.14,1.46.15,2.2,0,.13,0,.27,0,.41v.1a8.93,8.93,0,0,1-.09,2.13,2.14,2.14,0,0,1-.8,1.14C626.77,483,626.66,483.05,626.55,483.17Zm1.72-4.49v0c0-.24,0-.48,0-.72s0-.41-.06-.61a8.21,8.21,0,0,1-.09-.82,6.39,6.39,0,0,0-.09-.75c0-.16,0-.33-.06-.51v0a2.53,2.53,0,0,0-.22-.89.24.24,0,0,0-.14-.12l-.14-.05h-.11c-.07,0-.31,0-.31.47,0,.08,0,.21,0,.34v0c0,.14,0,.28,0,.37,0,.58,0,1.13,0,1.75,0,.28,0,.56,0,.84v0c0,.33,0,.66,0,1,0,.12,0,.24,0,.38a2.06,2.06,0,0,1,0,.65,4.42,4.42,0,0,1,0-.53,2.3,2.3,0,0,0,0-.28c0-.15,0-.32-.06-.47v0c0-.18-.05-.36-.07-.55a7.93,7.93,0,0,1,0-1.09c0-.14,0-.27,0-.41s0-.46,0-.69,0-.49,0-.73v-.08c0-.31,0-1-.48-1a.42.42,0,0,0-.36.14c-.24.25-.2.82-.18,1.12v.09c0,.52,0,1,0,1.56v0c0,.41,0,.85,0,1.27a13,13,0,0,1,0,1.56.62.62,0,0,1-.07.26.08.08,0,0,1,0,0,1.43,1.43,0,0,1,0-.38.66.66,0,0,0,0-.14,5.28,5.28,0,0,1,0-.56v-.42c0-.6,0-1.22.06-1.81v0c0-.44,0-.95.05-1.43a2.12,2.12,0,0,0-.33-1.08.35.35,0,0,0-.52,0c0,.06,0,.08-.15.72v0c0,.23-.07.47-.09.62-.08.42-.16.86-.21,1.3-.08.6-.14,1.2-.21,1.8,0,.35-.07.7-.11,1l0,.14a5.86,5.86,0,0,0,0,2,1.81,1.81,0,0,0,.44.81,1.65,1.65,0,0,0,.3.29,1,1,0,0,1,.42.56,7.42,7.42,0,0,1,0,1.49v0c0,.14,0,.28,0,.43-.05.72-.09,1.44-.13,2.15-.1,1.58-.16,2.9-.21,4.16s-.17,2.59-.31,3.87v.13c-.09.77-.14,1.37-.19,1.94a1.86,1.86,0,0,0,.3,1.27,1.54,1.54,0,0,0,1.21.62,1.05,1.05,0,0,0,.72-.25,2.7,2.7,0,0,0,.56-2.06v-.19c0-1.55,0-2.82-.09-4,0-.27,0-.55,0-.83v0c-.07-1-.15-2.08-.16-3.14,0-.25,0-.5,0-.75v0c0-.78,0-1.59-.07-2.38,0-.09,0-.17,0-.29a4.11,4.11,0,0,1,.23-2.24v0l.26-.24a2.89,2.89,0,0,0,.86-1.11,6.51,6.51,0,0,0,.19-2.72c0-.22,0-.44,0-.67" transform="translate(-583.33 -242.9)"/><path class="cls-2" d="M638.32,486.13a.24.24,0,0,0-.1.19.19.19,0,0,0,0,.14c.06.7.09,1.42.13,2.12v0c0,.39,0,.77.07,1.16.06,1,.18,2,.28,3v0a39.15,39.15,0,0,1,.34,4.86,3.22,3.22,0,0,1-.19,1.17.56.56,0,0,1-.56.35,1.14,1.14,0,0,1-.71-.28c-.38-.31-.36-.82-.35-1.31v-.08c0-.64.06-1.28.11-1.91v-.18c.12-1.87.13-3.77.14-5.62,0-.8,0-1.71,0-2.58l0-.91h-.09a.54.54,0,0,0-.11-.18.76.76,0,0,1-.33-.66c0-.26,0-.53,0-.8v0c0-.37,0-.82,0-1.26,0-1.07.06-2.14.12-3.18v0c0-.39,0-.77,0-1.16s0-.79,0-1.18v-.05c0-.49,0-1,.05-1.51.09-1.29.31-1.57.38-1.57.35.07,1.12,1.56,1.49,2.67a9.77,9.77,0,0,1,.4,3c0,1.18-.09,2.35-.18,3.24-.05.59-.13,1.16-.22,1.68a1.14,1.14,0,0,1-.24.58.66.66,0,0,1-.32.18A1.23,1.23,0,0,0,638.32,486.13Zm-.27-11.85a.52.52,0,0,0-.34-.13c-.54,0-.81,1-.86,3.29v.07c0,.91-.07,1.83-.12,2.73v0c0,.74-.07,1.51-.1,2.27,0,.34,0,.7,0,1v0c0,.49,0,1,0,1.5v.07a2,2,0,0,0,0,.81,1.07,1.07,0,0,0,.26.35.42.42,0,0,1,.17.24.23.23,0,0,0,0,.11l0,1c0,1.58,0,2.9,0,4.15s-.08,2.61-.16,3.89v.13c0,.77-.08,1.37-.1,1.94a1.77,1.77,0,0,0,.35,1.26,1.5,1.5,0,0,0,1.18.57,1.07,1.07,0,0,0,.76-.28,2.7,2.7,0,0,0,.47-2.08v-.2c0-1.55-.13-2.82-.25-4,0-.2,0-.38-.07-.58l0-.27c-.12-1-.24-2.07-.3-3.13l0-.66c0-.65-.07-1.32-.13-2l.09,0a1,1,0,0,0,.34-.15,1.54,1.54,0,0,0,.4-.49,3.25,3.25,0,0,0,.25-1.14v0l0-.28a34.36,34.36,0,0,0,.26-3.78,10.71,10.71,0,0,0-.37-3.23,7,7,0,0,0-1.68-3.05" transform="translate(-583.33 -242.9)"/><path class="cls-2" d="M684,496.71a2.45,2.45,0,0,1-.72.22A9.31,9.31,0,0,1,682,497h-.48c-.49,0-1,0-1.45,0s-.68,0-1,0c-.94,0-1.85,0-3.14,0-1.58-.06-3.27-.1-5-.1l-1.7,0-2.65.06-1.66,0-1.67,0-2.64-.06c-2.29,0-4.59,0-6.7.08-1.29,0-2.2,0-3.13,0-.35,0-.69,0-1,0s-1,0-1.45,0h-.47a9.46,9.46,0,0,1-1.28-.07,2.55,2.55,0,0,1-.72-.22.47.47,0,0,1-.15-.13l.1,0a.28.28,0,0,0,.28,0c5.58,0,11.24-.11,16.71-.21l2.14,0,2.15,0c5.47.1,11.13.2,16.72.21a.26.26,0,0,0,.27,0l.11,0A.52.52,0,0,1,684,496.71ZM676.26,498c0,.06-.09.14-.14.21a1.56,1.56,0,0,1-.56.65,3,3,0,0,1-1,.26c-.33,0-.68,0-1.07,0-.59,0-1.18,0-1.7-.06-2-.14-3.9-.15-6-.15h-1.57c-2.15,0-4.08,0-6,.15-.51,0-1.11.06-1.69.06-.39,0-.74,0-1.08,0a3,3,0,0,1-1-.26,1.51,1.51,0,0,1-.57-.65c-.05-.07-.09-.15-.14-.21a2,2,0,0,0-.35-.41l1.55,0,.81,0c.86,0,1.75,0,2.73,0,1.93,0,3.89,0,5.63.09h1.94c1.73,0,3.7-.09,5.62-.09,1,0,1.88,0,2.74,0l.8,0,1.55,0A2,2,0,0,0,676.26,498Zm-19.85-2a12.21,12.21,0,0,1-3.21-.93,15.31,15.31,0,0,1-3.76-3.06c-.35-.35-.67-.74-1-1.11a12.5,12.5,0,0,0-1.8-1.84,4,4,0,0,0-1.53-.7c-.26-.08-.49-.14-.6-.32a.6.6,0,0,1,0-.42v-.1a4.17,4.17,0,0,0,2.26.56l1.38,0c.6,0,1.21,0,1.82,0,.8,0,1.6.15,2.37.25l1.22.16a33.29,33.29,0,0,0,3.72.18c1.37,0,2.77-.06,4.12-.12,1.07-.05,2.18-.1,3.27-.11,2.64,0,5.28-.13,7.51-.2l.93,0c.93,0,1.89-.07,2.83,0s1.85,0,2.82,0a16.2,16.2,0,0,0,2.92-.24,2.71,2.71,0,0,0,1.21-.44v.07a.72.72,0,0,1,0,.39,1.05,1.05,0,0,1-.61.32,4,4,0,0,0-1.53.7,12.5,12.5,0,0,0-1.8,1.84c-.32.37-.65.76-1,1.11A15,15,0,0,1,674.2,495a11.77,11.77,0,0,1-3.18.92l-3.65-.06-2.16,0h-.39l-2.35.05-5.9.1Zm25.73-8.6-.26.07a11,11,0,0,1-1.8.25c-.55,0-1.15,0-1.82,0s-1.44,0-2.07,0c-1.29-.05-2.61,0-3.88.06l-1.32,0-3.78.09-3.71.09-2.18.09c-1.35.05-2.74.12-4.12.12a35.07,35.07,0,0,1-3.74-.19l-1.09-.15c-.44-.07-.91-.14-1.37-.18-.7-.07-1.45-.11-2.43-.12H647a4.86,4.86,0,0,1-1.65-.21Zm2.45,8.75a.75.75,0,0,0-.51,0c-3.64,0-7.32-.05-11-.11a7.52,7.52,0,0,0,1.79-.76,16.76,16.76,0,0,0,4-3.48q.2-.24.42-.48a6.37,6.37,0,0,1,3.06-2.44c.37-.1,1-.27,1.09-.88a1,1,0,0,0-.28-.94.43.43,0,0,0-.27-.12h-.09l0,0H644.67a.72.72,0,0,0-.44.17h0l0,0,0,.05a1.11,1.11,0,0,0-.19.84c.06.61.73.78,1.09.88a6.43,6.43,0,0,1,3.08,2.44l.41.48a16.76,16.76,0,0,0,4,3.48,8,8,0,0,0,1.93.8c-2.89,0-5.79.07-8.67.07a.75.75,0,0,0-.51,0,.24.24,0,0,0-.14.21.82.82,0,0,0,.21.66c.35.38,1.07.55,2.27.55h.64c.59,0,1.18,0,1.75,0,.73,0,1.48,0,2.22,0a.39.39,0,0,0,.11.06,1.55,1.55,0,0,1,.94.81,2.51,2.51,0,0,0,.68.75,3.87,3.87,0,0,0,2,.43h0a24.89,24.89,0,0,0,2.6-.11h.27c1-.07,2-.08,3-.08h6c1,0,2,0,3,.08h.27c.72.06,1.47.12,2.2.12h.44a3.87,3.87,0,0,0,2-.43,2.38,2.38,0,0,0,.68-.75,1.6,1.6,0,0,1,.95-.81.33.33,0,0,0,.1-.06c.74,0,1.5,0,2.21,0s1.18-.05,1.76,0h.64c1.2,0,1.92-.17,2.27-.55a.77.77,0,0,0,.21-.65.25.25,0,0,0-.14-.22" transform="translate(-583.33 -242.9)"/><path class="cls-2" d="M609.65,484.56v-.13c0-.07-.06-.11-.17-.13a39.32,39.32,0,0,0-.43-5.53.34.34,0,0,0,.05-.17v-.05c-.07-.11-.13-.17-.17-.17h-.09a.41.41,0,0,0-.21.3,52.26,52.26,0,0,1,.42,5.66h-1a7.67,7.67,0,0,0-1.05.09h0c-.06-.53-.08-.87-.08-1v-.3c.31-3.42.46-5.27.46-5.58a.36.36,0,0,0-.13-.21.48.48,0,0,0-.33.17l0,.3c-.32,3.34-.47,5.22-.47,5.62.06,1,.14,1.54.25,1.54h.09a4.47,4.47,0,0,1,1.11-.17h1.19c.25,2.64.38,4.69.38,6.13l0,.08s0,0,0,.05v.08a.32.32,0,0,0,.25.34l.22-.12q-.18-4.06-.43-6.61l.13-.17" transform="translate(-583.33 -242.9)"/><path class="cls-2" d="M613.4,490.56h-.17a.94.94,0,0,0-.3.38v.13a.42.42,0,0,0,.22.17c.1,0,.24-.12.42-.34v-.17c-.07-.12-.13-.17-.17-.17" transform="translate(-583.33 -242.9)"/><path class="cls-2" d="M739.24,366.68a.16.16,0,0,0,.14-.06.18.18,0,0,0,.06-.13,3.09,3.09,0,0,1,.15-1.09.15.15,0,0,0-.11-.2,4.9,4.9,0,0,0-1.87,0c-.93.08-1.86.11-2.8.2s-1.83.09-2.75.12-2,.25-2.95.31a.17.17,0,0,0-.15.18.15.15,0,0,0,.15.2c3.38,0,6.75.48,10.13.49" transform="translate(-583.33 -242.9)"/><path class="cls-2" d="M745.2,366.6c.94-.07,1.87-.11,2.81-.2s1.83-.09,2.75-.12,2-.25,2.94-.31a.17.17,0,0,0,.16-.18.16.16,0,0,0-.16-.2c-3.38,0-6.75-.48-10.13-.49a.16.16,0,0,0-.13.07.14.14,0,0,0-.06.12,3.1,3.1,0,0,1-.16,1.09.16.16,0,0,0,.12.2,4.85,4.85,0,0,0,1.86,0" transform="translate(-583.33 -242.9)"/><path class="cls-2" d="M742,367.56a1.56,1.56,0,0,0,.73-1.95,1.26,1.26,0,0,0-1.45-.61h0a1.24,1.24,0,0,0-1.24,1.58,1.6,1.6,0,0,0,2,1" transform="translate(-583.33 -242.9)"/><path class="cls-2" d="M786.86,373.56c-1.32,0-2.64,0-4,0q-11.76-.06-23.52-.06H719.68c-7,0-15.33,0-23.6.21H696a.29.29,0,0,0-.28.29v.19a.24.24,0,0,0,.09.2.27.27,0,0,0,.2.09h0c8.36-.19,16.77-.21,23.89-.21h32.33q14.49,0,29,.05c1.9,0,3.79,0,5.68,0a.26.26,0,0,0,.21-.09.27.27,0,0,0,.09-.21v-.18a.3.3,0,0,0-.29-.29" transform="translate(-583.33 -242.9)"/><path class="cls-2" d="M786.86,380.1l-4,0c-7.92,0-15.84,0-23.75-.05H719.7c-7,0-15.35,0-23.63.2H696a.29.29,0,0,0-.28.29v.19a.29.29,0,0,0,.09.21.3.3,0,0,0,.2.08h0c8.37-.18,16.81-.21,24-.21h32.26l29,.05,5.68,0a.29.29,0,0,0,.3-.29v-.18a.31.31,0,0,0-.29-.3" transform="translate(-583.33 -242.9)"/><path class="cls-2" d="M786.86,386.65c-1.32,0-2.64,0-4,0-7.93,0-15.86,0-23.79-.05H719.68c-7,0-15.33,0-23.6.21H696a.29.29,0,0,0-.28.29v.19a.27.27,0,0,0,.09.21.3.3,0,0,0,.2.08h0c8.37-.18,16.81-.2,24-.2h32.26l29,.05,5.68,0a.29.29,0,0,0,.21-.08.27.27,0,0,0,.09-.21v-.18a.29.29,0,0,0-.29-.29" transform="translate(-583.33 -242.9)"/><path class="cls-2" d="M786.86,393.19l-4,0q-11.76,0-23.52,0H754l-14.8,0H719.7c-7,0-15.35,0-23.62.21H696a.29.29,0,0,0-.28.29v.18a.27.27,0,0,0,.09.21.27.27,0,0,0,.2.09h0c8.35-.19,16.75-.22,23.87-.22h32.35q14.49,0,29,.06c1.9,0,3.79,0,5.68,0a.23.23,0,0,0,.21-.09.27.27,0,0,0,.09-.21v-.18a.3.3,0,0,0-.29-.29" transform="translate(-583.33 -242.9)"/><path class="cls-2" d="M786.86,399.73l-4,0c-7.92,0-15.84,0-23.75-.05H719.73c-7.05,0-15.38,0-23.65.2H696a.3.3,0,0,0-.28.3v.19a.29.29,0,0,0,.09.21.3.3,0,0,0,.2.08h0c8.36-.18,16.79-.21,23.94-.21h32.28q14.49,0,29,0c1.9,0,3.79,0,5.68,0a.26.26,0,0,0,.21-.09.25.25,0,0,0,.09-.2V400a.3.3,0,0,0-.29-.3" transform="translate(-583.33 -242.9)"/><path class="cls-2" d="M786.86,406.28c-1.32,0-2.64,0-4,0q-12,0-24.08,0H719.68c-7,0-15.33,0-23.61.2H696a.29.29,0,0,0-.28.3v.18a.29.29,0,0,0,.09.21.27.27,0,0,0,.2.09h0c8.36-.19,16.79-.22,23.94-.22h32.28l29,.05,5.68,0a.25.25,0,0,0,.21-.08.29.29,0,0,0,.09-.21v-.18a.29.29,0,0,0-.29-.29" transform="translate(-583.33 -242.9)"/><path class="cls-2" d="M739.24,415.22a.16.16,0,0,0,.14-.06.18.18,0,0,0,.06-.13,3.09,3.09,0,0,1,.15-1.09.15.15,0,0,0-.11-.2,4.9,4.9,0,0,0-1.87,0c-.93.07-1.86.1-2.8.2s-1.83.08-2.75.11-2,.26-2.95.31a.17.17,0,0,0-.15.19.15.15,0,0,0,.15.19c3.38,0,6.75.48,10.13.49" transform="translate(-583.33 -242.9)"/><path class="cls-2" d="M745.2,415.14c.94-.08,1.87-.1,2.81-.2s1.83-.09,2.75-.12,2-.25,2.94-.31a.18.18,0,0,0,.16-.19.16.16,0,0,0-.16-.19c-3.38,0-6.75-.47-10.13-.49a.23.23,0,0,0-.19.19,3.1,3.1,0,0,1-.16,1.09.16.16,0,0,0,.12.2,4.85,4.85,0,0,0,1.86,0" transform="translate(-583.33 -242.9)"/><path class="cls-2" d="M742,416.1a1.56,1.56,0,0,0,.73-2,1.23,1.23,0,0,0-1.45-.6h0a1.23,1.23,0,0,0-1.24,1.57,1.6,1.6,0,0,0,2,1" transform="translate(-583.33 -242.9)"/><path class="cls-2" d="M786.86,422.1l-4,0q-11.76,0-23.52-.05H719.68c-7,0-15.33,0-23.6.21H696a.29.29,0,0,0-.28.29v.19a.29.29,0,0,0,.09.21.3.3,0,0,0,.2.08h0c8.36-.18,16.77-.21,23.89-.21h32.33q14.49,0,29,.05c1.9,0,3.79,0,5.68,0a.29.29,0,0,0,.21-.08.29.29,0,0,0,.09-.22v-.17a.3.3,0,0,0-.29-.3" transform="translate(-583.33 -242.9)"/><path class="cls-2" d="M786.86,428.65c-1.32,0-2.64,0-4,0q-11.88,0-23.75,0H719.7c-7,0-15.35,0-23.63.21H696a.29.29,0,0,0-.28.29v.19a.29.29,0,0,0,.09.21.3.3,0,0,0,.2.08h0c8.37-.18,16.81-.21,24-.21h32.26l29,.05c1.9,0,3.79,0,5.68,0a.29.29,0,0,0,.3-.29v-.18a.29.29,0,0,0-.29-.29" transform="translate(-583.33 -242.9)"/><path class="cls-2" d="M786.86,435.19l-4,0c-7.93,0-15.86,0-23.79,0H719.68c-7,0-15.33,0-23.6.21H696a.29.29,0,0,0-.28.29v.18a.27.27,0,0,0,.09.21.27.27,0,0,0,.2.09h0c8.37-.19,16.81-.22,24-.22h32.26q14.49,0,29,.06c1.9,0,3.79,0,5.68,0a.23.23,0,0,0,.21-.09.27.27,0,0,0,.09-.21v-.18a.29.29,0,0,0-.29-.29" transform="translate(-583.33 -242.9)"/><path class="cls-2" d="M786.86,441.73l-4,0q-11.76,0-23.52-.05H719.7c-7,0-15.35,0-23.62.21H696a.3.3,0,0,0-.28.3v.19a.31.31,0,0,0,.29.29h0c8.35-.19,16.75-.21,23.87-.21h32.35q14.49,0,29,0c1.9,0,3.79,0,5.68,0a.23.23,0,0,0,.21-.08.27.27,0,0,0,.09-.21V442a.29.29,0,0,0-.29-.3" transform="translate(-583.33 -242.9)"/><path class="cls-2" d="M786.86,448.28c-1.32,0-2.64,0-4,0q-11.88,0-23.75,0H719.73c-7.05,0-15.38,0-23.65.2H696a.29.29,0,0,0-.28.29v.19a.29.29,0,0,0,.09.21.31.31,0,0,0,.2.09h0c8.36-.2,16.79-.22,23.94-.22h32.28q14.49,0,29,.05l5.68,0a.23.23,0,0,0,.21-.09.26.26,0,0,0,.09-.21v-.17a.29.29,0,0,0-.29-.29" transform="translate(-583.33 -242.9)"/><path class="cls-2" d="M786.86,454.82c-1.32,0-2.64,0-4,0-8,0-16,0-24.08-.06H719.68c-7,0-15.33,0-23.61.21H696a.3.3,0,0,0-.28.29v.2a.3.3,0,0,0,.09.21.3.3,0,0,0,.2.08h0c8.36-.19,16.79-.22,23.94-.22h32.28q14.49,0,29,.06c1.9,0,3.79,0,5.68,0a.29.29,0,0,0,.3-.29v-.18a.29.29,0,0,0-.29-.29" transform="translate(-583.33 -242.9)"/><path class="cls-2" d="M739.24,463.76a.18.18,0,0,0,.14-.06.18.18,0,0,0,.06-.13,3.12,3.12,0,0,1,.15-1.09.15.15,0,0,0-.11-.2,5.11,5.11,0,0,0-1.87,0c-.93.08-1.86.11-2.8.21s-1.83.09-2.75.11-2,.26-2.95.32a.2.2,0,0,0,0,.38c3.38,0,6.75.47,10.13.48" transform="translate(-583.33 -242.9)"/><path class="cls-2" d="M745.2,463.68c.94-.08,1.87-.1,2.81-.2s1.83-.09,2.75-.12,2-.26,2.94-.31a.18.18,0,0,0,.16-.19.16.16,0,0,0-.16-.19c-3.38,0-6.75-.47-10.13-.49a.23.23,0,0,0-.19.19,3.19,3.19,0,0,1-.16,1.1.17.17,0,0,0,.12.2,5.06,5.06,0,0,0,1.86,0" transform="translate(-583.33 -242.9)"/><path class="cls-2" d="M742,464.64a1.55,1.55,0,0,0,.73-1.94,1.23,1.23,0,0,0-1.45-.61h0a1.25,1.25,0,0,0-1.24,1.59,1.6,1.6,0,0,0,2,1" transform="translate(-583.33 -242.9)"/><path class="cls-2" d="M786.86,470.65c-1.32,0-2.64,0-4,0q-11.76,0-23.52,0H719.68c-7,0-15.33,0-23.6.2H696a.29.29,0,0,0-.28.29v.19a.29.29,0,0,0,.09.21.3.3,0,0,0,.2.08h0c8.36-.18,16.77-.21,23.89-.21h32.33q14.49,0,29,.05c1.9,0,3.79,0,5.68,0a.26.26,0,0,0,.21-.09.27.27,0,0,0,.09-.2v-.18a.29.29,0,0,0-.29-.29" transform="translate(-583.33 -242.9)"/><path class="cls-2" d="M786.86,477.19c-1.32,0-2.64,0-4,0q-11.88-.06-23.75,0H719.7c-7,0-15.35,0-23.63.21H696a.3.3,0,0,0-.28.29v.19a.27.27,0,0,0,.09.21.27.27,0,0,0,.2.09h0c8.37-.19,16.81-.22,24-.22h32.26q14.49,0,29,.05l5.68,0a.25.25,0,0,0,.21-.08.29.29,0,0,0,.09-.21v-.18a.29.29,0,0,0-.29-.29" transform="translate(-583.33 -242.9)"/><path class="cls-2" d="M786.86,483.73l-4,0q-11.89,0-23.79-.05H719.68c-7,0-15.33,0-23.6.21H696a.3.3,0,0,0-.28.3v.18a.27.27,0,0,0,.09.21.27.27,0,0,0,.2.09h0c8.37-.18,16.81-.22,24-.22h32.26q14.49,0,29,0c1.9,0,3.79,0,5.68,0a.25.25,0,0,0,.21-.08.27.27,0,0,0,.09-.21V484a.29.29,0,0,0-.29-.29" transform="translate(-583.33 -242.9)"/><path class="cls-2" d="M786.86,490.28c-1.32,0-2.64,0-4,0q-11.76,0-23.52-.05H719.7c-7,0-15.35,0-23.62.2H696a.29.29,0,0,0-.28.29v.19a.29.29,0,0,0,.09.21.31.31,0,0,0,.2.09h0c8.35-.2,16.75-.22,23.87-.22h32.35q14.49,0,29,.05c1.9,0,3.79,0,5.68,0a.31.31,0,0,0,.3-.3v-.17a.29.29,0,0,0-.29-.29" transform="translate(-583.33 -242.9)"/><path class="cls-2" d="M786.86,496.82c-1.32,0-2.64,0-4,0q-11.88-.06-23.75-.06H719.73c-7.05,0-15.38,0-23.65.21H696a.29.29,0,0,0-.28.29v.2a.31.31,0,0,0,.29.29h0c8.36-.19,16.79-.22,23.94-.22h32.28q14.49,0,29,.05l5.68,0a.29.29,0,0,0,.3-.29v-.18a.29.29,0,0,0-.29-.29" transform="translate(-583.33 -242.9)"/><path class="cls-2" d="M786.86,503.36l-4,0-24.08-.06H719.68c-7,0-15.33,0-23.61.21H696a.3.3,0,0,0-.28.3v.19a.3.3,0,0,0,.09.21.3.3,0,0,0,.2.08h0c8.36-.19,16.79-.22,23.94-.22h3.15l14,0h15.15q14.49,0,29,0c1.9,0,3.79,0,5.68,0a.23.23,0,0,0,.21-.08.27.27,0,0,0,.09-.21v-.18a.29.29,0,0,0-.29-.29" transform="translate(-583.33 -242.9)"/><path class="cls-2" d="M798.05,517.17q0,3.15.22,6.3c.08,1.32.91,4.9-.06,5.34a64.06,64.06,0,0,1-10.72,3.61c-14.71,3.74-30.1,3.18-45,2.16s-29.84-3-44.83-3.63c-8.43-.34-16.86.2-25.29.4-9.5.23-19,.37-28.52.54-12.47.21-15.88-1.25-28.34-.74-3,.13-6,.27-9,.42l-4.49.26c-1.38.09-3.33-.19-4.64.3l-.35.12c-3.43-20.68-4.61-41.73-5.59-62.75-1-21.2-3-42.47-2.76-63.72.07-5.54,1.12-30.74,1.34-37.82.73-24,2.17-92.46,2.12-102.45,0-2.1-.08-4.21-.22-6.3-.08-1.31-.91-4.91.06-5.34a65.34,65.34,0,0,1,10.72-3.62c14.72-3.74,30.1-3.18,45-2.15s29.85,3,44.83,3.63c8.42.34,16.86-.2,25.29-.4,9.5-.23,19-.37,28.52-.54,12.47-.22,15.87,1.25,28.34.74,3-.12,6-.27,9-.43,1.49-.07,3-.16,4.49-.25s3.34.19,4.64-.3l.35-.13c3.43,20.69,4.62,41.74,5.59,62.76,1,21.2,3,42.47,2.76,63.72-.07,5.53-1.12,30.73-1.34,37.82C799.44,438.69,798,507.18,798.05,517.17Zm3.13-94.76c.12-11.08,1.37-39.64,1.45-42.85.31-15-.9-29.78-1.7-44.73-1.53-28.72-2-57.62-6.83-85.91-.07-.43-3.37.44-3.61.46l-3.36.21c-4.88.28-9.75.51-14.64.7-9.43.38-9.81-1.13-19.25-.95-18.55.36-37.17,1.31-55.71,1.19-29.5-.21-59-7.66-88.48-2.93A72.62,72.62,0,0,0,590.7,253a.68.68,0,0,0-.31.55c-.17,2.7.36,5.5.48,8.19.16,3.7.09,7.42,0,11.12-.26,8-1.63,66.46-1.86,87.39-.12,11.09-1.37,39.65-1.44,42.86-.33,15,.89,29.78,1.68,44.72,1.55,28.72,2,57.63,6.83,85.92.08.43,3.38-.45,3.62-.46,1.12-.08,2.24-.14,3.37-.21q7.31-.42,14.63-.71c9.43-.37,9.81,1.15,19.25,1,18.55-.36,37.17-1.31,55.72-1.18,29.5.19,59,7.65,88.47,2.92a73,73,0,0,0,18.35-5.41.69.69,0,0,0,.32-.56c.16-2.69-.37-5.49-.49-8.18-.16-3.7-.09-7.42,0-11.12.26-8,1.63-66.46,1.86-87.4" transform="translate(-583.33 -242.9)"/><rect class="cls-3" width="220" height="301"/></svg>