<svg id="Livello_1" data-name="Livello 1" xmlns="http://www.w3.org/2000/svg" viewBox="0 0 190.12 112.88"><defs><style>.cls-1{fill:#cc0b36;}.cls-2,.cls-4{fill:none;stroke:#332421;stroke-miterlimit:10;}.cls-2{stroke-width:1.35px;}.cls-3{fill:#332421;}</style></defs><path class="cls-1" d="M645.91,567.74a2.7,2.7,0,0,1,1.31.32,1.73,1.73,0,0,1,.81,1.13l-.2.16a1.79,1.79,0,0,0-.69-1,1.93,1.93,0,0,0-1.09-.3,1.79,1.79,0,0,0-1.55,1,5.47,5.47,0,0,0-.6,3,8.33,8.33,0,0,0,.24,2.11,2.68,2.68,0,0,0,.72,1.25,1.7,1.7,0,0,0,1.17.41,1.59,1.59,0,0,0,1.19-.56,2.77,2.77,0,0,0,.66-1.67l.19.23a3,3,0,0,1-.77,1.83,2.3,2.3,0,0,1-1.72.66,3.1,3.1,0,0,1-1.7-.47,2.89,2.89,0,0,1-1.11-1.42,6.12,6.12,0,0,1-.38-2.36,5.14,5.14,0,0,1,.49-2.38,3.35,3.35,0,0,1,3-1.89Zm3.27-4v10.59a1.67,1.67,0,0,0,.26,1,1.13,1.13,0,0,0,.94.34V576c-.33,0-.66,0-1,0a6.35,6.35,0,0,0-.87,0,2.8,2.8,0,0,0-.76.17V565.62a1.84,1.84,0,0,0-.25-1,1.14,1.14,0,0,0-.94-.33v-.33c.33,0,.65.05,1,.05a6.4,6.4,0,0,0,.88-.06,3.56,3.56,0,0,0,.79-.15Z" transform="translate(-509.39 -541.32)"/><path class="cls-1" d="M655,567.74a2.81,2.81,0,0,1,2.16.83,3.75,3.75,0,0,1,.77,2.62H652.4v-.3h4a5.18,5.18,0,0,0-.12-1.42,2.4,2.4,0,0,0-.5-1,1.08,1.08,0,0,0-.87-.4,1.59,1.59,0,0,0-1.31.73A4.37,4.37,0,0,0,653,571l0,.07c0,.16,0,.33,0,.52s0,.38,0,.56a4.47,4.47,0,0,0,.35,1.84,2.86,2.86,0,0,0,.9,1.17,1.9,1.9,0,0,0,1.15.39,2.53,2.53,0,0,0,.9-.14,2.31,2.31,0,0,0,.78-.5,2.8,2.8,0,0,0,.65-.92l.32.13a3.32,3.32,0,0,1-.57,1,2.9,2.9,0,0,1-2.37,1.09,3.47,3.47,0,0,1-2-.51,3.33,3.33,0,0,1-1.24-1.44,4.78,4.78,0,0,1-.43-2.11,6,6,0,0,1,.43-2.37,3.43,3.43,0,0,1,1.25-1.54A3.2,3.2,0,0,1,655,567.74Z" transform="translate(-509.39 -541.32)"/><path class="cls-1" d="M661.93,567.74a2.36,2.36,0,0,1,1.08.2,2.84,2.84,0,0,1,.65.38c.35.28.57.09.65-.57h.36c0,.29,0,.65,0,1s0,.94,0,1.62h-.42a4.42,4.42,0,0,0-.32-1.13,2.15,2.15,0,0,0-.65-.9,1.74,1.74,0,0,0-1.14-.36,1.39,1.39,0,0,0-.92.31,1.09,1.09,0,0,0-.37.9,1.21,1.21,0,0,0,.28.81,3.29,3.29,0,0,0,.74.65l1,.66c.37.24.73.49,1.08.77a3.37,3.37,0,0,1,.78.86,2.07,2.07,0,0,1,.29,1.11,1.94,1.94,0,0,1-.38,1.21,2.33,2.33,0,0,1-1,.74,3.42,3.42,0,0,1-1.3.25,4.89,4.89,0,0,1-.66,0,3.06,3.06,0,0,1-.59-.17,2.69,2.69,0,0,1-.32-.19l-.32-.23a.17.17,0,0,0-.25,0l0,0a1.06,1.06,0,0,0-.19.52h-.36c0-.33,0-.74,0-1.22s0-1.12,0-1.92H660a10.13,10.13,0,0,0,.31,1.55,2.11,2.11,0,0,0,.66,1,1.84,1.84,0,0,0,1.22.37,1.62,1.62,0,0,0,.65-.14,1.23,1.23,0,0,0,.54-.47,1.59,1.59,0,0,0,.23-.88,1.45,1.45,0,0,0-.51-1.13,9.84,9.84,0,0,0-1.3-.92c-.38-.25-.73-.49-1.06-.73a3.24,3.24,0,0,1-.8-.81,2,2,0,0,1,.52-2.72,2,2,0,0,1,.35-.2A3.13,3.13,0,0,1,661.93,567.74Z" transform="translate(-509.39 -541.32)"/><path class="cls-1" d="M669,567.74a2.28,2.28,0,0,1,1.06.2,2.7,2.7,0,0,1,.66.38c.34.28.55.09.65-.57h.36c0,.29,0,.65,0,1v1.62h-.35a5.44,5.44,0,0,0-.33-1.13,2.15,2.15,0,0,0-.65-.9,1.74,1.74,0,0,0-1.14-.36,1.39,1.39,0,0,0-.92.31,1.11,1.11,0,0,0-.37.9,1.2,1.2,0,0,0,.28.81,3.29,3.29,0,0,0,.74.65l1,.66c.37.24.73.49,1.08.77a3.37,3.37,0,0,1,.78.86,2.07,2.07,0,0,1,.29,1.11,1.92,1.92,0,0,1-.38,1.21,2.37,2.37,0,0,1-1,.74,3.47,3.47,0,0,1-1.31.25,4.62,4.62,0,0,1-.65,0,3.06,3.06,0,0,1-.59-.17,2.07,2.07,0,0,1-.32-.19l-.32-.23a.19.19,0,0,0-.27,0l0,0a1,1,0,0,0-.18.52h-.37c0-.33,0-.74.05-1.22s0-1.12,0-1.92h.36a9.07,9.07,0,0,0,.32,1.55,2.09,2.09,0,0,0,.65,1,1.79,1.79,0,0,0,1.22.37,1.66,1.66,0,0,0,.66-.14,1.29,1.29,0,0,0,.54-.47,1.59,1.59,0,0,0,.21-.88,1.43,1.43,0,0,0-.49-1.13,10.66,10.66,0,0,0-1.31-.92c-.37-.25-.73-.49-1.06-.73a3.24,3.24,0,0,1-.8-.81,2,2,0,0,1,.52-2.72,2.43,2.43,0,0,1,.35-.2A3.14,3.14,0,0,1,669,567.74Z" transform="translate(-509.39 -541.32)"/><path class="cls-1" d="M677,567.74a2.79,2.79,0,0,1,2.15.83,3.76,3.76,0,0,1,.78,2.62h-5.54v-.3h4a5.19,5.19,0,0,0-.13-1.42,2.5,2.5,0,0,0-.49-1,1.1,1.1,0,0,0-.87-.4,1.59,1.59,0,0,0-1.31.73A4.17,4.17,0,0,0,675,571l0,.07c0,.16,0,.33,0,.52a5.23,5.23,0,0,0,0,.56,4.46,4.46,0,0,0,.34,1.84,2.86,2.86,0,0,0,.9,1.17,1.93,1.93,0,0,0,1.16.39,2.48,2.48,0,0,0,.89-.14,2.35,2.35,0,0,0,.79-.5,3.14,3.14,0,0,0,.65-.92l.31.13a3.32,3.32,0,0,1-.57,1,2.9,2.9,0,0,1-1,.79,2.87,2.87,0,0,1-1.38.3,3.45,3.45,0,0,1-2-.51,3.36,3.36,0,0,1-1.25-1.44,5.08,5.08,0,0,1-.43-2.11,5.84,5.84,0,0,1,.44-2.37,3.48,3.48,0,0,1,1.24-1.54A3.23,3.23,0,0,1,677,567.74Z" transform="translate(-509.39 -541.32)"/><path class="cls-1" d="M686,567.74a1.5,1.5,0,0,1,.75.17,1.35,1.35,0,0,1,.5.45,1.07,1.07,0,0,1,.18.65,1,1,0,0,1-.25.65.79.79,0,0,1-.65.31.89.89,0,0,1-.58-.22.73.73,0,0,1-.26-.6.82.82,0,0,1,.17-.51,1.33,1.33,0,0,1,.37-.34.36.36,0,0,0-.33-.16,1.45,1.45,0,0,0-.89.3,2.47,2.47,0,0,0-.7.74,4.14,4.14,0,0,0-.43,1,3.12,3.12,0,0,0-.16,1v3.32a1.11,1.11,0,0,0,.44,1,2.47,2.47,0,0,0,1.22.26V576l-1,0h-2.46l-.79,0v-.33a1.47,1.47,0,0,0,.91-.24,1.14,1.14,0,0,0,.28-.9v-4.93a1.79,1.79,0,0,0-.25-1,1.1,1.1,0,0,0-.94-.34v-.33c.33,0,.65.05,1,.05a6.36,6.36,0,0,0,.87-.06,4.89,4.89,0,0,0,.76-.16v2a4.55,4.55,0,0,1,.5-.92A3,3,0,0,1,685,568,1.79,1.79,0,0,1,686,567.74Z" transform="translate(-509.39 -541.32)"/><path class="cls-1" d="M690.6,565.35V568h2.32v.32H690.6v6.07a1.5,1.5,0,0,0,.27,1,1,1,0,0,0,.74.31,1.1,1.1,0,0,0,.81-.39A3.33,3.33,0,0,0,693,574l.31.08a3.63,3.63,0,0,1-.65,1.54,1.64,1.64,0,0,1-1.42.65,2.61,2.61,0,0,1-.88-.13,1.77,1.77,0,0,1-.61-.39,1.88,1.88,0,0,1-.48-.86,5.78,5.78,0,0,1-.14-1.31v-5.23h-1.5V568h1.5v-2.4a3.17,3.17,0,0,0,.76-.06A3.26,3.26,0,0,0,690.6,565.35Z" transform="translate(-509.39 -541.32)"/><path class="cls-1" d="M696.44,567.74a2.28,2.28,0,0,1,1.06.2,2.41,2.41,0,0,1,.66.38c.34.28.55.09.65-.57h.36c0,.29,0,.65,0,1s0,.94,0,1.62h-.36a5.42,5.42,0,0,0-.32-1.13,2.27,2.27,0,0,0-.66-.9,1.75,1.75,0,0,0-1.15-.36,1.38,1.38,0,0,0-.91.31,1.11,1.11,0,0,0-.37.9,1.2,1.2,0,0,0,.28.81,3.52,3.52,0,0,0,.74.65l1,.66a11.22,11.22,0,0,1,1.08.77,3.37,3.37,0,0,1,.78.86,2.07,2.07,0,0,1,.29,1.11,1.86,1.86,0,0,1-.38,1.21,2.25,2.25,0,0,1-1,.74,3.47,3.47,0,0,1-1.31.25,4.74,4.74,0,0,1-.65,0,3.06,3.06,0,0,1-.59-.17,2.79,2.79,0,0,1-.33-.19l-.32-.23a.17.17,0,0,0-.25,0l0,0a1.06,1.06,0,0,0-.19.52h-.36c0-.33,0-.74,0-1.22s0-1.12,0-1.92h.36a9.05,9.05,0,0,0,.31,1.55,2.11,2.11,0,0,0,.66,1,1.84,1.84,0,0,0,1.22.37,1.62,1.62,0,0,0,.65-.14,1.23,1.23,0,0,0,.54-.47,1.5,1.5,0,0,0,.22-.88,1.44,1.44,0,0,0-.5-1.13,10.24,10.24,0,0,0-1.27-.92c-.38-.25-.73-.49-1.06-.73a3.24,3.24,0,0,1-.8-.81,1.87,1.87,0,0,1-.3-1.1,1.8,1.8,0,0,1,1.17-1.82A3.26,3.26,0,0,1,696.44,567.74Z" transform="translate(-509.39 -541.32)"/><path class="cls-1" d="M651.22,581c.65,11-4.65,21.92-15.57,25.5a35,35,0,0,1-10.59,1.82V607a33.92,33.92,0,0,0,10.3-1.44c10.77-3.12,16.22-13.8,15.88-24.54Z" transform="translate(-509.39 -541.32)"/><path class="cls-2" d="M616.59,591.55a19.65,19.65,0,0,0-1.13-10.11c-.87-2-1.16-1.31-8.05-9.26a24.52,24.52,0,0,1-3.55-4.8c-1.39-2.61-1.11-3.5-2.4-5.47a13,13,0,0,0-5.16-4.47c-2.62-1.31-3.35-.54-8.36-1.67-3.18-.72-5.29-1.2-7.7-2.62-3.11-1.84-3.1-3.1-5.81-4.12-2.2-.82-4.09-.68-6.48-.51-4,.28-4.31,1.24-8.94,1.82-3.12.39-3.41,0-7,.52a23.3,23.3,0,0,0-5.83,1.25c-2.26.93-2.49,1.7-7.54,5.57a48.24,48.24,0,0,1-4.88,3.51c-3.27,1.85-4.07,1.43-6.06,3.14a15.71,15.71,0,0,0-3.61,4.65,16.59,16.59,0,0,0-1.15,2.76,17.34,17.34,0,0,0-.53,2.35,20.77,20.77,0,0,1-2.83,7.32c-.81,1.22-.83.85-2,2.36a15.53,15.53,0,0,0-3.46,7.72,13.44,13.44,0,0,0,.8,5.4c1,3.71,2.36,4.8,2.45,7.9,0,1-.12.78-.39,3.33-.47,4.55-.71,6.82.05,8.72s2.17,3.06,4.89,5.29c2.36,2,3.22,2,4.43,3.71.71,1,.65,1.39,2.18,4.19.34.65,1.18,2.2,1.79,3.16a17.64,17.64,0,0,0,5.74,5.4c3.34,2,4.12,1,10.37,3.52,2.06.82,2,.92,5.27,2.28,3.85,1.59,5.81,2.38,7.38,2.46,3.1.17,3.21-1.19,7.15-1.57,3.75-.37,4,.83,8.31.72a19.71,19.71,0,0,0,8.61-1.91c1.69-.84,1.55-1.14,6.32-4.77,3-2.31,4.57-3.47,5.82-4.23,4.4-2.61,6.3-2.52,8.68-5.23a16.72,16.72,0,0,0,2.11-3.2c2-3.46,1.82-4.83,3.18-8,2.24-5.28,4.19-5.29,5.7-10.38a19.47,19.47,0,0,0,.87-4.41c.25-2.93-.33-4.06-.23-7C615.79,594.35,616.28,593.89,616.59,591.55ZM605.8,579.27a3.16,3.16,0,0,1,1.17.26,3.83,3.83,0,0,1,1.59,1,8.17,8.17,0,0,1,.87,1.72c.35.75.53,1.14.56,1.24a3.49,3.49,0,0,1-.7,2.55l-1,1.67-1.54,2.57c-1.16,1.37-2.3,2.77-3.42,4.18-1.61,2-3.18,4.08-4.79,6.1-1.44,1.83-2.9,3.63-4.43,5.38-2.92,3.35-4.3,5.12-5.53,6.73l-2.77-2.61c-1.31-1.23-2.48-2.31-3.49-3.23.36-.53.78-1.12,1.31-1.79,1.76-2.39,2.46-3.08,5.11-6.28l3-3.63c2.08-2.52,3.68-4.47,5-6.13h0c1.08-1.35,2-2.52,2.78-3.62,1.19-1.63,2.92-2.81,4.08-4.45a4.37,4.37,0,0,1,1.53-1.52,1.56,1.56,0,0,1,.67-.15Zm-16.34-17.11a3.11,3.11,0,0,1,1.86-1,4.28,4.28,0,0,1,2.28.73c1.38.66,2.07,1,2.5,1.75a3.28,3.28,0,0,1,.36,2.06,3.34,3.34,0,0,1-.7,1.54,5.11,5.11,0,0,1-.73.74c-2,1.72-3.06,4.19-4.81,6.1s-3.27,3.64-4.83,5.51l-.56-.45c-2.38-2-2.23-1.67-6.27-4.81,2.26-2.76,6.21-7.45,10.29-11.56.18-.2.41-.41.62-.61Zm-22.13,3c2-2.32,1.88-2.26,1.93-2.3,1.65-1.44,2.69-3.46,4.18-5a5.69,5.69,0,0,0,.72-.9,2.68,2.68,0,0,0,.42-1.53,2.35,2.35,0,0,0-.2-.83,4.28,4.28,0,0,0-4.34-2.24,4.2,4.2,0,0,0-1.63.65,34.7,34.7,0,0,0-4.07,3.07,15.07,15.07,0,0,0-1.68,1.71c-.69.9-1.4,1.79-2.12,2.66a14.08,14.08,0,0,1-1.14-.9c-1-.88-1.73-1.73-2.78-2.57a15.24,15.24,0,0,0-1.48-1.05,19.47,19.47,0,0,0-2.3-1.11c-1.34-.6-1.78-.69-2.26-.61a3,3,0,0,0-1.43.8,4.19,4.19,0,0,0-1.55,2.35,2.54,2.54,0,0,0,.65,1.84,20.94,20.94,0,0,0,1.31,1.64c1.65,2,2.47,3,3.21,3.75s1.64,1.57,2.43,2.24c1.8-2.12,3.63-4.23,5.39-6.38" transform="translate(-509.39 -541.32)"/><path class="cls-2" d="M534.36,567.71a40.4,40.4,0,0,1,13.89-8.57" transform="translate(-509.39 -541.32)"/><path class="cls-2" d="M588.86,562.77c-1.37-.65-2.77-1.3-4.22-2-2.76-1.23-4.66-1.91-7.31-2.84-1.25-.45-2.26-.77-3.16-1" transform="translate(-509.39 -541.32)"/><path class="cls-2" d="M598.69,622.77c4.71-6.24,7.76-10.46,9.43-15.11" transform="translate(-509.39 -541.32)"/><path class="cls-2" d="M609.65,599.45a40.05,40.05,0,0,0-1.13-10.85c-.06-.25-.13-.55-.23-.87" transform="translate(-509.39 -541.32)"/><path class="cls-2" d="M540.36,631.34a32.92,32.92,0,0,0,7.94,4.84c1.2.51,2.08.79,3.83,1.36,1,.33,2.11.66,3.27,1" transform="translate(-509.39 -541.32)"/><path class="cls-2" d="M523.29,587.75c1-3.37,1.47-5.1,2-6.33a41,41,0,0,1,4.29-7.86" transform="translate(-509.39 -541.32)"/><path class="cls-2" d="M526.28,612.9c.38,1.14.42,1.71,1,3.21a25.27,25.27,0,0,0,3.86,6.42,28.7,28.7,0,0,0,2.72,3.11" transform="translate(-509.39 -541.32)"/><path class="cls-2" d="M521.56,595.32a22,22,0,0,0,1.06,9.57" transform="translate(-509.39 -541.32)"/><path class="cls-2" d="M583.15,636.6a31.54,31.54,0,0,0,3.71-1.89,29.6,29.6,0,0,0,6.78-5.69" transform="translate(-509.39 -541.32)"/><path class="cls-2" d="M564.91,640.37a34.15,34.15,0,0,0,9.81-1" transform="translate(-509.39 -541.32)"/><path class="cls-2" d="M605.1,579.44a38,38,0,0,0-9.33-12.2" transform="translate(-509.39 -541.32)"/><path class="cls-2" d="M564.36,556a58.83,58.83,0,0,0-7.73.9" transform="translate(-509.39 -541.32)"/><path class="cls-2" d="M531.26,593.68c-1.87-1.53-4-3.27-6.32-4.94a10.61,10.61,0,0,0-1.65-1l-.88-.43a3.16,3.16,0,0,0-1.49-.48,3,3,0,0,0-2.2,1.42,3.83,3.83,0,0,0-.53,2.91c.22,1,.81,1.62,1.91,2.7l1.46,1.45c1.1,1.09,1.72,1.68,2,1.91a33.63,33.63,0,0,1,2.85,2.62" transform="translate(-509.39 -541.32)"/><path class="cls-2" d="M533,605.84h0c1.91,1.65,4.58,3.92,8.06,6.83.87.73,1.8,1.49,2.88,2.37,1.76,1.44,3.92,3.16,6.8,5.5l3.47,2.78c6.12,4.93,7.77,6.23,8.5,6.78" transform="translate(-509.39 -541.32)"/><path class="cls-2" d="M538.19,599.71c1.3,1.14,3.85,3.27,7.95,6.73l3.27,2.77c1.88,1.57,4,3.31,6.3,5.23l4,3.27c3.27,2.61,3.41,2.7,8.43,6.72" transform="translate(-509.39 -541.32)"/><path class="cls-2" d="M569,635.31a41.23,41.23,0,0,0,3.77,2.79,19.06,19.06,0,0,1,2,1.27c.25.18.49.38.76.61a6,6,0,0,0,1.3,1.06,4.43,4.43,0,0,0,2.49.6,5.34,5.34,0,0,0,3.27-1.87c.65-.65,1-1,1.11-1.64a2.19,2.19,0,0,0-.5-1.53,9,9,0,0,0-1.31-1.31,36.71,36.71,0,0,0-5.79-4.51,20.8,20.8,0,0,1-1.82-1.43" transform="translate(-509.39 -541.32)"/><path class="cls-2" d="M558.34,598.8c-5.18-4.06-7.88-6.19-10.5-8.31-.4-.32-.78-.66-1.15-.93-3-2.4-5.14-4.22-6.74-5.6-6.5-5.6-3.67-4.12-6.64-6.29a19.91,19.91,0,0,1-3.77-4.11l-.56-.8a4.36,4.36,0,0,1-1-2.81,2.72,2.72,0,0,1,.62-2.11c.29-.25.46-.18,1.07-.58s.66-.62,1-.79a2.57,2.57,0,0,1,2.06.26,6.62,6.62,0,0,1,1.62,1,9.58,9.58,0,0,1,.8.76c1.15,1.21,2.47,2.26,3.66,3.43a58.24,58.24,0,0,0,4.57,3.86l2.62,2.1c2.69,2.12,4.4,3.43,6.38,5,.93.73,1.91,1.51,3.06,2.45,2.7,2.17,5,4.15,6.27,5.17l2.06,1.74" transform="translate(-509.39 -541.32)"/><path class="cls-2" d="M570.34,597.57c3.08,2.29,3,1.88,6,4.13,1.55,1.17,3.27,2.7,6,5.16l3.49,3.23c1.17,1.09,2.07,2,2.77,2.62,3,2.78,2.3,2.28,3.18,3a55.18,55.18,0,0,1,6.93,7.08c.27.33.54.65.8,1a2,2,0,0,1,.56,1.53c0,.2-.11.32-.71,1.35-.45.76-.43.75-.45.77a4.62,4.62,0,0,1-2.84,1.75,4.71,4.71,0,0,1-2.41-.18,8.62,8.62,0,0,1-1.13-.46,7.77,7.77,0,0,1-3-2.56,39.57,39.57,0,0,0-6.49-6.38c-1.37-1.16-2.75-2.31-4-3.54-.66-.58-1.22-1.14-1.79-1.67-3-2.78-5.43-4.84-7.08-6.24-1.8-1.53-3-2.53-5.17-4.2" transform="translate(-509.39 -541.32)"/><path class="cls-2" d="M567.34,565.19c.83.72,1.9,1.65,3.6,3.06,2.07,1.72,3.52,2.86,6.36,5.08l1.31,1c4,3.14,3.88,2.85,6.27,4.81l.55.45c4.63,3.84,5.06,4.9,9.38,8.08.87.65,1.47,1.06,2,1.36-1.31,1.67-2.92,3.62-5,6.14-.32-.22-.66-.47-1.11-.82-.83-.65-.95-.82-2.27-2-1.49-1.31-1.85-1.5-3.26-2.71s-2.51-2.17-3.19-2.78-1-.9-1.48-1.25c-1.7-1.35-2.92-2-5.94-4.35l-1-.76c-4-3.19-5-4.58-8-6.43-.42-.27-1.72-1.07-3.49-2.28l-.15-.1" transform="translate(-509.39 -541.32)"/><path class="cls-2" d="M560.56,560.41c-1.77,2.16-3.59,4.26-5.39,6.38" transform="translate(-509.39 -541.32)"/><path class="cls-2" d="M612,603.29c-.26.66-.39,1.4-.61,2.08-.65,2.07-.65,2.26-1,2.45a2.46,2.46,0,0,1-1.69,0,4.74,4.74,0,0,1-.57-.17,3.86,3.86,0,0,1-.74-.35,12.64,12.64,0,0,1-2.62-2.22,30.42,30.42,0,0,0-3-2.19c-1.77-1.26-2.79-2-3.27-2.32,1.61-2,3.19-4.08,4.8-6.11,1.45,1.56,2.13,2.54,3.86,3.41a10.33,10.33,0,0,1,2.45,1.57,2.8,2.8,0,0,1,.71,1,2.21,2.21,0,0,0,.65,1.11c.48.42,1,.36,1.16.74S612.15,602.86,612,603.29Z" transform="translate(-509.39 -541.32)"/><path class="cls-2" d="M540,584a26.55,26.55,0,0,0-2.19,2,95.06,95.06,0,0,0-6.5,7.67c-1,1.27-2.14,2.71-3.43,4.37-.66.83-1.08,1.38-1.42,1.82-.66.81-1,1.27-2,2.51-.66.81-1.19,1.7-1.83,2.51a10.59,10.59,0,0,1-1,1.19,4.38,4.38,0,0,0-1.12,1.51,3.74,3.74,0,0,0-.31,2.06,4.18,4.18,0,0,0,1.19,2.27,9.6,9.6,0,0,1,1,1c.51.65.5,1,.83,1.14.65.42,1.82-.28,2.12-.46a9,9,0,0,0,.93-.69,65.54,65.54,0,0,0,6.78-7.06h0c1.77-2,3.56-4.19,5.15-6.12,1.78-2.17,3.3-4.06,4.25-5.19.35-.44,0,0,3.3-3.87l1-1.1" transform="translate(-509.39 -541.32)"/><path class="cls-2" d="M552.43,582.85l3.43-4.05,6-7,5.53-6.54" transform="translate(-509.39 -541.32)"/><path class="cls-2" d="M546,577.86c1.3-1.54,3-3.57,5.39-6.54,1.22-1.53,2.48-3,3.75-4.52,1.8-2.12,3.62-4.22,5.39-6.37" transform="translate(-509.39 -541.32)"/><path class="cls-2" d="M550.78,620.55c-3.26,3.77-7.19,7-10.46,10.79-.2.23-.39.48-.58.72a3.78,3.78,0,0,1-2.53,1.62,4.09,4.09,0,0,1-2.54-1.16,5.49,5.49,0,0,1-2-2.62,3.66,3.66,0,0,1-.17-2.07,3.31,3.31,0,0,1,.57-1.18c.26-.36.52-.7.77-1a29.61,29.61,0,0,1,4.7-5c.5-.37,2.19-2.14,5.42-5.55" transform="translate(-509.39 -541.32)"/><path class="cls-2" d="M585.4,579.59l-.56-.45c-2.38-2-2.23-1.67-6.27-4.81" transform="translate(-509.39 -541.32)"/><path class="cls-2" d="M580.39,585.67c-1.76,2.14-3.51,4.27-5.32,6.37-1.35,1.56-2.94,3.41-4.73,5.53-1.64,1.92-3.45,4.07-5.41,6.4l-2.68,3.22c-2.56,2.61-4.73,5.09-6.54,7.24" transform="translate(-509.39 -541.32)"/><path class="cls-2" d="M573.46,580.56l-2.08,2.49c-3.06,3.68-4.19,5.07-7.58,9.16l-.81,1-4.65,5.62c-1.72,2.07-2.87,3.44-3.74,4.46-2,2.33-3.55,4.14-5.18,6" transform="translate(-509.39 -541.32)"/><path class="cls-2" d="M577.18,614.41c-2,2.52-4.34,5-8.1,9l-1,1c-2.62,2.76-4.37,4.62-5.42,5.7-.55.56-.91.91-1.09,1.06-2.08,1.7-3.2,3.21-5.44,6.21a8,8,0,0,0-.77,1.21,2.61,2.61,0,0,0-.26,1.71,3.78,3.78,0,0,0,2.11,2.18,5.19,5.19,0,0,0,2.54.53,6.49,6.49,0,0,0,2.47-.46,6.16,6.16,0,0,0,2.62-2.17c.27-.38.47-.72.59-.93a22.33,22.33,0,0,1,3.44-4.13,41.72,41.72,0,0,0,3.15-3.36c.87-1.08,1.55-1.89,2.17-2.61,1.89-2.17,3.21-3.37,7.29-8l1.46-1.68" transform="translate(-509.39 -541.32)"/><path class="cls-2" d="M588.58,612.68l-2.77-2.61c-1.31-1.23-2.48-2.31-3.49-3.23" transform="translate(-509.39 -541.32)"/><path class="cls-3" d="M520.27,591.59a29.29,29.29,0,0,1,6.66,5.11A28.8,28.8,0,0,1,520.27,591.59Z" transform="translate(-509.39 -541.32)"/><path class="cls-3" d="M521.84,589.49a7.78,7.78,0,0,1,3.51,2.53A7.93,7.93,0,0,1,521.84,589.49Z" transform="translate(-509.39 -541.32)"/><path class="cls-3" d="M522.69,588.32a3,3,0,0,1,2.09,1.63A3,3,0,0,1,522.69,588.32Z" transform="translate(-509.39 -541.32)"/><path class="cls-3" d="M516.41,589.25a52.71,52.71,0,0,0,1.06,6A7,7,0,0,1,516.41,589.25Z" transform="translate(-509.39 -541.32)"/><path class="cls-3" d="M518.32,598.08a4,4,0,0,1,.48,1.3.73.73,0,0,1-.48-1.3Z" transform="translate(-509.39 -541.32)"/><path class="cls-3" d="M520.9,583.24a55.57,55.57,0,0,1,5.28-10.33,55.05,55.05,0,0,1-5.28,10.34Z" transform="translate(-509.39 -541.32)"/><path class="cls-3" d="M523.88,579.53a3.84,3.84,0,0,1,1.42-2.66A3.91,3.91,0,0,1,523.88,579.53Z" transform="translate(-509.39 -541.32)"/><path class="cls-3" d="M522.35,577.7a1.44,1.44,0,0,1,1-1.45A1.42,1.42,0,0,1,522.35,577.7Z" transform="translate(-509.39 -541.32)"/><path class="cls-3" d="M535.32,562.91a4.45,4.45,0,0,1,3.8-2.44C537.81,561.31,536.64,562,535.32,562.91Z" transform="translate(-509.39 -541.32)"/><path class="cls-3" d="M565.17,552.41a3.06,3.06,0,0,1,3.75-2.17,3.62,3.62,0,0,1,.55.2A5.52,5.52,0,0,0,565.17,552.41Z" transform="translate(-509.39 -541.32)"/><path class="cls-3" d="M580.54,557.18a14.17,14.17,0,0,1,8.53,4.33A50.64,50.64,0,0,0,580.54,557.18Z" transform="translate(-509.39 -541.32)"/><path class="cls-3" d="M591.84,558.52a3,3,0,0,1,2.54.84A3.3,3.3,0,0,1,591.84,558.52Z" transform="translate(-509.39 -541.32)"/><path class="cls-3" d="M597.48,560.81a3.67,3.67,0,0,1,2,3.27A31.77,31.77,0,0,1,597.48,560.81Z" transform="translate(-509.39 -541.32)"/><path class="cls-3" d="M600,568.25a6.58,6.58,0,0,1,3.14,4.7C602.09,571.31,601.12,569.85,600,568.25Z" transform="translate(-509.39 -541.32)"/><path class="cls-3" d="M612.53,583.65a2.78,2.78,0,0,1,1,2.33A2.82,2.82,0,0,1,612.53,583.65Z" transform="translate(-509.39 -541.32)"/><path class="cls-3" d="M610.21,587.44a7.38,7.38,0,0,1,1,6.11C611,591.43,610.65,589.52,610.21,587.44Z" transform="translate(-509.39 -541.32)"/><path class="cls-3" d="M608.41,611a14,14,0,0,1-2.11,5.4A14,14,0,0,1,608.41,611Z" transform="translate(-509.39 -541.32)"/><path class="cls-3" d="M603.42,620.51c1.5-3.17,2.68-6.36,3.88-9.64A18.93,18.93,0,0,1,603.42,620.51Z" transform="translate(-509.39 -541.32)"/><path class="cls-3" d="M581.37,642.92a7.33,7.33,0,0,1,3.67-2A7.37,7.37,0,0,1,581.37,642.92Z" transform="translate(-509.39 -541.32)"/><path class="cls-3" d="M585,639.69a10,10,0,0,1,2.4-1.36A2.13,2.13,0,0,1,585,639.69Z" transform="translate(-509.39 -541.32)"/><path class="cls-3" d="M568.34,644.22a9.53,9.53,0,0,1,4.72-.7A9.55,9.55,0,0,1,568.34,644.22Z" transform="translate(-509.39 -541.32)"/><path class="cls-3" d="M560.3,644.16a28.86,28.86,0,0,1,12-2.37C568.23,642.53,564.3,643.31,560.3,644.16Z" transform="translate(-509.39 -541.32)"/><path class="cls-3" d="M532.72,633.63a16.23,16.23,0,0,0,10.88,3.13A10.72,10.72,0,0,1,532.72,633.63Z" transform="translate(-509.39 -541.32)"/><path class="cls-3" d="M539.42,635.57a1.79,1.79,0,0,1,2,0A1.79,1.79,0,0,1,539.42,635.57Z" transform="translate(-509.39 -541.32)"/><path class="cls-3" d="M526.65,623.05a1.58,1.58,0,0,1,1,1.57A1.58,1.58,0,0,1,526.65,623.05Z" transform="translate(-509.39 -541.32)"/><path class="cls-3" d="M518.68,612.93a13.32,13.32,0,0,0,4.86,6.54A7.35,7.35,0,0,1,518.68,612.93Z" transform="translate(-509.39 -541.32)"/><path class="cls-3" d="M522.39,615.74a8.22,8.22,0,0,1,4.62,4.65C525.5,618.73,524,617.26,522.39,615.74Z" transform="translate(-509.39 -541.32)"/><path class="cls-3" d="M528.46,568a1.93,1.93,0,0,1,1.5,1.43A1.93,1.93,0,0,1,528.46,568Z" transform="translate(-509.39 -541.32)"/><path class="cls-3" d="M528,569.76a11.71,11.71,0,0,1,3.72,3.79A11.81,11.81,0,0,1,528,569.76Z" transform="translate(-509.39 -541.32)"/><path class="cls-3" d="M531.05,571.69a2.39,2.39,0,0,1,1.78,1.5A2.35,2.35,0,0,1,531.05,571.69Z" transform="translate(-509.39 -541.32)"/><path class="cls-3" d="M535,575.75a14.09,14.09,0,0,1,4.09,4.12A13.85,13.85,0,0,1,535,575.75Z" transform="translate(-509.39 -541.32)"/><path class="cls-3" d="M530.68,566.45a27.49,27.49,0,0,1,6.18,5.35A27.94,27.94,0,0,1,530.68,566.45Z" transform="translate(-509.39 -541.32)"/><path class="cls-3" d="M533.25,571a116,116,0,0,1,13.36,10.12A116.32,116.32,0,0,1,533.25,571Z" transform="translate(-509.39 -541.32)"/><path class="cls-3" d="M543.16,583.92a3.35,3.35,0,0,1,2.15,1.77A3.29,3.29,0,0,1,543.16,583.92Z" transform="translate(-509.39 -541.32)"/><path class="cls-3" d="M547.42,584.88A122.37,122.37,0,0,1,561.25,595,120.28,120.28,0,0,1,547.42,584.88Z" transform="translate(-509.39 -541.32)"/><path class="cls-3" d="M569.5,598.55a1.34,1.34,0,0,1,1.26,1.14A1.34,1.34,0,0,1,569.5,598.55Z" transform="translate(-509.39 -541.32)"/><path class="cls-3" d="M572.93,608.86a4.4,4.4,0,0,1,2.5,2A4.29,4.29,0,0,1,572.93,608.86Z" transform="translate(-509.39 -541.32)"/><path class="cls-3" d="M571.85,603A223.42,223.42,0,0,1,589,618.49,229.39,229.39,0,0,1,571.85,603Z" transform="translate(-509.39 -541.32)"/><path class="cls-3" d="M582.12,615.8a9.57,9.57,0,0,1,5.23,4.5C585.6,618.72,583.94,617.3,582.12,615.8Z" transform="translate(-509.39 -541.32)"/><path class="cls-3" d="M587.21,613.88A85.56,85.56,0,0,1,597.63,624,87.83,87.83,0,0,1,587.21,613.88Z" transform="translate(-509.39 -541.32)"/><path class="cls-3" d="M596.65,624.51a5.3,5.3,0,0,1,2.51,2.48A5.21,5.21,0,0,1,596.65,624.51Z" transform="translate(-509.39 -541.32)"/><path class="cls-3" d="M597,627.06a1.3,1.3,0,0,1,1.25,1.1A1.3,1.3,0,0,1,597,627.06Z" transform="translate(-509.39 -541.32)"/><path class="cls-3" d="M570.29,634a1.52,1.52,0,0,1,1.31,1.31A1.52,1.52,0,0,1,570.29,634Z" transform="translate(-509.39 -541.32)"/><path class="cls-3" d="M573.78,629.91a1.94,1.94,0,0,1,1.48,1.51A2,2,0,0,1,573.78,629.91Z" transform="translate(-509.39 -541.32)"/><path class="cls-3" d="M553.58,620.17a48.39,48.39,0,0,1,9.26,5.69,48.63,48.63,0,0,1-9.26-5.7Z" transform="translate(-509.39 -541.32)"/><path class="cls-3" d="M557.27,618a17.84,17.84,0,0,1,5,4.2A17.38,17.38,0,0,1,557.27,618Z" transform="translate(-509.39 -541.32)"/><path class="cls-3" d="M538.83,606.51A55.09,55.09,0,0,1,555.62,619,136.68,136.68,0,0,0,538.83,606.51Z" transform="translate(-509.39 -541.32)"/><path class="cls-3" d="M540.14,604a25.37,25.37,0,0,1,6.19,4.81A25.37,25.37,0,0,1,540.14,604Z" transform="translate(-509.39 -541.32)"/><path class="cls-3" d="M536.2,602.12a1.09,1.09,0,0,1,1,1.13A1.09,1.09,0,0,1,536.2,602.12Z" transform="translate(-509.39 -541.32)"/><path class="cls-3" d="M537.55,600.5a1.73,1.73,0,0,1,1.3,1.44A1.73,1.73,0,0,1,537.55,600.5Z" transform="translate(-509.39 -541.32)"/><path class="cls-3" d="M520.14,608.82a76.61,76.61,0,0,1,9.15-10.23A78.59,78.59,0,0,1,520.14,608.82Z" transform="translate(-509.39 -541.32)"/><path class="cls-3" d="M520.39,610.56a6.88,6.88,0,0,1,2.71-3A6.76,6.76,0,0,1,520.39,610.56Z" transform="translate(-509.39 -541.32)"/><path class="cls-3" d="M521,611.48a2.23,2.23,0,0,1,1.6-1.58A2.26,2.26,0,0,1,521,611.48Z" transform="translate(-509.39 -541.32)"/><path class="cls-3" d="M522.12,612.62a.89.89,0,0,1,.81-1h.12a.89.89,0,0,1-.82,1Z" transform="translate(-509.39 -541.32)"/><path class="cls-3" d="M522.85,613.62a12.62,12.62,0,0,1,2.62-2A2.93,2.93,0,0,1,522.85,613.62Z" transform="translate(-509.39 -541.32)"/><path class="cls-3" d="M525.62,607.87c1.83-2.39,3.6-4.68,5.46-7A17,17,0,0,1,525.62,607.87Z" transform="translate(-509.39 -541.32)"/><path class="cls-3" d="M528.71,606.69a84.43,84.43,0,0,0,12.64-15.44A42.48,42.48,0,0,1,528.71,606.69Z" transform="translate(-509.39 -541.32)"/><path class="cls-3" d="M524.85,605.54a19.44,19.44,0,0,1,7.11-9A64.12,64.12,0,0,0,524.85,605.54Z" transform="translate(-509.39 -541.32)"/><path class="cls-3" d="M533.81,594a14.33,14.33,0,0,1,4.18-4.1A14.33,14.33,0,0,1,533.81,594Z" transform="translate(-509.39 -541.32)"/><path class="cls-3" d="M547.32,578.69a3.24,3.24,0,0,1,1.92-2A3.34,3.34,0,0,1,547.32,578.69Z" transform="translate(-509.39 -541.32)"/><path class="cls-3" d="M550.31,577.48a10.22,10.22,0,0,1,5.27-4.91C553.75,574.2,552.06,575.76,550.31,577.48Z" transform="translate(-509.39 -541.32)"/><path class="cls-3" d="M551.77,573.69a43.88,43.88,0,0,1,10.13-12.42C558.37,565.32,555,569.44,551.77,573.69Z" transform="translate(-509.39 -541.32)"/><path class="cls-3" d="M557,570.06a3.67,3.67,0,0,1,1.86-3.08A12.11,12.11,0,0,1,557,570.06Z" transform="translate(-509.39 -541.32)"/><path class="cls-3" d="M571.78,552.47a2.2,2.2,0,0,1-1.6,1.55A2.2,2.2,0,0,1,571.78,552.47Z" transform="translate(-509.39 -541.32)"/><path class="cls-3" d="M549.81,554.46a6,6,0,0,1,3.54,1.58A6.76,6.76,0,0,1,549.81,554.46Z" transform="translate(-509.39 -541.32)"/><path class="cls-3" d="M548.58,555.32a2.21,2.21,0,0,1,1.88,1.24,2.25,2.25,0,0,1-1.87-1.25Z" transform="translate(-509.39 -541.32)"/><path class="cls-3" d="M548.06,556a4.14,4.14,0,0,1,2.48,1.91A4.17,4.17,0,0,1,548.06,556Z" transform="translate(-509.39 -541.32)"/><path class="cls-3" d="M547.71,556.9a3,3,0,0,1,1.88,1.85A3.05,3.05,0,0,1,547.71,556.9Z" transform="translate(-509.39 -541.32)"/><path class="cls-3" d="M551.77,556.73a9.11,9.11,0,0,1,4.21,4A32,32,0,0,1,551.77,556.73Z" transform="translate(-509.39 -541.32)"/><path class="cls-3" d="M551.43,560a5.07,5.07,0,0,1,3.27,2.91A23.15,23.15,0,0,1,551.43,560Z" transform="translate(-509.39 -541.32)"/><path class="cls-3" d="M555.23,558.06a.65.65,0,0,1,.81.44.76.76,0,0,1,0,.21.64.64,0,0,1-.81-.44A.76.76,0,0,1,555.23,558.06Z" transform="translate(-509.39 -541.32)"/><path class="cls-3" d="M567.21,566.64a37.44,37.44,0,0,1,7.37,6A37.44,37.44,0,0,1,567.21,566.64Z" transform="translate(-509.39 -541.32)"/><path class="cls-3" d="M567.08,569.77a102.44,102.44,0,0,1,18.74,16.09C579.88,580.49,573.29,574.87,567.08,569.77Z" transform="translate(-509.39 -541.32)"/><path class="cls-3" d="M568,573.61a6.49,6.49,0,0,1,3.18,2.3A6.51,6.51,0,0,1,568,573.61Z" transform="translate(-509.39 -541.32)"/><path class="cls-3" d="M572.19,578.22a2.52,2.52,0,0,1,2.09,1.2A2.55,2.55,0,0,1,572.19,578.22Z" transform="translate(-509.39 -541.32)"/><path class="cls-3" d="M581.64,578.14a3,3,0,0,1,2.13,1.59A3.09,3.09,0,0,1,581.64,578.14Z" transform="translate(-509.39 -541.32)"/><path class="cls-3" d="M584.09,582.11c2.88,2.37,5.74,4.58,8.75,6.79A22.49,22.49,0,0,1,584.09,582.11Z" transform="translate(-509.39 -541.32)"/><path class="cls-3" d="M584.19,586.92a4.73,4.73,0,0,1,2.62,2A4.64,4.64,0,0,1,584.19,586.92Z" transform="translate(-509.39 -541.32)"/><path class="cls-3" d="M591.58,592.62a1.38,1.38,0,0,1,1.31,1.1A1.38,1.38,0,0,1,591.58,592.62Z" transform="translate(-509.39 -541.32)"/><path class="cls-3" d="M600.72,598.72a4.76,4.76,0,0,1,2.46,2.26A4.72,4.72,0,0,1,600.72,598.72Z" transform="translate(-509.39 -541.32)"/><path class="cls-3" d="M602.67,595.31a2.42,2.42,0,0,1,1.88,1.4A2.42,2.42,0,0,1,602.67,595.31Z" transform="translate(-509.39 -541.32)"/><path class="cls-3" d="M603.71,597.25A7.55,7.55,0,0,1,607,600,7.55,7.55,0,0,1,603.71,597.25Z" transform="translate(-509.39 -541.32)"/><path class="cls-3" d="M605.71,601.76a17.15,17.15,0,0,1,1.9,2.58A2.69,2.69,0,0,1,605.71,601.76Z" transform="translate(-509.39 -541.32)"/><path class="cls-3" d="M588.71,608.37a4.14,4.14,0,0,1,2.07-3.35A18.32,18.32,0,0,1,588.71,608.37Z" transform="translate(-509.39 -541.32)"/><path class="cls-3" d="M586.13,607.28a29.62,29.62,0,0,1,6.83-5.1,30.31,30.31,0,0,1-6.81,5.1Z" transform="translate(-509.39 -541.32)"/><path class="cls-3" d="M586.78,603.47a4.65,4.65,0,0,1,2.52-2.16A4.73,4.73,0,0,1,586.78,603.47Z" transform="translate(-509.39 -541.32)"/><path class="cls-3" d="M591.58,599a11.38,11.38,0,0,1,3.31-4.07A11.47,11.47,0,0,1,591.58,599Z" transform="translate(-509.39 -541.32)"/><path class="cls-3" d="M594.66,597.37a16.42,16.42,0,0,1,6.2-7.27C598.66,592.47,596.65,594.83,594.66,597.37Z" transform="translate(-509.39 -541.32)"/><path class="cls-3" d="M599.08,596.05a2.09,2.09,0,0,1,1.78-2.33Z" transform="translate(-509.39 -541.32)"/><path class="cls-3" d="M596.38,591.81a2,2,0,0,1,1.22-1.75A2,2,0,0,1,596.38,591.81Z" transform="translate(-509.39 -541.32)"/><path class="cls-3" d="M600.15,589a3.44,3.44,0,0,1,2.28-2.62A12.14,12.14,0,0,1,600.15,589Z" transform="translate(-509.39 -541.32)"/><path class="cls-3" d="M608.56,580.54A5.89,5.89,0,0,1,606,584.3,16.43,16.43,0,0,1,608.56,580.54Z" transform="translate(-509.39 -541.32)"/><path class="cls-3" d="M609.84,583.14a4.38,4.38,0,0,1-1.71,3.58A14.91,14.91,0,0,1,609.84,583.14Z" transform="translate(-509.39 -541.32)"/><path class="cls-3" d="M555.16,640.29c.91-1.07,1.68-2,2.66-2.95A3.75,3.75,0,0,1,555.16,640.29Z" transform="translate(-509.39 -541.32)"/><path class="cls-3" d="M557.5,642.39a3.29,3.29,0,0,1,1.64-1.78A2.16,2.16,0,0,1,557.5,642.39Z" transform="translate(-509.39 -541.32)"/><path class="cls-3" d="M559.81,643a16.29,16.29,0,0,1,2.23-1.91A2.28,2.28,0,0,1,559.81,643Z" transform="translate(-509.39 -541.32)"/><path class="cls-3" d="M562,637.63a95.6,95.6,0,0,1,8.3-10.21A57.39,57.39,0,0,1,562,637.63Z" transform="translate(-509.39 -541.32)"/><path class="cls-3" d="M558.78,636.13a47.8,47.8,0,0,1,7.19-8A47.4,47.4,0,0,1,558.78,636.13Z" transform="translate(-509.39 -541.32)"/><path class="cls-3" d="M571.84,629.4a3.82,3.82,0,0,1,2-2.2A3.82,3.82,0,0,1,571.84,629.4Z" transform="translate(-509.39 -541.32)"/><path class="cls-3" d="M572.1,621.07a4.84,4.84,0,0,1,2.36-2.44A4.92,4.92,0,0,1,572.1,621.07Z" transform="translate(-509.39 -541.32)"/><path class="cls-3" d="M575.16,624.66a12.85,12.85,0,0,1,4.28-4.83A26.55,26.55,0,0,1,575.16,624.66Z" transform="translate(-509.39 -541.32)"/><path class="cls-3" d="M532.69,629.91a3.62,3.62,0,0,1,.73-1.72c.43-.6,2.2-2,1-.36A13.84,13.84,0,0,1,532.69,629.91Z" transform="translate(-509.39 -541.32)"/><path class="cls-3" d="M533.47,631.35c.52-1.82,1.92-3.14,2.89-4.72C536.13,628.55,534.68,630,533.47,631.35Z" transform="translate(-509.39 -541.32)"/><path class="cls-3" d="M534.45,632.32a1.57,1.57,0,0,1,1.25-1.26A1.35,1.35,0,0,1,534.45,632.32Z" transform="translate(-509.39 -541.32)"/><path class="cls-3" d="M537.64,628.15a7.42,7.42,0,0,1,3.43-3.79,18.66,18.66,0,0,0,4.16-2.81,9.86,9.86,0,0,1-3.87,3.34,10.94,10.94,0,0,0-3.7,3.26Z" transform="translate(-509.39 -541.32)"/><path class="cls-3" d="M540.32,621.41a3,3,0,0,1,2.09-2A4.56,4.56,0,0,1,540.32,621.41Z" transform="translate(-509.39 -541.32)"/><path class="cls-3" d="M540,629.62a11.12,11.12,0,0,1,3.09-2.91A5.86,5.86,0,0,1,540,629.62Z" transform="translate(-509.39 -541.32)"/><path class="cls-3" d="M550.13,609.8a4.81,4.81,0,0,1,2.11-2.3A3.68,3.68,0,0,1,550.13,609.8Z" transform="translate(-509.39 -541.32)"/><path class="cls-3" d="M556,605a9.93,9.93,0,0,1,2.57-2.87A4.66,4.66,0,0,1,556,605Z" transform="translate(-509.39 -541.32)"/><path class="cls-3" d="M558.37,610a9.26,9.26,0,0,1,3.51-4.83A39.67,39.67,0,0,1,558.37,610Z" transform="translate(-509.39 -541.32)"/><path class="cls-3" d="M560.45,599.27a50.09,50.09,0,0,1,5.08-6.95A22.07,22.07,0,0,1,560.45,599.27Z" transform="translate(-509.39 -541.32)"/><path class="cls-3" d="M560,602.73a50.75,50.75,0,0,0,12.77-14.34,20,20,0,0,1-1,2.19A31.25,31.25,0,0,1,560,602.73Z" transform="translate(-509.39 -541.32)"/><path class="cls-3" d="M569.69,588.36a11.67,11.67,0,0,1,4.43-2.89A11.78,11.78,0,0,1,569.69,588.36Z" transform="translate(-509.39 -541.32)"/><path class="cls-3" d="M572.21,592.4a3.75,3.75,0,0,1,.78-1.83c.43-.62,2.4-2,1-.38A21,21,0,0,1,572.21,592.4Z" transform="translate(-509.39 -541.32)"/><path class="cls-3" d="M578.77,584.47a1.17,1.17,0,0,1-1.14,1.09A1.17,1.17,0,0,1,578.77,584.47Z" transform="translate(-509.39 -541.32)"/><path class="cls-3" d="M579.84,575.31a16.78,16.78,0,0,1,4.08-4.91A17.07,17.07,0,0,1,579.84,575.31Z" transform="translate(-509.39 -541.32)"/><path class="cls-3" d="M581.33,576.44a.86.86,0,0,1,.61-1l.14,0a.85.85,0,0,1-.58,1Z" transform="translate(-509.39 -541.32)"/><path class="cls-3" d="M584.22,576.18a55.31,55.31,0,0,1,3.51-4.39A7.56,7.56,0,0,1,584.22,576.18Z" transform="translate(-509.39 -541.32)"/><path class="cls-3" d="M587.45,574a3.74,3.74,0,0,1,2.56-2.68A15.46,15.46,0,0,1,587.45,574Z" transform="translate(-509.39 -541.32)"/><path class="cls-3" d="M583.48,572.63c1.72-1.46,3.27-2.83,5-4.31A9.12,9.12,0,0,1,583.48,572.63Z" transform="translate(-509.39 -541.32)"/><path class="cls-3" d="M587.84,566.53a3.28,3.28,0,0,1,2.52-2.21A9.85,9.85,0,0,1,587.84,566.53Z" transform="translate(-509.39 -541.32)"/><path class="cls-3" d="M595.79,563a10.42,10.42,0,0,1-2.62,2.38A3.6,3.6,0,0,1,595.79,563Z" transform="translate(-509.39 -541.32)"/><path class="cls-3" d="M579,638.14a10.79,10.79,0,0,1,3.1,1.83A3.77,3.77,0,0,1,579,638.14Z" transform="translate(-509.39 -541.32)"/><path class="cls-3" d="M559,580.63c.34,1.08,2.11,1.36,2.56.31a.94.94,0,0,0-.24-1.21c-.38-.23-1-.3-1,.39-.14,0-.15-.36-.13-.48.24-.82,1.49-.65,1.88,0a1.61,1.61,0,0,1-.72,2.17l-.12.06a1.73,1.73,0,0,1-2.22-1s0-.09-.05-.14H559Z" transform="translate(-509.39 -541.32)"/><path class="cls-3" d="M580.33,590.79c-.53,1,.51,2.46,1.57,2a1,1,0,0,0,.7-1c-.1-.44-.48-.92-1-.46-.13-.06.15-.36.26-.43.75-.4,1.51.6,1.34,1.31a1.62,1.62,0,0,1-2.07,1l-.1,0a1.74,1.74,0,0,1-.82-2.32l.06-.12h.06Z" transform="translate(-509.39 -541.32)"/><path class="cls-3" d="M532.16,615.62c-1.06.39-1.25,2.17-.18,2.57a.94.94,0,0,0,1.19-.3c.22-.39.26-1-.44-1-.05-.14.35-.17.48-.15.83.19.73,1.45.13,1.87a1.61,1.61,0,0,1-2.19-.6l-.06-.13a1.72,1.72,0,0,1,.9-2.26l.14-.06v.06Z" transform="translate(-509.39 -541.32)"/><path class="cls-3" d="M582.8,562.23c-1.11-.12-2.08,1.39-1.3,2.22a.92.92,0,0,0,1.19.27c.37-.26.66-.78.06-1.1,0-.15.38,0,.49.08.65.54,0,1.63-.71,1.73a1.61,1.61,0,0,1-1.7-1.53.49.49,0,0,1,0-.12,1.74,1.74,0,0,1,1.85-1.63l.11,0v.06Z" transform="translate(-509.39 -541.32)"/><path class="cls-3" d="M565.36,614.29c-.65.36-.38,1.64.34,1.15,0-.05.2-.23.17-.29s-.19-.08-.2-.22c.55-.48,1,.39.78.87-.32.85-1.6.55-1.85-.18a1.06,1.06,0,0,1,.6-1.37l.14,0v.08Z" transform="translate(-509.39 -541.32)"/><path class="cls-3" d="M529,580.75c.35.66,1.63.39,1.15-.34,0,0-.23-.19-.29-.16s-.08.19-.23.19c-.48-.54.4-1,.88-.77.85.31.54,1.6-.19,1.84a1,1,0,0,1-1.36-.61.56.56,0,0,1,0-.12H529Z" transform="translate(-509.39 -541.32)"/><path class="cls-3" d="M593.42,582.94c.36.69,1.64.39,1.16-.34-.05-.05-.24-.2-.3-.17s-.07.2-.22.2c-.48-.55.39-1,.88-.78.84.32.54,1.6-.19,1.85a1.05,1.05,0,0,1-1.36-.6.69.69,0,0,1,0-.13h.08Z" transform="translate(-509.39 -541.32)"/><path class="cls-3" d="M581.38,598.34c.35.68,1.63.38,1.15-.34,0,0-.23-.2-.29-.17s-.08.19-.22.2c-.48-.55.39-1,.88-.78.84.32.54,1.6-.19,1.85a1.06,1.06,0,0,1-1.37-.62.56.56,0,0,1,0-.12h.08Z" transform="translate(-509.39 -541.32)"/><path class="cls-3" d="M599.19,618.45c.51-.21.61-1.09.1-1.24a.39.39,0,0,0-.36.07c-.06.05-.22.23-.19.28s.19.1.19.24c-.58.44-1-.45-.74-.92.37-.83,1.64-.45,1.84.3a1.06,1.06,0,0,1-.69,1.33l-.12,0v-.09Z" transform="translate(-509.39 -541.32)"/><path class="cls-3" d="M549.08,626.61c.35,1,2.06,1.27,2.45.26a.83.83,0,0,0-.36-1.12.85.85,0,0,0-.38-.09c-.24,0-.35.21-.4.44h-.09a.73.73,0,0,1,.21-1l0,0a1.3,1.3,0,0,1,1.76.58,1.22,1.22,0,0,1,.13.46,1.75,1.75,0,0,1-1.62,1.86,1.87,1.87,0,0,1-.53-.05,1.67,1.67,0,0,1-1.31-1.3l.08,0Z" transform="translate(-509.39 -541.32)"/><circle class="cls-4" cx="56.44" cy="56.44" r="55.94"/></svg>