<svg id="Livello_1" data-name="Livello 1" xmlns="http://www.w3.org/2000/svg" viewBox="0 0 185.01 128.24"><defs><style>.cls-1{fill:#cc0b36;}.cls-2{fill:#332421;}.cls-3,.cls-4,.cls-5,.cls-6{fill:none;stroke:#332421;}.cls-3,.cls-4,.cls-6{stroke-linecap:round;stroke-linejoin:round;}.cls-4,.cls-5{stroke-width:1.48px;}.cls-5{stroke-miterlimit:10;}.cls-6{stroke-width:0.74px;}</style></defs><path class="cls-1" d="M595.88,321.59a5.69,5.69,0,0,1,.83.06,6,6,0,0,1,.73.17,2.42,2.42,0,0,1,.55.24,1.52,1.52,0,0,1,.39.37,1,1,0,0,1,.14.49,1,1,0,0,1-.3.72.91.91,0,0,1-.71.3,1,1,0,0,1-1-1,1,1,0,0,1,.51-.87,1.48,1.48,0,0,0-.51-.18,3.67,3.67,0,0,0-.66-.05,2.6,2.6,0,0,0-1.36.32,2.37,2.37,0,0,0-.86.89,3.46,3.46,0,0,0-.33,1,12.83,12.83,0,0,0-.09,1.75h3.61a4.09,4.09,0,0,0,.81-.05c.23,0,.47-.07.7-.12v6.79a1.15,1.15,0,0,0,.28.9,1.41,1.41,0,0,0,.92.23v.33l-.81,0h-2.17l-.82,0v-.33a1.44,1.44,0,0,0,.92-.24,1.17,1.17,0,0,0,.27-.9v-4.91a1.7,1.7,0,0,0-.25-1,1.07,1.07,0,0,0-.94-.34h-2.52v6.28a1,1,0,0,0,.36.91,1.78,1.78,0,0,0,1,.23v.33l-.89,0h-2.27l-.79,0v-.33a1.44,1.44,0,0,0,.92-.24,1.1,1.1,0,0,0,.27-.9v-6.28h-1.22v-.32h1.26a6.07,6.07,0,0,1,.25-1.8,3.28,3.28,0,0,1,.87-1.38,4.23,4.23,0,0,1,1.18-.73A4.74,4.74,0,0,1,595.88,321.59Z" transform="translate(-590.57 -321.5)"/><path class="cls-1" d="M605.24,325.56a1.61,1.61,0,0,1,.74.17,1.44,1.44,0,0,1,.5.45,1.13,1.13,0,0,1-.06,1.31.8.8,0,0,1-.66.3.89.89,0,0,1-.58-.22.75.75,0,0,1-.25-.6.87.87,0,0,1,.17-.51,1.5,1.5,0,0,1,.37-.34.42.42,0,0,0-.33-.16,1.62,1.62,0,0,0-.9.3,2.43,2.43,0,0,0-.65.74,3.86,3.86,0,0,0-.44,1,3.38,3.38,0,0,0-.16.95v3.32a1.09,1.09,0,0,0,.45,1,2.41,2.41,0,0,0,1.21.26v.34l-1,0h-2.45l-.8,0v-.33a1.44,1.44,0,0,0,.92-.24,1.1,1.1,0,0,0,.27-.9v-4.91a1.7,1.7,0,0,0-.25-1,1.07,1.07,0,0,0-.94-.34v-.33c.33,0,.65,0,1,0a6.35,6.35,0,0,0,.87-.05,5,5,0,0,0,.77-.17v2a3.64,3.64,0,0,1,.49-.91,3,3,0,0,1,.77-.78A1.74,1.74,0,0,1,605.24,325.56Z" transform="translate(-590.57 -321.5)"/><path class="cls-1" d="M610.15,325.56a2.6,2.6,0,0,1,1.06.2,3.25,3.25,0,0,1,.65.38c.35.28.57.1.66-.57h.36c0,.3,0,.66,0,1.05s0,.94,0,1.62h-.36a4.79,4.79,0,0,0-.32-1.12,2.35,2.35,0,0,0-.65-.91,1.82,1.82,0,0,0-1.15-.35,1.4,1.4,0,0,0-.92.3,1.1,1.1,0,0,0-.36.9,1.18,1.18,0,0,0,.28.81,3.1,3.1,0,0,0,.74.66l1,.65a10.52,10.52,0,0,1,1.08.77,3.41,3.41,0,0,1,.78.87,2.05,2.05,0,0,1,.29,1.11,2,2,0,0,1-.38,1.21,2.41,2.41,0,0,1-1,.74,3.61,3.61,0,0,1-1.3.24,3.67,3.67,0,0,1-.66-.05,4,4,0,0,1-.59-.16,3.37,3.37,0,0,1-.32-.19,2.43,2.43,0,0,1-.32-.24.19.19,0,0,0-.26,0l0,0a1,1,0,0,0-.19.53h-.36c0-.34,0-.74,0-1.23s0-1.11,0-1.91h.36a9,9,0,0,0,.32,1.54,2,2,0,0,0,.65,1,1.83,1.83,0,0,0,1.22.36,1.65,1.65,0,0,0,.66-.13,1.34,1.34,0,0,0,.53-.47,1.55,1.55,0,0,0,.22-.89,1.41,1.41,0,0,0-.5-1.13,10.53,10.53,0,0,0-1.27-.92c-.38-.24-.73-.48-1.06-.73a3.24,3.24,0,0,1-.8-.81,2.21,2.21,0,0,1,0-2.25,1.94,1.94,0,0,1,.86-.66A3.28,3.28,0,0,1,610.15,325.56Z" transform="translate(-590.57 -321.5)"/><path class="cls-1" d="M616.87,323.17v2.62h2.33v.31h-2.33v6.08a1.57,1.57,0,0,0,.27,1,.94.94,0,0,0,.74.3,1.07,1.07,0,0,0,.82-.39,3.27,3.27,0,0,0,.59-1.3l.31.07a3.46,3.46,0,0,1-.62,1.54,1.63,1.63,0,0,1-1.42.65,2.36,2.36,0,0,1-.87-.13,1.73,1.73,0,0,1-.62-.38,1.9,1.9,0,0,1-.47-.87,5.13,5.13,0,0,1-.14-1.3v-5.23H614v-.32h1.5v-2.44a4.44,4.44,0,0,0,.75-.07A2.91,2.91,0,0,0,616.87,323.17Z" transform="translate(-590.57 -321.5)"/><path class="cls-1" d="M627.38,325.56a2.71,2.71,0,0,1,1.31.33,1.66,1.66,0,0,1,.81,1.13l-.2.15a1.78,1.78,0,0,0-.69-.95,1.89,1.89,0,0,0-1.09-.3,1.81,1.81,0,0,0-1.54,1,5.4,5.4,0,0,0-.6,2.95,7.52,7.52,0,0,0,.24,2.11,2.71,2.71,0,0,0,.72,1.26,1.76,1.76,0,0,0,1.17.41,1.61,1.61,0,0,0,1.19-.57,2.67,2.67,0,0,0,.65-1.66l.19.22a3.06,3.06,0,0,1-.76,1.84,2.33,2.33,0,0,1-1.72.65,3.1,3.1,0,0,1-1.7-.47,2.91,2.91,0,0,1-1.11-1.41,6,6,0,0,1-.39-2.37,5.14,5.14,0,0,1,.49-2.38,3.38,3.38,0,0,1,3-1.89Zm3.27-4v10.59a1.77,1.77,0,0,0,.26,1.05,1.14,1.14,0,0,0,.94.33v.34c-.33,0-.65-.05-1-.05a6.17,6.17,0,0,0-.87.05,2.87,2.87,0,0,0-.77.17V323.45a1.76,1.76,0,0,0-.25-1.05,1.13,1.13,0,0,0-.94-.33v-.33c.33,0,.65.05,1,.05a6.11,6.11,0,0,0,.86-.06,4.28,4.28,0,0,0,.79-.17Z" transform="translate(-590.57 -321.5)"/><path class="cls-1" d="M635.26,325.61v6.79a1.12,1.12,0,0,0,.28.89,1.41,1.41,0,0,0,.91.24v.34l-.8,0h-2.18l-.81,0v-.33a1.5,1.5,0,0,0,.92-.24,1.17,1.17,0,0,0,.27-.9v-4.91a1.7,1.7,0,0,0-.25-1,1.07,1.07,0,0,0-.94-.34v-.33c.33,0,.65,0,1,0a6.35,6.35,0,0,0,.87-.05A4.91,4.91,0,0,0,635.26,325.61Zm-.82-3.75a1,1,0,0,1,1,1,1,1,0,1,1-2,0A1,1,0,0,1,634.44,321.86Z" transform="translate(-590.57 -321.5)"/><path class="cls-1" d="M640.07,325.56a2.56,2.56,0,0,1,1.06.2,3.33,3.33,0,0,1,.66.38c.34.28.56.1.65-.57h.36c0,.3,0,.66,0,1.05s0,.94,0,1.62h-.36a4.79,4.79,0,0,0-.32-1.12,2.14,2.14,0,0,0-.66-.91,1.79,1.79,0,0,0-1.14-.35,1.4,1.4,0,0,0-.92.3,1.14,1.14,0,0,0-.37.9,1.28,1.28,0,0,0,.28.81,3.31,3.31,0,0,0,.74.66l1,.65c.37.24.74.5,1.08.77a3.41,3.41,0,0,1,.78.87,2.05,2.05,0,0,1,.29,1.11,2,2,0,0,1-.37,1.21,2.55,2.55,0,0,1-1,.74,3.9,3.9,0,0,1-2,.19,3.83,3.83,0,0,1-.58-.16,3.37,3.37,0,0,1-.32-.19,2.43,2.43,0,0,1-.32-.24.19.19,0,0,0-.26,0l0,0a1,1,0,0,0-.18.53h-.36c0-.34,0-.74,0-1.23s0-1.11,0-1.91h.37a10,10,0,0,0,.3,1.54,2.21,2.21,0,0,0,.66,1,1.83,1.83,0,0,0,1.22.36,1.57,1.57,0,0,0,.65-.13,1.4,1.4,0,0,0,.55-.47,1.64,1.64,0,0,0,.22-.89,1.44,1.44,0,0,0-.5-1.13,9.64,9.64,0,0,0-1.28-.92c-.37-.24-.73-.48-1.06-.73a3.24,3.24,0,0,1-.8-.81,2,2,0,0,1-.3-1.09,1.91,1.91,0,0,1,.32-1.16,2,2,0,0,1,.85-.66A3.22,3.22,0,0,1,640.07,325.56Z" transform="translate(-590.57 -321.5)"/><path class="cls-1" d="M646.73,321.57v5.89a2.68,2.68,0,0,1,1.14-1.48,3.13,3.13,0,0,1,1.53-.41,2.87,2.87,0,0,1,1,.16,1.67,1.67,0,0,1,.65.44,1.8,1.8,0,0,1,.42.78,5.25,5.25,0,0,1,.13,1.31v4.18a1.17,1.17,0,0,0,.27.9,1.43,1.43,0,0,0,.92.23v.3l-.82,0h-2.08l-.74,0v-.33a1.15,1.15,0,0,0,.8-.24,1.31,1.31,0,0,0,.24-.9v-4.53a5.26,5.26,0,0,0-.08-.89,1.22,1.22,0,0,0-.35-.66,1.25,1.25,0,0,0-.85-.24,1.86,1.86,0,0,0-1.14.36,2.37,2.37,0,0,0-.77,1,3.56,3.56,0,0,0-.28,1.47v3.5a1.25,1.25,0,0,0,.23.9,1.11,1.11,0,0,0,.8.23v.33l-.74,0h-2.08l-.82,0v-.33a1.42,1.42,0,0,0,.92-.24,1.17,1.17,0,0,0,.27-.9v-8.95a1.64,1.64,0,0,0-.25-1,1.07,1.07,0,0,0-.94-.34v-.33c.34,0,.66,0,1,0a6.35,6.35,0,0,0,.87-.05A4.08,4.08,0,0,0,646.73,321.57Z" transform="translate(-590.57 -321.5)"/><path class="cls-1" d="M657.31,325.56a2.76,2.76,0,0,1,2.15.84,3.72,3.72,0,0,1,.78,2.61H654.7v-.3h4a4.85,4.85,0,0,0-.12-1.42,2.56,2.56,0,0,0-.49-1,1.13,1.13,0,0,0-.88-.39,1.6,1.6,0,0,0-1.31.72,4.2,4.2,0,0,0-.65,2.29l0,.06c0,.16,0,.33,0,.52s0,.38,0,.57a4.27,4.27,0,0,0,.35,1.83,2.8,2.8,0,0,0,.9,1.17,2,2,0,0,0,1.15.4,2.64,2.64,0,0,0,.89-.15,2,2,0,0,0,.79-.49,2.84,2.84,0,0,0,.65-.93l.32.13a3.32,3.32,0,0,1-.57,1,2.9,2.9,0,0,1-1,.79,3,3,0,0,1-1.38.31,3.54,3.54,0,0,1-2-.52,3.33,3.33,0,0,1-1.24-1.44,4.77,4.77,0,0,1-.43-2.1,5.85,5.85,0,0,1,.44-2.38,3.5,3.5,0,0,1,1.23-1.54A3.28,3.28,0,0,1,657.31,325.56Z" transform="translate(-590.57 -321.5)"/><path class="cls-1" d="M664.24,325.56a2.61,2.61,0,0,1,1.07.2,3.25,3.25,0,0,1,.65.38c.35.28.56.1.66-.57H667c0,.3,0,.66-.05,1.05s0,.94,0,1.62h-.36a5.33,5.33,0,0,0-.32-1.12,2.46,2.46,0,0,0-.65-.91,1.85,1.85,0,0,0-1.16-.35,1.42,1.42,0,0,0-.91.3,1.14,1.14,0,0,0-.37.9,1.18,1.18,0,0,0,.28.81,3.54,3.54,0,0,0,.74.66l1,.65c.37.24.73.49,1.08.77a3.25,3.25,0,0,1,.78.87,2.05,2.05,0,0,1,.29,1.11,2,2,0,0,1-.38,1.21,2.33,2.33,0,0,1-1,.74,3.62,3.62,0,0,1-1.31.24,3.56,3.56,0,0,1-.65-.05,3,3,0,0,1-.59-.16l-.33-.19-.32-.24a.18.18,0,0,0-.25,0l0,0a1.25,1.25,0,0,0-.19.53h-.46c0-.34,0-.74,0-1.23v-1.91h.36a8.09,8.09,0,0,0,.31,1.54,2.12,2.12,0,0,0,.65,1,1.86,1.86,0,0,0,1.23.36,1.64,1.64,0,0,0,.65-.13,1.34,1.34,0,0,0,.53-.47,1.56,1.56,0,0,0,.23-.89,1.45,1.45,0,0,0-.51-1.13,11.27,11.27,0,0,0-1.26-.92c-.38-.24-.74-.48-1.06-.73a3.12,3.12,0,0,1-.81-.81,2.21,2.21,0,0,1,0-2.25,2,2,0,0,1,.86-.66A3.16,3.16,0,0,1,664.24,325.56Z" transform="translate(-590.57 -321.5)"/><path class="cls-1" d="M666.55,323.67c10.32-4.58,22-2.27,28.31,10.32l-.88.59a26.48,26.48,0,0,0-5.06-7.28C682.59,321,673.68,320.8,666.55,323.67Z" transform="translate(-590.57 -321.5)"/><path class="cls-2" d="M728.75,384.26c-.1.65-.72,1-1.18,1.31a4,4,0,0,0-1.07,1.11c-1.1,1.88-2.14,4.17-4.4,4.95a9.25,9.25,0,0,1-3.44.05l.49-.43a5.24,5.24,0,0,1-1.92,4.58c-.88.65-2.08.65-2.76,1.49-.92,1.07-2.51,4.87-4.22,2.95-1-1.7-.5-3.77-.83-5.64a11.56,11.56,0,0,1-.09-3.27,10,10,0,0,1,1.31-3.09l.22.6c-2.46-.78-3.44-3.35-4-5.61s-.44-4.61-1.51-6.65c-.11-.21-.27-.58.06-.65s.32.13.51.24c1.55,1.17,3.21,2.47,5.14,2.84,2.35.2,4.83,1.2,6,3.4l-.54-.18a5.85,5.85,0,0,1,3.33-.38,4.21,4.21,0,0,1,1.63.48,4.39,4.39,0,0,0,1.36.7,24.28,24.28,0,0,0,5.53.38.63.63,0,0,1,.29.1.43.43,0,0,1,.15.34,2.24,2.24,0,0,1-.07.44Zm-.39-.09a2,2,0,0,0,.06-.35h0a28.81,28.81,0,0,1-5.71-.33,5,5,0,0,1-1.5-.7,5.26,5.26,0,0,0-4.34.15.38.38,0,0,1-.52-.14c-.92-2.13-3.2-3.09-5.4-3.34a14.2,14.2,0,0,1-5.27-3l-.16-.12s-.16-.06-.07-.06,0,0,.07,0a.17.17,0,0,0,0-.07s0-.05,0,0a1.09,1.09,0,0,0,.1.25c1.12,2.07.93,4.52,1.62,6.7s1.53,4.43,3.8,5a.39.39,0,0,1,.27.48.61.61,0,0,1-.05.12,9.45,9.45,0,0,0-1.36,2.78,10.2,10.2,0,0,0,0,3.12c.2,1.57-.09,3.27.36,4.77,1,2.91,2.94-1.35,3.76-2.34s2-1,2.8-1.64a3.73,3.73,0,0,0,1-1.13,5,5,0,0,0,.5-2.92.39.39,0,0,1,.36-.43.25.25,0,0,1,.12,0,8.35,8.35,0,0,0,3.11.16c2.06-.65,3.15-2.82,4.2-4.58a4.64,4.64,0,0,1,1.2-1.22c.48-.32,1-.55,1-1Z" transform="translate(-590.57 -321.5)"/><path class="cls-3" d="M717.16,333.43a57.9,57.9,0,1,0,57.92,57.9,57.9,57.9,0,0,0-57.92-57.9Zm0,101.07a43.07,43.07,0,1,1,43.06-43.06h0A43.06,43.06,0,0,1,717.16,434.5Z" transform="translate(-590.57 -321.5)"/><path class="cls-3" d="M717.16,348.37a43.07,43.07,0,1,0,43.06,43.07h0A43.06,43.06,0,0,0,717.16,348.37Z" transform="translate(-590.57 -321.5)"/><path class="cls-4" d="M702,358a9,9,0,0,1,4.89-1.18,8.83,8.83,0,0,1,5,1.87c1,.87,1.1,1.42,2.19,2l.28.13h0c1.22.53,2,.21,3,.55a3.33,3.33,0,0,1,1.42,1,8.21,8.21,0,0,1,1.37,2.76,5.45,5.45,0,0,1,3.27.55,4,4,0,0,1,.65.41,5.35,5.35,0,0,1,1.83,2.84c.14.42.24.85.34,1.24.51,2,.09,2.86.46,3.92a3.48,3.48,0,0,0,.24.52,2.34,2.34,0,0,0,.59.7,12.11,12.11,0,0,0,2.8,1.7c.39.18.74.34,1.08.47h0c2.82,1.15,3.82.77,5.74,2l.15.1a8.43,8.43,0,0,1,2.83,2.74,5.54,5.54,0,0,1,.59,1.42,6.06,6.06,0,0,1-.12,3.27,13.53,13.53,0,0,1-.65,1.82c-1,2.64-1.83,2.49-2.49,4.46a4.37,4.37,0,0,0-.27,1.75c0,.51.09,1.07.17,1.85s.23,2.13.28,3.92a24.59,24.59,0,0,1-.14,4.29,3.5,3.5,0,0,1-.74,1.91,6,6,0,0,1-2.05,1.47,10.62,10.62,0,0,1-1.11.43h0l-.2.07c-2.09.65-2.54,0-3.48.69a2.24,2.24,0,0,0-.51.51c-.76,1.05-.38,2.58-1.93,4.54l-.34.43a3.84,3.84,0,0,1-1.6,1.24l-.42.13c-1.7.39-3.53-.6-5.36-1.62a15.75,15.75,0,0,1-2.32-1.57c-.75-.61-1.06-.94-1.8-.94-1.31,0-1.9,1-2.85,2a6.33,6.33,0,0,1-2.37,1.69,6.57,6.57,0,0,1-2,.47,7.77,7.77,0,0,1-3.57-.55,6.86,6.86,0,0,1-1.17-.61,6,6,0,0,1-2.13-2.65,15.82,15.82,0,0,1-1.17-5.48,5.06,5.06,0,0,0-.34-2c0-.05,0-.11-.08-.16h0a3.7,3.7,0,0,0-1.74-1.6,26.55,26.55,0,0,1-2.84-1.51,11.24,11.24,0,0,1-3.42-3.27,5.33,5.33,0,0,1-.7-1.89,5.57,5.57,0,0,1,.17-2.26,5.9,5.9,0,0,1,2-3,2.21,2.21,0,0,1,.79-.41c.78-.23,1.59-.08,2.54-.88a3.8,3.8,0,0,0,1.35-2.06c.2-1-.24-1.48-.55-2.77a8.78,8.78,0,0,1-.26-1.84,6.62,6.62,0,0,1,.42-2.82c.66-1.59,1.6-1.55,2.25-2.78.06-.13.13-.27.19-.43.6-1.56-.05-2.47,0-4v-.15a7.68,7.68,0,0,1,.62-2.2,6.92,6.92,0,0,1,3-3.45l.37-.19a7,7,0,0,1,3-.69,4.11,4.11,0,0,1,1.62.36c1.12.52,1.53,1.37,2.43,2a4,4,0,0,0,1.23.59,4,4,0,0,0,2.23.13c1.24-.34,1.71-1.31,2.26-2.35a5.8,5.8,0,0,0-2.11-2.79,1.67,1.67,0,0,0-.72-.21c-.8,0-1.58.58-2.71.17-.54-.2-.69-.46-1.39-1-.17-.15-.36-.31-.58-.48a7.26,7.26,0,0,0-2.49-1.38,5.17,5.17,0,0,0-3.84.79,5.47,5.47,0,0,0-2.23,3.69,5.17,5.17,0,0,1-.55-.07,3.34,3.34,0,0,1-1.21-.48,1.66,1.66,0,0,1,0-.28,8.36,8.36,0,0,0-.25-4.57A8.71,8.71,0,0,1,702,358Z" transform="translate(-590.57 -321.5)"/><path class="cls-4" d="M695.6,379a4.59,4.59,0,0,0-1.24,1.74h0c.37.47.72.87,1,1.17a13.1,13.1,0,0,0,1.85,1.72,6.55,6.55,0,0,1,.42-2.81c.66-1.59,1.6-1.55,2.25-2.79A5.29,5.29,0,0,0,695.6,379Z" transform="translate(-590.57 -321.5)"/><path class="cls-4" d="M718.74,362.34a3.33,3.33,0,0,0-1.42-1c-1-.35-1.77,0-3-.55h0" transform="translate(-590.57 -321.5)"/><path class="cls-4" d="M714.81,364.89a1.82,1.82,0,0,0-.72-.21c-.8,0-1.58.58-2.71.17-.54-.2-.69-.46-1.39-1l-.58-.48" transform="translate(-590.57 -321.5)"/><path class="cls-4" d="M698.78,411.7c.21-.84.57-1.87.82-3.21a18.81,18.81,0,0,0,.34-3.43l.08.16a4.89,4.89,0,0,1,.34,2,15.6,15.6,0,0,0,1.18,5.48,6,6,0,0,0,2.13,2.65,6.51,6.51,0,0,0,1.17.61V416l0,.08,0,.11v.06l0,.07-.1.19h0l-.12.17,0,.06a.61.61,0,0,1-.07.1l-.08.12-.1.14-.1.13-.14.17" transform="translate(-590.57 -321.5)"/><path class="cls-4" d="M698.78,411.7l-.21-.19-.08-.09-.1-.11-.07-.09a.23.23,0,0,1-.07-.07.69.69,0,0,0-.11-.13c-1.22-1.51-.56-2.36-1.56-3.46l-.09-.1-.12-.11a.48.48,0,0,0-.11-.09l0-.05h-.05c-.11-.08-.23-.15-.35-.22l-.14-.05-.14-.06-.16-.06h-.11l-.12,0-.25-.07-.11,0a18.5,18.5,0,0,0-.22-2.23,13.46,13.46,0,0,0,3.64-.94,3.7,3.7,0,0,1,1.74,1.6h0l.08.16a4.89,4.89,0,0,1,.34,2,15.65,15.65,0,0,0,1.18,5.48,6,6,0,0,0,2.13,2.65,6.51,6.51,0,0,0,1.17.61V416l0,.08,0,.11v0l0,.08-.1.19h0l-.12.11,0,.06a.61.61,0,0,1-.07.1l-.08.12-.1.14-.1.13-.14.17" transform="translate(-590.57 -321.5)"/><path class="cls-4" d="M698.78,411.7l-.21-.19-.08-.09-.1-.11-.07-.09a.23.23,0,0,1-.07-.07.69.69,0,0,0-.11-.13c-1.22-1.51-.56-2.36-1.56-3.46l-.09-.1-.12-.11a.48.48,0,0,0-.11-.09l0-.05h-.05c-.11-.08-.23-.15-.35-.22l-.14-.05-.14-.06-.16-.06h-.11l-.12,0-.25-.07-.11,0a18.5,18.5,0,0,0-.22-2.23,13.46,13.46,0,0,0,3.64-.94,3.7,3.7,0,0,1,1.74,1.6h0l.08.16a4.89,4.89,0,0,1,.34,2,15.65,15.65,0,0,0,1.18,5.48,6,6,0,0,0,2.13,2.65,6.51,6.51,0,0,0,1.17.61V416l0,.08,0,.11v0l0,.08-.1.19h0l-.12.11,0,.06a.61.61,0,0,1-.07.1l-.08.12-.1.14-.1.13-.14.17" transform="translate(-590.57 -321.5)"/><path class="cls-4" d="M698.78,411.7c.21-.84.57-1.87.82-3.21a18.81,18.81,0,0,0,.34-3.43l.08.16a4.89,4.89,0,0,1,.34,2,15.6,15.6,0,0,0,1.18,5.48,6,6,0,0,0,2.13,2.65,6.51,6.51,0,0,0,1.17.61V416l0,.08,0,.11v.06l0,.07-.1.19h0l-.12.17,0,.06a.61.61,0,0,1-.07.1l-.08.12-.1.14-.1.13-.14.17" transform="translate(-590.57 -321.5)"/><path class="cls-4" d="M684.7,399.53c3.15,2.83,5.23,4.4,7,4.79a2.46,2.46,0,0,0,.46.08,11.93,11.93,0,0,0,2.39,0,18.5,18.5,0,0,1,.22,2.23l.11,0,.25.07.12,0h.11l.16.05.14.06.14.06a2.5,2.5,0,0,1,.35.21h.05l0,.05a.35.35,0,0,1,.11.1l.12.1.09.1c1,1.1.34,2,1.56,3.46l.11.13.07.08.07.08.1.11.08.09.21.19" transform="translate(-590.57 -321.5)"/><path class="cls-4" d="M703.93,417.38l.14-.17.1-.13.1-.14.08-.12a.61.61,0,0,0,.07-.1l.06-.06.08-.13h0l.1-.19.05-.08v-.06l0-.11,0-.08V416a7.27,7.27,0,0,1-1.17-.62,6,6,0,0,1-2.13-2.64,15.7,15.7,0,0,1-1.18-5.48,4.86,4.86,0,0,0-.34-2,.89.89,0,0,0-.08-.17h0a3.7,3.7,0,0,0-1.74-1.6,28.62,28.62,0,0,1-2.84-1.51,11.09,11.09,0,0,1-3.41-3.27c-2.21.08-3.33-.51-3.93-1.19s-.47-1.19-1.69-3.14l-.09-.14" transform="translate(-590.57 -321.5)"/><path class="cls-4" d="M684.7,399.53c3.15,2.83,5.23,4.4,7,4.79a2.46,2.46,0,0,0,.46.08,11.93,11.93,0,0,0,2.39,0,18.5,18.5,0,0,1,.22,2.23l.11,0,.25.07.12,0h.11l.16.05.14.06.14.06a2.5,2.5,0,0,1,.35.21h.05l0,.05a.35.35,0,0,1,.11.1l.12.1.09.1c1,1.1.34,2,1.56,3.46l.11.13.07.08.07.08.1.11.08.09.21.19" transform="translate(-590.57 -321.5)"/><path class="cls-4" d="M703.93,417.38l.14-.17.1-.13.1-.14.08-.12a.61.61,0,0,0,.07-.1l.06-.06.08-.13h0l.1-.19.05-.08v-.06l0-.11,0-.08V416a7.27,7.27,0,0,1-1.17-.62,6,6,0,0,1-2.13-2.64,15.7,15.7,0,0,1-1.18-5.48,4.86,4.86,0,0,0-.34-2,.89.89,0,0,0-.08-.17h0a3.7,3.7,0,0,0-1.74-1.6,28.62,28.62,0,0,1-2.84-1.51,11.09,11.09,0,0,1-3.41-3.27c-2.21.08-3.33-.51-3.93-1.19s-.47-1.19-1.69-3.14l-.09-.14" transform="translate(-590.57 -321.5)"/><path class="cls-4" d="M686.23,394.24l.09.14c1.22,2,1.1,2.46,1.69,3.14s1.73,1.27,3.92,1.19a11.12,11.12,0,0,0,3.42,3.27,26.55,26.55,0,0,0,2.84,1.51,3.7,3.7,0,0,1,1.74,1.6h0c0,.05.05.11.08.17a5,5,0,0,1,.34,2,15.92,15.92,0,0,0,1.17,5.48h-.95l-.15,0-.16,0-.16-.06-.1,0-.17-.07-.29-.14-.17-.1-.12-.13h0l-.11-.07-.24-.19-.1-.1-.21-.19-.08-.09-.11-.11-.06-.08a.46.46,0,0,1-.07-.07,1.71,1.71,0,0,0-.11-.14c-1.22-1.51-.56-2.36-1.56-3.46l-.09-.1-.12-.1a.52.52,0,0,0-.11-.1l0-.05h-.05a2.5,2.5,0,0,0-.35-.21l-.14-.06-.14-.05-.16-.06h-.11l-.12,0-.25-.07-.11,0a18.5,18.5,0,0,0-.22-2.23,11.93,11.93,0,0,1-2.39,0,2.46,2.46,0,0,1-.46-.08c-1.8-.39-3.86-2-7-4.79" transform="translate(-590.57 -321.5)"/><path class="cls-4" d="M711,388.43a6.15,6.15,0,0,0,3.13.1" transform="translate(-590.57 -321.5)"/><path class="cls-4" d="M715.68,389.42a5.73,5.73,0,0,0,3.06,1.83h0" transform="translate(-590.57 -321.5)"/><path class="cls-2" d="M708.24,379.55a9,9,0,0,0,3.17,3.83,14.87,14.87,0,0,1,3.6,3.86l-.85.46a3.48,3.48,0,0,1-.26-3,6.69,6.69,0,0,1,2.61-2.48.36.36,0,0,1,.49.16h0a.37.37,0,0,1-.16.49,6,6,0,0,0-2.21,2.23,2.86,2.86,0,0,0,.38,2.19.48.48,0,0,1-.23.64l0,0a.49.49,0,0,1-.61-.23,12.43,12.43,0,0,0-1.35-2.09c-1-1.43-2.61-2.15-3.63-3.63-.47-.76-.8-1.54-1.21-2.29a.16.16,0,0,1,.27-.16Z" transform="translate(-590.57 -321.5)"/><line class="cls-4" x1="128.17" y1="69.76" x2="128.17" y2="69.76"/><path class="cls-2" d="M715.31,388c.88-1.35,2.62-1.67,4.11-1.81a19.64,19.64,0,0,0,4.17-.69.12.12,0,0,1,.08.23,20.68,20.68,0,0,1-4.2,1c-1.24.2-2.7.53-3.43,1.62a.4.4,0,1,1-.73-.33Z" transform="translate(-590.57 -321.5)"/><path class="cls-2" d="M715.15,389.26a4.7,4.7,0,0,0-1.4,3.37,7.28,7.28,0,0,1-.2,2.08,4,4,0,0,1-1,1.88.2.2,0,1,1-.3-.27l0,0c1.46-1.58.48-3.92,1.2-5.76.17-.47,1-2.44,1.72-1.87a.4.4,0,0,1,0,.57l0,0Z" transform="translate(-590.57 -321.5)"/><path class="cls-5" d="M691.4,394.57a4.66,4.66,0,0,1-1.79-2.33,2.89,2.89,0,0,1-.14-1h0c0-.76.33-1.49.49-2.86a9.62,9.62,0,0,0-.3-3.74h0a8.12,8.12,0,0,1-.11-2.41,10.51,10.51,0,0,1,1.26-4.34l.37-.59a9.55,9.55,0,0,1,1.2-1.49,7.89,7.89,0,0,1,3.79-2.23,7.4,7.4,0,0,1,1.69-.23,8.34,8.34,0,0,1,2.22.23" transform="translate(-590.57 -321.5)"/><path class="cls-5" d="M694.13,391.17a3,3,0,0,1-.73-1.57c-.16-1,.55-1.35.87-2.67.44-1.86-.58-2.38-.35-4.41a6.5,6.5,0,0,1,.44-1.8h0A4.67,4.67,0,0,1,695.6,379a5.33,5.33,0,0,1,4.28-1" transform="translate(-590.57 -321.5)"/><path class="cls-5" d="M697.21,383.64a13.1,13.1,0,0,1-1.85-1.72,12.11,12.11,0,0,1-1-1.17h0" transform="translate(-590.57 -321.5)"/><path class="cls-5" d="M692.39,375.84a10.64,10.64,0,0,1,.19-3,.34.34,0,0,1,0-.17c.6-3.2,2-3.7,1.75-5.8a3.8,3.8,0,0,0-.59-1.7,3.27,3.27,0,0,1-.56-2,4.82,4.82,0,0,1,1.61-3.46A2.78,2.78,0,0,1,697,359c.93.21,1.41,1.14,1.7,1.7l.16.34a8.46,8.46,0,0,1,.25,4.57,1.15,1.15,0,0,1-.06.28c-.31,1.61-.71,2-1,3.38a10.11,10.11,0,0,0-.27,1.91,12.63,12.63,0,0,0,.1,2.21" transform="translate(-590.57 -321.5)"/><path class="cls-5" d="M697.77,371.17a2.36,2.36,0,0,1,1.24-.49,2.62,2.62,0,0,1,1.7.58" transform="translate(-590.57 -321.5)"/><path class="cls-5" d="M699.08,365.89a3.64,3.64,0,0,0,1.22.47,4.85,4.85,0,0,0,.55.08,5.2,5.2,0,0,1,1.89.13,3.19,3.19,0,0,1,1.38,1.05" transform="translate(-590.57 -321.5)"/><path class="cls-5" d="M692.61,372.69a4.83,4.83,0,0,0-1.89.92c-.93.78-.65,1.23-1.51,1.74s-1.51.07-2.78.66-1.47,1.42-2,1.3c-.65-.18-.81-1.76-.72-2.77a5.42,5.42,0,0,1,1.42-3.37c.83-.88,1.18-.58,4.23-2.36a11.07,11.07,0,0,0,1.67-1.12c1.08-.87,1.15-1.31,1.82-1.85a4.41,4.41,0,0,1,.9-.6" transform="translate(-590.57 -321.5)"/><path class="cls-5" d="M698.89,361A8.82,8.82,0,0,1,702,358a9,9,0,0,1,4.89-1.18,8.83,8.83,0,0,1,5,1.87c1,.87,1.1,1.42,2.19,2l.28.13h0c1.22.53,2,.21,3,.55a3.33,3.33,0,0,1,1.42,1,8.21,8.21,0,0,1,1.37,2.76c-2,.25-3.2,2.61-3.2,2.61a5.76,5.76,0,0,0-2.11-2.78,1.54,1.54,0,0,0-.72-.21c-.8,0-1.58.57-2.71.16-.54-.19-.69-.46-1.39-1-.17-.14-.36-.31-.58-.48a7.07,7.07,0,0,0-2.49-1.37,5.12,5.12,0,0,0-3.84.79,5.45,5.45,0,0,0-2.23,3.69" transform="translate(-590.57 -321.5)"/><path class="cls-5" d="M709.41,363.33a4.42,4.42,0,0,0-2,2,3.58,3.58,0,0,0-.29,1.68" transform="translate(-590.57 -321.5)"/><path class="cls-5" d="M714.81,364.89a5.84,5.84,0,0,0-2.23,1.61,7,7,0,0,0-1.38,2.81" transform="translate(-590.57 -321.5)"/><path class="cls-5" d="M714.32,360.76h0a20.81,20.81,0,0,0,1.91-1.31" transform="translate(-590.57 -321.5)"/><path class="cls-5" d="M720.41,360.84c-.51.5-1.06,1-1.67,1.5" transform="translate(-590.57 -321.5)"/><path class="cls-5" d="M724,356.76a5.72,5.72,0,0,1,.69-.65c.74-.66,1.44-1.17,1.39-1.86s-.73-1.12-1.22-1.31c-1.48-.65-3.16.51-3.54.76a4.66,4.66,0,0,0-1.64,2h0" transform="translate(-590.57 -321.5)"/><path class="cls-5" d="M724.09,363.25a7.73,7.73,0,0,0-1.07-1.07,8.38,8.38,0,0,0-2.58-1.31c-.44-.17-1-.36-1.6-.57-1.17-.39-2-.66-2.58-.81a7.73,7.73,0,0,1-2.34-.81c-1.46-.85-3.89-2.86-3.46-4.84a3.33,3.33,0,0,1,2-2.07,4,4,0,0,1,3.66.59c1.24.85.91,1.62,2.14,2.61a3.63,3.63,0,0,0,1.49.69h0c.52.15,1.22.3,2.28.58l2,.56a11.4,11.4,0,0,1,2.14.78,7,7,0,0,1,3,3.69" transform="translate(-590.57 -321.5)"/><path class="cls-5" d="M723.36,365.67a5.34,5.34,0,0,1,.7-2.4,3.75,3.75,0,0,1,.62-.76c.78-.7,1.66-.85,3.35-1.12.39-.07.74-.1,1.06-.14,2.57-.23,3.37.4,4.92-.44.87-.48,1.23-1,2.32-1.22.32-.06,1.69-.32,2.32.41s.23,2.31-.47,3.27c-.94,1.3-2.61,1.75-4.4,2.26-1.28.36-1.85.36-2.38.93a2.5,2.5,0,0,0-.6,1.15" transform="translate(-590.57 -321.5)"/><path class="cls-5" d="M725.85,368.89a5,5,0,0,1,2.71-1.6,5.91,5.91,0,0,1,2.24.28L733,368a30,30,0,0,0,4.43.81h.09a10.12,10.12,0,0,1,2.38.11,4.73,4.73,0,0,1,2.06,1.31,6.93,6.93,0,0,1,1.25,1.82,6.67,6.67,0,0,1,.65,3.26,8.88,8.88,0,0,1-2.36,5.61,12.34,12.34,0,0,1-1.41,1.3" transform="translate(-590.57 -321.5)"/><path class="cls-5" d="M726.65,374.07a5.55,5.55,0,0,1,6.79-2.25l.25.13c1.17.65,1.38,1.59,2.79,2,1,.25,1.48-.05,1.84.12a.22.22,0,0,1,.09.07c.46.37.49,1.6-1.3,5.35" transform="translate(-590.57 -321.5)"/><path class="cls-5" d="M727.48,375.29c1-.43,1.79-.84,2.47-1.21a32,32,0,0,0,3.49-2.26" transform="translate(-590.57 -321.5)"/><path class="cls-5" d="M731.35,377.44h0c1.64-.78,3.1-1.48,4.33-2.1s2-1,2.62-1.31" transform="translate(-590.57 -321.5)"/><path class="cls-5" d="M737.45,368.85a7.67,7.67,0,0,0,1.82-1.82c1.1-1.82.76-2.94,2.1-3.92a4.31,4.31,0,0,1,3.27-.71c1,.21,2.51.93,2.7,2.25a3.11,3.11,0,0,1-1.11,2.45c-1,1-1.66.86-2.78,1.56a3.91,3.91,0,0,0-1.46,1.61" transform="translate(-590.57 -321.5)"/><path class="cls-5" d="M743.86,375.34a6.67,6.67,0,0,1,2.35,1.56c1,1.06.66,1.83,1.84,3.67a8.86,8.86,0,0,0,.52.73c.75.94,1.19,1,1.74,2.17a5.91,5.91,0,0,1,.66,3,4.24,4.24,0,0,1-.19.94c-.15.42-.54,1.6-1.38,1.78a2.09,2.09,0,0,1-1.76-.88h0a8.88,8.88,0,0,1-1.08-1.44c-.87-1.42-.74-2.22-1.13-3.15a2.62,2.62,0,0,0-.26-.5,5.46,5.46,0,0,0-3.65-2.25" transform="translate(-590.57 -321.5)"/><path class="cls-5" d="M748.57,381.3a5.63,5.63,0,0,1,2.34-.66c.51,0,2.66-.13,3.52,1.31a2.92,2.92,0,0,1-.12,3c-.65,1-1.63.92-3.36,1.52" transform="translate(-590.57 -321.5)"/><path class="cls-5" d="M747.62,388.28h0l-1.3,1-.43.33a24.94,24.94,0,0,0-2.42,2.18,9.41,9.41,0,0,1-1.57,1.38,10.21,10.21,0,0,1-1.54.88,11.91,11.91,0,0,1-3.21.91" transform="translate(-590.57 -321.5)"/><path class="cls-5" d="M740.56,386.94a8.4,8.4,0,0,0,2.82-1.25,12.8,12.8,0,0,0,2-2" transform="translate(-590.57 -321.5)"/><path class="cls-5" d="M743.48,391.82a6.77,6.77,0,0,1,.65,4.15,6.93,6.93,0,0,1-.38,1.49,4.37,4.37,0,0,1-1.61,2.22l-.21.12c-.65.35-.86.16-1.31.55-1.11.9-.44,2.42-1.3,3.6a3,3,0,0,1-1.88,1.09" transform="translate(-590.57 -321.5)"/><path class="cls-5" d="M733.58,408.82h0a9.33,9.33,0,0,0,1.73.94,7.4,7.4,0,0,0,4.21.46h.14a7.67,7.67,0,0,0,1.81-.65,6.88,6.88,0,0,0,2.32-1.82,6.6,6.6,0,0,0,1.13-2.36h0a7.6,7.6,0,0,1,.81-1.58,7.68,7.68,0,0,1,1.72-2,4.67,4.67,0,0,0,1.31-1.49,6.88,6.88,0,0,0,.79-3.75,12.23,12.23,0,0,0-.47-2.61,10.68,10.68,0,0,0-2.77-4.69" transform="translate(-590.57 -321.5)"/><path class="cls-5" d="M749.59,396.6a8,8,0,0,0,2.93,2.58c.41.19,1.62.65,1.83,1.66a2,2,0,0,1-.27,1.31A3.28,3.28,0,0,1,752,404a3,3,0,0,1-2.09-.53,14.52,14.52,0,0,1-2.39-1.65" transform="translate(-590.57 -321.5)"/><path class="cls-5" d="M740.36,394.06a7.63,7.63,0,0,1,1.6,1,6.84,6.84,0,0,1,1.82,2.41" transform="translate(-590.57 -321.5)"/><path class="cls-5" d="M737.33,396.82a7.87,7.87,0,0,1,3.06,1.16,7.25,7.25,0,0,1,1.78,1.67" transform="translate(-590.57 -321.5)"/><path class="cls-5" d="M741.47,409.54a7.68,7.68,0,0,0,2.5,5,2.54,2.54,0,0,0,1.88.65c1.23-.21,2.1-1.88,2-3.27-.06-1.08-.65-1.58-1.45-2.71a10,10,0,0,1-1.5-3.88h0" transform="translate(-590.57 -321.5)"/><path class="cls-5" d="M735.31,409.76a3,3,0,0,1-.32,2.49,3,3,0,0,1-2.12,1.11" transform="translate(-590.57 -321.5)"/><path class="cls-5" d="M739.66,410.19a7.62,7.62,0,0,1-2.87,7.06,7,7,0,0,1-3.68,1.26" transform="translate(-590.57 -321.5)"/><path class="cls-5" d="M729.38,410.13a7.29,7.29,0,0,1,2.06,1.42,8.75,8.75,0,0,1,1.43,1.84,5.32,5.32,0,0,1,.79,3.27,15.09,15.09,0,0,1-.55,1.85,3.83,3.83,0,0,0-.07.83c0,1.12.35,1.53.17,2.62-.09.5-.26,1.54-.94,1.89s-1.75-.44-3.49-1.19c-1.55-.65-1.92-.43-3.87-.79-.39-.07-.85-.17-1.4-.31-1.06-.25-1.91-.46-2.62-.69h0a7.3,7.3,0,0,1-4.46-3.21" transform="translate(-590.57 -321.5)"/><path class="cls-5" d="M727.11,415.06a7.55,7.55,0,0,0,.65,1.65c.49,1,1.1,1.61.83,2s-1.17.38-1.81,0a2.85,2.85,0,0,1-1-1.46,3.28,3.28,0,0,0-.66-.87" transform="translate(-590.57 -321.5)"/><path class="cls-5" d="M712.76,414.33a6.28,6.28,0,0,1,2.39,3,15.33,15.33,0,0,1,.42,1.65,3.9,3.9,0,0,0,1.14,2.15,2.84,2.84,0,0,0,1.31.73,3.43,3.43,0,0,0,2.88-1h0" transform="translate(-590.57 -321.5)"/><path class="cls-5" d="M708.4,416.49a14.4,14.4,0,0,1,1,1.46l.25.45c1.07,2,.83,2.62,2,4.42h0a10.08,10.08,0,0,0,4,3.62,7,7,0,0,0,3.08.81c2.4-.06,4.71-2.24,6.1-5.44" transform="translate(-590.57 -321.5)"/><path class="cls-5" d="M717.42,413.24a3,3,0,0,0-.66.91c-.38.91,0,1.49-.1,2.51a3.62,3.62,0,0,1-.25,1,5.84,5.84,0,0,1-.84,1.31" transform="translate(-590.57 -321.5)"/><path class="cls-5" d="M709.34,424.51l.41-.26a21.37,21.37,0,0,0,2-1.43" transform="translate(-590.57 -321.5)"/><path class="cls-5" d="M706,420.59a17.12,17.12,0,0,0,3.37-2.62" transform="translate(-590.57 -321.5)"/><path class="cls-5" d="M701,422.47c-1.44.37-2.62.72-2.75,1.54-.1.49.18,1,.65,1.75.35.57,1,1.61,2,1.81a2.32,2.32,0,0,0,1.44-.23c.72-.31,1.31-.56,1.85-.75" transform="translate(-590.57 -321.5)"/><path class="cls-5" d="M698.2,403.46a13.46,13.46,0,0,1-3.64.94,11.93,11.93,0,0,1-2.39,0,2.46,2.46,0,0,1-.46-.08c-1.8-.39-3.86-2-7-4.79-1.2-1.09-2.56-2.35-4.13-3.81a4,4,0,0,1-1.48-2.66,2.61,2.61,0,0,1,1-2.26c1.31-.84,3.13.29,3.59.56a8,8,0,0,1,2.53,2.87h0l.09.15c1.22,2,1.1,2.46,1.69,3.13s1.73,1.27,3.92,1.2" transform="translate(-590.57 -321.5)"/><path class="cls-5" d="M704.84,415.94V416l0,.08,0,.11v.06l0,.07-.1.19h0l-.12.15,0,.06a.61.61,0,0,1-.07.1l-.08.12-.1.14-.1.13-.14.17a4.31,4.31,0,0,1-1.83,1.26,4.89,4.89,0,0,1-3.6-.3c-.82-.38-1.31-.89-3.31-3.59-.54-.74-1-1.31-1.27-1.78a10.29,10.29,0,0,0-1.75-2.28c-2-1.73-2.8-1-4.57-2.5a9.81,9.81,0,0,1-3-6.5,9.18,9.18,0,0,1,.07-2.16" transform="translate(-590.57 -321.5)"/><path class="cls-5" d="M686.23,394.24h0a6.65,6.65,0,0,1,.83-1.16,7.7,7.7,0,0,1,2.43-1.8h0" transform="translate(-590.57 -321.5)"/><path class="cls-5" d="M691.71,404.32a5.33,5.33,0,0,0,1.31,1.49,4.6,4.6,0,0,0,1.73.82l.12,0,.25.07.11,0h.12l.16.05.14.06.13.06a2.6,2.6,0,0,1,.36.21h0l.05.05a.38.38,0,0,1,.12.1l.11.1.09.1c1,1.1.34,2,1.56,3.46l.12.13.06.08.07.08.1.11.09.09.2.19.11.09a1.12,1.12,0,0,0,.24.19.39.39,0,0,0,.1.08h0l.1.06.17.1.29.14.17.08.1,0,.17,0,.15,0,.15,0h1" transform="translate(-590.57 -321.5)"/><path class="cls-5" d="M694.78,406.63a18.5,18.5,0,0,0-.22-2.23" transform="translate(-590.57 -321.5)"/><path class="cls-5" d="M699.94,405.06h0a18.81,18.81,0,0,1-.34,3.43c-.25,1.3-.61,2.37-.82,3.21" transform="translate(-590.57 -321.5)"/><path class="cls-5" d="M703.93,417.38A6.59,6.59,0,0,0,706,420.6c1.45,1.19,2.73,1.13,3.2,2.45a3.37,3.37,0,0,1,.12,1.48,3.72,3.72,0,0,1-2.17,3,3,3,0,0,1-2.29-.18,1.9,1.9,0,0,1-.71-.75A12.14,12.14,0,0,0,703,424a6.76,6.76,0,0,0-2.07-1.57l-1.43-.82c-2.89-1.64-3.12-1.39-3.86-2.17a7.53,7.53,0,0,1-1.79-4.77,7.24,7.24,0,0,1,0-1.74" transform="translate(-590.57 -321.5)"/><path class="cls-5" d="M690.83,377.92a5.07,5.07,0,0,0-2.79,1c-1.54,1.22-1.12,2.61-3.06,4.21a15.5,15.5,0,0,1-2.3,1.56c-1.07.56-1.53.6-1.8,1.11a2.58,2.58,0,0,0,.65,2.62,3.29,3.29,0,0,0,3,1c1-.17,1.52-.74,2.92-2.26.86-.94,1.63-1.78,2.28-2.51h0" transform="translate(-590.57 -321.5)"/><path class="cls-2" d="M686.17,374.86a1.18,1.18,0,0,1,1.33-1l.15,0c.54.22,1.09.29,1.39-.31a3.51,3.51,0,0,1,2.83-2v.07c-.66.58-1.31,1.07-1.93,1.58a3.63,3.63,0,0,1-2.39,1.14,1.67,1.67,0,0,0-1.34.48l-.06,0Z" transform="translate(-590.57 -321.5)"/><path class="cls-2" d="M686.56,371.89a2.83,2.83,0,0,1,1.78-.33c1-.36,1.49-1.14,2.7-1.31l.05,0a2.4,2.4,0,0,1-.86,1,6,6,0,0,1-1.83.51,1.72,1.72,0,0,1-1.83.2v-.09Z" transform="translate(-590.57 -321.5)"/><path class="cls-2" d="M688.75,370.39a9.75,9.75,0,0,1,2-1.53,2.83,2.83,0,0,0,.5-.69,2.8,2.8,0,0,1,1.38-1.16,3.08,3.08,0,0,1,1.75-.15v.06c-1.22.69-2.61,1-3.49,2.09a2.61,2.61,0,0,1-2.1,1.44v-.06Z" transform="translate(-590.57 -321.5)"/><path class="cls-2" d="M693.7,374.71c-.72-1.72.25-3.36.65-5a16.41,16.41,0,0,0,.31-4.89h.06a5.13,5.13,0,0,1,.65,2.51c.07,1.38-.78,2.45-1.18,3.68-.17,1.25-.18,2.45-.45,3.72Z" transform="translate(-590.57 -321.5)"/><path class="cls-2" d="M697.74,371.63a.86.86,0,0,1-.94-.3,3,3,0,0,0-.42-.91,1.15,1.15,0,0,1,.26-1.61,1,1,0,0,1,.27-.14l.06,0a10.09,10.09,0,0,1-.25,1.62c-.07.34.18.53.46.65a1.81,1.81,0,0,1,.58.62v.06Z" transform="translate(-590.57 -321.5)"/><path class="cls-2" d="M697.76,371.06a4.14,4.14,0,0,1-.41-2.42,21.76,21.76,0,0,0,.59-2.38,26.24,26.24,0,0,0,.1-4.69h.06a5.21,5.21,0,0,1,.66,2.38c.12,1.3-.59,2.38-.9,3.56-.06,1.2,0,2.31-.06,3.55h0Z" transform="translate(-590.57 -321.5)"/><path class="cls-2" d="M702.18,359.13c1.34-2,3.7-2.09,5.83-1.52s3.14,2.62,5.11,3.56v.06a5.16,5.16,0,0,1-2.86-1.44,5.73,5.73,0,0,0-3.81-2.22,10.36,10.36,0,0,0-4.2,1.61l0-.05Z" transform="translate(-590.57 -321.5)"/><path class="cls-2" d="M710.5,362.93a13.54,13.54,0,0,1,2.74,1.24c1,.27,2.13.25,3,.95a4.16,4.16,0,0,1,1.3,1.61l0,0c-1.47-.86-2.68-2-4.34-2.39a3.67,3.67,0,0,1-2.72-1.4l0-.05Z" transform="translate(-590.57 -321.5)"/><path class="cls-2" d="M708.4,365.53c0-.52.24-.57.61-.66s.22-.56.51-.76c.1-.07.54-.27.66-.11a.92.92,0,0,1-.24.65c-.23.27-.65.2-.82.41-.12.36-.2.59-.71.53l0,0Z" transform="translate(-590.57 -321.5)"/><path class="cls-2" d="M720.34,359.56a2.28,2.28,0,0,1,1.86.83,11,11,0,0,1,1.84.93,3.06,3.06,0,0,1,.86,1.12l0,0c-1.24-.33-1.79-1.25-2.75-1.91a3,3,0,0,1-1.78-.95v-.06Z" transform="translate(-590.57 -321.5)"/><path class="cls-2" d="M718.57,357.17a1.2,1.2,0,0,1,1.3.43c.41.19.94,0,1.34.23a1.65,1.65,0,0,1,.76.57v.05a1.67,1.67,0,0,1-1.38-.15c-.28-.1-.47-.45-.78-.51a1.22,1.22,0,0,1-1.23-.56v-.06Z" transform="translate(-590.57 -321.5)"/><path class="cls-2" d="M720.7,357.09a5,5,0,0,1,2.12.66c.77.13,1.53-.24,2.32.11a2.26,2.26,0,0,1,1.16,1.1l0,.05a17.28,17.28,0,0,0-3.46-1.05,2.38,2.38,0,0,1-2.13-.77l0-.06Z" transform="translate(-590.57 -321.5)"/><path class="cls-2" d="M724.68,365.27a3.27,3.27,0,0,1,2.74-2.1,27.15,27.15,0,0,1,5.62-1.31v.06a7.24,7.24,0,0,1-2.13,1c-1.12.37-2.34.18-3.45.5a17.54,17.54,0,0,0-2.74,2l-.05,0Z" transform="translate(-590.57 -321.5)"/><path class="cls-2" d="M724.87,366.94c-.21-.53.08-.84.49-1.05s.34-.75.78-.95a1.07,1.07,0,0,1,.86,0V365a2.31,2.31,0,0,1-.54.54c-.25.21-.74.21-1,.49-.11.45-.08.66-.59.93h-.07Z" transform="translate(-590.57 -321.5)"/><path class="cls-2" d="M729.32,367.29a2.15,2.15,0,0,1,1.48-2.09,12.89,12.89,0,0,1,3.82-1.9l0,.06a4.44,4.44,0,0,1-1.3,1.14c-.75.47-1.7.41-2.42.87-.58.65-.9,1.31-1.53,2h-.06Z" transform="translate(-590.57 -321.5)"/><path class="cls-2" d="M738.69,368.85a3.7,3.7,0,0,1,1.27-1.5c.38-.55.37-1.31.78-1.85a3.32,3.32,0,0,1,1-.93l.06,0a4.38,4.38,0,0,1-.48,1.26c-.3.57-.84,1-1.19,1.6a1.88,1.88,0,0,1-1.41,1.42l0,0Z" transform="translate(-590.57 -321.5)"/><path class="cls-2" d="M741.26,369.48a3.38,3.38,0,0,1,1.44-1.18c.45-.48.48-1.2,1.13-1.61a1.89,1.89,0,0,1,1.3-.34v.07c-.75.78-1.57,1.26-2.3,2a1.74,1.74,0,0,1-1.55,1.1l0-.06Z" transform="translate(-590.57 -321.5)"/><path class="cls-2" d="M726.45,372.59a1.44,1.44,0,0,1,1.31-1c.49-.25.88-.74,1.46-.84a1.93,1.93,0,0,1,1.14.1v.07a3.78,3.78,0,0,1-2,.65,1,1,0,0,0-.5.17,2.09,2.09,0,0,1-1.34.88l0-.05Z" transform="translate(-590.57 -321.5)"/><path class="cls-2" d="M730.74,369.14a5.93,5.93,0,0,1,2.74.26,4.92,4.92,0,0,0,2.55.78,8.52,8.52,0,0,1,2.72-.38,3.88,3.88,0,0,1,2.44,1.4l0,.05a7.48,7.48,0,0,0-2.47-.77c-.88-.12-1.77.23-2.67,0a26.69,26.69,0,0,0-2.68-.61,24,24,0,0,1-2.61-.71v-.07Z" transform="translate(-590.57 -321.5)"/><path class="cls-2" d="M733.7,371.16a1.2,1.2,0,0,1,1.51.13c.5.15,1.09.09,1.51.44a1.59,1.59,0,0,1,.6.9l0,0a3.53,3.53,0,0,1-1.7-1,1,1,0,0,0-.43-.23,1.83,1.83,0,0,1-1.44-.26v-.06Z" transform="translate(-590.57 -321.5)"/><path class="cls-2" d="M738.84,374.52a1.3,1.3,0,0,1,.68,1.56,3,3,0,0,1,0,1.79,1.58,1.58,0,0,1-.86.86l0,0a11,11,0,0,1,.65-2,.91.91,0,0,0,.06-.54,3.25,3.25,0,0,1-.54-1.55l.05,0Z" transform="translate(-590.57 -321.5)"/><path class="cls-2" d="M731.86,376.06a1.42,1.42,0,0,1,1.3-1c.52-.25,1-.71,1.56-.75a1.87,1.87,0,0,1,1.16.22v.07a4.64,4.64,0,0,1-2.1.5.93.93,0,0,0-.52.15,2.35,2.35,0,0,1-1.33.91l0,0Z" transform="translate(-590.57 -321.5)"/><path class="cls-2" d="M743.81,376a.57.57,0,0,1,.66.08c.11.22.17.42.46.46a.81.81,0,0,1,.68.93.5.5,0,0,1,0,.12c-.2.1-.56-.2-.66-.27s-.21-.65-.45-.76-.56,0-.74-.5V376Z" transform="translate(-590.57 -321.5)"/><path class="cls-2" d="M746.28,378.88a3.09,3.09,0,0,1,.34,1.64.9.9,0,0,0,.31.46,8.81,8.81,0,0,1,1.51,1.6l0,.06a1.75,1.75,0,0,1-1.15-.43c-.51-.4-.59-1.06-.82-1.61a1.38,1.38,0,0,1-.22-1.72Z" transform="translate(-590.57 -321.5)"/><path class="cls-2" d="M746.64,384.21a2.44,2.44,0,0,1,.8,1.81c.23.61.8,1.08,1,1.71a3.66,3.66,0,0,1,.24,1.31h-.06c-1-.78-1-1.92-1.38-3a2.44,2.44,0,0,1-.66-1.85h.06Z" transform="translate(-590.57 -321.5)"/><path class="cls-2" d="M743,387c.07-.53.33-.58.73-.65s.32-.61.66-.8a1,1,0,0,1,.71-.16l0,0a1.13,1.13,0,0,1-.33.66c-.26.27-.69.21-.93.42-.17.38-.29.62-.82.56l0-.05Z" transform="translate(-590.57 -321.5)"/><path class="cls-2" d="M737.68,392.56a3.19,3.19,0,0,1,1.81-.07c.92-.2,1.62-1,2.77-1.15l0,.06a2.13,2.13,0,0,1-.89.94,4.85,4.85,0,0,1-1.89.36,1.68,1.68,0,0,1-1.85-.07v-.07Z" transform="translate(-590.57 -321.5)"/><path class="cls-2" d="M737.45,393.19c.92.08,1.65.34,2.52.46,1.43-.23,2.42-1.37,3.67-2.07l.06,0c-.51,1.58-2.18,2.21-3.71,2.24a2.4,2.4,0,0,1-2.57-.61v-.06Z" transform="translate(-590.57 -321.5)"/><path class="cls-2" d="M745.26,394.89a.66.66,0,0,1,.32.66c-.12.23-.25.42-.11.65a1,1,0,0,1-.41,1.3H745a1.4,1.4,0,0,1-.12-.7c0-.31.37-.61.35-.92-.19-.37-.32-.53,0-1Z" transform="translate(-590.57 -321.5)"/><path class="cls-2" d="M743.9,399.25a1.94,1.94,0,0,1-1.26,1.36,15.14,15.14,0,0,1-2.15,2.16h-.06a2.25,2.25,0,0,1,1.55-2,1.46,1.46,0,0,0,.52-.32,2.47,2.47,0,0,1,1.35-1.25l0,0Z" transform="translate(-590.57 -321.5)"/><path class="cls-2" d="M737.46,398.09a.81.81,0,0,1,1.13-.2l.09.07c.45.09.88,0,1.3.31a1.07,1.07,0,0,1,.38.82l-.06,0a2.43,2.43,0,0,1-1.3-.8.6.6,0,0,0-.35-.16,1.25,1.25,0,0,1-1.16,0v-.07Z" transform="translate(-590.57 -321.5)"/><path class="cls-2" d="M742.82,394.75c.49-.14.44.07.52.33s.43,0,.62.2.19.37.06.55a.65.65,0,0,1-.51,0c-.23-.15-.14-.48-.31-.58h-.26a.4.4,0,0,1-.12-.49Z" transform="translate(-590.57 -321.5)"/><path class="cls-2" d="M748.1,400.92a4.44,4.44,0,0,1,1.62,1.36c1,.57,2.23.55,3.27,1.19v.07a2.68,2.68,0,0,1-1.51,0,5.71,5.71,0,0,1-1.9-1.13A2.18,2.18,0,0,1,748,401l.06,0Z" transform="translate(-590.57 -321.5)"/><path class="cls-2" d="M738.94,406.4a3.12,3.12,0,0,1,1.67-.92c.82-.66,1.16-1.61,2.25-2.21l0,0a2.45,2.45,0,0,1-.54,1.23c-.41.55-1.11.74-1.65,1.11a1.86,1.86,0,0,1-1.76.81v-.06Z" transform="translate(-590.57 -321.5)"/><path class="cls-2" d="M742.27,408a2.47,2.47,0,0,1,1.15-1,.94.94,0,0,0,.24-.45,5.21,5.21,0,0,1,.65-1.92h.07a1.61,1.61,0,0,1,.15,1.14c-.1.59-.65.93-1,1.37a1.24,1.24,0,0,1-1.3.95V408Z" transform="translate(-590.57 -321.5)"/><path class="cls-2" d="M735,408.23a12.55,12.55,0,0,1,2.69.71,5,5,0,0,0,4-1.69h.06a2.62,2.62,0,0,1-3.09,2c-.31-.06-.63-.11-1-.14a3.08,3.08,0,0,1-2.69-.85v-.06Z" transform="translate(-590.57 -321.5)"/><path class="cls-2" d="M745.08,407.58a1.45,1.45,0,0,1,.62,1.09,4.19,4.19,0,0,0-.13,1.27,17.19,17.19,0,0,1,0,2.27h-.06a1.76,1.76,0,0,1-.6-1.14,2,2,0,0,1,.29-1.23,1,1,0,0,0,.14-.56,3.79,3.79,0,0,1-.34-1.69h.08Z" transform="translate(-590.57 -321.5)"/><path class="cls-2" d="M733.55,417.18a11.23,11.23,0,0,1,2.27-.69c1-.66,1.62-2.09,2.53-3h.06c0,1.53-1.23,2.55-2.49,3.15a2.25,2.25,0,0,1-2.37.58v0Z" transform="translate(-590.57 -321.5)"/><path class="cls-2" d="M733.62,414.66c0-.25.13-.35.26-.34s.27.18.36,0c.17-.35.4-.37.72-.11a.48.48,0,0,1-.21.48c-.23.11-.44-.14-.58-.05s-.07.16-.12.21a.35.35,0,0,1-.43-.16Z" transform="translate(-590.57 -321.5)"/><path class="cls-2" d="M728.46,412.89a2.32,2.32,0,0,1,1.19,1.31,16.37,16.37,0,0,0,.35,1.72c.14.5.24,1.13.35,1.62s.23,1,.32,1.63l-.06,0a3.11,3.11,0,0,1-.93-1.5c-.29-.88.13-1.73-.09-2.57a17.48,17.48,0,0,1-1.18-2.17l.05,0Z" transform="translate(-590.57 -321.5)"/><path class="cls-2" d="M732.39,418.86a1,1,0,0,1,.17,1.31c0,.44.2.92,0,1.36a1.31,1.31,0,0,1-.65.7h-.06a2.17,2.17,0,0,1,0-.88c.07-.38.44-.75.44-1.16a1.3,1.3,0,0,1,0-1.27h.06Z" transform="translate(-590.57 -321.5)"/><path class="cls-2" d="M716.7,416.46a4.15,4.15,0,0,1,2.06,1.56,27.59,27.59,0,0,0,3.79,1.83v.08a3.12,3.12,0,0,1-1.79-.11c-.91-.29-1.41-1.08-2.12-1.62a4.15,4.15,0,0,1-2-1.67l.05,0Z" transform="translate(-590.57 -321.5)"/><path class="cls-2" d="M714.94,416.74a1.81,1.81,0,0,1,.38-.66.42.42,0,0,0,.26-.54l-.06-.11a1.17,1.17,0,0,1,.41-1.61l.07,0,.06,0a5.78,5.78,0,0,1-.26,2,1.46,1.46,0,0,1,0,.51.74.74,0,0,1-.82.46l0-.05Z" transform="translate(-590.57 -321.5)"/><path class="cls-2" d="M714.28,418.32a3.57,3.57,0,0,1,1.2,2.41,3.28,3.28,0,0,0,.85,1.42,5.6,5.6,0,0,0,2.33.66v.06a2.25,2.25,0,0,1-2.76-.26c-.5-.53-.33-1.22-.62-1.8a5.66,5.66,0,0,1-1.06-2.45l.06,0Z" transform="translate(-590.57 -321.5)"/><path class="cls-2" d="M709.38,416.32c1.5.79,1.56,2.34,2.22,3.68s1.36,2.4,2,3.69l0,.05a5,5,0,0,1-2.32-3.63,3.37,3.37,0,0,0-.29-1,17,17,0,0,1-1.64-2.71Z" transform="translate(-590.57 -321.5)"/><path class="cls-2" d="M714.11,421.24a1.61,1.61,0,0,1,.91,1.16.88.88,0,0,0,.37.32,2.6,2.6,0,0,1,1.38,1.37l0,.06a1.8,1.8,0,0,1-1-.37c-.43-.3-.56-.87-.9-1.25a1.29,1.29,0,0,1-.79-1.26h.05Z" transform="translate(-590.57 -321.5)"/><path class="cls-2" d="M706.84,421.15a1.31,1.31,0,0,1,.66-.69,1.08,1.08,0,0,0,.85-.4,2,2,0,0,1,1.67-.85l0,.06a1.88,1.88,0,0,1-.65.75c-.37.29-.93.27-1.31.52a1.29,1.29,0,0,1-1.23.65l0-.05Z" transform="translate(-590.57 -321.5)"/><path class="cls-2" d="M694.47,413.7a17.1,17.1,0,0,0,2.12,4.49c1.15,1.3,2.79,1.7,4.44,2.15a5.52,5.52,0,0,1,2.61,2.28l0,0a11.1,11.1,0,0,0-4.43-2.19,8.47,8.47,0,0,1-2.72-2.15,5.55,5.55,0,0,1-2-4.62Z" transform="translate(-590.57 -321.5)"/><path class="cls-2" d="M702.7,418.17a1.75,1.75,0,0,1,1.31,1.37,13.56,13.56,0,0,0,1.06,1.43,5.24,5.24,0,0,0,.84.79v.06c-.95.29-1.86-.72-1.84-1.61a1.26,1.26,0,0,0-.23-.56,3.24,3.24,0,0,1-1.17-1.42l.05-.06Z" transform="translate(-590.57 -321.5)"/><path class="cls-2" d="M685.77,403.35a9.12,9.12,0,0,0,3.49,4.29c1.7,1,3.57,1.65,5,3.06a8.25,8.25,0,0,1,2,3.37h-.06a20.56,20.56,0,0,0-7-6.28,5.05,5.05,0,0,1-3.44-4.45h.08Z" transform="translate(-590.57 -321.5)"/><path class="cls-2" d="M696.7,415.17c.51,0,.42.19.41.48s.42.14.55.39c0,.1.09.43-.09.56a.64.64,0,0,1-.49-.18c-.19-.21,0-.51-.15-.65s-.18,0-.25-.09a.36.36,0,0,1,0-.5h0Z" transform="translate(-590.57 -321.5)"/><path class="cls-2" d="M694.76,409.58a1.25,1.25,0,0,1,.85.59,1.42,1.42,0,0,0,.53.88,1.9,1.9,0,0,1,.78,1.85h-.06a2.61,2.61,0,0,1-.65-.75c-.27-.4-.26-1-.56-1.37a1.65,1.65,0,0,1-.91-1.17l0-.05Z" transform="translate(-590.57 -321.5)"/><path class="cls-2" d="M694.29,407.66a3,3,0,0,1,2,1.06,19.41,19.41,0,0,1,1,2.06,21.25,21.25,0,0,0,2.38,3.56l0,.06a4.47,4.47,0,0,1-2.68-3.52,3.18,3.18,0,0,0-.3-1,13,13,0,0,0-2.37-2.13v0Z" transform="translate(-590.57 -321.5)"/><path class="cls-2" d="M697.9,410.72a2.88,2.88,0,0,1,.56-1.72,1.22,1.22,0,0,0,0-.6,5.66,5.66,0,0,1,0-2.39h.06a2.28,2.28,0,0,1,.49,1.19,5.39,5.39,0,0,1-.4,1.86,1.69,1.69,0,0,1-.67,1.72l-.06,0Z" transform="translate(-590.57 -321.5)"/><path class="cls-2" d="M695.33,406.79c-.23-.5-.06-.63.19-1,.07-.29-.22-.66-.17-.95a1.28,1.28,0,0,1,.26-.65h.06a.93.93,0,0,1,.17,1.3.63.63,0,0,0-.12.32c.13.39.15.72-.33.94h-.06Z" transform="translate(-590.57 -321.5)"/><path class="cls-2" d="M681.31,394.73c1.46,1.31,2.2,3.17,3.86,4.2s3.27,2,4.87,2.95v.06c-2.51-.31-4.45-2-6.12-3.75a7,7,0,0,1-2.61-3.42l.05,0Z" transform="translate(-590.57 -321.5)"/><path class="cls-2" d="M686.26,398.58a3.1,3.1,0,0,1,1.57,1c.93.42,2,.25,3,.91v.06a2.35,2.35,0,0,1-1.31.13,6.16,6.16,0,0,1-1.74-.91,1.83,1.83,0,0,1-1.51-1.17l0-.05Z" transform="translate(-590.57 -321.5)"/><path class="cls-2" d="M684.8,396a2.28,2.28,0,0,1,1.51,1.12c.48.42,1.17.53,1.64.94a3.25,3.25,0,0,1,.84,1l0,.05a3.14,3.14,0,0,1-1.7-.88c-.33-.25-.52-.7-.87-.93a2.22,2.22,0,0,1-1.43-1.23l0,0Z" transform="translate(-590.57 -321.5)"/><path class="cls-2" d="M683.6,388.46c.51-.4,1-.7,1.47-1a1.71,1.71,0,0,0,1-1.35,2,2,0,0,1,1.42-1.35,1.14,1.14,0,0,0,.58-.38,2,2,0,0,0,.35-.78h.07a1.35,1.35,0,0,1-.7,1.77l0,0a5.25,5.25,0,0,0-.77.33c-.8.46-1,1.5-1.61,2.16a2.45,2.45,0,0,1-1.79.65v-.06Z" transform="translate(-590.57 -321.5)"/><path class="cls-2" d="M683.92,385.07a9.26,9.26,0,0,1,2-1.87c.61-.72.74-1.73,1.45-2.43a3.88,3.88,0,0,1,1.6-1.06l0,.05c-.89,1.31-2,2.38-2.93,3.58a3.27,3.27,0,0,1-2.15,1.79l0-.06Z" transform="translate(-590.57 -321.5)"/><path class="cls-2" d="M687.81,382.17a1,1,0,0,1,.66-1c.25-.32.32-.81.65-1.05a1.38,1.38,0,0,1,.83-.28l0,.05a1.63,1.63,0,0,1-1.07,1.16c-.32.1-.36.39-.42.66a1,1,0,0,1-.65.49l-.05,0Z" transform="translate(-590.57 -321.5)"/><path class="cls-2" d="M690.75,384.11c2.61,2.7-1,6.48,1.1,9.31l0,.05a2.39,2.39,0,0,1-1.34-2.18,5.61,5.61,0,0,1,.65-2.47,2.6,2.6,0,0,0,.37-1.14c-.1-1.23-.59-2.28-.77-3.55h.06Z" transform="translate(-590.57 -321.5)"/><path class="cls-2" d="M691.1,379a4.9,4.9,0,0,1,2.26-3.15c.72-.54,1.21-1.35,2.15-1.61a2.63,2.63,0,0,1,1.42,0,7.83,7.83,0,0,0,2.46.24v.06a3.76,3.76,0,0,1-2.61.38,2.56,2.56,0,0,0-1.13-.11,4.51,4.51,0,0,0-2.14,1.17c-.83,1-1.46,2-2.34,3h-.07Z" transform="translate(-590.57 -321.5)"/><path class="cls-2" d="M694,379.09a1.89,1.89,0,0,1,1.42-1.42,5.29,5.29,0,0,1,1.79-1,2.28,2.28,0,0,1,1.39.11v.07c-1,.6-2.15.53-3.07,1a3.78,3.78,0,0,1-1.49,1.31l0,0Z" transform="translate(-590.57 -321.5)"/><path class="cls-2" d="M666.34,402.84a25.32,25.32,0,0,1-2.1-14A73.21,73.21,0,0,0,666.34,402.84Z" transform="translate(-590.57 -321.5)"/><path class="cls-2" d="M663.44,394.76a22.93,22.93,0,0,1,.8,5.65A8.64,8.64,0,0,1,663.44,394.76Z" transform="translate(-590.57 -321.5)"/><path class="cls-2" d="M669.1,413.43a37.78,37.78,0,0,1,3.27,4.85A8.08,8.08,0,0,1,669.1,413.43Z" transform="translate(-590.57 -321.5)"/><path class="cls-2" d="M703.36,433.6a113.59,113.59,0,0,0,17.32,2.27A38.69,38.69,0,0,1,703.36,433.6Z" transform="translate(-590.57 -321.5)"/><path class="cls-2" d="M703.92,442.16a19.15,19.15,0,0,1,6.49,1.18A14.44,14.44,0,0,1,703.92,442.16Z" transform="translate(-590.57 -321.5)"/><path class="cls-2" d="M701.56,443.47a58.72,58.72,0,0,1,7.49.93A13.37,13.37,0,0,1,701.56,443.47Z" transform="translate(-590.57 -321.5)"/><path class="cls-2" d="M712,447.93a61.34,61.34,0,0,1,8-.1A15.26,15.26,0,0,1,712,447.93Z" transform="translate(-590.57 -321.5)"/><path class="cls-2" d="M731.28,348.75a30.1,30.1,0,0,1,13,6.74A111.09,111.09,0,0,0,731.28,348.75Z" transform="translate(-590.57 -321.5)"/><path class="cls-2" d="M707.58,348.14a8.66,8.66,0,0,1,5.19-.93A13.94,13.94,0,0,1,707.58,348.14Z" transform="translate(-590.57 -321.5)"/><path class="cls-2" d="M691,355.4a12.15,12.15,0,0,1,6.09-3.6A44.9,44.9,0,0,1,691,355.4Z" transform="translate(-590.57 -321.5)"/><path class="cls-2" d="M717.06,387.06a10.3,10.3,0,0,1,.57-1.52A1.3,1.3,0,0,1,717.06,387.06Z" transform="translate(-590.57 -321.5)"/><path class="cls-2" d="M718.68,386.59c.24-.36.47-.65.72-1,.45-.78.26.23,0,.51a1.21,1.21,0,0,1-.74.49Z" transform="translate(-590.57 -321.5)"/><path class="cls-2" d="M721.08,384.92a1.52,1.52,0,0,1-1.36,1.5A8.43,8.43,0,0,0,721.08,384.92Z" transform="translate(-590.57 -321.5)"/><path class="cls-2" d="M717.34,386.94a1.08,1.08,0,0,1,1.51.17l.09.14A6.67,6.67,0,0,0,717.34,386.94Z" transform="translate(-590.57 -321.5)"/><path class="cls-2" d="M719.3,386.47a1.42,1.42,0,0,1,1.91.43A7.35,7.35,0,0,0,719.3,386.47Z" transform="translate(-590.57 -321.5)"/><path class="cls-2" d="M716,387.34a5,5,0,0,1,3.74.88,4.68,4.68,0,0,0-3.52-.27.32.32,0,0,1-.42-.18.33.33,0,0,1,.18-.43Z" transform="translate(-590.57 -321.5)"/><path class="cls-2" d="M712.89,385.15a1.67,1.67,0,0,1-.13-2C712.79,383.87,712.83,384.45,712.89,385.15Z" transform="translate(-590.57 -321.5)"/><path class="cls-2" d="M712.49,384.73a20.7,20.7,0,0,0-2.49-.05A2.31,2.31,0,0,1,712.49,384.73Z" transform="translate(-590.57 -321.5)"/><path class="cls-2" d="M710.65,383.19a6,6,0,0,0-2-.31A1.51,1.51,0,0,1,710.65,383.19Z" transform="translate(-590.57 -321.5)"/><path class="cls-2" d="M714.79,389.05a3.62,3.62,0,0,1-2.7,1.24C713,389.85,713.85,389.46,714.79,389.05Z" transform="translate(-590.57 -321.5)"/><path class="cls-2" d="M713.92,390.36a2.5,2.5,0,0,1-1.87,1.72C712.7,391.5,713.28,391,713.92,390.36Z" transform="translate(-590.57 -321.5)"/><path class="cls-2" d="M713.53,391.63a2.48,2.48,0,0,1,.66,1.07A1,1,0,0,1,713.53,391.63Z" transform="translate(-590.57 -321.5)"/><path class="cls-2" d="M713.47,392a1.08,1.08,0,0,1-.55,1.3,4.69,4.69,0,0,0-1.24.48,1.74,1.74,0,0,1,1.13-.78c.34-.11.5-.55.66-1Z" transform="translate(-590.57 -321.5)"/><path class="cls-6" d="M703.61,373.38c-.07.5.47.88.73,1.07a1.58,1.58,0,0,0,1.56.33,1,1,0,0,0,.58-1c-.05-.4-.41-.61-.84-.88a1.52,1.52,0,0,0-1-.34A1.13,1.13,0,0,0,703.61,373.38Z" transform="translate(-590.57 -321.5)"/><path class="cls-6" d="M715.44,375a1.13,1.13,0,0,0-.33.66,1.06,1.06,0,0,0,.25.8,1.58,1.58,0,0,0,1.73.18,1,1,0,0,0,.62-.52.73.73,0,0,0-.09-.75c-.13-.17-.26-.12-.75-.3s-.65-.35-.9-.32a1,1,0,0,0-.53.27" transform="translate(-590.57 -321.5)"/><path class="cls-6" d="M699.69,396.94c0,.33.47.57.52.59a1.7,1.7,0,0,0,1.31,0,8.16,8.16,0,0,0,1.34-.92c.36-.26.5-.38.52-.56s0-.15-.34-.77c-.2-.37-.23-.4-.27-.43a1,1,0,0,0-1.07.17c-.43.33-.22.65-.62,1s-.66.17-1.11.58C699.7,396.75,699.69,396.88,699.69,396.94Z" transform="translate(-590.57 -321.5)"/><path class="cls-6" d="M710.51,406.2a1.32,1.32,0,0,0,.2,1.21,1.45,1.45,0,0,0,1.57.23,1.92,1.92,0,0,0,1.09-1.51c0-.29,0-.89-.24-1s-.43.3-1.09.45-.91-.11-1.25.16A.94.94,0,0,0,710.51,406.2Z" transform="translate(-590.57 -321.5)"/><path class="cls-6" d="M721.9,404.54a2.53,2.53,0,0,1,1.91-1.6,1.19,1.19,0,0,1,.62.05c.34.12.7.42.65.65s-.27.09-.53.28-.18.61-.5,1a1.67,1.67,0,0,1-.94.52,1.08,1.08,0,0,1-.93,0A1,1,0,0,1,721.9,404.54Z" transform="translate(-590.57 -321.5)"/><path class="cls-6" d="M730.92,397.61c-.08.57.34,1,.88,1.6.36.38.55.59.84.58s.82-.4.79-.71c0-.14-.11-.2-.27-.37-.42-.42-.34-.6-.76-1.15s-.6-.78-.89-.74S731,397.26,730.92,397.61Z" transform="translate(-590.57 -321.5)"/><path class="cls-6" d="M721.59,394.47c-.15-.41.22-.84.28-.92a1.45,1.45,0,0,1,1.06-.45,1.26,1.26,0,0,1,1,.3,1.14,1.14,0,0,1,.3,1.2.53.53,0,0,1-.25.3c-.2.1-.35,0-.69-.06s-.39.14-.72.15A1,1,0,0,1,721.59,394.47Z" transform="translate(-590.57 -321.5)"/><path class="cls-6" d="M734.65,386.55a1.28,1.28,0,0,0-.37.87,1,1,0,0,0,.33.81.84.84,0,0,0,.65.15c.44,0,.51-.35,1-.45.32-.07.38,0,.54-.05a1.31,1.31,0,0,0,0-1.84c-.23-.16-.56-.08-1.2.07A1.87,1.87,0,0,0,734.65,386.55Z" transform="translate(-590.57 -321.5)"/><path class="cls-6" d="M705.54,424.73c-.23-.59.59-1.23.72-1.34s.66-.51,1-.36.47.79.43,1.13a.68.68,0,0,1-.21.52c-.17.14-.3.06-.58.2s-.25.3-.44.36A.85.85,0,0,1,705.54,424.73Z" transform="translate(-590.57 -321.5)"/><path class="cls-6" d="M699.58,416.22a.93.93,0,0,0,.09.78c.39.66,1.31.47,1.37.46s.76-.14.87-.58a.85.85,0,0,0-.38-.8C701,415.6,699.85,415.67,699.58,416.22Z" transform="translate(-590.57 -321.5)"/><path class="cls-6" d="M718.56,417.38c-.33-.41-.33-.57-.32-.65a.66.66,0,0,1,.45-.54c.22-.05.31.08.93.42s.73.33,1,.59a.8.8,0,0,1,.25.51.69.69,0,0,1-.41.65.89.89,0,0,1-.66-.05A2.62,2.62,0,0,1,718.56,417.38Z" transform="translate(-590.57 -321.5)"/><path class="cls-6" d="M740.28,408.16c0-.37-.19-.45-.14-.69s.35-.47.6-.61a1.23,1.23,0,0,1,1.11-.21.82.82,0,0,1,.39.39c.2.49-.27,1-.34,1.09a1.58,1.58,0,0,1-.58.41c-.09,0-.93.47-1.12.25S740.28,408.54,740.28,408.16Z" transform="translate(-590.57 -321.5)"/><path class="cls-6" d="M744.8,391.43a.63.63,0,0,0-.27.52c0,.14.1.2.52.58a7.16,7.16,0,0,0,.65.57c.33.21.49.32.72.3a.68.68,0,0,0,.66-.65c0-.12-.08-.18-.57-.65s-.57-.56-.7-.66A1,1,0,0,0,744.8,391.43Z" transform="translate(-590.57 -321.5)"/><path class="cls-6" d="M740.28,374.28c-.12.22,0,.47.11,1s.23.73.48.81a.54.54,0,0,0,.53-.13c.16-.17.11-.37.09-.94,0-.86.06-1-.08-1.1A.88.88,0,0,0,740.28,374.28Z" transform="translate(-590.57 -321.5)"/><path class="cls-6" d="M716.51,363.12a.54.54,0,0,0-.34.39c0,.21.07.29.4.89a4.24,4.24,0,0,0,.53.86c.19.22.27.25.32.27a.79.79,0,0,0,.89-.52c.1-.34-.17-.66-.58-1.1S716.9,363,716.51,363.12Z" transform="translate(-590.57 -321.5)"/><path class="cls-6" d="M703.17,360.23c-.16-.23.09-.75.43-1a4.79,4.79,0,0,1,.72-.35c.34-.16.46-.24.65-.22a.69.69,0,0,1,.43.22.92.92,0,0,1,.07.84,1.21,1.21,0,0,1-1,.83,1.57,1.57,0,0,1-.53-.11C703.37,360.27,703.24,360.34,703.17,360.23Z" transform="translate(-590.57 -321.5)"/><path class="cls-6" d="M695.86,363.34c.42-.09.83.63,1,.88s.51.88.26,1.2a.68.68,0,0,1-.66.19c-.28-.06-.43-.29-.68-.66a1.44,1.44,0,0,1-.38-.95A.77.77,0,0,1,695.86,363.34Z" transform="translate(-590.57 -321.5)"/><path class="cls-6" d="M691.49,384.5c-.17-.22-.16-.54-.12-1.18a1.72,1.72,0,0,1,0-.39c.13-.41.56-.86,1-.77s.56.72.57.8a1.89,1.89,0,0,1-.45,1.46c-.13.2-.23.31-.36.34A.64.64,0,0,1,691.49,384.5Z" transform="translate(-590.57 -321.5)"/></svg>