<svg id="Livello_1" data-name="Livello 1" xmlns="http://www.w3.org/2000/svg" viewBox="0 0 337.86 171.95"><defs><style>.cls-1{fill:#cc0b36;}</style></defs><path class="cls-1" d="M811.63,504.68l-.38,92.62-1.87-1.85,217.82-3.76-1,.29,34.21-22.33-.83,1.53.87-61.11a1,1,0,0,1,1-.95,1,1,0,0,1,1,.95l.86,61.11a1.8,1.8,0,0,1-.8,1.52l0,0-34.21,22.33a1.93,1.93,0,0,1-1,.3l-217.81,3.76h0a1.81,1.81,0,0,1-1.84-1.79v-.06l1.85-92.61a1.09,1.09,0,0,1,1.11-1.08A1.11,1.11,0,0,1,811.63,504.68Z" transform="translate(-760.33 -427.16)"/><path class="cls-1" d="M1021.94,593.55l2.73-133.4a1.3,1.3,0,0,1,.51-1h0L1061,432a1.8,1.8,0,0,1,2.35.15l34.41,33.68a1.32,1.32,0,0,1,.17,1.69l-29,42.67a1.82,1.82,0,0,1-2.52.49,2.1,2.1,0,0,1-.35-.31l-37.52-43,1.78,0-31.71,38.55a1.8,1.8,0,0,1-1.38.65h0L943,506.15,888.82,506c-18.06,0-36.12-.1-54.18,0s-36.13.19-54.19.51a1.81,1.81,0,0,1-1.84-1.79,1.78,1.78,0,0,1,.37-1.13l0,0,29-37.92h0a1.84,1.84,0,0,1,1.42-.72l210.14-2.63a1.05,1.05,0,0,1,0,2.1l-210.11,4.19,1.43-.72-29,37.93-1.46-2.94q27.09.46,54.19.49c18.06.09,36.12,0,54.18,0l54.18-.16,54.19-.34-1.4.65,32.71-37.71a1.18,1.18,0,0,1,1.68-.12l.1.09,38.49,42.18-2.87.17L1095.82,466l.17,1.68-35.14-32.92,2.35.15-36.47,26.3.52-1-1.65,133.41a1.83,1.83,0,1,1-3.66-.05Z" transform="translate(-760.33 -427.16)"/><path class="cls-1" d="M1053.37,433.19l-31,.11-31,.35c-20.68.26-41.36,1-62.05,1.51s-41.37,1.18-62.12,1.27q-3.89,0-7.8-.07c-2.63-.06-5.2-.19-7.79-.31-5.18-.25-10.36-.52-15.55-.9-10.36-.77-20.77-1.82-31-4.38h0l1.4-.22-43.72,26.94h0l-.48-2.78,47.41,11.15h0l-.84.24,30.3-31.89a1.83,1.83,0,0,1,2.66,2.52l-.06,0-31.61,30.6h0a.92.92,0,0,1-.83.24h0l-47.68-9.95a1.51,1.51,0,0,1-.51-2.76l0,0h0l43.4-27.46a1.86,1.86,0,0,1,1.35-.24l.06,0h0A148.32,148.32,0,0,0,821,429.79c5.09.65,10.21,1.1,15.34,1.47s10.29.64,15.45.87l7.72.33c2.56.08,5.13.12,7.71.15,20.64.12,41.35-.32,62-.66s41.38-.83,62.09-.89c10.36-.07,20.71,0,31.06.16s20.7.33,31.05.73a.62.62,0,0,1,0,1.24Z" transform="translate(-760.33 -427.16)"/></svg>