<svg id="Livello_1" data-name="Livello 1" xmlns="http://www.w3.org/2000/svg" viewBox="0 0 201.78 201.7"><defs><style>.cls-1{fill:#f9f9f9;}.cls-2{fill:#cd1237;}</style></defs><circle class="cls-1" cx="100.85" cy="100.85" r="100.85"/><path class="cls-2" d="M141.62,223.57c7.39-9.43,20.25-13.33,32-10.51a40,40,0,0,1,16.21,8.29c15.33,12.05,17.08,33.19,29.73,47,6.87,8,14.19,11,24.55,8.4,2.22-.53,4.52-1.1,6.7-1.83,7.4-2.94,13.46-10.84,18.74-17.48,8.93-11.17,20.22-26.25,35.26-29.7,10.31-2.26,21.82.24,29.76,7.26a20.65,20.65,0,0,1,5.14,6.8l-1.31,1.08c-8.7-5.44-20.1-5.68-29.25-1.47a24.33,24.33,0,0,0-6.83,5.24c-6.54,6.82-12.4,15.24-19.28,22.41-8.09,8.35-17.75,18.1-30.31,19.38-8.5.46-17.65-.56-24.95-5.31-7.07-4.5-12-11.43-17.17-17.51-6.6-8-14.54-15.17-21.35-22.93-3.15-3.54-6.17-6.92-9.34-9.9-10.55-10.15-23.11-12.08-37.26-7.89l-1-1.35Z" transform="translate(-137.93 -152.29)"/></svg>