<svg id="Livello_1" data-name="Livello 1" xmlns="http://www.w3.org/2000/svg" viewBox="0 0 239.06 159.8"><path d="M685.88,478c-6.36,0-13.57,9.33-15.6,17.53a36.36,36.36,0,0,0-1,14.28,21.71,21.71,0,0,0,6,12.27,15.59,15.59,0,0,0,12.24,4.52c5.35-.57,10.46-4.62,13-10.31,2.68-6,3-12.69.85-20.44C699,487.24,693.81,478,686.2,478h-.32Zm.27,52.65A19.91,19.91,0,0,1,672.51,525a25.79,25.79,0,0,1-7.21-14.52,40.28,40.28,0,0,1,1.12-15.85c2.46-10,11.23-20.82,19.81-20.55,9.84,0,16.26,10.75,19,20.79,2.36,8.67,2,16.22-1.06,23.09s-9.47,11.94-16.22,12.66a17.68,17.68,0,0,1-1.78.09" transform="translate(-664.94 -372.28)"/><path d="M713.84,532.09a29.89,29.89,0,0,1-12.39-2.6,23.48,23.48,0,0,1-5.74-3.65,2,2,0,0,1,2.62-3,18.71,18.71,0,0,0,4.74,3c6,2.69,12.7,3,20.44.86,7.3-2,15.72-6.34,17.51-12.64a9.44,9.44,0,0,0,.35-2.54c.23-6.49-9.24-13.85-17.54-15.9a36.3,36.3,0,0,0-14.27-1.05,24.2,24.2,0,0,0-5.75,1.65,2,2,0,0,1-1.58-3.66,28.11,28.11,0,0,1,6.71-1.92,40.07,40.07,0,0,1,15.85,1.12c10,2.46,20.87,11.21,20.55,19.83a12.52,12.52,0,0,1-.5,3.55c-2.81,10-16.23,14.3-20.29,15.4a40.55,40.55,0,0,1-10.71,1.54" transform="translate(-664.94 -372.28)"/><path d="M787.7,530.67h-.35c-25.19,0-42.8-19.06-42.8-46.35a2,2,0,1,1,4,0c0,24.95,16,42.37,38.84,42.37h.32a35.79,35.79,0,0,0,25.77-10.5c8.1-8,12.74-19.88,12.74-32.51a2,2,0,1,1,4,0c0,13.68-5.07,26.56-13.91,35.33a39.75,39.75,0,0,1-28.57,11.66" transform="translate(-664.94 -372.28)"/><path d="M787.37,468.06c-23.23,0-38.84,8.4-38.84,16.26s15.61,16.26,38.84,16.26,38.83-8.41,38.83-16.26S810.59,468.06,787.37,468.06Zm0,36.5c-24,0-42.82-8.89-42.82-20.24s18.81-20.25,42.82-20.25,42.81,8.9,42.81,20.25-18.8,20.24-42.81,20.24" transform="translate(-664.94 -372.28)"/><path d="M824.16,494.22a2,2,0,0,1-1.67-.9c-4.36-6.75-18.8-11.46-35.12-11.46s-30.77,4.71-35.12,11.46a2,2,0,0,1-3.35-2.16c5.13-7.94,20.59-13.27,38.47-13.27s33.33,5.33,38.46,13.27a2,2,0,0,1-.59,2.74,1.94,1.94,0,0,1-1.08.32" transform="translate(-664.94 -372.28)"/><path d="M704.15,384.41c15.36.5,30.13.23,44.43,0,6.27-.1,12.74-.22,19.2-.27,0-1.13,0-2.31.05-3.49s0-2.39,0-3.52c-19.54-1-35.1-.87-50.18-.74-4.54,0-9,.09-13.5.1A56.93,56.93,0,0,0,704.15,384.41Zm18.77,4.26c-6.8,0-13.71-.09-20.75-.35a2,2,0,0,1-1.92-1.91l-.06-1.69a53.55,53.55,0,0,1,.25-10.52,2,2,0,0,1,2-1.72c5.09,0,10.13-.05,15.24-.09,15.61-.15,31.76-.31,52.3.83a2,2,0,0,1,1.89,1.95c0,1.7,0,3.6,0,5.51s-.06,3.71,0,5.37a2,2,0,0,1-.56,1.42,2,2,0,0,1-1.42.61c-7.1,0-14.25.16-21.15.28-8.41.15-17,.31-25.73.31" transform="translate(-664.94 -372.28)"/><path d="M685.91,478h0a2,2,0,0,1-2-2c.1-14,.44-47.64,1.63-56.71A65.42,65.42,0,0,1,700.75,385a2,2,0,0,1,3,2.62,61.33,61.33,0,0,0-14.25,32.17c-.8,6.14-1.4,27.16-1.6,56.22a2,2,0,0,1-2,2" transform="translate(-664.94 -372.28)"/><path d="M718.64,493.17a2,2,0,0,1-2-2c0-23.62-.44-62.13-1.66-71.37a61.41,61.41,0,0,0-14.24-32.17,2,2,0,0,1,.18-2.8,2,2,0,0,1,2.81.18,65.34,65.34,0,0,1,15.2,34.27c1.38,10.55,1.69,55.47,1.69,71.89a2,2,0,0,1-2,2" transform="translate(-664.94 -372.28)"/><path d="M786.13,468.06a2,2,0,0,1-2-2c-.28-24.44-.82-40.88-1.53-46.28a61.48,61.48,0,0,0-14.24-32.17,2,2,0,0,1,.18-2.8,2,2,0,0,1,2.81.18,65.53,65.53,0,0,1,15.2,34.27c.93,7.12,1.36,29.36,1.56,46.76a2,2,0,0,1-2,2h0" transform="translate(-664.94 -372.28)"/><path d="M753.83,516.76c-3.77,0-7.44,0-11-.16a2,2,0,1,1,.12-4c4.34.13,8.93.18,13.64.15h0a2,2,0,0,1,0,4h-2.83" transform="translate(-664.94 -372.28)"/><path d="M848.56,517.54c-9.3,0-18.76-.37-25.59-1a10,10,0,0,1-5.21-2.17,2,2,0,1,1,2.46-3.13,5.91,5.91,0,0,0,3.11,1.33c12.79,1.16,34.93,1.45,47.51,0,1.9-.22,4-.56,5-1.78.83-1,.92-2.76.93-4.59.21-17,.42-34.46.71-51.51.09-6.06.21-12.11.32-18.12a2.07,2.07,0,0,1,1.76-2c5.09-.61,9.43,3.21,11.3,7s2.17,8.32,2.36,12.23l.88,17.31c.13,2.63.28,5.36,1.38,7.54a6.64,6.64,0,0,0,4,3.05c.6-13.06.6-26.29.59-39.1v-2.24c0-9.38-7.28-15.64-19-16.34-18.23-1.08-31.89-1.37-49.18-1.64-5.08-.09-10.33-.17-15.22,1a20.5,20.5,0,0,0-10.84,6c2.28,2.11,4.46,4.26,6.5,6.41a18.86,18.86,0,0,1,5.08,13.05L817.22,471a1.94,1.94,0,0,1-2,2,2,2,0,0,1-2-2l.11-22.17a14.82,14.82,0,0,0-4-10.29c-2.36-2.51-4.93-5-7.63-7.44a2,2,0,0,1-.32-2.6c3-4.34,8-7.53,14.28-9,5.37-1.26,10.88-1.17,16.2-1.09,17.34.29,31,.57,49.35,1.66,13.83.82,22.76,8.79,22.76,20.31v2.24c0,13.53,0,27.51-.69,41.32a2,2,0,0,1-1.72,1.87c-3.55.48-8-2-9.68-5.35-1.48-2.92-1.65-6.22-1.8-9.12L889.24,454c-.19-3.68-.39-7.5-2-10.67a8.89,8.89,0,0,0-5.55-4.74c-.1,5.41-.2,10.78-.28,16.17-.28,17-.49,34.55-.71,51.48,0,1.93,0,4.84-1.8,7-2.1,2.62-5.7,3-7.65,3.25a214.4,214.4,0,0,1-22.73,1" transform="translate(-664.94 -372.28)"/><path d="M859.31,462.77a25.66,25.66,0,0,1-4.67-.42,45.92,45.92,0,0,1-10.95-4,43.42,43.42,0,0,0-9.75-3.65,21.43,21.43,0,0,0-17.36,4.57,2,2,0,1,1-2.55-3.06,25.18,25.18,0,0,1,20.69-5.41,46.9,46.9,0,0,1,10.64,3.94,42.26,42.26,0,0,0,10,3.7c7.79,1.44,15.76-1.78,23.21-5.47a2,2,0,1,1,1.77,3.56c-6.65,3.3-13.74,6.24-21,6.24" transform="translate(-664.94 -372.28)"/><path d="M870.62,478.25h0l-5.88-.13a2,2,0,1,1,.09-4l5.88.12a2,2,0,0,1,0,4" transform="translate(-664.94 -372.28)"/><path d="M870.49,496.37h-.07l-5.46-.2a2,2,0,1,1,.15-4l5.45.19a2,2,0,0,1-.07,4" transform="translate(-664.94 -372.28)"/></svg>