<svg id="Livello_1" data-name="Livello 1" xmlns="http://www.w3.org/2000/svg" xmlns:xlink="http://www.w3.org/1999/xlink" viewBox="0 0 116.55 141.84"><defs><style>.cls-1{fill:none;}.cls-2{clip-path:url(#clip-path);}.cls-3{fill:#332421;fill-rule:evenodd;}</style><clipPath id="clip-path" transform="translate(-21.79 -56.83)"><rect class="cls-1" x="21.58" y="56.83" width="117" height="141.84"/></clipPath></defs><g class="cls-2"><path class="cls-3" d="M71.19,83.3l-.61.13.53-1.13c-1.33.54-1.53,1.94-2.48,2.65-1.15-.91-.62-1.9-.33-3-.25.14-.49.29-.74.42-.58.28-.93.07-.91-.59a4.69,4.69,0,0,1,.23-1.1,9.31,9.31,0,0,1,.35-.87,1.26,1.26,0,0,0-1.48.74,3.25,3.25,0,0,1,.83-2.66l-.93.26L67.31,76l-.14-.12L66,77c.28-1.09,1.23-1.78,1.34-2.93l-1,1.34-.17-.09c.34-.73.69-1.45,1-2.17l-.09-.07-.69.74.42-1.39-.62.31a6.48,6.48,0,0,0,.18-.69c0-.24.47-.6-.16-.68,0,0-.07-.15,0-.19.29-.41-.15-.76-.1-1.12a6.45,6.45,0,0,1,.4-1.27,1.8,1.8,0,0,0,.11-.77L66,69.14l-.15,0c.13-.72.25-1.45.38-2.18l-.15,0-.66,1.54c.07-1-.62-1.94-.36-3l-.25,0c-.14.48-.27,1-.46,1.61-.2-.83.22-1.57-.4-2.27-.13.32-.21.55-.32.8-.12-.35-.24-.67-.36-1l-.23,0c-.07.31-.14.61-.23,1-.11-.35-.2-.66-.29-1-1.15.16-1.45.48-1.37,1.51,0,.44.17.87.22,1.32a4.34,4.34,0,0,1-.14.81c-.33-.38-.51-.56-.66-.77a5.45,5.45,0,0,0-3.22-2,2.56,2.56,0,0,0-1,0,1.07,1.07,0,0,0-.82,1.68,5,5,0,0,0,1.23,1.35c.85.63,1.78,1.16,2.68,1.72a6.94,6.94,0,0,1,.8.46c.28.23.68.5.7.78,0,.5-.51.55-.88.69s-1,.32-1.47.5a7.11,7.11,0,0,0-.63.35A1.91,1.91,0,0,0,59.27,74c.54.18,1.1.29,1.65.42,0,.82-.86.67-1.08,1.25.07.62.58.92,1.11,1.14s1,.3,1.47.46c.68.24.82.46.71,1.15-.07.51-.14,1-.24,1.52-.23,1-.75,1.24-1.62.61-.05,0-.13,0-.29,0,.09.16.13.32.24.4a8.18,8.18,0,0,1,.7.43c.23.21.56.48.57.74s-.39.44-.64.7c.14.48,1,.81.62,1.66a5.14,5.14,0,0,1-1.68-1.8c-.14-.21,0-.61,0-1a6,6,0,0,1-.53-1c-.06-.17.11-.45.24-.64.37-.49.67-.47,1.54.12l.38-2.15c-.39-.12-.71-.2-1-.32a7.71,7.71,0,0,1-1.22-.52A1.67,1.67,0,0,1,59.34,75a11.69,11.69,0,0,1-1.61-1.1c-.74-.7-.55-1.45.39-1.84.32-.13.66-.21,1-.32l1-.36-.91-.58c-.93-.58-1.91-1.09-2.79-1.74A5.71,5.71,0,0,1,55,67.44a1.72,1.72,0,0,1,1.5-2.7,5.7,5.7,0,0,1,3.1,1c.26.14.51.31.77.47.06-.12.11-.16.12-.22.19-1.64,1-2.31,2.61-2.1a5.45,5.45,0,0,1,4.38,3.62,12.39,12.39,0,0,1,.82,5c0,.71-.06,1.42-.1,2.16L69.51,74a6,6,0,0,1,1-3.58,4.26,4.26,0,0,1,2.19-1.78A1.89,1.89,0,0,1,75.36,70a4.48,4.48,0,0,1,0,2.54c-.19.76-.46,1.5-.7,2.24,2.74.45,2.78,2.57,1.22,4.37,0,.05,0,.13.09.16,1.35.81,1.46,2,.22,2.95a4.66,4.66,0,0,1-3.14.92q-.28,1.14-.57,2.31c1.65.12,1.87.6,1,2.42a1.45,1.45,0,0,1,.4,1.69,2.52,2.52,0,0,1-1.42,1.54c-.5.21-1,.35-1.48.49A5,5,0,0,1,70.73,93a2,2,0,0,1-1.37.83,3.82,3.82,0,0,0-1.68.65c-.33.34-.27,1.07-.38,1.61a20.71,20.71,0,0,1,3.06,2.06,21.57,21.57,0,0,1,2.24,3,7.36,7.36,0,0,0,.38-.91,74.58,74.58,0,0,1,6.68-14.56,23.94,23.94,0,0,1,10.6-10,14.5,14.5,0,0,1,11.28-.75,6.57,6.57,0,0,1,4,3.61c.53,1.17.93,2.41,1.42,3.7a5,5,0,0,0,.22-.65,58.56,58.56,0,0,0,.58-17.63,7.73,7.73,0,0,0-.93-3.44c0-.07,0-.19,0-.35.49,0,.64.39.83.67a15.74,15.74,0,0,1,2.38,5.66,29.12,29.12,0,0,1,.53,8.18c-.21,2.25-.29,4.52-.52,6.77-.15,1.5-.47,3-.7,4.47-.18,1.22-.34,2.43-.52,3.65l-.91,1.43-.12,0c.12-.53.25-1,.38-1.61l-.61.15c.27-.81.53-1.55.81-2.36l-.56.33c.2-.64.59-1.21.46-1.63-.2-.62.09-1,.2-1.55,0-.17.18-.43.12-.48-.48-.43-.1-.85,0-1.26.06-.23.16-.66.15-.66-.73-.19-.22-.62-.16-.9.29-1.25.63-2.48,1-3.85l-.61.57a10.75,10.75,0,0,1,.55-1.57,1.65,1.65,0,0,0,.09-.64c-.48-.12-.2-.42-.15-.63.1-.4.25-.78.36-1.18a.85.85,0,0,0,0-.5c-.26-.62-.25-.61-.22-.78.07-.44.38-.85.17-1.39-.12.17-.17.25-.24.33l-.27.28c.44-2.09.44-2.09,0-2.34a8.13,8.13,0,0,0-1-5.74c.12,1.39.25,2.83.36,4.26a50.74,50.74,0,0,1-1.26,15.63,8,8,0,0,0-.14,1.83c0,1.14.08,2.27,0,3.4-.13,1.92-.36,3.83-.54,5.75.76-1.52,1.45-3.09,2.12-4.65,0-.06,0-.13,0-.2a5.85,5.85,0,0,0,.52-.81,78,78,0,0,0,3.84-11.94c.89-3.48,1.83-7,2.89-10.39a45,45,0,0,1,3.73-8.47,11.4,11.4,0,0,1,.7-1c.14.35.25.5.24.64a85.18,85.18,0,0,1-2.38,15.64c-1.29,4.87-2.73,9.7-4.11,14.55a2.4,2.4,0,0,0-.12,1.11c.16-.34.32-.67.47-1,2.52-6,5.06-12,7.55-18A44.65,44.65,0,0,0,125.29,58c0-.22.09-.44.14-.7.56.12.6.54.65.88.13.88.22,1.77.28,2.66a22,22,0,0,1-.75,6.61,121.05,121.05,0,0,1-6,17.72c-.27.63-.47,1.28-.7,1.93,0,0,0,.12.09.24.15-.23.3-.41.42-.61A68,68,0,0,1,129.08,74a48.57,48.57,0,0,0,8-11.43c.19-.37.32-1,.85-.87s.41.82.34,1.24a11.52,11.52,0,0,1-.73,2.66A52.79,52.79,0,0,1,131,76.47q-2.94,3.72-5.85,7.45a16.89,16.89,0,0,0-1.42,2.14c-2.7,4.78-5,9.77-7.2,14.79a.92.92,0,0,0,0,.59l.74-.73A144,144,0,0,0,132.06,83.8a5,5,0,0,1,.6-.71c.45-.4,1-.24,1,.36a4.62,4.62,0,0,1-.06,1.23,19.7,19.7,0,0,1-1.9,5.31A38.66,38.66,0,0,1,124,101q-3.63,3.57-7.31,7.1a17.74,17.74,0,0,0-3.86,4.9,11.2,11.2,0,0,0-.83,3.47c-.81,5.64-1.36,11.31-1.71,17-.32,5.14-.72,10.28-.94,15.42-.35,8.13-.37,16.27-.22,24.4a47.84,47.84,0,0,0,.75,8.61c.17.8.4,1.59.62,2.38.15.59,0,.86-.57,1.13a4.17,4.17,0,0,0-.88.48c-1.15.82-2.27,1.67-3.41,2.49l-10.13,7.23c-.7.5-1.41,1-2.12,1.46-.44.3-.93.52-1.08,1.15a.48.48,0,0,1-.81.27.92.92,0,0,0-.86-.13,4.09,4.09,0,0,1-2.51-.26c-.85-.36-1.71-.7-2.57-1A15.3,15.3,0,0,0,79.9,196c-4.62-.07-9.25-.12-13.88-.22s-9.12-.22-13.68-.43c-2.15-.1-4.29-.39-6.44-.6-2.67-.26-5.33-.5-8-.78a20.67,20.67,0,0,1-5.12-1.43c-1.1-.43-1.15-1.05-1.16-2-.07-8.93-.17-17.86-.24-26.78-.05-5.81-.11-11.61-.08-17.41,0-7,.13-14.08.24-21.12.06-3.67.19-7.34.3-11,0-.36.06-.71.09-1.07l.24,0a2.9,2.9,0,0,1,.17.69c0,1.27.1,2.54.09,3.81,0,6.87-.14,13.73-.19,20.6,0,4.91-.08,9.82,0,14.73.08,9.65.23,19.3.34,28.94,0,2.85,0,5.7.06,8.55v1.64c1.28.21,2.48.46,3.69.6,1.56.17,3.14.26,4.72.38,3.65.27,7.31.6,11,.77s7.61.25,11.41.31c5.32.09,10.63.14,15.94.2a19,19,0,0,1,7.6,1.61,17.39,17.39,0,0,0,1.8.73,3.68,3.68,0,0,0,1.3.2c1-.09,1.2-.31,1.26-1.34.15-2.67.26-5.35.46-8a118.07,118.07,0,0,1,2.09-16,117.5,117.5,0,0,0,2.07-15.19c.5-6.16.69-12.34.71-18.51,0-4.29-.14-8.59-.15-12.88,0-1.91.12-3.83.19-5.76-.58-.45-1.24-.93-1.87-1.44a1,1,0,0,0-1-.18c-.44.18-.89.37-1.31.59a2.45,2.45,0,0,1-2.63-.1,7.18,7.18,0,0,0-.72-.39,1.55,1.55,0,0,0-1.39-.07c-.38.17-.76.32-1.14.48a2.85,2.85,0,0,1-2.2,0l-1.64-.61a1.32,1.32,0,0,0-1.34.22c-.94.7-1.25.67-2.16-.08,0,0-.09-.09-.15-.13l-1.84-1.44c-1.2.39-2.53.35-3.59,1.15-.36.27-.71.55-1.08.8a1.58,1.58,0,0,1-2.32-.06,13.84,13.84,0,0,1-1.08-1,1.36,1.36,0,0,0-1.4-.39,34.11,34.11,0,0,0-4.05,1.13,6,6,0,0,1-5.6-.44,4.21,4.21,0,0,0-2.94-.54,3.7,3.7,0,0,1-1.49-.2,6.67,6.67,0,0,1-1-.43c-.32.27-.64.53-1,.77a2.42,2.42,0,0,1-2.31.43,9,9,0,0,1-4.8-3,2.35,2.35,0,0,0-3.62-.16l-.3.28c-1.47,1.33-2.05,1.06-3,.19a1.13,1.13,0,0,0-1.48-.19,1.11,1.11,0,0,1-1.7-.56,1.41,1.41,0,0,0-1.37-.88,11.45,11.45,0,0,1-2-.52l.93-.44a1,1,0,0,0-.12-.27l-1.71-2.06a7.53,7.53,0,0,1-1.81-4.92,4.53,4.53,0,0,1,.66-2.46,9.68,9.68,0,0,0,.83-9.06,66.16,66.16,0,0,0-3.25-7,10.32,10.32,0,0,0-4.75-4.41,1.64,1.64,0,0,1,.66-2,2.07,2.07,0,0,1,2.33-.1,9,9,0,0,1,1.28,1A19.59,19.59,0,0,1,29.39,85c1.11,1.88,2.29,3.74,3.49,5.58a9.92,9.92,0,0,0,4,3.49,4.7,4.7,0,0,0,3.17.45,5.53,5.53,0,0,1,5.62,1.93l.54.66a5.14,5.14,0,0,1,4-2.66,3.24,3.24,0,0,0-3.09-2.85c-.82-.09-1.64-.11-2.45-.24a4.55,4.55,0,0,1-1.34-.47.93.93,0,0,1-.55-1.11A1,1,0,0,1,43.6,89c.31,0,.61-.08.95-.12a1.61,1.61,0,0,0-1-1.41c-1-.55-1.11-1-.31-2.13-.37-.08-.69-.13-1-.22a1.74,1.74,0,0,1-1.06-2.88,5,5,0,0,1-.8-.57c-.31-.31-.74-.65-.78-1a1.5,1.5,0,0,0-.8-1.09A6.15,6.15,0,0,1,36.53,77a3.64,3.64,0,0,1-.32-2,1.65,1.65,0,0,1,2.12-1.52,16.81,16.81,0,0,1,1.9.67c-.08-.58-.2-1.13-.23-1.69a8.24,8.24,0,0,1,.09-1.72,1.49,1.49,0,0,1,1.21-1.26,1.59,1.59,0,0,1,1.72.68,10.5,10.5,0,0,1,.76,1.45,6,6,0,0,1,.29,1c.2-.15.39-.21.45-.34s0-.34,0-.51c.07-1.42.45-1.88,1.78-2.2a8.51,8.51,0,0,1,0-1,5,5,0,0,1,.27-1.4,1.81,1.81,0,0,1,2.55-1,4.76,4.76,0,0,1,1.41,1.16,9.48,9.48,0,0,1,2.1,5.17c0,.16,0,.31.08.58.21-.15.33-.26.47-.34a1.36,1.36,0,0,1,1.86.17,3.09,3.09,0,0,1,.84,2.94c-.08.44-.24.85-.38,1.35,1.15.3,1.4,1.17,1.24,2.26l.39-.11c1.19-.46,1.82,0,1.92,1.23a5.91,5.91,0,0,1-.56,2.79l1.16,2.08a8.22,8.22,0,0,1,.86-.59,1.47,1.47,0,0,1,1.74,0,1.51,1.51,0,0,1,.41,1.61c-.07.3-.18.58-.28.93.62.23,1.31.44,1.38,1.18a12.27,12.27,0,0,1-.16,2.06c.56.78.58,1.2-.14,2.08a1.32,1.32,0,0,0-.32,1c0,.3,0,.61,0,.94a1.34,1.34,0,0,1-.42-2.27,1.08,1.08,0,0,0,.47-1.12,2.45,2.45,0,0,0-.57.08c-.27.09-.53.47-.8.1s.17-.57.38-.81a7.39,7.39,0,0,0,.71-.88,1.39,1.39,0,0,0,.24-.66c.06-.73-.47-1.1-1.11-.77-.3.15-.53.43-.83.6a2.21,2.21,0,0,1-.61.11,1.91,1.91,0,0,1,.09-.64c.33-.59.73-1.15,1-1.76.21-.42.45-1-.07-1.29s-1,.06-1.26.42c-.63.77-1.17,1.61-1.73,2.42a2.29,2.29,0,0,1-.69.78c.14-.48.27-1,.45-1.58l-.85.53a.88.88,0,0,1,0-.29,13.51,13.51,0,0,0,1.08-1.92c-.39.31-.78.62-1.36,1.06.38-.95,1.14-1.42,1.15-2.31l-.71.93-.11,0c.05-.26.11-.52.18-.9l-1,.24a4.29,4.29,0,0,0-.35-.76c-.1-.15-.35-.31-.48-.27a.58.58,0,0,0-.31.45,6.09,6.09,0,0,0,.1,1.07l-.71.24.21.94c-.76-.42-.89-.78-.37-1.35a.82.82,0,0,0,.25-.71,1.06,1.06,0,0,1,.67-1.25c.48-.18.83,0,1.28.73a1.5,1.5,0,0,0,.2.23c1.1-1.43,1.39-3.1.7-4.18-1,0-1.35,1.27-2.31,1.55-.35-.43-.13-.78,0-1.16a5.21,5.21,0,0,0,.42-1.36c.09-.8-.23-1-1-.87-.19,0-.39.05-.77.09A9.71,9.71,0,0,0,54.72,77a10.59,10.59,0,0,0,.39-2.2,2.46,2.46,0,0,0-.6-1.36.68.68,0,0,0-1.2.07A9.47,9.47,0,0,0,52.63,75c-.14.33-.09.76-.68.74-.16,0-.35.44-.52.68l-.23-.16c.2-.6.39-1.2.59-1.8l-.13-.06-.79,1c.19-1.13.34-2.08.52-3.12l-.49.41-.14-.07q.3-1.08.63-2.16l-.1,0-.74,1.27-.16-.06c.07-.37.14-.74.21-1.17l-.41.07c.08-.5.15-1,.22-1.47l-.12,0-.47.83-.12,0L50,68.24l-.11-.06-.39.74-.12,0,.12-1.44-.19,0c-.18.44-.38.89-.57,1.33l-.11,0c.06-.59.12-1.18.17-1.75-1-.33-1.58,0-1.7.86a14,14,0,0,0,0,1.94c0,.3,0,.6,0,1a7.18,7.18,0,0,1-.72-.19c-.65-.26-1-.13-1.12.54a2.74,2.74,0,0,0,.29,2.09,11.33,11.33,0,0,1,.61,1.07,4.69,4.69,0,0,0,2.91,2.33c-.31,1.13-1.21.22-1.77.46,0,.46.31.39.56.45l1.09.26c-.2.66.48.43.74.74l-.9.38,1.17.18-1.15.36,1,.56c-.24.06-.5,0-.62.15-.38.39-.74.23-1.13.07l-1.34-.52c-.36-.13-.77-.26-1,.16s.18.6.41.84l.23.21c-.91,0-1.09-.18-1.24-1.31-1,.3-1.17.76-.45,1.46a5,5,0,0,1,.77.82l-.92-.31c.16.56.16.56,2,.85-.23,0-.45.13-.68.16a5.84,5.84,0,0,1-.73,0c0,.4.16.5.48.47l1.7-.18a1.69,1.69,0,0,0,.05.24l-1.49.41a8.34,8.34,0,0,0,2.28.15,1.23,1.23,0,0,1,0,.2l-1.53.46c0,.08,0,.14,0,.22l2.72-.35c-.46.46-.46.46-1.78.82.43.43.43.43,1.07.31A3.18,3.18,0,0,1,50,85.26l-1,.51.09.2,1.82-.74.08.09-.92.83c.75.18,1.12-.55,1.84-.61l-.73.78c.65.24.91-.41,1.49-.52-.13.26-.23.48-.37.75l.61-.13a2,2,0,0,0,.71,3,8.32,8.32,0,0,1,.86.54.65.65,0,0,1,.16.52c0,.09-.26.2-.41.2-.34,0-.68,0-1,0-.11,0-.2.12-.48.31l2.05.49c-.35.51-.89.1-1.38.28.65.7,1.41,0,2.09.34-.21.49-.89.18-1.23.75l1.07-.21a2.52,2.52,0,0,1,1.07,0l-1.26.66c.82.43,1.38-.38,2.11-.16l-.79.63a1.34,1.34,0,0,0,.06.12l1.59-.38-.45.64A3.72,3.72,0,0,1,60.47,96l4.25-.56c0-.18.06-.47.1-.77a1.93,1.93,0,0,1,1.6-1.88,5.4,5.4,0,0,0,1-.43c-.61-.55-.9.07-1.36.12a1,1,0,0,1,.34-1.31,11.59,11.59,0,0,1,1.39-.91C67,90,66.39,89.65,65.64,90l.69-.62-.59-.22,1.52-.6-.2-.42a5.78,5.78,0,0,0,3-.39c-.13,0-.26-.09-.39-.12a.75.75,0,0,1-.42-.14L70.79,87s0-.1,0-.15h-1c.5-.59,1.17-.61,1.72-1.11L70.4,86l1.68-2.59-1.32.79c.19-.42.3-.66.42-.9.64-.52.64-.52.53-1.18C71.49,82.59,71.34,82.94,71.19,83.3ZM29.42,86.78c0,.27-.16.43-.47.4s-.54,0-1-.07a4.34,4.34,0,0,0,2.09.71l-1.49.37c.47.69,1.59.23,2.09,1.13L28.88,89l.43.65h0c.26.69.52,1.38.73,2l1.43.28c0,.06,0,.13,0,.19l-1.05.12c0,1,1.25.56,1.58,1.32l-1.07.06c-.09.44.12.58.49.61a1,1,0,0,1,.92.41l-1.19.07c-.14.87.47.75.95.81.1-.23.19-.45.3-.69,1,.91,1.43,3.13.82,4-.13-.43-.25-.85-.36-1.25H31.36c0,.06,0,.12,0,.18.4.24.82.47,1.27.73-.46.49-.89-.16-1.11,0-.6.73-.12,1,.5,1.38H31l-.67,1.32a2,2,0,0,0,1-.38c.55-.41,1.07-.86,1.61-1.28a1.15,1.15,0,0,1,1.79.16c.25.28.45.6.69.89s.58.62,1,1c.18-1.09.35-2,.45-2.85.08-.69.34-1.18,1.07-1.3A3.66,3.66,0,0,0,40,95.84c.12-.14.1-.4.18-.72a5.06,5.06,0,0,1-4.32-.79,10.09,10.09,0,0,1-3.19-2.87c-.71-1-1.37-2-2.06-2.95-.17-.24-.39-.45-.58-.67s-.4-.7-.59-1a1.51,1.51,0,0,0-.07-.38,18.39,18.39,0,0,0-4.11-5.47,4.41,4.41,0,0,0-.81-.63,1.34,1.34,0,0,0-2,.92l1.13-.14-.45.62a4.69,4.69,0,0,0,1.44-.19s.08.08.26.28l-.72.43.1.15,1.58-.15-.89.58c.36.84,1.13.24,1.73.56l-.69.45c.18.73.94.32,1.37.67l-.63.42,1.12.28-.73.46,1.61.51-.9.36ZM50.63,91l-.56-.14a8.08,8.08,0,0,0,.7-.93,1.09,1.09,0,0,0-.1-1.25c-.37-.43-.74-.18-1.1,0,0,0-.12,0-.2,0a10.69,10.69,0,0,0-.28-1.39,1,1,0,0,0-1.66-.45c-.17.15-.36.29-.52.42-2-1.69-2.92-1.9-3.71-.84.5.87,1.57.85,2.27,1.38a.89.89,0,0,0,0,.92c.2.46.09.7-.42.78-.27,0-.55,0-.82,0s-.77,0-1,.45c.19.54.68.66,1.14.74.9.18,1.82.3,2.74.41a3.83,3.83,0,0,1,3.21,2.4l.31.77.81-.14c-.17-.62-.31-1.18-.46-1.73s-.3-1-.45-1.47c.17.08.44.1.5.23a6.6,6.6,0,0,1,.54,1.42,12.62,12.62,0,0,1,.13,1.57h2.87c-.43-.33-.73-.54-1-.77s-.57-.52-.91-.83c0,.41.05.72.08,1.24-.6-1-.6-1-.25-1.57-.77-1.48-.75-1.68.05-2.37-.33-.89-.65-1.72-1-2.65l-2-.24c.07.47.12.83.18,1.22a1.08,1.08,0,0,1,1.4.45,1.51,1.51,0,0,1,0,1.56C51,90.46,50.79,90.71,50.63,91Zm.23,18.19h0l2.79,4.73a23.17,23.17,0,0,0,.12-3.3c-.08-2.4-.27-4.8-.25-7.19a6.46,6.46,0,0,1,4.89-6.65l1.67-.57c-.34-.46-.81-.92-1.12-.7-.5.37-.88.11-1.3.05-.88-.11-1.75-.31-2.63-.4a14.14,14.14,0,0,0-5.61.31,3.26,3.26,0,0,0-1.84,1.11l1.48.89a4.88,4.88,0,0,1,3.42-1c-.88.4-1.58.74-2.3,1a3,3,0,0,1-1,.25A2.31,2.31,0,0,1,47.47,97a.66.66,0,0,0-.29-.1c-.11.23-.22.43-.35.71l2.09,1-.07.18-1.92-.45a1.23,1.23,0,0,0,1.23,1.21,11.44,11.44,0,0,1,1.13.25,1.29,1.29,0,0,1,0,.19H47.57c.14,1,1.23.65,1.69,1.32l-1.32-.09c.4.93,1.36.44,2,1H48.3c.21,1,1.25.68,1.74,1.33l-1.29-.15c-.09,1.26,1.14.87,1.65,1.48H49.13c.26.75,1.15.4,1.49,1l-1.06.09c.2.86.75,1.48,1,2.27A8.24,8.24,0,0,0,50.86,109.16ZM38.36,98c-.58,0-.81.36-.85.94-.07.92-.2,1.84-.29,2.76s-.56,1.25-1.4.63a13.37,13.37,0,0,1-1.15-1c-.88,1.52-1.07,2.37-.72,3.16l.81-1.52c.07,1-.67,1.79-.6,2.9l1-2,.23.1c-.3.87-.59,1.73-.94,2.74a9.3,9.3,0,0,1-1.74-6.33,12.26,12.26,0,0,1-1.83,1.14c-1.1.44-1.23,1.35-1.39,2.3.47-.55.71-1.31,1.62-1.66a3.71,3.71,0,0,1-.25.66c-.34.59-.69,1.19-1.08,1.75a2.16,2.16,0,0,0,.06,2.44c.37-1.3.56-2.53,1.61-3.31a2.43,2.43,0,0,1-.2.77c-.34.82-.66,1.65-1,2.47a1.12,1.12,0,0,0,.36,1.46c.34-1,.29-2.07,1.25-2.94-.31,1.11-.58,2-.84,2.94-.13.44-.11.8.42,1,.16-.8,0-1.66.92-2.39-.12.72-.19,1.22-.28,1.72s-.32.91-.09,1.38c.27-.61.22-1.33,1-1.85-.1.61-.19,1.08-.26,1.54-.13.87-.13.88.18,1.32l.33-1,.22,0c0,.67-.07,1.34-.11,2l.41.06c.1-.3.18-.57.27-.86.2.41.3,1,.51,1,.43.08.43.36.56.62s.28.45.43.69a2.3,2.3,0,0,1,2.71.14c.91.78,1,.73,1.85-.15l.5-.52a2.92,2.92,0,0,1,2.21-.92,3.34,3.34,0,0,1,2.87,1.35,7.49,7.49,0,0,0,4.14,2.5,1.5,1.5,0,0,0,1.35-.27,2.89,2.89,0,0,0,1-2.62c-.27.57-.55,1.13-.82,1.7l-.18-.07c.19-.86.37-1.71.56-2.55l-.18,0c-.3.59-.61,1.18-.92,1.76l-.22-.08a10.41,10.41,0,0,0,.35-1.44c.06-.47.53-.94.09-1.51l-.94,2-.21-.08A14.34,14.34,0,0,0,50,111.4c.06-.53.39-1.05.15-1.75-.52.79-.53,1.7-1.33,2.28a29.42,29.42,0,0,0,.67-3.63c-.5.62-.58,1.48-1.29,2,0-1.43.89-2.66.4-4.07-.35.78-.7,1.57-1.06,2.36l-.2-.08c.16-.65.32-1.32.49-2,.35-1.36.36-1.36.13-2l-.71,1.91a1.39,1.39,0,0,1-.19-.06c.17-1.13.35-2.27.53-3.41l-.16,0c-.19.31-.37.62-.64,1-.07-1.1.73-2,.09-3-.23.5-.41.91-.67,1.5-.09-1.23.7-2.23,0-3.35-.21.45-.36.81-.52,1.18-.08-.9.37-1.76-.22-2.67l-.45,1c-.14-1.9-.14-1.9-.72-2.23,0,.43,0,.85-.07,1.28-.75-2.34-1.37-2.88-3.24-2.64a2.44,2.44,0,0,1-1.48,2,11.38,11.38,0,0,0-1.12.85ZM70,104.69l1,.89c.16-.42.25-.69.35-1-.4-.34-.78-.47-1.19-.1a.4.4,0,0,0-.3-.55l-1.36-.54.06-.17,1.26.19.19-.7a1.24,1.24,0,0,0-.28-.12c-.72-.09-.7-.08-.39-.7a2.06,2.06,0,0,0,.11-.6l-.75.31c0-.5.08-1,.12-1.46-.47,0-.72-.17-.63-.73a5.45,5.45,0,0,0-.09-1.33.66.66,0,0,0-.72-.67c0,.69.1,1.33.15,2a7.82,7.82,0,0,1-.57-1.84.75.75,0,0,0-.93-.68c.1.66.21,1.26.31,1.86a4.28,4.28,0,0,1-.67-1.5c-.16-.53-.44-.74-1-.53.12.45.24.86.36,1.27l-.14,0c-.29-.51-.57-1-.85-1.55l-.21.08c0,.27.08.54.13,1-.77-1-.78-1.11-1.93-.84-1.52.37-3,.85-4.54,1.29a1.29,1.29,0,0,0-1,1.3c0,.54,0,1.08,0,1.63l-.18,0-.24-1.85c-.69.56-.69.56.14,3.49-.72-.59-.74-1.51-1.14-2.26a1.45,1.45,0,0,0,0,2c.44.55.89,1.07,1.33,1.6l-.16.15-1.83-1.82a1.31,1.31,0,0,0,.45,1.71c.49.39.94.83,1.41,1.24l-.13.17-1.76-1.27c-.29,1.34-.22,1.5.86,2.16l1,.59-.11.23-1.75-.75a1.07,1.07,0,0,0,.63,1.42c.47.23.93.5,1.4.75l-.08.19-1.79-.62c-.23.46,0,.7.38.9l1.72,1-.1.21-2-.83a.88.88,0,0,0,.53,1.2c.54.26,1,.57,1.78,1a4,4,0,0,1-2.24-1c-.12,1.29-.12,1.29.94,1.73.4.16.8.34,1.2.51l-.08.21-2-.64c-.19.51.11.66.5.8a7,7,0,0,1,1.9.74l-.06.22-2.25-.5c-.17,1-.16,1.11.76,1.38a21.85,21.85,0,0,1,3.51,1.42,4.86,4.86,0,0,0,2.66.59,34.24,34.24,0,0,0,5.3-1.57,2.86,2.86,0,0,1,1-.27s0-.11.12-.24l-.68-.52c.46,0,1,.14.8-.56l-1-.48a1.09,1.09,0,0,1,0-.17l1,.13c.21-.39.18-.63-.22-.77s-.7-.28-1.05-.43c0-.08.06-.16.08-.23l1.48.33c0-.21.1-.41.15-.63L67.54,111l.06-.2,1.41.27c.06-.32.11-.61.15-.83l-1.53-.82a1.54,1.54,0,0,0,.08-.19l1.68.56.26-.88-1.8-.58.06-.21,1.92.32c.28-.49,0-.62-.31-.73l-1.86-.65a4.19,4.19,0,0,1,2.55.34c.36-.44.13-.64-.25-.78l-1.9-.72c0-.08,0-.15.07-.22l2.53.76c.07-.26.13-.47.2-.71l-2.72-1.3c0-.06,0-.13,0-.19ZM97.51,128l0,0a9.69,9.69,0,0,0-.17,1.41c.09,3.14.2,6.29.29,9.43a1.21,1.21,0,0,0,.47,1.08c-.5.2-.41.65-.42,1,0,1.39-.07,2.77-.06,4.16a16.35,16.35,0,0,0,.16,1.69l0,0a9.79,9.79,0,0,0-.13,3.5c.74-1.1,1.37-2.23,2-3.34s1.35-2.22,2-3.33,1.41-2.27,2.14-3.39a22.89,22.89,0,0,1,2.25-3,1.49,1.49,0,0,1-.27.66L97.93,150.4a3.08,3.08,0,0,0-.58,1.71c0,1-.1,1.92-.15,2.88l-.09,1.38c1.52-2.57,2.86-5.18,4.25-7.76s2.69-5.27,4.35-7.89c.17.73.19.76,0,1.13-.37.77-.74,1.54-1.15,2.29-2.33,4.24-4.68,8.46-7,12.71a4.85,4.85,0,0,0-.64,1.81c-.4,4.27-1,8.52-1.78,12.74-.48,2.69-1,5.4-1.31,8.12-.41,3.37-.67,6.76-.93,10.15-.15,1.93-.19,3.88-.29,6,.31-.18.53-.27.71-.4,1.92-1.38,3.84-2.76,5.75-4.16a4.43,4.43,0,0,0,.86-.87c1.45-1.83,2.88-3.67,4.33-5.51.17-.21.37-.4.56-.6l.16.13c-.58.84-1.14,1.68-1.73,2.5s-1.18,1.58-1.77,2.36l.17.16,7.26-5.14a6.54,6.54,0,0,0-.09-.73,39.28,39.28,0,0,1-1-9.29q-.11-7.47,0-14.94c0-3.78.08-7.55.28-11.32.32-5.79.74-11.58,1.17-17.36a123.76,123.76,0,0,1,1.63-13.28c.17-.92.36-1.84.59-3-1.57.79-3,1.53-4.38,2.18a7.7,7.7,0,0,1-3.62,1,1.06,1.06,0,0,0-1.08.54c-1.07,1.6-2.18,3.17-3.28,4.75a1.91,1.91,0,0,1-.25.33,1.37,1.37,0,0,1-.23.17,1.85,1.85,0,0,0-.14-.14c1.21-1.88,2.42-3.76,3.69-5.75l-2.08-.22-3,2.47s0,.09,0,.23q.06,3.79.15,7.61C97.22,127.6,97.41,127.8,97.51,128Zm-.89-13.74a8.27,8.27,0,0,0,.74-.54c1.4-1.21,2.81-2.41,4.17-3.66a2.37,2.37,0,0,0,.86-1.88,22.09,22.09,0,0,1-5.1,3.61,36.37,36.37,0,0,0,5.76-5.94c-.82.55-1.57,1.18-2.36,1.75A7.48,7.48,0,0,1,98,109c2-1.78,4.12-3.21,5.44-5.42a18.1,18.1,0,0,1-4,2.49c.79-.84,1.65-1.6,2.46-2.41A8.51,8.51,0,0,0,104,101a16.45,16.45,0,0,1-5.48,3.83,10.54,10.54,0,0,1,1.24-1.08A20.19,20.19,0,0,0,104,99.47c.21-.3.36-.64.55-1-2.55,2.31-4,3.37-5.25,3.51l.72-.56a22,22,0,0,0,5-5.14,7.69,7.69,0,0,0,.38-.76c-.86.53-1.61,1.14-2.38,1.71a7.78,7.78,0,0,1-2.51,1.41,3.88,3.88,0,0,1,.66-.68c1.38-1.28,2.76-2.57,4.12-3.86a1.76,1.76,0,0,0,.59-1.67c-.66.61-1.27,1.21-1.93,1.75a5.92,5.92,0,0,1-2.23,1.35,8.24,8.24,0,0,1,.91-1c1-1,2-2.06,3-3.09a1.6,1.6,0,0,0,.45-1.67c-2.07,2.44-3.16,3.34-4.55,3.64.41-.36.69-.59,1-.84.88-.87,1.78-1.72,2.61-2.63a7.76,7.76,0,0,0,1-1.56,2.53,2.53,0,0,0,.13-.8c-1.47,1.95-2.29,2.8-3.38,3.31.59-.77,1.15-1.45,1.65-2.17a5.8,5.8,0,0,0,1.31-2.46c-.57.65-1,1.17-1.47,1.66a4.67,4.67,0,0,1-1.51,1.21c1.08-1.65,2.49-3,3.12-5-.48.45-.87,1-1.32,1.44a4.17,4.17,0,0,1-1.43,1.17,3,3,0,0,1,.4-.71c.64-.9,1.28-1.79,1.9-2.69.28-.4.26-.42.12-1a9.3,9.3,0,0,1-2.22,2.37,1.12,1.12,0,0,1,.23-.52c.51-.78,1-1.54,1.53-2.32a.87.87,0,0,0,0-1.16,10.19,10.19,0,0,1-2.61,2.51,1.61,1.61,0,0,1,.27-.52l1.82-2.49c.22-.32.39-.64-.08-1a5.86,5.86,0,0,1-1.73,2c.45-.95.79-1.7,1.14-2.44a.73.73,0,0,0-.27-1.09c-.4.65-.59,1.45-1.4,1.91a2.39,2.39,0,0,1,.11-.38c1.17-2.34,1-2.65-1.37-3.5a13.5,13.5,0,0,0-8.59-.09,18.88,18.88,0,0,0-8.52,5.53c-1.19,1.29-2.59,2.47-3,4.31,0,.06-.09.11-.15.12-.46.12-.47.48-.57.86s-.5.56-.58.88a5.06,5.06,0,0,0,0,1.23s-.07.1-.11.16L79,88.21a6.56,6.56,0,0,1-1,2.86l-.37-.19c-.62,1.14,0,2.42-.4,3.59-.48-.38-.2-1-.86-1.52.09,1.78.17,3.35.25,4.91l-.18,0c-.17-1-.35-2.09-.53-3.13-.83,1.87-.31,3.83-.58,5.77-.19-1-.37-1.92-.56-2.88-.81,1.93,0,3.86,0,6a14.62,14.62,0,0,1-1.1-3.2c-.13.31-.29.51-.26.69.25,1.73.53,3.47.82,5.3a14.06,14.06,0,0,1-1.4-3.43,1.82,1.82,0,0,0-.32,1.75c.41,1.37.79,2.74,1.19,4.11a14.48,14.48,0,0,1-1.83-3.4c-.23,2,.59,3.82.78,5.75A24,24,0,0,1,71,107.67a3,3,0,0,0-.2,1.5c.35,1.5.78,3,1.18,4.47.06.2.09.41.14.61a13.69,13.69,0,0,1-1.93-4.18,2,2,0,0,0-.31,2c.37.85.63,1.74.93,2.62a3.83,3.83,0,0,1,.1.59l-.16,0c-.47-.81-.94-1.63-1.44-2.48-.75,1.65.11,3.34,2.17,4.35a8.22,8.22,0,0,0,.73-.52,6.44,6.44,0,0,1,3.32-1.51,3.86,3.86,0,0,0,1-.25,1.73,1.73,0,0,1,2,.4c.57.54,1.17,1,1.77,1.56.16-.1.29-.16.39-.24a2.3,2.3,0,0,1,2.42-.36c.48.17,1,.34,1.44.54a2,2,0,0,0,1.78,0,9.69,9.69,0,0,1,1-.44,2.62,2.62,0,0,1,2.09.08,8.58,8.58,0,0,1,1,.54,1.3,1.3,0,0,0,1.37.07l.74-.36a2.74,2.74,0,0,1,3,0c1-.76,2.1-1.48,3.1-2.25s1.7-1.39,2.53-2.11c.14-.11.18-.33.27-.5A16.38,16.38,0,0,1,96.62,114.26Zm22.81-52.6a5.89,5.89,0,0,1-.94,1,2.88,2.88,0,0,0-1,1.59c-.75,2.27-1.57,4.53-2.22,6.84-1,3.56-1.83,7.17-2.81,10.74a73.55,73.55,0,0,1-4.71,11.84,19,19,0,0,0-2.1,6.09,5.75,5.75,0,0,1-.18.8q-1.43,5.31-2.86,10.63c0,.23-.06.47-.1.71a4.17,4.17,0,0,0,1.1-1.84c.21-.66,1-1.06,1.19-2l-.92.66c.54-1.23,1.7-2,2.2-3.21L104.35,107a1.44,1.44,0,0,1,.45-.79l1.84-1.79a1.62,1.62,0,0,0,.64-1.35l-1.22,1c.73-1.48,2.17-2.41,2.9-4.13-.8.43-1.18,1-1.94,1.32,1.06-1.73,3-2.64,3.51-4.81l-2.09,1.67-.16-.2c.89-.9,1.77-1.8,2.67-2.69a1.59,1.59,0,0,0,.69-1.22,15,15,0,0,1-2.22,1.73c.39-.53.88-1,1.28-1.48s1.15-.74,1.2-1.61l-1.84,1.45c.62-1.41,2.28-2,2.46-3.85a16.2,16.2,0,0,1-2.29,2.08c.73-1,1.5-1.88,2.29-2.78a1.8,1.8,0,0,0,.59-1.51l-1.84,1.89-.19-.18a26.33,26.33,0,0,1,2.13-2.45,1.43,1.43,0,0,0,.52-1.24,13,13,0,0,1-1.91,1.77A16,16,0,0,1,113,86.24c.38-.47,1.05-.74,1.23-1.61l-1.55,1.23a7.45,7.45,0,0,1,1.16-1.61c.4-.49,1-.87.91-1.76l-1,1.19c.41-1.4,1.61-2.39,1.85-4l-1.09,1a7.13,7.13,0,0,1,.9-1.68c.32-.5.89-.89.76-1.74l-1,1.22-.19-.12c.33-.5.67-1,1-1.49s.79-.85.83-1.46a3.14,3.14,0,0,0-.64.55c-.18.19-.38.36-.57.55.47-1.28,1.67-2.08,1.87-3.46-.57.36-.83,1-1.54,1.26l1.87-2.81-.68.37c.51-1.15,1.44-2,1.32-3.3l-1.18,1.28c.24-1.15,1.21-1.91,1.41-3.07l-.82.76c.27-.92,1-1.54,1.15-2.49l-.91.86-.15-.11c.48-.7,1-1.42,1.42-2.13l-.14-.1-1.08,1C118.4,63.52,119.19,62.73,119.43,61.66Zm-2.17,23.77c-.06-.05-.1-.11-.16-.15.69-.83,1.37-1.66,2.14-2.61l-.78.29c.78-1.11,1.47-2.07,2.27-3.19L120,80c.42-1.22,1.47-2,1.67-3.22l-.91,1c.51-1.5,1.67-2.36,1.94-3.83l-.76.65c.42-1.17,1.27-1.9,1.51-3.11-.33.28-.53.43-.83.69.31-1.13,1.32-1.75,1.42-2.85l-.59.12,1.19-2.1c-.36-.92.6-1.45.65-2.27s.25-1.55.31-2.34,0-1.58,0-2.36a.64.64,0,0,0-.29.45,35,35,0,0,1-2.4,8.6c-4.73,11.5-9.33,23.07-14.93,34.2a59.7,59.7,0,0,1-5.19,9.1,7.1,7.1,0,0,0-1.31,3.15c.44.48.81.23,1.14-.1.51-.51,1-1,1.49-1.57a5.17,5.17,0,0,0,.35-.54l-.9.27,2.09-1.9-.1-.13-.93.29a3.69,3.69,0,0,1,.82-.81c.41-.32.8-.64,1.19-1,0,0,0-.12,0-.18l-.67.15c.49-1,1.68-1.18,2.06-2.36l-.62.35-.69.31c.75-1.09,2-1.44,2.46-2.57l-.69.19-.09-.14c.64-.66,1.28-1.31,1.92-2a1.85,1.85,0,0,1-.14-.14l-1.24.72-.11-.17a19.81,19.81,0,0,0,1.85-1.56c.43-.45,1-1.08,1-1.59a1.87,1.87,0,0,1,.4-1.26c.27-.43.61-.82.9-1.24.13-.2.23-.43.42-.79l-.69.45-.12-.11c.67-1,1.35-1.93,2-2.89a.6.6,0,0,0-.08-.08l-.87.66a4,4,0,0,1,1.15-1.8c.47-.54,1.17-.93,1.24-1.85l-1.57,1.31c0-.24,0-.33,0-.37.82-.92,1.62-1.84,2.48-2.72.23-.25.53-.4.48-.83-1.07.35-1.5,1.48-2.6,2,.72-1.48,2-2.33,2.63-3.7-.86.68-1.43,1.65-2.47,2.1a24.08,24.08,0,0,1,2.59-3.16,3.06,3.06,0,0,0,.86-1.86l-2.67,3a28.18,28.18,0,0,1,3.23-4.5ZM111,106.79l-.13-.18c.74-.63,1.45-1.28,2.21-1.9,1.82-1.48,1.83-1.47,1.95-2.11l-1.89,1.66c0-.06-.1-.11-.14-.16.44-.49.92-1,1.32-1.48s1.18-.8,1.23-1.71l-1.44,1.31c.54-1.26,1.73-2,2.13-3.36L115,100l-.14-.15c.46-.55.88-1.14,1.39-1.65A7.84,7.84,0,0,0,118,95.59a92.18,92.18,0,0,1,4.69-9.38,23.82,23.82,0,0,1,2-3c1.81-2.38,3.64-4.73,5.52-7A58.7,58.7,0,0,0,136,66.86a3.56,3.56,0,0,0,.18-.58.87.87,0,0,0-.4.38,46.94,46.94,0,0,1-5.17,6.91c-2,2.2-4,4.39-5.77,6.7a84.46,84.46,0,0,0-9.4,15.55,147.67,147.67,0,0,1-7.9,14.66c-1.12,1.76-2.35,3.46-3.53,5.18-.12.18-.25.36-.41.58,1.81-.07,3.9-1.42,4.25-2.69l-.73.39a5,5,0,0,1,1-1,1.63,1.63,0,0,0,.65-1.21l-1.45.86-.11-.16,1.78-1.62-.1-.09-.94.39-.1-.2c.78-.6,1.56-1.22,2.36-1.79a2.2,2.2,0,0,0,1-1.28l-1.73,1a1.62,1.62,0,0,0-.1-.18c.54-.41,1.07-.83,1.62-1.24,1.24-.9,1.24-.9,1.41-1.41Zm21.63-22.21s-.14,0-.17,0c-.2.24-.41.47-.59.72A115.84,115.84,0,0,1,119.05,100a56.12,56.12,0,0,0-10.4,13.58c-.12.22-.22.45-.42.84.8-.29,1.41-.49,2-.73.24-.1.57-.24.67-.45a10.31,10.31,0,0,1,2.09-2.51c0-.06,0-.16.07-.29l-.88.27c.66-1.18,2.14-1.25,2.89-2.45l-2,.74-.09-.23,3.76-2-1.31.15c1-.89,2.33-.91,3.19-2l-1.12.13a11.74,11.74,0,0,1,1.68-1.06c1.07-.58,1.07-.58,1.4-1.11l-1.14.31a11.79,11.79,0,0,1,1.94-1.34c1.26-.76,1.27-.76,1.66-1.5l-1.37.48-.06-.17,2.53-1.42a.36.36,0,0,0,0-.11l-.93.13c.93-.86,2.25-1,3-2.29l-1.62.71a13.68,13.68,0,0,1,2.16-1.62,2.42,2.42,0,0,0,.5-.45c-.44-.59.23-.6.43-.83s.53-.55.79-.83l-.13-.16-1.23.56c.71-1,1.81-1.25,2.44-2.29l-1,.36,0-.1L130.1,91l-.92.12,1.66-1.49-.11-.1-.72.18,1.67-1.74-.11-.12-.73.38a.54.54,0,0,0-.05-.11l1.44-1.55C131.92,85.76,133.1,85.35,132.67,84.58ZM47.42,86.1c-.5-.38-1-.74-1.47-1.14a7.48,7.48,0,0,1-2.43-3.62,1.91,1.91,0,0,1,2-2.55,6.42,6.42,0,0,1,1.5.29c.3.07.57.18,1.1.35-.55-.65-.94-1.1-1.35-1.57l-.42.12c-.12,0-.23,0-.57.08.31-.28.47-.4.59-.54.48-.61.36-.94-.42-1.12l-.56-.14c.79-1.45-.28-2.28-1-3.56-.23,1-1,.53-1.4,1.18.16-.69.27-1.19.42-1.86-.37.33-.56.51-.87.8.18-.68.31-1.19.44-1.71l-.17-.06-.58.86c-.13-.61.34-1.09,0-1.62-.15.3-.26.53-.41.82L41.56,70a1.27,1.27,0,0,0-1,1.42c.06,1,.22,2,.36,3,0,.32.16.63.29,1.17l-1.55-1c-.07.38-.14.68-.19,1H39.3c-.1-.44-.2-.89-.32-1.47l-.38,1.06c-.26-.48-.11-1.1-.8-1.16,0,.41,0,.79.05,1.17h-.11l-.46-1.08a1.93,1.93,0,0,0-.49,2.15c.2.69.43,1.46,1.15,1.73a10.58,10.58,0,0,0,2.13.43v.11l-1.44.1a1.41,1.41,0,0,1,0,.2l1.87.09a.57.57,0,0,1,0,.13l-.95.36a.94.94,0,0,0,0,.16h1.27c0,.06,0,.1,0,.15l-.92.37c-.23.79.58.66.82,1,.09.15.46.1.64.13l.51.86c0,.29-.41.6-.15,1.13.14.32-.36.87.2,1.31l.31-.72c.13.34.23.62.36,1l.53-.26c.34.15.67.41.79.34.33-.21.37-.06.51.18s.35.21.44.15c.32-.17.48.15.62.17.79.07.89.88,1.43,1.24a2.67,2.67,0,0,0,.32-.24C47.34,86.3,47.36,86.2,47.42,86.1ZM74.48,70c-.17-.41-.79,0-.67-.6a.68.68,0,0,0-.35-.11,3.45,3.45,0,0,0-1.06.33,4.75,4.75,0,0,0-2.2,3.87,3.85,3.85,0,0,1-.09.91c0,.18-.34.43-.47.4-1-.25-1.37.51-1.65,1.18-.38.94-.61,1.94-.92,2.92.89.43,1,.67.63,1.57-.14.34-.26.68-.46,1.18a4.55,4.55,0,0,1,.7-.34.84.84,0,0,1,1.17,1,3.37,3.37,0,0,1-.3.64c-.1.25-.16.51-.25.77A18.33,18.33,0,0,0,70,82.15c.83-.84,1.39-.83,2.47-.32a2.11,2.11,0,0,0,1.74.37l-.77-.61c1,0,2,.78,2.61-.5l-.91-.17,1.14-.22c-.11-.79-.56-.14-.82-.24l.25-.51H73.23l1.1-.72,0-.15h-.82a4.24,4.24,0,0,1,1.17-.65c.39-.16.92-.07,1.22-.64l-1.23.36C76,77,76,77,76.05,76.59l-.83.62c.56-1.13.56-1.13.3-1.45-.16.28-.32.56-.56,1V75.64c-1,0-1.58.8-2.5,1.37.25-.43.38-.65.5-.84l-.35-.27c.44-.52.82-1,1.36-1.66l-1.09.42-.1-.15L74,73.18l-1,.29-.06-.15c.44-.4.89-.81,1.32-1.22L74.13,72l-.65.31a.44.44,0,0,0-.08-.11l1.26-1.54c-.27.1-.42.15-.65.25C74.19,70.52,74.34,70.23,74.48,70ZM67.17,91.33c.26.32.66.58.71.9.08.56-.42.8-.9,1a2.56,2.56,0,0,0-.68.21,2.11,2.11,0,0,0-.77.74,6.78,6.78,0,0,0-.3,1.45c.33.09.53.16.72.19s.38,0,.61,0c0-.26,0-.46.06-.66A2,2,0,0,1,68.9,93a1.25,1.25,0,0,0,1.32-.69c-.24-.61-1.17-.36-1.29-1.22l1-.22a16.18,16.18,0,0,0,2.2-.45,1.58,1.58,0,0,0,1.1-1.87l-1-.27c.39-.73,1.22-1.18,1-2.12a1.45,1.45,0,0,0-1.59.68,15.71,15.71,0,0,1-1.45,1.72,1.21,1.21,0,0,1-1.46.43.81.81,0,0,0-1.07.3C68.54,90.54,68.54,90.54,67.17,91.33Zm29.24,26.12,4-2.47a1,1,0,0,0,.54-1.12L95.9,117ZM33.82,100a3.41,3.41,0,0,0-.27,2.62l1-1.59Zm-2.48-3.21,1.39.37c-.14-.47-.24-.8-.33-1.13L31.28,96C31.3,96.28,31.32,96.53,31.34,96.81Zm87.22-35.2.15.14c.37-.7,1.18-1.18,1-2.4Zm-48.83,38.5c.29-.62.35-1.06-.3-1.35C69.31,99.66,69.31,99.66,69.73,100.11Zm-.94-.29c.13-.71.35-1.23-.24-1.78A2.28,2.28,0,0,0,68.79,99.82Zm2.63,4.48c.19-.35.46-.68,0-.88-.13-.06-.42.23-.75.43Zm-1-4.57c-.31.75,0,.94.66,1.18Zm-.86,2.48.8.08C70.07,101.65,70.07,101.65,69.59,102.21ZM53.06,115l.11-.16-.49-.67c-.11.29-.17.47-.24.69Zm16-14.17c.16.11.26.24.34.23s.25-.17.24-.25a.37.37,0,0,0-.25-.25C69.3,100.51,69.19,100.65,69,100.79Zm1.74,2.4c-.07-.08-.15-.14-.22-.21-.15.19-.31.37-.54.67C70.62,103.74,70.74,103.51,70.77,103.19Zm-15.94,12,0,.22.49.12c0-.08,0-.15,0-.22Zm-8.25-39.1c-.43-.51-.43-.51-.65-.07Z" transform="translate(-21.79 -56.83)"/></g><path class="cls-3" d="M90.05,152.14c-.08.14-.14.3-.23.43A95.38,95.38,0,0,1,75,170.51c-1.55,1.43-3.33,2.63-5,3.93a1.2,1.2,0,0,1-.56.25,1.83,1.83,0,0,1,.77-1c1.26-1.1,2.57-2.16,3.8-3.3A119.86,119.86,0,0,0,89.27,153l.65-.91A.57.57,0,0,1,90.05,152.14Z" transform="translate(-21.79 -56.83)"/><path class="cls-3" d="M91.31,155.93c-.52,1.56-5.28,7.91-8.92,11.9A75.8,75.8,0,0,1,69.9,179.08l-.17-.16c.15-.15.28-.32.43-.45a131.87,131.87,0,0,0,13.4-12.92c2.47-2.84,4.75-5.86,7.11-8.8Z" transform="translate(-21.79 -56.83)"/><path class="cls-3" d="M87.23,151.9a2.57,2.57,0,0,1-.25.53,111.38,111.38,0,0,1-14.77,15.39,27.62,27.62,0,0,1-2.35,1.66,3.13,3.13,0,0,1-.73.23c1.16-1,2.18-1.84,3.16-2.73,4.94-4.5,9.59-9.3,14.06-14.27.27-.29.59-.54.88-.81Z" transform="translate(-21.79 -56.83)"/><path class="cls-3" d="M88.36,165c-2.5,4.1-15.38,16.78-17.92,17.59C76.82,176.9,82.61,171,88.36,165Z" transform="translate(-21.79 -56.83)"/><path class="cls-3" d="M88.36,170.55c-1.77,2.49-13.93,14-15.21,14.39A12,12,0,0,1,74,184q3.78-3.61,7.6-7.2c2.05-1.93,4.11-3.83,6.17-5.74Z" transform="translate(-21.79 -56.83)"/><path class="cls-3" d="M70.44,165q6.78-6.6,13.55-13.22s.05.06,0,.08a91.66,91.66,0,0,1-12.21,12.47A1.93,1.93,0,0,1,70.44,165Z" transform="translate(-21.79 -56.83)"/><path class="cls-3" d="M87.59,179.19a96.82,96.82,0,0,1-9,8.71,21.52,21.52,0,0,1-1.75,1.26c-.06,0-.19,0-.29,0C77.06,188.27,85.51,180.54,87.59,179.19Z" transform="translate(-21.79 -56.83)"/><path class="cls-3" d="M75.4,186.6l13.38-13.31,0-.08c-.15.2-.29.4-.45.59-3.34,4-7,7.61-10.7,11.23-.64.62-1.39,1.15-2.09,1.72Z" transform="translate(-21.79 -56.83)"/><path class="cls-3" d="M83.76,136.81c3.57-4.48,7.19-8.93,11.13-13.1l.2.13a8.62,8.62,0,0,1-.58.86c-2.28,2.7-4.55,5.41-6.84,8.1-1,1.19-2.11,2.35-3.16,3.52l-.58.65Z" transform="translate(-21.79 -56.83)"/><path class="cls-3" d="M80.54,192a41.33,41.33,0,0,1,7.6-1.28,31.82,31.82,0,0,1-5.41,1.65l3.83.49,0,.26c-2.2,0-4.42.18-6.62-.56l.13-.51Z" transform="translate(-21.79 -56.83)"/><path class="cls-3" d="M80.38,148.37c-.44,1.31-7.81,10.72-10.77,13.76C69.93,161.13,78.91,149.66,80.38,148.37Z" transform="translate(-21.79 -56.83)"/><path class="cls-3" d="M65.21,84.49c.08-.82.18-1.47.19-2.11a2.41,2.41,0,0,0-.24-1.09A.79.79,0,0,0,64,80.93l.24,1.25c-.76.61-.76.61-.26,2-1.19-.48-1.35-1.35-.38-2.32,0-.15,0-.32-.07-.48a.88.88,0,0,1,.41-1.06,1.08,1.08,0,0,1,1.17.1,2,2,0,0,1,.85,2c0,.34-.08.68-.11,1,.07.06.12.14.16.13,1.17-.13,1.65.33,1.54,1.49a2.74,2.74,0,0,1-1.76,2.24,8.68,8.68,0,0,0,.66-.93A4.86,4.86,0,0,0,67,85a1.22,1.22,0,0,0-.31-.91c-.27-.31-.63-.08-.93.1A4.93,4.93,0,0,0,65.21,84.49Z" transform="translate(-21.79 -56.83)"/><path class="cls-3" d="M87.86,185.15c-2.26,2.26-9.57,6.53-11.31,6.71a.1.1,0,0,1,0-.07s0-.09,0-.1Z" transform="translate(-21.79 -56.83)"/><path class="cls-3" d="M80.54,192l-.5,0-2.1.53c1.07-1.15,8.12-4.23,10.37-4.47a5,5,0,0,1-.65.4c-2.11,1-4.22,1.94-6.32,2.93A5.48,5.48,0,0,0,80.54,192Z" transform="translate(-21.79 -56.83)"/><path class="cls-3" d="M88,181.57a86.88,86.88,0,0,1-11.93,9.89,1.15,1.15,0,0,0-.14-.17l11.91-9.87Z" transform="translate(-21.79 -56.83)"/><path class="cls-3" d="M77.55,147.74c-1.54,2.52-7.41,9.15-8.39,9.61a2.17,2.17,0,0,1,.26-.67c.63-.76,1.26-1.52,1.93-2.26q2.7-3,5.42-5.88C77,148.26,77.29,148,77.55,147.74Z" transform="translate(-21.79 -56.83)"/><path class="cls-3" d="M95,121.48a113.63,113.63,0,0,1-9.8,10.07A119.44,119.44,0,0,1,95,121.48Z" transform="translate(-21.79 -56.83)"/><path class="cls-3" d="M49.08,188.74a66.93,66.93,0,0,1-10.69-.21c-.18,0-.33-.16-.54-.27C38.74,187.88,46.65,188.2,49.08,188.74Z" transform="translate(-21.79 -56.83)"/><path class="cls-3" d="M36.19,190H46.8v.2a14.88,14.88,0,0,1-3.47.28c-1.23.09-2.46.11-3.69.13C36.68,190.65,36.68,190.65,36.19,190Z" transform="translate(-21.79 -56.83)"/><path class="cls-3" d="M50.1,187.6c-2.93.36-8.56-.26-9.81-1.11A71.06,71.06,0,0,1,50.1,187.6Z" transform="translate(-21.79 -56.83)"/><path class="cls-3" d="M86.91,137.93a80.25,80.25,0,0,1,7.39-9.5A83.91,83.91,0,0,1,86.91,137.93Z" transform="translate(-21.79 -56.83)"/><path class="cls-3" d="M43.36,184.37a26.32,26.32,0,0,1,6.82,1.53C48.82,186,44.05,184.92,43.36,184.37Z" transform="translate(-21.79 -56.83)"/><path class="cls-3" d="M74.46,146.54a.4.4,0,0,1,0,.19l-3.84,5.39a1.65,1.65,0,0,1,.08-.46q1.69-2.43,3.4-4.85c.09-.12.27-.17.4-.26Z" transform="translate(-21.79 -56.83)"/><path class="cls-3" d="M90.52,140l2.29-2.87a11.13,11.13,0,0,1-2.1,3Z" transform="translate(-21.79 -56.83)"/><path class="cls-3" d="M46.62,182.6a4.46,4.46,0,0,1,2.52.83l-2.55-.53Z" transform="translate(-21.79 -56.83)"/><path class="cls-3" d="M91.77,135.42a6.82,6.82,0,0,1-1.87,2.45l0,0,1.83-2.48Z" transform="translate(-21.79 -56.83)"/><path class="cls-3" d="M59,89.64l.43-.16c-.1.62-.19,1.14-.28,1.66-.39-.51-.18-1-.14-1.53Z" transform="translate(-21.79 -56.83)"/><path class="cls-3" d="M91.75,135.41,92.6,134a1.82,1.82,0,0,1-.83,1.46Z" transform="translate(-21.79 -56.83)"/><path class="cls-3" d="M49,180.63l-1.13.43C48.17,180.49,48.45,180.26,49,180.63Z" transform="translate(-21.79 -56.83)"/><path class="cls-3" d="M59.05,89.61c-.07.11-.15.22-.32.44A1.25,1.25,0,0,1,59,88.66v1Z" transform="translate(-21.79 -56.83)"/><path class="cls-3" d="M60.27,93,60,92l.18,0c.09.32.19.65.28,1Z" transform="translate(-21.79 -56.83)"/><path class="cls-3" d="M87.23,151.9l.42-.67.17.15-.59.52Z" transform="translate(-21.79 -56.83)"/><path class="cls-3" d="M89.9,137.87l-.3.67c-.06,0-.13-.09-.18-.14l.5-.51Z" transform="translate(-21.79 -56.83)"/><path class="cls-3" d="M74.48,146.55c.11-.19.22-.39.32-.59l.16.13-.5.45Z" transform="translate(-21.79 -56.83)"/><path class="cls-3" d="M96.67,108.54a2,2,0,0,1-1.78.81,1.26,1.26,0,0,1-.51-.06,78.71,78.71,0,0,0-8.08-1.35c-1.88-.32-3.81-.35-5.71-.53a12.62,12.62,0,0,1-2.31-.34c-.77-.22-.84-.7-.32-1.32a1.49,1.49,0,0,1,1.23-.6c3.15.07,6.3,0,9.44.2a15.68,15.68,0,0,1,7.31,2.48,2.87,2.87,0,0,1,.5.36A1.93,1.93,0,0,1,96.67,108.54Zm-.86,0a18.86,18.86,0,0,0-11.3-2.77l-.31.38c-.09.11-.17.23-.36.49,1.19-.13,2.24.19,3.21-.4-.11.21-.23.42-.34.64l.11.14,1.53-.68.08.11-.48.61a.69.69,0,0,0,.11.13l1.53-.85.1.13c-.23.26-.45.53-.78.92l1.64-.57c-.12.34-.19.54-.29.85l1.57-.69.07.12c-.19.19-.37.39-.7.74l1.3-.3c.31.85.93.17,1.39.32,0,.15-.07.3-.1.48C94.43,108.59,95,109,95.81,108.59ZM82,106.46a2.35,2.35,0,0,0,2-.61A1.81,1.81,0,0,0,82,106.46Zm-.28-.61c-.82-.16-1.36-.08-1.62.69Zm-3,.1c0,.11.07.22.11.33l.81-.35c0-.07,0-.13-.07-.2Z" transform="translate(-21.79 -56.83)"/><path class="cls-3" d="M98.48,98.26a1.39,1.39,0,0,1-1.43.43,43.47,43.47,0,0,1-6.72-.84,19.19,19.19,0,0,0-2-.21c-.59-.09-1.17-.28-1.77-.35-.85-.11-1.71-.1-2.56-.22a3.7,3.7,0,0,1-1.32-.49.81.81,0,0,1-.08-1.44A3.49,3.49,0,0,1,84,94.46a20.45,20.45,0,0,1,12.63,2.21A3.73,3.73,0,0,1,98.48,98.26Zm-1.23-.16.06-.15a2.93,2.93,0,0,0-.43-.36A20.2,20.2,0,0,0,84.32,95a1.5,1.5,0,0,0-1.22.93l3.51-.65-1.31,1,.09.17c.79-.35,1.57-.71,2.36-1l.09.16-.87.83a.6.6,0,0,1,.09.15L88.88,96l-.47.81a23.2,23.2,0,0,0,3.51-.34l-.63.54a.61.61,0,0,1,0,.12l1.32-.36.18.23-.72.44.08.14,2-.76c-.14.32-.22.48-.31.68l1.31-.21-.32.59Z" transform="translate(-21.79 -56.83)"/><path class="cls-3" d="M101.65,87.75a9.1,9.1,0,0,1-3-.26c-1.57-.29-3.11-.78-4.7-1.06s-3.44-.46-5.16-.69c-.47-.06-1-.1-1.42-.19a2.06,2.06,0,0,1-.85-.34.94.94,0,0,1-.29-.68c0-.14.31-.32.5-.38a3.55,3.55,0,0,1,.91-.16,33.9,33.9,0,0,1,9.11.35,8.88,8.88,0,0,1,4.35,2.42,4,4,0,0,1,.48.53A2,2,0,0,1,101.65,87.75Zm-1-.49c0-.08,0-.17,0-.25a7.92,7.92,0,0,0-4.93-2.48c-2.21-.22-4.44-.24-6.66-.32-.68,0-1.37.06-2.15.1.15.17.19.27.23.27a11.72,11.72,0,0,1,1.19,0c.39.06.77.21,1.16.29.12,0,.26-.09.39-.12l.9-.27c0,.19,0,.35.06.51l.41.07a5.6,5.6,0,0,1,1.55.18,8.86,8.86,0,0,0,2.15.33s0,.14-.07.41l1.75-.54L96,86.3,98.19,86l-.34.37-.32.39Z" transform="translate(-21.79 -56.83)"/><path class="cls-3" d="M95.08,179.13a137.29,137.29,0,0,1,10.26-16.41C105.14,164.11,97.3,176.67,95.08,179.13Z" transform="translate(-21.79 -56.83)"/><path class="cls-3" d="M97.15,167.55A103.56,103.56,0,0,1,106.22,150C106.1,151,99,164.8,97.15,167.55Z" transform="translate(-21.79 -56.83)"/><path class="cls-3" d="M104.54,178.24a6.29,6.29,0,0,1-.49,1c-.89,1.3-1.77,2.62-2.75,3.85-2,2.47-4.08,4.9-6.12,7.35l-.52.63-.2-.14c.19-.29.36-.58.57-.85Q98.89,185,102.76,180c.31-.41.59-.83.91-1.25.17-.22.38-.44.57-.66Z" transform="translate(-21.79 -56.83)"/><path class="cls-3" d="M97.64,162.3c.56-3,7-15.51,9.07-17.42Z" transform="translate(-21.79 -56.83)"/><path class="cls-3" d="M96.58,173.25c.25-1.29,8-15.1,9.49-16.91C105.81,157.66,98,171.56,96.58,173.25Z" transform="translate(-21.79 -56.83)"/><path class="cls-3" d="M95.06,182.86l9.93-15,.18.11c-2.76,5.37-6.35,10.19-9.89,15Z" transform="translate(-21.79 -56.83)"/><path class="cls-3" d="M98.07,139.89a2.67,2.67,0,0,1,0-.69,3.12,3.12,0,0,1,.33-.75,93.29,93.29,0,0,1,8.8-13.61c.14-.19.3-.36.52-.61.14.44-.15.62-.29.83q-4.22,6.52-8.43,13C98.62,138.65,98.37,139.29,98.07,139.89Z" transform="translate(-21.79 -56.83)"/><path class="cls-3" d="M97.9,143a128.29,128.29,0,0,1,9.71-14.55l.23.16L98.1,143.13Z" transform="translate(-21.79 -56.83)"/><path class="cls-3" d="M97.75,146.78a3.65,3.65,0,0,1,.22-.66,106.58,106.58,0,0,1,9-13.53,2.16,2.16,0,0,1,.81-.67c-.13.22-.25.43-.39.64l-9.12,13.59a6.09,6.09,0,0,1-.53.61Z" transform="translate(-21.79 -56.83)"/><path class="cls-3" d="M104.55,173.76a7.11,7.11,0,0,1-.4.89,17.92,17.92,0,0,1-1.14,1.82c-2.42,3.19-4.85,6.36-7.29,9.54a5.11,5.11,0,0,1-.45.48l-.16-.13q4.62-6.35,9.23-12.71Z" transform="translate(-21.79 -56.83)"/><path class="cls-3" d="M94.45,193.49l9.2-11.1.16.13a79.62,79.62,0,0,1-9.18,11.13Z" transform="translate(-21.79 -56.83)"/><path class="cls-3" d="M98.2,134.61c2.66-4.45,5.45-8.83,8.48-13.21C106.43,122.61,100.49,131.9,98.2,134.61Z" transform="translate(-21.79 -56.83)"/><path class="cls-3" d="M97.51,128c.45-.77.84-1.57,1.35-2.29,1.72-2.43,3.47-4.83,5.22-7.25.21-.28.47-.52.7-.78l.16.12a7.26,7.26,0,0,1-.38.67c-2.21,3-4.41,6.1-6.63,9.14a2,2,0,0,1-.45.36Z" transform="translate(-21.79 -56.83)"/><path class="cls-3" d="M105.55,119.94l-7.12,10.27C98.71,129,104,121.18,105.55,119.94Z" transform="translate(-21.79 -56.83)"/><path class="cls-3" d="M57.19,100.9c.7-1,3.22-1,5-.09-1.66.12-3.21.24-4.76.33C57.38,101.15,57.28,101,57.19,100.9Z" transform="translate(-21.79 -56.83)"/><path class="cls-3" d="M62.9,106.71a9.65,9.65,0,0,1-4.29.14c.31-.27.45-.51.6-.51,1.09,0,2.18,0,3.26.08C62.58,106.42,62.68,106.56,62.9,106.71Z" transform="translate(-21.79 -56.83)"/><path class="cls-3" d="M64.23,102c1.3-.58,2.07.17,2.93.64a3.2,3.2,0,0,1-2.2,0C64.72,102.56,64.54,102.29,64.23,102Z" transform="translate(-21.79 -56.83)"/><path class="cls-3" d="M61.32,112.44c.53-.63,1.29-.62,2.13,0A1.63,1.63,0,0,1,61.32,112.44Z" transform="translate(-21.79 -56.83)"/><path class="cls-3" d="M63.06,114.77a1.62,1.62,0,0,1,1.71.14C64.09,115.35,63.58,115,63.06,114.77Z" transform="translate(-21.79 -56.83)"/><path class="cls-3" d="M67.07,110.86c-.64.24-.74-.06-.63-.57Z" transform="translate(-21.79 -56.83)"/><path class="cls-3" d="M38.34,98.05a4.62,4.62,0,0,1,3.74,2.53,9.32,9.32,0,0,1,1.46,3.48C42.14,101.8,41,99.33,38,98.61l.4-.58Z" transform="translate(-21.79 -56.83)"/><path class="cls-3" d="M37.47,111.51c-.53-.7-1.3-1.25-1.07-2.21.08-.35.14-.7.2-1h.23c0,.46.06.92.09,1.42h.47C37.42,110.29,37.44,110.9,37.47,111.51Z" transform="translate(-21.79 -56.83)"/><path class="cls-3" d="M34.93,107.8c.16-.81.33-1.61.49-2.41a4,4,0,0,1-.26,2.46Z" transform="translate(-21.79 -56.83)"/><path class="cls-3" d="M36.2,106.8c-.12.67-.23,1.35-.35,2l-.25,0,.36-2Z" transform="translate(-21.79 -56.83)"/><path class="cls-3" d="M39.49,113.11c-.78-.13-.87-.26-.77-1.2Z" transform="translate(-21.79 -56.83)"/><path class="cls-3" d="M37.86,111.23c.12.32.23.65.34,1l-.19.08-.42-.91Z" transform="translate(-21.79 -56.83)"/><path class="cls-3" d="M53.42,100.25c-1,.28-1,.28-1.64.08C52.55,100,52.84,100,53.42,100.25Z" transform="translate(-21.79 -56.83)"/><path class="cls-3" d="M54.08,97.18A2.26,2.26,0,0,1,56.14,97,2.73,2.73,0,0,1,54.08,97.18Z" transform="translate(-21.79 -56.83)"/><path class="cls-3" d="M50.86,109.16h.9c0,.07,0,.14,0,.22-.29-.07-.58-.15-.88-.21Z" transform="translate(-21.79 -56.83)"/><path class="cls-3" d="M40.1,75.09l.12.67-.21,0c0-.23-.09-.46-.14-.68Z" transform="translate(-21.79 -56.83)"/><path class="cls-3" d="M36,96.86a4.37,4.37,0,0,1-2.23-2.93A8.56,8.56,0,0,1,36,96.86Z" transform="translate(-21.79 -56.83)"/><path class="cls-3" d="M29.31,89.69l1.74.45c-.87.47-1,.42-1.74-.46Z" transform="translate(-21.79 -56.83)"/><path class="cls-3" d="M98.37,86.41l.71-.19a2.56,2.56,0,0,0,0,.27l-.72.1A1.16,1.16,0,0,1,98.37,86.41Z" transform="translate(-21.79 -56.83)"/></svg>