<svg id="Livello_1" data-name="Livello 1" xmlns="http://www.w3.org/2000/svg" viewBox="0 0 514.31 459.5"><defs><style>.cls-1{fill:#f8f8f8;}.cls-1,.cls-2{stroke:#332421;stroke-miterlimit:10;stroke-width:0.5px;}.cls-2{fill:#f9efef;}.cls-3{fill:#cc0b36;opacity:0.5;}</style></defs><rect class="cls-1" x="0.57" y="0.25" width="460" height="459"/><path id="AL" class="cls-2" d="M1028.5,594.74l.5.4,2,2.9,1.4.5,1.9,1.3,1.4,3.2.1,2.2-.5,2.6.3,2.1-.8.8.7,2,.2,1.9,1.2,2.2,1.2,1.1,1.3,2.4,1.6-.2,1.3,1.1v1.1l1.1,1.8-.8,2.6-1.7.8-1.2,3.1-.3,2-.6.5-1.9.3-1.7,1.3,1,2.2-.9.7-.3,1.5-.7.7-2.7-.9-.7-2.5-1.7-2.7-4.9-2.6-1.2-1.1.4-1.5-.1-1.4-1.4-2.4.3-2.6.8-2.2-.3-2.7.1-2.1-.7-2.9.5-2.1.9-1.3-.2-2.2-1.5-1.1-1.6-.2v-3.1l-.3-.6h1.7l-1.7-2.8,3.2-5.3,1.1.3.8,2.1,3.4-1.2Z" transform="translate(-703.3 -309.89)"/><path id="AD" class="cls-2" d="M797.2,595.44l-2.8,1.1-.7-.4V594l.9-.7,2.6.6v1.5Z" transform="translate(-703.3 -309.89)"/><path id="AT" class="cls-2" d="M981.6,501.54l-.9,2.4.1.8,1.6,2.9,2.3,2.9-.6.7-.6,1.9.7,2-3.9.3-2.5-.9-1.3,1.4,2.6.7.5,1.1-.5,1.4-2.2,1.2.4,1.5-.5.7,1.1,1.6-.3,1.8-2.5.5-1.8,1.7-1.3.9-.1,1.9-2.4-.5-1.6.2-2.3,1.1-2.8-.2-2.6.2-1.9.7-1,1.3-3,1.2-5-.7-5-.9-2.6-.5-4-.3-8.6-1.5-1.1-.5-3.1-3.5v-2.3l-4.7,1.5-3.1-.2-3.4.3-1.4.6-1.2,2.2-1.1.4-2.1-.4-.9-.8-3-.3-.5-1.5-.8-.3-2,1.9-2.3-.4-1.5-.8-.4-1-3.3-.8.3-.8-1.1-2.5,1-3-.9-.7,1.7-.5.7-.5,3.5,1.6.9,1.4,1.2.3-.1,1.3,1.6-.5,1-1.6.2-1.9,2.8-.1,2.7.4,1.4,1.9,3.8-.5,1.1-.9,3.9-1.5,5.7-.5.1-1.4,2,.3,1.5.8,2.5-.5,1.1.5.2,1.1,1.2.9,1.7.4.3-1.5-.3-1.9-1.7-.3.6-1.3-.1-1.3-2.5-2.8.6-1.3,3.1-1.8,2.9-.8,1-1,.7-2.9,2.3.9,1.3-.9.2-2.8,2.2,1.2.8,1.3,3.9.4,1.4-.7,2.5.4.1-1.1,1.3-1.6h1.2l.3-3.2,1.2-.2,1.6.8,1.4-.4,4.8,1.7,1.5-.1,3,1.7,3.8.2,1.2-.9,5.1,1.5,1,1.6Z" transform="translate(-703.3 -309.89)"/><path id="BE" class="cls-2" d="M843.8,468.44l1.6-.5.8.8,1.2.1,3,2.3-.4,1.5,1.7.7.4,2-2.3,1.3-.6,1.7-1.7-.7-1.3,1.3-1.4,2.5-.2,1.7,2,2.4-1.1,1.7-3.4.4-2.8-2.6-3.3-1.5-1.7-.1-.4-2-.6-.6.8-2.7-1.9.6-.5,1.4-1.3.6-2.2.3-2.3-.3-.5-.6.7-1.4-.7-.7.4-1.6-1.6-1.1-3.6-.4-.9.3-.6-2-4.2-1.1-.5-2-1.6-1.8-3.2,1-2.9-2.4v-1.2l-.9-2.2,5.1-2.5,4.7-1.7.3,1.3,1.2.7,1.2-.6,3.9,1.1,3.2-1.5.6-1.2,2.1.3-.2-.9,1.4-.7,1.5.8,1.5-1,1.1,1.3,2.5-.8.5,1.6,2.6,1.4,1.9-.4,1.7,1.3,2.6,1.1-1,2.9-1.1,1.3.7,1.1Z" transform="translate(-703.3 -309.89)"/><path id="BG" class="cls-2" d="M1133.4,576.24l.2,3.7-.9,1.8-2-.6-2.2.5-1,2-1.2,1.2v2.6l.4,4.2-1.6.7-2.9,3.7,3,1.8,1.7,2.2,2.4,2.5.5,1.2-1.7-.2-.9.4h-1.8l-1.5.6-3.4-2.5-3.5.3-1.5,1.1-3.4.4-1,2.2-1.9.3-.3,1.4-1.6-.5-1.6,1.1.7,1,.9,2.7-.2.8-2.5,1.2-1.8-.3-3.2.4-3.4.9-1.7-1.1-3.7-1.2-.9.6-2.4-1.4-1.2-1.7-1.6.5-4.2-.1-.2.9-1.9.2-3,1.1-2.6-.2-2.4.2-1,1-3-.2v-4.2l.5-1.7-.9-1-1.7-3.3-3.4-1.8-3.3-3.2,1-.3,1.1-1.7-1.4-2.9v-3.3l1.1-.6,1.8-.1,1.1-1.6,1.6-1.7.3-1.4-1.6-1-1.3-1.6-2.9-1.5-2.4-3.9-.6-2.4.4-2.3,2.1-1,.2-1.9.9-.7,4.3,2.5-1.8,2,.9,1.8,3.7-.6,3.9.3,5.3,1,3.5.4,2.5-.5,9.4,1.7,4.2.2,2.3-.6,1.6-.9,1.2-1.6,3.3-2.1,3.2-1.2,4.4-.9,2.9-.4,4.5,2.3,3.2.4.9.6,1.7-.5,2.5,2.6,2.2.7,2.6.5Z" transform="translate(-703.3 -309.89)"/><path id="BA" class="cls-2" d="M1012,558.84l2.8-.7,1.5.8-.5,2.5-1.6,2.7-.1,2.6.5.8,2.4,1.2,3.3,2.9-.3.8-3.1-.1-.5.8,3.2,3.7-.2,2.2-2.5-.3-.7.8-3.2.5,1.4,2.2-2.3.2-2,1.7-.5,1.7.1,1.5-1.7.2-.5.7.6,3,1.1,1.6-.1.8-1.1,1-1.7-.7-6.2-3.8-.6-.9-1.6.1-1.1-.6.3-1.6-3-2.5-1.5-1.6-.4-2.2-2.4-1.1-5-4.1-1.7-2-2.8-2.3-2.3-2.4-1.3-4-3.4-3.2-1.9-1.3-.1-1.4.3-5,1.2-.6,1.8.4,1.7,1.8,1.8,1,2.7-3.2,3.2.3,1.5-1.2,2.7,1.6,2.5.1,2.8.7,1.7-.6,1.6,1.3,2.2-1,1.8.3,1.8-.2,2.6.7,2.2.2,1.1.8,1.3,2.2Z" transform="translate(-703.3 -309.89)"/><path id="BY" class="cls-2" d="M1098.3,388.14l1.8,1.3,1.2-.4,1.9-.1,3.1,2.2,1.6-.9,1.5-.3,3.6,1.2.2,2.3,1.7,1.5,2.1-1.3,2.7-1.1h3.4l2.7.9,2.4,1.8,3.5,1.4.4,2.5-.6,1.8,2.1,2.1.5,1.3-1.3,2v2l4.1,2,.5.5-.5,1.8,1.4.6,1.8,2.4,1.5,1.4,4.9,2.1.7.8-.4,2.8,5.3.5,3.2,1.3v1.1l.7,1.1,2.8,1.4.6,1.7-2.6,1-.3.9-3,1.8-3.5-.2-2.4-1.5-2.9.1-1.4,2.7,3.9,3.3.6,1-.2,1.5,1,1.5.5,3.3,1.6,1.4,1.3,1.8-5-.1-1.4.8-1.7-.4-1.1.5-2.2,2.3-.8,1.2-1,3.3,1.8,3.6-.8,1.4-2.7-.9-.5-1.2-2-1.1-7.1.6-2.3.8-.6-.5-2.5-3-3.8,1.6-.6,1.1-1-.3-.8-1.3-5.1-1-1.9.7-1.9-.5-1.2,1.7-.8-1.4-1.1-.4-3,.1-1-.3-1.8-2.1h-2.3l-6.1-.9-6.5-1.5-7.8-.4-2.4.1-2.3.5-5.9.5-.8,1.4-1.6,1.6-1.9,1.2-1.1-.5-1.9-.3-1.1.5.1,1.4-1-1.6-.1-1.3.8-1.5-.4-1.1.2-2.4-.8-1-1.8-1-3.3-1.3v-1.2l2-2.7.8-.5,4-1.7.6-1.6-.9-3.9-1.7-3.6-2.9-4.9-2.1-5.1,2.9.4,1.6-.3,3.7-.3,1.6.9,3.3-1.3,1.8.1.8-2.6,2,.2,1.4-1.2,2.1-.5,1-.7,1.7,2.3,2-.2v-1l-.9-1.1-1.9-.5.5-2,1-1.5-.4-2.3,1.1-3,2.6-.6.8-.6,1-2,3.6.1.4-1.1,1.3-1-3.9-1,.7-3.1v-1.8l2.6-.6,1.2-1.5,1.1-.3,3,.4,3.1.1.4-1.7,2.5-2.4,1.4-.8,1.3-.2Z" transform="translate(-703.3 -309.89)"/><path id="CH" class="cls-2" d="M887.9,515.74l.8,1.1,2.6,1.3h1.2l.9.7-1,3-.5,1.5.1,1.7,1.2.1,3.3.8.4,1,1.5.8,2.3.4,2-1.9.8.3.5,1.5-.5,3.1.5,1.8-1.9-.2-1-.9-1.3.3-.6,1.8,1.5,3.5-1.2.3-1.4-1.9-.7-.1-2.9,1.1-2-.8-.8-2.1-2,.1v2.9l-.5,1.1-2.2,2.6-.2,1,.7,1.7-1.2.7-.9-1.4-1.3-1.2.4-1.2-2.2-.6-2.4-2-.2-2.5-1-.6-3.4,2.9.6,1.5-1.6,2.2-2.4,1.4-3.1-.8-2.6,1-2.4.5-1.4-.7-.9-1.4-2.3-2.3.5-1.7-.8-2.2-2.2-.3-1.9.1-2.3,1.5.5,1.3-2.3,1.6-1.4-.1v-1l1.5-1,.3-1.5-.8-.7,1.1-2.9,3-2.2.5-2.9,2.1-.9,3.8-4,.6-.9-1.3-1.1,1.8-1.4H863l.8.8,2.7-.3.8-1.4,1.5-.7,1,.3,2.8.1,3.3-.6,2.6.2-.2-1.5,1.3-1.2h1.3l1.4,1,.8-.2,1.1.9,3.7-.2Z" transform="translate(-703.3 -309.89)"/><path id="CZ" class="cls-2" d="M952.7,467.14l2.1-.4-.1-1.9,3.3.8.3,1.1,1,1.1,4.6,1.1,2.7,1.1.8.9,3.2-.7,1.8,1.2-.7,1.1-1.6,1.2,1.6.9,2,1.8,1.5,1.9,1,.4,3.5-2.5-1.7-2.4h1.3l2.2.6,3.3,1.9,3.6-.7v1.6l-1.4.5,2.7,2.3,1,.6,1.8-1,3.5,1.8.5-.2,2.7.8.5,1.8,2.8,2.2.5,1.6-2.8.3-2,1.5-.6.8-2.3,1.2-.7,3-1.6.8-2.1,1.9-1.5.7-1.7.2-3.6-.5-1.4,1.2-1.1,2.8-1-1.6-5.1-1.5-1.2.9-3.8-.2-3-1.7-1.5.1-4.8-1.7-1.4.4-1.6-.8-1.2.2-.3,3.2h-1.2l-1.3,1.6-.1,1.1-2.5-.4-1.4.7-3.9-.4-.8-1.3-2.2-1.2-.6-.7-2.9-2.2h-1.3l-1.3-1.6-2.5-1.5-2.9-2.6h-1.3l-2.3-2-1.8-2.7-1.4-1.5,1.2-1.7-.6-1.6-2.3-1.3-2.5-3.4.5-.7,1.9,2,1.9-2.6,1.1-.6,2.6-.6,2.1.4.8-1.3,2-.3.6-1,1.6-.7,1.1.1.6-1.2,4.4-1,3.5-1.5,1.9-.6-1.5-1.5.8-.6,2.2.4,1.5,1.5v.9l1.4.6.9-.7Z" transform="translate(-703.3 -309.89)"/><path id="DE" class="cls-2" d="M941.61,420.64l-4.7-2.6.1,1,1.1,1,.2,1.7,3.4.1Zm-35.4-8.2-1.7-.4-.8,1,1.4.7h1.8Zm27.3.6.5-1.7-1.7-.6-.9-1.2-2,.9-.6,1.4-.1,2.2.5,1.1,2.1,1.1,1.3-1.3h1.3l1.3-.7Zm19.6,45-2.2-.9v-1.6l-1.9-3.1.8-1.1.7-2.6-.8-1.9-2-2.3.6-2.6-1.4-1.7-3.3-2.1-1.6-1.4.7-1.6,1.9-1.8.3-2.7-1.8-4.1-.7-2.6-2.8-.5-1.9-1.3-.8-2.5-1.3-2-3.2.2-3.7-2.1-1.5-1.9-5.3-.9-5.1,4.5-3.6.3-1.1.5-3.3,2.5-3.6-.9-2.1.2-1.4-1.2,2.2-1.6.6-1.5-.7-1.4-3.2.9-4.5-1.8-1.7.4-.8-1.2-3.2.3,1.7-1.6-.1-1.4-1.6-1.6-1.8-.7-1.5-.4-3.1.7-5.2-1.3-2.7-.1.2,1.6,3.4,3.8v1l-3.4,1.1v1.5l1.6-.3,1.5.8.2,3.9.9,1.1,2.8.5-.1.6-3.6.3-3.3-.6-.9,1.4-.2,1.6.5,1.7-1.1.1-1.4-.8-.9,2.4-1.6-.3.6-1.2-1.9-2.2-4.5-.1-4,.3-.9.4-1.1,1.4-.5,2.7,1.7,1.4.1,4.3-.7,1.7-1.1,3.8-3.1-.1-.6,1.6.7,1,2.6.3.8,1-.6,2.6-2.6,1.6-.3.9,1,.9-.7,1-4.5,1.3-2.3-.8-1.8.7-.7,1.1,3.1,4.1v1.2l-1.3,2.8.7,1.2-2.2,1.6-.5.8,1.9,1.2-.6,2.4,3,2.3-.4,1.5,1.7.7.4,2-2.3,1.3-.6,1.7.3,2.2,1.5,1.6,2.8,1.1v1.4l-.9.9-.6,3,1.4.1,3.5,4.3,1.8-.7,1.4.4.3.9,2.1.1,3-.6,2,1.4,4.8.8,1.6.6.1,1.3-3.5,3.8-1.4,5.5-1,1.8-.3,1.5.2,2.4-.6,2v1.5l1.1,1.3,1,.3,2.8.1,3.3-.6,2.6.2-.2-1.5,1.3-1.2h1.3l1.4,1,.8-.2,1.1.9,3.7-.2-1-1.6,5.1,2.3,2.2,1.2.7-.5,3.5,1.6.9,1.4,1.2.3-.1,1.3,1.6-.5,1-1.6.2-1.9,2.8-.1,2.7.4,1.4,1.9,3.8-.5,1.1-.9,3.9-1.5,5.7-.5.1-1.4,2,.3,1.5.8,2.5-.5,1.1.5.2,1.1,1.2.9,1.7.4.3-1.5-.3-1.9-1.7-.3.6-1.3-.1-1.3-2.5-2.8.6-1.3,3.1-1.8,2.9-.8,1-1,.7-2.9,2.3.9,1.3-.9.2-2.8-.6-.7-2.9-2.2h-1.3l-1.3-1.6-2.5-1.5-2.9-2.6h-1.3l-2.3-2-1.8-2.7-1.4-1.5,1.2-1.7-.6-1.6-2.3-1.3-2.5-3.4.5-.7,1.9,2,1.9-2.6,1.1-.6,2.6-.6,2.1.4.8-1.3,2-.3.6-1,1.6-.7,1.1.1.6-1.2,4.4-1,3.5-1.5,1.9-.6-1.5-1.5.8-.6,2.2.4,1.5,1.5v.9l1.4.6.9-.7,1.6-3.6.4-2.3Z" transform="translate(-703.3 -309.89)"/><path id="DK" class="cls-2" d="M911.81,407.94l-2.4-.3-2.1-1-1.3-.9-2.3.2-.1,2.5,5.1,2.1,3.5-.7Zm7.5-3.3-1.2-.2-1.6,1,.3,1.2,1.9-1,2.3-.1Zm-27.9.6-2.7-1.1.6,2.3,1.7.5,1.2-.2Zm9.9-.9-2.5,2.9,1.4,1.5,1.8-4.6Zm44.8-3.7-.5.9-.1,2,2.4,1,2.4.2.3-1.8Zm-47.9-4.6-1.5.8-2.6-.8-4.8,1.4.1,2.3,1.7,2.9,5.4,1.7h2.1l1.8-1.2.1-2.8Zm22.5-1-.9.9.7.9,1-.6Zm-24-4.6v3h.9l.6-1.4Zm22.9,5.2.7-.7-.1-1.5-.7-2,.4-2.1-3-.9-1.1.1-3.9,2.2.9,1.1-1.1,2.9-1.6-.5-.1-2.6-.8-.7-1.8.2v.9l-1.5,1.9-3.1.2-.4,1.4,1.3.6,1,2-.1,2.1,1.5,1.8,2.2-.1,2,.4,1.3,3.1.1.9,1.5,2.1,2.2-.6v-5.6l2.6-.7,1-.7-.5-1.5-2-1.2,1.1-1.8Zm-20-13h-4.1l-2.5-1.5-.2-5.6,1.4-2.5.9-1v-3l-1.2-1.7.8-2.5-3,1.7-3.3.5-1.5,1.5-2.8,3.6-2.8,1.3-3.9-.1-1.6.6h-2.2l-2,1.9-1.6,1.9-.1,1.4,2.4,1.4,1.5-.7,1.9-.2,1-2.4,1.3-1.9,1.3-.4,1.6.5-.3,4.5-1.6-1.3-2,.8-1.6,1.6-.6,1.9-1.5-.9-3.1-.8-1.3.1-.1,6.9,1,2.3-.5,5.6,2.5,1.4,3.2,1.3.9,3.9-1.1.3.8,1.4.5,2.1,2.7.1,5.2,1.3,3.1-.7,1.5.4-1.3-2.9-2.3-.3.6-1.1,1.5-1.3.2-.9-1.1-3.4,3.4-3.1,1.3-.8-1.4-1.2,1.2-.5,2,.1,1.2-5.1,1.1-.9,1.4,1.1h.9l2.6-1.4.7-2.2Z" transform="translate(-703.3 -309.89)"/><path id="EE" class="cls-2" d="M1033.21,352.14l-3.9-.2-3.2.6-.5,1-2,.5-1-.5-1.5.2,1.6,1.6-.9,1.8,1.9.7,1.5,1.4-1.6,1.8.3.9,1.6-.5.9-2.8,1-.9,1.4-.2,2.6.1.3-.5,3.7-2.5,1.8-.7Zm4-.6-1.9-.5-1,1,2.4,1.1.9-.2Zm-5.5-5-2.1-.3-.4-.9-1.3-.1-1.2,1.6-4.5.4,1.3.7,2.9.5,1.9,2.5,1.3-.3.9-1.6.9.6.8-.7.4-1.4Zm55.6,14.2-2.4-2.9-.8-1.3-2.6-2.2-1.4-2.8-2.6-2.3-.1-1.1,1.3-1.1,2-.5,2.5-.2,1.7.3.8-1,.9-3.2,1.2-.4,1-1.4-1.5-1.2-1.2,1-6.3-.5h-4l-1.4-.3-2.8-1.2h-1.8l-7.6-1.2H1059l-.4,1.7-6.3-.1-3.1,1-2.3-.2-2,1.3-.9,1.3-3.3.2-3,1.2.7,2.8-.7,1.1,1.5,2v1.8l.8,1.2,1.6,1.1,1.2,2.1,4.1,1.3,1.3-.3.9-1.3,2.3.4-.1,3.6-1,3.4,8.4-2.8,1.5,1,1.1-.7,5.6,2.5,2.3.5.6.7,3.5,2.7,2.8,1.1,4-1.2,3.4,1,1.9.2.2-2,1.2-2,2.3-.6Z" transform="translate(-703.3 -309.89)"/><path id="FI" class="cls-2" d="M1020.31,326.64l-.9,1.2,2.3,1.8.6-2.8Zm-3.1-.9-.9.8,2.1.6Zm-7.1-2.3.3,1.7,1.5-.7Zm.54-11.8.06.2.1,3.4-.9,1.6v1.3l1.7,5.3,2.1.9,2-.9.7,1.3.9.1,3.8,1.4,3.6.6-.8,2.3.4,2.4,2,.1,1.5-.8.3-1.5.7-.4,1.2,1.6,2.4,1.1-1.5,3,1.8-.4,2.7-2,2.9.2,6.7-1.1,1.2.3,1.5-1.3,5.9-1.1,1.1-.8,2.1-.2,2-1,.8.9,3.3-1.5-.3-1.5,2,1,1.9-.2.7-.6,1,.7,2-.6,2.5-.2,1.2-.8,1.8-.2,2.6,1.1,3.5-1,5.6-5.2,2.5-1.5.7-.8,4.9-3.3,1.81-1.9Z" transform="translate(-703.3 -309.89)"/><path id="GB" class="cls-2" d="M762,469l-2-.6-2.5,1.1v.5l2.5,1.2,1.3-.2,1.6-1.3Zm-35.6-39-1.3-1.4h-1.8l-1.2.5.1,1.9.9,1.2,1.2.6,3.4-1.9ZM710,412.84l2.1-.3-1.2-2.5-3.5-.3,2-1.1v-.9l-1.7-1.4-1.3-1.7-.5-1.7-1.1-1.1-.44,0v17.1l1,.23,1-.5,1.4-2.2,2.6-.6.6-1.4-1.1-.2Zm6.3-17.6-1.8-.7-.9,1.4.6,2,2.6.5.1-1.9Zm-11-3.9-.94.47v3.82l1.64-.89Zm2.2-1.7-1.6,2.2L707,393l2.1-2.8.1-1.6Zm.2-7.2-1.7-1.7-1.64.39-.46.11-.3.9.76.36,1.14.54-.6,3,4.6-.8.3-2.2Zm3.2-10.8-2,.1-2.9-.8.1-2.8-.2-1.1-.9-1-.64.3v6.39l1.34.21,1.4-.3.2,2.2.7.1,3.3-2.7Zm-5.3-18-1.24.63v4l0,0,1.6-2.6Zm83.1,99.5,2.1-.9.5-1.7,2.8-1.9,2.2-5.8-.4-3.1-.7-1.1-3.3-2.1-3.8-1-4.2-.3-1.7.2-2,2.1-1.2.2-2.8-1.4,3-2.7.6-1.1-1-2.7-1.6-2-5-3.3.3-.7,2.3,1.4,1.3.1-.3-1.6-2.1-2.9-.4-1.2,1.4-1.5-3.4-2.4-3.4-3.3-1.1-.6-4.5-1.6-1.6-1.8-1.5-3.8-2.1-6.9-.5-1.1-2-1.5-3.6-3.4-5.2-1.9-2.7.1-2.4,1-3.6-1.1,2.1-.7,2.3-1.7,2.4-.1,1.4-1.8-4.5-1.9,3.1-.5L746,382l2-2.5,1.9-2,2-3.5.8-2.3,2.8-3.4-1-1.7-2.3-1.3-1.9.3-6.9-.2-2.6.3-3.6-.5-5.3,1.5-3,.4.6-1.5,2.2-1.6-.2-.8-1.4-.1.5-1.6,2.5-1.3,4.2-2.8,2.2-1.2,1.3-1.6v-1.2l.6-1.7-2.3-.2-2.2.4-4.5.6-3.7.3-2.8.6-.6-.8-2.6.9-1-.9-1.3-.2-1.6.9-.3,2,.8,1.8-3.7.3-.7,2.9,2.3,2-1.9.4-3-.1-1.6,3.1.7,1.5-1.7,1.9.2.9,1.6.6,1,1.5-.4,1.9-1.7,2.1-1.5.9,1.5.7-1.7,1.1-1.8.2,1,2.3.8.7,2.4.4,1-.5,4.1-2.7-2.2,3.5-1.7,3.8-1,2.9L711,393l.6.3-1.4,2.5-1.1,3.9,1.4.5,1.1-.9,2.1-5.7-.1-3.3,1.5-1.4.6.4-.3,2,1.8-.9,2.9-.9,1.9,1.2-1.5.4-.8,1-.3,2.6,1.9,1.5.5,1.4-.6,1.2-2.9,4-1.2,2.4h-1.3l.3,1.9,2.6,2.5,1.1-2.3,3.5,1.3,2.5-1.1,1.1-.1.8.9h2.1l2-1.3,2.7-1.2,1.4-.2,1.9.8-2.3,2-1.6,3.1.3,1.4,2.8,3.6,1.7,1.5,2.1-.6,1.7.5-.7,2.6-1.5.8-.1,2,1.2.6-1.6,2.2-.1,2.4-1.2.4.8,2.1-2.7-1.3-3.7.7-1.9-.1-3.6,1.3-2.6,1.7-1,1.4-2.8,1.8.7,1.1,2.7-1.2,3-.3-.3,1.5.9,1.7-.5,1.4.3,2-1.2,2.3-2.8,1.9-2.2.7-3.8,1.7-2.5.6-1.1.7-.3,1.4.9,2.3,2.6,1.2,3.6-1.7h2.6l2.4,1.7.7.9,2.1-.4,2.1.8,2.3,1.9,3.2.4,3.8-2.3,4.7-1-3.6,3-1.9,2.4-1.1.7-2.9.1-2.8-.5h-2.8l-4.1.6-1.4,2.5-2.7.7-.8,3.1-4.6,3.8-2.2,2.3-2.5,1.9-2.8.7-1,1,.3,1.3,2.3-.8,1.4.3,1.1.9,1.3-.2.9-1.5,3.9-2.4,2.7-.7,2.5-.3,1.5-.5,4.5,2.5,1.4-.2,1.1-1.2,1.3-3.5,1-1.3,4.9-1.2,2.6.1,2.7,1.4,1.4.2,1-.5,3.8.5.9-.4-.9-1.5,2,.2,4.2-.5,2.8-1.7,1.8.2,4.2,1.2,4-.6,2.9-.1,4.9.8,5.7-1.9,1.1-.7,2.2.1,1-1.8,3.8-1.7.4-.4.2-2.7-1.9-.2-4.3.2-2.5-.4-1.1-2,2.5-.2,1.1-.6v-1.7l-1.7-.6,2.4-1.2Zm-49.6-105.3-1.5.3,1.3,1.4,1.3-.1Zm2.4-1.8.1-1.1-1.2-.5-1.7.1-.4,2.1,1.9,1,2-.3,1.4.7.6-1.4Zm1-4.6-.4.8,1.7.6.4,1.2,1-.3Zm20.4-15.4-1.6-1.8-1.2-.8-1.5,1.6,1.1.2.8,2-1.6,1.4.4.9,1.7-.3.5,1.1-.9,2.9.8.4,1-1.7.2-1.6,1.3-3.8Zm1.2-3.3-1.3.6,1.4,1.3Z" transform="translate(-703.3 -309.89)"/><path id="GR" class="cls-2" d="M1117.31,709.34h-1.8l-1.7.6-.7.7-1.2-.2-.1-2.8-.4-.4-3.3.7-2.3-.5-2.6-.2-1.4-1-3.7-.2-3.5.9-1.7.1-2.2-3.7-1.7,1h-2.3l-1.9-1.1-.4,1.4-1.4-.3-.2,1.9.4,1.8,1.1,1,3.1-.2,1.5.4,6.2,1,3.3,1.1.7,2.2.7.2,5.3-.4,8.1-1,4.4.1.9-.4.4-3.5Zm12.3-6.5-1.1.5,1.6,2.1.7-.2Zm-55.8-11.8-.5,1,.7,2.2,1.4-.2.5-.9Zm68.7.2-.9-.9-3.2,1.3-2.3,2.7.7,1.6-.4,1.8,1.7.4,1.4-1.9,1.6-.2-.4-1,.9-1.3Zm-23.9-4-1.9,1.2.9.6,1.5-1.2Zm10.5-4.4-2.5,1-1.3,1.1v.7l1-.7,1.5-.1,2.5-1.4Zm-26.7-3.8-1.1.6-.4,1.2,1.3.7.9-1.3Zm4.6-.1-.9-.7-1.9,2,1.4,2.2,1.1-.6.4-1.1Zm5.7-7.5-.6,1.6,2.2-.6v-1.1Zm-22.9-.7-.4,1.2,1,.4.5-1.1Zm32.2-2.1-2.4.5,1.2,1.2,1.7.9,1.6-.9.7-1Zm-76.7.1-1.7-.7-.9-1.2-.9,1.1,1.2,1.8,1.6,1.2,1.1-1Zm52.4-1.6-1.3-.1-.9-1.2-.9,1.4,2.4,2.1,1.4.1Zm-55.4-5.3-.9-.3-.3-1.8-1.2.8-1.4-.1-.6,1.8,1.3-.2,1.1,2,1-.2,2.1.8.2-1.2Zm69.9-3.5-.6-1.2-1.3-.9-2.1.5.1,1,2.1,2.4-1.4,1.3,1.8,1.7,1.1-.9.7-1.3Zm-70.3-5.1-1.1-.3-.8,2.4.4.9,1.3-.1.4-.4Zm50.4,10.2-2.7-.3-1.1-.9-1.5-3.8.2-.6-1.7-2.6-2.8-.3-5.5-2.5-.9-1.7-1.4-1.2-2.1.5-1.9,1.3.6.7,3,1.1,1.5,1.1,2,1.9,1.5.9.6,1.7,1.5.7,3.6.2,2.2,2.9.4,1.3,2.1,1.6,1.9.7.9-.8Zm23.7-16.1-1.9-1.5.1-.9-.9-.9-2.3.2v.6l-1.7.8-1.5-.1-.7,1.4.9.9,2.2.7,1.2-1.5.9.5-1.6,1.3.8.8,4,.8,1.2-2.1Zm-84.7-4.6-.9-2.4-.8-.7,1.1-1.2-1.4-1.2-1.6.4-.7,1.1,2.2,2.2,1.2,1.9,1.2.8,1.3-.3Zm68.5-8.5-1,.9-.8-.8-2.2.1.3,2.3,3.8.7.1-1.3.7-1.4Zm1.6-7.8-1.4.5,1.7,1.3,1.4-.4Zm-11.2-4.3-1.3-.1-1.1,2.3,1.8,1.1,1.6-.6v-1.4Zm23.1-9.5-.9-3.1-2.3-1.5-1.2-.3-1.6-.5-1.6,1.1.7,1,.9,2.7-.2.8-2.5,1.2-1.8-.3-3.2.4-3.4.9-1.7-1.1-3.7-1.2-.9.6-2.4-1.4-1.2-1.7-1.6.5-4.2-.1-.2.9-1.9.2-3,1.1-2.6-.2-2.4.2-1,1-3-.2-2,.3-.2,2.1-2.9,1-3.3-.6-3,.4-.8.3-1.7,2.5-2.4,1.3-2.3-.6-.9.6-4.6.3v1.1l1.1,1.8-.8,2.6-1.7.8-1.2,3.1-.3,2-.6.5-1.9.3-1.7,1.3,1,2.2-.9.7-.3,1.5-.7.7-2.7-.9,2.6,2.6,1.7,3.4,2.2,1.1,1.5,1.7,2.8,2.2,1.8-.5,2.5.2.6,1.6-.9.6-2.4-.9-1.5.2.2,1.9,1.2.5,1.7,1.9,1.9,4.2,1,.7,2.6-1,1.1,1.3,4.2-.7,2.1-.7,3.4.9h1.2l1.2-1.3,2.2,1.5,2.3.8,2.4,1.4.8-.2,2,.6-.2,1.6h-2.1l-.8.4.5,1.4-1.6-.3-1.2-1.1-2.1-1-4.2-1.2-3.9-2.1-1.6-.1-2,2.4-1.4.2-1.9-.5-1,2.6-2,1.7v1l2,1.3.7,1.6,1.2.5,2.1,1.5,1.6,2.5.3,1.2-1.4,1.7.2,1.8,2.3,3.5,2.2,1.9.4-1,.1-2.9,1.5-.6,1.3,1.9.9.4,2.1,2.8.2,2.9,1.6,1.1-.2-1.9,1.3-3.3,2.2-.1.8,1.5,2.2,2.5,1.7,1.2-.1-1.5-1-1.5.2-2.1-1.3-3.7-2.2-4.3-1.3-1.6-.7-2.4.6-.6,4.3,2.2.2,1.2.8.5,1.1-.7,3-1-2-2.4-2-.4-.8-1.5-.1-1.2-1.5-1.3,1.9-1.3,2.9-.5,1-.7,1,.4,4.2,3.6,1.3,1.6,1.1-.5-.1-1.7-.6-2.1-.3-2.9-1-2.1-1.7-.8-2-.5L1079,658l-2.6-.6-1.7-2.1-1.5-.1-1.6-1.1-3.3-1-2.4-1.4,2.6-.1,1.6-.8.4-1.3-.5-1.2-1.5-2.3,1.9-1.2,2.2,1.2-.3,1.9,1.3.5,1.3-1.1-.7-1.8-2.6-3.2-2.6-2.1-1.3-2.7-3.5-3.7-.4-1.3.6-3.8-.4-2,2.2-1.3,1.4,2.8,5.5,2.8.4,2,1.1,1.6,3,1,.6-.6-2.9-1.7-1.2-2.4.4-.6,3.1.6,2.5,3.2,1.5.8.6-.9-.5-1.4-3.5-2.7,1.2-1.2,1.2.1,3.2,1.2.7-.7L1082,628l-2.1-.1-.5-1,.5-1-2-2.1.2-1.1h2.3l1.8.4,1.8-1,1.7-1.9,2.2-.4,1.6,1,1.5.2,2.5-1.7,1.2-.4,2,1,.9-.2,2.3.9,4.6.6,2.1,1.2.5.7.8-.4,2.5-3.2-.5-4.4Z" transform="translate(-703.3 -309.89)"/><path id="HR" class="cls-2" d="M985,587.84l1.2,1.3,1.1-.9Zm23,6.8-1.7-.7-6.2-3.8-.6-.9-1.6.1-5.8-2,.5.9,4.3,2,3.1.7,4.4,2.5,4.8,3.1Zm-22.7-9.6-.5-.6-1.8-.2.5,1.3,1.7.3,5.6.1.8-.1Zm-3.3-3.3-.3,1.1,2.6.8,2-.1.5-1.2Zm-18-16.2-2.8-2.7.3,1.9,3.3,2.7.3-.4Zm-4.9-6.3-.8,1.1,1.9.2Zm-3.8-.4.1-1.6-1-.9-.5-2.1-.9.3.8,2-.4,1.2,1.7,4.2.9.1Zm1.1-5.5-.5,1.2-1,.7,1,1,1.3.2,1,1,1.5-.3Zm59.9.8-.9-1.5-3-1-1.2-1,.4-2-1.3-.4-.2-1.6-1.6-2.7.7-1.5-2.9.4-1.1,1.4-2.5.9-4.9-.2-3.3-.9-1.3-1.3-2.5-.6-1.3-.7-2.2-2.2-2.7-1.8-.9-1.3-1.7-1.2-2.9-1.2-2.5-.6-.9.8v1.7h-2l-.7,1-4.4,1.7-.4,1.4.9.9.2,2.2-.4,1.1-2.1.6-2.1,1,1,1.1-.7.7.8,2.3-1.2.4-1.6-.2-2-.7-1.3.5-1.5-.7-2.6-2.1-1.2,2.2-.6.3-3.6.1-1.1-.5-1.4,1.3-3.3-.8-.5-.6-.7.5,1.3,3.9.5,1.9,3.1,4.2h1.3l3-5,.3-1.9,1.4-.9,2.1.7,1.1,1.1,2.9,2.2.8,1.7.1,4.1,1.2,1.6,3.9,3.4,1.4.8-3.1,1.2.8,1.3,4.3,4,5.8,3.9.7,2.2,1.8.2,3.3-.6,2.7,1.2,3.8,1.1,3.1,2.8,2.6,1.5,3.5,2.8.3-1.6-3-2.5-1.5-1.6-.4-2.2-2.4-1.1-5-4.1-1.7-2-2.8-2.3-2.3-2.4-1.3-4-3.4-3.2-1.9-1.3-.1-1.4.3-5,1.2-.6,1.8.4,1.7,1.8,1.8,1,2.7-3.2,3.2.3,1.5-1.2,2.7,1.6,2.5.1,2.8.7,1.7-.6,1.6,1.3,2.2-1,1.8.3,1.8-.2,2.6.7,2.2.2,1.1.8,1.3,2.2,2.2.2,1-1.6-.7-2.6,1.7-.4Z" transform="translate(-703.3 -309.89)"/><path id="HU" class="cls-2" d="M1044.8,504.44h1.5l1.4,2.3,2.2.8.9,1.1,2.3.4.9.7.7,1.7-2.2,2.3-4.6,1.1-1.9,2.4-1.2,1,.1,1.7-1.4,1.4-.7,2.5-1.4,1.5v1.2l-1.6,2.7.2,1.3-2.1,1.5-1.5,4.7-1.3.9-2.6-.3-2.5,2-1.4-.5-3.2.9-1-.5-2.8-.3-1.1.2-2.9-.4-1,.3-1.5,1.6-2.2,1-1.6-.5-2.1,1.3-2.9.4-1.1,1.4-2.5.9-4.9-.2-3.3-.9-1.3-1.3-2.5-.6-1.3-.7-2.2-2.2-2.7-1.8-.9-1.3-1.7-1.2-2.9-1.2-1.9-2.2-1.4-3.3-2.4-.1,1.8-1.7,2.5-.5.3-1.8-1.1-1.6.5-.7-.4-1.5,2.2-1.2.5-1.4-.5-1.1-2.6-.7,1.3-1.4,2.5.9,3.9-.3-.7-2,.6-1.9.6-.7,2.1.3,4.2,2.7,1.6.7,4.7.1,7-.4.6-1-.5-1.3.4-1,1.4-.7,4.3-.4,2.4-.6,1-1.5.7-.2,3.5,1.4,5-2.5,1.6-3.5,1.8-.4,2.7.1,2.5.6,4.6-.7,1.4.9,2.2,2.2.6.2,4.3-1.1Z" transform="translate(-703.3 -309.89)"/><polygon class="cls-2" points="1.41 126.15 1.07 126.62 1.07 122.8 1.31 123.65 1.41 126.15"/><path id="IT" class="cls-2" d="M975.21,664.74l1.2-2.5-1.1-1.1-2,1.2-.8-.2-2,1.2L967,663l-1.4.3-1.2,1-1.7.6-2.8.5-3-.4-3.4,1-1.4-.4-2.5-1.6-1.4-.3-.5-.9-2.4-.1-1.4,1.6-1.8.8-2.3-2.3-.9,1.2-1.4.8-1.3,3.7,1.3,2.3,2.3,1.6h2.9l1.5,1,1.7.4,2.6,2.1,3,1.4,2.9,1.9,1.4.5h3l3,2,1.9,2.8,3.7,1.4,1.4-.3,2.9.6-.1-1.5.4-1.7,1.8-1.9-.1-1.3-1.6-1.8.7-.5-1.6-1.4-.3-2,1.5-5.1Zm-74.6-38.1-1.8-5-.7-.9-1-.8.7-1.4-.9-.5-1.2-1.5-2.2-.8-.7-.9-1.5,1.8-1.4.5-2.1,2.5-3.1,1.5-1.3.3-3.4-.6-.1,3.4,2.2,2.4.8,2.3.8.9.1,2.6-.7,1.4v1.9l1.8,1.2v1.7l-1.1.1v2.5l-.6,1.3.4,4.3,2.4,3.8.7.6,3,.2,1.8-2.1.3-3,1.2.6,1.5-.3,2.9,1.2.9-.4.6-2.9.6-11.5-.8-2.8,1.3-2Zm5.8-36.7-.4.6-2.9.2,1.1,1.1,2.5-.5Zm104.8,41.1-1.8-2.4-4-3-1.1-1.4-6.4-2.9-2.7-2.1-2.2-1.4-7.2-2.6-7.1-3.2-1.5-1.2v-1.7l2.9-2.1.4-.9-.4-1.2-2.6-.7-7,.4-3-.3-4-1.9-4.3-2.9-4.8-4.1-2.3-2.9-1.3-2.5-1.8-5.1-1.6-3.2-1.8-2.8-.7-.7-2.8-1.1-5.1-3.7-2.7-1.1-2.7-2.2-1.2-1.3-1.4-3.2-.9-4.5.3-1.7,1.3.5.9-.7.7-1.9-1.7-1.1-1.5-2.6-.8-.6.4-3.1,1-.7,1.8.4,3.2-1.2,1.7-1.1,1.5-.4,2.1-2,3.2.9,2-.9,2,2.2-.7.6,1.5-.1-.2-1.3-1.5-1.3-1.9-1.1.4-2-1.3-.2-.3-1,1.6-2.1-2.3-.7-.7-1.4,3.3-2.3.2-.9-2.6-.5-4-.3-8.6-1.5-1.1-.5-3.1-3.5v-2.3l-4.7,1.5-3.1-.2-3.4.3-1.4.6-1.2,2.2-1.1.4-2.1-.4-.9-.8-3-.3-.5,3.1.5,1.8-1.9-.2-1-.9-1.3.3-.6,1.8,1.5,3.5-1.2.3-1.4-1.9-.7-.1-2.9,1.1-2-.8-.8-2.1-2,.1v2.9l-.5,1.1-2.2,2.6-.2,1,.7,1.7-1.2.7-.9-1.4-1.3-1.2.4-1.2-2.2-.6-2.4-2-.2-2.5-1-.6-3.4,2.9.6,1.5-1.6,2.2-2.4,1.4-3.1-.8-2.6,1-2.4.5-1.4-.7-2.6,1.7.1,1.6.9.6,1.7,2.6,1.8,1.6-.8,2.5-1.2.3-1.7,1.3-1.9-.2-.8.4,1.5,3.1,3.2,1.4.5,1.7-.8.7-1.4,2.5.7,1.3.1,1.4.9.9,5.1,2.4,3.3-.6.3,2-2.1,2.6.2,1.5,3-.5,3.4-1.2.9-.6,2.5-3.4,3.1-3.2,2.6-1.2,2.1.2,3.4,1.3,1.1.1,5.7,3.4,4,1.2L903,573l.8,1.5,1.2,5.3,1.7,2.2,1.2,3.5-.1,2.7,2.5.5,1.3,2.1,1.7,1,3.1,3.1.3,1.3,4,1.4,1.8,1.2,2.3,3.2,3.5,2.2,1.8,2,5.7,5.3,2.8.9,3.2,2.6,2-.7,3.9.9,2.3-.1,1.7,1.7,2.6,4,.7.7,2.7.2,2,1.3.1,1.5,1.2.1,2.6-.6,2,1.7,1.1,2.8-.6,1.1.3,1.1,4.6,2.6,3.7.3,1.4,1,1.1,1.8,1.4,3.8,2.4,4.3,1.4,5.1,1.4,1.3v2.9l-2.8.7-1.1,1.6.5,2-.9,2.8-1.6.7-.6,1.3.1,2.2,1.1,1.5h4.3l1-2.3,1.6-2.5,3.3-2.5.3-1.4-.5-3.4.7-1.4,1.7-1.4,2.5-.7,1.9.3.9-1.3-.9-2.1-.3-3.8-1.6-1.6L991,641l-2.9-1-1.1-1.7v-1.7l1.5-4.3,1.5-3,1.4-2,1.3-.9,2.3.4.7,1.4,2.9,1.3,5,.5,3.1,5.4,1.9,1.3,1.6.5,1.5-4.4Z" transform="translate(-703.3 -309.89)"/><path id="LI" class="cls-2" d="M893.2,525.14,892,525l-.1-1.7.5-1.5,1.1,2.5-.3.8Z" transform="translate(-703.3 -309.89)"/><path id="LT" class="cls-2" d="M1081.7,395.14v1.8l-.7,3.1,3.9,1-1.3,1-.4,1.1-3.6-.1-1,2-.8.6-2.6.6-1.1,3,.4,2.3-1,1.5-.5,2,1.9.5.9,1.1v1l-2,.2-1.7-2.3-1,.7-2.1.5-1.4,1.2-2-.2-.8,2.6-1.8-.1-3.3,1.3-1.6-.9-3.7.3-1.6.3-2.9-.4-.8-3-1.1-.9-4.5-2.2-2.3-.7-.6.6-1.3-2v-2.1l1-3.1-1.3-1.3-1.4-.6-.9-1.3-5.7-.1-2.4-.6-3.9-1.4-2-1.2-1.8.2-.6-1.2.2-1.6-1.1-2.4-1.6-2.9-.7-3.8,2.8-1.7,3.6-1.9,4.7-1.4,5.9.5,4.3-.1,1,.9,1.6-.7,4.9.5,2.3.1,3.7.9,4.6-.4,1.7-1.3,2.3-.2,2.4,2.9,6.1,1,.9.4,5.4,3.1,2.6,2.1,1.5.7,2.3.5Z" transform="translate(-703.3 -309.89)"/><path id="LU" class="cls-2" d="M849.2,478.34l.3,2.2,1.5,1.6,2.8,1.1v1.4l-.9.9-.6,3-1.3-.7-2,.6h-1.4l-2.1-1.2,1.1-1.7-2-2.4.2-1.7,1.4-2.5,1.3-1.3Z" transform="translate(-703.3 -309.89)"/><path id="LV" class="cls-2" d="M1085.4,367.84l1.9.3.5,1.1,3.2,1.7.7,2.2-.8,1.6-.3,3.1,1.8-.3,1,.6.3,1.2,1.7,2.1,1.3.8,1.9,4.2-.3,1.7-1.3.2-1.4.8-2.5,2.4-.4,1.7-3.1-.1-3-.4-1.1.3-1.2,1.5-2.6.6-2.3-.5-1.5-.7-2.6-2.1-5.4-3.1-.9-.4-6.1-1-2.4-2.9-2.3.2-1.7,1.3-4.6.4-3.7-.9-2.3-.1-4.9-.5-1.6.7-1-.9-4.3.1-5.9-.5-4.7,1.4-3.6,1.9-2.8,1.7-.8-2.8-.6-5.5.1-2.8,1.9-1.6.8-1.2.6-4.5,2.5-3.6,2.4-.4,3.1-1,3.5-.9,1.4,1.9,4.9,3,1.2,1,2.3,3.4,4.4,1.8,3.1-.6,3.6-2.4,1-1.1v-1.1l-1.2-4.7-1.1-2,.1-1.3,8.4-2.8,1.5,1,1.1-.7,5.6,2.5,2.3.5.6.7,3.5,2.7,2.8,1.1,4-1.2,3.4,1,1.9.2Z" transform="translate(-703.3 -309.89)"/><path id="MD" class="cls-2" d="M1125.2,549.84l-2-2.3.9-.7-1.4-5-.1-2.6.9-4.8-.5-2.9-1.4-2.3-1.4-2.9-3-2.1-1.3-1.7-2.1-1.8-2.5-3.2-1.5-1.3-3-4.9-2.5-3-2.5-1.6h-2.1l.2-.6,2.3-1.4.7.2,4,.1,1.2-1,.8.3,1.6-1,3.5,1,3.6,2.4,2.5.3.6,1.2,5.6.6,1.4,1.9,1.4,1,1.4-.7,1.4,1.4.6,2.3-.6,3.1.6,1.2,2.3,1.2,2.9,2v2.4l.9,1.9,2,1.3,2.1.8,1,1.6.2,2.9,2.9,1.7-.6.7-2.9.4-1.2-1.3-1.6.6-2.1-.8-1.9-.2-2.1-1-2.5,1.6.5,2.1,1,1.7-.4,2-2.3,1.7v1.3l-2.5,2.9.5,1.4-.4,1-2,.2-1.1.7Z" transform="translate(-703.3 -309.89)"/><path id="MK" class="cls-2" d="M1057.6,598.44l3.3,3.2,3.4,1.8,1.7,3.3.9,1-.5,1.7v4.2l-2,.3-.2,2.1-2.9,1-3.3-.6-3,.4-.8.3-1.7,2.5-2.4,1.3-2.3-.6-.9.6-4.6.3-1.3-1.1-1.6.2-1.3-2.4-1.2-1.1-1.2-2.2-.2-1.9-.7-2,.8-.8-.3-2.1.5-2.6,1.7.3.5-.8.2-2.6,3.4-1.5,1-.1,1.6,1.2,1.5-1.9,2.1-.4,2.2-.3,2-.9,1.9.3,2.3-.8,1.4.7Z" transform="translate(-703.3 -309.89)"/><path id="ME" class="cls-2" d="M1016.2,579.54l.4,1.2,2.6,1.7,1.9,2,3,1.6,2.1.5,5.3,2.9.1,1-1.6.4-.2.7-2,.4.9,1.5-.2,1.3-3.4,1.2-.8-2.1-1.1-.3-3.2,5.3-.8.3-2.5-.2,1.6,1.9,1.7.8.3.6v3.1l-2.1-1.2-.9-1.8-3.1-2.9-3.5-2,.1-1-1.6.1-1.2-1.9,1.1-1,.1-.8-1.1-1.6-.6-3,.5-.7,1.7-.2-.1-1.5.5-1.7,2-1.7,2.3-.2L1013,580l3.2-.5Z" transform="translate(-703.3 -309.89)"/><polygon class="cls-2" points="128.51 17.65 127.41 15.65 126.71 16.15 126.91 18.15 127.61 19.25 128.61 19.35 128.51 17.65"/><polygon class="cls-2" points="126.11 4.95 125.21 5.25 124.91 6.55 126.71 6.55 126.11 4.95"/><polygon class="cls-2" points="211.85 1.75 127.03 1.75 127.31 4.15 128.21 5.05 130.71 6.25 132.11 6.35 134.21 5.65 138.91 5.35 142.31 5.85 143.41 5.55 143.91 4.25 145.21 4.85 148.41 5.45 152.01 5.15 151.91 3.75 154.91 5.25 149.51 6.45 148.81 6.95 146.61 5.75 144.71 5.85 142.71 6.55 141.31 6.65 137.91 6.05 132.71 6.95 130.31 7.15 128.21 6.75 127.31 7.25 127.41 9.75 127.91 11.95 130.11 13.95 129.01 15.75 129.61 17.65 130.81 19.15 132.21 19.85 134.91 19.85 133.11 21.05 129.91 20.85 130.21 22.45 129.11 24.45 129.11 26.85 130.51 26.55 133.31 24.65 133.91 23.45 135.41 21.95 137.41 21.05 137.61 19.95 140.31 17.15 142.31 16.05 147.31 14.95 145.81 16.85 144.21 16.25 142.41 17.05 140.21 18.75 139.91 20.25 138.71 21.65 135.91 24.05 137.11 25.05 141.21 24.55 138.81 25.75 137.51 25.95 136.51 26.95 133.11 26.25 131.31 27.25 130.11 29.95 129.61 33.25 130.11 34.15 132.21 34.15 133.31 33.55 134.41 32.35 137.51 31.45 140.91 29.45 141.31 30.15 138.71 32.25 138.91 33.85 138.11 35.65 140.51 37.25 140.61 38.45 137.81 37.15 135.11 36.35 134.51 36.85 134.21 40.45 135.01 42.05 136.41 43.45 139.51 44.75 140.41 45.55 144.21 47.15 147.31 47.25 146.61 49.65 148.21 50.05 149.01 48.85 150.21 48.95 150.21 50.05 151.31 50.75 153.41 50.35 156.51 50.75 161.11 49.85 162.91 48.95 164.31 48.95 165.91 47.75 168.21 46.65 172.51 42.75 175.21 41.25 175.81 40.35 177.51 39.35 176.51 38.65 179.91 37.35 180.71 36.35 181.81 36.15 182.41 37.15 183.71 36.95 185.01 36.15 186.11 36.35 188.61 32.45 188.61 30.15 188.01 29.05 190.51 27.85 190.91 30.95 193.21 33.85 199.21 35.05 199.61 36.05 200.61 37.85 202.51 37.65 203.21 36.25 203.81 32.35 202.21 27.95 203.71 26.45 204.61 24.05 207.21 23.35 208.51 22.55 210.41 20.55 210.51 17.75 211.11 15.65 210.61 14.25 207.51 9.35 207.21 7.75 209.01 7.15 211.41 7.15 212.71 4.65 213.11 2.75 211.85 1.75"/><path id="PL" class="cls-2" d="M1040.6,414.64l.6-.6,2.3.7,4.5,2.2,1.1.9.8,3,2.1,5.1,2.9,4.9,1.7,3.6.9,3.9-.6,1.6-4,1.7-.8.5-2,2.7V446l3.3,1.3,1.8,1,.8,1-.2,2.4.4,1.1-.8,1.5.1,1.3,1,1.6,1.2,1.8v1.3l2.7,2.8,1.9,2.8,1.4,1-1.2,1.3,1.8,2.6.1,1.3-1.2,1.8-3,.5-4.8,4.6-2.4,2.7-3.4,4.4-.6,1,1.5,3.8-.1,1.8,1.9,1.4-.4.9-3.3-.7-.9-.2-5.7-1.9-.8-1.4-1-.7-3.1-1-3.6-.3-3.2.2-1.4,1.5-1.8-.1-2.4-1-3,.1-2.3,1-1.1,2.1-1.7-.6-1.4.4-.6-2.7-1.4-.4-3-3-2.2,1.3-1,1.7h-2.2l-.5-1.5-1.3-.2-.5-1.6-2.8-2.2-.5-1.8-2.7-.8-.5.2-3.5-1.8-1.8,1-1-.6-2.7-2.3,1.4-.5v-1.6l-3.6.7-3.3-1.9-2.2-.6H978l1.7,2.4-3.5,2.5-1-.4-1.5-1.9-2-1.8-1.6-.9,1.6-1.2.7-1.1-1.8-1.2-3.2.7-.8-.9-2.7-1.1-4.6-1.1-1-1.1-.3-1.1-3.3-.8.1,1.9-2.1.4,1.6-3.6.4-2.3-1.6-3.2-2.2-.9v-1.6l-1.9-3.1.8-1.1.7-2.6-.8-1.9-2-2.3.6-2.6-1.4-1.7-3.3-2.1-1.6-1.4.7-1.6,1.9-1.8.3-2.7-1.8-4.1-.7-2.6,2.8.9.7-.5-.1-1.8-4.1-.7-.1-1.2,2,.4,3.8-1.4,6.5-1.8,6.9-1.7,3.3-.5,2-2.2,1.9-1.7,3.8-.7,1.3-.8,2.8-1.2,6.6-1.2,5.5-.4,5.4,2.3-.9.3-3-1.2,2.2,3.5,1.1,1.2,2,.9,1.7.3,4.9-.5,2.2-1.1.5.1,6.6.4,22.9.9,7,.1Z" transform="translate(-703.3 -309.89)"/><path id="RO" class="cls-2" d="M1125.2,549.84l1.5,1.6,1.8.9,4,.9.6-1.2.9.3,1.6-.5,2.2-1.3,2.2-.2,2.2.7,1.9,1.8-.2,4.3-.7,2.1-6.2,1.3.4-.6-.7-2-1-1-.9,1.1.6,1.7-.7,1.4-.2,2.4.6.9-1.6,2-.5,1.3.8,4.8-.4,3.7h-2l-2.6-.5-2.2-.7-2.5-2.6-1.7.5-.9-.6-3.2-.4-4.5-2.3-2.9.4-4.4.9-3.2,1.2-3.3,2.1-1.2,1.6-1.6.9-2.3.6-4.2-.2-9.4-1.7-2.5.5-3.5-.4-5.3-1-3.9-.3-3.7.6-.9-1.8,1.8-2-4.3-2.5-.8-1.2-1.6-.9-.5-1.7,2.5-1.8-3-1.6-1.7.5-1.7,1.8-1.3.2-1-1.2-1.5-.7-3.5-.7-1.5-1.2-2.1-.6.2-.6,1.8-.8-2.3-1.1,1.5-2-.9-1.1-2.6-.8-3.8-1.9-2.2-1.8-.4-4.1-.8.2-1.8-2-2.9-1.7-1.7-2,3.2-.9,1.4.5,2.5-2,2.6.3,1.3-.9,1.5-4.7,2.1-1.5-.2-1.3,1.6-2.7v-1.2l1.4-1.5.7-2.5,1.4-1.4-.1-1.7,1.2-1,1.9-2.4,4.6-1.1,2.2-2.3,2.1-.9.9-1.2h.7l2.7,1.5,2.7-.1,6.9,1.4,3.6-.7,1.2.3,4.3,3.3,2.1-.5,1-1.2,3.4-1.3,8.4-1.2,1.1-1.9.2-1.4,3.7-.8h2.1l2.5,1.6,2.5,3,3,4.9,1.5,1.3,2.5,3.2,2.1,1.8,1.3,1.7,3,2.1,1.4,2.9,1.4,2.3.5,2.9-.9,4.8.1,2.6,1.4,5-.9.7,2,2.3Z" transform="translate(-703.3 -309.89)"/><path id="RS" class="cls-2" d="M1025.4,539.74l1.7,2,2.9,1.7,1.8,2,.8-.2.4,4.1,2.2,1.8,3.8,1.9,2.6.8.9,1.1-1.5,2,2.3,1.1-1.8.8-.2.6,2.1.6,1.5,1.2,3.5.7,1.5.7,1,1.2,1.3-.2,1.7-1.8,1.7-.5,3,1.6-2.5,1.8.5,1.7,1.6.9.8,1.2-.9.7-.2,1.9-2.1,1-.4,2.3.6,2.4,2.4,3.9,2.9,1.5,1.3,1.6,1.6,1-.3,1.4-1.6,1.7-1.1,1.6-1.8.1-1.1.6v3.3l1.4,2.9-1.1,1.7-1,.3-1.4-.7-2.3.8-1.9-.3-2,.9-2.2.3-.6-1.3,1-.9,1.2-3.2.2-1.2-4.7-1.2v-1.3l-2.2-1.2-.2-.7-2.3-2.1-2.8-1.3-1.1-1.3-1.7.9.6,1.6-.4,1-1.7,1.3v1.4l-1.5.5-.1-1-5.3-2.9-2.1-.5-3-1.6-1.9-2-2.6-1.7-.4-1.2.7-.8,2.5.3.2-2.2-3.2-3.7.5-.8,3.1.1.3-.8-3.3-2.9-2.4-1.2-.5-.8.1-2.6,1.6-2.7.5-2.5-1.5-.8-2.8.7,1-1.6-.7-2.6,1.7-.4,2.3-.1-.9-1.5-3-1-1.2-1,.4-2-1.3-.4-.2-1.6-1.6-2.7.7-1.5,2.1-1.3,1.6.5,2.2-1,1.5-1.6,1-.3,2.9.4,1.1-.2,2.8.3,1,.5Z" transform="translate(-703.3 -309.89)"/><path id="SK" class="cls-2" d="M1048.6,494.34l-1.5,3-.8,2.9-1.6,1.7.1,2.5-4.3,1.1-.6-.2-2.2-2.2-1.4-.9-4.6.7-2.5-.6-2.7-.1-1.8.4-1.6,3.5-5,2.5-3.5-1.4-.7.2-1,1.5-2.4.6-4.3.4-1.4.7-.4,1,.5,1.3-.6,1-7,.4-4.7-.1-1.6-.7-4.2-2.7-2.1-.3-2.3-2.9-1.6-2.9-.1-.8.9-2.4,1.1-2.8,1.4-1.2,3.6.5,1.7-.2,1.5-.7,2.1-1.9,1.6-.8.7-3,2.3-1.2.6-.8,2-1.5,2.8-.3,1.3.2.5,1.5h2.2l1-1.7,2.2-1.3,3,3,1.4.4.6,2.7,1.4-.4,1.7.6,1.1-2.1,2.3-1,3-.1,2.4,1,1.8.1,1.4-1.5,3.2-.2,3.6.3,3.1,1,1,.7.8,1.4,5.7,1.9.9.2Z" transform="translate(-703.3 -309.89)"/><path id="SI" class="cls-2" d="M979,533.74l-2.5-.6-.9.8v1.7h-2l-.7,1-4.4,1.7-.4,1.4.9.9.2,2.2-.4,1.1-2.1.6-2.1,1,1,1.1-.7.7.8,2.3-1.2.4-1.6-.2-2-.7-1.3.5-1.5-.7-2.6-2.1-1.2,2.2-.6.3-3.6.1-1.1-.5-1.4,1.3-3.3-.8-.5-.6,1.7-1.1,1.5-.1-.2-1.3-1.5-1.3-1.9-1.1.4-2-1.3-.2-.3-1,1.6-2.1-2.3-.7-.7-1.4,3.3-2.3.2-.9,5,.9,5,.7,3-1.2,1-1.3,1.9-.7,2.6-.2,2.8.2,2.3-1.1,1.6-.2,2.4.5.1-1.9,1.3-.9,2.4.1,1.4,3.3,1.9,2.2Z" transform="translate(-703.3 -309.89)"/><path id="SE" class="cls-2" d="M968.81,370.54l-2.7,6.5-1,.3-2,4.6.3,3.8,1.5.3,2-7.6.6-.5.3-2.2,1.5-3.2Zm19.6-5.3,1.4-.5,1.3-1.4-1.5-.9h-1.3l-3.3,1-1.3,1.1-2.7,2.9.6,3.2-.4.9,1.4,2.1.9.7-1.2,2.4,2.1-.9.3-1.6,1.5-1.6,1.8-.6.7-1.8,1.3-.5-1.5-1.2Zm-3-32.4-1.9-2-2.9-1v-1.5l-1.9-1.2-1.7-.3-2.9-2.2-.8-1.1-3.1.8-1.4-1.6-2.1.1-1.3-.9.1-1.6-1.1-2-.8-4.2-.7-1.9.05-.6H915.15l1.26,1-.4,1.9-1.3,2.5h-2.4l-1.8.6.3,1.6,3.1,4.9.5,1.4-.6,2.1-.1,2.8-1.9,2-1.3.8-2.6.7-.9,2.4-1.5,1.5,1.6,4.4-.6,3.9-.7,1.4-1.9.2-1-1.8-1.1-.8-1.1.2-.5,1.2.9,1.8.3,2.7.8,3,.8,1.4,1.2.6.4,3.2,1.3,1.7,1.8.4.6,3.7,1.7.6,1.2,3.7,1.1-.3,1.3,3.2,3.5,4.7,1.8,1.2,1.9,2.4,1.9.6.6,1.5-.7,1-2.2.1,1.8,2.6-1,.5-2.4-.9,1.2,2.3,3.1,3.8,1.3,1.1.6,1.7-.2,3.1-.5,1,5.1,1,5.5-1.2,3.2.5h1.1l1.7-2-1.9-3v-1.5l2-2.1,1.7-1.1,2.3.2-.7-1.4.8-.4,3-.2,3.2.3,3.4-.5,2.4.9,1.8-1.4,1.3-4.1,1.9-3.1,1.5-5.3-.9-2.9,1.5-2.4.1-1-1-2.1-.6-2.5.3-1.4,1.1-.1-.4-3.5.7-.8-1.7-3.2,3-.9-1.7-1.3-3.6-.4-.9.2-1-.9,3.7.1H966l1.3-.8,2.6-1,1.1-1.2,4-1.4,2.8-1.5,2-.7.8-1,.3-1.6,2.2-.5-1.4-1.2-2.6.6-1.4.7-2-.6,2.1-1,.6.1,3.8-2.1,1.3-1.3,2.6-1.5.1-1Z" transform="translate(-703.3 -309.89)"/><path id="TR" class="cls-2" d="M1106.41,630.74l-2.2.6.1,1.5,2.9-.5Zm54.5-15-5.3.8-7.7-1.2-2.2.1-.6.7-.3,2.6,1,1.1,2,1.4,1.4.6,5.7.8-3.7.8-6.8,1.2-2,1.5,3.6,1.7-.5.5h-3.4l-1.4.2-4.4-.4-4.1.5.1-1.8-1.5-.4-1.7.5,1.6,1.5-1.4.9-3.2.1-1.9-.9-.8-1.2h-2.1l-1.3.9h-3.5l-3,3.1-1.7,2.7-1.7.6-.2,1.8.5,3.4-.6,1.3.3,1.6,3.1-.2,1.6-.6,4.3-.7,1.2.7-2.3,2.8-.3.8,2.5,2.7-.2,2.4,2.7,1.2-1.2,1.7-1.8,1.1,1.2,2.3,1.1,1.2,2.5,1.1-2.9.6-3.6-.7-.3-2.2-1-1.1-1.8.1.1,1,.9,1.9-1,1.1-.5,1.4.6.6,3.3,1.4,1.2-.7,1.7.9,1.1,1.3.8-.1,3.9,1.3.4,1.5-.1,2.5-1.9.5,2,3.1.3,1.6,4.2,2.2.3,1.3-3.6,1.4.4,1.6,1-.7,4.2.2,6-.3,1.2.5-1.7,1.2-.9,1.3-.9.4-3.9.4-2,.6,1,1,1.5.1,1.8-1,3.7-.2-.8,1.3,1.3.4,1-.7,1.2-1.9,2.4.1,3.2,1.6,2.3.4,1.8-.3,1.3,2.7.6,2,2.9,2.1,4.6,1.6,1.2-.1.36-.13V616.47Zm-17.8-.8-8.1-3.3-2-1.4-2.3-2.7-1-2,.1-1.8-1.7-.2-.9.4h-1.8l-1.5.6-3.4-2.5-3.5.3-1.5,1.1-3.4.4-1,2.2-1.9.3-.3,1.4,1.2.3,2.3,1.5.9,3.1-3.4,2.5.5,4.4-2.5,3.2-.8.4,1,1.8h3.3l5.4-.3-.7,1.3-3.3,1.6-2.3,2,.3,1.7-.5,2,1.5-.7,1.5-2.2,3.5-3.7,2.5-1,3.3-1.9,2-2.4.6-2.1,3.1-.6,2.3.4,2.9-1.4,1.6.1,6.4,1.5,2.1-.5.9-3.5Z" transform="translate(-703.3 -309.89)"/><path id="UA" class="cls-2" d="M1160.21,445.24l-1.6.6-.5,2.4-1.8.9-1.7.1-2.6-.8-5-.1-1.4.8-1.7-.4-1.1.5-2.2,2.3-.8,1.2-1,3.3,1.8,3.6-.8,1.4-2.7-.9-.5-1.2-2-1.1-7.1.6-2.3.8-.6-.5-2.5-3-3.8,1.6-.6,1.1-1-.3-.8-1.3-5.1-1-1.9.7-1.9-.5-1.2,1.7-.8-1.4-1.1-.4-3,.1-1-.3-1.8-2.1h-2.3l-6.1-.9-6.5-1.5-7.8-.4-2.4.1-2.3.5-5.9.5-.8,1.4-1.6,1.6-1.9,1.2-1.1-.5-1.9-.3-1.1.5.1,1.4,1.2,1.8v1.3l2.7,2.8,1.9,2.8,1.4,1-1.2,1.3,1.8,2.6.1,1.3-1.2,1.8-3,.5-4.8,4.6-2.4,2.7-3.4,4.4-.6,1,1.5,3.8-.1,1.8,1.9,1.4-.4.9-3.3-.7-1.5,3-.8,2.9-1.6,1.7.1,2.5h1.5l1.4,2.3,2.2.8.9,1.1,2.3.4.9.7.7,1.7,2.1-.9.9-1.2h.7l2.7,1.5,2.7-.1,6.9,1.4,3.6-.7,1.2.3,4.3,3.3,2.1-.5,1-1.2,3.4-1.3,8.4-1.2,1.1-1.9.2-1.4,3.7-.8.2-.6,2.3-1.4.7.2,4,.1,1.2-1,.8.3,1.6-1,3.5,1,3.6,2.4,2.5.3.6,1.2,5.6.6,1.4,1.9,1.4,1,1.4-.7,1.4,1.4.6,2.3-.6,3.1.6,1.2,2.3,1.2,2.9,2v2.4l.9,1.9,2,1.3,2.1.8,1,1.6.2,2.9,2.9,1.7-.6.7-2.9.4-1.2-1.3-1.6.6-2.1-.8-1.9-.2-2.1-1-2.5,1.6.5,2.1,1,1.7-.4,2-2.3,1.7v1.3l-2.5,2.9.5,1.4-.4,1-2,.2-1.1.7,1.5,1.6,1.8.9,4,.9.6-1.2.9.3,1.6-.5,2.2-1.3,2.2-.2,2.2.7,1.9,1.8.1-1.3-1.1-3.1-1-.9-.2-1.3.9-1.1,1.7.4,4.6-2.1,3.1-3.7,2-4,.4-2.9,4.1-1.1,2.3.2,2.36-.79V446Z" transform="translate(-703.3 -309.89)"/><path id="XK" class="cls-2" d="M1047.8,599.44l-2.1.4-1.5,1.9-1.6-1.2-1,.1-3.4,1.5-.2,2.6-.5.8-1.7-.3-.1-2.2-1.4-3.2-1.9-1.3-1.4-.5-2-2.9-.5-.4.2-1.3-.9-1.5,2-.4.2-.7,1.6-.4,1.5-.5v-1.4l1.7-1.3.4-1-.6-1.6,1.7-.9,1.1,1.3,2.8,1.3,2.3,2.1.2.7,2.2,1.2v1.3l4.7,1.2-.2,1.2-1.2,3.2-1,.9.6,1.3Z" transform="translate(-703.3 -309.89)"/><path id="NL" class="cls-2" d="M824.61,459.54l-1.2-.5-1.5.6-3.5-.7-2.8.4.3,1.3,1.2.7,1.2-.6,3.9,1.1,3.2-1.5.6-1.2Zm-2-5.7-1.6.7,1.6,1,1.5-.3Zm21.5-12.4-1.7-.4-3.2,1.5-2.4,1.7.9.7,3,.4,2.8-1.9,1.1-1.1Zm-12.7-7.9.6,1.4,1.1-1.1v-1.7Zm12.7,7.9-1.7-.4-3.2,1.5-2.4,1.7.9.7,3,.4,2.8-1.9,1.1-1.1Zm0,0-1.7-.4-3.2,1.5-2.4,1.7.9.7,3,.4,2.8-1.9,1.1-1.1Zm0,0-1.7-.4-3.2,1.5-2.4,1.7.9.7,3,.4,2.8-1.9,1.1-1.1Zm0,0-1.7-.4-3.2,1.5-2.4,1.7.9.7,3,.4,2.8-1.9,1.1-1.1Zm0,0-1.7-.4-3.2,1.5-2.4,1.7.9.7,3,.4,2.8-1.9,1.1-1.1Zm0,0-1.7-.4-3.2,1.5-2.4,1.7.9.7,3,.4,2.8-1.9,1.1-1.1Zm0,0-1.7-.4-3.2,1.5-2.4,1.7.9.7,3,.4,2.8-1.9,1.1-1.1Zm0,0-1.7-.4-3.2,1.5-2.4,1.7.9.7,3,.4,2.8-1.9,1.1-1.1Zm0,0-1.7-.4-3.2,1.5-2.4,1.7.9.7,3,.4,2.8-1.9,1.1-1.1Zm0,0-1.7-.4-3.2,1.5-2.4,1.7.9.7,3,.4,2.8-1.9,1.1-1.1Zm14.3-1,1.1-3.8.7-1.7-.1-4.3-2.7-.6-1.8-1.7-8.9.5-2.1.4-4,1.6-1,.9-1,1.7-3.4,2-2,.8-1.4-.5-1,2-1.2,5.5-.9,2-3.2,3.8-1.4,1-1.6,2.7,2.3,2.1.6,1-1.2.9-4-.7-2.3.1-1.2.7,1.7,1.3,2.8.7,2.2-.5,2.6.8,2.1.3-.2-.9,1.4-.7,1.5.8,1.5-1,1.1,1.3,2.5-.8.5,1.6,2.6,1.4,1.9-.4,1.7,1.3,2.6,1.1-1,2.9-1.1,1.3.7,1.1,2.4.3,1.2.1.6-2.4-1.9-1.2.5-.8,2.2-1.6-.7-1.2,1.3-2.8v-1.2l-3.1-4.1.7-1.1,1.8-.7,2.3.8,4.5-1.3.7-1-1-.9.3-.9,2.6-1.6.6-2.6-.8-1-2.6-.3-.7-1,.6-1.6Zm-14.3,3.1-3.4,2.6-5.4-1.4.2-1.6-.1-2.6,2.1-.7v-.9l-1.6-1.6-.6-1.3,2.3-1.5,1.5-.3.4,2.5,2.8.4-.4,2.5.5.8,2.1.3.5,1.9Zm-1.7-2.5-3.2,1.5-2.4,1.7.9.7,3,.4,2.8-1.9,1.1-1.1-.5-.9Zm1.7.4-1.7-.4-3.2,1.5-2.4,1.7.9.7,3,.4,2.8-1.9,1.1-1.1Zm0,0-1.7-.4-3.2,1.5-2.4,1.7.9.7,3,.4,2.8-1.9,1.1-1.1Zm0,0-1.7-.4-3.2,1.5-2.4,1.7.9.7,3,.4,2.8-1.9,1.1-1.1Zm0,0-1.7-.4-3.2,1.5-2.4,1.7.9.7,3,.4,2.8-1.9,1.1-1.1Zm0,0-1.7-.4-3.2,1.5-2.4,1.7.9.7,3,.4,2.8-1.9,1.1-1.1Zm0,0-1.7-.4-3.2,1.5-2.4,1.7.9.7,3,.4,2.8-1.9,1.1-1.1Zm0,0-1.7-.4-3.2,1.5-2.4,1.7.9.7,3,.4,2.8-1.9,1.1-1.1Zm0,0-1.7-.4-3.2,1.5-2.4,1.7.9.7,3,.4,2.8-1.9,1.1-1.1Zm0,0-1.7-.4-3.2,1.5-2.4,1.7.9.7,3,.4,2.8-1.9,1.1-1.1Z" transform="translate(-703.3 -309.89)"/><path id="ES" class="cls-2" d="M795.71,648.14l-2.7.7-1.2,1.6v1.5l2,.4.4-1,2.3-1.9Zm24.1-10-1.4-.4-1.3.5-1.2-.5.6-1.6-.5-1.2-3.2.9-1.5.9-5.3,3.7.3,1.2,1.4,1,1.7-1.3,1.4.7.3,1.6,4,1.7,2.1-1.3.6-1.4,2.2-3.5Zm9.8-4.2-2.1-.7-2.6.2-.1,1.4,1.6.4,3.9,1.9.3-.2.2-1.2Zm-14.2-33.2.2-1.4,1.8-.5-1.2-2.2-3.1-.6-3.8,1.1-1.2.8-4.7-1.2-2.1,1.1-1.3-1.2-2.8-1.2-2.8,1.1-.7-.4V594l-1.1-1.5-1.7-.3-2.5-1-4-1.1-.8,2.4h-4.7l-.7-.4-3.1.4-3.2-2.1-3.6.4-2.2-2.1-2.2-.2-4.4-1.7-1.8.4.3-3.2-4.3-1.3-.5-1.3-2.5,1-2.6.3-1.8-.1-3.3-1.3-3.4-.6-2.1,1.3-4.7-1.3-2.3-1-2.1.6-1.5-.3-1.6.5-3.7.8h-2.7l-7.2-1.4-2.6-.8-4.4-.4-.34-.15V695.93l.24-.09.3-1.2,1,.3.5-1.6,2.1-3,3.1-1.2H715l4-3.4,7-.6,3.2.3,1.9.5,2.3-.8,4.6.2,1.5.5,1.5-.5,1-1,1.9-.3,1.9.1,1.5,1.2,1-.5,2.2-2.6,1.9-4.5,2-2.4,4.1-2.8,6.5-.3,1.3-.8-1.3-1.2,1.8-4.4.5-2.5,1.3-.8.3-1.8,1.8-1.9,4.3-2.3,2.4-1.7.8-1-.6-1-2.4-1.1L773,649l-1.6-5.5.1-1.6,3.2-5.6,1.5-2.1,1.5-1.5,2.6-3.3,2.9-4.6h.9l2.5-1.1.4-.6-1.2-1.2-1.1-.3,4.1-3.8,2.2-.5,4.5-1.5,6.6-1.5,2.9-2.7,8.7-4.7,3-2.8-.1-2.1Z" transform="translate(-703.3 -309.89)"/><path id="FR" class="cls-2" d="M896.31,601.24l-.6-6.5-1-1.7.3-2.3-.4-2.7-1.3-.5-.3,1.1.2,2.7-.6,1.2-1.9-.6-1.2,1.1-2.8.8-1.2.9-.9,1.9-.1,1.3.6.9-1.3,1.1.3.9,1.5,1v.8l-1,1.3,1.6.5.2.9L886,607l2.2.9-1,1.8,1.2,1.1,3.8,2,.8-1.1,1.6-4.3-.1-3Zm-136.5-59.9-1,.5,1.9,2.4.4-1.4ZM871,569.74l-3.3.6-5.1-2.4-.9-.9-.1-1.4-.7-1.3,1.4-2.5.8-.7-.5-1.7-3.2-1.4-1.5-3.1.8-.4,1.9.2,1.7-1.3,1.2-.3.8-2.5-1.8-1.6-1.7-2.6-.9-.6-.1-1.6,2.6-1.7-.9-1.4-2.3-2.3.5-1.7-.8-2.2-2.2-.3-1.9.1-2.3,1.5.5,1.3-2.3,1.6-1.4-.1v-1l1.5-1,.3-1.5-.8-.7,1.1-2.9,3-2.2.5-2.9,2.1-.9,3.8-4,.6-.9-1.3-1.1,1.8-1.4H863l.8.8,2.7-.3.8-1.4,1.5-.7-1.1-1.3v-1.5l.6-2-.2-2.4.3-1.5,1-1.8,1.4-5.5,3.5-3.8-.1-1.3-1.6-.6-4.8-.8-2-1.4-3,.6-2.1-.1-.3-.9-1.4-.4-1.8.7-3.5-4.3-1.4-.1-1.3-.7-2,.6h-1.4l-2.1-1.2-3.4.4-2.8-2.6-3.3-1.5-1.7-.1-.4-2-.6-.6.8-2.7-1.9.6-.5,1.4-1.3.6-2.2.3-2.3-.3-.5-.6.7-1.4-.7-.7.4-1.6-1.6-1.1-3.6-.4-.9.3-.6-2-4.2-1.1-.5-2-1.6-1.8-3.2,1-2.9-2.4v-1.2l-.9-2.2-.9.5-6.4,1.1-2.9,1.6-1,2.2-.3,6.8-.5,1.3-1.2,1.8-2,1.4-3.8,1.3-3.7.7-5.2,2.5-.9,2.2.2.7,1.8.7-3.5,2-1.8.5-4.3-.8-3-.1-2.3-.5h-2.2l-1.1-1.6-.3-2.8-1.3-.4-2.7.6-3.2-.3-.2,1.4,2.1,4.3,1.3,1.7.2,6,1.5,2.5-4.7.2-1-1-1.2,1.7-.9-.9-4.4-.1-3.1,1.7-1.2-1-2.5-2.8-2.7-.8-2.9.4-3,1.6-1.7.2-2.5-.2-5.8,1.4-2.3,1.2-.5,1.4.4,1.3,4-.1-.1,1.2-1.6-.3.2,1.2,2.2.9-.6.7-3.1.6-.6.7,3.1,1.1,1.3,2.2,1.1.3,1.9-.6,2,.1,4.8,1.3.8.7,2.2.4,1.3-.2,1.1,1.1,1.2.3,2.2-.3.2,1.7,2.6-.2,1.6.8-1.3,1.4.3,1.1,1.8.5,3,.2-1.1,1.6,1.4.8.8,1.1-.9,1.8.4,1.7,1.6,1.9,1.7,2.6,4.8,2.6,3,.6.5,5.9.5,1.8-1.8.6.5,1.3,3.6,2.3,1.8,2.3,1.1,4.6-.6-.1-.9-3.4-.8-1-3.1-2.4-.9,3-.5,2.8-.7,7.6,1.1-1.5,1,1.2-1.2.4-1,1.6-1.3,8.3-1.7,7.1-1.9,1.9-2,.5.5,1.3L758,584l-.3,3.2,1.8-.4,4.4,1.7,2.2.2,2.2,2.1,3.6-.4,3.2,2.1,3.1-.4.7.4h4.7l.8-2.4,4,1.1,2.5,1,1.7.3,1.1,1.5.9-.7,2.6.6v1.5l2.8,1.2,1.3,1.2,2.1-1.1,4.7,1.2,1.2-.8,3.8-1.1,3.1.6-1.6-2.5-.7-3.9.1-1.2,2.6-4.3,6.5-4.1,1.6-1.6,1.7-.5,1.4,1.4,5.9,1.8,2,.1,1.5-.7,1.9-.3.8,1.5,2.5.1,1.1,1.8,3.4.8,1.7,1.2h2.8l1.1.4,2.3-1,2.4-.5,2-1.4.7-1.8,1.8-1,3.9-3.4,2.4-1.1.8-.3.6-.3-.2-1.5,2.1-2.6Z" transform="translate(-703.3 -309.89)"/><path id="CY" class="cls-2" d="M1216.91,712.84l-.1.1h.2Zm-.3-.4v.1h-.1v.1h.2v-.1Z" transform="translate(-703.3 -309.89)"/><rect id="_0" data-name="0" class="cls-2" x="70.4" y="147.55"/><rect id="_1" data-name="1" class="cls-2" x="245.9" y="168.75"/><rect id="_2" data-name="2" class="cls-2" x="191.5" y="23.35"/><circle id="ROSSO" class="cls-3" cx="61.57" cy="204.25" r="11"/><circle id="ROSSO-2" data-name="ROSSO" class="cls-3" cx="227.27" cy="265.84" r="16.41"/><circle id="ROSSO-3" data-name="ROSSO" class="cls-3" cx="219.13" cy="137.89" r="8.36"/><circle id="ROSSO-4" data-name="ROSSO" class="cls-3" cx="252.16" cy="355.91" r="5.34"/></svg>