<svg xmlns="http://www.w3.org/2000/svg" xmlns:xlink="http://www.w3.org/1999/xlink" width="1080" zoomAndPan="magnify" viewBox="0 0 810 1439.999935" height="1920" preserveAspectRatio="xMidYMid meet" version="1.0"><defs><clipPath id="46267fcbd8"><path d="M 286.25 514 L 578 514 L 578 597.570312 L 286.25 597.570312 Z M 286.25 514 " clip-rule="nonzero"/></clipPath><clipPath id="a85c3a7356"><path d="M 292 359.070312 L 598 359.070312 L 598 441 L 292 441 Z M 292 359.070312 " clip-rule="nonzero"/></clipPath></defs><g clip-path="url(#46267fcbd8)"><path fill="#cc0b36" d="M 378.289062 517.679688 C 380.847656 517.679688 383.417969 517.753906 385.976562 517.667969 C 393.644531 517.402344 401.105469 518.714844 408.5 520.535156 C 412.652344 521.558594 416.796875 522.601562 420.941406 523.664062 C 421.566406 523.792969 422.199219 523.859375 422.839844 523.855469 C 427.003906 524.070312 431.152344 523.640625 435.296875 523.386719 C 438.972656 523.164062 442.617188 522.441406 446.289062 522.03125 C 447.871094 521.855469 449.464844 521.738281 451.050781 521.566406 C 454.847656 521.144531 458.636719 520.675781 462.417969 520.105469 C 465.757812 519.601562 469.117188 519.242188 472.46875 518.847656 C 475.757812 518.457031 479.050781 518.035156 482.347656 517.769531 C 484.316406 517.613281 486.292969 517.554688 488.265625 517.335938 C 492.125 516.90625 496.003906 516.589844 499.871094 516.226562 C 500.253906 516.191406 500.640625 516.179688 501.023438 516.175781 C 506.261719 516.136719 511.464844 515.609375 516.675781 515.097656 C 519.078125 514.863281 521.511719 514.707031 523.929688 514.558594 C 530.390625 514.15625 536.855469 514.144531 543.3125 514.300781 C 548.148438 514.417969 553.039062 514.640625 557.738281 515.875 C 560.6875 516.617188 563.414062 517.851562 565.917969 519.574219 C 568.425781 521.300781 570.550781 523.410156 572.292969 525.902344 C 573.40625 527.464844 574.445312 529.078125 575.585938 530.621094 C 578.550781 534.632812 578.425781 538.953125 576.859375 543.382812 C 576.460938 544.332031 576.265625 545.320312 576.273438 546.347656 C 576.449219 549.625 575.886719 552.820312 575.300781 556.035156 C 574.855469 558.476562 574.664062 560.960938 574.011719 563.371094 C 572.632812 568.484375 570.722656 573.34375 567.328125 577.476562 C 564.796875 580.554688 561.765625 583.113281 558.523438 585.433594 C 553.140625 589.28125 547.128906 591.710938 540.789062 593.4375 C 536.484375 594.640625 532.113281 595.515625 527.675781 596.066406 C 524.132812 596.484375 520.5625 596.703125 517.003906 597 C 511.050781 597.5 505.101562 597.367188 499.160156 597.21875 C 495.332031 597.125 491.488281 597.113281 487.667969 596.851562 C 483.527344 596.570312 479.367188 596.53125 475.25 596.085938 C 471.253906 595.652344 467.242188 595.472656 463.242188 595.113281 C 460.835938 594.894531 458.394531 594.796875 455.988281 594.566406 C 453.382812 594.3125 450.75 594.441406 448.171875 593.925781 C 447.984375 593.886719 447.792969 593.871094 447.597656 593.878906 C 444.332031 594.015625 441.09375 593.523438 437.835938 593.390625 C 432.796875 593.183594 427.761719 592.929688 422.722656 592.628906 C 418.328125 592.371094 413.925781 592.175781 409.539062 591.847656 C 405.28125 591.527344 401.003906 591.445312 396.765625 590.839844 C 394.9375 590.582031 393.066406 590.574219 391.226562 590.5 C 388.355469 590.382812 385.5 589.929688 382.617188 589.988281 C 380.703125 590.027344 378.824219 589.550781 376.890625 589.585938 C 372.734375 589.660156 368.597656 589.898438 364.46875 590.339844 C 364.277344 590.355469 364.085938 590.363281 363.894531 590.359375 C 354.933594 590.378906 345.984375 590.976562 337.019531 590.8125 C 332.089844 590.71875 327.210938 590.363281 322.390625 589.28125 C 317.542969 588.195312 312.597656 587.523438 307.882812 585.835938 C 303.328125 584.183594 299.21875 581.773438 295.546875 578.605469 C 293.242188 576.648438 291.992188 573.9375 290.546875 571.390625 C 288.871094 568.433594 287.457031 565.34375 286.945312 561.941406 C 286.234375 557.253906 286.695312 552.707031 289.214844 548.605469 C 292.929688 542.554688 297.996094 537.960938 304.214844 534.4375 C 310.421875 530.925781 316.988281 528.242188 323.46875 525.386719 C 329.175781 522.875 335.117188 521.195312 341.292969 520.351562 C 344.886719 519.855469 348.449219 519.128906 352.035156 518.578125 C 353.671875 518.328125 355.332031 518.210938 356.988281 518.101562 C 364.082031 517.621094 371.183594 517.6875 378.289062 517.679688 Z M 345.574219 521.976562 C 342.617188 522.511719 339.585938 522.671875 336.746094 523.851562 L 345.578125 522.605469 C 349.554688 522.023438 353.550781 521.679688 357.566406 521.585938 C 364.34375 521.417969 371.109375 521.632812 377.859375 522.226562 C 381.542969 522.527344 385.222656 522.929688 388.914062 523.160156 C 390.558594 523.265625 392.226562 523.320312 393.871094 523.527344 C 396.714844 523.894531 399.570312 524.121094 402.4375 524.203125 C 405.191406 524.269531 407.949219 524.230469 410.703125 524.234375 C 411.152344 524.234375 411.601562 524.234375 412.050781 524.234375 C 409.175781 523.117188 406.222656 522.28125 403.191406 521.714844 C 398.183594 520.707031 393.160156 519.902344 388.019531 519.976562 C 378.101562 520.117188 368.183594 519.800781 358.269531 520.371094 C 356.105469 520.496094 353.964844 520.808594 351.8125 521.035156 C 349.714844 521.253906 347.664062 521.71875 345.574219 521.972656 Z M 570.132812 566.90625 C 569.625 567.199219 569.199219 567.578125 568.851562 568.046875 C 565.558594 571.542969 561.984375 574.722656 558.128906 577.589844 C 550.558594 583.261719 542.324219 587.695312 533.421875 590.898438 C 529.632812 592.207031 525.769531 593.257812 521.835938 594.042969 C 522.605469 594.269531 523.386719 594.3125 524.175781 594.167969 C 527.953125 593.636719 531.742188 593.191406 535.476562 592.347656 C 544.210938 590.375 552.511719 587.554688 559.582031 581.722656 C 562.625 579.210938 565.429688 576.566406 567.457031 573.199219 C 568.628906 571.257812 569.996094 569.34375 570.167969 566.941406 L 570.324219 566.742188 Z M 293.007812 547.480469 C 292.492188 547.464844 292.390625 547.917969 292.1875 548.207031 C 288.820312 552.972656 288.242188 558.195312 289.734375 563.730469 C 290.625 567.039062 292.316406 569.976562 294.050781 572.890625 C 294.683594 574.003906 295.433594 575.035156 296.300781 575.976562 C 299.980469 579.816406 304.5 582.195312 309.460938 583.925781 C 312.730469 585.066406 316.132812 585.597656 319.484375 586.355469 C 325.601562 587.734375 331.769531 588.613281 338.0625 588.488281 C 342.414062 588.402344 346.773438 588.460938 351.125 588.433594 C 351.539062 588.429688 352.019531 588.640625 352.511719 588.078125 C 351.324219 588.253906 350.382812 587.777344 349.363281 587.695312 C 346.378906 587.460938 343.394531 587.21875 340.421875 586.871094 C 336.691406 586.4375 332.976562 585.886719 329.253906 585.40625 C 324.632812 584.84375 320.058594 584.039062 315.523438 582.992188 C 309.84375 581.640625 304.347656 579.757812 299.585938 576.226562 C 296.835938 574.183594 294.550781 571.730469 293.246094 568.460938 C 292.1875 565.824219 291.820312 563.039062 291.382812 560.277344 C 291.042969 558.351562 290.992188 556.414062 291.234375 554.472656 C 291.472656 552.53125 291.988281 550.667969 292.785156 548.878906 C 292.964844 548.484375 293.382812 548.011719 293.007812 547.480469 Z M 525.238281 517.171875 C 528.105469 516.992188 530.960938 517.464844 533.800781 517.78125 C 538.601562 518.3125 543.394531 519.007812 548.140625 519.988281 C 552.53125 520.898438 556.824219 522.007812 560.828125 524.148438 C 567.277344 527.597656 572.082031 532.484375 574.746094 539.363281 C 574.859375 539.644531 574.855469 540.007812 575.433594 540.042969 C 575.558594 537.777344 575.878906 535.550781 574.578125 533.4375 C 572.128906 529.457031 569.660156 525.511719 565.941406 522.546875 C 562.890625 520.109375 559.480469 518.351562 555.617188 517.753906 C 550.503906 516.917969 545.359375 516.523438 540.179688 516.570312 C 535.210938 516.660156 530.21875 516.167969 525.238281 517.175781 Z M 525.238281 517.171875 " fill-opacity="1" fill-rule="nonzero"/></g><g clip-path="url(#a85c3a7356)"><path fill="#cc0b36" d="M 391.371094 362.691406 C 395.597656 362.558594 399.816406 362.710938 404.027344 363.152344 C 409.804688 363.699219 415.566406 364.476562 421.277344 365.550781 C 426.734375 366.574219 432.175781 367.699219 437.691406 368.390625 C 439.273438 368.585938 440.875 368.625 442.464844 368.75 C 447.050781 369.113281 451.648438 369.546875 456.253906 368.941406 C 456.957031 368.878906 457.664062 368.867188 458.367188 368.90625 C 464.707031 368.957031 471.027344 368.65625 477.332031 368 C 484.191406 367.324219 490.988281 366.214844 497.589844 364.023438 C 503.601562 362.027344 509.855469 361.039062 516.152344 360.332031 C 521.058594 359.777344 525.976562 359.75 530.894531 359.550781 C 536.527344 359.324219 542.160156 359.121094 547.78125 359.335938 C 552.421875 359.511719 557.121094 359.46875 561.59375 361.148438 C 565.164062 362.484375 568.40625 364.378906 571.320312 366.835938 C 573.917969 369.023438 576.472656 371.234375 579.273438 373.160156 C 581.039062 374.4375 582.648438 375.890625 584.097656 377.519531 C 585.933594 379.484375 587.847656 381.382812 589.769531 383.261719 C 590.730469 384.140625 591.460938 385.175781 591.96875 386.371094 C 592.804688 388.429688 594.078125 390.167969 595.789062 391.585938 C 596.679688 392.265625 597.257812 393.148438 597.527344 394.238281 C 598.777344 399.871094 596.992188 404.300781 592.492188 407.761719 C 590.714844 409.125 588.960938 410.511719 587.167969 411.855469 C 586.761719 412.164062 586.410156 412.53125 586.117188 412.949219 C 581.617188 419.203125 575.421875 422.921875 568.113281 424.957031 C 565.039062 425.832031 561.921875 426.519531 558.765625 427.015625 C 557.382812 427.285156 556.03125 427.667969 554.710938 428.164062 C 550.507812 429.527344 546.261719 430.574219 541.8125 430.871094 C 538.546875 431.089844 535.3125 430.980469 532.054688 430.960938 C 529.367188 430.917969 526.6875 431.019531 524.011719 431.265625 C 521.027344 431.570312 518.0625 432.070312 515.070312 432.25 C 512.320312 432.417969 509.605469 432.804688 506.886719 433.15625 C 504.035156 433.53125 501.171875 433.75 498.296875 433.804688 C 492.28125 433.90625 486.3125 434.691406 480.289062 434.742188 C 475.429688 434.785156 470.597656 434.65625 465.757812 434.328125 C 462.378906 434.101562 459.046875 433.515625 455.652344 433.34375 C 450.980469 433.109375 446.304688 433.273438 441.644531 432.996094 C 434.808594 432.589844 427.976562 432.320312 421.128906 432.261719 C 417.648438 432.230469 414.25 432.789062 410.832031 433.207031 C 407.539062 433.609375 404.261719 434.148438 400.976562 434.601562 C 397.375 435.101562 393.773438 435.621094 390.160156 436.050781 C 387.246094 436.402344 384.316406 436.65625 381.390625 436.914062 C 377.0625 437.296875 372.734375 437.644531 368.40625 438.003906 C 368.277344 438.023438 368.152344 438.03125 368.023438 438.03125 C 363.546875 437.71875 359.304688 439.179688 354.945312 439.742188 C 352.925781 440.050781 350.894531 440.25 348.851562 440.332031 C 344.371094 440.410156 339.882812 440.425781 335.398438 440.3125 C 326.933594 440.101562 318.765625 438.449219 311.117188 434.710938 C 305.34375 431.886719 301.023438 427.582031 298.460938 421.617188 C 297.972656 420.484375 297.175781 419.554688 296.507812 418.542969 C 294.433594 415.445312 293.25 412.039062 292.949219 408.324219 C 292.726562 405.722656 293.339844 403.234375 294.382812 400.859375 C 297.84375 392.992188 303.511719 387.335938 311.527344 384.175781 C 315.574219 382.582031 319.628906 381.027344 323.582031 379.207031 C 327.777344 377.269531 332.234375 376.105469 336.695312 374.941406 C 342.082031 373.539062 347.265625 371.484375 352.5625 369.785156 C 358.039062 368.03125 363.472656 366.113281 369.113281 364.917969 C 373.175781 364.054688 377.273438 363.457031 381.402344 363 C 384.730469 362.628906 388.050781 362.785156 391.371094 362.691406 Z M 307.105469 429.246094 C 307.097656 429.199219 307.085938 429.152344 307.0625 429.109375 C 307.050781 429.085938 307 429.082031 306.96875 429.066406 L 307.128906 429.226562 C 308.261719 430.679688 309.875 431.488281 311.4375 432.339844 C 315.636719 434.617188 320.210938 435.84375 324.820312 436.894531 C 330.214844 438.121094 335.722656 438.113281 341.21875 438.066406 C 341.855469 438.058594 342.488281 438.066406 343.125 438.066406 C 337.765625 437.492188 332.480469 436.667969 327.207031 435.777344 C 321.496094 434.878906 316.015625 433.214844 310.769531 430.785156 C 309.585938 430.21875 308.511719 429.3125 307.105469 429.246094 Z M 569.003906 368.070312 C 569.007812 368.121094 569.023438 368.171875 569.046875 368.214844 C 569.0625 368.238281 569.117188 368.238281 569.152344 368.25 L 568.980469 368.09375 C 566.652344 366.0625 564.042969 364.5 561.15625 363.402344 C 557.523438 361.925781 553.652344 361.851562 549.847656 361.671875 C 544.925781 361.445312 539.984375 361.613281 535.054688 361.625 C 534.648438 361.625 534.117188 361.492188 533.976562 362.222656 C 536.480469 362.320312 538.964844 362.316406 541.445312 362.621094 C 544.738281 363.027344 548.03125 363.433594 551.289062 364.046875 C 556.5625 365.039062 561.710938 366.574219 566.925781 367.820312 C 567.605469 368.027344 568.296875 368.113281 569.003906 368.070312 Z M 440.453125 370.875 C 438.386719 371.003906 436.367188 370.597656 434.359375 370.285156 C 430.328125 369.660156 426.328125 368.820312 422.308594 368.101562 C 417.847656 367.308594 413.375 366.617188 408.875 366.0625 C 405.324219 365.621094 401.765625 365.300781 398.203125 365.097656 C 394.371094 364.878906 390.519531 365.03125 386.679688 365 C 382.378906 364.964844 378.148438 365.667969 373.925781 366.320312 C 366.441406 367.476562 359.332031 370.042969 352.164062 372.363281 C 351.863281 372.460938 351.460938 372.507812 351.378906 372.992188 C 355.496094 372.640625 359.554688 372.113281 363.625 371.988281 C 368.929688 371.828125 374.222656 371.40625 379.542969 371.46875 C 387.019531 371.558594 394.492188 371.660156 401.964844 372.175781 C 407.703125 372.570312 413.488281 372.378906 419.25 372.265625 C 423.78125 372.171875 428.304688 371.738281 432.832031 371.574219 C 435.382812 371.480469 437.929688 371.429688 440.453125 370.875 Z M 440.792969 430.601562 C 441.1875 430.648438 441.496094 430.707031 441.808594 430.710938 C 446.410156 430.804688 451.011719 430.824219 455.617188 431.039062 C 459.136719 431.199219 462.597656 431.753906 466.09375 432.066406 C 470.359375 432.445312 474.640625 432.867188 478.910156 432.566406 C 483.9375 432.210938 488.980469 432.121094 494.007812 431.667969 C 498.449219 431.269531 502.933594 431.292969 507.378906 430.765625 C 510.195312 430.433594 512.992188 429.902344 515.84375 429.855469 C 509.394531 429.472656 502.957031 429.011719 496.515625 428.949219 C 486.664062 428.855469 476.816406 428.683594 466.960938 429.136719 C 461.859375 429.371094 456.746094 429.621094 451.628906 429.648438 C 448.242188 429.664062 444.875 430.183594 441.480469 430.074219 C 441.253906 430.066406 440.964844 430.03125 440.792969 430.601562 Z M 589.785156 406.253906 L 590.164062 406.566406 C 591.082031 405.800781 592.03125 405.074219 592.90625 404.265625 C 595.664062 401.714844 595.875 398.476562 595.316406 395.054688 C 595.273438 394.523438 595.070312 394.058594 594.714844 393.667969 C 593.664062 392.660156 592.628906 391.640625 591.304688 390.351562 C 592.183594 396.027344 591.84375 401.226562 589.785156 406.253906 Z M 589.785156 406.253906 " fill-opacity="1" fill-rule="nonzero"/></g><path fill="#332421" d="M 468.859375 511.953125 C 461.746094 511.820312 454.644531 511.402344 447.558594 510.84375 C 435.847656 509.921875 424.148438 509.980469 412.417969 510.578125 C 403.140625 511.050781 393.84375 510.902344 384.554688 510.527344 C 376.164062 510.179688 367.816406 509.363281 359.519531 508.070312 C 352.902344 507.046875 346.46875 505.402344 340.648438 501.945312 C 337.734375 500.210938 334.816406 498.453125 332.082031 496.457031 C 328.917969 494.148438 326.046875 491.519531 324.683594 487.609375 C 323.867188 485.328125 323.679688 482.996094 324.125 480.617188 C 325.316406 474.101562 328.792969 468.914062 333.578125 464.511719 C 335.132812 463.144531 336.863281 462.058594 338.769531 461.257812 C 341.625 459.949219 344.574219 458.890625 347.609375 458.082031 C 348.050781 457.984375 348.476562 457.851562 348.890625 457.675781 C 354.996094 454.84375 361.511719 453.117188 367.792969 450.761719 C 374.773438 448.144531 382.117188 446.898438 389.460938 445.773438 C 395.539062 444.839844 401.625 444 407.71875 443.179688 C 415.324219 442.160156 422.917969 442.136719 430.460938 443.761719 C 435.164062 444.773438 439.945312 445.265625 444.722656 445.742188 C 452.433594 446.515625 460.152344 447.242188 467.875 447.859375 C 471.90625 448.179688 475.9375 447.703125 479.964844 447.460938 C 489.238281 446.910156 498.441406 445.636719 507.664062 444.578125 C 513.261719 443.933594 518.835938 443.054688 524.445312 442.570312 C 529.039062 442.171875 533.328125 440.78125 537.664062 439.429688 C 542.851562 437.789062 548.160156 436.824219 553.589844 436.53125 C 559.023438 436.238281 564.402344 436.625 569.738281 437.695312 C 570.9375 437.910156 572.105469 438.238281 573.242188 438.683594 C 576.46875 440.007812 579.839844 440.660156 583.273438 441.121094 C 584.792969 441.324219 586.304688 441.621094 587.796875 441.972656 C 596.261719 443.941406 602.351562 449.1875 606.496094 456.515625 C 610.222656 463.105469 609.640625 470.066406 606.550781 476.851562 C 606.121094 477.78125 605.625 478.679688 605.066406 479.539062 C 603.789062 481.523438 602.566406 483.46875 602.011719 485.859375 C 601.503906 488.054688 599.976562 489.84375 598.457031 491.503906 C 596.6875 493.4375 594.863281 495.339844 592.964844 497.152344 C 590.316406 499.679688 587.085938 501.238281 583.59375 502.21875 C 578.832031 503.554688 573.980469 504.378906 569.046875 504.695312 C 564.949219 504.96875 560.851562 504.957031 556.753906 505.0625 C 549.894531 505.230469 543.070312 505.792969 536.277344 506.746094 C 530.503906 507.5625 524.6875 507.957031 518.875 508.417969 C 511.085938 509.035156 503.296875 509.648438 495.507812 510.265625 C 489.886719 510.703125 484.265625 511.089844 478.644531 511.554688 C 475.390625 511.871094 472.128906 512.003906 468.859375 511.953125 Z M 467.816406 509.519531 C 469.867188 509.660156 471.917969 509.667969 473.96875 509.550781 C 476.195312 509.785156 478.347656 509.164062 480.542969 509.007812 C 477.882812 508.894531 475.222656 508.671875 472.582031 509.222656 L 467.796875 509.335938 C 466.339844 509.132812 464.890625 509.460938 463.546875 509.421875 C 464.894531 509.398438 466.347656 509.734375 467.816406 509.519531 Z M 339.40625 464.21875 C 339.789062 463.945312 340.351562 463.828125 340.324219 463.15625 C 339.820312 463.210938 339.398438 463.417969 339.050781 463.785156 C 337.421875 464.429688 335.988281 465.367188 334.742188 466.597656 C 330.585938 470.574219 327.5 475.1875 326.429688 480.960938 C 325.640625 485.230469 327.085938 488.703125 330.128906 491.742188 C 330.308594 491.386719 330.296875 491.039062 330.089844 490.699219 C 328.90625 487.46875 328.953125 484.226562 329.765625 480.898438 C 331.359375 474.386719 334.453125 468.773438 339.40625 464.21875 Z M 569.359375 502.296875 C 574.492188 502.039062 579.503906 501.109375 584.390625 499.511719 C 586.824219 498.789062 588.984375 497.582031 590.875 495.890625 C 593.210938 493.796875 595.386719 491.542969 597.398438 489.136719 C 597.8125 488.878906 598.054688 488.527344 598.144531 487.78125 C 597.683594 488.222656 597.265625 488.335938 597.125 488.777344 C 594.621094 490.671875 592.050781 492.492188 589.179688 493.785156 C 581.53125 497.226562 573.757812 500.34375 565.496094 502.039062 C 564.773438 502.082031 564.082031 502.257812 563.429688 502.566406 C 565.417969 502.792969 567.394531 502.703125 569.359375 502.296875 Z M 375.445312 451.089844 C 375.828125 451.089844 376.214844 451.113281 376.59375 451.085938 C 381.640625 450.742188 386.679688 450.15625 391.730469 450.089844 C 401.59375 449.957031 411.460938 449.9375 421.332031 450.117188 C 431.886719 450.308594 442.464844 450.789062 452.960938 449.058594 C 453.023438 449.058594 453.082031 449.074219 453.136719 449.105469 C 453.097656 449.359375 453.324219 449.066406 453.132812 449.085938 C 451.601562 448.800781 450.058594 448.597656 448.503906 448.484375 C 442.457031 447.832031 436.382812 447.386719 430.421875 446.113281 C 423.257812 444.582031 416.058594 444.492188 408.828125 445.398438 C 404.128906 445.988281 399.449219 446.726562 394.753906 447.339844 C 388.230469 448.152344 381.796875 449.402344 375.445312 451.089844 Z M 567.328125 439.671875 C 562.921875 438.945312 558.488281 438.691406 554.03125 438.910156 C 549.570312 439.125 545.183594 439.808594 540.871094 440.960938 C 549.6875 440.632812 558.484375 439.78125 567.328125 439.671875 Z M 567.328125 439.671875 " fill-opacity="1" fill-rule="nonzero"/></svg>