<svg xmlns="http://www.w3.org/2000/svg" xmlns:xlink="http://www.w3.org/1999/xlink" width="1080" zoomAndPan="magnify" viewBox="0 0 810 1439.999935" height="1920" preserveAspectRatio="xMidYMid meet" version="1.0"><defs><clipPath id="32baca7e15"><path d="M 215.0625 523.636719 L 539 523.636719 L 539 916.636719 L 215.0625 916.636719 Z M 215.0625 523.636719 " clip-rule="nonzero"/></clipPath></defs><path fill="#f8f8f8" d="M 528.835938 545.488281 C 528.820312 538.414062 523.058594 532.675781 515.988281 532.675781 L 237.015625 532.675781 C 229.949219 532.675781 224.226562 538.414062 224.238281 545.488281 L 225.152344 894.78125 C 225.164062 901.855469 230.929688 907.597656 238 907.597656 L 516.96875 907.597656 C 524.039062 907.597656 529.761719 901.855469 529.746094 894.78125 Z M 528.835938 545.488281 " fill-opacity="1" fill-rule="evenodd"/><g clip-path="url(#32baca7e15)"><path fill="#cc0b36" d="M 516.96875 916.636719 L 238 916.636719 C 225.964844 916.636719 216.160156 906.839844 216.132812 894.8125 L 215.222656 545.519531 C 215.207031 539.679688 217.464844 534.191406 221.589844 530.050781 C 225.699219 525.910156 231.183594 523.636719 237.015625 523.636719 L 515.988281 523.636719 C 528.023438 523.636719 537.824219 533.433594 537.855469 545.460938 L 538.765625 894.753906 C 538.78125 900.59375 536.519531 906.082031 532.398438 910.222656 C 528.289062 914.363281 522.804688 916.636719 516.96875 916.636719 Z M 237.015625 541.699219 C 235.65625 541.699219 234.773438 542.386719 234.367188 542.796875 C 233.960938 543.203125 233.273438 544.101562 233.273438 545.460938 L 234.183594 894.753906 C 234.199219 896.859375 235.910156 898.574219 238 898.574219 L 516.96875 898.574219 C 518.328125 898.574219 519.214844 897.882812 519.621094 897.464844 C 520.027344 897.054688 520.714844 896.15625 520.714844 894.8125 L 519.800781 545.519531 C 519.800781 543.414062 518.089844 541.714844 515.988281 541.714844 L 237.015625 541.714844 Z M 237.015625 541.699219 " fill-opacity="1" fill-rule="nonzero"/></g><path fill="#cc0b36" d="M 415.773438 580.746094 L 415.746094 580.675781 C 415.648438 580.398438 415.59375 580.046875 415.5625 579.667969 C 415.394531 577.632812 415.886719 574.78125 416.476562 571.945312 C 417.34375 567.765625 418.453125 563.636719 418.578125 561.828125 C 418.664062 560.5625 418.257812 559.765625 417.933594 559.398438 C 417.765625 559.21875 416.628906 558.191406 415.410156 559.273438 C 414.917969 559.695312 412.757812 562.136719 412.757812 562.136719 C 411.160156 564.285156 404.917969 575.582031 399.730469 580.832031 C 398.789062 581.785156 397.90625 582.53125 397.09375 582.882812 C 396.867188 582.980469 396.671875 583.105469 396.503906 583.0625 C 396.476562 582.824219 396.433594 582.179688 396.488281 581.6875 C 396.644531 580.296875 397.0625 578.558594 397.582031 576.691406 C 398.789062 572.382812 400.445312 567.414062 400.824219 563.945312 C 401.035156 561.925781 400.78125 560.285156 400.148438 559.230469 C 399.785156 558.628906 399.265625 558.261719 398.621094 558.148438 C 398.101562 558.050781 397.402344 558.207031 396.894531 558.347656 C 393.613281 559.285156 390.515625 562.429688 387.835938 566.460938 C 387.890625 566.261719 387.933594 566.066406 387.988281 565.882812 C 388.605469 563.300781 388.746094 561 388.269531 559.398438 C 388.058594 558.726562 387.667969 558.390625 387.316406 558.191406 C 386.964844 557.996094 386.585938 557.910156 386.167969 557.996094 C 385.898438 558.039062 385.5625 558.164062 385.242188 558.472656 C 385.03125 558.667969 384.734375 559.132812 384.625 559.386719 C 383.320312 562.207031 382.941406 565.492188 381.089844 568.128906 C 379.167969 570.894531 376.011719 575.582031 372.519531 579.007812 C 370.457031 581.027344 368.3125 582.65625 366.234375 582.867188 C 363.738281 583.105469 362.195312 581.675781 361.367188 579.609375 C 364.46875 575.511719 367.050781 571.148438 368.003906 567.933594 C 368.605469 565.910156 368.550781 564.214844 368.015625 563.035156 C 367.792969 562.527344 367.371094 562.066406 366.769531 561.800781 C 366.125 561.503906 365.210938 561.476562 364.789062 561.5625 C 362.730469 561.953125 360.988281 563.289062 359.6875 565.222656 C 357.933594 567.808594 356.964844 571.511719 356.980469 575.089844 C 356.980469 576.296875 357.089844 577.492188 357.316406 578.628906 C 354.777344 581.785156 352.042969 584.648438 349.785156 586.375 C 349.066406 586.921875 348.421875 587.34375 347.847656 587.609375 C 347.765625 587.640625 347.679688 587.679688 347.582031 587.710938 C 347.539062 587.484375 347.484375 587.191406 347.46875 586.953125 C 347.398438 586.023438 347.441406 584.886719 347.554688 583.609375 C 348.03125 577.871094 349.753906 569.574219 350.105469 564.382812 C 350.230469 562.542969 350.164062 561.027344 349.894531 560.03125 C 349.699219 559.285156 349.390625 558.726562 349.039062 558.320312 C 347.679688 556.800781 346.109375 556.5625 344.425781 557.378906 C 343.289062 557.925781 342.042969 559.078125 340.808594 560.71875 C 338.71875 563.46875 336.542969 567.667969 334.679688 571.75 C 335.085938 569 335.335938 566.207031 335.140625 564.226562 C 334.929688 562.09375 334.128906 560.675781 333.136719 560.085938 C 332.320312 559.609375 331.253906 559.457031 329.894531 560.171875 C 327.132812 561.601562 324.902344 564.128906 323.023438 567.105469 C 321.199219 570.011719 319.710938 573.363281 318.351562 576.410156 C 319.039062 572.171875 319.570312 567.875 320.089844 563.636719 C 320.089844 563.652344 320.078125 563.695312 320.078125 563.695312 C 320.078125 563.695312 320.289062 562.25 320.105469 561.421875 C 319.894531 560.4375 319.332031 559.75 318.546875 559.441406 C 318.058594 559.246094 317.160156 559.203125 316.09375 559.960938 C 314.4375 561.113281 311.128906 564.886719 307.3125 569.28125 C 302.574219 574.726562 296.992188 581.140625 292.910156 584.074219 C 292.167969 584.605469 291.480469 585.027344 290.875 585.253906 C 290.59375 585.351562 290.371094 585.464844 290.175781 585.394531 C 289.21875 585.042969 288.195312 585.589844 287.902344 586.613281 C 287.609375 587.640625 288.140625 588.777344 289.09375 589.125 C 289.796875 589.394531 290.625 589.421875 291.5625 589.167969 C 292.542969 588.902344 293.707031 588.296875 294.972656 587.386719 C 299.222656 584.339844 305.054688 577.703125 309.992188 572.03125 C 312.417969 569.238281 314.621094 566.699219 316.289062 564.984375 C 315.503906 571.371094 314.621094 577.8125 313.203125 584.03125 C 313.078125 584.605469 312.363281 586.894531 312.25 588.578125 C 312.167969 589.941406 312.53125 591.050781 313.078125 591.652344 C 313.609375 592.242188 314.144531 592.398438 314.59375 592.410156 C 315.027344 592.425781 315.449219 592.300781 315.828125 591.988281 C 316.109375 591.765625 316.417969 591.386719 316.640625 590.8125 C 316.90625 590.09375 317.0625 588.691406 317.300781 588.019531 C 317.832031 586.460938 319.320312 583.273438 319.980469 581.882812 C 321.464844 578.824219 322.980469 574.921875 324.902344 571.386719 C 326.628906 568.199219 328.675781 565.292969 331.4375 563.804688 C 331.480469 563.945312 331.507812 564.085938 331.523438 564.226562 C 331.621094 564.914062 331.632812 565.742188 331.59375 566.65625 C 331.367188 571.820312 329.558594 579.273438 329.320312 580.425781 C 329.292969 580.550781 328.28125 586.53125 328.101562 587.722656 C 328.058594 588.046875 328.042969 588.242188 328.042969 588.269531 C 328.058594 588.988281 328.339844 589.351562 328.449219 589.507812 C 328.855469 590.066406 329.363281 590.265625 329.867188 590.277344 C 330.960938 590.304688 331.734375 589.757812 332.25 588.761719 C 332.488281 588.296875 332.671875 587.667969 332.785156 586.992188 C 332.882812 586.433594 332.925781 585.828125 333.09375 585.394531 C 333.878906 583.261719 338.957031 569.460938 343.652344 563.273438 C 344.339844 562.375 345 561.644531 345.644531 561.195312 C 345.941406 561 346.207031 560.804688 346.429688 560.957031 C 346.460938 561.070312 346.515625 561.320312 346.53125 561.503906 C 346.601562 562.179688 346.585938 563.019531 346.515625 563.988281 C 346.179688 569.152344 344.453125 577.421875 343.976562 583.148438 C 343.738281 586.066406 343.878906 588.425781 344.441406 589.703125 C 344.929688 590.824219 345.675781 591.457031 346.585938 591.667969 C 347.539062 591.90625 348.984375 591.597656 350.640625 590.542969 C 352.9375 589.085938 355.96875 586.164062 358.871094 582.769531 C 360.441406 585.464844 363.039062 587.148438 366.683594 586.796875 C 369.40625 586.53125 372.324219 584.621094 375.03125 581.96875 C 377.257812 579.777344 379.347656 577.113281 381.117188 574.699219 C 380.472656 576.355469 379.925781 577.800781 379.644531 578.824219 C 378.578125 582.585938 378.144531 584.523438 378.03125 585.351562 C 377.707031 587.722656 379.460938 588.128906 379.855469 588.144531 C 380.78125 588.171875 381.4375 587.722656 381.875 586.882812 C 382.042969 586.558594 382.167969 586.152344 382.265625 585.703125 L 382.394531 585.097656 C 384.398438 581.097656 387.289062 574.179688 390.851562 568.816406 C 392.828125 565.839844 394.972656 563.328125 397.34375 562.359375 C 397.34375 563.046875 397.246094 563.863281 397.078125 564.734375 C 396.503906 567.890625 395.15625 571.890625 394.175781 575.429688 C 393.304688 578.53125 392.742188 581.335938 392.914062 583.148438 C 393.039062 584.496094 393.542969 585.464844 394.273438 586.082031 C 395.269531 586.921875 396.460938 587.160156 397.792969 586.8125 C 399.113281 586.445312 400.683594 585.367188 402.296875 583.722656 C 406.320312 579.640625 411.003906 572.003906 413.742188 567.609375 C 413.261719 569.671875 412.757812 571.933594 412.421875 574.050781 C 411.988281 576.71875 411.832031 579.175781 412.15625 580.914062 C 412.492188 582.726562 413.332031 583.917969 414.554688 584.480469 C 415.492188 584.917969 416.601562 584.859375 417.808594 584.101562 C 418.875 583.441406 420.121094 582.125 421.398438 580.367188 C 423.953125 576.875 426.828125 571.484375 429.167969 567.246094 C 428.269531 570.570312 426.953125 575.792969 426.9375 579.582031 C 426.925781 582.683594 427.90625 584.945312 429.644531 585.785156 C 430.683594 586.292969 432.015625 586.445312 433.601562 586.222656 C 435.464844 585.96875 437.765625 585.210938 440.292969 584.3125 C 445.972656 582.292969 452.914062 579.386719 458.566406 581.351562 C 459.535156 581.6875 460.53125 581.113281 460.8125 580.074219 C 461.089844 579.035156 460.542969 577.925781 459.578125 577.589844 C 453.25 575.398438 445.410156 578.292969 439.070312 580.550781 C 436.785156 581.363281 434.722656 582.066406 433.039062 582.304688 C 432.242188 582.417969 431.566406 582.445312 431.046875 582.191406 C 430.769531 582.054688 430.738281 581.660156 430.667969 581.238281 C 430.488281 580.257812 430.527344 579.007812 430.683594 577.671875 C 431.1875 573.070312 432.957031 567.484375 433.375 565.703125 C 433.683594 564.453125 434.105469 561.742188 434.050781 560.3125 C 434.023438 559.539062 433.824219 558.949219 433.628906 558.628906 C 433.25 557.96875 432.71875 557.660156 432.140625 557.589844 C 431.695312 557.53125 431.035156 557.574219 430.332031 558.320312 C 428.242188 560.550781 422.914062 571.878906 418.539062 577.855469 C 417.722656 578.964844 416.964844 579.878906 416.25 580.4375 C 416.070312 580.578125 415.902344 580.675781 415.773438 580.746094 Z M 364.75 565.703125 C 363.894531 566.066406 363.191406 566.769531 362.601562 567.636719 C 361.4375 569.363281 360.765625 571.75 360.613281 574.152344 C 362.085938 571.960938 363.304688 569.8125 364.0625 567.945312 C 364.398438 567.117188 364.636719 566.359375 364.75 565.703125 Z M 364.75 565.703125 " fill-opacity="1" fill-rule="evenodd"/><path fill="#cc0b36" d="M 502.144531 612.902344 C 502.144531 611.261719 500.796875 609.929688 499.15625 609.929688 L 254.605469 609.929688 C 252.964844 609.929688 251.632812 611.261719 251.632812 612.902344 C 251.632812 614.546875 252.976562 615.878906 254.621094 615.878906 L 499.171875 615.878906 C 500.8125 615.878906 502.144531 614.546875 502.144531 612.902344 Z M 502.144531 612.902344 " fill-opacity="1" fill-rule="evenodd"/><path fill="#cc0b36" d="M 432.269531 781.515625 C 432.253906 776.769531 428.410156 772.9375 423.671875 772.9375 L 260.636719 772.9375 C 255.910156 772.9375 252.066406 776.785156 252.082031 781.515625 L 252.136719 805.710938 C 252.152344 810.457031 256.007812 814.300781 260.734375 814.300781 L 423.769531 814.300781 C 428.496094 814.300781 432.339844 810.457031 432.324219 805.710938 Z M 432.269531 781.515625 " fill-opacity="1" fill-rule="evenodd"/><path fill="#cc0b36" d="M 506.40625 781.515625 C 506.394531 776.769531 502.535156 772.9375 497.808594 772.9375 L 447.164062 772.9375 C 442.4375 772.9375 438.59375 776.785156 438.609375 781.515625 L 438.664062 805.710938 C 438.679688 810.457031 442.535156 814.300781 447.261719 814.300781 L 497.910156 814.300781 C 502.636719 814.300781 506.476562 810.457031 506.464844 805.710938 Z M 506.40625 781.515625 " fill-opacity="1" fill-rule="evenodd"/><path fill="#cc0b36" d="M 370.121094 644.046875 C 370.121094 643.289062 369.503906 642.671875 368.746094 642.671875 L 276.640625 642.671875 C 275.882812 642.671875 275.265625 643.289062 275.265625 644.046875 C 275.265625 644.804688 275.882812 645.425781 276.640625 645.425781 L 368.730469 645.425781 C 369.519531 645.425781 370.121094 644.804688 370.121094 644.046875 Z M 370.121094 644.046875 " fill-opacity="1" fill-rule="evenodd"/><path fill="#cc0b36" d="M 370.21875 677.496094 C 370.21875 676.738281 369.601562 676.121094 368.84375 676.121094 L 276.738281 676.121094 C 275.980469 676.121094 275.363281 676.738281 275.363281 677.496094 C 275.363281 678.253906 275.980469 678.871094 276.738281 678.871094 L 368.832031 678.871094 C 369.601562 678.871094 370.21875 678.253906 370.21875 677.496094 Z M 370.21875 677.496094 " fill-opacity="1" fill-rule="evenodd"/><path fill="#cc0b36" d="M 505.285156 827.929688 C 505.285156 827.621094 505.035156 827.367188 504.726562 827.367188 L 256.988281 827.367188 C 256.679688 827.367188 256.429688 827.621094 256.429688 827.929688 C 256.429688 828.238281 256.679688 828.492188 256.988281 828.492188 L 504.710938 828.492188 C 505.035156 828.492188 505.285156 828.238281 505.285156 827.929688 Z M 505.285156 827.929688 " fill-opacity="1" fill-rule="evenodd"/><path fill="#cc0b36" d="M 505.328125 841.558594 C 505.328125 841.25 505.074219 840.996094 504.765625 840.996094 L 257.03125 840.996094 C 256.722656 840.996094 256.472656 841.25 256.472656 841.558594 C 256.472656 841.867188 256.722656 842.121094 257.03125 842.121094 L 504.765625 842.121094 C 505.074219 842.121094 505.328125 841.867188 505.328125 841.558594 Z M 505.328125 841.558594 " fill-opacity="1" fill-rule="evenodd"/><path fill="#cc0b36" d="M 505.355469 854.542969 C 505.355469 854.234375 505.105469 853.980469 504.796875 853.980469 L 257.058594 853.980469 C 256.75 853.980469 256.5 854.234375 256.5 854.542969 C 256.5 854.851562 256.75 855.105469 257.058594 855.105469 L 504.796875 855.105469 C 505.105469 855.105469 505.355469 854.851562 505.355469 854.542969 Z M 505.355469 854.542969 " fill-opacity="1" fill-rule="evenodd"/><path fill="#cc0b36" d="M 505.398438 868.171875 C 505.398438 867.863281 505.144531 867.609375 504.835938 867.609375 L 257.101562 867.609375 C 256.792969 867.609375 256.539062 867.863281 256.539062 868.171875 C 256.539062 868.480469 256.792969 868.730469 257.101562 868.730469 L 504.824219 868.730469 C 505.144531 868.71875 505.398438 868.480469 505.398438 868.171875 Z M 505.398438 868.171875 " fill-opacity="1" fill-rule="evenodd"/><path fill="#cc0b36" d="M 370.304688 711.9375 C 370.304688 711.179688 369.6875 710.5625 368.929688 710.5625 L 276.820312 710.5625 C 276.066406 710.5625 275.449219 711.179688 275.449219 711.9375 C 275.449219 712.699219 276.066406 713.316406 276.820312 713.316406 L 368.914062 713.316406 C 369.6875 713.316406 370.304688 712.699219 370.304688 711.9375 Z M 370.304688 711.9375 " fill-opacity="1" fill-rule="evenodd"/><path fill="#cc0b36" d="M 370.386719 745.371094 C 370.386719 744.613281 369.769531 743.996094 369.011719 743.996094 L 276.90625 743.996094 C 276.148438 743.996094 275.53125 744.613281 275.53125 745.371094 C 275.53125 746.128906 276.148438 746.746094 276.90625 746.746094 L 369 746.746094 C 369.769531 746.746094 370.386719 746.128906 370.386719 745.371094 Z M 370.386719 745.371094 " fill-opacity="1" fill-rule="evenodd"/><path fill="#cc0b36" d="M 497.839844 644.046875 C 497.839844 643.289062 497.222656 642.671875 496.464844 642.671875 L 401.019531 642.671875 C 400.261719 642.671875 399.644531 643.289062 399.644531 644.046875 C 399.644531 644.804688 400.261719 645.425781 401.019531 645.425781 L 496.464844 645.425781 C 497.234375 645.425781 497.851562 644.804688 497.839844 644.046875 Z M 497.839844 644.046875 " fill-opacity="1" fill-rule="evenodd"/><path fill="#cc0b36" d="M 497.9375 677.496094 C 497.9375 676.738281 497.320312 676.121094 496.5625 676.121094 L 401.117188 676.121094 C 400.359375 676.121094 399.742188 676.738281 399.742188 677.496094 C 399.742188 678.253906 400.359375 678.871094 401.117188 678.871094 L 496.5625 678.871094 C 497.320312 678.871094 497.9375 678.253906 497.9375 677.496094 Z M 497.9375 677.496094 " fill-opacity="1" fill-rule="evenodd"/><path fill="#cc0b36" d="M 498.019531 711.9375 C 498.019531 711.179688 497.402344 710.5625 496.644531 710.5625 L 401.203125 710.5625 C 400.445312 710.5625 399.828125 711.179688 399.828125 711.9375 C 399.828125 712.699219 400.445312 713.316406 401.203125 713.316406 L 496.644531 713.316406 C 497.402344 713.316406 498.019531 712.699219 498.019531 711.9375 Z M 498.019531 711.9375 " fill-opacity="1" fill-rule="evenodd"/><path fill="#cc0b36" d="M 498.105469 745.371094 C 498.105469 744.613281 497.488281 743.996094 496.730469 743.996094 L 401.285156 743.996094 C 400.527344 743.996094 399.910156 744.613281 399.910156 745.371094 C 399.910156 746.128906 400.527344 746.746094 401.285156 746.746094 L 496.730469 746.746094 C 497.5 746.746094 498.105469 746.128906 498.105469 745.371094 Z M 498.105469 745.371094 " fill-opacity="1" fill-rule="evenodd"/><path fill="#cc0b36" d="M 263.46875 634.292969 L 269.558594 639.234375 L 267.367188 642.632812 L 270.929688 643.9375 L 268.632812 651.9375 L 265.070312 650.632812 L 265.070312 654.84375 L 257.578125 654.84375 L 257.566406 650.632812 L 254.003906 651.9375 L 251.660156 643.9375 L 255.222656 642.632812 L 253.007812 639.234375 L 259.066406 634.292969 L 261.28125 637.691406 Z M 263.46875 634.292969 " fill-opacity="1" fill-rule="evenodd"/><path fill="#cc0b36" d="M 263.566406 668.386719 L 269.640625 673.328125 L 267.453125 676.738281 L 271.03125 678.042969 L 268.730469 686.042969 L 265.152344 684.738281 L 265.167969 688.949219 L 257.664062 688.949219 L 257.648438 684.738281 L 254.085938 686.042969 L 251.742188 678.042969 L 255.320312 676.738281 L 253.105469 673.328125 L 259.164062 668.386719 L 261.367188 671.796875 Z M 263.566406 668.386719 " fill-opacity="1" fill-rule="evenodd"/><path fill="#cc0b36" d="M 263.652344 702.535156 L 269.738281 707.476562 L 267.535156 710.886719 L 271.113281 712.179688 L 268.8125 720.179688 L 265.238281 718.886719 L 265.25 723.082031 L 257.746094 723.082031 L 257.746094 718.886719 L 254.183594 720.179688 L 251.84375 712.179688 L 255.40625 710.886719 L 253.1875 707.476562 L 259.246094 702.535156 L 261.464844 705.945312 Z M 263.652344 702.535156 " fill-opacity="1" fill-rule="evenodd"/><path fill="#cc0b36" d="M 263.75 736.640625 L 269.824219 741.582031 L 267.636719 744.980469 L 271.199219 746.285156 L 268.898438 754.285156 L 265.335938 752.980469 L 265.347656 757.191406 L 257.84375 757.191406 L 257.832031 752.980469 L 254.269531 754.285156 L 251.925781 746.285156 L 255.488281 744.980469 L 253.273438 741.582031 L 259.332031 736.640625 L 261.546875 740.039062 Z M 263.75 736.640625 " fill-opacity="1" fill-rule="evenodd"/><path fill="#cc0b36" d="M 390.359375 634.292969 L 396.375 639.234375 L 394.203125 642.632812 L 397.738281 643.9375 L 395.464844 651.9375 L 391.929688 650.632812 L 391.945312 654.84375 L 384.523438 654.84375 L 384.511719 650.632812 L 380.992188 651.9375 L 378.675781 643.9375 L 382.195312 642.632812 L 380.007812 639.234375 L 385.996094 634.292969 L 388.1875 637.691406 Z M 390.359375 634.292969 " fill-opacity="1" fill-rule="evenodd"/><path fill="#cc0b36" d="M 390.445312 668.386719 L 396.460938 673.328125 L 394.285156 676.738281 L 397.820312 678.042969 L 395.550781 686.042969 L 392.015625 684.738281 L 392.027344 688.949219 L 384.609375 688.949219 L 384.609375 684.738281 L 381.074219 686.042969 L 378.761719 678.042969 L 382.296875 676.738281 L 380.105469 673.328125 L 386.097656 668.386719 L 388.285156 671.796875 Z M 390.445312 668.386719 " fill-opacity="1" fill-rule="evenodd"/><path fill="#cc0b36" d="M 390.542969 702.535156 L 396.546875 707.476562 L 394.386719 710.886719 L 397.90625 712.179688 L 395.632812 720.179688 L 392.113281 718.886719 L 392.128906 723.082031 L 384.707031 723.082031 L 384.695312 718.886719 L 381.171875 720.179688 L 378.859375 712.179688 L 382.378906 710.886719 L 380.191406 707.476562 L 386.179688 702.535156 L 388.367188 705.945312 Z M 390.542969 702.535156 " fill-opacity="1" fill-rule="evenodd"/><path fill="#cc0b36" d="M 390.625 736.640625 L 396.644531 741.582031 L 394.46875 744.980469 L 398.003906 746.285156 L 395.730469 754.285156 L 392.195312 752.980469 L 392.210938 757.191406 L 384.792969 757.191406 L 384.777344 752.980469 L 381.257812 754.285156 L 378.941406 746.285156 L 382.464844 744.980469 L 380.273438 741.582031 L 386.265625 736.640625 L 388.453125 740.039062 Z M 390.625 736.640625 " fill-opacity="1" fill-rule="evenodd"/></svg>