<svg id="Livello_1" data-name="Livello 1" xmlns="http://www.w3.org/2000/svg" xmlns:xlink="http://www.w3.org/1999/xlink" viewBox="0 0 207.15 186.25"><defs><style>.cls-1{fill:none;}.cls-2{fill:#cc0b36;}.cls-3{clip-path:url(#clip-path);}.cls-4{clip-path:url(#clip-path-2);}.cls-5{clip-path:url(#clip-path-3);}.cls-6{clip-path:url(#clip-path-4);}</style><clipPath id="clip-path" transform="translate(-128.12 -125.76)"><rect class="cls-1" x="128.13" y="138.67" width="54.54" height="20"/></clipPath><clipPath id="clip-path-2" transform="translate(-128.12 -125.76)"><rect class="cls-1" x="176" y="304.82" width="8" height="6.53"/></clipPath><clipPath id="clip-path-3" transform="translate(-128.12 -125.76)"><rect class="cls-1" x="134.67" y="132" width="193.46" height="117.95"/></clipPath><clipPath id="clip-path-4" transform="translate(-128.12 -125.76)"><rect class="cls-1" x="265.28" y="242.01" width="70" height="70"/></clipPath></defs><path class="cls-2" d="M180.31,282.06h6.53v-6.51h-6.53v6.51" transform="translate(-128.12 -125.76)"/><path class="cls-2" d="M180.31,295.08h6.53v-6.51h-6.53v6.51" transform="translate(-128.12 -125.76)"/><path class="cls-2" d="M185.69,258.39,181.06,263l4.63,4.57L190.3,263l-4.61-4.63" transform="translate(-128.12 -125.76)"/><g class="cls-3"><path class="cls-2" d="M144.57,154.71a17.44,17.44,0,0,1,12.47-3.8,39.11,39.11,0,0,0,4.72,0c7.18-5,14.42-9.31,19.72-11.06l-3.94-.65c-4.32-1.16-21.22,2.88-32.63,6.73l-1.22.43c-6.05,2.16-8.65,3.62-9.26,4.17l-.08.06-.5.51-.73.34-3.78,1.47a1.82,1.82,0,0,0-1.19,1.51,1.79,1.79,0,0,0,.7,1.71l0,0a10.44,10.44,0,0,0,8.34,1.87,16.61,16.61,0,0,0,7.35-3.33" transform="translate(-128.12 -125.76)"/></g><g class="cls-4"><path class="cls-2" d="M177.06,311.35h6.52v-6.52h-6.52v6.52" transform="translate(-128.12 -125.76)"/></g><path class="cls-2" d="M142.58,139.89c12.61-4.44,30.33-8.5,36.49-7l20.56,3.38-.07.44a137.34,137.34,0,0,0,17.77-5.48l.72-.26c-2.59-.31-5.16-.41-8-.5a99,99,0,0,1-26.87-4l-.34-.11c-6.27-2.56-34.62,3.45-38,6.36l-.59.5-4.67,1.19a1.79,1.79,0,0,0-1.39,1.35,1.77,1.77,0,0,0,.5,1.82,10.24,10.24,0,0,0,3.91,2.29" transform="translate(-128.12 -125.76)"/><path class="cls-2" d="M203.15,308.09h6.53v-6.51h-6.53v6.51" transform="translate(-128.12 -125.76)"/><g class="cls-5"><path class="cls-2" d="M327.11,158.82c-21.32,0-43.21-10-60.79-18-10.11-4.6-18.83-8.59-23.34-8.59-.57,0-1.12,0-1.68.05a88.67,88.67,0,0,0-8.9,1.06,96,96,0,0,0-12.83,4c-8.3,3-17.72,6.46-33.43,8.17l-.35,0c-5.59,0-22.51,11.7-33.78,21.11-5.63,4.76-9.44,8.6-10.34,10.19l-.09.14-.34.69-4.71,3.49a3.2,3.2,0,0,0,.75,5.59,13.93,13.93,0,0,0,11.43-.49c5.65-2.88,9.15-6.77,10.36-11.54l.61-2.46h2.54c.15,0,15.19-.15,20.85-8.54l1.18-1.73,2.06.34c.05,0,5.38.88,12.69,1.72,5.78-5.39,11.07-11.06,15.21-15.76l2.15-2.45,4.91,4.28-2.16,2.45c-3.28,3.74-7.27,8.06-11.66,12.4h.18l-4.55,4.15-.77.72c-1.18,1.08-2.37,2.13-3.53,3.13h0c-1.08.93-2.17,1.84-3.26,2.72s-2.18,1.73-3.24,2.53c-.21.14-.41.31-.62.45q-1.49,1.11-2.94,2.1l-6.56,32.32c-.5,1.47-1,6.27,5.09,19.11a4.87,4.87,0,0,0,.8,1.16c.49-1,1-2,1.68-3.06a39.61,39.61,0,0,1,7.73-9,25.8,25.8,0,0,0-.19-4.48c-.06-.38-.12-.76-.2-1.12,0,0,0,0,0-.05-.05-.21-.11-.41-.15-.6a3.31,3.31,0,0,1-.12-.42c-.05-.11-.08-.23-.13-.34a5,5,0,0,0-.32-.75l-.92-1.82h0l1.23-1.62c3.92-5.16,9.44-14.15,9.44-18v-2l1.81-.9c5-2.48,13.8-7.21,16-9.37l1-.93,4.73-4.68,4.59,4.63-1.24,1.23a14,14,0,0,1,7.67,5.67c2.49,4.06,2.34,9.31-.4,15.65l.7.71L238.94,204l-.39.39a19.35,19.35,0,0,1-2.11,1.73,86.81,86.81,0,0,1-11.66,6.29c-6.79,3.27-14.64,7.07-21,12.06q-1.16.9-2.22,1.86a32.33,32.33,0,0,0-6.27,7.33,30.07,30.07,0,0,0-3,6.23c0,.07,0,.17-.07.26a11.31,11.31,0,0,0-.31,1.17c0,.2-.11.4-.15.6a.09.09,0,0,0,0,0,12.91,12.91,0,0,0-.18,1.46c0,.13,0,.28,0,.43a6.37,6.37,0,0,0,0,1c0,.12,0,.27,0,.4a6.21,6.21,0,0,0,.28,1.09l.17.36a4.78,4.78,0,0,0,.38.63,1.39,1.39,0,0,0,.11.21s.11.1.17.16a3,3,0,0,0,.31.31c.12.1.23.21.36.3a4.42,4.42,0,0,0,.49.31l.33.18a5.8,5.8,0,0,0,.73.28.83.83,0,0,0,.22.08,6.21,6.21,0,0,0,1,.22l.11,0a9.25,9.25,0,0,0,1.19.09,12.18,12.18,0,0,0,2.57-.26.29.29,0,0,0,.1,0c.31-.06.62-.15.93-.24l.45-.13a54.3,54.3,0,0,0,13.36-7l1.7-1.15a73,73,0,0,1,8.07-5c.86-.41,1.78-.9,2.77-1.42l1.26-.65c6.62-3.45,16.43-8.17,34.23-11,1-.16,2-.32,3.12-.47l3.22-.45.17,1.19c1.7.24,3.42.49,5.18.76a120.42,120.42,0,0,0,18.8,1.79c6.11,0,11.78-4.33,17.28-8.53s10.58-8.09,16.37-8.09h1.05v-50h-1.05" transform="translate(-128.12 -125.76)"/></g><path class="cls-2" d="M190.1,304.83h6.53v-6.51H190.1v6.51" transform="translate(-128.12 -125.76)"/><path class="cls-2" d="M198.74,281.18l-4.64,4.61,4.64,4.6,4.6-4.6-4.6-4.61" transform="translate(-128.12 -125.76)"/><path class="cls-2" d="M199.89,269h-6.53v6.51h6.53V269" transform="translate(-128.12 -125.76)"/><g class="cls-6"><path class="cls-2" d="M300.26,242a35,35,0,1,0,35,35A35,35,0,0,0,300.26,242Zm0,63a28,28,0,1,1,28-28A28,28,0,0,1,300.28,305Z" transform="translate(-128.12 -125.76)"/></g><path class="cls-2" d="M302,259.51h-5.25v21l18.36,11,2.64-4.31L302,277.88Z" transform="translate(-128.12 -125.76)"/></svg>