<svg id="Livello_1" data-name="Livello 1" xmlns="http://www.w3.org/2000/svg" viewBox="0 0 40.93 36.7"><defs><style>.cls-1{fill:#cc0b36;}.cls-2{fill:#26325d;}</style></defs><path class="cls-1" d="M85.24,58.54a7.75,7.75,0,0,0-2-1,.51.51,0,0,0-.63.35v0a.57.57,0,0,0,.36.68,6.94,6.94,0,0,1,2.09,1.17.22.22,0,0,0,.31,0h0A.81.81,0,0,0,85.24,58.54Z" transform="translate(-54.71 -47.5)"/><path class="cls-1" d="M91.46,68.7a1.35,1.35,0,0,1-2.62-.29,1.39,1.39,0,0,1,.23-.91,1.54,1.54,0,0,0,.19-.17,10.22,10.22,0,0,0,2.49-3.8,12.57,12.57,0,0,0,.77-4.43,10.22,10.22,0,0,0-4.4-8.66c-2.7-1.92-6.46-2.94-10.88-2.94a19.79,19.79,0,0,0-10.69,3h0a.54.54,0,0,0-.24.45V51a9.81,9.81,0,0,0,1.79,5.61,1.69,1.69,0,0,1,.19,1.77l-1,2.07a.43.43,0,0,0,.2.57h0a.64.64,0,0,0,.86-.3l1.07-2.25a.43.43,0,0,1,.6-.2,7,7,0,0,0,2.68.78.53.53,0,0,1,.46.39l1.64,5.94a.42.42,0,0,1-.4.53h0a.47.47,0,0,0-.48.47v.11a.49.49,0,0,0,.49.49h2.41a.48.48,0,0,0,.48-.48v-.28a.31.31,0,0,0-.31-.31h0a1.23,1.23,0,0,1-1.18-.9l-1.64-5.93.22,0a.54.54,0,0,0,.5-.61h0a.52.52,0,0,0-.55-.45l-.46,0-1.75-6.31a.36.36,0,0,0-.67-.06l-2.1,4.44a.18.18,0,0,1-.3,0,8.07,8.07,0,0,1-1.62-4.06,1.27,1.27,0,0,1,.65-1.27,19,19,0,0,1,9.13-2.21c4.19,0,7.74.94,10.25,2.74a9.23,9.23,0,0,1,2.91,3.27,9.7,9.7,0,0,1,1,4.51,11.37,11.37,0,0,1-.7,4,9.27,9.27,0,0,1-2.23,3.41,10.44,10.44,0,0,1-4.05,2.34,17.93,17.93,0,0,1-6.17.72,13.84,13.84,0,0,1-6.35-1.76,10.5,10.5,0,0,1-4.58-5.09,6.12,6.12,0,0,0-2.31-3.18h0a.47.47,0,0,1-.12-.75,4.07,4.07,0,0,0,1.11-3,3.77,3.77,0,0,0-2-3.48,5.11,5.11,0,0,0-1.91-.6h0a.53.53,0,0,0-.58.53V68.23a1.36,1.36,0,0,1-1.24,1.37,1.35,1.35,0,0,1-1.45-1.34,1.37,1.37,0,0,1,1-1.3.52.52,0,0,0,.37-.5h0a.54.54,0,0,0-.7-.52,2.42,2.42,0,1,0,3.12,2.32V60.82a.44.44,0,0,1,.39-.43h0a2.24,2.24,0,0,1,1.5.14,5.21,5.21,0,0,1,1.84,2.65,11.53,11.53,0,0,0,5,5.61,14.75,14.75,0,0,0,6.81,1.9h0c.34,0,.67,0,1,0a18,18,0,0,0,5.55-.79,11.51,11.51,0,0,0,2-.83,1,1,0,0,1,1.29.38,2.42,2.42,0,0,0,4.45-.62.47.47,0,0,0-.45-.59h0A.63.63,0,0,0,91.46,68.7Zm-19-10.76a5.5,5.5,0,0,1-2-.67.42.42,0,0,1-.18-.55l1.19-2.51a.15.15,0,0,1,.28,0l1,3.44A.22.22,0,0,1,72.45,57.94Zm-9.81-4.1a.6.6,0,0,1,.89-.52h0A2.7,2.7,0,0,1,65,55.86a3,3,0,0,1-1.19,2.57l-.17.11a.62.62,0,0,1-1-.53Z" transform="translate(-54.71 -47.5)"/><path class="cls-1" d="M88.21,60.74a.49.49,0,0,0-.5-.39H87a.49.49,0,0,0-.54.44v0a.58.58,0,0,0,.24.52l.4.37a.93.93,0,0,1,.31.61A4.22,4.22,0,0,1,87,65.1a2,2,0,0,1-2.89,0,4.22,4.22,0,0,1-.42-2.79.93.93,0,0,1,.31-.62l.41-.37a.55.55,0,0,0,.23-.52v0a.5.5,0,0,0-.55-.44h-.7a.47.47,0,0,0-.51.35c-.25,1.06-.71,3.6.36,5a3,3,0,0,0,4.62,0C88.9,64.31,88.47,61.82,88.21,60.74Z" transform="translate(-54.71 -47.5)"/><path class="cls-1" d="M88,54.08c-4.16-2-7.4-2.4-9.63-1-2.66,1.6-2.83,5-2.84,5.24a8.22,8.22,0,0,0,1.72,6.17,6.23,6.23,0,0,0,4,2,.53.53,0,0,0,.57-.53V57.79a.53.53,0,0,0-.48-.54,13,13,0,0,0-3.49.17.53.53,0,0,0-.44.51v0a.49.49,0,0,0,.59.5,15.63,15.63,0,0,1,1.8-.2.89.89,0,0,1,.93,1v5.14a.66.66,0,0,1-.93.61,5,5,0,0,1-1-.59,5.06,5.06,0,0,1-1.62-2.07,8.82,8.82,0,0,1-.57-4v0s.12-3,2.32-4.36a5.16,5.16,0,0,1,3.14-.62,12.41,12.41,0,0,1,3.58.88c.38.16,1.31.66,1,1.59a.55.55,0,0,0,.27.73h0a.53.53,0,0,0,.7-.26l.66-1.49A.55.55,0,0,0,88,54.08Z" transform="translate(-54.71 -47.5)"/><path class="cls-2" d="M58.53,77.88h-.88a.12.12,0,0,1-.11-.07l-1-1.74a.08.08,0,0,0,0,0l-.12-.09a.12.12,0,0,1,0-.16v0a.12.12,0,0,1,.11-.07h.2a.69.69,0,0,0,.51-.18.63.63,0,0,0,.19-.49,1,1,0,0,0-.22-.65.77.77,0,0,0-.63-.26.82.82,0,0,0-.43.12.14.14,0,0,0-.06.11v3a.13.13,0,0,0,.09.12l.33.1a.13.13,0,0,1,.07.18l0,.06a.12.12,0,0,1-.11.07H54.84a.12.12,0,0,1-.12-.13v0a.14.14,0,0,1,.05-.1l.39-.32a.12.12,0,0,0,.05-.09V74.3a.14.14,0,0,0-.09-.12l-.32-.1a.12.12,0,0,1-.08-.17l0-.06a.14.14,0,0,1,.11-.07h.63c.31,0,.62,0,.92,0l.49,0a1.51,1.51,0,0,1,.65.14,1.12,1.12,0,0,1,.45.38,1,1,0,0,1,.15.54.94.94,0,0,1-.33.69,1.85,1.85,0,0,1-.48.35.12.12,0,0,0,0,.23h0a.13.13,0,0,1,.07,0l.71,1.2.06,0,.42.2a.12.12,0,0,1,.06.17l0,.08A.15.15,0,0,1,58.53,77.88Z" transform="translate(-54.71 -47.5)"/><path class="cls-2" d="M61,77.85l-.06,0a2.79,2.79,0,0,1-.55.05,1.2,1.2,0,0,1-.65-.18,1.31,1.31,0,0,1-.44-.49,1.46,1.46,0,0,1-.16-.69,1.23,1.23,0,0,1,.25-.75,1.91,1.91,0,0,1,.63-.57,1.55,1.55,0,0,1,.74-.21,1,1,0,0,1,.8.4,1.74,1.74,0,0,1,.28.93.15.15,0,0,1-.15.15H60.13a.15.15,0,0,0-.14.18,1.09,1.09,0,0,0,.21.46.62.62,0,0,0,.53.25A1.78,1.78,0,0,0,61.6,77a.15.15,0,0,1,.21,0h0a.14.14,0,0,1,0,.19Zm-.92-1.59h.79a.15.15,0,0,0,.15-.18,2.18,2.18,0,0,0-.06-.22.4.4,0,0,0-.17-.23.54.54,0,0,0-.33-.09c-.3,0-.48.19-.53.55A.15.15,0,0,0,60.11,76.26Z" transform="translate(-54.71 -47.5)"/><path class="cls-2" d="M64.2,77.87l0,0a.93.93,0,0,1-.31,0,.9.9,0,0,1-.68-.23A1,1,0,0,1,63,77V75.65a.13.13,0,0,0-.13-.13h-.3a.13.13,0,0,1-.13-.14v0a.12.12,0,0,1,0-.09l1-1.1a.13.13,0,0,1,.1,0h.06a.13.13,0,0,1,.13.13v.89a.13.13,0,0,0,.13.13h.67a.13.13,0,0,1,.14.13h0a.14.14,0,0,1-.14.14h-.67a.13.13,0,0,0-.13.13V77a.38.38,0,0,0,.1.3.41.41,0,0,0,.31.1.78.78,0,0,0,.21,0,.7.7,0,0,0,.14-.08.13.13,0,0,1,.18,0l0,0a.12.12,0,0,1,0,.17Z" transform="translate(-54.71 -47.5)"/><path class="cls-2" d="M66.59,77.88h-1.3a.15.15,0,0,1-.15-.15h0a.14.14,0,0,1,.06-.11l.35-.29a.14.14,0,0,0,.06-.11V76a.14.14,0,0,0-.07-.12l-.33-.23a.17.17,0,0,1-.07-.12v0a.16.16,0,0,1,.1-.14l.82-.32h.13a.15.15,0,0,1,.15.15v2.2a.16.16,0,0,0,.09.14l.22.08a.14.14,0,0,1,.08.2v0A.18.18,0,0,1,66.59,77.88Zm-.33-4.33a.45.45,0,0,1,.12.32.4.4,0,0,1-.09.25.61.61,0,0,1-.21.18.5.5,0,0,1-.25.07.38.38,0,0,1-.3-.13.41.41,0,0,1-.12-.31.4.4,0,0,1,.09-.25.53.53,0,0,1,.21-.18.47.47,0,0,1,.25-.07A.41.41,0,0,1,66.26,73.55Z" transform="translate(-54.71 -47.5)"/><path class="cls-2" d="M70.81,77.85l-.06,0a2.79,2.79,0,0,1-.55.05,1.2,1.2,0,0,1-.65-.18,1.31,1.31,0,0,1-.44-.49,1.46,1.46,0,0,1-.16-.69,1.23,1.23,0,0,1,.25-.75,1.91,1.91,0,0,1,.63-.57,1.55,1.55,0,0,1,.74-.21,1,1,0,0,1,.8.4,1.74,1.74,0,0,1,.28.93.15.15,0,0,1-.15.15H69.91a.15.15,0,0,0-.14.18,1.09,1.09,0,0,0,.21.46.62.62,0,0,0,.53.25,1.78,1.78,0,0,0,.87-.38.15.15,0,0,1,.21,0h0a.14.14,0,0,1,0,.19Zm-.92-1.59h.79a.15.15,0,0,0,.15-.18,2.18,2.18,0,0,0-.06-.22.4.4,0,0,0-.17-.23.54.54,0,0,0-.33-.09c-.3,0-.48.19-.53.55A.15.15,0,0,0,69.89,76.26Z" transform="translate(-54.71 -47.5)"/><path class="cls-2" d="M78.09,77.88h-1.5a.14.14,0,0,1-.14-.14h0a.14.14,0,0,1,.06-.12l.37-.25a.16.16,0,0,0,.05-.17l-.29-.71a.14.14,0,0,0-.13-.08H75a.13.13,0,0,0-.13.08l-.28.65a.15.15,0,0,0,.08.19l.59.23a.13.13,0,0,1,.07.19l0,0a.13.13,0,0,1-.12.08h-1.4a.15.15,0,0,1-.14-.14h0a.14.14,0,0,1,.06-.11l.43-.34a.12.12,0,0,0,0,0L75.57,74a.11.11,0,0,1,.08-.07l.5-.2a.14.14,0,0,1,.18.08l1.43,3.46a.11.11,0,0,0,.06.07l.37.21a.14.14,0,0,1,.06.18l0,.07A.13.13,0,0,1,78.09,77.88ZM75.64,74.7l-.52,1.21a.14.14,0,0,0,.13.2h1a.14.14,0,0,0,.13-.19l-.5-1.22A.14.14,0,0,0,75.64,74.7Z" transform="translate(-54.71 -47.5)"/><path class="cls-2" d="M79.85,76v1.33a.15.15,0,0,0,.1.14l.49.14a.14.14,0,0,1,.09.2l0,0a.15.15,0,0,1-.13.08H78.8a.15.15,0,0,1-.15-.15h0a.14.14,0,0,1,.06-.11l.35-.29a.14.14,0,0,0,.06-.11V76a.15.15,0,0,0-.07-.12l-.33-.2a.14.14,0,0,1-.07-.12v0a.14.14,0,0,1,.09-.13l.73-.34a.15.15,0,0,1,.2.1l.06.21a.14.14,0,0,0,.24.06l.32-.32.06,0a.78.78,0,0,1,.24,0,.67.67,0,0,1,.37.11.55.55,0,0,1,.18.19.15.15,0,0,1,0,.17l-.31.38a.13.13,0,0,1-.11.06h-.06a.16.16,0,0,1-.14-.11.28.28,0,0,0-.05-.11.17.17,0,0,0-.14-.06h0a.66.66,0,0,0-.42.19A.16.16,0,0,0,79.85,76Z" transform="translate(-54.71 -47.5)"/><path class="cls-2" d="M83.66,75.1l.34.09a.14.14,0,0,1,.09.14V76a.15.15,0,0,1-.15.15h0A.14.14,0,0,1,83.8,76a1.69,1.69,0,0,0-.41-.35,1.1,1.1,0,0,0-.54-.15.38.38,0,0,0-.34.2,1.3,1.3,0,0,0-.11.58,1.46,1.46,0,0,0,.2.78.65.65,0,0,0,.57.31,1.65,1.65,0,0,0,.77-.31.15.15,0,0,1,.21,0h0a.15.15,0,0,1,0,.2l-.65.51-.06,0a2.76,2.76,0,0,1-.54.05,1.17,1.17,0,0,1-.64-.18,1.25,1.25,0,0,1-.45-.49,1.46,1.46,0,0,1-.16-.69,1.35,1.35,0,0,1,.23-.75,1.88,1.88,0,0,1,.59-.57,1.37,1.37,0,0,1,.69-.21A2.69,2.69,0,0,1,83.66,75.1Z" transform="translate(-54.71 -47.5)"/><path class="cls-2" d="M88,77.88h-.83a.15.15,0,0,1-.15-.15V76.16a.71.71,0,0,0-.08-.39.35.35,0,0,0-.29-.1.89.89,0,0,0-.32,0,1.62,1.62,0,0,0-.29.15A.14.14,0,0,0,86,76v1.35a.16.16,0,0,0,.09.14l.23.08a.15.15,0,0,1,.08.2l0,0a.18.18,0,0,1-.13.08h-1.3a.15.15,0,0,1-.14-.15h0a.16.16,0,0,1,0-.11l.36-.29a.16.16,0,0,0,0-.11V74.3a.14.14,0,0,0-.06-.12L84.85,74a.14.14,0,0,1-.06-.12v0a.13.13,0,0,1,.09-.13l.82-.32h.14a.14.14,0,0,1,.14.14v1.84a.14.14,0,0,0,.23.11l.41-.32,0,0a.79.79,0,0,1,.28,0,.77.77,0,0,1,.59.22.76.76,0,0,1,.22.58v1.5a.15.15,0,0,0,.1.14l.22.08a.14.14,0,0,1,.08.2l0,0A.15.15,0,0,1,88,77.88Z" transform="translate(-54.71 -47.5)"/><path class="cls-2" d="M90.13,77.88h-1.3a.15.15,0,0,1-.14-.15h0a.16.16,0,0,1,0-.11l.36-.29a.16.16,0,0,0,.05-.11V76a.13.13,0,0,0-.06-.12l-.34-.23a.16.16,0,0,1-.06-.12v0a.17.17,0,0,1,.09-.14l.83-.32h.13a.15.15,0,0,1,.14.15v2.2a.15.15,0,0,0,.1.14l.22.08a.14.14,0,0,1,.08.2l0,0A.15.15,0,0,1,90.13,77.88Zm-.33-4.33a.45.45,0,0,1,.12.32.39.39,0,0,1-.08.25.65.65,0,0,1-.22.18.44.44,0,0,1-.24.07.4.4,0,0,1-.31-.13.41.41,0,0,1-.12-.31.4.4,0,0,1,.09-.25.72.72,0,0,1,.21-.18.5.5,0,0,1,.25-.07A.41.41,0,0,1,89.8,73.55Z" transform="translate(-54.71 -47.5)"/><path class="cls-2" d="M93.71,75.34l-1.26,2.44a.18.18,0,0,1-.15.1H92a.19.19,0,0,1-.16-.11L91.13,76a.22.22,0,0,0-.07-.09l-.36-.2a.18.18,0,0,1-.09-.15h0a.16.16,0,0,1,.1-.15l.71-.31a.17.17,0,0,1,.24.11l.14.58v0l.46,1.12a.17.17,0,0,0,.31,0L93,76a.17.17,0,0,0-.05-.22l-.48-.33a.19.19,0,0,1-.06-.22l0,0a.18.18,0,0,1,.15-.1h.94a.17.17,0,0,1,.17.18h0A.1.1,0,0,1,93.71,75.34Z" transform="translate(-54.71 -47.5)"/><path class="cls-2" d="M95.48,77.88h-1.3a.15.15,0,0,1-.15-.15h0a.14.14,0,0,1,.06-.11l.35-.29a.14.14,0,0,0,.06-.11V76a.16.16,0,0,0-.06-.12l-.34-.23A.17.17,0,0,1,94,75.5v0a.16.16,0,0,1,.1-.14L95,75h.13a.15.15,0,0,1,.15.15v2.2a.16.16,0,0,0,.09.14l.22.08a.14.14,0,0,1,.08.2v0A.18.18,0,0,1,95.48,77.88Zm-.33-4.33a.45.45,0,0,1,.12.32.4.4,0,0,1-.09.25.53.53,0,0,1-.21.18.5.5,0,0,1-.25.07.38.38,0,0,1-.3-.13.41.41,0,0,1-.12-.31.4.4,0,0,1,.09-.25.53.53,0,0,1,.21-.18.5.5,0,0,1,.25-.07A.41.41,0,0,1,95.15,73.55Z" transform="translate(-54.71 -47.5)"/><path class="cls-2" d="M64.21,84.09h-.87a.12.12,0,0,1-.12-.12h0a.13.13,0,0,0-.2-.1l-.27.22,0,0a1.9,1.9,0,0,1-.37,0,1.07,1.07,0,0,1-.61-.18,1.2,1.2,0,0,1-.43-.49,1.59,1.59,0,0,1-.16-.69,1.29,1.29,0,0,1,.26-.76,2,2,0,0,1,.63-.56,1.52,1.52,0,0,1,.74-.21.93.93,0,0,1,.29,0,.12.12,0,0,0,.17-.11v-.69a.14.14,0,0,0-.06-.11l-.35-.24a.12.12,0,0,1-.05-.1V80a.12.12,0,0,1,.07-.11l.85-.33h.14a.13.13,0,0,1,.13.13v3.9a.12.12,0,0,0,.08.12l.26.1a.12.12,0,0,1,.07.17l0,.06A.11.11,0,0,1,64.21,84.09Zm-1.29-.54a1.12,1.12,0,0,0,.24-.1.14.14,0,0,0,.06-.11v-1a.59.59,0,0,0-.23-.38.87.87,0,0,0-.54-.15c-.36,0-.53.26-.53.79a1.49,1.49,0,0,0,.18.75.57.57,0,0,0,.52.3h0A1,1,0,0,0,62.92,83.55Z" transform="translate(-54.71 -47.5)"/><path class="cls-2" d="M66.82,84.07l0,0a3,3,0,0,1-.56.05,1.17,1.17,0,0,1-.64-.18,1.33,1.33,0,0,1-.45-.49,1.46,1.46,0,0,1-.16-.69,1.28,1.28,0,0,1,.25-.76,2,2,0,0,1,.63-.56,1.55,1.55,0,0,1,.74-.21.92.92,0,0,1,.8.4,1.74,1.74,0,0,1,.28.93.15.15,0,0,1-.15.15H65.92a.14.14,0,0,0-.14.17,1.13,1.13,0,0,0,.21.47.64.64,0,0,0,.53.24,1.75,1.75,0,0,0,.87-.37.15.15,0,0,1,.21,0h0a.15.15,0,0,1,0,.19Zm-.92-1.6h.8a.14.14,0,0,0,.14-.17c0-.09,0-.17-.06-.23a.48.48,0,0,0-.17-.23.59.59,0,0,0-.33-.08c-.3,0-.48.18-.53.55A.14.14,0,0,0,65.9,82.47Z" transform="translate(-54.71 -47.5)"/><path class="cls-2" d="M69.7,84.09H68.4a.14.14,0,0,1-.14-.14h0a.13.13,0,0,1,0-.11l.36-.29a.16.16,0,0,0,0-.11V80.52a.13.13,0,0,0-.06-.12l-.34-.23a.16.16,0,0,1-.06-.12v0a.15.15,0,0,1,.09-.14l.82-.32h.14a.15.15,0,0,1,.14.15v3.87a.16.16,0,0,0,.1.14l.22.08a.14.14,0,0,1,.08.2l0,0A.16.16,0,0,1,69.7,84.09Z" transform="translate(-54.71 -47.5)"/><path class="cls-2" d="M75.85,83.27l.06.1a.17.17,0,0,1,0,.2l-.83.5,0,0a2.17,2.17,0,0,1-.43.08,3.33,3.33,0,0,1-.46,0A2,2,0,0,1,73,83.93a1.87,1.87,0,0,1-.72-.73,2.16,2.16,0,0,1-.25-1.06A1.83,1.83,0,0,1,72.45,81a2.79,2.79,0,0,1,1-.82,2.33,2.33,0,0,1,1.08-.3,4.26,4.26,0,0,1,.72.08,4.62,4.62,0,0,1,.51.13.15.15,0,0,1,.09.14v.85a.15.15,0,0,1-.14.15h-.1a.15.15,0,0,1-.12-.07,1.44,1.44,0,0,0-1.26-.78,1.19,1.19,0,0,0-.66.2,1.3,1.3,0,0,0-.45.53,1.62,1.62,0,0,0-.17.77,2.36,2.36,0,0,0,.16.9,1.41,1.41,0,0,0,.5.65,1.32,1.32,0,0,0,.83.25h.35l.21,0a.13.13,0,0,0,.11-.14v-.94a.14.14,0,0,0-.11-.14l-.53-.14a.14.14,0,0,1-.09-.2v0a.13.13,0,0,1,.13-.08h1.71a.15.15,0,0,1,.15.14h0a.11.11,0,0,1-.06.11l-.38.32a.14.14,0,0,0-.06.11v.54A.25.25,0,0,0,75.85,83.27Z" transform="translate(-54.71 -47.5)"/><path class="cls-2" d="M80,84.09h-.81a.16.16,0,0,1-.16-.16h0a.16.16,0,0,0-.26-.12l-.34.27a.05.05,0,0,1,0,0,1,1,0,0,1-.27,0,.81.81,0,0,1-.59-.22.78.78,0,0,1-.22-.59v-1.1a.16.16,0,0,0-.08-.14l-.3-.17a.17.17,0,0,1-.08-.14v0a.16.16,0,0,1,.09-.15l.82-.38.07,0h0a.16.16,0,0,1,.16.16V83a.69.69,0,0,0,.08.38.37.37,0,0,0,.29.11,1,1,0,0,0,.3,0,1.21,1.21,0,0,0,.26-.15.17.17,0,0,0,.07-.13v-1a.16.16,0,0,0-.08-.14l-.3-.17a.17.17,0,0,1-.08-.14v0a.16.16,0,0,1,.09-.15l.82-.38.07,0h0a.16.16,0,0,1,.16.16v2.17a.15.15,0,0,0,.11.15l.19.07a.16.16,0,0,1,.09.22h0A.14.14,0,0,1,80,84.09Z" transform="translate(-54.71 -47.5)"/><path class="cls-2" d="M82.15,83.25a3.2,3.2,0,0,0-.47-.28,4,4,0,0,1-.62-.4.49.49,0,0,1-.22-.4.71.71,0,0,1,.17-.41,1.44,1.44,0,0,1,.41-.36.93.93,0,0,1,.44-.14,3.26,3.26,0,0,1,.58.06l.38.09a.15.15,0,0,1,.1.15v.56a.16.16,0,0,1-.15.16h0a.16.16,0,0,1-.14-.08,1.22,1.22,0,0,0-.32-.38.69.69,0,0,0-.43-.17.27.27,0,0,0-.22.08.23.23,0,0,0-.09.18.36.36,0,0,0,.16.26,3.51,3.51,0,0,0,.49.29l.43.25a2,2,0,0,1,.27.23.43.43,0,0,1,.11.3.61.61,0,0,1-.17.4,1.82,1.82,0,0,1-.42.36.92.92,0,0,1-.46.15,4.11,4.11,0,0,1-.64-.06,2.23,2.23,0,0,1-.41-.1.15.15,0,0,1-.11-.15v-.57a.16.16,0,0,1,.16-.16h0a.17.17,0,0,1,.13.07,1.48,1.48,0,0,0,.37.41.86.86,0,0,0,.49.16.36.36,0,0,0,.24-.07.26.26,0,0,0,.09-.19A.33.33,0,0,0,82.15,83.25Z" transform="translate(-54.71 -47.5)"/><path class="cls-2" d="M85.32,84.09l0,0a1.37,1.37,0,0,1-.31,0,.9.9,0,0,1-.68-.23,1,1,0,0,1-.21-.7V81.87a.13.13,0,0,0-.13-.14h-.3a.13.13,0,0,1-.13-.13v-.06a.11.11,0,0,1,0-.08l1-1.1a.13.13,0,0,1,.1,0h.06a.13.13,0,0,1,.13.13v.88a.13.13,0,0,0,.13.14h.67a.13.13,0,0,1,.14.13h0a.13.13,0,0,1-.14.13h-.67a.13.13,0,0,0-.13.14v1.37a.38.38,0,0,0,.1.3.46.46,0,0,0,.31.09.76.76,0,0,0,.21,0l.14-.08a.13.13,0,0,1,.18,0l0,0a.13.13,0,0,1,0,.17Z" transform="translate(-54.71 -47.5)"/><path class="cls-2" d="M88.54,81.44a1.25,1.25,0,0,1,.45.49,1.51,1.51,0,0,1,.16.68,1.29,1.29,0,0,1-.26.76,1.88,1.88,0,0,1-.63.56,1.53,1.53,0,0,1-.74.22,1.17,1.17,0,0,1-.64-.18,1.22,1.22,0,0,1-.44-.49,1.47,1.47,0,0,1-.17-.69,1.29,1.29,0,0,1,.26-.76,2,2,0,0,1,.63-.56,1.51,1.51,0,0,1,.73-.21A1.2,1.2,0,0,1,88.54,81.44ZM87.2,82a1,1,0,0,0-.13.58,1.47,1.47,0,0,0,.19.79.64.64,0,0,0,.57.31c.35,0,.53-.26.53-.79a1.47,1.47,0,0,0-.15-.69.71.71,0,0,0-.64-.4A.42.42,0,0,0,87.2,82Z" transform="translate(-54.71 -47.5)"/></svg>