<svg id="Livello_1" data-name="Livello 1" xmlns="http://www.w3.org/2000/svg" viewBox="0 0 34.77 23.19"><defs><style>.cls-1{fill:#cc0b36;}</style></defs><path class="cls-1" d="M30.57,17.79a8.32,8.32,0,0,0-2-1,.52.52,0,0,0-.63.35h0a.56.56,0,0,0,.36.68A7.16,7.16,0,0,1,30.39,19a.21.21,0,0,0,.31,0h0a.81.81,0,0,0-.06-1.14Z" transform="translate(-3.08 -6.75)"/><path class="cls-1" d="M36.79,28a1.35,1.35,0,0,1-2.62-.29,1.4,1.4,0,0,1,.23-.91,1,1,0,0,0,.19-.17,10.29,10.29,0,0,0,2.49-3.8,12.56,12.56,0,0,0,.77-4.43,10.23,10.23,0,0,0-4.4-8.66C30.75,7.77,27,6.75,22.57,6.75a19.77,19.77,0,0,0-10.69,3h0a.54.54,0,0,0-.24.45v.05a9.79,9.79,0,0,0,1.79,5.61,1.7,1.7,0,0,1,.19,1.77l-1,2.07a.43.43,0,0,0,.2.57h0a.64.64,0,0,0,.86-.29h0l1.07-2.25a.43.43,0,0,1,.57-.21h0A6.8,6.8,0,0,0,18,18.3a.55.55,0,0,1,.46.39l1.64,5.94a.42.42,0,0,1-.3.52h-.1a.47.47,0,0,0-.48.46h0v.11a.48.48,0,0,0,.49.49h2.41a.48.48,0,0,0,.48-.48h0v-.28a.31.31,0,0,0-.31-.31h0a1.23,1.23,0,0,1-1.18-.9L19.5,18.33h.22a.52.52,0,0,0,.5-.57v0h0a.53.53,0,0,0-.55-.45h-.46L17.46,11a.36.36,0,0,0-.45-.24.33.33,0,0,0-.22.18l-2.1,4.44a.18.18,0,0,1-.25.06l0-.06a8,8,0,0,1-1.62-4.06A1.26,1.26,0,0,1,13.42,10,19.21,19.21,0,0,1,22.55,7.8c4.19,0,7.74.94,10.25,2.74a9.42,9.42,0,0,1,2.91,3.27,9.81,9.81,0,0,1,1,4.51,11.35,11.35,0,0,1-.7,4,9.14,9.14,0,0,1-2.23,3.41,10.38,10.38,0,0,1-4.05,2.34,17.65,17.65,0,0,1-6.17.72A13.73,13.73,0,0,1,17.21,27a10.42,10.42,0,0,1-4.58-5.09,6.15,6.15,0,0,0-2.31-3.18h0a.48.48,0,0,1-.21-.63A.94.94,0,0,1,10.2,18a4.1,4.1,0,0,0,1.11-3,3.77,3.77,0,0,0-2-3.48,5.33,5.33,0,0,0-1.91-.6h0a.54.54,0,0,0-.58.48V27.48a1.35,1.35,0,0,1-2.69.13v-.1a1.38,1.38,0,0,1,1-1.3.52.52,0,0,0,.37-.5h0A.54.54,0,0,0,5,25.17l-.16,0a2.42,2.42,0,1,0,3.12,2.32V20.07a.44.44,0,0,1,.39-.43h0a2.35,2.35,0,0,1,1.5.14,5.25,5.25,0,0,1,1.84,2.65,11.44,11.44,0,0,0,5,5.61,14.67,14.67,0,0,0,6.81,1.9h1A17.71,17.71,0,0,0,30,29.15a11.25,11.25,0,0,0,2-.83,1,1,0,0,1,1.29.38,2.42,2.42,0,0,0,4.45-.62.47.47,0,0,0-.34-.57l-.11,0h0A.62.62,0,0,0,36.79,28Zm-19-10.76a5.5,5.5,0,0,1-2-.67.41.41,0,0,1-.18-.55l1.19-2.51a.15.15,0,0,1,.19-.08.14.14,0,0,1,.09.08l1,3.44a.23.23,0,0,1-.11.3.19.19,0,0,1-.19,0ZM8,13.09a.59.59,0,0,1,.6-.59.73.73,0,0,1,.29.07h0a2.72,2.72,0,0,1,1.46,2.54,3,3,0,0,1-1.19,2.57L9,17.79a.61.61,0,0,1-.87-.1A.6.6,0,0,1,8,17.26Z" transform="translate(-3.08 -6.75)"/><path class="cls-1" d="M33.54,20a.5.5,0,0,0-.5-.39h-.71a.5.5,0,0,0-.54.44h0a.55.55,0,0,0,.24.52l.4.37a.93.93,0,0,1,.31.61,4.21,4.21,0,0,1-.41,2.81,2,2,0,0,1-2.83.07l-.06-.07A4.15,4.15,0,0,1,29,21.56a1,1,0,0,1,.31-.62l.41-.37a.54.54,0,0,0,.23-.52h0a.51.51,0,0,0-.55-.44h-.7a.49.49,0,0,0-.51.35c-.25,1.06-.71,3.6.36,5a3,3,0,0,0,4.22.4,2.52,2.52,0,0,0,.4-.4C34.23,23.56,33.8,21.07,33.54,20Z" transform="translate(-3.08 -6.75)"/><path class="cls-1" d="M33.33,13.33c-4.16-2-7.4-2.4-9.63-1-2.66,1.6-2.83,5-2.84,5.24a8.15,8.15,0,0,0,1.72,6.17,6.17,6.17,0,0,0,4,2,.52.52,0,0,0,.57-.48V17a.53.53,0,0,0-.48-.54,13.16,13.16,0,0,0-3.49.17.53.53,0,0,0-.44.51h0a.49.49,0,0,0,.47.51.25.25,0,0,0,.12,0,18,18,0,0,1,1.8-.2.89.89,0,0,1,.93.85.38.38,0,0,1,0,.15v5.14a.66.66,0,0,1-.65.67.67.67,0,0,1-.28-.06,4.39,4.39,0,0,1-1-.59,5,5,0,0,1-1.62-2.07,8.8,8.8,0,0,1-.57-4h0s.12-3,2.32-4.36a5.19,5.19,0,0,1,3.14-.62,12.6,12.6,0,0,1,3.58.88c.38.16,1.31.66,1,1.59a.54.54,0,0,0,.27.73h0a.53.53,0,0,0,.7-.26L33.61,14A.56.56,0,0,0,33.33,13.33Z" transform="translate(-3.08 -6.75)"/></svg>