<svg id="Livello_1" data-name="Livello 1" xmlns="http://www.w3.org/2000/svg" viewBox="0 0 156.62 97.95"><defs><style>.cls-1{fill:#cc0b36;}.cls-2{fill:#332421;}.cls-3{opacity:0.85;}.cls-4{fill:#110a0c;}.cls-5{fill:#fff;}</style></defs><path class="cls-1" d="M710.29,380.67a32,32,0,0,0,20.57-18.8,40.89,40.89,0,0,0,2.7-12.93,42.11,42.11,0,0,1-1.51,10.53,32.86,32.86,0,0,1-16.41,20.37,28.52,28.52,0,0,1-5,2.1l-.31-1.27Z" transform="translate(-600.07 -338.82)"/><path class="cls-2" d="M713.8,388.64c-.53-.57-1.12-1.08-1.67-1.61l-.88-.76-.43-.38-.45-.37-.9-.73-.92-.69-.46-.35-.48-.34-.94-.65c-.65-.43-1.31-.86-2-1.25l-1-.6-1-.6c-1.36-.73-2.73-1.43-4.15-2L698,378l-.53-.22-1.07-.43c-.73-.27-1.45-.55-2.18-.79l-2.22-.68c-.74-.22-1.49-.4-2.25-.56a32,32,0,0,0-4.57-.72c-.39,0-.77-.05-1.15-.08l-1.16-.05c-.77-.06-1.54-.05-2.31-.07h-2.31l-1.16,0h-.57l-.58,0-2.31.16-2.3.26-.57.07-.57.08-2.29.36-1.13.23-1.14.23c-.38.08-.76.14-1.13.25l-2.24.56c-.38.09-.75.2-1.12.31l-1.11.34-1.11.33-1.09.38-2.18.77-2.15.88c-.35.14-.72.28-1.06.43l-1.05.49-2.1,1-2.06,1.06-1,.54-1,.58-2,1.22c-.66.4-1.31.83-2,1.25l-1,.65-.48.31-.47.34-1.89,1.34-3.73,2.61-1.87,1.22-1,.62-1,.56a41.5,41.5,0,0,1-8.19,3.74l-.26.09-.27.07-.54.15-1.08.29-1.09.22-.55.1-.55.07-.55.07a4.89,4.89,0,0,1-.55.05l-1.1.05h-1.09a9.81,9.81,0,0,1-1.09-.1,7.76,7.76,0,0,1-1.07-.2l-.53-.13-.56-.16c-.36-.1-.74-.2-1.13-.29s-.79-.16-1.19-.21a9.2,9.2,0,0,0-2-.08,2.07,2.07,0,0,0-.5,0,4.64,4.64,0,0,0-.65.11c-.21,0-.42.1-.63.15a4.92,4.92,0,0,0-.6.23l-.29.14-.28.15a5.73,5.73,0,0,0-1.88,1.75,7.86,7.86,0,0,0-1.06,2.25c-.12.39-.2.79-.28,1.18a8,8,0,0,0-.17,1.18,18.79,18.79,0,0,0-.1,2.37,12.63,12.63,0,0,0,.23,2.38,8,8,0,0,0,.79,2.34,5.34,5.34,0,0,0,.7,1,5,5,0,0,0,.45.47l.25.2.26.2a2.61,2.61,0,0,0,.28.17l.28.16c.2.09.39.19.59.26a5.47,5.47,0,0,0,1.06.26l.17,0,.47,0a8.66,8.66,0,0,0,2-.11,14.31,14.31,0,0,0,2.3-.65c.38-.14.74-.28,1.1-.45.18-.07.37-.16.52-.21a4.09,4.09,0,0,1,.49-.18,7.57,7.57,0,0,1,2.12-.27,12.6,12.6,0,0,1,2.21.19c.36.05.73.13,1.09.21s.73.16,1.1.26a39.72,39.72,0,0,1,4.26,1.48,74.28,74.28,0,0,1,8.2,3.92c1.31.74,2.62,1.52,3.93,2.32.65.42,1.27.83,1.9,1.26s1.23.86,1.87,1.31a68.7,68.7,0,0,0,8,4.72c1.37.7,2.77,1.35,4.18,2s2.85,1.19,4.3,1.72a78.19,78.19,0,0,0,8.86,2.61,74,74,0,0,0,18.34,1.92c.78,0,1.55-.05,2.32-.08.38,0,.76-.05,1.15-.07l1.15-.08a11.37,11.37,0,0,0,1.16-.11l1.15-.13a7.47,7.47,0,0,0,1.14-.17l1.15-.18a41.14,41.14,0,0,0,8.9-2.61c.71-.32,1.42-.61,2.11-1l1-.53,1.06-.52.51-.29.49-.3,1-.66,1-.65.94-.65.92-.72c.31-.23.6-.49.89-.74.61-.5,1.16-1,1.73-1.57l.82-.82.4-.42.4-.43.77-.87.74-.91a39.06,39.06,0,0,0,2.68-3.82A34.76,34.76,0,0,0,720,414.3c.18-.43.36-.87.53-1.31s.24-.65.36-1c.23-.7.44-1.4.61-2.13a18.55,18.55,0,0,0,.54-4.76,25.45,25.45,0,0,0-.89-4.65c-.12-.38-.26-.75-.38-1.13l-.17-.47v-.08l-.23-.54-.18-.4-.06-.15c-.08-.17-.15-.36-.24-.53l-.53-1.05a3.15,3.15,0,0,0-.28-.51l-.29-.51-.3-.51c-.1-.17-.21-.32-.31-.49l-.66-1-.69-.94c-.22-.32-.48-.62-.72-.92l-.38-.46a5.07,5.07,0,0,0-.37-.44l-.8-.86C714.34,389.18,714.06,388.92,713.8,388.64Zm-.59.56a29.64,29.64,0,0,1,5.1,7.41l.47,1c.08.17.13.35.2.52l.2.53.19.52.16.54.06.19c.09.3.18.58.25.87a23.18,23.18,0,0,1,.66,4.38v1.07a9.81,9.81,0,0,1-.08,1.09,16.19,16.19,0,0,1-.34,2.18c-.16.73-.35,1.46-.58,2.18s-.48,1.4-.75,2.09a32.61,32.61,0,0,1-4.47,7.79l-.7.89-.74.85-.37.43-.39.41c-.26.27-.51.55-.78.81-.55.52-1.08,1-1.66,1.54-.29.24-.56.5-.87.73l-.85.7c-.29.23-.6.44-.91.65l-.93.66-1,.6-.49.3-.49.28-1,.56-1,.5a20.31,20.31,0,0,1-2.06.95,40.22,40.22,0,0,1-8.68,2.54l-1.12.18c-.38.06-.75.13-1.13.16l-1.12.12c-.38,0-.75.1-1.13.11l-1.14.08c-.38,0-.76.07-1.14.07-.76,0-1.51.07-2.28.08a73.11,73.11,0,0,1-26.79-4.61c-1.42-.53-2.83-1.09-4.22-1.71s-2.76-1.27-4.11-2a70.21,70.21,0,0,1-7.81-4.69c-.62-.43-1.24-.9-1.88-1.31s-1.31-.86-2-1.31c-1.31-.83-2.62-1.62-4-2.37s-2.71-1.47-4.11-2.14-2.81-1.31-4.26-1.84a40.65,40.65,0,0,0-4.44-1.37c-.38-.1-.77-.18-1.15-.26a8.92,8.92,0,0,0-1.15-.2,14.58,14.58,0,0,0-2.37-.2,7.82,7.82,0,0,0-2.41.31,3,3,0,0,0-.6.21c-.21.07-.36.15-.53.22-.34.14-.66.28-1,.4a11.11,11.11,0,0,1-2.13.55,9.24,9.24,0,0,1-.92.1h0a6.89,6.89,0,0,1-1.2-.05h-.18a4.4,4.4,0,0,1-.81-.22,3.82,3.82,0,0,1-.46-.21l-.21-.12a.77.77,0,0,1-.21-.14l-.21-.14-.18-.17a4,4,0,0,1-.9-1.22h0a7.32,7.32,0,0,1-.65-2,12.27,12.27,0,0,1-.19-2.18,20.64,20.64,0,0,1,.12-2.22c0-.36.11-.72.16-1.08a9.34,9.34,0,0,1,.27-1,7.29,7.29,0,0,1,.57-1.35,4,4,0,0,1,.33-.53,4.3,4.3,0,0,1,1.47-1.31l.22-.12.23-.1a3.75,3.75,0,0,1,.47-.17,5.18,5.18,0,0,1,1-.2h.06a7.5,7.5,0,0,1,1.34,0,6.87,6.87,0,0,1,.78.08,10.32,10.32,0,0,1,1.06.21c.36.08.71.18,1.09.29l.54.15.58.15c.39.1.79.16,1.19.23a16.57,16.57,0,0,0,4.77,0l.58-.07.59-.12,1.16-.22,1.13-.31.57-.15.29-.08.27-.09a41.7,41.7,0,0,0,8.46-3.93l1-.58,1-.65c.65-.43,1.31-.84,2-1.26l3.75-2.7,1.85-1.31.46-.33L641,388l1-.66c.66-.41,1.27-.83,1.91-1.24l2-1.16,1-.58,1-.53,2-1.07c.65-.33,1.36-.65,2-1l1-.48c.34-.16.69-.3,1.05-.45l2.1-.87,2.13-.78,1.08-.38,1.08-.34,1.09-.33a10.45,10.45,0,0,1,1.09-.32l2.2-.58c.37-.1.75-.17,1.11-.25l1.12-.24,1.11-.24,1.13-.18,1.12-.19.56-.09.57-.07,2.26-.27,2.27-.18.56,0h.57l1.14,0,1.14,0h1.14c.76,0,1.52,0,2.28,0l1.13.05a6.18,6.18,0,0,1,1.14.07c.37.06.75.06,1.13.1l1.12.14c.75.13,1.49.25,2.23.42l2.21.52c.73.18,1.46.41,2.18.65l2.15.76,1.06.41.52.21.52.23c1.4.59,2.76,1.27,4.11,2l1,.56c.34.18.66.38,1,.57.66.38,1.31.81,2,1.21a38.94,38.94,0,0,1,3.65,2.73l.44.37.42.37.84.77c.52.53,1.08,1.05,1.58,1.61Z" transform="translate(-600.07 -338.82)"/><path class="cls-2" d="M604.3,400.76a2.6,2.6,0,0,0-1.85.7,6.74,6.74,0,0,0-2,4.83v.82a7.43,7.43,0,0,0,.82,3.13,4.16,4.16,0,0,0,.82,1.09,2.65,2.65,0,0,0,1.72.77,2.78,2.78,0,0,0,2-.81,6.84,6.84,0,0,0,1.82-4.73C607.78,403.38,606.31,400.83,604.3,400.76Zm2.35,5.76c-.09,2.53-1.35,4.58-2.74,4.58a2.16,2.16,0,0,1-1.69-1.31,6.75,6.75,0,0,1-.7-3.42,6,6,0,0,1,1.51-4,1.69,1.69,0,0,1,1.23-.52C605.65,401.83,606.75,404,606.65,406.52Z" transform="translate(-600.07 -338.82)"/><path class="cls-2" d="M616.64,405.67a15.22,15.22,0,0,0,2.43.2,16.4,16.4,0,0,0,2.43-.24c.8-.14,1.6-.31,2.4-.49a20.73,20.73,0,0,0,2.33-.68,18,18,0,0,0,4.23-2.34,32,32,0,0,0,3.68-3.19c1.14-1.16,2.18-2.42,3.23-3.68.27-.32.52-.66.8-.95a6,6,0,0,1,.42-.46l.43-.45c.59-.58,1.2-1.13,1.83-1.66a46.39,46.39,0,0,1,8.19-5.47,53,53,0,0,0-7.95,5.74c-.62.54-1.21,1.1-1.78,1.68l-.41.45-.4.45c-.26.31-.52.66-.78.95-1,1.27-2.07,2.56-3.22,3.74-.58.6-1.19,1.17-1.81,1.71-.31.27-.65.53-.94.8l-.49.38a5.86,5.86,0,0,1-.5.37,16.29,16.29,0,0,1-6.78,3c-.81.16-1.61.3-2.43.41-.42,0-.83.08-1.24.1a8.55,8.55,0,0,1-1.24,0A11.72,11.72,0,0,1,616.64,405.67Z" transform="translate(-600.07 -338.82)"/><path class="cls-2" d="M683.3,378.72a45.19,45.19,0,0,1,4.79.35,47.23,47.23,0,0,1,4.72.88,45.53,45.53,0,0,1,4.58,1.38c.75.26,1.51.53,2.25.82.38.14.75.3,1.12.45s.74.32,1.1.49a29,29,0,0,1,7.9,5.43,28.71,28.71,0,0,1,5.64,7.74,31.28,31.28,0,0,0-2.62-4,29.91,29.91,0,0,0-3.2-3.55c-.29-.26-.57-.54-.88-.79s-.6-.53-.91-.77l-.47-.37-.47-.36-.49-.35-.49-.34c-.65-.45-1.31-.85-2-1.25s-1.4-.75-2.13-1.08c-.35-.18-.73-.33-1.08-.49s-.74-.31-1.11-.46c-.74-.29-1.48-.56-2.24-.83s-1.51-.52-2.26-.76-1.53-.45-2.3-.65c-1.54-.4-3.11-.72-4.69-1S684.9,378.82,683.3,378.72Z" transform="translate(-600.07 -338.82)"/><path class="cls-2" d="M696.62,382.86a20.22,20.22,0,0,1,3.47,1.25,23.24,23.24,0,0,1,6.13,4.1,20.66,20.66,0,0,1,2.48,2.73,35.19,35.19,0,0,0-2.65-2.53c-.47-.4-.94-.79-1.43-1.15s-1-.73-1.48-1.06a30.32,30.32,0,0,0-3.16-1.85A33.63,33.63,0,0,0,696.62,382.86Z" transform="translate(-600.07 -338.82)"/><path class="cls-2" d="M717.31,410.22a14.52,14.52,0,0,0,.51-5c0-.42-.08-.83-.15-1.24s-.16-.82-.27-1.23a15.61,15.61,0,0,0-.83-2.38,9.89,9.89,0,0,1,1.09,2.3,11.48,11.48,0,0,1,.5,2.52,10.53,10.53,0,0,1-.12,2.57A9.6,9.6,0,0,1,717.31,410.22Z" transform="translate(-600.07 -338.82)"/><path class="cls-2" d="M716.7,409c0-.66,0-1.26,0-1.88s-.08-1.24-.17-1.86-.21-1.22-.34-1.83-.32-1.21-.5-1.81a9.52,9.52,0,0,1,.75,1.74,11.91,11.91,0,0,1,.42,1.86,10.9,10.9,0,0,1,.11,1.89A10,10,0,0,1,716.7,409Z" transform="translate(-600.07 -338.82)"/><path class="cls-2" d="M715.11,406.59c-.08-.35-.14-.66-.22-1s-.14-.65-.23-1-.16-.65-.25-1-.2-.65-.28-1a4.6,4.6,0,0,1,.53.91,6.8,6.8,0,0,1,.34,1,5.23,5.23,0,0,1,.15,1A4.68,4.68,0,0,1,715.11,406.59Z" transform="translate(-600.07 -338.82)"/><path class="cls-2" d="M636.66,417.62c.82.74,1.63,1.47,2.48,2.15s1.7,1.38,2.57,2a57.88,57.88,0,0,0,11.33,6.5c1,.43,2,.83,3,1.2s2.07.72,3.11,1c-1.06-.25-2.11-.56-3.16-.89s-2.07-.71-3.09-1.12-2-.86-3-1.31-2-1-2.92-1.53a49.9,49.9,0,0,1-5.46-3.65c-.87-.67-1.72-1.37-2.53-2.1S637.41,418.41,636.66,417.62Z" transform="translate(-600.07 -338.82)"/><path class="cls-2" d="M649.21,425.06c1.53.77,3.07,1.5,4.64,2.17s3.15,1.31,4.76,1.84,3.27,1.05,4.89,1.49,3.32.82,5,1.15a45.2,45.2,0,0,1-5-.89c-1.67-.4-3.32-.87-4.94-1.43s-3.21-1.2-4.76-1.92A43.66,43.66,0,0,1,649.21,425.06Z" transform="translate(-600.07 -338.82)"/><path class="cls-2" d="M681.54,432.54a56.46,56.46,0,0,0,5.79-.84,52.16,52.16,0,0,0,5.66-1.45q1.39-.44,2.76-1c.91-.35,1.82-.71,2.71-1.1,1.78-.79,3.53-1.66,5.23-2.62a41.51,41.51,0,0,1-5.13,2.87,43.82,43.82,0,0,1-5.48,2.14c-.93.3-1.88.55-2.83.79s-1.91.43-2.88.6A40.81,40.81,0,0,1,681.54,432.54Z" transform="translate(-600.07 -338.82)"/><path class="cls-2" d="M605.37,398.39a7.53,7.53,0,0,1,2.57.42,8.08,8.08,0,0,1,1.2.55,8.66,8.66,0,0,1,1.1.72,6.27,6.27,0,0,0,1,.66,7.81,7.81,0,0,0,1.12.47,11,11,0,0,0,2.48.45,6.05,6.05,0,0,1-2.61.06,5.31,5.31,0,0,1-1.28-.41,4.75,4.75,0,0,1-.59-.31c-.2-.13-.38-.26-.55-.39a8.5,8.5,0,0,0-1-.68,9.62,9.62,0,0,0-1.08-.61A17.8,17.8,0,0,0,605.37,398.39Z" transform="translate(-600.07 -338.82)"/><path class="cls-2" d="M605.44,413.88a16.43,16.43,0,0,0,2.36-.91,10.36,10.36,0,0,0,1.09-.59c.35-.22.65-.46,1-.71.17-.13.35-.26.54-.38a5.83,5.83,0,0,1,.6-.32,5.28,5.28,0,0,1,1.28-.4,6,6,0,0,1,2.61.07,11.44,11.44,0,0,0-2.47.45,6.53,6.53,0,0,0-1.13.46,6.07,6.07,0,0,0-1,.65,9.43,9.43,0,0,1-1.12.74,8.65,8.65,0,0,1-1.21.52A7.38,7.38,0,0,1,605.44,413.88Z" transform="translate(-600.07 -338.82)"/><path class="cls-2" d="M621.38,403.85a25.83,25.83,0,0,0,7.1-2.48c.56-.28,1.1-.6,1.63-.93s1-.7,1.56-1.06a30.56,30.56,0,0,0,2.89-2.44,19.54,19.54,0,0,1-2.73,2.65,19.86,19.86,0,0,1-3.19,2.08c-.56.3-1.15.56-1.73.81s-1.19.47-1.8.66A18.9,18.9,0,0,1,621.38,403.85Z" transform="translate(-600.07 -338.82)"/><path class="cls-2" d="M621.32,409.26a8.88,8.88,0,0,1,2.36.05,10.58,10.58,0,0,1,2.29.6c.37.16.73.33,1.09.51s.68.42,1,.65a9.07,9.07,0,0,1,1.75,1.58c-.66-.44-1.31-.87-2-1.24a9.78,9.78,0,0,0-1-.53c-.36-.15-.68-.32-1-.46l-.54-.2-.54-.18a10.57,10.57,0,0,0-1.1-.31A17.54,17.54,0,0,0,621.32,409.26Z" transform="translate(-600.07 -338.82)"/><path class="cls-2" d="M720.57,406.25h-.05a9.81,9.81,0,0,1-.07,1.09,16.22,16.22,0,0,1-.35,2.18,21.19,21.19,0,0,1-.57,2.18V413h1c.13-.34.24-.66.36-1h-.37Zm16.77-8.37-17.16-.07h-.61v2.12c.09.29.18.58.25.87a23.06,23.06,0,0,1,.66,4.38v1.07a9.81,9.81,0,0,1-.08,1.08,16.09,16.09,0,0,1-.34,2.19c-.16.73-.35,1.45-.58,2.17V413h1l16.72.07a7.59,7.59,0,0,0,.07-15.18Zm6.53,7.62a6.57,6.57,0,0,1-6.6,6.54L720.93,412h-.38V398.82h0l16.73.07a6.57,6.57,0,0,1,6.53,6.61Z" transform="translate(-600.07 -338.82)"/><path class="cls-2" d="M723.91,410c1-.08,2.07-.13,3.1-.17s2.07,0,3.11-.06,2.06,0,3.1,0,2.08,0,3.11.1c-1,.08-2.07.13-3.11.16l-3.1.07H727C726,410.05,724.92,410,723.91,410Z" transform="translate(-600.07 -338.82)"/><path class="cls-2" d="M723.94,409c.47-.07.94-.11,1.41-.14s.94,0,1.41,0h1.4a9.48,9.48,0,0,1,1.41.13,13.2,13.2,0,0,1-1.41.14c-.47,0-.93,0-1.4,0h-1.41A11.37,11.37,0,0,1,723.94,409Z" transform="translate(-600.07 -338.82)"/><path class="cls-2" d="M729.49,400.12c.61,0,1.22-.08,1.83-.1l1.81-.07h3.64a5.07,5.07,0,0,1,2.66.44,4.65,4.65,0,0,1,1.13.73,4.42,4.42,0,0,1,.88,1,5.1,5.1,0,0,0-1-.89,6.37,6.37,0,0,0-.55-.35,5.22,5.22,0,0,0-1.83-.59,4.79,4.79,0,0,0-1.31,0h-3.65l-1.81,0C730.71,400.17,730.11,400.15,729.49,400.12Z" transform="translate(-600.07 -338.82)"/><g class="cls-3"><path class="cls-2" d="M673.27,428.2c-26.09-5.11-23.77-43.2,2.75-45.13l1-.07s34.17-.9,35.59,21.55c0,0,1.82,24.82-32.79,24.54a20.61,20.61,0,0,1-3.32-.31C675.65,428.65,674.56,428.45,673.27,428.2Z" transform="translate(-600.07 -338.82)"/><path class="cls-4" d="M673.25,428.3c-16.47-2.89-24.24-20.51-16.12-34.9a22.53,22.53,0,0,1,17.61-11.1c11.61-.77,28.71,3,35.39,13.31,6,9.16,2.48,22.39-6.47,28.33-8.29,5.66-20.82,6.35-30.41,4.36Zm0-.2c6.7,1.52,13.8.69,20.32-1.22,9.88-2.84,17.84-10.67,18.43-21.27.37-18.38-22.65-22.66-37.09-21.5a21,21,0,0,0-17.08,12.56c-5.69,13,.83,28.77,15.42,31.43Z" transform="translate(-600.07 -338.82)"/></g><path class="cls-5" d="M690.08,389.84a52.59,52.59,0,0,0-12.6.17,24.38,24.38,0,0,0-10.94,5.07,25.42,25.42,0,0,0-5.2,5.64l-.06,0a17.37,17.37,0,0,1,4.75-6.09c3.1-2.61,7.21-4.05,11.4-4.8a28.68,28.68,0,0,1,8.47-.73,24.68,24.68,0,0,1,4.2.68v.06Z" transform="translate(-600.07 -338.82)"/><path class="cls-5" d="M699.2,418.9h0a16.86,16.86,0,0,0,1.44-1.22c.13-.13.27-.27.4-.38a3.39,3.39,0,0,0,.32-.35l.13-.13.3-.35h0l.22-.26c.27-.34.53-.69.77-1l.12-.19.28-.45c.14-.26.28-.51.41-.77l.09-.19a13.46,13.46,0,0,0,1-2.93l0-.17a11.43,11.43,0,0,0,.21-1.41v-.14a.17.17,0,0,0,0-.1,3.59,3.59,0,0,1,0-.47,10.86,10.86,0,0,0,0-1.14V407l0-.4a4.85,4.85,0,0,0-.09-.57h0a14.35,14.35,0,0,0-.8-2.77,14.58,14.58,0,0,0-.76-1.6c-.21-.38-.44-.79-.69-1.18l-.17-.26c-.18-.28-.38-.55-.58-.82a16.41,16.41,0,0,0-1.38-1.64,19.37,19.37,0,0,0-8.7-5.18v0a24,24,0,0,1,4.61,2.24,21.58,21.58,0,0,1,3.86,3.08,20.81,20.81,0,0,1,1.49,1.64l.13.16.44.58s0,.05.05.07a14.11,14.11,0,0,1,.85,1.32l.14.26.13.26c.08.18.17.35.25.53l.1.23.12.31.11.27.09.27.18.55.13.55a4.7,4.7,0,0,1,.13.63l.08.5a10.93,10.93,0,0,1,.1,1.81,4.78,4.78,0,0,1,0,.76v.21a13.36,13.36,0,0,1-1.33,4.48c-.12.26-.26.51-.4.76s-.22.38-.33.57l-.08.13c-.2.31-.4.61-.63.91a7.51,7.51,0,0,1-.61.76h0c-.17.21-.35.41-.54.61h0l-.12.13-.44.44c-.16.15-.26.25-.39.39l-.21.19q-.71.61-1.47,1.17h0Z" transform="translate(-600.07 -338.82)"/><path class="cls-5" d="M677.36,402.39a10.56,10.56,0,0,0,1.36,2.24,10.32,10.32,0,0,0,1.91,1.88,8.62,8.62,0,0,0,2.46,1.29,10,10,0,0,0,2.83.47,11.26,11.26,0,0,0,2.9-.24,5.86,5.86,0,0,0,2.55-1.14,2.22,2.22,0,0,0,.44-.48,2.61,2.61,0,0,0,.19-.27,1.47,1.47,0,0,0,.14-.28,2.75,2.75,0,0,0,.17-1.23,4.33,4.33,0,0,0-.66-1.78l-.18-.27-.21-.25a4.29,4.29,0,0,0-1-.88,7.19,7.19,0,0,0-1.23-.65,14.55,14.55,0,0,0-2.77-.76c-.49-.09-1-.18-1.44-.25a6.12,6.12,0,0,0-1.42-.06,2.14,2.14,0,0,0-1.19.48,2,2,0,0,0-.6,1,3,3,0,0,0,0,1.19,2.82,2.82,0,0,0,.5,1.12,4.28,4.28,0,0,0,2.17,1.52,4.12,4.12,0,0,0,1.4.19A3.7,3.7,0,0,0,687,405a4,4,0,0,0,1.86-1.87h0a4.15,4.15,0,0,1-.68,1.14,3.67,3.67,0,0,1-1.11.87,3.8,3.8,0,0,1-1.45.38,4.53,4.53,0,0,1-1.51-.17,4.61,4.61,0,0,1-2.38-1.58,3,3,0,0,1-.58-1.23,3.26,3.26,0,0,1,0-1.32,2.19,2.19,0,0,1,.71-1.21,2.52,2.52,0,0,1,1.44-.57,6.55,6.55,0,0,1,1.53.07c.49.08,1,.17,1.45.27a14.17,14.17,0,0,1,2.83.82,5,5,0,0,1,3.27,4.08,2.53,2.53,0,0,1-.19,1.27,2.35,2.35,0,0,1-.33.57,3.17,3.17,0,0,1-.47.5,4.68,4.68,0,0,1-1.21.76,7.3,7.3,0,0,1-1.38.49,11.74,11.74,0,0,1-3,.33,9.38,9.38,0,0,1-2.94-.47,8.63,8.63,0,0,1-2.54-1.37,9.87,9.87,0,0,1-1.89-2,8.23,8.23,0,0,1-.69-1.14,7.44,7.44,0,0,1-.53-1.19Z" transform="translate(-600.07 -338.82)"/><path class="cls-1" d="M716,338.82a2.38,2.38,0,0,1,1,.2,2.9,2.9,0,0,1,.62.36q.5.4.6-.54h.34c0,.28,0,.61,0,1s0,.9,0,1.55h-.34a4.59,4.59,0,0,0-.31-1.08,2.05,2.05,0,0,0-.64-.86,1.64,1.64,0,0,0-1.09-.34,1.37,1.37,0,0,0-.88.29,1.07,1.07,0,0,0-.35.86,1.19,1.19,0,0,0,.27.78,3.27,3.27,0,0,0,.7.6l1,.6a12.65,12.65,0,0,1,1,.74,3.55,3.55,0,0,1,.74.82,2,2,0,0,1,.27,1.07,1.82,1.82,0,0,1-.36,1.15,2.21,2.21,0,0,1-.93.71,3.3,3.3,0,0,1-1.27.24,4,4,0,0,1-.62-.05,3.41,3.41,0,0,1-.57-.16l-.3-.18a2.26,2.26,0,0,1-.31-.23.18.18,0,0,0-.27,0,1,1,0,0,0-.18.5h-.35c0-.32,0-.71,0-1.17s0-1.07,0-1.83h.34a8.63,8.63,0,0,0,.3,1.47,2.07,2.07,0,0,0,.61,1,1.79,1.79,0,0,0,1.17.35,1.47,1.47,0,0,0,.61-.14,1.18,1.18,0,0,0,.52-.45,1.47,1.47,0,0,0,.21-.84,1.37,1.37,0,0,0-.48-1.08,10,10,0,0,0-1.22-.88c-.35-.23-.69-.46-1-.69a3.11,3.11,0,0,1-.76-.78,1.8,1.8,0,0,1-.29-1.05,1.86,1.86,0,0,1,.3-1.1A1.77,1.77,0,0,1,715,339,2.86,2.86,0,0,1,716,338.82Z" transform="translate(-600.07 -338.82)"/><path class="cls-1" d="M722.2,346.86a2.25,2.25,0,0,1-1.07-.23,1.53,1.53,0,0,1-.68-.65,1.92,1.92,0,0,1-.24-1,1.84,1.84,0,0,1,.31-1.08,2.45,2.45,0,0,1,.79-.67,7,7,0,0,1,1-.43l1-.33a2.53,2.53,0,0,0,.79-.37.63.63,0,0,0,.31-.55v-.93a1.92,1.92,0,0,0-.19-1,.89.89,0,0,0-.5-.44,2,2,0,0,0-.7-.12,3.49,3.49,0,0,0-.81.11,1.2,1.2,0,0,0-.68.43.94.94,0,0,1,.49.3.91.91,0,0,1,.21.62.75.75,0,0,1-.24.59.85.85,0,0,1-.61.22.74.74,0,0,1-.64-.28,1,1,0,0,1-.2-.62,1,1,0,0,1,.19-.63,2.45,2.45,0,0,1,.5-.45,3.21,3.21,0,0,1,.89-.41,4,4,0,0,1,1.24-.18,3.24,3.24,0,0,1,1,.15,1.81,1.81,0,0,1,.72.41,1.67,1.67,0,0,1,.51.88,5.44,5.44,0,0,1,.12,1.23v4.17a1,1,0,0,0,.11.54.41.41,0,0,0,.36.17.71.71,0,0,0,.31-.08,1.71,1.71,0,0,0,.36-.24l.16.26a5.61,5.61,0,0,1-.59.4,1.7,1.7,0,0,1-.77.15,1.54,1.54,0,0,1-.72-.15,1,1,0,0,1-.43-.44,1.74,1.74,0,0,1-.14-.74,2.74,2.74,0,0,1-1,1A2.42,2.42,0,0,1,722.2,346.86Zm.54-.6a1.65,1.65,0,0,0,.92-.28,2.73,2.73,0,0,0,.77-.86v-2.94a1.4,1.4,0,0,1-.52.43l-.75.35a5.21,5.21,0,0,0-.78.4,2.09,2.09,0,0,0-.61.61,1.86,1.86,0,0,0-.23,1,1.36,1.36,0,0,0,.32,1A1.12,1.12,0,0,0,722.74,346.26Z" transform="translate(-600.07 -338.82)"/><path class="cls-1" d="M734.34,338.87v6.27a1.69,1.69,0,0,0,.25,1,1.08,1.08,0,0,0,.89.32v.31c-.31,0-.62,0-.93,0a7.45,7.45,0,0,0-.83,0,3.25,3.25,0,0,0-.73.17v-1.77a2.7,2.7,0,0,1-1,1.39,2.76,2.76,0,0,1-1.41.41,2.52,2.52,0,0,1-.91-.15,1.74,1.74,0,0,1-.65-.42,1.6,1.6,0,0,1-.39-.78,5.74,5.74,0,0,1-.1-1.19v-3.76a1.69,1.69,0,0,0-.24-1,1.08,1.08,0,0,0-.9-.32V339c.32,0,.63.05.93.05a7.26,7.26,0,0,0,.83-.05,4.65,4.65,0,0,0,.73-.16v5.89a5.71,5.71,0,0,0,.06.86,1.1,1.1,0,0,0,.3.63,1.07,1.07,0,0,0,.78.24,1.62,1.62,0,0,0,1-.36,2.35,2.35,0,0,0,.72-1,3.4,3.4,0,0,0,.26-1.38v-3.1a1.69,1.69,0,0,0-.24-1,1.08,1.08,0,0,0-.9-.32V339c.32,0,.63.05.93.05a7.58,7.58,0,0,0,.84-.05A4.78,4.78,0,0,0,734.34,338.87Z" transform="translate(-600.07 -338.82)"/><path class="cls-1" d="M740,338.82a3.59,3.59,0,0,1,.93.12,3,3,0,0,1,.81.36,1.72,1.72,0,0,1,.52.52,1.21,1.21,0,0,1,.18.64.81.81,0,0,1-.22.62.77.77,0,0,1-.57.22.93.93,0,0,1-.58-.2.66.66,0,0,1-.25-.55A.84.84,0,0,1,741,340a.86.86,0,0,1,.44-.27,1.1,1.1,0,0,0-.53-.45,1.89,1.89,0,0,0-.82-.18,1.72,1.72,0,0,0-.75.18,1.92,1.92,0,0,0-.69.6,3.25,3.25,0,0,0-.51,1.12,6.92,6.92,0,0,0-.19,1.78,6,6,0,0,0,.3,2.1,2.32,2.32,0,0,0,.79,1.12,1.85,1.85,0,0,0,1.07.33,2.25,2.25,0,0,0,.79-.15,2.35,2.35,0,0,0,.77-.48,2.84,2.84,0,0,0,.61-.91l.29.1a3.32,3.32,0,0,1-.5,1,2.68,2.68,0,0,1-.9.8,2.71,2.71,0,0,1-1.36.32,3.05,3.05,0,0,1-1.68-.48,3.33,3.33,0,0,1-1.19-1.37,4.71,4.71,0,0,1-.45-2.13,4.9,4.9,0,0,1,.45-2.16,3.43,3.43,0,0,1,1.23-1.47A3.17,3.17,0,0,1,740,338.82Z" transform="translate(-600.07 -338.82)"/><path class="cls-1" d="M747.18,338.82a2.68,2.68,0,0,1,2.07.81,3.58,3.58,0,0,1,.74,2.49h-5.3v-.28h3.87a5,5,0,0,0-.12-1.36,2.45,2.45,0,0,0-.47-1,1.07,1.07,0,0,0-.84-.37,1.53,1.53,0,0,0-1.22.69,4.13,4.13,0,0,0-.64,2.19l0,.06c0,.15,0,.31,0,.49s0,.36,0,.54a4.25,4.25,0,0,0,.33,1.76,2.77,2.77,0,0,0,.86,1.12,1.9,1.9,0,0,0,1.1.38,2.72,2.72,0,0,0,.86-.14,2.18,2.18,0,0,0,.75-.48,2.83,2.83,0,0,0,.6-.88l.3.12a3.09,3.09,0,0,1-.54,1,3,3,0,0,1-1,.76,2.92,2.92,0,0,1-1.32.29,3.37,3.37,0,0,1-1.85-.5,3.17,3.17,0,0,1-1.18-1.37,4.62,4.62,0,0,1-.42-2,5.64,5.64,0,0,1,.42-2.27,3.42,3.42,0,0,1,1.19-1.47A3.13,3.13,0,0,1,747.18,338.82Z" transform="translate(-600.07 -338.82)"/><path class="cls-1" d="M753.81,338.82a2.41,2.41,0,0,1,1,.2,2.9,2.9,0,0,1,.62.36q.49.4.6-.54h.34c0,.28,0,.61,0,1s0,.9,0,1.55H756a4.59,4.59,0,0,0-.31-1.08,2.05,2.05,0,0,0-.64-.86,1.65,1.65,0,0,0-1.09-.34,1.37,1.37,0,0,0-.88.29,1.07,1.07,0,0,0-.35.86,1.19,1.19,0,0,0,.27.78,3.27,3.27,0,0,0,.7.6l.95.6a11,11,0,0,1,1,.74,3.39,3.39,0,0,1,.75.82,2,2,0,0,1,.27,1.07,1.82,1.82,0,0,1-.36,1.15,2.27,2.27,0,0,1-.93.71,3.3,3.3,0,0,1-1.27.24,4,4,0,0,1-.62-.05,3.41,3.41,0,0,1-.57-.16l-.3-.18a2.26,2.26,0,0,1-.31-.23.18.18,0,0,0-.27,0,1,1,0,0,0-.18.5h-.35c0-.32,0-.71.05-1.17s0-1.07,0-1.83h.35a8.63,8.63,0,0,0,.3,1.47,2.07,2.07,0,0,0,.61,1,1.79,1.79,0,0,0,1.17.35,1.5,1.5,0,0,0,.61-.14,1.18,1.18,0,0,0,.52-.45,1.47,1.47,0,0,0,.21-.84,1.37,1.37,0,0,0-.48-1.08,10,10,0,0,0-1.22-.88c-.36-.23-.69-.46-1-.69a3.11,3.11,0,0,1-.76-.78,1.8,1.8,0,0,1-.3-1.05,1.86,1.86,0,0,1,.31-1.1,1.77,1.77,0,0,1,.82-.63A2.82,2.82,0,0,1,753.81,338.82Z" transform="translate(-600.07 -338.82)"/></svg>