<svg id="Livello_1" data-name="Livello 1" xmlns="http://www.w3.org/2000/svg" viewBox="0 0 117.88 167.87"><defs><style>.cls-1{fill:#cc0b36;}.cls-2{fill:#332421;}.cls-3,.cls-4{fill:none;stroke:#332421;}.cls-3{stroke-linecap:round;stroke-linejoin:round;stroke-width:2.57px;}.cls-4{stroke-miterlimit:10;stroke-width:1.29px;}</style></defs><path class="cls-1" d="M623.85,304.47a2.47,2.47,0,0,1,1.07.21,2.8,2.8,0,0,1,.65.37c.35.29.56.1.66-.56h.36c0,.29,0,.65-.05,1s0,.94,0,1.62h-.36a5.16,5.16,0,0,0-.32-1.13,2.34,2.34,0,0,0-.65-.9,1.76,1.76,0,0,0-1.15-.35,1.39,1.39,0,0,0-.92.31,1.09,1.09,0,0,0-.37.9,1.28,1.28,0,0,0,.29.81,3.47,3.47,0,0,0,.73.65l1,.66a10.36,10.36,0,0,1,1,.73,3.19,3.19,0,0,1,.78.86,2.17,2.17,0,0,1-.08,2.33,2.46,2.46,0,0,1-1,.74,3.46,3.46,0,0,1-1.31.24,2.81,2.81,0,0,1-.65-.05,2.87,2.87,0,0,1-.59-.17,1.77,1.77,0,0,1-.33-.19l-.32-.23a.2.2,0,0,0-.26,0l0,0a1,1,0,0,0-.19.53h-.36c0-.34,0-.74,0-1.23v-1.91h.36a8.24,8.24,0,0,0,.31,1.54,2.09,2.09,0,0,0,.65,1,1.81,1.81,0,0,0,1.23.37,1.36,1.36,0,0,0,.65-.14,1.23,1.23,0,0,0,.54-.47,1.58,1.58,0,0,0,.22-.88,1.46,1.46,0,0,0-.51-1.13,9.45,9.45,0,0,0-1.26-.92c-.38-.24-.74-.48-1.06-.72a3.32,3.32,0,0,1-.81-.82,2.21,2.21,0,0,1,0-2.25,1.9,1.9,0,0,1,.86-.65A3.18,3.18,0,0,1,623.85,304.47Z" transform="translate(-621.48 -300.47)"/><path class="cls-1" d="M631.87,304.47a2.83,2.83,0,0,1,2.16.84,3.78,3.78,0,0,1,.77,2.62h-5.53v-.31h4.05a5.15,5.15,0,0,0-.13-1.41,2.54,2.54,0,0,0-.49-1,1.09,1.09,0,0,0-.87-.39,1.6,1.6,0,0,0-1.31.72,4.23,4.23,0,0,0-.65,2.29l0,.07c0,.15,0,.32,0,.51a5.42,5.42,0,0,0,0,.57,4.44,4.44,0,0,0,.34,1.83,2.8,2.8,0,0,0,.9,1.17,1.88,1.88,0,0,0,1.16.4,2.68,2.68,0,0,0,.89-.15,2.1,2.1,0,0,0,.79-.49,3.18,3.18,0,0,0,.65-.93l.31.13a3.29,3.29,0,0,1-.56,1,2.8,2.8,0,0,1-1,.79A2.88,2.88,0,0,1,632,313a3.64,3.64,0,0,1-2-.51,3.52,3.52,0,0,1-1.24-1.44,5,5,0,0,1-.43-2.11,5.85,5.85,0,0,1,.44-2.38A3.59,3.59,0,0,1,630,305,3.27,3.27,0,0,1,631.87,304.47Z" transform="translate(-621.48 -300.47)"/><path class="cls-1" d="M639.92,304.47a3.6,3.6,0,0,1,1,.13,2.93,2.93,0,0,1,.85.37,1.77,1.77,0,0,1,.55.54,1.4,1.4,0,0,1,.19.66.86.86,0,0,1-.24.65.84.84,0,0,1-.6.23,1,1,0,0,1-.6-.2.74.74,0,0,1-.26-.59.88.88,0,0,1,.19-.58.92.92,0,0,1,.47-.28,1.17,1.17,0,0,0-.56-.47,1.92,1.92,0,0,0-.85-.19,1.8,1.8,0,0,0-.79.19,2.14,2.14,0,0,0-.72.62,3.35,3.35,0,0,0-.53,1.17,7.35,7.35,0,0,0-.21,1.87,6.2,6.2,0,0,0,.31,2.21,2.41,2.41,0,0,0,.82,1.17,2,2,0,0,0,1.12.35,2.39,2.39,0,0,0,1.63-.67,2.82,2.82,0,0,0,.65-.95l.3.11a3.59,3.59,0,0,1-.52,1,2.74,2.74,0,0,1-2.36,1.17,3.19,3.19,0,0,1-1.76-.5,3.46,3.46,0,0,1-1.25-1.43,5.2,5.2,0,0,1-.47-2.23,5.33,5.33,0,0,1,.47-2.26A3.63,3.63,0,0,1,638,305,3.33,3.33,0,0,1,639.92,304.47Z" transform="translate(-621.48 -300.47)"/><path class="cls-1" d="M647.47,304.47a3.64,3.64,0,0,1,1.8.44,3.16,3.16,0,0,1,1.28,1.38,6.47,6.47,0,0,1,0,4.89,3.09,3.09,0,0,1-1.28,1.37,3.88,3.88,0,0,1-3.6,0,3.15,3.15,0,0,1-1.31-1.37,6.47,6.47,0,0,1,0-4.89,3.17,3.17,0,0,1,1.31-1.38A3.64,3.64,0,0,1,647.47,304.47Zm0,.32a1.68,1.68,0,0,0-1.47.92,8.31,8.31,0,0,0,0,6.05,1.63,1.63,0,0,0,2.93,0,8.21,8.21,0,0,0,0-6.05A1.68,1.68,0,0,0,647.47,304.79Z" transform="translate(-621.48 -300.47)"/><path class="cls-1" d="M657.49,304.47a2.83,2.83,0,0,1,1,.16,1.79,1.79,0,0,1,1.08,1.22,5.47,5.47,0,0,1,.12,1.27v4.19a1.14,1.14,0,0,0,.28.9,1.39,1.39,0,0,0,.91.23v.33l-.82,0H658l-.74,0v-.33a1.09,1.09,0,0,0,.8-.23,1.31,1.31,0,0,0,.24-.9v-4.54a5.24,5.24,0,0,0-.08-.88,1.15,1.15,0,0,0-.35-.66A1.18,1.18,0,0,0,657,305a1.79,1.79,0,0,0-1.15.38,2.58,2.58,0,0,0-.77,1,3.63,3.63,0,0,0-.27,1.45v3.49a1.28,1.28,0,0,0,.23.89,1.13,1.13,0,0,0,.81.24v.33l-.75,0H653l-.81,0v-.33a1.35,1.35,0,0,0,.91-.24,1.12,1.12,0,0,0,.28-.89v-4.91a1.92,1.92,0,0,0-.25-1.05,1.15,1.15,0,0,0-.94-.33v-.33c.33,0,.65,0,1,0a6.35,6.35,0,0,0,.87-.05,4.89,4.89,0,0,0,.76-.16v1.85a2.74,2.74,0,0,1,1.14-1.49A3.17,3.17,0,0,1,657.49,304.47Z" transform="translate(-621.48 -300.47)"/><path class="cls-1" d="M665.43,304.47a2.71,2.71,0,0,1,1.31.33,1.69,1.69,0,0,1,.8,1.13l-.2.16a1.7,1.7,0,0,0-.65-1,2,2,0,0,0-1.1-.3,1.81,1.81,0,0,0-1.54,1,5.39,5.39,0,0,0-.61,2.95,7.91,7.91,0,0,0,.25,2.11,2.47,2.47,0,0,0,.72,1.25,1.71,1.71,0,0,0,1.16.42,1.58,1.58,0,0,0,1.2-.57,2.67,2.67,0,0,0,.65-1.66l.19.22a3,3,0,0,1-.75,1.84,2.29,2.29,0,0,1-1.72.65,3,3,0,0,1-1.71-.47,2.87,2.87,0,0,1-1.11-1.41,6.38,6.38,0,0,1-.39-2.37,5,5,0,0,1,.5-2.37,3.35,3.35,0,0,1,3.05-1.89Zm3.27-4v10.59a1.72,1.72,0,0,0,.25,1,1.11,1.11,0,0,0,.94.34v.33c-.33,0-.65,0-1,0a4.8,4.8,0,0,0-.87,0,3.24,3.24,0,0,0-.76.18V302.36a1.69,1.69,0,0,0-.26-1.05,1.07,1.07,0,0,0-.94-.33v-.34c.33,0,.66.05,1,.05a8.11,8.11,0,0,0,.86-.05,5.42,5.42,0,0,0,.8-.17Z" transform="translate(-621.48 -300.47)"/><path class="cls-1" d="M678.45,304.47a2.71,2.71,0,0,1,1.31.33,1.66,1.66,0,0,1,.81,1.13l-.2.16a1.7,1.7,0,0,0-.65-1,2,2,0,0,0-1.09-.3,1.83,1.83,0,0,0-1.55,1,5.47,5.47,0,0,0-.6,2.95,7.52,7.52,0,0,0,.24,2.11,2.63,2.63,0,0,0,.72,1.25,1.72,1.72,0,0,0,1.17.42,1.64,1.64,0,0,0,1.2-.57,2.79,2.79,0,0,0,.65-1.66l.19.22a3,3,0,0,1-.76,1.84,2.29,2.29,0,0,1-1.72.65,3,3,0,0,1-1.7-.47,2.94,2.94,0,0,1-1.12-1.41,6.58,6.58,0,0,1-.38-2.37,5,5,0,0,1,.5-2.37,3.33,3.33,0,0,1,3-1.89Zm3.27-4v10.59a1.66,1.66,0,0,0,.26,1,1.08,1.08,0,0,0,.93.34v.33c-.32,0-.65,0-1,0a4.8,4.8,0,0,0-.87,0,3.45,3.45,0,0,0-.77.18V302.36a1.74,1.74,0,0,0-.24-1.05,1.13,1.13,0,0,0-.95-.33v-.34c.34,0,.66.05,1,.05a8.46,8.46,0,0,0,.87-.05,5.57,5.57,0,0,0,.79-.17Z" transform="translate(-621.48 -300.47)"/><path class="cls-1" d="M686.32,304.52v6.79a1.14,1.14,0,0,0,.28.9,1.43,1.43,0,0,0,.92.23v.33l-.81,0h-2.17l-.82,0v-.33a1.41,1.41,0,0,0,.92-.23,1.17,1.17,0,0,0,.27-.9V306.4a1.73,1.73,0,0,0-.25-1,1.1,1.1,0,0,0-.94-.34v-.33c.34,0,.66.05,1,.05a6.36,6.36,0,0,0,.87-.06A3.85,3.85,0,0,0,686.32,304.52Zm-.81-3.75a.94.94,0,0,1,.7.3,1,1,0,0,1,0,1.38l0,0a.93.93,0,0,1-.7.29,1,1,0,0,1-.71-.29,1,1,0,0,1,0-1.41h0A1,1,0,0,1,685.51,300.77Z" transform="translate(-621.48 -300.47)"/><path class="cls-1" d="M691.13,304.47a2.47,2.47,0,0,1,1.07.21,2.8,2.8,0,0,1,.65.37c.35.29.55.1.65-.56h.37c0,.29,0,.65,0,1s0,.94,0,1.62h-.36a6.57,6.57,0,0,0-.32-1.13,2.37,2.37,0,0,0-.66-.9,1.76,1.76,0,0,0-1.15-.35,1.38,1.38,0,0,0-.91.31,1.06,1.06,0,0,0-.37.9,1.21,1.21,0,0,0,.28.81,3.29,3.29,0,0,0,.74.65l1,.66a11.22,11.22,0,0,1,1.08.77,3.45,3.45,0,0,1,.77.85,2,2,0,0,1,.3,1.12,2,2,0,0,1-.38,1.21,2.46,2.46,0,0,1-1,.74,3.67,3.67,0,0,1-1.31.25,3.49,3.49,0,0,1-.65-.06,3,3,0,0,1-.59-.16l-.33-.19-.32-.23a.19.19,0,0,0-.26,0l0,0a1.06,1.06,0,0,0-.19.52h-.36a11.25,11.25,0,0,1,0-1.22c0-.49,0-1.12,0-1.92h.36a8.94,8.94,0,0,0,.31,1.54,2,2,0,0,0,.65,1,1.88,1.88,0,0,0,1.23.38,1.47,1.47,0,0,0,.65-.15,1.23,1.23,0,0,0,.54-.47,1.49,1.49,0,0,0,.22-.87,1.46,1.46,0,0,0-.5-1.13,11.48,11.48,0,0,0-1.27-.93c-.38-.24-.73-.48-1.06-.72a3.16,3.16,0,0,1-.81-.82,2.21,2.21,0,0,1,0-2.25,2,2,0,0,1,.86-.65A3.11,3.11,0,0,1,691.13,304.47Z" transform="translate(-621.48 -300.47)"/><path class="cls-1" d="M697.8,300.49v5.88a2.67,2.67,0,0,1,1.14-1.48,3.11,3.11,0,0,1,1.52-.4,2.82,2.82,0,0,1,1,.15,1.83,1.83,0,0,1,.65.44,1.8,1.8,0,0,1,.43.79,5.33,5.33,0,0,1,.12,1.26v4.19a1.14,1.14,0,0,0,.28.9,1.47,1.47,0,0,0,.91.24v.32l-.81,0H701l-.74,0v-.32a1.13,1.13,0,0,0,.79-.24,1.31,1.31,0,0,0,.24-.9v-4.53a4.4,4.4,0,0,0-.08-.89,1.1,1.1,0,0,0-.35-.65A1.22,1.22,0,0,0,700,305a1.81,1.81,0,0,0-1.14.37,2.31,2.31,0,0,0-.77,1,3.54,3.54,0,0,0-.29,1.47v3.5a1.31,1.31,0,0,0,.24.9,1.09,1.09,0,0,0,.8.23v.33l-.75,0H696l-.81,0v-.33a1.43,1.43,0,0,0,.92-.23,1.17,1.17,0,0,0,.27-.9v-9a1.72,1.72,0,0,0-.25-1,1.07,1.07,0,0,0-.94-.34v-.33c.34,0,.65,0,1,0a6.36,6.36,0,0,0,.87-.06A4.32,4.32,0,0,0,697.8,300.49Z" transform="translate(-621.48 -300.47)"/><path class="cls-1" d="M708.37,304.47a2.83,2.83,0,0,1,2.16.84,3.73,3.73,0,0,1,.77,2.62h-5.53v-.31h4.05a4.79,4.79,0,0,0-.13-1.41,2.48,2.48,0,0,0-.49-1,1.09,1.09,0,0,0-.87-.39,1.6,1.6,0,0,0-1.31.72,4.23,4.23,0,0,0-.65,2.29l0,.07a2.37,2.37,0,0,1,0,.51,2.18,2.18,0,0,0,0,.57,4.3,4.3,0,0,0,.36,1.87,2.86,2.86,0,0,0,.9,1.17,1.9,1.9,0,0,0,1.15.39,2.3,2.3,0,0,0,.9-.15,2.06,2.06,0,0,0,.78-.49,3,3,0,0,0,.65-.92l.32.12a3.25,3.25,0,0,1-.57,1,3,3,0,0,1-1,.79,3,3,0,0,1-1.38.3,3.47,3.47,0,0,1-2-.51,3.4,3.4,0,0,1-1.24-1.44,4.78,4.78,0,0,1-.43-2.11,5.84,5.84,0,0,1,.44-2.37,3.49,3.49,0,0,1,1.24-1.55A3.32,3.32,0,0,1,708.37,304.47Z" transform="translate(-621.48 -300.47)"/><path class="cls-1" d="M715.3,304.47a2.47,2.47,0,0,1,1.07.21,2.8,2.8,0,0,1,.65.37c.34.29.55.1.66-.56H718c0,.29,0,.65,0,1v1.62h-.36a5.16,5.16,0,0,0-.32-1.13,2.24,2.24,0,0,0-.65-.9,1.76,1.76,0,0,0-1.15-.35,1.4,1.4,0,0,0-.92.31,1.09,1.09,0,0,0-.36.9,1.21,1.21,0,0,0,.28.81,3.29,3.29,0,0,0,.74.65l1,.66a9.41,9.41,0,0,1,1,.73,3.37,3.37,0,0,1,.78.86,2.11,2.11,0,0,1,.29,1.12,2,2,0,0,1-.38,1.21,2.46,2.46,0,0,1-1,.74,3.46,3.46,0,0,1-1.31.24A2.81,2.81,0,0,1,715,313a3.06,3.06,0,0,1-.59-.17,2.07,2.07,0,0,1-.32-.19l-.32-.23a.21.21,0,0,0-.29,0,1,1,0,0,0-.18.53h-.37c0-.34,0-.74.05-1.23v-1.91h.36a9.14,9.14,0,0,0,.31,1.54,2.14,2.14,0,0,0,.65,1,1.83,1.83,0,0,0,1.23.37,1.38,1.38,0,0,0,.66-.14,1.23,1.23,0,0,0,.54-.47,1.58,1.58,0,0,0,.22-.88,1.45,1.45,0,0,0-.5-1.13,10,10,0,0,0-1.31-.92c-.38-.24-.73-.48-1.06-.72a3.36,3.36,0,0,1-.81-.83,1.79,1.79,0,0,1-.31-1.1,1.81,1.81,0,0,1,1.17-1.81A3.36,3.36,0,0,1,715.3,304.47Z" transform="translate(-621.48 -300.47)"/><path class="cls-1" d="M649.61,316.67c-7.7,10.17-12.28,25-4.79,36.41a34.18,34.18,0,0,0,9.15,9.11l-.81,1.11c-17.38-12.41-15.64-31.13-3.55-46.64Z" transform="translate(-621.48 -300.47)"/><path class="cls-2" d="M715.75,422.19l-.9-.25c.3-1.06.59-2.13.85-3.18l.14-.55c.24-1,.47-2,.65-2.86l.14-.58c.21-1,.4-1.85.57-2.7l.11-.55c.17-.89.32-1.64.43-2.34,0-.2.08-.39.11-.59.23-1.36.44-2.72.65-4.06v-.23a2.35,2.35,0,0,1,0-.37c.15-1.22.28-2.4.39-3.51l.06-.56c.07-.87.14-1.71.18-2.49v-.45c.05-1,.09-1.9.11-2.82V390a41.35,41.35,0,0,0-1.17-8.43c-.3-1.16-.61-2.3-.9-3.38-2.06-7.56-2.61-7.89-3.65-8.56a2.17,2.17,0,0,0-1.66.06,1.92,1.92,0,0,1-1.59,0,1.13,1.13,0,0,1-.48-.85c-.18-1.31-.91-2.15-4.39-3.2-1.06-.32-3.49-.71-7.88.24a59.06,59.06,0,0,0-15.15,6l-.71.39c-.92.51-1.79,1-2.62,1.5s-1.47.87-2.16,1.31l-.79.47c-1.79,1.1-3.47,2.16-5,3.15l-.61.4-1.48,1-.7.48-1.52,1.05-.65.48-1.81,1.31-.08.07-.66.48-1,.79-.6-.72,1-.81.65-.48.09-.07c.65-.5,1.24-.93,1.82-1.35l.65-.48,1.5-1.06.71-.48,1.48-1,.62-.41c1.53-1,3.21-2.06,5-3.16l.79-.48,2.18-1.31c.86-.5,1.73-1,2.66-1.51l.72-.39a60,60,0,0,1,15.4-6.11c3.4-.73,6.36-.81,8.34-.21,3.52,1.05,4.79,2.05,5,4a.52.52,0,0,0,.07.21,2.28,2.28,0,0,0,.81-.15,2.9,2.9,0,0,1,2.41,0c1.31.83,1.91,1.2,4.07,9.11q.45,1.63.9,3.39a41.05,41.05,0,0,1,1.19,8.62v.55c0,1,.06,2,0,3.08v.53c0,.92-.05,1.87-.1,2.84h0v.45c0,.79-.11,1.63-.19,2.51a2.2,2.2,0,0,1-.05.57c-.11,1.12-.24,2.31-.4,3.53a1,1,0,0,1,0,.38l0,.22c-.18,1.35-.4,2.74-.65,4.11,0,.2-.07.4-.11.6-.12.7-.26,1.45-.44,2.35l-.1.55c-.18.85-.36,1.72-.57,2.67h0l-.14.65c-.21.93-.44,1.91-.66,2.89l-.14.55C716.34,420.05,716.05,421.13,715.75,422.19Z" transform="translate(-621.48 -300.47)"/><path class="cls-2" d="M676.78,460.78c-10.46,0-15.21-4.12-18.72-8.71l-.36-.47a43.71,43.71,0,0,0-2.92-3.6c-1.83-1.89-3.27-2.21-8.2-2.65-2.85-.25-5.43-2.62-7.46-6.77a35.66,35.66,0,0,1-3.18-12.33l.94-.08c.65,8.61,4.51,17.78,9.8,18.25,4.92.43,6.7.76,8.79,2.93a44,44,0,0,1,3,3.68l.36.48c6.2,8.08,13.7,9.06,23.07,8a16.43,16.43,0,0,0,3.32-.74l.29.89a17.57,17.57,0,0,1-3.52.78A50,50,0,0,1,676.78,460.78Z" transform="translate(-621.48 -300.47)"/><path class="cls-3" d="M641.35,393.75" transform="translate(-621.48 -300.47)"/><path class="cls-2" d="M663.44,386.07a3.76,3.76,0,0,1-.13.4,5.4,5.4,0,0,1-.33.74,10.33,10.33,0,0,1-.82,1.35,14.33,14.33,0,0,1-2.06,2.34l-.6.5c-.2.16-.38.3-.57.47a11.11,11.11,0,0,0-1,1.05,11.65,11.65,0,0,0-1.58,2.47h0a.3.3,0,0,1-.4.15h0a.3.3,0,0,1-.15-.4,10.7,10.7,0,0,1,.71-1.39,10.42,10.42,0,0,1,.89-1.31,9.65,9.65,0,0,1,1.06-1.16c.18-.18.39-.34.58-.51l.55-.49a12.67,12.67,0,0,0,1.89-2.24,10.52,10.52,0,0,0,.74-1.25,6.21,6.21,0,0,0,.28-.66,1.81,1.81,0,0,1,.09-.31.45.45,0,0,0,0-.23,1.51,1.51,0,0,0-.61-.94,3.13,3.13,0,0,0-.86-.47l-.32-.11a6.61,6.61,0,0,0-2.8,0,11.51,11.51,0,0,0-1.4.36c-.46.15-.92.34-1.39.51-.66.27-1.36.55-2,.87l-.49.27-.19.11a9.78,9.78,0,0,0-1.48,1.07l-.38.32-.47.41-1,.8-.4.3c-.35.27-.71.53-1.07.78l-.49.35-.4.28c-.57.42-1.15.84-1.7,1.31l-.42.32-1,.85-.4.34-.29.25c-.41.35-.82.72-1.22,1.09l-.44.41-.57.53-.77.75-.28.29-.18.2-.27.33-.42.62a8.12,8.12,0,0,1-1.06,1.2c-.21.2-.42.4-.66.59l-.42.37-.09.07-.28.23a1.73,1.73,0,0,0-.23.24,2.71,2.71,0,0,0-.41.55v0a6.11,6.11,0,0,0-.27.58,4.58,4.58,0,0,0-.19.66h0a.29.29,0,0,1-.34.23h0a.28.28,0,0,1-.24-.32,4.35,4.35,0,0,1,.45-1.57,3.67,3.67,0,0,1,.36-.6l.07-.1a3.73,3.73,0,0,1,.26-.3h0l.29-.27.55-.53.43-.44a8.52,8.52,0,0,0,1-1.18l.41-.65a8.16,8.16,0,0,1,.5-.66c.17-.21.45-.49.65-.71l.39-.39h0c.42-.42.85-.83,1.3-1.24l.42-.38.53-.48c.3-.26.6-.52.91-.77l.45-.38c.33-.26.65-.53,1-.79l.46-.35c.6-.45,1.21-.88,1.82-1.31l.2-.13.11-.08c.51-.36,1-.71,1.47-1.08l.46-.37.33-.28c.34-.28.65-.57,1-.86a.64.64,0,0,1,.15-.13L651,386a10.64,10.64,0,0,1,1-.66c.31-.19.65-.35,1-.51a4.69,4.69,0,0,1,.46-.21c.47-.21.94-.4,1.41-.59s1-.36,1.46-.52a11.37,11.37,0,0,1,1.53-.37,8.49,8.49,0,0,1,1.81-.13,6.18,6.18,0,0,1,1.42.22,4.24,4.24,0,0,1,1.51.77,3.14,3.14,0,0,1,.6.66,2,2,0,0,1,.33.92A1.59,1.59,0,0,1,663.44,386.07Z" transform="translate(-621.48 -300.47)"/><path class="cls-2" d="M654.91,397.7a37.69,37.69,0,0,0-2.69,4.48c-.65,1.24-1.22,2.52-1.75,3.81l-.06.17c-.11.26-.22.53-.32.8-.32.82-.6,1.64-.88,2.47a1.13,1.13,0,0,1-.09.28l-.18.57-.12.4-.37,1.26c-.23.76-.47,1.52-.66,2.29l-.06.23-.1.38h0L647,417v0a.31.31,0,0,1,0,.13,1,1,0,0,1,0,.16,1,1,0,0,1-.1.29,13.06,13.06,0,0,1-.48,1.23,8.47,8.47,0,0,1-.66,1.22l-.09.17-.13.23c-.15.26-.32.51-.48.77s-.2.33-.32.49l-.15.21a.1.1,0,0,1,0,.05c-.34.5-.71,1-1.09,1.44h0l-.26.29c-.25.28-.5.56-.78.83a4.26,4.26,0,0,1-.66.53c-.23.14-.47.27-.71.39l-.22.1-.14.06a11.25,11.25,0,0,1-1.4.54l-.24.08q-.43.13-.9.24H638l-.24.06h-.09l-.29.05a7,7,0,0,1-.8.08h-.08a3.41,3.41,0,0,1-1.61-.31,2.23,2.23,0,0,1-.41-.27l-.09-.09-.08-.07-.11-.07a4,4,0,0,0-.5-.4c-.19-.12-.38-.22-.6-.34a3.68,3.68,0,0,1-.73-.45,2.05,2.05,0,0,1-.32-.34,1.67,1.67,0,0,1-.25-.4l-.09-.2-.08-.19a3,3,0,0,1-.12-.4,2.74,2.74,0,0,1-.09-.39l-.07-.38a4.69,4.69,0,0,0-.14-.65,5.16,5.16,0,0,0-.23-.66c-.09-.19-.22-.41-.33-.65a3.33,3.33,0,0,1-.23-.82,7.38,7.38,0,0,1-.07-.81c0-.51,0-1,.05-1.52s.08-1,.12-1.5.13-1.24.24-1.86c.06-.36.13-.73.21-1.09h0a18.83,18.83,0,0,1,.66-2.18.65.65,0,0,1,0-.13c.07-.21.16-.41.24-.61.2-.46.42-.9.61-1.31s.21-.66.32-1l.3-.92.27-.82h0l.46-1.44v.1l0-.16a.34.34,0,0,1,.42-.25.35.35,0,0,1,.25.41h0v.11l-.17.52-.24.81-.24.8-.32,1.06v0h0l-.14.48-.08.28a1.86,1.86,0,0,1-.1.25s0,0,0,0c-.15.37-.3.69-.44,1s-.28.65-.39,1a3.68,3.68,0,0,0-.15.47c-.09.3-.17.6-.25.9s-.11.47-.17.7h0l0,.2c-.08.38-.14.76-.2,1.14s-.13,1-.17,1.55c0,.31-.06.61-.08.92a3.26,3.26,0,0,1,0,.54,9.13,9.13,0,0,1,0,.93v.52a3.47,3.47,0,0,0,.22,1.27c.09.19.21.41.33.66a5,5,0,0,1,.29.76c.07.26.13.52.18.77l.07.35a2.54,2.54,0,0,0,.63,1.36,3.11,3.11,0,0,0,.53.32c.22.11.47.24.7.38a4.7,4.7,0,0,1,.65.53l.15.14.06.06,0,0,.21.14a2.73,2.73,0,0,0,1.2.19,4.45,4.45,0,0,0,.66-.07l.35-.06h0l.3-.06a13,13,0,0,0,2.68-1,4.89,4.89,0,0,0,.6-.33,3.8,3.8,0,0,0,.49-.41,12.06,12.06,0,0,0,1-1.05h0c.37-.44.71-.9,1-1.36.17-.23.33-.48.48-.72s.26-.39.38-.6l.08-.13.09-.16a14.56,14.56,0,0,0,.7-1.36,11.83,11.83,0,0,0,.61-1.59v0h0v0l.73-2.53c.06-.25.13-.49.21-.74l.15-.51c.13-.43.27-.86.4-1.31l.39-1.27c.13-.41.25-.82.4-1.23v0l.17-.49c.24-.66.5-1.31.77-2,.18-.44.37-.88.56-1.3.08-.19.16-.37.25-.55.45-1,.94-2,1.48-2.95a35.14,35.14,0,0,1,2.92-4.45.25.25,0,0,1,.36-.05h0A.29.29,0,0,1,654.91,397.7Z" transform="translate(-621.48 -300.47)"/><path class="cls-2" d="M701.14,438a8.75,8.75,0,0,1-1.09,1.47c-.4.45-.82.88-1.25,1.31q-1.29,1.21-2.7,2.31c-.9.7-1.76,1.49-2.62,2.29s-1.67,1.63-2.47,2.47-1.59,1.7-2.33,2.62l-.54.65c-.17.21-.34.45-.51.65s-.14.24-.21.35a.84.84,0,0,0-.11.18l-.08.16-.08.16-.07.21-.15.41a23.85,23.85,0,0,0-.91,3.31,10,10,0,0,0-.11,3.32,5.26,5.26,0,0,0,.21.75,2.76,2.76,0,0,0,.36.65,4.11,4.11,0,0,0,1.16,1,9.15,9.15,0,0,0,3.1,1.15,11.35,11.35,0,0,0,3.34.19,7.49,7.49,0,0,0,.8-.15l.18,0,.22-.06.43-.13c.56-.16,1.11-.32,1.64-.51A17,17,0,0,0,703,459a48.23,48.23,0,0,0,4.67-5.12,43.48,43.48,0,0,0,3.84-5.77A26.08,26.08,0,0,0,713,445c.42-1.07.78-2.16,1.09-3.26a69.74,69.74,0,0,0,1.58-6.8,41.9,41.9,0,0,0,.78-6.88,13.5,13.5,0,0,0-.08-1.68,1.84,1.84,0,0,0-.06-.41c0-.13,0-.27-.08-.39l-.05-.2-.06-.2-.13-.42a9.8,9.8,0,0,0-.59-1.56,3.41,3.41,0,0,0-.87-1.22,1.45,1.45,0,0,0-1.26-.2,4.25,4.25,0,0,0-.77.23l-.33.15-.32.2a5.22,5.22,0,0,0-1.09,1.16,12,12,0,0,0-.92,1.43c-.58,1-1.13,2-1.73,3.07a33.83,33.83,0,0,1-2,3c-1.38,1.93-2.81,3.78-4.31,5.6a.32.32,0,0,1-.5-.4h0c1.43-1.84,2.81-3.73,4.11-5.66.66-1,1.31-2,1.85-2.95s1.1-2.06,1.67-3.09a15.7,15.7,0,0,1,1-1.54,6.19,6.19,0,0,1,1.3-1.4l.43-.28.46-.21a6.08,6.08,0,0,1,.92-.28,3.09,3.09,0,0,1,1-.06,2.31,2.31,0,0,1,1,.44,4.18,4.18,0,0,1,1.21,1.58,13,13,0,0,1,.66,1.7l.13.44.07.21.06.23c0,.15.07.31.1.47a3.65,3.65,0,0,0,.07.46,15.73,15.73,0,0,1,.1,1.82,30.29,30.29,0,0,1-.24,3.57q-.21,1.77-.54,3.51-.66,3.48-1.6,6.9a33.59,33.59,0,0,1-1.12,3.39,30.76,30.76,0,0,1-1.54,3.23,42.54,42.54,0,0,1-3.92,5.93,47.54,47.54,0,0,1-4.8,5.23,23.15,23.15,0,0,1-2.78,2.27,14.17,14.17,0,0,1-3.23,1.68c-.58.21-1.15.37-1.72.53l-.38.08-.21.06-.23.06a7.38,7.38,0,0,1-.94.16,12.43,12.43,0,0,1-3.65-.21,10.35,10.35,0,0,1-3.44-1.31,5.29,5.29,0,0,1-1.44-1.31,3.57,3.57,0,0,1-.48-.88,5.82,5.82,0,0,1-.26-.93,10.58,10.58,0,0,1,.14-3.68,23.37,23.37,0,0,1,1-3.46l.15-.41.08-.21a.61.61,0,0,1,.11-.23l.11-.24.12-.2c0-.07.17-.27.26-.39s.36-.49.55-.72.37-.47.56-.69c.77-.91,1.57-1.78,2.4-2.62s1.66-1.67,2.53-2.47,1.75-1.58,2.7-2.31,1.83-1.42,2.69-2.2c.43-.39.84-.79,1.24-1.21a8.74,8.74,0,0,0,1-1.31h0a.32.32,0,1,1,.55.33Z" transform="translate(-621.48 -300.47)"/><path class="cls-2" d="M654.67,447.52A142.85,142.85,0,0,1,663.46,427c.85-1.64,1.76-3.27,2.69-4.88l1.43-2.4,1.5-2.36q3-4.66,6.27-9.2t6.54-9c2.26-2.94,4.57-5.88,7-8.67q1.83-2.12,3.7-4.17c1.27-1.36,2.56-2.7,3.89-4s2.7-2.55,4.14-3.74a38.08,38.08,0,0,1,4.51-3.27.24.24,0,0,1,.25.4h0a41.83,41.83,0,0,0-4.35,3.38c-1.39,1.21-2.72,2.49-4,3.81s-2.55,2.67-3.78,4.05-2.43,2.78-3.6,4.2c-4.72,5.69-9.16,11.63-13.35,17.7q-3.18,4.55-6.2,9.19c-2,3.1-3.84,6.29-5.58,9.54s-3.33,6.58-4.83,10q-1.12,2.52-2.16,5.09c-.7,1.71-1.36,3.44-2,5.17h0a.47.47,0,0,1-.89-.31Z" transform="translate(-621.48 -300.47)"/><path class="cls-2" d="M659.62,383.92h0a.45.45,0,0,1-.45-.47h0c.07-2.94.65-10.46,4.48-16.75a58.28,58.28,0,0,1,4.07-6h0a36,36,0,0,1,2.61-3,45.33,45.33,0,0,1,3.7-3.37l.49-.4a22.86,22.86,0,0,1,2.14-1.64c.3-.21.6-.4.91-.58A22.43,22.43,0,0,1,680,350.4l.55-.24h.06a43.68,43.68,0,0,1,4.84-1.63l.38-.1c.78-.21,1.5-.4,2.21-.56l.44-.11h0l1.37-.3.36-.08,2.11-.43h0l.27-.05c2-.38,4.2-.74,6.54-1.08a18.46,18.46,0,0,1,6.2.28.46.46,0,0,1-.19.91,17.39,17.39,0,0,0-5.89-.26c-2.32.33-4.51.7-6.49,1.07l-.28.06h0l-2.06.41-.36.08-1.38.3h0l-.43.1c-.7.17-1.41.35-2.17.56l-.38.1A42.9,42.9,0,0,0,681,351H681l-.53.23a20.78,20.78,0,0,0-2.35,1.2c-.28.17-.57.35-.87.55a24.27,24.27,0,0,0-2.05,1.58l-.49.4a43.2,43.2,0,0,0-3.63,3.27,34,34,0,0,0-2.54,2.95h0a61.5,61.5,0,0,0-4,5.95c-3.7,6.12-4.27,13.43-4.34,16.28a.47.47,0,0,1-.45.49Z" transform="translate(-621.48 -300.47)"/><path class="cls-2" d="M697.48,365.92a.47.47,0,0,1-.32-.81,51.06,51.06,0,0,0,3.72-3.78c.49-.54,1-1.08,1.41-1.63.91-1.09,1.78-2.21,2.58-3.33a34,34,0,0,1,2.35-3,.47.47,0,0,1,.69.65h0a33.43,33.43,0,0,0-2.27,2.91c-.82,1.13-1.7,2.28-2.62,3.39-.46.55-.94,1.11-1.42,1.65-1.21,1.35-2.49,2.61-3.78,3.84A.47.47,0,0,1,697.48,365.92Z" transform="translate(-621.48 -300.47)"/><path class="cls-2" d="M717.68,378.55h-.14a.47.47,0,0,1-.3-.59c.65-2.14,1.31-4,2-5.6a32.92,32.92,0,0,1,2.07-4.62,18.77,18.77,0,0,0,1.66-3.58,5.19,5.19,0,0,1,.19-.52.47.47,0,0,1,.63-.22.47.47,0,0,1,.24.55c-.06.16-.11.32-.18.5a19,19,0,0,1-1.73,3.75,32,32,0,0,0-2,4.48c-.6,1.55-1.24,3.42-1.92,5.55A.48.48,0,0,1,717.68,378.55Z" transform="translate(-621.48 -300.47)"/><path class="cls-2" d="M716.36,424.72a.48.48,0,0,1-.39-.21.47.47,0,0,1,.13-.65h0c1.84-1.21,5.59-3.62,9.88-6.17a23.13,23.13,0,0,0,7.42-6.67l.25-.37c.26-.4.52-.81.75-1.23v0a23.48,23.48,0,0,0,2.7-9.26,32.48,32.48,0,0,0,.13-3.42v-1.06c0-1,0-2-.07-2.92v-.53c-.06-1.35-.15-2.62-.27-3.84a.47.47,0,0,1,.93-.09c.12,1.22.21,2.52.28,3.88h0v.52c0,1,.06,2,.08,2.94v1.07a31.69,31.69,0,0,1-.14,3.51,24.3,24.3,0,0,1-2.79,9.6h0a15.21,15.21,0,0,1-.8,1.31l-.26.39a24,24,0,0,1-7.72,6.94c-4.28,2.54-8,4.94-9.85,6.15A.46.46,0,0,1,716.36,424.72Z" transform="translate(-621.48 -300.47)"/><path class="cls-2" d="M737.34,388.79a.46.46,0,0,1-.47-.44,4.43,4.43,0,0,0-.06-.51c-.11-1.12-.25-2.18-.42-3.27l-.09-.52c-.09-.51-.19-1-.29-1.51a2.33,2.33,0,0,0-.11-.51c-.15-.7-.3-1.39-.47-2.06l-.13-.49c-.2-.79-.43-1.64-.74-2.74l-.12-.42v-.06l-.43-1.51c-.14-.52-.26-.9-.39-1.37,0-.11-.06-.23-.1-.35l0-.18c-.05-.16-.1-.33-.14-.5-.25-.88-.52-1.76-.81-2.61l-.15-.47c-.24-.72-.48-1.38-.72-2h0v-.07l-.16-.4a33.17,33.17,0,0,0-2-4.13.45.45,0,0,1,.13-.63l0,0a.47.47,0,0,1,.65.16h0a33.57,33.57,0,0,1,2,4.24c.06.13.11.27.17.41V367c.23.59.47,1.26.72,2l.15.48c.29.87.57,1.77.82,2.66,0,.17.09.34.14.5l0,.18a1.61,1.61,0,0,0,.1.36l.39,1.36c.15.51.29,1,.43,1.51v.05l.12.43c.31,1.12.54,2,.74,2.76,0,.16.1.33.14.5.17.66.33,1.38.48,2.09,0,.17.07.34.11.52.11.5.2,1,.29,1.54a1.37,1.37,0,0,0,0,.28l0,.24c.18,1.08.32,2.16.44,3.27a2.15,2.15,0,0,0,0,.5.08.08,0,0,1,0,.07.45.45,0,0,1-.4.52Z" transform="translate(-621.48 -300.47)"/><path class="cls-2" d="M717,352.76a4.78,4.78,0,0,1-1,1.31,9,9,0,0,1-1.23,1,5.09,5.09,0,0,1-.71.42l-.22.09-.24.06a2.65,2.65,0,0,1-.42.06c-.53.05-1,.05-1.53.08a5,5,0,0,0-.66.08h-.15a1.86,1.86,0,0,1-.33,0,2.65,2.65,0,0,1-.48-.07,5.27,5.27,0,0,1-1.55-.65,5.58,5.58,0,0,1-.69-.51,3,3,0,0,1-.59-.72.9.9,0,0,1-.12-.51v-.48a.48.48,0,0,0,0-.17.32.32,0,0,0,.18.12h0l-.36.14a1.57,1.57,0,0,1-.3.05.7.7,0,0,1-.4-.09.83.83,0,0,1-.3-.26l-.08-.13-.06-.12a1.19,1.19,0,0,1-.08-.62,1.39,1.39,0,0,1,.2-.51,2.49,2.49,0,0,0,.15-.28.38.38,0,0,0,0-.15.33.33,0,0,0,0-.17,1.39,1.39,0,0,0-.35-.41l-.57-.48a3.74,3.74,0,0,1-.31-.27,1.67,1.67,0,0,1-.31-.34,1,1,0,0,1-.12-.23.93.93,0,0,1,0-.29,2.44,2.44,0,0,1,.07-.46c.07-.27.15-.53.22-.77s.14-.48.19-.69a1.26,1.26,0,0,0,0-.27v-.1h0l-.07-.05a1,1,0,0,1-.3-.38.89.89,0,0,1,0-.51,1.46,1.46,0,0,1,.29-.55,3,3,0,0,1,.3-.32c.2-.19.4-.36.59-.51s.37-.32.53-.48a1.58,1.58,0,0,0,.34-.43v-.06h0a3.19,3.19,0,0,1,.35-.47,3.5,3.5,0,0,1,.38-.39,5,5,0,0,1,.86-.66,5.37,5.37,0,0,1,2-.78,4.79,4.79,0,0,1,1.07-.09,6.22,6.22,0,0,1,1,.06,4.22,4.22,0,0,1,2,.75,2.37,2.37,0,0,1,.72.91,3.11,3.11,0,0,1,.26,1.09,6.37,6.37,0,0,1,0,1.07,3.47,3.47,0,0,1-.29,1.06,4.41,4.41,0,0,1-1.42,1.64,9.51,9.51,0,0,1-1.81,1h0l-.24-.6a8.84,8.84,0,0,1,2.38-.54,4.43,4.43,0,0,1,1.31.07,2.22,2.22,0,0,1,1.2.65l.2.28.17.26.3.54a5,5,0,0,1,.45,1.18,2.9,2.9,0,0,1,0,1.31A6.84,6.84,0,0,1,717,352.76Zm-.66-.32a4.77,4.77,0,0,0,.42-1,2.16,2.16,0,0,0,0-1,4.64,4.64,0,0,0-.38-1c-.09-.17-.17-.34-.27-.5l-.15-.25-.14-.2a1.61,1.61,0,0,0-.84-.45,3.58,3.58,0,0,0-1.08-.07,8.75,8.75,0,0,0-2.21.5.32.32,0,0,1-.42-.19.35.35,0,0,1,.17-.41h0a9.65,9.65,0,0,0,1.69-.95,3.64,3.64,0,0,0,1.22-1.39,3.9,3.9,0,0,0,.25-1.82,2,2,0,0,0-.74-1.51,3.53,3.53,0,0,0-1.72-.58c-.32,0-.65,0-1,0a4.92,4.92,0,0,0-.94.1,4.43,4.43,0,0,0-1.71.7,4.16,4.16,0,0,0-.71.61c-.1.11-.2.23-.29.35a2.41,2.41,0,0,0-.23.36l0-.09a2.57,2.57,0,0,1-.49.83c-.19.22-.37.4-.55.58s-.37.35-.53.52-.13.15-.2.23a.37.37,0,0,0-.07.12.25.25,0,0,0-.07-.23h0l.06.05.15.12a1.2,1.2,0,0,1,.21.34,1.34,1.34,0,0,1,.05.66,1.9,1.9,0,0,1-.15.46c-.24.53-.6.9-.8,1.31a1.43,1.43,0,0,0-.09.27v.09a.21.21,0,0,0,.06.1,1.25,1.25,0,0,0,.52.36c.22.11.47.2.71.34a1.69,1.69,0,0,1,.69.66,1.46,1.46,0,0,1,.16.55,1.28,1.28,0,0,1-.11.58,2.5,2.5,0,0,1-.23.39.51.51,0,0,0-.09.18.24.24,0,0,0,0,.12v.05h0a2.1,2.1,0,0,0,.36-.12.87.87,0,0,1,.36,0,.56.56,0,0,1,.3.12.62.62,0,0,1,.17.22.9.9,0,0,1,.09.33v.41a.33.33,0,0,0,.06.1,1.43,1.43,0,0,1,.14.2,2.44,2.44,0,0,0,.88.84,4.65,4.65,0,0,0,1.23.54l.27.05h.14l.12,0a4.76,4.76,0,0,1,.84-.07H713l.33,0h.13l.13-.05a5.28,5.28,0,0,0,.62-.33,8,8,0,0,0,1.15-.86,3.81,3.81,0,0,0,1-1.08Z" transform="translate(-621.48 -300.47)"/><path class="cls-2" d="M720.72,357.6v-1.42a4.59,4.59,0,0,1,.32-1.41,2.11,2.11,0,0,1,.16-.34,3.45,3.45,0,0,1,.2-.32l.13-.15.14-.14.27-.24a7,7,0,0,1,1.16-.79,3.1,3.1,0,0,1,1.46-.37A2.31,2.31,0,0,1,726,353a4.06,4.06,0,0,1,.92,1.1,9.38,9.38,0,0,1,.61,1.23h0l-.49.12a6.22,6.22,0,0,1,0-1.14,5,5,0,0,1,.25-1.13,3.1,3.1,0,0,1,.58-1.05,2.09,2.09,0,0,1,.48-.41l.14-.09.15-.06c.1,0,.21-.09.29-.11.36-.11.73-.2,1.1-.28a3.4,3.4,0,0,1,1.19-.06,2.22,2.22,0,0,1,1.17.54,2.37,2.37,0,0,1,.41.48,3.12,3.12,0,0,1,.3.53,7.52,7.52,0,0,1,.55,2.23,8.43,8.43,0,0,1,0,2.3,11.83,11.83,0,0,1-1.6,4.22c-.09.16-.2.32-.29.47l-.13.22c0,.07,0,.06,0,0h0a.11.11,0,0,1,0,.08.37.37,0,0,1-.07.12.47.47,0,0,1-.14.14.53.53,0,0,1-.21.11l-.17.07-.28.08-.52.14a3.29,3.29,0,0,0-.44.16l-.15.09,0,0h0l0,0a3.31,3.31,0,0,1-.87.92,1,1,0,0,1-.17.1l-.21.07h-.24a.57.57,0,0,1-.26,0,1.07,1.07,0,0,1-.41-.21,1.33,1.33,0,0,1-.26-.27l-.11-.14a.64.64,0,0,1-.08-.14l-.08-.14-.05-.11a1.06,1.06,0,0,0-.17-.26h0a.14.14,0,0,0-.09.05,2.08,2.08,0,0,0-.32.34,3.64,3.64,0,0,1-.4.48.83.83,0,0,1-.18.13.8.8,0,0,1-.3.09.85.85,0,0,1-.53-.18l-.14-.12-.11-.09-.1-.08h.07v.05a.18.18,0,0,0,0,.07l-.05.09v.05l-.07.1a.88.88,0,0,1-.26.25.77.77,0,0,1-.49.11.83.83,0,0,1-.36-.13,1.49,1.49,0,0,1-.2-.15,2.62,2.62,0,0,1-.42-.57,4.39,4.39,0,0,1-.27-.53,10.61,10.61,0,0,1-.42-1.06c-.25-.71-.45-1.41-.65-2.13q-.15-.54-.27-1.08A10.78,10.78,0,0,1,720.72,357.6Zm.69-.11c.07.32.18.68.28,1s.22.69.34,1c.24.65.51,1.35.79,2,.14.32.29.65.45.95s.16.3.24.44a1.39,1.39,0,0,0,.23.31h-.09a.36.36,0,0,0-.22.05s-.06.05-.06.06h0l0-.06.1-.14c0-.05.08-.1.12-.15a1.07,1.07,0,0,1,.16-.14,1.14,1.14,0,0,1,.23-.15l.16-.06h.19a.6.6,0,0,1,.19,0l.16.06a1,1,0,0,1,.21.15l.08.08.06.07.09.11.08.11,0,.07s0,0,0,0,0,0,0,0h0a2.65,2.65,0,0,0,.33-.34,3.07,3.07,0,0,1,.41-.47,1,1,0,0,1,.38-.23.83.83,0,0,1,.56.05,1.13,1.13,0,0,1,.34.27,2.88,2.88,0,0,1,.22.27l.08.14.06.09.06.1.06.07.12.12.07,0a.54.54,0,0,0,.16,0,2.78,2.78,0,0,0,.62-.66l0-.05.06-.08a1.1,1.1,0,0,1,.16-.15,2.14,2.14,0,0,1,.32-.2,4.19,4.19,0,0,1,.59-.22l.54-.13.24-.06.13-.05,0,.05v.1h0l.06-.13a.41.41,0,0,1,.05-.09l.15-.25.29-.46a11,11,0,0,0,1.53-3.92,7.27,7.27,0,0,0,.09-2.08,6.72,6.72,0,0,0-.45-2,2.46,2.46,0,0,0-.23-.42,1.93,1.93,0,0,0-.28-.36,1.55,1.55,0,0,0-.8-.37,2.69,2.69,0,0,0-1,0c-.34.06-.66.14-1,.23l-.22.08-.11,0-.09.06a1.93,1.93,0,0,0-.36.28,2.73,2.73,0,0,0-.49.84,6,6,0,0,0-.33,2.06h0a.26.26,0,0,1-.25.26.25.25,0,0,1-.24-.16h0a7.84,7.84,0,0,0-.66-1.12,3.57,3.57,0,0,0-.82-.91,1.7,1.7,0,0,0-1-.38,2.34,2.34,0,0,0-1.1.32,8.43,8.43,0,0,0-1,.73l-.12.11a.45.45,0,0,0-.1.09l-.1.09-.09.12a1.14,1.14,0,0,0-.15.23,1.3,1.3,0,0,0-.14.26,3.77,3.77,0,0,0-.29,1.19v1a1.91,1.91,0,0,0,0,.24Z" transform="translate(-621.48 -300.47)"/><path class="cls-2" d="M683.19,468.35a56.16,56.16,0,0,1-12.62-110.88.47.47,0,0,1,.52.23.48.48,0,0,1-.07.56,35.7,35.7,0,0,0-2.55,2.95v0a61.36,61.36,0,0,0-4,5.94c-3.51,5.83-4.21,12.72-4.33,15.83a4.93,4.93,0,0,1,2.29.81l.71-.56.65-.48.1-.07c.65-.5,1.23-.93,1.82-1.35l.65-.48c.43-.31.92-.66,1.5-1.05l.71-.48,1.48-1,.62-.41c1.52-1,3.2-2.06,5-3.16l.79-.48,2.18-1.31c.86-.5,1.73-1,2.66-1.51l.71-.4A60.47,60.47,0,0,1,697.26,365c1.24-1.15,2.46-2.4,3.62-3.69.48-.53,1-1.08,1.4-1.62a.47.47,0,0,1,.53-.15,56,56,0,0,1,17.84,10.79.49.49,0,0,1,0,.66.48.48,0,0,1-.66,0,55.18,55.18,0,0,0-17.22-10.46c-.39.48-.8.94-1.21,1.4-1.21,1.34-2.48,2.61-3.78,3.84a.38.38,0,0,1-.23.11,59.53,59.53,0,0,0-15.14,6l-.71.38c-.93.52-1.79,1-2.61,1.51s-1.47.87-2.17,1.31l-.79.48c-1.79,1.1-3.47,2.15-5,3.15l-.61.4-1.48,1-.7.48-1.49,1-.65.47c-.58.42-1.16.85-1.81,1.31l-.08.07-.66.48c-.36.28-.69.54-1,.79a.48.48,0,0,1-.62,0,3.7,3.7,0,0,0-2.47-.85.48.48,0,0,1-.46-.49h0c.08-2.93.65-10.46,4.48-16.75a62.74,62.74,0,0,1,4.07-6v0c.52-.66,1-1.31,1.56-1.89a55.2,55.2,0,1,0,67.83,41.51.46.46,0,0,1,.36-.56.47.47,0,0,1,.56.36,56.17,56.17,0,0,1-54.84,68.27Z" transform="translate(-621.48 -300.47)"/><path class="cls-2" d="M630,408.86a38.76,38.76,0,0,1,.82-7.13,42,42,0,0,1,2.06-6.86c.44-1.12.92-2.22,1.45-3.27s1.11-2.13,1.74-3.15a37.76,37.76,0,0,1,4.27-5.77,65,65,0,0,0-3.79,6c-.57,1-1.12,2.09-1.62,3.17s-1,2.15-1.4,3.26-.84,2.21-1.2,3.34-.69,2.27-1,3.42A63.16,63.16,0,0,0,630,408.86Z" transform="translate(-621.48 -300.47)"/><path class="cls-2" d="M645.81,448.26c1.34,1.23,2.7,2.43,4.13,3.54.72.56,1.44,1.11,2.17,1.62s1.49,1,2.26,1.51,1.54.94,2.33,1.37,1.59.86,2.4,1.27c1.62.79,3.27,1.51,5,2.19a30.13,30.13,0,0,1-5.23-1.7c-.85-.35-1.67-.76-2.49-1.17s-1.61-.89-2.39-1.38-1.53-1-2.26-1.55-1.46-1.13-2.14-1.73A30.09,30.09,0,0,1,645.81,448.26Z" transform="translate(-621.48 -300.47)"/><path class="cls-2" d="M644.94,447.29a1.26,1.26,0,0,1-.47-.38,1.33,1.33,0,0,1-.3-.53,1.43,1.43,0,0,1,.47.38A1.33,1.33,0,0,1,644.94,447.29Z" transform="translate(-621.48 -300.47)"/><path class="cls-2" d="M645.74,451c.7.65,1.42,1.22,2.14,1.82s1.47,1.16,2.23,1.7A55.26,55.26,0,0,0,665,462.21c.87.32,1.77.58,2.66.85.45.14.91.24,1.35.36l.65.18.66.15a54.32,54.32,0,0,0,5.51,1,54.91,54.91,0,0,0,5.59.44c1.87.06,3.74,0,5.61-.09a52.78,52.78,0,0,1-5.62.32,55.54,55.54,0,0,1-5.62-.31,47.39,47.39,0,0,1-5.56-.92l-.69-.15-.69-.18c-.45-.12-.91-.22-1.36-.35-.9-.27-1.81-.52-2.7-.84a51.17,51.17,0,0,1-10.13-4.76,53.13,53.13,0,0,1-4.64-3.21A49.91,49.91,0,0,1,645.74,451Z" transform="translate(-621.48 -300.47)"/><path class="cls-2" d="M734.05,410.9c0,.81-.07,1.62-.13,2.42A50.55,50.55,0,0,1,731.54,425l-.23.72c-.08.23-.17.46-.26.7l-.52,1.41c-.4.91-.75,1.85-1.2,2.75-.21.44-.42.9-.65,1.35l-.7,1.3c-.12.23-.23.45-.36.66l-.37.65-.37.65-.4.66a50.83,50.83,0,0,1-3.47,4.89,48.5,48.5,0,0,1-8.55,8.33,58.4,58.4,0,0,0,8.11-8.67,54,54,0,0,0,6.12-10.12c.45-.88.81-1.81,1.2-2.71l.53-1.38c.08-.24.18-.47.25-.7l.25-.7c.15-.47.32-.93.46-1.41l.43-1.42c.13-.47.25-.95.38-1.43s.24-1,.35-1.44a58.05,58.05,0,0,0,1.26-7.85Z" transform="translate(-621.48 -300.47)"/><path class="cls-2" d="M664.12,383.09l-.72.54c0-.3,0-.61,0-.92,0-.69,0-1.39,0-2.08a20.08,20.08,0,0,1,.23-2.05c0-.34.11-.65.17-1s.15-.65.22-1c0,.34-.07.66-.1,1s0,.66-.06,1v2a13.41,13.41,0,0,0,.19,2Z" transform="translate(-621.48 -300.47)"/><path class="cls-2" d="M668.81,379.74l-.71.48a17.45,17.45,0,0,1,.13-3.15,16.39,16.39,0,0,1,1.4-4.79,15.93,15.93,0,0,0-.82,7.46Z" transform="translate(-621.48 -300.47)"/><path class="cls-2" d="M677.75,366l-.44,2.85c-.16.94-.28,1.89-.38,2.84s-.19,2-.25,3l-.79.48c.17-1.19.36-2.37.58-3.55.17-.95.37-1.89.6-2.83Z" transform="translate(-621.48 -300.47)"/><path class="cls-2" d="M684.11,370a15,15,0,0,1,1.91-6.44,14.47,14.47,0,0,0-1,6.44.48.48,0,0,1-.39.54.47.47,0,0,1-.54-.39s0-.05,0-.08V370Z" transform="translate(-621.48 -300.47)"/><path class="cls-2" d="M678.93,361.35c.1-.61.23-1.21.37-1.81s.33-1.18.53-1.77a11.91,11.91,0,0,1,.65-1.72,8.8,8.8,0,0,1,1-1.54h0c-.18.6-.42,1.16-.65,1.72s-.52,1.09-.75,1.65-.46,1.13-.66,1.7-.38,1.16-.55,1.75h0Z" transform="translate(-621.48 -300.47)"/><path class="cls-2" d="M692.75,347.31l-.16.3c-.35.66-.66,1.31-1,2s-.5,1.4-.77,2.1-.52,1.39-.82,2.08h0a9.35,9.35,0,0,1,.42-2.23,13.21,13.21,0,0,1,.88-2.09c.33-.65.7-1.34,1.09-2l.09-.14h0Z" transform="translate(-621.48 -300.47)"/><path class="cls-2" d="M690.38,347.78c-.12.28-.24.58-.35.87a10.86,10.86,0,0,1-.49,1.23,6.91,6.91,0,0,1-.69,1.17h0a5.8,5.8,0,0,1,.3-1.31,8,8,0,0,1,.58-1.22l.34-.65Z" transform="translate(-621.48 -300.47)"/><path class="cls-2" d="M680.83,350.54c-.29.38-.57.76-.84,1.15-.44.66-.81,1.31-1.23,2s-.81,1.31-1.24,2h0a11,11,0,0,1,.87-2.2,14.34,14.34,0,0,1,1.31-2c.18-.22.36-.45.54-.65A5.75,5.75,0,0,1,680.83,350.54Z" transform="translate(-621.48 -300.47)"/><path class="cls-2" d="M682.21,371.51l-.71.39a13.64,13.64,0,0,1,1.37-4.88A13.18,13.18,0,0,0,682.21,371.51Z" transform="translate(-621.48 -300.47)"/><path class="cls-2" d="M677.83,352l-.29.4c-.32.49-.6,1-.92,1.47s-.65,1-1,1.45h0a7.09,7.09,0,0,1,.66-1.67,6.46,6.46,0,0,1,.72-1.07A8.76,8.76,0,0,1,677.83,352Z" transform="translate(-621.48 -300.47)"/><path class="cls-2" d="M688.18,348.27c-.12.15-.25.3-.36.45a5,5,0,0,0-.65,1,3.44,3.44,0,0,0-.32,1.22h0a7.93,7.93,0,0,0,.69-1c.22-.34.37-.71.58-1.06s.32-.51.5-.76h0Z" transform="translate(-621.48 -300.47)"/><path class="cls-2" d="M686,348.83l-.38.58c-.4.66-.78,1.31-1.14,2m0,0h0c.3-.69.66-1.38,1-2.05l.21-.36Z" transform="translate(-621.48 -300.47)"/><path class="cls-2" d="M683.25,350.44c-.31.49-.61,1-.89,1.49s-.55,1-.8,1.52-.47,1.05-.73,1.56-.56,1-.87,1.51h0a7.61,7.61,0,0,1,.49-1.69,11.12,11.12,0,0,1,.78-1.54c.3-.51.62-1,.94-1.47a15.6,15.6,0,0,1,1.06-1.4h0Z" transform="translate(-621.48 -300.47)"/><path class="cls-2" d="M666.61,381.26l-.66.49a9.14,9.14,0,0,1,.76-4.38A8.66,8.66,0,0,0,666.61,381.26Z" transform="translate(-621.48 -300.47)"/><path class="cls-2" d="M670.88,377.84a4.17,4.17,0,0,0,0,.5l-.61.4a6.2,6.2,0,0,1,.13-.95,7,7,0,0,1,.88-2.19A6.87,6.87,0,0,0,670.88,377.84Z" transform="translate(-621.48 -300.47)"/><path class="cls-4" d="M728.12,372" transform="translate(-621.48 -300.47)"/><path class="cls-2" d="M732.07,367.15h0c-.21.33-.42.66-.65,1-.52.73-1.07,1.45-1.65,2.13a20.31,20.31,0,0,1-1.86,2c.52-.73,1.05-1.45,1.57-2.17s1-1.44,1.55-2.17c.28-.4.56-.8.83-1.21Z" transform="translate(-621.48 -300.47)"/><path class="cls-2" d="M733,369.63c-.19.18-.38.37-.58.54a10.91,10.91,0,0,1-1.22.93c.3-.42.66-.8,1-1.19s.45-.51.65-.76Z" transform="translate(-621.48 -300.47)"/><path class="cls-2" d="M734.05,373.29c-.23.27-.47.54-.72.8a14.45,14.45,0,0,1-1.2,1.15,15.91,15.91,0,0,1,.92-1.39c.27-.37.56-.73.85-1.09Z" transform="translate(-621.48 -300.47)"/><path class="cls-2" d="M735,376.65l-.55.47c-.35.29-.69.6-1.05.87l-1.09.83c-.74.54-1.48,1.07-2.25,1.56a27.34,27.34,0,0,1,2-1.85c.71-.6,1.39-1.16,2.07-1.77l.71-.6C734.92,376.32,735,376.48,735,376.65Z" transform="translate(-621.48 -300.47)"/><path class="cls-2" d="M735.88,379.89c-.23.21-.47.41-.71.6a11.36,11.36,0,0,1-1.26.93,12.82,12.82,0,0,1,1-1.2l.83-.83C735.8,379.56,735.84,379.73,735.88,379.89Z" transform="translate(-621.48 -300.47)"/><path class="cls-2" d="M736.47,382.48c-.35.3-.72.59-1.1.86a11.61,11.61,0,0,1-1.73,1c.5-.45,1-.88,1.51-1.31s.81-.72,1.21-1.09C736.4,382.13,736.43,382.31,736.47,382.48Z" transform="translate(-621.48 -300.47)"/><path class="cls-2" d="M736.85,384.53l-1.07.86c-.56.43-1.14.86-1.74,1.25.48-.53,1-1,1.5-1.53s.81-.74,1.22-1.11C736.8,384.18,736.8,384.35,736.85,384.53Z" transform="translate(-621.48 -300.47)"/><path class="cls-2" d="M737.33,388.32h0c-.39.4-.79.8-1.2,1.19-.66.57-1.27,1.13-2,1.65a21,21,0,0,1-2.08,1.46c.6-.59,1.23-1.17,1.84-1.74l1.85-1.72,1.48-1.37A2.83,2.83,0,0,1,737.33,388.32Z" transform="translate(-621.48 -300.47)"/><path class="cls-2" d="M737.63,392.71l-.75.53a14.81,14.81,0,0,1-1.85,1.07c.53-.47,1.08-.91,1.63-1.37l.94-.77C737.61,392.35,737.62,392.51,737.63,392.71Z" transform="translate(-621.48 -300.47)"/><path class="cls-2" d="M737.71,396.16l-.37.24a12.75,12.75,0,0,1-1.27.66,9.84,9.84,0,0,1,1.06-1l.58-.47Z" transform="translate(-621.48 -300.47)"/><path class="cls-2" d="M725.4,401.72a7.24,7.24,0,0,1,.94-.71c.31-.22.65-.43,1-.65a5.92,5.92,0,0,1,1-.54,6.94,6.94,0,0,1,1.1-.42,7.27,7.27,0,0,1-.92.74c-.31.22-.65.43-1,.66a5.55,5.55,0,0,1-1,.53A7.43,7.43,0,0,1,725.4,401.72Z" transform="translate(-621.48 -300.47)"/><path class="cls-2" d="M722.27,388.33a7.74,7.74,0,0,1-.89.92c-.32.29-.66.56-1,.82l-.61.46V390a3.26,3.26,0,0,1,.36-.29,11.81,11.81,0,0,1,1-.74A9.92,9.92,0,0,1,722.27,388.33Z" transform="translate(-621.48 -300.47)"/><path class="cls-2" d="M723.86,390.48a18.88,18.88,0,0,1-1.31,1.37c-.46.43-.92.87-1.41,1.26s-.87.66-1.31,1v-.52c.33-.29.65-.57,1-.84l.73-.59c.23-.2.49-.4.74-.59C722.8,391.21,723.31,390.82,723.86,390.48Z" transform="translate(-621.48 -300.47)"/><path class="cls-2" d="M726.17,391.86a25.89,25.89,0,0,1-2,2,25.31,25.31,0,0,1-2.09,1.79c-.72.58-1.46,1.12-2.22,1.64l-.23.16V397h0l2.13-1.7,2.15-1.7C724.71,393,725.43,392.4,726.17,391.86Z" transform="translate(-621.48 -300.47)"/><path class="cls-2" d="M722.67,397.61a7.88,7.88,0,0,1-1.13,1.31,10,10,0,0,1-1.35,1.08c-.24.17-.49.32-.75.47a1.75,1.75,0,0,1,.06-.56c.14-.1.29-.19.43-.3.47-.3.93-.65,1.38-1Z" transform="translate(-621.48 -300.47)"/><path class="cls-2" d="M722.42,401.63a12.27,12.27,0,0,1-1.15,1.13c-.4.36-.81.7-1.23,1s-.69.52-1,.77c0-.2.06-.39.08-.59.22-.19.45-.37.65-.55.42-.33.84-.65,1.31-.95A12.16,12.16,0,0,1,722.42,401.63Z" transform="translate(-621.48 -300.47)"/><path class="cls-2" d="M720.87,407.42a9.51,9.51,0,0,1-1,.85c-.37.26-.74.5-1.13.73l-.46.26a4.34,4.34,0,0,1,.11-.59l.12-.07c.37-.23.77-.44,1.17-.65A9.63,9.63,0,0,1,720.87,407.42Z" transform="translate(-621.48 -300.47)"/><path class="cls-2" d="M721.53,409.44a11.53,11.53,0,0,1-1.3,1.11c-.45.35-.93.65-1.41,1s-.76.44-1.14.65c0-.19.07-.37.11-.55l.78-.5c.49-.29,1-.59,1.45-.86S721,409.68,721.53,409.44Z" transform="translate(-621.48 -300.47)"/><path class="cls-2" d="M722.1,412.22a19.18,19.18,0,0,1-2.23,1.65,23,23,0,0,1-2.42,1.36l-.47.22c0-.19.09-.38.13-.58h0l.13-.06c.83-.4,1.64-.82,2.44-1.25S721.29,412.67,722.1,412.22Z" transform="translate(-621.48 -300.47)"/><path class="cls-2" d="M719.55,416.8A8,8,0,0,1,718,418a10,10,0,0,1-1.74.85l-.13,0,.14-.55c.24-.08.47-.18.7-.28l.86-.38C718.42,417.39,719,417.09,719.55,416.8Z" transform="translate(-621.48 -300.47)"/><path class="cls-2" d="M735.11,399.88a2,2,0,0,1,.24-.46,1.88,1.88,0,0,1,.34-.35,1.76,1.76,0,0,1,.4-.27,1.72,1.72,0,0,1,.49-.19,1.58,1.58,0,0,1-.25.46,2.2,2.2,0,0,1-.33.35,1.86,1.86,0,0,1-.41.28A1.4,1.4,0,0,1,735.11,399.88Z" transform="translate(-621.48 -300.47)"/><path class="cls-2" d="M723.93,380.16a2.13,2.13,0,0,1,.2-.55,3.76,3.76,0,0,1,.3-.47,4.89,4.89,0,0,1,.39-.4,2,2,0,0,1,.48-.31,1.76,1.76,0,0,1-.2.54,2.09,2.09,0,0,1-.3.47,3.59,3.59,0,0,1-.38.4A2,2,0,0,1,723.93,380.16Z" transform="translate(-621.48 -300.47)"/><path class="cls-2" d="M653.54,392.22a11,11,0,0,1-.77-2.69,12.69,12.69,0,0,1-.11-2.82,5.5,5.5,0,0,1,.07-.66,7.62,7.62,0,0,1,.12-.77,5,5,0,0,1,.11-.52l.47-.22c-.09.42-.15.83-.21,1.25s-.07.61-.09.92a17.9,17.9,0,0,0,0,2.74A23.72,23.72,0,0,0,653.54,392.22Z" transform="translate(-621.48 -300.47)"/><path class="cls-2" d="M651.33,389.3a5.27,5.27,0,0,1-.56-1.37,1.43,1.43,0,0,0-.09-.34,8.5,8.5,0,0,1-.13-1.13v-.13l.15-.13L651,386v.49a5.56,5.56,0,0,0,0,.81c.05.28,0,.4.06.6C651.16,388.34,651.26,388.81,651.33,389.3Z" transform="translate(-621.48 -300.47)"/><path class="cls-2" d="M649.45,390.65a4.48,4.48,0,0,1-.52-1.16c0-.13-.07-.26-.1-.39a5.16,5.16,0,0,1-.1-.88v-.38l.46-.37v.74a3.39,3.39,0,0,0,0,.58c0,.2,0,.42,0,.66S649.4,390.22,649.45,390.65Z" transform="translate(-621.48 -300.47)"/><path class="cls-2" d="M648.6,398.25a15.19,15.19,0,0,1-1.06-2.69,18.29,18.29,0,0,1-.56-2.84,18.07,18.07,0,0,1-.1-2.21v-.66a3.35,3.35,0,0,1,0-.69l.2-.14.11-.08v1.31a22.24,22.24,0,0,0,.17,2.45c.11.94.27,1.87.46,2.8S648.34,397.32,648.6,398.25Z" transform="translate(-621.48 -300.47)"/><path class="cls-2" d="M645.44,394.69a7.68,7.68,0,0,1-.56-1.82c0-.25-.09-.5-.13-.76s-.07-.76-.08-1.14v-.17l.47-.35v1.44c0,.32,0,.66.06.93C645.28,393.44,645.37,394.06,645.44,394.69Z" transform="translate(-621.48 -300.47)"/><path class="cls-2" d="M644,395.06a4.72,4.72,0,0,1-.52-1.25l-.12-.51q-.06-.42-.09-.84V392l.45-.37V393c0,.17,0,.52.07.78Z" transform="translate(-621.48 -300.47)"/><path class="cls-2" d="M642.39,400.08a13.64,13.64,0,0,1-.7-2.36,15.38,15.38,0,0,1-.32-2.44V393.6l.42-.39v1.43a4.86,4.86,0,0,0,0,.65,11.89,11.89,0,0,0,.08,1.2c0,.4.08.81.13,1.21C642.14,398.47,642.27,399.27,642.39,400.08Z" transform="translate(-621.48 -300.47)"/><path class="cls-2" d="M640.22,403.4a18.25,18.25,0,0,1-.51-2.75,26.13,26.13,0,0,1-.16-2.8v-1a14,14,0,0,1,.11-1.58l.39-.39v.23c0,.41,0,.83,0,1.25s0,1,0,1.52c0,.93,0,1.85.07,2.77Z" transform="translate(-621.48 -300.47)"/><path class="cls-2" d="M637.35,402.19a6.29,6.29,0,0,1-.46-1.41c-.06-.28-.11-.57-.15-.85s0-.4,0-.61a3.52,3.52,0,0,1,0-.46l.43-.44,0,.88v.26l.08,1.17C637.29,401.21,637.33,401.67,637.35,402.19Z" transform="translate(-621.48 -300.47)"/><path class="cls-2" d="M635.47,400.08c-.05.22-.08.43-.12.66a9.14,9.14,0,0,0-.11,1.57V403a10,10,0,0,0,.41,2.16,7.91,7.91,0,0,0,.9,2c-.22-.7-.4-1.39-.55-2.09a16.32,16.32,0,0,1-.29-2.1,15.92,15.92,0,0,1,0-1.83v-.29c0-.37.06-.73.09-1.09Z" transform="translate(-621.48 -300.47)"/><path class="cls-2" d="M634.16,404.4a9.67,9.67,0,0,1,.26,1l.23,1,.24,1c.07.33.15.65.21,1a3.37,3.37,0,0,1-.56-.88,4.74,4.74,0,0,1-.34-1,5,5,0,0,1-.14-1A4,4,0,0,1,634.16,404.4Z" transform="translate(-621.48 -300.47)"/><path class="cls-2" d="M633.08,406.57v.52a11.87,11.87,0,0,0,.12,1.68c0,.26.08.5.13.75a12.61,12.61,0,0,0,.7,2.34,10.79,10.79,0,0,0,1.14,2.15c-.29-.75-.56-1.51-.8-2.26a23.13,23.13,0,0,1-.58-2.32c-.08-.39-.15-.78-.2-1.18a4.61,4.61,0,0,0-.07-.5c0-.17,0-.45-.08-.65,0-.44-.07-.88-.09-1.31Z" transform="translate(-621.48 -300.47)"/><path class="cls-2" d="M632.76,413.82a4.26,4.26,0,0,1-.6-1.06q-.12-.27-.21-.54c-.06-.19-.12-.42-.17-.62a6.63,6.63,0,0,1-.17-1.16c.07-.21.16-.41.24-.62l.12.51.22,1,0,.17.27,1.16C632.59,413,632.69,413.43,632.76,413.82Z" transform="translate(-621.48 -300.47)"/><path class="cls-2" d="M634.08,419.85a11,11,0,0,1-1.3-2c-.19-.36-.35-.73-.51-1.1s-.27-.75-.4-1.14a12.75,12.75,0,0,1-.47-2.37,1.17,1.17,0,0,0,0-.37h0c.06-.29.13-.56.2-.82.06.38.13.76.2,1.14a24.62,24.62,0,0,0,1.35,4.51C633.4,418.41,633.74,419.12,634.08,419.85Z" transform="translate(-621.48 -300.47)"/><path class="cls-2" d="M630.78,413.89c.09.65.19,1.26.3,1.87s.27,1.22.44,1.82.37,1.19.6,1.78.48,1.15.74,1.74a8.06,8.06,0,0,1-1.07-1.59,9.94,9.94,0,0,1-.72-1.8,10.25,10.25,0,0,1-.35-1.9A8.23,8.23,0,0,1,630.78,413.89Z" transform="translate(-621.48 -300.47)"/><path class="cls-2" d="M639.15,408a14.61,14.61,0,0,1,.65,1.39c.19.47.36,1,.51,1.43s.3,1,.42,1.45a13,13,0,0,1,.29,1.51,11.86,11.86,0,0,1-.65-1.4c-.19-.46-.36-.94-.51-1.42s-.3-1-.42-1.46A12.42,12.42,0,0,1,639.15,408Z" transform="translate(-621.48 -300.47)"/><path class="cls-2" d="M650.56,406.31a3.45,3.45,0,0,1-.65-.81,4.66,4.66,0,0,1-.4-.95,4.42,4.42,0,0,1-.16-1,3.26,3.26,0,0,1,.11-1c.1.34.17.66.25,1s.16.66.25.94.19.62.28.93A6.36,6.36,0,0,1,650.56,406.31Z" transform="translate(-621.48 -300.47)"/><path class="cls-2" d="M647.51,406.16a15.74,15.74,0,0,0,.85,2.19,12.64,12.64,0,0,0,1.19,2,15.07,15.07,0,0,0,3.42,3.15,8.69,8.69,0,0,1-2.08-1.17,8.66,8.66,0,0,1-1.72-1.7,9.1,9.1,0,0,1-1.14-2.13A7.61,7.61,0,0,1,647.51,406.16Z" transform="translate(-621.48 -300.47)"/><path class="cls-2" d="M648.92,413a1.91,1.91,0,0,1,.53.22,3.54,3.54,0,0,1,.44.32,2.72,2.72,0,0,1,.37.39,2.43,2.43,0,0,1,.29.49,1.63,1.63,0,0,1-.53-.21,2.63,2.63,0,0,1-.81-.71A2.25,2.25,0,0,1,648.92,413Z" transform="translate(-621.48 -300.47)"/><path class="cls-2" d="M646.62,411.66a17.91,17.91,0,0,0,.72,1.73,13.19,13.19,0,0,0,2,3.1,16.57,16.57,0,0,0,1.3,1.37,7.37,7.37,0,0,1-1.55-1.12,8.34,8.34,0,0,1-1.23-1.48,8.6,8.6,0,0,1-.85-1.72A6.46,6.46,0,0,1,646.62,411.66Z" transform="translate(-621.48 -300.47)"/><path class="cls-2" d="M646.41,416.74c.34.38.65.75,1,1.11s.69.71,1.05,1,.73.65,1.12,1,.78.61,1.18.92a5.42,5.42,0,0,1-1.39-.62,7.37,7.37,0,0,1-2.24-2.07A5.58,5.58,0,0,1,646.41,416.74Z" transform="translate(-621.48 -300.47)"/><path class="cls-2" d="M636.45,421.83c.11.2.2.41.29.62s.15.4.22.61.14.39.2.6.12.44.17.66a1.94,1.94,0,0,1-.5-.49,2.58,2.58,0,0,1-.45-1.31A2,2,0,0,1,636.45,421.83Z" transform="translate(-621.48 -300.47)"/><path class="cls-2" d="M637.75,421.75a7.61,7.61,0,0,1,.35.7l.33.65.33.65c.12.23.23.46.34.71a2.14,2.14,0,0,1-.66-.5,3.41,3.41,0,0,1-.45-.65,2.92,2.92,0,0,1-.24-.76A2.15,2.15,0,0,1,637.75,421.75Z" transform="translate(-621.48 -300.47)"/><path class="cls-2" d="M638,419a9.73,9.73,0,0,1,.65,1.13c.2.38.39.76.56,1.16.07.2.16.39.25.59s.17.39.25.59a9.09,9.09,0,0,1,.4,1.25,9.86,9.86,0,0,1-.73-1.09c-.12-.18-.21-.37-.32-.56l-.15-.29-.14-.3a12.69,12.69,0,0,1-.45-1.22A7.75,7.75,0,0,1,638,419Z" transform="translate(-621.48 -300.47)"/><path class="cls-2" d="M640.21,420.43a3.8,3.8,0,0,1,.41.49c.11.17.22.35.32.53s.18.36.26.55a3.41,3.41,0,0,1,.19.62,2,2,0,0,1-.51-.42,2.75,2.75,0,0,1-.36-.53,3,3,0,0,1-.24-.59A2,2,0,0,1,640.21,420.43Z" transform="translate(-621.48 -300.47)"/><path class="cls-2" d="M644.9,420.44a3,3,0,0,1-.58-.65,3.84,3.84,0,0,1-.42-.77,3.63,3.63,0,0,1-.26-.83,4.38,4.38,0,0,1-.09-.88,4.37,4.37,0,0,1,.43.76l.35.77.31.78A7.81,7.81,0,0,1,644.9,420.44Z" transform="translate(-621.48 -300.47)"/><path class="cls-2" d="M645.33,419.7c.36.32.69.65,1,1l1,1,1,1c.33.34.65.66,1,1a7,7,0,0,1-1.23-.76,10.7,10.7,0,0,1-2-2.06A7.87,7.87,0,0,1,645.33,419.7Z" transform="translate(-621.48 -300.47)"/><path class="cls-2" d="M640.46,425.15c.34.44.65.89,1,1.35s.61.92.92,1.37l.89,1.39c.28.46.58.94.85,1.43a10.11,10.11,0,0,1-1.15-1.21,16,16,0,0,1-1-1.35,14,14,0,0,1-.84-1.45A10.38,10.38,0,0,1,640.46,425.15Z" transform="translate(-621.48 -300.47)"/><path class="cls-2" d="M639.05,425.7c.13.28.22.57.32.84l.27.84.27.83c.08.28.18.57.24.87a2.83,2.83,0,0,1-.57-.72,4,4,0,0,1-.38-.84,4,4,0,0,1-.19-.9A3.15,3.15,0,0,1,639.05,425.7Z" transform="translate(-621.48 -300.47)"/><path class="cls-2" d="M637.6,425.71a5.43,5.43,0,0,1,.4.93c.11.32.19.64.27,1s.15.65.19,1a4.85,4.85,0,0,1,.1,1,4.25,4.25,0,0,1-.44-.91,5.87,5.87,0,0,1-.31-1c-.07-.33-.13-.65-.17-1A5.65,5.65,0,0,1,637.6,425.71Z" transform="translate(-621.48 -300.47)"/><path class="cls-2" d="M644.32,421.35c.24.22.47.46.69.7l.65.7.66.72c.21.24.43.48.65.76a4.55,4.55,0,0,1-1.62-1.15,4.29,4.29,0,0,1-.6-.8A3.27,3.27,0,0,1,644.32,421.35Z" transform="translate(-621.48 -300.47)"/><path class="cls-2" d="M643,423.08a2.41,2.41,0,0,1,.41.37c.12.12.23.25.34.38s.2.27.29.42a2.2,2.2,0,0,1,.27.47,1.3,1.3,0,0,1-.53-.22,1.6,1.6,0,0,1-.4-.38,1.64,1.64,0,0,1-.28-.48A1.54,1.54,0,0,1,643,423.08Z" transform="translate(-621.48 -300.47)"/><path class="cls-2" d="M656.68,443.39a5.19,5.19,0,0,1-1.41.28,7,7,0,0,1-1.45-.07,6.76,6.76,0,0,1-1.4-.39,5.31,5.31,0,0,1-1.25-.71l1.36.36c.45.11.9.2,1.36.27s.92.13,1.38.17Z" transform="translate(-621.48 -300.47)"/><path class="cls-2" d="M658,439.16a5.73,5.73,0,0,1-1.17,0,7.39,7.39,0,0,1-1.15-.15,7.14,7.14,0,0,1-1.12-.31,5.62,5.62,0,0,1-1.05-.5,11.12,11.12,0,0,1,1.14.15l1.12.2,1.11.24C657.27,438.93,657.64,439,658,439.16Z" transform="translate(-621.48 -300.47)"/><path class="cls-2" d="M657,442a3.55,3.55,0,0,1-.86.1,4.15,4.15,0,0,1-.86,0,4.81,4.81,0,0,1-.83-.21,3.21,3.21,0,0,1-.77-.37,6,6,0,0,1,.85,0l.83.1c.27.05.55.08.81.14A4,4,0,0,1,657,442Z" transform="translate(-621.48 -300.47)"/><path class="cls-2" d="M647.24,431.08l1,.66.92.65.94.65c.31.23.65.44,1,.66a4.38,4.38,0,0,1-1.13-.36,6.5,6.5,0,0,1-1-.6,6,6,0,0,1-.9-.77A4.41,4.41,0,0,1,647.24,431.08Z" transform="translate(-621.48 -300.47)"/><path class="cls-2" d="M651.39,423.24a25,25,0,0,0,2.48,2.12,21.72,21.72,0,0,0,2.73,1.74c.48.26,1,.5,1.46.72s1,.42,1.5.6a26.07,26.07,0,0,0,3.13.91,14.88,14.88,0,0,1-6.31-1.82,15.07,15.07,0,0,1-2.74-1.87A13.48,13.48,0,0,1,651.39,423.24Z" transform="translate(-621.48 -300.47)"/><path class="cls-2" d="M659.21,429.73a7.62,7.62,0,0,1,.81.14l.76.22.74.27a3.77,3.77,0,0,1,.73.35,2.82,2.82,0,0,1-.82,0,3.7,3.7,0,0,1-.8-.18,3.25,3.25,0,0,1-.74-.32A2.7,2.7,0,0,1,659.21,429.73Z" transform="translate(-621.48 -300.47)"/><path class="cls-2" d="M656.46,432.5c.37.09.73.2,1.09.3l1.08.32,1.07.29c.37.1.74.19,1.11.31a4.13,4.13,0,0,1-1.16,0,6.29,6.29,0,0,1-1.15-.2,5.93,5.93,0,0,1-1.08-.43A4.46,4.46,0,0,1,656.46,432.5Z" transform="translate(-621.48 -300.47)"/><path class="cls-2" d="M656.2,435c.32,0,.65.12.92.19l.9.21.89.21a8.09,8.09,0,0,1,.91.23,2.82,2.82,0,0,1-1,.13,4.34,4.34,0,0,1-1-.12,4.1,4.1,0,0,1-.91-.32A3,3,0,0,1,656.2,435Z" transform="translate(-621.48 -300.47)"/><path class="cls-2" d="M660.51,426.11c.27.1.51.23.75.34l.71.36.7.38c.23.13.47.26.71.42a2.44,2.44,0,0,1-.85-.08,3.75,3.75,0,0,1-1.48-.77A2.56,2.56,0,0,1,660.51,426.11Z" transform="translate(-621.48 -300.47)"/><path class="cls-2" d="M662,424.08l.91.31.89.27.9.22,1,.21a3,3,0,0,1-1,.16,3.63,3.63,0,0,1-1-.14,3.75,3.75,0,0,1-.92-.39A2.76,2.76,0,0,1,662,424.08Z" transform="translate(-621.48 -300.47)"/><path class="cls-2" d="M661,421.36l1.22.57c.4.18.81.36,1.22.52s.82.32,1.24.46l1.31.43a5.24,5.24,0,0,1-1.37-.08,7.27,7.27,0,0,1-1.31-.37,7.19,7.19,0,0,1-1.22-.66A5.09,5.09,0,0,1,661,421.36Z" transform="translate(-621.48 -300.47)"/><path class="cls-2" d="M664.46,419.51a1.77,1.77,0,0,1,.46,0,1.9,1.9,0,0,1,.4.14,2.12,2.12,0,0,1,.35.23,1.43,1.43,0,0,1,.3.35,1.19,1.19,0,0,1-.46,0,1.73,1.73,0,0,1-.75-.37A1.43,1.43,0,0,1,664.46,419.51Z" transform="translate(-621.48 -300.47)"/><path class="cls-2" d="M663.8,416.05l1.16.81,1.15.79,1.17.76c.4.25.8.49,1.2.76a6.08,6.08,0,0,1-1.37-.44,7.56,7.56,0,0,1-1.26-.66,8,8,0,0,1-1.12-.9A6.29,6.29,0,0,1,663.8,416.05Z" transform="translate(-621.48 -300.47)"/><path class="cls-2" d="M668.5,414.92a1.81,1.81,0,0,1,.61.14,5.3,5.3,0,0,1,1,.56,2.33,2.33,0,0,1,.46.43,2.67,2.67,0,0,1-.63-.1,3.88,3.88,0,0,1-.56-.23,3,3,0,0,1-.5-.35A2,2,0,0,1,668.5,414.92Z" transform="translate(-621.48 -300.47)"/><path class="cls-2" d="M664.8,407.08c.74.41,1.48.82,2.23,1.2s1.51.74,2.28,1.06,1.56.65,2.35.9,1.6.53,2.42.77a14.24,14.24,0,0,1-2.52-.41,17.4,17.4,0,0,1-2.43-.83,15.75,15.75,0,0,1-2.27-1.18A12.83,12.83,0,0,1,664.8,407.08Z" transform="translate(-621.48 -300.47)"/><path class="cls-2" d="M673.67,408.1l.52.3.48.23c.17.06.33.13.51.18l.57.16a1.34,1.34,0,0,1-1.26.09,1.66,1.66,0,0,1-.53-.38A1.14,1.14,0,0,1,673.67,408.1Z" transform="translate(-621.48 -300.47)"/><path class="cls-2" d="M673.11,380.17c.66.36,1.25.76,1.85,1.16l.9.66.89.62a9.15,9.15,0,0,0,.89.59c.3.19.65.34.94.5a17.57,17.57,0,0,0,2,.78,7.55,7.55,0,0,1-2.16-.44,7.83,7.83,0,0,1-1-.45,9.19,9.19,0,0,1-.93-.6c-.6-.42-1.18-.86-1.73-1.3S673.64,380.68,673.11,380.17Z" transform="translate(-621.48 -300.47)"/><path class="cls-2" d="M677.9,389.45c.77.48,1.53.94,2.31,1.36s1.58.8,2.4,1.15a14.63,14.63,0,0,0,2.51.79,16.48,16.48,0,0,0,2.62.34,8.8,8.8,0,0,1-2.71,0,12.19,12.19,0,0,1-1.34-.26c-.44-.13-.88-.28-1.31-.45a17.22,17.22,0,0,1-2.4-1.27A13.77,13.77,0,0,1,677.9,389.45Z" transform="translate(-621.48 -300.47)"/><path class="cls-2" d="M680.87,393a14.39,14.39,0,0,1,1.31.6l1.31.66a7.42,7.42,0,0,0,1.3.54,4.71,4.71,0,0,0,1.4.11,2.64,2.64,0,0,1-1.47.25,4.86,4.86,0,0,1-1.42-.48,11.61,11.61,0,0,1-1.26-.75A7.47,7.47,0,0,1,680.87,393Z" transform="translate(-621.48 -300.47)"/><path class="cls-2" d="M664.46,395.43a5.09,5.09,0,0,1,1.88.81,5.54,5.54,0,0,1,.8.65,9.87,9.87,0,0,1,.65.8,5.29,5.29,0,0,0,1.35,1.36,7.7,7.7,0,0,0,1.78.86,4.54,4.54,0,0,1-2.82-1.15,6.28,6.28,0,0,1-.66-.79,6.94,6.94,0,0,0-1.3-1.46A9.25,9.25,0,0,0,664.46,395.43Z" transform="translate(-621.48 -300.47)"/><path class="cls-2" d="M664.79,397.85a2.51,2.51,0,0,1,.6.21,4.63,4.63,0,0,1,.51.31,4.19,4.19,0,0,1,.45.39,2.12,2.12,0,0,1,.38.51,2.3,2.3,0,0,1-.59-.21,3.4,3.4,0,0,1-.52-.31,4.19,4.19,0,0,1-.45-.39A2.12,2.12,0,0,1,664.79,397.85Z" transform="translate(-621.48 -300.47)"/><path class="cls-2" d="M685.12,389.2c.34.17.65.34,1,.5l1,.48,1,.44,1,.45A3.9,3.9,0,0,1,688,391a4.52,4.52,0,0,1-1.07-.37,5,5,0,0,1-1-.59A3.62,3.62,0,0,1,685.12,389.2Z" transform="translate(-621.48 -300.47)"/><path class="cls-2" d="M696.73,378.05c.3.15.58.32.85.48l.82.46.84.45c.28.14.56.29.85.46a3.32,3.32,0,0,1-1-.12,4.32,4.32,0,0,1-.92-.37,4,4,0,0,1-.81-.59A3,3,0,0,1,696.73,378.05Z" transform="translate(-621.48 -300.47)"/><path class="cls-2" d="M690.85,389c.27.34.51.65.76,1s.49.66.74,1l.76,1c.26.32.52.65.78,1a5.2,5.2,0,0,1-1-.75,6.54,6.54,0,0,1-.87-.95,7.18,7.18,0,0,1-.69-1.09A5.08,5.08,0,0,1,690.85,389Z" transform="translate(-621.48 -300.47)"/><path class="cls-2" d="M692.19,387.49l.81,1.1q.4.56.84,1.08c.29.35.59.69.9,1l1,1a5.47,5.47,0,0,1-1.19-.76,7.41,7.41,0,0,1-1-1,7.83,7.83,0,0,1-.79-1.18A5.55,5.55,0,0,1,692.19,387.49Z" transform="translate(-621.48 -300.47)"/><path class="cls-2" d="M694.59,384.87l2,2c.66.66,1.33,1.29,2,1.92s1.37,1.24,2.07,1.85l2.12,1.81a21.51,21.51,0,0,1-2.35-1.53,27.09,27.09,0,0,1-4.12-3.79A20.29,20.29,0,0,1,694.59,384.87Z" transform="translate(-621.48 -300.47)"/><path class="cls-2" d="M696.58,382.71a2.14,2.14,0,0,1,.66.17,4.3,4.3,0,0,1,.57.28,4.8,4.8,0,0,1,.52.36,2.59,2.59,0,0,1,.45.49,2.15,2.15,0,0,1-.65-.17,3.94,3.94,0,0,1-1.09-.65A2.62,2.62,0,0,1,696.58,382.71Z" transform="translate(-621.48 -300.47)"/><path class="cls-2" d="M704.28,404.61c.65.73,1.3,1.47,1.9,2.23l.46.57.46.56c.31.38.61.76.94,1.13a19.32,19.32,0,0,0,2,2.09,28.23,28.23,0,0,0,2.26,1.83,13.54,13.54,0,0,1-3.62-2.53c-.35-.35-.65-.72-1-1.09a26.25,26.25,0,0,1-1.78-2.34C705.31,406.25,704.77,405.45,704.28,404.61Z" transform="translate(-621.48 -300.47)"/><path class="cls-2" d="M705.86,409.1c.2.14.39.3.58.46l.52.45.52.47c.17.17.35.33.52.53a2.06,2.06,0,0,1-.73-.22,3.44,3.44,0,0,1-.65-.42,3,3,0,0,1-.49-.57A2.21,2.21,0,0,1,705.86,409.1Z" transform="translate(-621.48 -300.47)"/><path class="cls-2" d="M688,423.65c.56.84,1.15,1.66,1.75,2.45a28.22,28.22,0,0,0,2,2.29c.7.73,1.4,1.43,2.15,2.1s1.53,1.31,2.33,1.92a15.25,15.25,0,0,1-2.56-1.64,19.18,19.18,0,0,1-2.26-2.06,20.67,20.67,0,0,1-1.89-2.39A16.19,16.19,0,0,1,688,423.65Z" transform="translate(-621.48 -300.47)"/><path class="cls-2" d="M688.91,427.38a3.49,3.49,0,0,1,.65.43,5.47,5.47,0,0,1,.56.51,5.57,5.57,0,0,1,.5.59,3.75,3.75,0,0,1,.4.66,3.93,3.93,0,0,1-.66-.43c-.19-.16-.38-.33-.56-.51s-.34-.39-.49-.59A3.42,3.42,0,0,1,688.91,427.38Z" transform="translate(-621.48 -300.47)"/><path class="cls-2" d="M656.47,444c.24.15.45.31.65.46l.62.47.61.46.65.51a2.33,2.33,0,0,1-.81-.19,3,3,0,0,1-.71-.41,3,3,0,0,1-.59-.58A2.47,2.47,0,0,1,656.47,444Z" transform="translate(-621.48 -300.47)"/><path class="cls-2" d="M657,442.54a3.62,3.62,0,0,1,.74.42,5.29,5.29,0,0,1,.66.51,6.35,6.35,0,0,1,.58.58,4.36,4.36,0,0,1,.48.65,4,4,0,0,1-.73-.41,6.66,6.66,0,0,1-1.22-1.09A4.14,4.14,0,0,1,657,442.54Z" transform="translate(-621.48 -300.47)"/><path class="cls-2" d="M658.29,439.8a6,6,0,0,1,.86.56,8,8,0,0,1,.77.65c.25.23.48.47.71.72a5.13,5.13,0,0,1,.65.81,5.56,5.56,0,0,1-.87-.55,5.38,5.38,0,0,1-.78-.65,8,8,0,0,1-.7-.73A4.66,4.66,0,0,1,658.29,439.8Z" transform="translate(-621.48 -300.47)"/><path class="cls-2" d="M659.32,437.16c.28.26.53.53.79.78s.52.5.78.74.54.48.82.71l.85.71a3.7,3.7,0,0,1-1.06-.41,4.93,4.93,0,0,1-.92-.65,5.5,5.5,0,0,1-.75-.85A4,4,0,0,1,659.32,437.16Z" transform="translate(-621.48 -300.47)"/><path class="cls-2" d="M661.8,431.65a1.21,1.21,0,0,1,.42.05,1.68,1.68,0,0,1,.67.42,1.31,1.31,0,0,1,.23.36,1,1,0,0,1-.43-.05,1.89,1.89,0,0,1-.36-.16,1.81,1.81,0,0,1-.3-.25A1.1,1.1,0,0,1,661.8,431.65Z" transform="translate(-621.48 -300.47)"/><path class="cls-2" d="M671.25,415.52a5.35,5.35,0,0,1,.91.57,7.81,7.81,0,0,1,.84.65c.26.23.52.48.76.73a5.89,5.89,0,0,1,.65.84,6.54,6.54,0,0,1-.91-.56,7.51,7.51,0,0,1-.83-.66,10.57,10.57,0,0,1-.77-.73A5.89,5.89,0,0,1,671.25,415.52Z" transform="translate(-621.48 -300.47)"/><path class="cls-2" d="M672.51,413.31l1.58,1.66c.52.54,1.06,1.08,1.6,1.59s1.11,1,1.68,1.53l1.73,1.48a12.7,12.7,0,0,1-2-1.2,16.91,16.91,0,0,1-3.33-3.16A14.5,14.5,0,0,1,672.51,413.31Z" transform="translate(-621.48 -300.47)"/><path class="cls-2" d="M674.08,411c.21.2.39.4.58.6l.54.57.55.57c.19.19.38.38.57.59a2.12,2.12,0,0,1-.8-.31,3.24,3.24,0,0,1-1.17-1.21A2.5,2.5,0,0,1,674.08,411Z" transform="translate(-621.48 -300.47)"/><path class="cls-2" d="M677.36,406.55c.6.5,1.18,1,1.75,1.54l1.7,1.56,1.7,1.57c.57.53,1.13,1.06,1.68,1.62a19.67,19.67,0,0,1-1.92-1.31c-.61-.48-1.2-1-1.77-1.51s-1.12-1.07-1.65-1.65A18.74,18.74,0,0,1,677.36,406.55Z" transform="translate(-621.48 -300.47)"/><path class="cls-2" d="M680.22,402.4a2.68,2.68,0,0,1,.57.32,4.69,4.69,0,0,1,.47.42,3.72,3.72,0,0,1,.41.48,2.49,2.49,0,0,1,.31.58,2.56,2.56,0,0,1-.58-.33,3.72,3.72,0,0,1-.48-.41,3.11,3.11,0,0,1-.39-.49A1.86,1.86,0,0,1,680.22,402.4Z" transform="translate(-621.48 -300.47)"/><path class="cls-2" d="M672.12,441.28c.26.35.5.71.76,1.05s.52.65.8,1,.58.61.89.91.65.57,1,.86a4.11,4.11,0,0,1-1.19-.58,5.29,5.29,0,0,1-1.78-2A4.3,4.3,0,0,1,672.12,441.28Z" transform="translate(-621.48 -300.47)"/><path class="cls-2" d="M681.43,455.82c.37.14.71.3,1.06.44l1,.39,1.06.35c.35.1.72.2,1.08.32a4.09,4.09,0,0,1-1.16,0,6.18,6.18,0,0,1-1.13-.26,5.32,5.32,0,0,1-1-.52A4,4,0,0,1,681.43,455.82Z" transform="translate(-621.48 -300.47)"/><path class="cls-2" d="M683.19,454.35a14.44,14.44,0,0,1,1.38.65l.65.38a4.94,4.94,0,0,1,.65.44,3.07,3.07,0,0,1-1.51-.4,4.27,4.27,0,0,1-.66-.45A2.2,2.2,0,0,1,683.19,454.35Z" transform="translate(-621.48 -300.47)"/><path class="cls-2" d="M683.55,451.47l1.69.66.83.34a6.34,6.34,0,0,1,.83.4,3.71,3.71,0,0,1-.94-.05,4.72,4.72,0,0,1-.89-.25,4.4,4.4,0,0,1-.83-.44A2.29,2.29,0,0,1,683.55,451.47Z" transform="translate(-621.48 -300.47)"/><path class="cls-2" d="M683.55,448.45a8.48,8.48,0,0,1,1.07.65c.34.25.68.44,1,.65s.66.48,1,.74a9,9,0,0,1,.93.81,6.74,6.74,0,0,1-1.13-.51,10.44,10.44,0,0,1-1.06-.66,10,10,0,0,1-1-.76A6.14,6.14,0,0,1,683.55,448.45Z" transform="translate(-621.48 -300.47)"/><path class="cls-2" d="M686.61,448.08a2.92,2.92,0,0,1,.71.22,5.75,5.75,0,0,1,.65.34,4.09,4.09,0,0,1,.58.42,2.6,2.6,0,0,1,.51.54,3.38,3.38,0,0,1-.7-.23,5.08,5.08,0,0,1-.66-.33,4.83,4.83,0,0,1-.58-.43A3.2,3.2,0,0,1,686.61,448.08Z" transform="translate(-621.48 -300.47)"/><path class="cls-2" d="M688.68,446.54a1.82,1.82,0,0,1,.57.13,3.12,3.12,0,0,1,.49.23,4.59,4.59,0,0,1,.44.33,2,2,0,0,1,.37.45,1.77,1.77,0,0,1-.56-.14,2.75,2.75,0,0,1-.49-.23,3.72,3.72,0,0,1-.45-.33A2.61,2.61,0,0,1,688.68,446.54Z" transform="translate(-621.48 -300.47)"/><path class="cls-2" d="M688.88,444.85a4.57,4.57,0,0,1,.83.31c.26.14.51.28.76.44a7,7,0,0,1,.7.51,4.5,4.5,0,0,1,.65.66,5.26,5.26,0,0,1-.83-.32,8.7,8.7,0,0,1-1.46-.95A5,5,0,0,1,688.88,444.85Z" transform="translate(-621.48 -300.47)"/><path class="cls-2" d="M691,442.85l1.53.69.77.32c.25.11.51.19.77.28h0c.71.29,1.41.61,2.11.93a21,21,0,0,1,2,1.1c-.74-.21-1.47-.45-2.19-.73s-1.43-.57-2.13-.88h0a8.16,8.16,0,0,1-1.55-.74A9.14,9.14,0,0,1,691,442.85Z" transform="translate(-621.48 -300.47)"/><path class="cls-2" d="M692.2,439.29l1.12.47,1.11.46c.37.15.74.28,1.12.42s.76.25,1.15.4a4,4,0,0,1-1.25-.05,5.65,5.65,0,0,1-1.2-.34,6,6,0,0,1-1.1-.57A4.81,4.81,0,0,1,692.2,439.29Z" transform="translate(-621.48 -300.47)"/><path class="cls-2" d="M696.56,437.87a6.39,6.39,0,0,0,1.79.74c.3.07.65.14.94.18l.49.07a4,4,0,0,1,.5.07,4,4,0,0,1-.49.16l-.51.07a3.67,3.67,0,0,1-1-.09,3.1,3.1,0,0,1-1-.44A1.92,1.92,0,0,1,696.56,437.87Z" transform="translate(-621.48 -300.47)"/><path class="cls-2" d="M685.34,457.78c.54.51,1.06,1,1.61,1.42l.83.65c.28.23.56.45.84.7a4.36,4.36,0,0,1-1-.39,5.79,5.79,0,0,1-.93-.62,5.36,5.36,0,0,1-.78-.8A3.22,3.22,0,0,1,685.34,457.78Z" transform="translate(-621.48 -300.47)"/><path class="cls-2" d="M685.65,455.93a12.65,12.65,0,0,0,1.18,1.25,15.34,15.34,0,0,0,1.31,1.08c.22.16.45.33.69.48l.35.24.37.22.36.22.38.22c.24.14.5.27.75.43l-.85-.22a6.25,6.25,0,0,1-.81-.33,8.93,8.93,0,0,1-1.53-.88,8.76,8.76,0,0,1-1.3-1.21A4.87,4.87,0,0,1,685.65,455.93Z" transform="translate(-621.48 -300.47)"/><path class="cls-2" d="M686.25,453.84a4.78,4.78,0,0,1,.65.54c.2.19.39.38.58.58l.55.6a8.08,8.08,0,0,0,.57.6,1.73,1.73,0,0,1-.81-.32,3.49,3.49,0,0,1-.65-.56,3.67,3.67,0,0,1-.53-.65A2.83,2.83,0,0,1,686.25,453.84Z" transform="translate(-621.48 -300.47)"/><path class="cls-2" d="M687,452.16c.28.23.54.45.8.65s.52.44.78.66.53.42.79.65.56.39.85.61a3.06,3.06,0,0,1-1-.3,4.38,4.38,0,0,1-.9-.56,4.9,4.9,0,0,1-.75-.76A3.33,3.33,0,0,1,687,452.16Z" transform="translate(-621.48 -300.47)"/><path class="cls-2" d="M688.6,450.13a14.86,14.86,0,0,1,1.42.76c.47.27.91.56,1.36.86s.87.62,1.31.95a15.17,15.17,0,0,1,1.21,1.05,12.83,12.83,0,0,1-1.42-.75c-.47-.27-.91-.57-1.36-.86s-.87-.65-1.3-.95A13.62,13.62,0,0,1,688.6,450.13Z" transform="translate(-621.48 -300.47)"/><path class="cls-2" d="M689.82,448.45a3.78,3.78,0,0,1,.79.3,6.17,6.17,0,0,1,1.36.9,3.35,3.35,0,0,1,.58.61,5.24,5.24,0,0,1-.78-.3,7.89,7.89,0,0,1-1.37-.91A4.71,4.71,0,0,1,689.82,448.45Z" transform="translate(-621.48 -300.47)"/><path class="cls-2" d="M690.55,447.34a6.85,6.85,0,0,1,1.07.39,10.6,10.6,0,0,1,1,.51,8.58,8.58,0,0,1,1,.6,7.73,7.73,0,0,1,.9.7,6.06,6.06,0,0,1-1.08-.39c-.34-.15-.65-.32-1-.5a9.17,9.17,0,0,1-1-.6A7.49,7.49,0,0,1,690.55,447.34Z" transform="translate(-621.48 -300.47)"/><path class="cls-2" d="M692.2,446.12c.51.26,1,.53,1.49.8l1.47.84c.48.29,1,.57,1.44.88a15.11,15.11,0,0,1,1.41.95,12.79,12.79,0,0,1-1.58-.65,16.73,16.73,0,0,1-1.51-.8c-.49-.29-1-.6-1.42-.93A8.53,8.53,0,0,1,692.2,446.12Z" transform="translate(-621.48 -300.47)"/><path class="cls-2" d="M696.12,442.74c.47.13.91.29,1.35.46l1.31.52,1.31.56,1.3.57a6.11,6.11,0,0,1-1.41-.23,10.78,10.78,0,0,1-1.35-.47,12.66,12.66,0,0,1-1.27-.65A8.76,8.76,0,0,1,696.12,442.74Z" transform="translate(-621.48 -300.47)"/><path class="cls-2" d="M697.84,441.67q.79.29,1.59.54c.53.17,1.07.35,1.6.49s1.07.31,1.61.44l1.64.42a8,8,0,0,1-1.7-.06,10.67,10.67,0,0,1-1.68-.35,11.41,11.41,0,0,1-1.6-.6A7,7,0,0,1,697.84,441.67Z" transform="translate(-621.48 -300.47)"/><path class="cls-2" d="M699.54,439.5c1.12.19,2.21.45,3.3.65l1.64.35,1.67.3a7.08,7.08,0,0,1-1.72.06,13.77,13.77,0,0,1-1.69-.25,13.34,13.34,0,0,1-1.64-.47A10.64,10.64,0,0,1,699.54,439.5Z" transform="translate(-621.48 -300.47)"/><path class="cls-2" d="M702.7,437.54a8.8,8.8,0,0,1,1.15.13l1.13.14c.38.05.75.08,1.13.11s.75,0,1.15.05a3.46,3.46,0,0,1-1.14.32,5.92,5.92,0,0,1-1.19,0,6.67,6.67,0,0,1-1.16-.25A4.18,4.18,0,0,1,702.7,437.54Z" transform="translate(-621.48 -300.47)"/><path class="cls-2" d="M702.86,434.59l1.17.17,1.14.17c.37.06.75.1,1.14.13s.76,0,1.16.05a3.33,3.33,0,0,1-1.16.31,4.82,4.82,0,0,1-1.2,0,5.87,5.87,0,0,1-1.17-.28A4.23,4.23,0,0,1,702.86,434.59Z" transform="translate(-621.48 -300.47)"/><path class="cls-2" d="M705.94,432.55a1.35,1.35,0,0,1,.46-.24,2,2,0,0,1,.48-.12h.49a.27.27,0,0,1,.38-.06.27.27,0,0,1-.31.45l0,0a2.47,2.47,0,0,1-.47.11,2,2,0,0,1-.49,0A1.46,1.46,0,0,1,705.94,432.55Z" transform="translate(-621.48 -300.47)"/><path class="cls-2" d="M694,462a9.43,9.43,0,0,1,1.58.66l.76.38.77.39a2.1,2.1,0,0,1-.9,0,3.48,3.48,0,0,1-.83-.32,4.66,4.66,0,0,1-.75-.45A3.37,3.37,0,0,1,694,462Z" transform="translate(-621.48 -300.47)"/><path class="cls-2" d="M694.63,459.66c.4.08.79.19,1.17.3s.76.23,1.13.37l1.11.39c.37.13.74.27,1.14.38a3.18,3.18,0,0,1-1.23,0,7.75,7.75,0,0,1-1.17-.31,8.53,8.53,0,0,1-1.12-.47A6.21,6.21,0,0,1,694.63,459.66Z" transform="translate(-621.48 -300.47)"/><path class="cls-2" d="M699.18,458.38c.36.11.7.23,1,.36l1,.36c.34.11.66.22,1,.32s.7.17,1.07.24a2.7,2.7,0,0,1-1.13.12,4.76,4.76,0,0,1-1.12-.24,5.25,5.25,0,0,1-1-.47A4,4,0,0,1,699.18,458.38Z" transform="translate(-621.48 -300.47)"/><path class="cls-2" d="M700.84,457.09a5.73,5.73,0,0,1,1,.15,7.56,7.56,0,0,1,1,.27c.32.11.63.23.94.37a6.52,6.52,0,0,1,.89.5,5.73,5.73,0,0,1-1-.15c-.33-.08-.65-.17-1-.27s-.65-.24-.93-.37A6,6,0,0,1,700.84,457.09Z" transform="translate(-621.48 -300.47)"/><path class="cls-2" d="M701.14,454.44a12.43,12.43,0,0,1,1.34.32c.44.14.87.28,1.31.45a12.9,12.9,0,0,1,1.26.54,11,11,0,0,1,1.22.65,8.84,8.84,0,0,1-1.35-.32c-.43-.13-.87-.28-1.3-.45s-.85-.35-1.26-.54A9.51,9.51,0,0,1,701.14,454.44Z" transform="translate(-621.48 -300.47)"/><path class="cls-2" d="M702.88,453.18a11.57,11.57,0,0,1,1.3.28c.42.11.84.24,1.26.37s.82.28,1.23.43.81.31,1.24.44a3.85,3.85,0,0,1-1.31-.08,11.27,11.27,0,0,1-1.3-.34,13.06,13.06,0,0,1-1.23-.48A7.46,7.46,0,0,1,702.88,453.18Z" transform="translate(-621.48 -300.47)"/><path class="cls-2" d="M705.42,451.56a6.3,6.3,0,0,1,1,.14,8.41,8.41,0,0,1,.93.26,7.53,7.53,0,0,1,.89.36,5.41,5.41,0,0,1,.85.47,5.81,5.81,0,0,1-1-.13,9.86,9.86,0,0,1-1.83-.62A4.27,4.27,0,0,1,705.42,451.56Z" transform="translate(-621.48 -300.47)"/><path class="cls-2" d="M703.69,447c1.4.32,2.74.73,4.1,1.12.66.2,1.36.39,2,.58a18.16,18.16,0,0,0,2.07.45,7.3,7.3,0,0,1-2.14-.1,18.61,18.61,0,0,1-2.09-.48c-.65-.2-1.36-.42-2-.68A19.09,19.09,0,0,1,703.69,447Z" transform="translate(-621.48 -300.47)"/><path class="cls-2" d="M707.9,445.64a6.31,6.31,0,0,1,.87,0,6.21,6.21,0,0,1,.85.12,5.8,5.8,0,0,1,.82.21,4,4,0,0,1,.8.34,4.22,4.22,0,0,1-.87,0,7.71,7.71,0,0,1-.84-.11,5.93,5.93,0,0,1-.83-.21A4.41,4.41,0,0,1,707.9,445.64Z" transform="translate(-621.48 -300.47)"/><path class="cls-2" d="M710.17,443l2,.38,1,.18c.33.06.66.12,1,.21a3.62,3.62,0,0,1-1,.15,5.05,5.05,0,0,1-1-.08,5.3,5.3,0,0,1-1-.3A3,3,0,0,1,710.17,443Z" transform="translate(-621.48 -300.47)"/><path class="cls-2" d="M711.24,440.78a6,6,0,0,1,.84.09c.28.05.54.11.81.18l.77.23a7.19,7.19,0,0,0,.8.2,1.56,1.56,0,0,1-.85.15,3.35,3.35,0,0,1-.84-.13,4.75,4.75,0,0,1-.8-.28A3.38,3.38,0,0,1,711.24,440.78Z" transform="translate(-621.48 -300.47)"/><path class="cls-2" d="M711.22,437.47a5.31,5.31,0,0,1,.89,0,4.83,4.83,0,0,1,.85.12l.85.17a4.85,4.85,0,0,0,.85.13,1.71,1.71,0,0,1-.88.24,4.44,4.44,0,0,1-.9-.07,6.46,6.46,0,0,1-.86-.24A3.49,3.49,0,0,1,711.22,437.47Z" transform="translate(-621.48 -300.47)"/><path class="cls-2" d="M711.6,433.43a9.87,9.87,0,0,1,1.23.1l1.19.16c.4.05.78.11,1.18.15a4.66,4.66,0,0,0,1.18,0,2.26,2.26,0,0,1-.26.16,1.6,1.6,0,0,1-.31.1l-.3.07h-.32a6.44,6.44,0,0,1-1.24-.05,9.47,9.47,0,0,1-1.2-.26A6.62,6.62,0,0,1,711.6,433.43Z" transform="translate(-621.48 -300.47)"/><path class="cls-2" d="M713.41,429.6a6.42,6.42,0,0,1,.87.09c.28.05.55.11.83.18l.81.19a3.89,3.89,0,0,0,.84.15,1.52,1.52,0,0,1-.88.22,3.72,3.72,0,0,1-.88-.11,5.07,5.07,0,0,1-.83-.28A3.2,3.2,0,0,1,713.41,429.6Z" transform="translate(-621.48 -300.47)"/></svg>