<svg id="Livello_1" data-name="Livello 1" xmlns="http://www.w3.org/2000/svg" xmlns:xlink="http://www.w3.org/1999/xlink" viewBox="0 0 199.3 153.56"><defs><style>.cls-1{fill:none;}.cls-2{clip-path:url(#clip-path);}.cls-3{fill:#de0f3f;}</style><clipPath id="clip-path" transform="translate(-150.17 -208.81)"><rect class="cls-1" x="150" y="208.37" width="200" height="154"/></clipPath></defs><g class="cls-2"><path class="cls-3" d="M168.64,326.52h-5.4c5.69-8.2,16.92-13.8,29.82-13.8,1,0,2,0,2.92.11v4.27c-1-.07-1.93-.11-2.92-.11a35.13,35.13,0,0,0-21.41,6.81A25.93,25.93,0,0,0,168.64,326.52Zm46.61-2.58a30.25,30.25,0,0,1,2.53-2.89A35,35,0,0,0,206,314.72v4.51a30.22,30.22,0,0,1,9,5,3.62,3.62,0,0,1,.22-.32Zm-9.22-.09v2.67h5.74A24.94,24.94,0,0,0,206,323Zm-30.84,2.67h8a26.9,26.9,0,0,1,10.19-1.93c.88,0,1.75.06,2.6.13v-4.3c-.85-.07-1.72-.1-2.6-.1a29,29,0,0,0-18.41,6.2Zm50.3-37.1a9.83,9.83,0,0,0,3.85.76,9.67,9.67,0,0,0,8.67-5.05,2.06,2.06,0,0,0,.2-.81,2.11,2.11,0,0,0-.13-.82,2.15,2.15,0,0,0-.43-.71,2,2,0,0,0-.67-.49,2,2,0,0,0-.8-.2,2.15,2.15,0,0,0-.83.12,2,2,0,0,0-.7.44,1.82,1.82,0,0,0-.49.67c-.81,1.72-3.95,3.41-7,2.14-.79-.33-3.19-1.32-3.19-7.25V233.93a2.17,2.17,0,0,0-.18-.8,2.27,2.27,0,0,0-.46-.68,2.08,2.08,0,0,0-.69-.44,2,2,0,0,0-.8-.17,2.24,2.24,0,0,0-1.48.61,2.13,2.13,0,0,0-.47.68,2.17,2.17,0,0,0-.18.8v44.29C219.67,284.05,221.63,287.82,225.49,289.42Zm23.74-36.32a16.56,16.56,0,0,0,3.76-4.24l1-1.52c1.68-2.6,3.59-4.65,6.58-5.39l83.77-19.71a6.43,6.43,0,0,0,1.27-.46,6.5,6.5,0,0,0,1.16-.7,6.2,6.2,0,0,0,1-.92,7,7,0,0,0,.79-1.09,7.3,7.3,0,0,0,.57-1.24,7.45,7.45,0,0,0,.31-1.32,7.73,7.73,0,0,0,0-1.36,6.83,6.83,0,0,0-.23-1.34,7.15,7.15,0,0,0-.49-1.26,6.66,6.66,0,0,0-1.67-2.12,6.84,6.84,0,0,0-2.36-1.31,6.6,6.6,0,0,0-1.32-.28,7.72,7.72,0,0,0-1.36,0,6.8,6.8,0,0,0-1.33.26l-82,26.15c-2.95.9-5.64.11-8.4-1.25l-1.62-.8a16.54,16.54,0,0,0-5.4-1.71,21.74,21.74,0,0,0-9.6,1l-7.63,2.5v4.21l.9-.23a1.91,1.91,0,0,1,.67-.06,1.7,1.7,0,0,1,1.46,1.26,1.68,1.68,0,0,1,0,.67,1.57,1.57,0,0,1-.22.64,1.55,1.55,0,0,1-.44.51,1.81,1.81,0,0,1-.6.31l-1.82.53v3.22l2.65-.69a1.74,1.74,0,0,1,.68-.05,1.73,1.73,0,0,1,1.14.65,1.74,1.74,0,0,1,.35,1.27,1.84,1.84,0,0,1-.21.65,1.93,1.93,0,0,1-.44.51,1.69,1.69,0,0,1-.6.3l-3.57,1v3.17l4.41-1.15a1.73,1.73,0,0,1,.68-.05,1.47,1.47,0,0,1,.64.21,1.77,1.77,0,0,1,.51.43,1.83,1.83,0,0,1,.3.61,1.73,1.73,0,0,1,.05.68,1.68,1.68,0,0,1-.66,1.15,1.69,1.69,0,0,1-.6.3l-5.33,1.56v3.8l14.42-3.26A22,22,0,0,0,249.23,253.1Zm-52.38,5.22-4.26,1.25a.92.92,0,0,0-.58.46,1,1,0,0,0,.36,1.33,1,1,0,0,0,.74.09l3.74-1Zm-3.3,8.68a.75.75,0,0,0,.36.49.72.72,0,0,0,.59.09l2.35-.53v-1.83l-2.75.81a.79.79,0,0,0-.47.37A.75.75,0,0,0,193.55,267Zm3.3-15.59-6,1.77a1,1,0,0,0-.58.46.93.93,0,0,0-.09.73,1,1,0,0,0,.46.59.9.9,0,0,0,.72.1l5.5-1.43Zm-7.5-2.68,7.5-1.94v-2.21l-7.95,2.61a.8.8,0,0,0-.52,1,.76.76,0,0,0,.37.47.73.73,0,0,0,.59.08ZM208,269.67a2.06,2.06,0,0,0,.81-.17,2.3,2.3,0,0,0,.7-.46,2.21,2.21,0,0,0,.45-.7,2.06,2.06,0,0,0,.17-.81V238.21a2.06,2.06,0,0,0-.17-.81,2.31,2.31,0,0,0-.46-.69,2,2,0,0,0-.69-.45,2,2,0,0,0-1.62,0,2,2,0,0,0-.69.45,2.14,2.14,0,0,0-.46.69,2.06,2.06,0,0,0-.17.81v29.32a2.05,2.05,0,0,0,.16.81,2.08,2.08,0,0,0,.46.7,2.14,2.14,0,0,0,.69.46,2.27,2.27,0,0,0,.82.17Zm6.9-1.19a2.05,2.05,0,0,0,.81-.16,2.14,2.14,0,0,0,.69-.46,2,2,0,0,0,.46-.69,2.07,2.07,0,0,0,.16-.82v-31a2.06,2.06,0,0,0-.17-.81,1.86,1.86,0,0,0-.46-.68,2,2,0,0,0-.69-.46,2,2,0,0,0-.8-.16,2.1,2.1,0,0,0-.82.16,1.86,1.86,0,0,0-.68.46,2,2,0,0,0-.47.68,2.05,2.05,0,0,0-.16.81v31a2.07,2.07,0,0,0,.16.82,2.11,2.11,0,0,0,1.15,1.15,2.05,2.05,0,0,0,.81.16Zm-11.71,58s0-.08,0-.13,0-.88,0-.88v-83a2.14,2.14,0,0,0-.16-.82,2,2,0,0,0-.45-.7,2.1,2.1,0,0,0-.7-.47,2.08,2.08,0,0,0-.82-.17,2.34,2.34,0,0,0-.82.16,2.17,2.17,0,0,0-.69.47,2,2,0,0,0-.46.7,2.1,2.1,0,0,0-.16.82v83.86a1.06,1.06,0,0,0,0,.19Zm21.13,0a27.47,27.47,0,0,1,2.34-1.95,37.65,37.65,0,0,1,9.09-4.85,57.82,57.82,0,0,1,20.37-3.53,55.45,55.45,0,0,1,24.11,5.14,31.33,31.33,0,0,1,7.69,5.19h5.61c-6.8-8.63-21-14.6-37.41-14.6-12.85,0-24.36,3.65-32,9.38a31.1,31.1,0,0,0-3.19,2.76,28.7,28.7,0,0,0-2.21,2.46Zm32.19-7a43.27,43.27,0,0,0-20.11,4.57,27.33,27.33,0,0,0-3.84,2.43h8.92l.5-.19a42.78,42.78,0,0,1,29.56.19h8.93c-.35-.26-.74-.51-1.12-.78C273.73,321.91,265.66,319.52,256.52,319.52ZM155,338.19a39.14,39.14,0,0,0,4.39,3.06c1.52.93,3.15,1.81,4.86,2.66l.13.07c1.63.81,3.34,1.58,5.07,2.32l1.25.52c1.25.51,2.5,1,3.76,1.48.68.25,1.35.51,2,.75,2.27.83,4.52,1.6,6.69,2.31,3.24,1.07,6.28,2,8.91,2.84l3.08,1,1,.35c.44.14.81.28,1.15.42,1.83.74,2.4,1.38,2.4,1.85v1.95c0,.06,0,.1,0,.16a2.61,2.61,0,0,0,.24.95,2.66,2.66,0,0,0,.57.8,2.43,2.43,0,0,0,.82.52,2.41,2.41,0,0,0,.95.19h53.72a2.65,2.65,0,0,0,2.41-1.61,2.71,2.71,0,0,0,.2-1V357.8a.59.59,0,0,1,0-.13c.11-.54.95-1.28,3.52-2.14l2.1-.69c3.33-1.06,7.58-2.35,12.14-3.88q1.82-.6,3.69-1.26c1.28-.46,2.57-.92,3.85-1.41,2.17-.83,4.34-1.7,6.44-2.62l.82-.37c2-.92,4-1.9,5.85-2.92a49.85,49.85,0,0,0,4.81-3,21.29,21.29,0,0,0,6.24-6.46,1.22,1.22,0,0,0,.14-.59,1.18,1.18,0,0,0-.16-.58,1.26,1.26,0,0,0-.43-.43,1.17,1.17,0,0,0-.58-.15H151.35a1.17,1.17,0,0,0-.58.15,1.24,1.24,0,0,0-.43.42,1.26,1.26,0,0,0-.17.59,1.17,1.17,0,0,0,.15.58A18.94,18.94,0,0,0,155,338.19Z" transform="translate(-150.17 -208.81)"/></g></svg>