<svg id="Livello_1" data-name="Livello 1" xmlns="http://www.w3.org/2000/svg" xmlns:xlink="http://www.w3.org/1999/xlink" viewBox="0 0 185.3 199.86"><defs><style>.cls-1{fill:none;}.cls-2{fill:#332421;}.cls-3{clip-path:url(#clip-path);}.cls-4{clip-path:url(#clip-path-2);}</style><clipPath id="clip-path" transform="translate(-157.42 -149.99)"><rect class="cls-1" x="214.67" y="150" width="128.04" height="77.15"/></clipPath><clipPath id="clip-path-2" transform="translate(-157.42 -149.99)"><rect class="cls-1" x="219.7" y="320" width="16.3" height="29.85"/></clipPath></defs><path class="cls-2" d="M207.77,321.05c-1.29,7.54-.93,14.84,1,20.56a15.87,15.87,0,0,0,4.4,7.11L218.13,320c-3.36-.22-6.71-.51-10-.86-.13.64-.23,1.28-.35,1.88" transform="translate(-157.42 -149.99)"/><path class="cls-2" d="M205,291.61a128.09,128.09,0,0,0-8.37,19.25s0,0,.06,0c2,.34,4.12.67,6.32,1,2.61-10,7.51-25.84,13.38-37.8A110.41,110.41,0,0,0,205,291.61" transform="translate(-157.42 -149.99)"/><path class="cls-2" d="M209.63,312.63c3.06.31,6.27.56,9.64.77L227,268.51c-5.53,8.47-13.36,28.65-17.33,44.12" transform="translate(-157.42 -149.99)"/><path class="cls-2" d="M247.86,313.4h.07a134,134,0,0,0-1.35-14.2,108.22,108.22,0,0,0-5-20.87c1.36,11.35,1.06,25.18.41,35.37,2-.06,4-.17,5.85-.3" transform="translate(-157.42 -149.99)"/><path class="cls-2" d="M222.24,211a21.28,21.28,0,0,1-4.29-.09c.77,12.75,1.93,19.84,3,21.39a2,2,0,0,0,1.92.5l2.49-14.53q-.15-3.64-.08-7.66c-1,.16-2,.31-3.07.39" transform="translate(-157.42 -149.99)"/><path class="cls-2" d="M253.56,154.46a5.48,5.48,0,0,0-3-1.89c-.13,0-.23-.08-.35-.1-3.41-.57-6.46,2-9.12,7.64a51,51,0,0,0-2.38,6.17,131.34,131.34,0,0,0-4,17.46.66.66,0,0,1,0,.15l21-5.24c1.53-12.55.82-20.64-2.15-24.19" transform="translate(-157.42 -149.99)"/><path class="cls-2" d="M227.6,185.74c.17-1,.33-2.08.5-3.14.54-3.06,1.13-6.2,1.82-9.3l-10.58,8.42a7.85,7.85,0,0,0-2.16,5.46c0,1,0,2,0,2.95a47.66,47.66,0,0,1,10.38-4.39" transform="translate(-157.42 -149.99)"/><path class="cls-2" d="M201.19,319.93c.07-.43.17-1,.3-1.58-2.23-.31-4.44-.66-6.59-1h0c-.11.5-.21,1-.3,1.47A27.29,27.29,0,0,0,202.23,343c-2.07-6.62-2.46-14.75-1-23" transform="translate(-157.42 -149.99)"/><path class="cls-2" d="M181.74,298.42l11.18-16.77-21.22-5.31-1.62,6.49,5.35,1.35c-9.23,2.45-17.73,6.51-18,13.24-.36,8.31,12.8,14.68,30.9,18.61,0-.09,0-.19.07-.3.13-.57.28-1.17.44-1.78.35-1.38.74-2.82,1.24-4.35-17.16-3.7-26.11-8.92-26-11.89.06-1.27,3-4.78,15.16-7.61l-3.07,4.6,5.55,3.72" transform="translate(-157.42 -149.99)"/><path class="cls-2" d="M264.08,285.38l-3.25-.81-1.6,6.5,3.25.79c16.09,4,22,8.83,21.86,11-.14,3.13-10.52,7.9-29.78,10,.09,2.33.12,4.57.09,6.68,20.36-2.11,36-7.49,36.37-16.39.39-9.09-14.44-14.66-26.94-17.73" transform="translate(-157.42 -149.99)"/><path class="cls-2" d="M263.19,225l.61-.48a3.31,3.31,0,0,0,1.52-2.06,2.06,2.06,0,0,0,0-.26,1,1,0,0,0,0-.15,3.33,3.33,0,0,0-5-3.25l-2.48,1.59L254,222.8l-2.55,1.63-.18,1-1,5.82-.48,2.85-.24,1.33.71-.54,9.43-7.27,3.48-2.68" transform="translate(-157.42 -149.99)"/><path class="cls-2" d="M241.48,320.39c-.26,2.79-.53,5-.76,6.32-1.41,8.27-4.48,15.81-8.65,21.36a27.08,27.08,0,0,0,13.06-13.17c.27-.61.53-1.22.77-1.85a28.28,28.28,0,0,0,1.41-5.22,52,52,0,0,0,.67-7.76h0q-3.18.21-6.46.32" transform="translate(-157.42 -149.99)"/><path class="cls-2" d="M269.9,235.06l5.72-3.47a3,3,0,0,0,.61-.5,3.25,3.25,0,0,0,.91-1.56,3.15,3.15,0,0,0,0-1.67,3.18,3.18,0,0,0-2.41-2.38,3.3,3.3,0,0,0-2.53.38l-1.14.7-.39.23a9.66,9.66,0,0,1-2.31,2.63,7.43,7.43,0,0,1-.88.69l-7,5.4a10,10,0,0,0,9.46-.45" transform="translate(-157.42 -149.99)"/><g class="cls-3"><path class="cls-2" d="M324,170l-50.34-17.69a16.76,16.76,0,0,0-14.18-1.4c4.06,5.83,4.29,15.75,3.19,26.08l.78,3.13.82,3.25-2.52.62c-.95.25-2.15.55-3.52.88l-3.54.9-3.44.85h0c-5.63,1.41-12.15,3-17.65,4.4-.27.07-.55.13-.82.21-.91.22-1.81.47-2.66.71-1.24.37-2.42.75-3.53,1.15-4.18,1.53-7.37,3.33-9.16,5.19a6.45,6.45,0,0,0-1.13,1.49,3.43,3.43,0,0,0-.29,2.94,2.23,2.23,0,0,0,1.61,1.3c2,.62,5.25.28,8-.33a23.11,23.11,0,0,0,2.71-.73c.24,0,.46-.1.7-.16l3.41-.8c1.7-.4,3.31-.76,4.81-1.1l.2,0c3-.68,5.73-1.22,8.08-1.65,2.64-.49,4.87-.84,6.75-1.09l.26,0c1.22-.17,2.3-.27,3.27-.34a30.32,30.32,0,0,1,3.42-.09c3,.11,3.7.84,4.23,1.38,1.75,1.65,22.35,14.19,39.27,7.27.6-.24,1.2-.5,1.78-.8l3-1.49,3,6-3,1.5a35.24,35.24,0,0,1-15.94,3.62c-15.12,0-28.9-8.27-32.22-10.83a9.34,9.34,0,0,0-1.66,0q-1.35,5.31-2.89,10.11l2-1.31a10,10,0,0,1,14.91,5.84,10.06,10.06,0,0,1,10.75,4.61,10.42,10.42,0,0,1,1.07,2.5c.63.17,1.27.32,1.89.51,2.36.33,26.95,3.36,39.15-12.91l1-1.35h1.68c3.56,0,10.79-1.47,13.27-2l.74-.16,1.44-.33V170H324" transform="translate(-157.42 -149.99)"/></g><path class="cls-2" d="M250.51,205.2l-.57.09c-1.2.2-2.49.43-3.81.68s-2.66.51-4,.79l-2.4.5-4.92,1.08L232,209c-.08,2.67-.09,5.23,0,7.66,0,.18,0,.39,0,.59l3.14.53,1.81.31,3.41.59,3.4.58,1.74.3.32.05c.39-1,.77-2,1.15-3.05.21-.6.43-1.22.64-1.85.86-2.53,1.69-5.21,2.47-8,.13-.5.29-1,.41-1.48" transform="translate(-157.42 -149.99)"/><path class="cls-2" d="M231.21,223.86l-1.13,6.59.81.14,2.56.45.76.12,2.54.44,3.3.57,3.22.54,1.13-6.59-2.11-.36-1.37-.23-3.41-.59-1.16-.2-2.2-.37-1.13-.2-1.81-.31" transform="translate(-157.42 -149.99)"/><path class="cls-2" d="M228.78,257.87l.08-.48,6.59,1.14-.08.48a13.92,13.92,0,0,1,1.91,1.08,64.15,64.15,0,0,1,.51-14.95c.06-.43.11-.87.17-1.3l.41-2.37.47-2.73-2.45-.42-3.53-.6-.61-.1-.88,5.09a64.18,64.18,0,0,1-4.76,15.55,15.23,15.23,0,0,1,2.17-.39" transform="translate(-157.42 -149.99)"/><path class="cls-2" d="M226,313.71c3.29.12,6.44.15,9.45.14,1-15.32.32-34.56-1.95-43.89L226,313.71" transform="translate(-157.42 -149.99)"/><g class="cls-4"><path class="cls-2" d="M234.83,320.53h-1.29c-2.89,0-5.78-.06-8.69-.16l-5,29.48a15.73,15.73,0,0,0,6.52-5.24c3.75-4.73,6.52-11.5,7.81-19,.28-1.55.51-3.25.7-5" transform="translate(-157.42 -149.99)"/></g></svg>