<svg id="Livello_1" data-name="Livello 1" xmlns="http://www.w3.org/2000/svg" xmlns:xlink="http://www.w3.org/1999/xlink" viewBox="0 0 233.77 77.59"><defs><style>.cls-1{fill:none;}.cls-2{clip-path:url(#clip-path);}.cls-3{clip-path:url(#clip-path-2);}.cls-4{fill:#332421;}.cls-5{clip-path:url(#clip-path-4);}.cls-6{clip-path:url(#clip-path-7);}.cls-7{clip-path:url(#clip-path-10);}.cls-8{clip-path:url(#clip-path-13);}.cls-9{clip-path:url(#clip-path-16);}.cls-10{clip-path:url(#clip-path-17);}.cls-11{clip-path:url(#clip-path-18);}.cls-12{clip-path:url(#clip-path-21);}.cls-13{clip-path:url(#clip-path-24);}.cls-14{clip-path:url(#clip-path-27);}.cls-15{clip-path:url(#clip-path-30);}.cls-16{clip-path:url(#clip-path-33);}.cls-17{clip-path:url(#clip-path-36);}.cls-18{clip-path:url(#clip-path-39);}.cls-19{clip-path:url(#clip-path-42);}.cls-20{clip-path:url(#clip-path-45);}.cls-21{clip-path:url(#clip-path-48);}.cls-22{clip-path:url(#clip-path-51);}.cls-23{clip-path:url(#clip-path-54);}.cls-24{clip-path:url(#clip-path-57);}.cls-25{clip-path:url(#clip-path-60);}.cls-26{clip-path:url(#clip-path-63);}.cls-27{clip-path:url(#clip-path-66);}.cls-28{clip-path:url(#clip-path-69);}.cls-29{clip-path:url(#clip-path-72);}.cls-30{clip-path:url(#clip-path-75);}</style><clipPath id="clip-path" transform="translate(-128.36 -267.18)"><rect class="cls-1" x="316" y="302.67" width="6.67" height="8"/></clipPath><clipPath id="clip-path-2" transform="translate(-128.36 -267.18)"><rect class="cls-1" x="174.43" y="190.42" width="151" height="200" transform="translate(-129.66 342.54) rotate(-57.1)"/></clipPath><clipPath id="clip-path-4" transform="translate(-128.36 -267.18)"><rect class="cls-1" x="276" y="308" width="16" height="21.33"/></clipPath><clipPath id="clip-path-7" transform="translate(-128.36 -267.18)"><rect class="cls-1" x="276" y="305.33" width="10.67" height="13.33"/></clipPath><clipPath id="clip-path-10" transform="translate(-128.36 -267.18)"><rect class="cls-1" x="334.67" y="276" width="2.67" height="1.33"/></clipPath><clipPath id="clip-path-13" transform="translate(-128.36 -267.18)"><rect class="cls-1" x="128" y="274.67" width="193.33" height="37.33"/></clipPath><clipPath id="clip-path-16" transform="translate(-128.36 -267.18)"><rect class="cls-1" x="162.8" y="210.19" width="126.61" height="159.1" transform="translate(-139.98 322.23) rotate(-57.1)"/></clipPath><clipPath id="clip-path-17" transform="translate(-128.36 -267.18)"><rect class="cls-1" x="162.91" y="210.13" width="126.46" height="159.1" transform="translate(-139.91 322.23) rotate(-57.1)"/></clipPath><clipPath id="clip-path-18" transform="translate(-128.36 -267.18)"><rect class="cls-1" x="334.67" y="276" width="4" height="5.33"/></clipPath><clipPath id="clip-path-21" transform="translate(-128.36 -267.18)"><rect class="cls-1" x="329.33" y="276" width="1.33" height="6.67"/></clipPath><clipPath id="clip-path-24" transform="translate(-128.36 -267.18)"><rect class="cls-1" x="322.67" y="293.33" width="5.33" height="6.67"/></clipPath><clipPath id="clip-path-27" transform="translate(-128.36 -267.18)"><rect class="cls-1" x="326.67" y="284" width="4" height="6.67"/></clipPath><clipPath id="clip-path-30" transform="translate(-128.36 -267.18)"><rect class="cls-1" x="269.33" y="308" width="26.67" height="37.33"/></clipPath><clipPath id="clip-path-33" transform="translate(-128.36 -267.18)"><rect class="cls-1" x="356" y="284" width="2.67" height="5.33"/></clipPath><clipPath id="clip-path-36" transform="translate(-128.36 -267.18)"><rect class="cls-1" x="337.33" y="302.67" width="8" height="5.33"/></clipPath><clipPath id="clip-path-39" transform="translate(-128.36 -267.18)"><rect class="cls-1" x="352" y="293.33" width="4" height="5.33"/></clipPath><clipPath id="clip-path-42" transform="translate(-128.36 -267.18)"><rect class="cls-1" x="346.67" y="302.67" width="5.33" height="4"/></clipPath><clipPath id="clip-path-45" transform="translate(-128.36 -267.18)"><rect class="cls-1" x="342.67" y="293.33" width="6.67" height="6.67"/></clipPath><clipPath id="clip-path-48" transform="translate(-128.36 -267.18)"><rect class="cls-1" x="354.67" y="302.67" width="5.33" height="4"/></clipPath><clipPath id="clip-path-51" transform="translate(-128.36 -267.18)"><rect class="cls-1" x="297.33" y="266.67" width="65.33" height="53.33"/></clipPath><clipPath id="clip-path-54" transform="translate(-128.36 -267.18)"><rect class="cls-1" x="338.67" y="293.33" width="2.67" height="4"/></clipPath><clipPath id="clip-path-57" transform="translate(-128.36 -267.18)"><rect class="cls-1" x="346.67" y="284" width="6.67" height="5.33"/></clipPath><clipPath id="clip-path-60" transform="translate(-128.36 -267.18)"><rect class="cls-1" x="329.33" y="293.33" width="6.67" height="6.67"/></clipPath><clipPath id="clip-path-63" transform="translate(-128.36 -267.18)"><rect class="cls-1" x="342.67" y="277.33" width="2.67" height="4"/></clipPath><clipPath id="clip-path-66" transform="translate(-128.36 -267.18)"><rect class="cls-1" x="322.67" y="302.67" width="9.33" height="8"/></clipPath><clipPath id="clip-path-69" transform="translate(-128.36 -267.18)"><rect class="cls-1" x="349.33" y="277.33" width="4" height="4"/></clipPath><clipPath id="clip-path-72" transform="translate(-128.36 -267.18)"><rect class="cls-1" x="341.33" y="284" width="4" height="6.67"/></clipPath><clipPath id="clip-path-75" transform="translate(-128.36 -267.18)"><rect class="cls-1" x="333.33" y="284" width="5.33" height="6.67"/></clipPath></defs><g class="cls-2"><g class="cls-3"><g class="cls-3"><path class="cls-4" d="M319.05,307c-.59.9-1.21,1.78-1.84,2.65h.25c1.14-1.41,2.25-3,3.24-4.47l1.38-2.14h-.53c-.84,1.38-1.71,2.73-2.5,4" transform="translate(-128.36 -267.18)"/></g></g></g><g class="cls-5"><g class="cls-3"><g class="cls-3"><path class="cls-4" d="M290.25,308.68h-.07l0,0a8.49,8.49,0,0,0-1.05-.27l-.07,0-.26-.05-.05,0-12.22,18.89a1.37,1.37,0,1,0,2.3,1.48L291.48,309c-.4-.09-.78-.22-1.19-.31l0,0" transform="translate(-128.36 -267.18)"/></g></g></g><g class="cls-6"><g class="cls-3"><g class="cls-3"><path class="cls-4" d="M285.6,307.25c-.31-.15-.61-.22-.88-.34l-.12-.08-.07,0-.17-.11a8,8,0,0,1-.92-.36l-.12-.09-.07,0-.12-.08-6.47,10a1.37,1.37,0,0,0,.4,1.89,1.34,1.34,0,0,0,1.89-.41l6.76-10.45-.06,0,0,0" transform="translate(-128.36 -267.18)"/></g></g></g><g class="cls-7"><g class="cls-3"><g class="cls-3"><path class="cls-4" d="M336,276.25l-.93-.08c0,.31.1.65.13,1l.8-.88" transform="translate(-128.36 -267.18)"/></g></g></g><g class="cls-8"><g class="cls-3"><g class="cls-3"><g class="cls-9"><g class="cls-10"><path class="cls-4" d="M306.29,309.81l.06.8v.11h.11a51.23,51.23,0,0,0,4.36-5.84l1.19-1.84h-1.23a3,3,0,0,1-.08-3.37l3.4-.06c1-1.77,2-3.54,2.81-5.22l-6.08,0c-1-2.16-1.11-1.07-.1-3.27l7.67-.44a43.23,43.23,0,0,0,1.51-5.13l-9.55.22a2.62,2.62,0,0,1,0-3.34l10.21-.44a19.08,19.08,0,0,0-.14-6.25l-.22.26-5.69-.18-4.43,0-5.89.31c-13.85,2.21-22.79,3-32.46,13.48q-63.6-1.54-127.24-3.11c-22-.94-21,22.48.5,20.49q63.44-4.66,127-9.27c3.05,3,13,8.24,25.13,11.14l4.78.58,4.48.34" transform="translate(-128.36 -267.18)"/></g></g></g></g></g><g class="cls-11"><g class="cls-3"><g class="cls-3"><path class="cls-4" d="M338,277.41l-2.8-.24a21.9,21.9,0,0,1,0,4.13l3.22-.13a15.58,15.58,0,0,0-.42-3.76" transform="translate(-128.36 -267.18)"/></g></g></g><g class="cls-12"><g class="cls-3"><g class="cls-3"><path class="cls-4" d="M329.71,276.66a29.58,29.58,0,0,1-.08,4.88h.88a19.79,19.79,0,0,0-.08-4.82l-.72,0" transform="translate(-128.36 -267.18)"/></g></g></g><g class="cls-13"><g class="cls-3"><g class="cls-3"><path class="cls-4" d="M326.85,294.45h-.75l-.14.31a41.14,41.14,0,0,1-2.29,4.62l.59,0c.95-1.65,1.87-3.33,2.59-4.9" transform="translate(-128.36 -267.18)"/></g></g></g><g class="cls-14"><g class="cls-3"><g class="cls-3"><path class="cls-4" d="M329,285.38c-.35,1.63-.8,3.21-1.3,4.8l.84,0a44.67,44.67,0,0,0,1.37-4.81l-.91.05" transform="translate(-128.36 -267.18)"/></g></g></g><g class="cls-15"><g class="cls-3"><g class="cls-3"><path class="cls-4" d="M294.66,309.68h-.07l-.08-.05h-.07l-.71-.17-.06,0-.09-.05,0,0-.09-.05-.06,0-.08-.05h-.07l0,0-.77-.16,0,0h-.07l-.08-.05-21.67,33.48a1.37,1.37,0,0,0,.41,1.89,1.33,1.33,0,0,0,1.89-.4l22.24-34.39-.07,0-.4-.09" transform="translate(-128.36 -267.18)"/></g></g></g><g class="cls-16"><g class="cls-3"><g class="cls-3"><path class="cls-4" d="M356.88,285a35,35,0,0,1-.78,3.63l.38-.05a3,3,0,0,0,1.12-1c.1-.41.19-.82.3-1.27a2,2,0,0,0-1-1.3" transform="translate(-128.36 -267.18)"/></g></g></g><g class="cls-17"><g class="cls-3"><g class="cls-3"><path class="cls-4" d="M338.9,306.78a1,1,0,0,0-.25.3l.68-.07.07,1,1.83-.33c.55-.75,1.08-1.57,1.62-2.32l1.54-2.38h-3.07c-.8,1.34-1.65,2.65-2.42,3.84" transform="translate(-128.36 -267.18)"/></g></g></g><g class="cls-18"><g class="cls-3"><g class="cls-3"><path class="cls-4" d="M355,295.34c.09-.23.22-.44.32-.67h-1.27a8.94,8.94,0,0,1-.47,1.09,28.69,28.69,0,0,1-1.33,2.86l1.21-.08a35.34,35.34,0,0,0,1.54-3.19" transform="translate(-128.36 -267.18)"/></g></g></g><g class="cls-19"><g class="cls-3"><g class="cls-3"><path class="cls-4" d="M349.85,302.94c-.75,1.25-1.57,2.52-2.31,3.67l1.23-.19c.68-1.07,1.45-2.25,2.21-3.51l-1.13,0" transform="translate(-128.36 -267.18)"/></g></g></g><g class="cls-20"><g class="cls-3"><g class="cls-3"><path class="cls-4" d="M349,294.59l-3.2,0a43.45,43.45,0,0,1-2.1,4.22l3.19-.09a45.12,45.12,0,0,0,2.11-4.15" transform="translate(-128.36 -267.18)"/></g></g></g><g class="cls-21"><g class="cls-3"><g class="cls-3"><path class="cls-4" d="M356.72,302.91h-.34c-.46.87-1,1.69-1.47,2.54l1.87-.3c3.2-.89,2.58-1.64-.06-2.24" transform="translate(-128.36 -267.18)"/></g></g></g><g class="cls-22"><g class="cls-3"><g class="cls-3"><path class="cls-4" d="M344.68,313.54a11.57,11.57,0,0,1-3.59,3,1.11,1.11,0,0,1-1.41-.15,3.6,3.6,0,0,1-.32-.85,13.91,13.91,0,0,0,1.59-1.65c5-5.55,10.52-15.63,11.77-18.55,3.55-8.28,4.41-15.69,3.19-20.55a12.21,12.21,0,0,0-.8-2.26,3.16,3.16,0,0,1,2.06.86,6.69,6.69,0,0,1,1.8,3.5c1.09,4.31.25,11.09-3,18.78C354.73,298.54,349.43,308.18,344.68,313.54Zm-5.77-1.4-.08.12c-.18-1.51-.31-3.11-.39-4.15l-1.87.3a100.63,100.63,0,0,0,8.34-14.25c3.06-7.15,4.14-13.66,3.57-18.45a14,14,0,0,1,3.85-2.62,8.72,8.72,0,0,1,.94,2.41c1,4.33.25,11.09-3.07,18.83C349,297.09,343.7,306.81,338.91,312.14Zm-3.51,3c-.65.28-1.11.28-1.41-.15a6.56,6.56,0,0,1-.72-2.39,33.19,33.19,0,0,0,2.86-3.61c.11,1.53.28,3.61.47,5.36A5.71,5.71,0,0,1,335.4,315.15ZM332.77,309l-1.26.17a101.66,101.66,0,0,0,6.87-12.07c3.55-8.28,4.4-15.69,3.19-20.55a2.84,2.84,0,0,0-.16-.56,23,23,0,0,1,3.6-3.14,6.61,6.61,0,0,1,.45,1.46,3.65,3.65,0,0,1,.19.87c-.57.62-1.21,1.25-1.79,1.87l2,.2c.23,4.22-.84,9.74-3.46,15.84A93.71,93.71,0,0,1,332.77,309Zm-4.31,4.42a30.67,30.67,0,0,0,1.88-2.56c.07.27.06.56.11.83A12.81,12.81,0,0,1,328.46,313.4Zm-2.9-.71a10.73,10.73,0,0,1-.42-2.77l-2.72.27a9.24,9.24,0,0,0,1.21,4.68,10.91,10.91,0,0,1-2.57,2,1.09,1.09,0,0,1-1.41-.15,8.46,8.46,0,0,1-.73-3.09c4.94-5.58,10.4-15.54,11.64-18.45,3.53-8.24,4.39-15.59,3.26-20.39.67-.68,1.32-1.31,1.9-1.85a3.3,3.3,0,0,1,1.36.76,5.7,5.7,0,0,1,1.19,1.58c-.35.36-.72.76-1,1.07l1.52.17a3.4,3.4,0,0,1,.19.7c1.1,4.31.25,11.09-3,18.79A90,90,0,0,1,325.56,312.69Zm-7.62-2.14-2,.15c.06.62.1,1.28.17,2a11,11,0,0,1-2.86,2.27,1.12,1.12,0,0,1-1.41-.15c0-.07-.1-.12-.11-.19a17.39,17.39,0,0,0,1.61-1.69c5-5.56,10.49-15.66,11.73-18.58,3.16-7.31,4.22-14,3.57-18.79a17.17,17.17,0,0,1,2-1.85,5.52,5.52,0,0,0,.18.53c-.43.48-.9.93-1.33,1.41l1.77.15c.89,4.36,0,10.87-3.18,18.29A89.51,89.51,0,0,1,317.94,310.55Zm-6.64.59c-.15.13-.26.3-.43.47l-.05-.37a97,97,0,0,0,9.85-16.31c3.56-8.27,4.41-15.69,3.24-20.52a14,14,0,0,0-.86-2.35,12.72,12.72,0,0,1,1.21-.62,7.39,7.39,0,0,1,1.39,3.05,3.27,3.27,0,0,1,.07.34c-.14.14-.27.35-.42.48l.54.06c.74,4.32-.14,10.72-3.27,17.89C321.38,296.09,316.08,305.8,311.3,311.14Zm18-39.34c-.4.26-.86.61-1.31,1a9,9,0,0,0-.82-1.87A3.41,3.41,0,0,1,329.31,271.8Zm11.55-1.89a3.44,3.44,0,0,1,2.72.83,38.12,38.12,0,0,0-3.25,2.6A8.56,8.56,0,0,0,339,271.7a6.8,6.8,0,0,0-.8-.64A7.82,7.82,0,0,1,340.86,269.91Zm7.78,1.26a3.6,3.6,0,0,1,1.8.17c-.8.53-1.63,1.1-2.48,1.77a12.12,12.12,0,0,0-.56-1.64A5.15,5.15,0,0,1,348.64,271.17Zm13,5.07a9.14,9.14,0,0,0-2.62-4.83,6.3,6.3,0,0,0-5.7-1.42,6,6,0,0,0-4.91-1.55,7,7,0,0,0-2.4.83l-.5-.49a6.1,6.1,0,0,0-4.91-1.56c-1.38.16-3.22,1.3-5.24,2.89a8.12,8.12,0,0,0-1.29,0,9,9,0,0,0-2.14.42,8.28,8.28,0,0,0-.74-.83,6.17,6.17,0,0,0-4.94-1.51,4.8,4.8,0,0,0-1.19.22,6,6,0,0,0-4.27-1,6.46,6.46,0,0,0-2.29.67,6.58,6.58,0,0,0-2.14-.1c-2.69.3-6.19,3.2-9.85,7.06l3.11-.14A14.2,14.2,0,0,1,314,271.4a37.47,37.47,0,0,0-3.06,3.49l3.16-.05a22.15,22.15,0,0,1,4.43-3.88,4.09,4.09,0,0,1,.94.61s.1.12.14.14a38.33,38.33,0,0,0-3.32,3.15l3.53.12,1.08-1.15a6.93,6.93,0,0,1,.37,1.23c1.08,4.35.26,11.09-3.06,18.83-1.17,2.79-6.47,12.5-11.25,17.84a15.24,15.24,0,0,1-1.19,1.21,8.44,8.44,0,0,1-.34-2.26l-2.79-.17a10.58,10.58,0,0,0,.92,4.14l-.16.07c-.61.31-1.11.27-1.41-.16-.53-.7-.89-1.85-1-4.22l-2.79-.35c.2,2.92.81,5.12,1.65,6.24,1.27,1.63,2.89,1.81,4.72,1a5,5,0,0,0,.88-.47,3.91,3.91,0,0,0,3.55-.09c.18-.12.44-.24.63-.35.09.05.1.12.14.14a3.47,3.47,0,0,0,4.69,1,9.67,9.67,0,0,0,2.25-1.5,6.92,6.92,0,0,0,.87,2.42c1.24,1.67,2.86,1.85,4.69,1a12.89,12.89,0,0,0,3.43-2.61,3.91,3.91,0,0,0,3.1-.31,9.52,9.52,0,0,0,2.35-1.57,6.86,6.86,0,0,0,.74,1.82c1.27,1.63,2.9,1.81,4.72,1,.19-.11.42-.2.64-.35a2,2,0,0,0,.37.77c1.24,1.67,2.87,1.85,4.69,1a14.63,14.63,0,0,0,4.47-3.68c5-5.56,10.48-15.67,11.73-18.58,3.55-8.28,4.4-15.69,3.19-20.55" transform="translate(-128.36 -267.18)"/></g></g></g><g class="cls-23"><g class="cls-3"><g class="cls-3"><path class="cls-4" d="M340.42,294.57c-.23.61-.47,1.26-.74,1.84.36-.63.69-1.24,1-1.86l-.24,0" transform="translate(-128.36 -267.18)"/></g></g></g><g class="cls-24"><g class="cls-3"><g class="cls-3"><path class="cls-4" d="M352.16,284.84l-3.26.1c-.3,1.37-.68,2.76-1.09,4.12l3.35-.16a40.79,40.79,0,0,0,1-4.06" transform="translate(-128.36 -267.18)"/></g></g></g><g class="cls-25"><g class="cls-3"><g class="cls-3"><path class="cls-4" d="M335,295.63c.18-.35.31-.73.48-1.09l-3.51-.06c-.17.36-.29.74-.44,1.06-.53,1.16-1.1,2.42-1.79,3.66l3.6-.11c.6-1.18,1.19-2.37,1.66-3.46" transform="translate(-128.36 -267.18)"/></g></g></g><g class="cls-26"><g class="cls-3"><g class="cls-3"><path class="cls-4" d="M342.86,278a23.65,23.65,0,0,1,.21,3l1.75-.1a24.94,24.94,0,0,0,.12-2.7l-2.08-.19" transform="translate(-128.36 -267.18)"/></g></g></g><g class="cls-27"><g class="cls-3"><g class="cls-3"><path class="cls-4" d="M327.54,303c-1,1.69-2,3.33-3,4.77-.33.42-.64.91-.94,1.36l2.42-.23.06,1,.52-.07c.65-.92,1.23-1.83,1.88-2.74.82-1.27,1.7-2.62,2.56-4.05h-3.53" transform="translate(-128.36 -267.18)"/></g></g></g><g class="cls-28"><g class="cls-3"><g class="cls-3"><path class="cls-4" d="M352.68,277.85c-1-.09-2-.16-3.09-.26,0,1,0,2.05,0,3.05l3.17-.16a16.46,16.46,0,0,0,0-2.63" transform="translate(-128.36 -267.18)"/></g></g></g><g class="cls-29"><g class="cls-3"><g class="cls-3"><path class="cls-4" d="M342.79,285.06a32.3,32.3,0,0,1-.81,4.3l.84,0c.48-1.38.91-2.85,1.27-4.3l-1.3,0" transform="translate(-128.36 -267.18)"/></g></g></g><g class="cls-30"><g class="cls-3"><g class="cls-3"><path class="cls-4" d="M338.08,285.15l-3.4.07a44.38,44.38,0,0,1-1.13,4.61l3.55-.2a35.58,35.58,0,0,0,1-4.48" transform="translate(-128.36 -267.18)"/></g></g></g></svg>