<svg id="Livello_1" data-name="Livello 1" xmlns="http://www.w3.org/2000/svg" viewBox="0 0 1351.33 7969.34"><defs><style>.cls-1,.cls-2{fill:none;stroke:#cc0b36;stroke-miterlimit:10;}.cls-1{stroke-width:2px;}.cls-2{stroke-width:0.75px;}</style></defs><path class="cls-1" d="M575.73,2286" transform="translate(-7.34 -147.87)"/><path class="cls-2" d="M820.28,155.81c53.25-25.1,138.22,13.8,125.21,93.56C909.42,412,667.43,278.45,587.07,392.57c7.25,292.17,491.71,59.19,549.83,300.82,2.56,16.77,1.5,38,15.19,46.29,9.34,5.67,17.07.2,25.18,4.48,19.07,10.08,31.88,55.46,9.45,73.8-49.55,38-97.45-48.23-41.48-70.65,48.46-15.64,79.82,43.22,48.74,72.11-12.06,17.11-41.65,3.7-60.63,17.65-9.93,6.77-2.94,17.91-10.81,52.27-7.37,32.18-16.86,37-12.43,49.16,14.84,28.48,73.93,37,98.54,8,7.7-12.66.2-25.5-9.52-70.41-4.89-22.61.56-32.8-7.24-38.78-22.54-5.82-52.53,9.2-76.67-27-40.45-74.45,103.14-115.24,95.93-21.23-47.46,76.84,7.54,98.32-4.55,148.7-10.76,13.88-30.76,3.06-43.64,19.75-11.71,15.19-1.11,31.89-6.23,54.31-111.21,183.22-355.7,72-424.35,162.58,4.37,75.68,73.7,147.57-19.18,215.73-56.93,40.34-118.77-22.5-253.16-32.06-108.16-11.36-326,23-329,228.47,43.91,168.39,111.47,134.47,216.55,182,75.08,63.73,148,108,236.5,133.16,28.3-25.12,18.85-76-51.06-83.37-74.51-20.26-90.25-21.14-21.19-29.35,0,.26,217.62-36.69,207.31-36.23,36.4-20.5,142.93,30.55,164.7,37.7,35.26,56.56-12.92,60.94-52.31,64.26-2.43-3.36,5.83-9.64,7.15-20.6,1.78-14.71-9.44-27.34-10.25-27,26.28,53.08-30.3,59.28-71.31,64.3-97.4,16.59-72.86,33-81.26-36,23,50.06-30.44,64.66-74.18,63.29-19.59-3.83-121.48-45.92-122.92-46.43,142.87,44.57,118.8,27.07-4.92-21.26,3.71-1.29,4.64-19.2,4.08-20.87,19.46-1.86,97,37,100.39,34.23,75.5-2.47,193.94-30.45,275.3-47.25,36-12.23,19.13,16.13,30.21,44.15,122.79,32.75,25.81,290,73.23,361.26,27,137.82,298.52,33.75,267.45,215.57-66.12,9.86-209,2-256.2,1.91-32-8.49-44.83-8.28-66.15,8.15-33.44,23-44.75,21.37-3,25.15,22.55,3.06,26.76,7,34.26,3.26,1.46,1.51,25.58-29.83,30.08-31.53.78.66-19.84,25.37-40.59,52.18-13,17.44-17.79,20.07-24.76,29.58,40.84,5.66,202.48,4,207.26,4.28,27.48-.64,49.92,8.48,68.13-19.9,13-19.49,8.91-26.13,19.53-37.66,6.45-4.6,38.39-31.59,44.09-32.07,4.71.26,6.5,3.52,17.27,15.13,18.65,20.11,23,20.8,23.08,26.8.12,8.19-7.94,9.1-19.68,26.34-19.41,57.31-39.85-10.77-63.14-25-45.28-19.59-162.06-.19-223-4.57-54.8-5.05-51.09,14.1-78.18,45.46,2.75,6.44,27.53-4.09,36.19,7,7.57,22.43-10.35,110.54-.33,108.79,88.88,7.53,111.52-2.89,248.06-3.86,22.54,2.22,16-9.8,16.09-33.68,1-28-5.45-126.93-1.26-114.63a2.13,2.13,0,0,1,.77-.48c8.44.25,34.26,46.8,38,48.64,2.61,15.69,6.09,69.39,1.57,72.72-43.51,46.58-100.78,34.34-180.34,36.34-22.25,8.35-19.31,33.39-39,52.51-63.5,51.84-123.33,19.15-124.52,128.35,68.71,139,147.1,60.19,253.76,307.39,67.52,178.69-183.54,347.3-115.36,464.75,47.73,82.23,187.24,27.94,276.14,145.61,193.06,252.25-167.15,284.84-382.69,428.8-4.83,31.75,57.79,51.6,66.5,19.32-30.25-45.28-75,27.38-90.12,55.05-167.88,137.82-410.36,121-295.81,438.21,112.26,125.78,484,243.29,364,513.83-139.7,97.79-372,82.8-269.91,366.63,66,97.49,261.91,102.78,202.66,273.54-73,89.33-271.34,31.95-355.73,55.37-114,33.7-144.69,68.19-203.56,121.82-174.45,93.62-338.41,48-273.9,288.36,27.94,90.41,98.4,96.54,127.55,178.26,73.65,175.3-173.47,271.3-28.83,413.95,9.76,11.76,23.29,29.37,6.9,37-9.45,13.87,30.43,76.7,27.34,72.77,4.38-3.77-7-38.51-14.3-50.38-6-11-8.41-12.24-.12-16.25.08-1.28-3.06-3.09-5.91-2.68-16.73,8.85,9.84,29.2,18.79,67.44,1.47,5,5.86,21,10.89,20.86.64-1.55,12.33-5,13.14-6.06,1.76-22.51-4.74-8.86-14.32-42.4-10-9.44-10.07-56.42-32.77-41.54-6.58,7.53,30.91,67.57,36.68,95.11,19.07,21.3-14.17,12.32-19,6.09-3.11-1.52,53.53,12.37,55.83,14.84,9.83,12.63,7.91,33,14.29,50,.45,20.95-26.21,14.18-38.28-.73-20-46.82-56.93,22.74-99,11.95,1.08-2.14,20.42,2,19.7,10.71,10.21,16.82,52.36,24.74,75.48,14.93,2.9-6.27-82.08-12.66-47.51-32.54,11.31-9.26,9.28-5.66,25.44-1.66,13.34,10.41,26.34-11.86,31.24,6.24-48.48,50.4,61.92,27,60.61-17.71-11.65-34.22-18.66,2.54-15.51,16.91-2.53,5.17-10.5,6.73-11.43,5.41-.4-.27,4.74-8.59,3.42-12.2-6.87-41.8-6.38-58.63-33.8-60.13-8.94-5.11-10.6-17.61-6-26.56-12.23-31.33,37.76,8.25,45.46,11,46.72,34.5-31.07,73.57-3.31,123.82-10-16.5-15.06-53.45-37.82-15-15,12.74-30.31,1-75.39,3.07-24,1.08-31.85,4.94-48.55-.08-41.54-32.18-74.3-5.68-96-11.35-7.59-8.32,9.46-22.61,7.49-57.14-8.18-39,5.56-33.87,38.74-26.65,178.41.76,164.92-177,218.61,110,18.65-6.1,77.92,8,89.53-5.91,5.87-8-4.86-15.54-1.22-35.47,5.63-27.92,28.74-41.79,31.18-64-22.09-41.23-17.44-72.81,39.43-70,.68,3.77,6.65,3.4,5.1,7.89a10.3,10.3,0,0,1,0,9.68c2.19,3.66,12.92,15.07,8.79,21.51.95,5.9,9.45,7.67,8.9,11.18-3.14,1-4.16,8.91-5.05,11.17-2.86,1.06-2,1.72-.33,3.6-1.83,2.95.55,6.28-.75,10.28-1.64,3.62-9.14.94-14.52,4.95-2.39,1.78-1.27,2.58-5.58,9.4-9.36,14.65-10.33,7.88-.08,23.57,12.12,15,24.77,36.59,22.74,55.66,5.94,8.63,21.66-.45,51.11,2.29,20.8,1.94,32.79,8.32,38.46,1.74,2.91-32,32.24-43.7,43.4-69.88,14.57-8.08,14-27.74.7-34.3,2-.94-32,5-31.83,1.9-1.63-11.52-6.79-21.41-12-31.31.48-5.73-7-5-8.43-7.93,1.91-7.92,14.94-21.16,13.9-27.36-4.74-13.13-3.19-16.36.83-31.66-3.5-26.77,10.61-28.59,32.16-35.83,35-24.68,58.39,29.31,70.48,2.57,26.92-13.08,55.78,14.78,43.61,42.59-12,16.44-29.68,12-21.93,33.27-11.78,40.46-53.53,24.8-7.77,95.27,18.88,22.43-10.59,72.51,34.88,70,85.29,32,56.18,138,95.09,206.92,4.72,7.76,41.72,66.86,94.46,69.75,28.47,1.57,43.81-14.21,87.25-9.55,118.57,25.89,152,51.26,111.31,203.22,6.13,249.56-282.92,129.2-233.24,425,4.33,12.84-8.42,69.9-21.8,81.41" transform="translate(-7.34 -147.87)"/></svg>