<svg id="Livello_1" data-name="Livello 1" xmlns="http://www.w3.org/2000/svg" viewBox="0 0 170.99 167.62"><defs><style>.cls-1{fill:#cc0b36;}.cls-2,.cls-3,.cls-4,.cls-6,.cls-7{fill:none;}.cls-2,.cls-3,.cls-4,.cls-7{stroke:#332421;}.cls-2,.cls-3,.cls-4{stroke-linecap:round;stroke-linejoin:round;}.cls-3,.cls-7{stroke-width:2.25px;}.cls-4{stroke-width:1.69px;}.cls-5{fill:#332421;}.cls-7{stroke-miterlimit:10;}</style></defs><path class="cls-1" d="M695,304.6a2.61,2.61,0,0,1,1.07.2,3.25,3.25,0,0,1,.65.38q.53.42.66-.57h.36c0,.3,0,.66,0,1.05s0,.94,0,1.62h-.39a5.44,5.44,0,0,0-.33-1.13,2.24,2.24,0,0,0-.65-.9,1.77,1.77,0,0,0-1.15-.36,1.38,1.38,0,0,0-.91.31,1.08,1.08,0,0,0-.37.9,1.18,1.18,0,0,0,.28.81,3.1,3.1,0,0,0,.74.66l1,.65c.37.24.73.49,1.08.77a3.6,3.6,0,0,1,.78.87,2,2,0,0,1,.28,1.11,1.89,1.89,0,0,1-.37,1.21,2.55,2.55,0,0,1-1,.74,3.46,3.46,0,0,1-1.31.24,3.56,3.56,0,0,1-.65-.05,2.48,2.48,0,0,1-.59-.17,2,2,0,0,1-.32-.18l-.32-.24a.2.2,0,0,0-.26,0l0,0a1,1,0,0,0-.19.53h-.36a11.43,11.43,0,0,1,0-1.23c0-.48,0-1.11,0-1.91h.36a8,8,0,0,0,.32,1.53,2,2,0,0,0,.65,1,1.83,1.83,0,0,0,1.22.36,1.38,1.38,0,0,0,.66-.14,1.23,1.23,0,0,0,.54-.47,1.5,1.5,0,0,0,.22-.88,1.44,1.44,0,0,0-.5-1.13,9.55,9.55,0,0,0-1.27-.92c-.38-.24-.73-.49-1.06-.73a2.94,2.94,0,0,1-.8-.81,2.12,2.12,0,0,1,0-2.25,1.72,1.72,0,0,1,.85-.65A3.16,3.16,0,0,1,695,304.6Z" transform="translate(-597.58 -300.6)"/><path class="cls-1" d="M701.83,304.65v6.79a1.15,1.15,0,0,0,.27.89,1.39,1.39,0,0,0,.93.24v.33l-.82,0H700l-.81,0v-.33a1.35,1.35,0,0,0,.91-.24,1.12,1.12,0,0,0,.28-.89v-4.91a1.84,1.84,0,0,0-.25-1,1.14,1.14,0,0,0-.94-.33v-.33c.33,0,.65.05,1,.05a6.4,6.4,0,0,0,.88-.06A4.89,4.89,0,0,0,701.83,304.65Zm-.82-3.76a1,1,0,0,1,.71.3,1,1,0,0,1,0,1.39l0,0a1,1,0,0,1-.71.3,1,1,0,0,1-.7-.3,1,1,0,0,1,0-1.41h0A1,1,0,0,1,701,300.89Z" transform="translate(-597.58 -300.6)"/><path class="cls-1" d="M707.67,304.6a2.7,2.7,0,0,1,1.3.33,1.67,1.67,0,0,1,.82,1.13l-.21.15a1.78,1.78,0,0,0-.66-.95,2,2,0,0,0-1.09-.3,1.8,1.8,0,0,0-1.54,1,5.44,5.44,0,0,0-.61,3,8.21,8.21,0,0,0,.24,2.1,2.6,2.6,0,0,0,.73,1.26,1.72,1.72,0,0,0,1.17.42,1.64,1.64,0,0,0,1.19-.56,2.84,2.84,0,0,0,.65-1.67l.18.22a3,3,0,0,1-.75,1.84,2.33,2.33,0,0,1-1.72.65,3.07,3.07,0,0,1-1.7-.47,2.91,2.91,0,0,1-1.16-1.43,6.37,6.37,0,0,1-.38-2.37,5.17,5.17,0,0,1,.49-2.38,3.36,3.36,0,0,1,3-1.89Zm3.27-4v10.59a1.66,1.66,0,0,0,.26,1,1.1,1.1,0,0,0,.93.34v.33c-.32,0-.66,0-1,0a5,5,0,0,0-.88,0,2.88,2.88,0,0,0-.76.17V302.48a1.8,1.8,0,0,0-.24-1,1.13,1.13,0,0,0-.95-.34v-.33c.34,0,.66.05,1,.05a6.51,6.51,0,0,0,.88-.06,4.15,4.15,0,0,0,.78-.16Z" transform="translate(-597.58 -300.6)"/><path class="cls-1" d="M716.75,304.6a2.78,2.78,0,0,1,2.15.84,3.72,3.72,0,0,1,.78,2.61h-5.53v-.3h4a5.22,5.22,0,0,0-.12-1.42,2.4,2.4,0,0,0-.5-1,1.08,1.08,0,0,0-.87-.4,1.64,1.64,0,0,0-1.31.73,4.2,4.2,0,0,0-.65,2.29l0,.06c0,.16,0,.33,0,.52s0,.38,0,.56a4.31,4.31,0,0,0,.35,1.84,2.8,2.8,0,0,0,.9,1.17,2,2,0,0,0,1.15.4,2.79,2.79,0,0,0,.9-.15,2.34,2.34,0,0,0,.78-.49,2.84,2.84,0,0,0,.65-.93l.32.12a3.25,3.25,0,0,1-.57,1,3,3,0,0,1-1,.79,3,3,0,0,1-1.38.31,3.56,3.56,0,0,1-2-.52,3.33,3.33,0,0,1-1.24-1.44,4.78,4.78,0,0,1-.43-2.11,5.81,5.81,0,0,1,.44-2.4,3.51,3.51,0,0,1,1.24-1.53A3.21,3.21,0,0,1,716.75,304.6Z" transform="translate(-597.58 -300.6)"/><path class="cls-1" d="M728.63,304.6a2.7,2.7,0,0,1,1.3.33,1.66,1.66,0,0,1,.81,1.13l-.2.15a1.74,1.74,0,0,0-.65-.95,2,2,0,0,0-1.09-.3,1.83,1.83,0,0,0-1.55,1,5.53,5.53,0,0,0-.6,3,7.79,7.79,0,0,0,.24,2.1,2.66,2.66,0,0,0,.72,1.26,1.74,1.74,0,0,0,1.17.42,1.64,1.64,0,0,0,1.19-.56,2.79,2.79,0,0,0,.66-1.67l.19.22a3,3,0,0,1-.77,1.84,2.33,2.33,0,0,1-1.72.65,3.1,3.1,0,0,1-1.7-.47,2.91,2.91,0,0,1-1.11-1.41,6.38,6.38,0,0,1-.39-2.37,5.18,5.18,0,0,1,.5-2.38,3.36,3.36,0,0,1,3-1.89Zm3.26-4v10.59a1.66,1.66,0,0,0,.27,1,1.08,1.08,0,0,0,.93.34v.33c-.33,0-.65,0-1,0a4.8,4.8,0,0,0-.87,0,3,3,0,0,0-.77.17V302.48a1.73,1.73,0,0,0-.25-1,1.1,1.1,0,0,0-.94-.34v-.33c.34,0,.66.05,1,.05a6.36,6.36,0,0,0,.87-.06,4.32,4.32,0,0,0,.78-.16Z" transform="translate(-597.58 -300.6)"/><path class="cls-1" d="M736.5,304.65v6.79a1.12,1.12,0,0,0,.28.89,1.35,1.35,0,0,0,.91.24v.33l-.8,0h-2.18l-.81,0v-.33a1.38,1.38,0,0,0,.92-.24,1.15,1.15,0,0,0,.27-.89v-4.91a1.76,1.76,0,0,0-.25-1,1.13,1.13,0,0,0-.94-.33v-.33c.34,0,.66.05,1,.05a6.36,6.36,0,0,0,.87-.06A4.89,4.89,0,0,0,736.5,304.65Zm-.81-3.76a1,1,0,1,1-.71.3A1,1,0,0,1,735.69,300.89Z" transform="translate(-597.58 -300.6)"/><path class="cls-1" d="M741.3,304.6a2.58,2.58,0,0,1,1.07.2,3.07,3.07,0,0,1,.66.38c.34.28.56.09.65-.57H744c0,.3,0,.66,0,1.05s0,.94,0,1.62h-.37a4.87,4.87,0,0,0-.32-1.13,2.24,2.24,0,0,0-.65-.9,1.83,1.83,0,0,0-1.15-.36,1.36,1.36,0,0,0-.91.31,1.11,1.11,0,0,0-.38.9,1.28,1.28,0,0,0,.28.81,3.54,3.54,0,0,0,.74.66c.31.19.66.4,1,.65s.74.5,1.09.77a3.37,3.37,0,0,1,.77.87,2.05,2.05,0,0,1,.29,1.11,2,2,0,0,1-.37,1.21,2.55,2.55,0,0,1-1,.74,3.46,3.46,0,0,1-1.31.24,3.49,3.49,0,0,1-.65-.05,2.48,2.48,0,0,1-.59-.17,2,2,0,0,1-.32-.18l-.32-.24a.2.2,0,0,0-.26,0l0,0a1,1,0,0,0-.19.53H739c0-.34,0-.74,0-1.23s0-1.11,0-1.91h.36a9.9,9.9,0,0,0,.32,1.53,2.15,2.15,0,0,0,.65,1,1.83,1.83,0,0,0,1.22.36,1.38,1.38,0,0,0,.66-.14,1.23,1.23,0,0,0,.54-.47,1.5,1.5,0,0,0,.22-.88,1.44,1.44,0,0,0-.5-1.13,10,10,0,0,0-1.31-.92c-.37-.24-.72-.49-1.06-.73a3.42,3.42,0,0,1-.8-.81,1.94,1.94,0,0,1-.3-1.1,1.88,1.88,0,0,1,.32-1.15,1.82,1.82,0,0,1,.85-.65A3.16,3.16,0,0,1,741.3,304.6Z" transform="translate(-597.58 -300.6)"/><path class="cls-1" d="M748,300.61v5.89a2.71,2.71,0,0,1,1.14-1.48,3.24,3.24,0,0,1,1.53-.41,2.83,2.83,0,0,1,1,.16,1.92,1.92,0,0,1,.65.44,1.82,1.82,0,0,1,.43.78,5.42,5.42,0,0,1,.12,1.27v4.19a1.14,1.14,0,0,0,.28.9,1.39,1.39,0,0,0,.91.23v.33l-.82,0h-2.08l-.74,0v-.33a1.09,1.09,0,0,0,.8-.23,1.31,1.31,0,0,0,.24-.9v-4.53a5.26,5.26,0,0,0-.08-.89,1.05,1.05,0,0,0-1.2-.91,1.84,1.84,0,0,0-1.13.36,2.46,2.46,0,0,0-.78,1A3.75,3.75,0,0,0,748,308v3.5a1.28,1.28,0,0,0,.23.89,1.13,1.13,0,0,0,.81.24v.33l-.75,0h-2.08l-.81,0v-.33a1.41,1.41,0,0,0,.91-.24,1.15,1.15,0,0,0,.27-.89v-9a1.78,1.78,0,0,0-.24-1,1.07,1.07,0,0,0-.94-.34v-.35c.33,0,.65.05,1,.05a6.36,6.36,0,0,0,.87-.06A5,5,0,0,0,748,300.61Z" transform="translate(-597.58 -300.6)"/><path class="cls-1" d="M758.55,304.6a2.8,2.8,0,0,1,2.15.84,3.72,3.72,0,0,1,.78,2.61H756v-.3h4a4.85,4.85,0,0,0-.12-1.42,2.5,2.5,0,0,0-.49-1,1.11,1.11,0,0,0-.88-.4,1.62,1.62,0,0,0-1.27.73,4.21,4.21,0,0,0-.66,2.29l0,.06c0,.16,0,.33,0,.52v.56a4.63,4.63,0,0,0,.35,1.84,2.8,2.8,0,0,0,.9,1.17,2,2,0,0,0,1.15.4,2.74,2.74,0,0,0,.9-.15,2.06,2.06,0,0,0,.78-.49,3,3,0,0,0,.66-.93l.31.12a3.12,3.12,0,0,1-1.55,1.8,3,3,0,0,1-1.38.31,3.56,3.56,0,0,1-2-.52,3.4,3.4,0,0,1-1.24-1.44,4.78,4.78,0,0,1-.43-2.11,5.84,5.84,0,0,1,.44-2.37,3.46,3.46,0,0,1,1.24-1.54A3.21,3.21,0,0,1,758.55,304.6Z" transform="translate(-597.58 -300.6)"/><path class="cls-1" d="M765.48,304.6a2.61,2.61,0,0,1,1.07.2,3.25,3.25,0,0,1,.65.38q.52.42.66-.57h.36c0,.3,0,.66-.05,1.05s0,.94,0,1.62h-.36a4.87,4.87,0,0,0-.32-1.13,2.24,2.24,0,0,0-.65-.9,1.77,1.77,0,0,0-1.15-.36,1.38,1.38,0,0,0-.91.31,1.11,1.11,0,0,0-.37.9,1.18,1.18,0,0,0,.28.81,3.26,3.26,0,0,0,.73.66l1,.65c.37.24.73.49,1.08.77a3.6,3.6,0,0,1,.78.87,2.24,2.24,0,0,1-.09,2.32,2.55,2.55,0,0,1-1,.74,3.46,3.46,0,0,1-1.31.24,3.49,3.49,0,0,1-.65-.05,2.48,2.48,0,0,1-.59-.17,2,2,0,0,1-.32-.18l-.32-.24a.2.2,0,0,0-.26,0l0,0a1,1,0,0,0-.19.53h-.36c0-.34,0-.74,0-1.23s0-1.11,0-1.91h.36a8.85,8.85,0,0,0,.32,1.53,2.1,2.1,0,0,0,.65,1,1.85,1.85,0,0,0,1.22.36,1.38,1.38,0,0,0,.66-.14,1.23,1.23,0,0,0,.54-.47,1.5,1.5,0,0,0,.22-.88,1.44,1.44,0,0,0-.5-1.13,11,11,0,0,0-1.39-1c-.38-.25-.73-.49-1.06-.73a3.28,3.28,0,0,1-.81-.81,2.21,2.21,0,0,1,0-2.25,1.92,1.92,0,0,1,.86-.66A3.21,3.21,0,0,1,765.48,304.6Z" transform="translate(-597.58 -300.6)"/><path class="cls-1" d="M720.91,317.81c6,14.15,4.57,30.73-7.63,41.12l-.85-1a32.11,32.11,0,0,0,7.12-8.2C725.26,340.18,724.83,328,720.91,317.81Z" transform="translate(-597.58 -300.6)"/><path class="cls-2" d="M664.63,345c.73,0,1.45,0,2.18,0a61.38,61.38,0,1,1-61.26,65.14m.73-14a61.46,61.46,0,0,1,46-49.45M712.09,409c-.05-.53-.71-.7-1.51-1.31a7,7,0,0,1-1.72-2.12,9.42,9.42,0,0,1-1.06-3.17c-.09-.4-.2-.84-.33-1.31s-.27-1-.44-1.48a18.45,18.45,0,0,0-1.68-3.74,9,9,0,0,0-1.51-1.91h0a7.64,7.64,0,0,0-.87-.73,3.62,3.62,0,0,0-1.92-.86,3.13,3.13,0,0,0-2.31.86,2.92,2.92,0,0,0-.66,1.06,6.53,6.53,0,0,0-.3,1.07,7.75,7.75,0,0,0,0,2.8c.08.49.17,1,.24,1.41a5.31,5.31,0,0,1,1.14,1.4,4.08,4.08,0,0,1,.66,2.51,3.53,3.53,0,0,1-.9,1.81,7.8,7.8,0,0,1,0,2.89,8.32,8.32,0,0,0-.33,3c.06.74.12,1.47.57,1.67s1.15-.35,1.48-.61a6.22,6.22,0,0,0,1.65-2.46c1-2.13,1-2.77,1.53-3s1.43.39,2.18,1c1.82,1.47,1.74,2.72,3,3a3.09,3.09,0,0,0,2.48-.7c.21-.26.68-.66.64-1.12Zm-56.88-14.12a41.91,41.91,0,0,1-6.84-1.31,10,10,0,0,1-2.78-1.26c-.47-.32-.62-.49-1.45-1.13-1.08-.81-1.85-1.3-2.08-1.45-1.69-1.14-2.46-3.92-2.93-5.57-.73-2.61-1.49-5.32-.75-8.85a15.1,15.1,0,0,1,15.86-12c-.27-1.81-.59-3.62-.72-5.44a1.6,1.6,0,0,0-.34-1c-.58-.73-1.75-.72-2.62-.66a15.75,15.75,0,0,0-1.68.22,15.22,15.22,0,0,0-4.32,1.37c-4.31,2.34-8.24,4.49-11,9.47a21.94,21.94,0,0,0-2.19,14.48,24.07,24.07,0,0,0,.66,2.94,21.78,21.78,0,0,0,5.52,9.5,12,12,0,0,0,1,.92l1.19,1a22.89,22.89,0,0,0,6,3.2,25.65,25.65,0,0,0,6.1,1.14,4,4,0,0,0,2.73-.45,2.39,2.39,0,0,0,1-1,2.42,2.42,0,0,0,.17-1c-.23,0-.32-1.49-.42-3.06Zm-36.53,9.29a23.23,23.23,0,0,0-.8,3c-.61,3.61-1,5.81-.47,8.8a15.92,15.92,0,0,0,.85,3.07c.32.87.73,1.83,1.27,3.08,1.1,2.57,1.72,3.34,2.51,3.92a6.71,6.71,0,0,0,1.9.93,3.29,3.29,0,0,0,2.27-.13,3.4,3.4,0,0,0,1.56-1.55l.06-.12a1.8,1.8,0,0,0-.56-2.3c-1.5-1.37-1.88-3.72-2.31-6.49-.29-1.78,0-3.81.45-7.84.1-.75.15-1.52.19-2.28h0c0-.56,0-1.12.06-1.69h0a40,40,0,0,1,.35-4.76,3.48,3.48,0,0,0-.34-2.37,2.74,2.74,0,0,0-1.73-1.22,3,3,0,0,0-2.32.69,6.18,6.18,0,0,0-1.93,3.64c-.35,1.33-.65,2.38-.85,3.17" transform="translate(-597.58 -300.6)"/><path class="cls-3" d="M655.57,385.62c-.06,4.24-.3,7.25-.29,9.25h0a41.59,41.59,0,0,1-6.83-1.31,9.71,9.71,0,0,1-2.78-1.26c-.48-.32-.62-.49-1.46-1.13-1.07-.81-1.84-1.3-2.08-1.45-1.69-1.14-2.46-3.92-2.93-5.57-.73-2.61-1.48-5.32-.74-8.85a15.08,15.08,0,0,1,15.86-12,32.79,32.79,0,0,1,.47,5.33c-.06,4.47.48,3,.75,10.36C655.58,381.47,655.6,383.67,655.57,385.62Z" transform="translate(-597.58 -300.6)"/><path class="cls-3" d="M654.28,363.29a15.07,15.07,0,0,0-15.86,12c-.74,3.53,0,6.21.74,8.85.47,1.67,1.24,4.42,2.93,5.57.24.16,1,.65,2.08,1.45.84.65,1,.8,1.46,1.12a9.44,9.44,0,0,0,2.78,1.26,40.57,40.57,0,0,0,6.83,1.31h0" transform="translate(-597.58 -300.6)"/><path class="cls-4" d="M650.72,373.89c-.35,0-.65-1.06-.83-1.69a8.54,8.54,0,0,1-.33-2.61,3.57,3.57,0,0,1,.46-1.92c.12-.18.43-.66.7-.6s.34.4.52,1.82a9.56,9.56,0,0,1,0,3.87C651.17,373.18,651,373.88,650.72,373.89Z" transform="translate(-597.58 -300.6)"/><path class="cls-4" d="M643.64,371.94c.1.66.5,1.09,1.22,1.85a5.73,5.73,0,0,0,1.43,1.16c.3.18,1,.59,1.22.4s-.1-.45-.4-1.22c-.46-1.21-.27-1.44-.69-2.09a3.74,3.74,0,0,0-1-1c-.52-.38-1-.72-1.35-.56S643.55,371.44,643.64,371.94Z" transform="translate(-597.58 -300.6)"/><path class="cls-4" d="M640.2,378.56c.17-.11.5-.29,2.48,0,.81.11.65.12,1.49.23s1.37.13,1.39.27-.46.36-1.26.69c-.59.25-.65.25-2.18.76a3.54,3.54,0,0,1-1.36.3,1.28,1.28,0,0,1-1-.36,1.18,1.18,0,0,1-.13-1A1.51,1.51,0,0,1,640.2,378.56Z" transform="translate(-597.58 -300.6)"/><path class="cls-4" d="M644.7,386.06a2.59,2.59,0,0,1,.53-1.65,5.55,5.55,0,0,1,1.06-1.35,2.87,2.87,0,0,1,1.25-.87c.19-.05.66-.17.76,0s-.29.58-.65,1.46c-.24.65-.12.69-.43,1.62a3.87,3.87,0,0,1-.53,1.19c-.19.26-.69.93-1.23.83S644.75,386.5,644.7,386.06Z" transform="translate(-597.58 -300.6)"/><path class="cls-4" d="M651.51,384.15a12.79,12.79,0,0,0-.65,1.58,8.36,8.36,0,0,0-.53,2.15,3.79,3.79,0,0,0,.13,1.86c.09.23.38,1,.79,1s.82-.85,1-1.3a6.05,6.05,0,0,0,0-2.25c-.14-1.55-.24-1.46-.16-2s.18-.81,0-1A.58.58,0,0,0,651.51,384.15Z" transform="translate(-597.58 -300.6)"/><path class="cls-5" d="M633.3,374.64a13.87,13.87,0,0,1,7.05-12.75A28.6,28.6,0,0,0,633.3,374.64Z" transform="translate(-597.58 -300.6)"/><path class="cls-5" d="M634.76,373.72a2.56,2.56,0,0,1,.92-3.52l.06,0A5.14,5.14,0,0,1,634.76,373.72Z" transform="translate(-597.58 -300.6)"/><path class="cls-5" d="M639.61,368.7A10.5,10.5,0,0,1,650,362.23,22.72,22.72,0,0,0,639.61,368.7Z" transform="translate(-597.58 -300.6)"/><path class="cls-5" d="M635.5,386.36A38.2,38.2,0,0,0,645.82,397,15.74,15.74,0,0,1,635.5,386.36Z" transform="translate(-597.58 -300.6)"/><path class="cls-5" d="M643.18,393.5a15.61,15.61,0,0,1,2.5.66c1.21.35,3.64,1.07,4.84,1.44.82.25,1.63.5,2.46.82a12.34,12.34,0,0,1-5.19-.49,13.27,13.27,0,0,1-4.61-2.43Z" transform="translate(-597.58 -300.6)"/><path class="cls-3" d="M648.9,356.44a12.52,12.52,0,0,1,.49-3.55,30.7,30.7,0,0,1,1.66-3.7c.47-1,.87-1.82,1.21-2.49a11.62,11.62,0,0,1,1.43-2.4,9.68,9.68,0,0,1,4.17-2.72,5,5,0,0,1,3.27-.33,4.9,4.9,0,0,1,2.31,1.78,8.34,8.34,0,0,1,1.22,2c.26.58.48,1.2.77,2,.57,1.64,1.23,3.25,2,4.83a12.92,12.92,0,0,0,3.64,4.89c1.47,1.1,2.22,1,3.77,2.32a15.16,15.16,0,0,1,1.66,1.55" transform="translate(-597.58 -300.6)"/><path class="cls-3" d="M663.55,382.17a4.37,4.37,0,0,1-.7.22c-1.48.35-2.16-.24-3.53.07-1.06.24-2.41,1-3.75,3.16" transform="translate(-597.58 -300.6)"/><path class="cls-3" d="M681,365.13a15.39,15.39,0,0,1-3.92,2c-3.6,1.66-5,6-5.57,7.65-.66,2-1.36,4.12-.66,6.54,0,.06,0,.11,0,.17.49,1.54,1.25,2.28,1,3.73a5.07,5.07,0,0,1-2.29,3.17c-.65.45-2.27,1.54-3.74.84a3.22,3.22,0,0,1-1.57-2,19.91,19.91,0,0,1-.66-5,11.4,11.4,0,0,1,.08-1.63,22.47,22.47,0,0,1,2.84-8.73,29,29,0,0,1,6.22-8.67,13.71,13.71,0,0,1,3.77-2.62,7,7,0,0,1,2.24-.56,7.11,7.11,0,0,1,1.13,0,3.34,3.34,0,0,1,2.18.88,2.54,2.54,0,0,1,.8,1.65C682.81,362.75,682.77,363.72,681,365.13Z" transform="translate(-597.58 -300.6)"/><path class="cls-3" d="M655.24,394.87c.1,1.57.19,3,.43,3.09.54.11,1,.19,1.4.24,1.12.15,1.43.1,1.91.39,1.08.66.72,1.6,1.72,2.33s1.68.13,2.62.85a3.45,3.45,0,0,1,1.12,1.79c.51,1.42.32,2.31.2,5.29s0,3.62.4,4.3a4.5,4.5,0,0,0,3.65,2.19,3.74,3.74,0,0,0,1.71-.34,3.81,3.81,0,0,0,1.72-1.65c.48-1,.2-1.63-.08-4.58-.24-2.61-.13-3.35.27-4a2.6,2.6,0,0,1,1.59-1.31c1.06-.17,1.54.9,2.45.73s.77-1.41,2-2.48c1.34-1.21,2.32-.35,4-1.62a4.46,4.46,0,0,0,1.91-3c.06-.83-.32-.93-.32-2,0-1.3.59-1.53.65-2.77V392a3.29,3.29,0,0,0-.87-2.41c-1-.89-2-.13-2.93-.95a1.57,1.57,0,0,1-.51-1h0c-.2-.92-.35-1.84-.46-2.78-.37-2.84-.35-3.48-.92-3.92s-1.64-.31-2.91-.07c-1.62.32-2,.82-3,.93a4.49,4.49,0,0,1-2.2-.36" transform="translate(-597.58 -300.6)"/><path class="cls-3" d="M680.32,387.62h0a28.53,28.53,0,0,1,1.59-4.58c.1-.24.21-.46.31-.65,1.07-2.2,1.85-2.94,3.19-5.94a21,21,0,0,0,2-5.57,3.1,3.1,0,0,1,.06-.39c.19-1.64-.07-3.4-.66-6.86h0v-.21a5.07,5.07,0,0,0-.86-2.52,4.61,4.61,0,0,0-3.86-1.73,4.48,4.48,0,0,0-2.23.79" transform="translate(-597.58 -300.6)"/><path class="cls-3" d="M686.8,363.63h0a5.06,5.06,0,0,1,2.9-1c1.38,0,1.91.66,4.8,1.22,1.73.33,1.66.11,2.67.41a12.24,12.24,0,0,1,4.21,2.5,33.23,33.23,0,0,1,2.72,2.45,45.31,45.31,0,0,1,4.43,4.76,23.74,23.74,0,0,1,2.91,4.37,15.9,15.9,0,0,1,1.58,4.49c0,.09.06.33.1.69a16.42,16.42,0,0,1-.36,5.8c-.16.65-.35,1.17-.65,2.3-.06.19-.1.38-.15.61a19.39,19.39,0,0,1-.59,2.27,9.35,9.35,0,0,1-1.53,2.56,11.72,11.72,0,0,1-2.82,2.48" transform="translate(-597.58 -300.6)"/><path class="cls-3" d="M682.28,382.38c2.62,2.4,4.7,4.32,6.11,5.64a51,51,0,0,0,6.41,5.42c1.09.74,2.1,1.35,3,1.86" transform="translate(-597.58 -300.6)"/><path class="cls-3" d="M703.86,393.91h0a21.22,21.22,0,0,0,1.11-3.64,17.1,17.1,0,0,0,.27-6.76,16.11,16.11,0,0,0-3.44-7.27,16.81,16.81,0,0,0-4.9-4.1,11.9,11.9,0,0,0-6.35-1.85,10.28,10.28,0,0,0-3.16.59" transform="translate(-597.58 -300.6)"/><path class="cls-3" d="M684.66,392a4.92,4.92,0,0,1,3.7.81,11.51,11.51,0,0,1,1.63,2.11c1.65,2.28,2.48,3.42,3.06,3.64,1.31.5,1.74-.46,3.35.05a4.56,4.56,0,0,1,1.57.9,5.74,5.74,0,0,1,1.14,1.41,4.1,4.1,0,0,1,.65,2.51,3.44,3.44,0,0,1-.89,1.81l-.66.84c-1.47,2-2.21,3-2.38,3.92s.36,2,1.26,4.21c1,2.54,1.82,3.22,2.25,5.28a9.15,9.15,0,0,1,.06,4,5.42,5.42,0,0,1-.19.72c-.87,2.83-3.19,5.32-5,5.1-.57-.07-.63-.36-1.65-.57-1.3-.28-1.75.09-2.85-.09-1.47-.25-1.47-1.06-2.62-1.25a1.89,1.89,0,0,0-1.17.14h0c-.61.26-1.3.78-2.78,1.44a11.46,11.46,0,0,1-3.92,1.31,3.79,3.79,0,0,1-1.16-.12,4.9,4.9,0,0,1-2.64-2.05c-.81-1.31-.22-1.85-1-4.44-.44-1.49-.81-2.65-1.86-3.27l-.21-.1a7.32,7.32,0,0,1-1.5-.56,5.34,5.34,0,0,1-1.73-1.65,4.16,4.16,0,0,1-.44-2.77" transform="translate(-597.58 -300.6)"/><path class="cls-3" d="M698,399.48a5.74,5.74,0,0,1,1.14,1.41,4.1,4.1,0,0,1,.65,2.51,3.44,3.44,0,0,1-.89,1.81" transform="translate(-597.58 -300.6)"/><path class="cls-3" d="M699.28,424.19c.75.85,1.35,1,1.78,1,.65-.05.9-.57,2-1.07a7.4,7.4,0,0,1,2.74-.59c3.85-.33,4,.34,5.23-.2a2.58,2.58,0,0,0,.37-.19,6.83,6.83,0,0,0,2.67-4c.36-1.46-.11-1.81.4-2.73.83-1.46,2.27-1,3.74-2.5a6.43,6.43,0,0,0,1.59-3.83c.11-.88.34-2.66-.42-3.82a2.09,2.09,0,0,0-.41-.48c-1-.86-1.82-.1-3.18-.79-2-1-1.68-3.36-2.85-4.52a1.61,1.61,0,0,0-.38-.31c-.79-.48-2.21-.66-5,.91" transform="translate(-597.58 -300.6)"/><path class="cls-3" d="M713.12,383.54a15.72,15.72,0,0,1,5.26,6.12,18.81,18.81,0,0,1,1.53,5.7,28.75,28.75,0,0,1,0,6c-.1,1.31-.27,2.95-.59,4.85" transform="translate(-597.58 -300.6)"/><path class="cls-3" d="M712.12,391.64a6.07,6.07,0,0,1,1.23,2,7.45,7.45,0,0,1,.27,4,11.51,11.51,0,0,1-.74,2.88" transform="translate(-597.58 -300.6)"/><path class="cls-3" d="M639.73,396.08a3.64,3.64,0,0,0-.85,2.06c-.06,1.15.6,1.41.69,2.72a4,4,0,0,1-.62,2.34,2.86,2.86,0,0,0-.42,1.78c.15,1.39,1.13,1.27,1.89,3.07.38.93.4,2.46.4,5.38v.38c0,2.2-.08,2.61.3,3.23.27.42.89,1.11,3.72,1.68,2.3.46,3.47.32,7.19.55,3.42.21,3.87.41,4.24.65,1.61,1,1.26,2.26,3.2,4.27a7.34,7.34,0,0,0,4.07,2.48,5.81,5.81,0,0,0,3-.34,10,10,0,0,0,5.83-6" transform="translate(-597.58 -300.6)"/><path class="cls-3" d="M711.34,423.14a3.76,3.76,0,0,1,.43,2.18,4.9,4.9,0,0,1-1.64,2.75,14.29,14.29,0,0,1-3.44,2.32,16.05,16.05,0,0,0-3.79,2.87c-2.27,2.61-.46,4.78-2.51,8.33-.48.83-2.12,3.66-5.09,4.06a6,6,0,0,1-3.92-.95" transform="translate(-597.58 -300.6)"/><path class="cls-3" d="M686,427.52h0a22.16,22.16,0,0,1-.47,7,21.51,21.51,0,0,1-.87,2.83,24.59,24.59,0,0,1-3.17,5.66c-1.76,2.47-3.51,4.87-6.3,5.32-.65.1-2.29.37-3.27-.66a3,3,0,0,1-.65-2.27c.15-1.61,1.37-2.53,2.45-3.64a20.2,20.2,0,0,0,4.23-7.08,20.7,20.7,0,0,0,1.31-4.43" transform="translate(-597.58 -300.6)"/><path class="cls-3" d="M684.65,437.4a3.25,3.25,0,0,0,1.46,1.56c1.06.54,1.74,0,2.74.42,1.56.65,2.36,3,2.51,5.34a12,12,0,0,1-.1,2.61c-.65,4.37-4,7.05-5.43,8.24-2,1.58-6.14,2.83-14.54,5.32a29,29,0,0,1-7.78,1.31,19.63,19.63,0,0,1-5.64-.91c-1.77-.54-2.21-1-2.43-1.4-.54-1.13.37-2.62,1.31-4.09,1.25-2,2-2.15,3.16-4.17.87-1.44,1.43-2.38,1.31-3.59a4.62,4.62,0,0,0-1.77-3.05" transform="translate(-597.58 -300.6)"/><path class="cls-3" d="M648.54,446.4c.65-3.11,3.57-5.42,4.74-6.33a24,24,0,0,1,9.25-4.21s5.15-1.41,8.34-.15c.4.16,1.4.55,1.54,1.31a1.56,1.56,0,0,1-.4,1.19,8.09,8.09,0,0,1-3.83,2.51c-3.84,1.26-3.92.62-5.56,1.41-1,.47-.69.57-5.15,4.68a32.94,32.94,0,0,1-3.12,2.54c-2.58,1.85-3.39,1.84-3.92,1.69a3.08,3.08,0,0,1-1.72-1.78A4.46,4.46,0,0,1,648.54,446.4Z" transform="translate(-597.58 -300.6)"/><path class="cls-3" d="M666.59,426.32a4,4,0,0,1,.09,2.5c-.36,1.17-1.16,1.49-1.58,2.67a5.06,5.06,0,0,0,.38,3.83" transform="translate(-597.58 -300.6)"/><path class="cls-3" d="M646.52,432.7h0c-.23-.75-.42-1.25-.94-1.38s-.82.37-1.81.42a4.33,4.33,0,0,1-2.61-.93c-1.75-1.11-1.7-2-2.91-2.31a3.43,3.43,0,0,0-2.25.32h0a3.36,3.36,0,0,0-1.36,1.31,5.82,5.82,0,0,1-1.17,1.31l-.34.26a5.64,5.64,0,0,1-.53.31c-.95.46-1.57.23-2.44,1.08a4.54,4.54,0,0,0-1,1.46,4.11,4.11,0,0,0-.13,3.12c.51,1.2,1.49,1.21,1.68,2.3.16.91-.41,1.6-1.16,2.79a30,30,0,0,0-2.31,4.47c.29,2.89,1.27,4.13,2.18,4.7,1.86,1.19,4.11.06,5.79,1.74.65.65.36.9,1.1,1.91,1.2,1.65,3.64,3.27,6,3,2.07-.28,2.25-1.85,4.63-2,1.17-.06,1.3.32,2.87.23a5.66,5.66,0,0,0,3.6-1.09,3.09,3.09,0,0,0,1.31-2.31c0-.79-.54-1-.93-1.92a3.5,3.5,0,0,1-.28-1.6" transform="translate(-597.58 -300.6)"/><path class="cls-3" d="M650.33,438.49l1,.85a11.78,11.78,0,0,0,1.49,1.05" transform="translate(-597.58 -300.6)"/><path class="cls-3" d="M624.92,390.71a2.36,2.36,0,0,1,.07-.44,6.82,6.82,0,0,1,.46-1.66,6.65,6.65,0,0,1,3.26-3.17,7.2,7.2,0,0,1,3.35-.74" transform="translate(-597.58 -300.6)"/><path class="cls-3" d="M618.29,419a6.38,6.38,0,0,1-4.22.3,6.67,6.67,0,0,1-2.51-1.52c-1.61-1.4-1.67-2.4-3-4.29a18.54,18.54,0,0,0-3.05-3.39,21.84,21.84,0,0,0-2-1.57c-1.55-1.1-2.42-1.38-3.48-2.72-.58-.73-1.55-2-1.31-3.38.14-.85.79-1.47,2.09-2.66a17.14,17.14,0,0,1,4.19-3.09,8.74,8.74,0,0,1,1.27-.53,12.64,12.64,0,0,0,3.11-1,16.56,16.56,0,0,0,4.42-3,21.18,21.18,0,0,1,2-2,7,7,0,0,1,3.71-1.65,6.7,6.7,0,0,1,3.77,1.12,13.65,13.65,0,0,1,1.66,1.05,13.87,13.87,0,0,1,2.46,2.32" transform="translate(-597.58 -300.6)"/><path class="cls-3" d="M624,426.94a27.61,27.61,0,0,0,2.53,4.5,25.34,25.34,0,0,0,2.68,3.18" transform="translate(-597.58 -300.6)"/><path class="cls-3" d="M625.69,404.49h0a21.57,21.57,0,0,1,2.8-3.51,25.58,25.58,0,0,1,6.74-4.58,27.65,27.65,0,0,1,3.32-1.26" transform="translate(-597.58 -300.6)"/><path class="cls-3" d="M634.62,430.14a18.17,18.17,0,0,1-3.17-4.41,16.64,16.64,0,0,1-1.9-9.54,16.25,16.25,0,0,1,3.92-9,15.79,15.79,0,0,1,5.5-4" transform="translate(-597.58 -300.6)"/><path class="cls-3" d="M640.82,413.43c-2.13.95-2.91,2.05-3.2,3-.58,1.84.86,2.9.19,5.16s-2.45,2.49-2.7,4.36a4.19,4.19,0,0,0,.87,2.94" transform="translate(-597.58 -300.6)"/><path class="cls-3" d="M638.48,441.32a2,2,0,0,1-1.19-1.19c-.35-1.56,2.78-3.38,3.27-3.66,2.35-1.37,2.86-.61,4.37-1.69,1.83-1.31,1.27-2.56,3.77-5.51,1.21-1.43,2-2.37,3.32-2.48a4.72,4.72,0,0,1,3.43,1.59,4,4,0,0,1,.59,5.46,8.24,8.24,0,0,1-2.38,2.23c-4,3-4.31,3.13-4.76,3.77a6.16,6.16,0,0,0-1.39,3.72c0,1,.39,1.59.1,2.61-.05.18-.46,1.59-1.39,1.79-1.1.23-2.62-1.24-2.68-2.62-.06-1.23,1.08-1.64,1-3.22a2.14,2.14,0,0,0-.69-1.74c-.66-.43-1.77-.06-2.68.9" transform="translate(-597.58 -300.6)"/><path class="cls-4" d="M694.55,387.72c.23-.27,1.23.23,1.81.52a8.51,8.51,0,0,1,2.15,1.51,3.41,3.41,0,0,1,1.11,1.63c.06.21.2.75,0,.91s-.52,0-1.7-.83a9.09,9.09,0,0,1-2.89-2.57C694.77,388.51,694.38,387.91,694.55,387.72Z" transform="translate(-597.58 -300.6)"/><path class="cls-4" d="M700.76,383.79a3.62,3.62,0,0,0-2.2-.34,6.21,6.21,0,0,0-1.81.28c-.33.1-1.14.36-1.12.65s.39.22,1.17.53c1.2.47,1.25.76,2,.88a3.5,3.5,0,0,0,1.44-.06c.65-.14,1.21-.26,1.31-.65S701.18,384.05,700.76,383.79Z" transform="translate(-597.58 -300.6)"/><path class="cls-4" d="M698.17,376.77c0,.21-.13.57-1.64,1.86-.62.53-.52.39-1.17.95s-1,.92-1.13.85,0-.58.32-1.4c.22-.6.28-.65.91-2.13a3.51,3.51,0,0,1,.69-1.2,1.34,1.34,0,0,1,1-.52,1.19,1.19,0,0,1,.82.57A1.55,1.55,0,0,1,698.17,376.77Z" transform="translate(-597.58 -300.6)"/><path class="cls-4" d="M689.58,375.06a2.59,2.59,0,0,1,.87,1.5,5.48,5.48,0,0,1,.3,1.7,3,3,0,0,1-.21,1.51c-.09.16-.29.58-.51.56s-.24-.6-.65-1.45c-.31-.59-.44-.54-.91-1.4a3.58,3.58,0,0,1-.53-1.2c-.06-.31-.23-1.13.21-1.46S689.23,374.8,689.58,375.06Z" transform="translate(-597.58 -300.6)"/><path class="cls-4" d="M684.61,378.17a9.09,9.09,0,0,1,1.08,1.66,15.84,15.84,0,0,1,.74,1.56.6.6,0,0,1-.38.33c-.29,0-.52-.35-.76-.66s-.31-.25-1.56-1.18l-.06-.05" transform="translate(-597.58 -300.6)"/><path class="cls-4" d="M635.91,409c.11.66.51,1.08,1.23,1.85a5.87,5.87,0,0,0,1.42,1.16c.3.18,1,.6,1.22.4s-.1-.45-.4-1.22c-.45-1.21-.27-1.44-.69-2.09a3.61,3.61,0,0,0-1-1c-.52-.37-1-.72-1.35-.56S635.87,408.45,635.91,409Z" transform="translate(-597.58 -300.6)"/><path class="cls-4" d="M632.47,415.57c.17-.11.51-.29,2.48,0,.81.11.66.12,1.49.24s1.37.13,1.39.26-.45.36-1.26.7c-.59.24-.65.24-2.18.75a3.53,3.53,0,0,1-1.35.3,1.34,1.34,0,0,1-1-.36,1.16,1.16,0,0,1-.13-1A1.55,1.55,0,0,1,632.47,415.57Z" transform="translate(-597.58 -300.6)"/><path class="cls-4" d="M637.83,421.51h-.08a2.71,2.71,0,0,0-1.48.33,5.67,5.67,0,0,0-1.49.86,2.66,2.66,0,0,0-1.12,1.31c-.11.43-.13,1.16.28,1.43s1.07-.08,1.38-.27" transform="translate(-597.58 -300.6)"/><path class="cls-5" d="M708.06,376.74a14.3,14.3,0,0,1,2,3.22,15.2,15.2,0,0,1,1.12,3.62,16,16,0,0,1,.23,3.79,13.86,13.86,0,0,1-.72,3.71,25.82,25.82,0,0,0,.24-3.72c0-.62,0-1.23-.1-1.85a22.34,22.34,0,0,0-.65-3.62c-.15-.59-.35-1.17-.56-1.76A26.38,26.38,0,0,0,708.06,376.74Z" transform="translate(-597.58 -300.6)"/><path class="cls-5" d="M707.53,378.39a3.06,3.06,0,0,1,.73.66,3.63,3.63,0,0,1,.49.83,3.33,3.33,0,0,1,.28.93,2.64,2.64,0,0,1,0,1,6.78,6.78,0,0,1-.45-.84c-.14-.27-.26-.54-.38-.81l-.35-.83A7.56,7.56,0,0,1,707.53,378.39Z" transform="translate(-597.58 -300.6)"/><path class="cls-5" d="M704.83,395c.12-.15.22-.3.33-.46a11.56,11.56,0,0,0,1.43-2.88,12.18,12.18,0,0,0,.66-3.16,10.63,10.63,0,0,0-.28-3.18,19.29,19.29,0,0,1-.2,3.13,15.32,15.32,0,0,1-.3,1.53,13.28,13.28,0,0,1-.43,1.49c-.16.48-.35,1-.56,1.43s-.45.94-.7,1.39l-.21.35Z" transform="translate(-597.58 -300.6)"/><path class="cls-5" d="M687.32,367.08h2.52a16.65,16.65,0,0,1,1.86.15,28.35,28.35,0,0,1,3.66.66,34.91,34.91,0,0,1,3.59,1.16,16.22,16.22,0,0,0-3.45-1.62c-.6-.21-1.22-.37-1.84-.52-.31-.07-.66-.13-.94-.17l-.47-.08-.48-.07a18.16,18.16,0,0,0-3.83,0l-.65.07Z" transform="translate(-597.58 -300.6)"/><path class="cls-5" d="M687.47,368.76l1-.37a7.2,7.2,0,0,0-1,.11Z" transform="translate(-597.58 -300.6)"/><path class="cls-5" d="M643.18,404.41a2.64,2.64,0,0,0,1,2.62,10.87,10.87,0,0,1,1.67,3.18,7.82,7.82,0,0,1,.18,3.47c-.21,1.08.78,1.41,1.75,1.57,0,0,0,0,0,.07a1.9,1.9,0,0,1-3-2c0-.47.16-1,.22-1.44.1-1.05.4-2.24-.26-3.17a4.15,4.15,0,0,0-1.25-1,2.66,2.66,0,0,1-1.08-1.6,1.78,1.78,0,0,1,.61-1.79s.08,0,.09,0,0,0,0,0Z" transform="translate(-597.58 -300.6)"/><path class="cls-5" d="M655.2,416.27c.56-1.08,2-.74,2.69.08.35.36.49.87,1,1a6.28,6.28,0,0,0,.87.12,2.63,2.63,0,0,1,1.53,1.12,9.85,9.85,0,0,1,.92,1.53c.48.94,1,1.44,2,.85a9.65,9.65,0,0,0,1.36-1,0,0,0,0,1,.07,0h0c-.3,1.82-2.55,3.5-3.89,1.49a9.83,9.83,0,0,1-.93-2.56c-.16-.53-.51-1.06-1-1.06s-1.39.33-2-.19c-.44-.34-.65-.89-1.12-1.21a1.29,1.29,0,0,0-1.36-.13.05.05,0,0,1-.08,0,0,0,0,0,1,0-.05Z" transform="translate(-597.58 -300.6)"/><path class="cls-5" d="M648.22,403.8c.46-.07.69-.05.85.16s.11.33.22.41.57-.16.78-.2c.43-.19.62-.08,1.19.16a.08.08,0,0,1,0,.1,1,1,0,0,1-1.13.82l-.12,0c-.35,0-.57-.48-.89-.52a4.49,4.49,0,0,1-.55.05.7.7,0,0,1-.48-.88.08.08,0,0,1,.08-.07Z" transform="translate(-597.58 -300.6)"/><path class="cls-5" d="M672.94,416.26a2.32,2.32,0,0,1,3.45,1.81c0,1.12-.44,2,.15,2.91.43.78,1.46,1.06,1.7,2a4.35,4.35,0,0,0,.43,2.13c.72,1.06,2.15.9,3.27,1.19a3.8,3.8,0,0,1-3.21.27,2.72,2.72,0,0,1-1.46-3.06,1,1,0,0,0,0-.65,9.18,9.18,0,0,1-1.31-2.73c-.34-1.17-.19-2.5-1.19-3.22a4.31,4.31,0,0,0-1.74-.57,0,0,0,0,1,0-.1Z" transform="translate(-597.58 -300.6)"/><path class="cls-5" d="M691.57,423.87a2.93,2.93,0,0,0,1.87-.58,3.69,3.69,0,0,0,.94-2.41c0-.2-.54-.34-.8-.65A4.73,4.73,0,0,1,693,418a25.47,25.47,0,0,1,.1-3.27c0-.5-.31-.66-.65-1-1.09-1.3,0-3,.78-4a.06.06,0,0,1,.09,0s0,0,0,0c-.12,1-.56,2.07-.26,3a3.41,3.41,0,0,0,.61.65c1.21,1.31.09,3.2-.09,4.69-.15.82-.26,2,.66,2.23a1.27,1.27,0,0,1,.59.32,1.16,1.16,0,0,1,.29.69c.33,2.06-1.68,3.92-3.61,2.78a.05.05,0,0,1,0-.08s0,0,0,0Z" transform="translate(-597.58 -300.6)"/><path class="cls-5" d="M690,400.61a5,5,0,0,0,1.15,1.31,1.54,1.54,0,0,0,1.74.6,1.51,1.51,0,0,1,1.54,2.56,2.7,2.7,0,0,1-.92.65.06.06,0,0,1-.08,0,11.37,11.37,0,0,0,.33-1.85.37.37,0,0,0-.15-.36,4.31,4.31,0,0,0-1.8-.66,4.05,4.05,0,0,1-1.15-.17,1.56,1.56,0,0,1-.79-2.07v0a.07.07,0,0,1,.09,0l0,0Z" transform="translate(-597.58 -300.6)"/><path class="cls-5" d="M695.56,438.66c1.77-1.24,3.19-2.47,3.82-4.5a15.39,15.39,0,0,0,.36-2.12,4,4,0,0,1,4.17-3.39c1,0,1.31-.84,1.31-1.89a.05.05,0,0,1,.1,0,2.05,2.05,0,0,1-.09,2.32c-.55.66-1.45.66-2.16.89a4.34,4.34,0,0,0-1.65.75,5.83,5.83,0,0,0-1.7,3.55,7.86,7.86,0,0,1-.47,2.19,4.15,4.15,0,0,1-1.56,1.66,4.43,4.43,0,0,1-2.12.68.06.06,0,0,1-.05-.07.05.05,0,0,1,0,0Z" transform="translate(-597.58 -300.6)"/><path class="cls-5" d="M701.29,418.44c-.25-.7.4-1.38,1-1.58s1.27,0,1.58-.53a1.37,1.37,0,0,0,0-1.12c-.06-.44-.21-1-.25-1.61,0,0,0-.06,0-.07h0c1.63.52,2.09,3.15.05,3.42a1.81,1.81,0,0,0-1,.73c-.41.36-.86.42-1.31.78a0,0,0,0,1-.07,0h0Z" transform="translate(-597.58 -300.6)"/><path class="cls-5" d="M707.64,413A3.73,3.73,0,0,1,709,415c.18.66.36.83,1.13.66.94-.22,1.2-1,1.64-1.83a5.73,5.73,0,0,1,2.06-2.33c.75-.5,1.87-.61,2.07-1.59.18-.7.14-1.6-.7-1.71-.38-.07-.87-.06-1.45-.14-1.69-.29-1.79-1.74-1.34-3s-.77-1-1.59-1a0,0,0,0,1-.06,0h0c.16-.19.5-.25.75-.35a1.31,1.31,0,0,1,1.66.57c.29.7-.12,1.68.07,2.21.35.7,1.42.33,2.23.6a2,2,0,0,1,1.42,1.36,2.61,2.61,0,0,1-.69,2.53c-.65.56-1.53.51-2.19.87a3.2,3.2,0,0,0-1.67,2.23,6.23,6.23,0,0,1-.5,1.51c-.6,1.1-2.51,1.63-3.32.48a6.84,6.84,0,0,1-.38-1.56,5.74,5.74,0,0,0-.56-1.3.06.06,0,0,1,0-.08,0,0,0,0,1,0,0Z" transform="translate(-597.58 -300.6)"/><path class="cls-5" d="M641,421.14a1.92,1.92,0,0,1,1.7,1.31c.17.86-.5,1.42-.84,2.1-.16.3-.39.6-.43.74s.06,0,0-.11,0,0,.15.05a1.59,1.59,0,0,1,.89,1,1.09,1.09,0,0,1-.4,1.14.06.06,0,0,1-.09,0,1.36,1.36,0,0,0-.3-.78,3.1,3.1,0,0,0-.6-.23,1.09,1.09,0,0,1-.75-1.09c.08-.62.71-.94,1.1-1.11a1.13,1.13,0,0,0,.65-.62.72.72,0,0,0-.25-.7c-.15-.21-.3-.43-.43-.65a5.1,5.1,0,0,1-.48-.89.07.07,0,0,1,0-.09h0Z" transform="translate(-597.58 -300.6)"/><path class="cls-5" d="M660.43,429.25a6.35,6.35,0,0,0-.18,1.06c-.07.49.61.73,1.07.85a1.09,1.09,0,0,1,.73.8,1.88,1.88,0,0,1-1.45,2.16.08.08,0,0,1-.09,0h0a8.32,8.32,0,0,1,.51-2,.89.89,0,0,0-.66-.94c-.23-.1-.61-.05-.92-.4-.52-.65.16-1.59.9-1.6a.08.08,0,0,1,.08.07h0Z" transform="translate(-597.58 -300.6)"/><path class="cls-5" d="M654.11,423.57a.65.65,0,0,1,.81-.44l.06,0c.15.1.24.32.36.4a.71.71,0,0,0,.45.12,1,1,0,0,1,.85.55.92.92,0,0,1-.25,1,.09.09,0,0,1-.1,0c-.65-.36-.8-.46-.86-1.1a.29.29,0,0,0-.23-.28c-.13,0-.28.13-.39.18s-.35-.07-.65-.38a.13.13,0,0,1,0-.12Z" transform="translate(-597.58 -300.6)"/><path class="cls-5" d="M640.78,434.59a5.65,5.65,0,0,0-.81-.53l.13,0H640a1.12,1.12,0,0,0-1-.09l-.16,0,.15,0c-.19.13-.48.55-.83.89a3.89,3.89,0,0,1-2.61,1c-1.13.23-2.62.85-2.57,2.24.1,1.69,1.21,2.54,2.49,3.44a1.69,1.69,0,0,1,.36,1.81,8.37,8.37,0,0,0-.73,2.95.61.61,0,0,0,.1.37,1.71,1.71,0,0,0,2.42.19l.1-.09a.06.06,0,0,1,.08,0,2,2,0,0,1-3.31.49,1.47,1.47,0,0,1-.4-.83,6.23,6.23,0,0,1,.65-3.5.56.56,0,0,0,0-.65,4.68,4.68,0,0,1-2.1-4.19c.14-2,2.25-3,3.92-3.39.88-.26,1.31-1,2.13-1.46h0a1.49,1.49,0,0,1,1.52.37l-.13,0h.08a2.66,2.66,0,0,1,.69.87.05.05,0,0,1,0,.07.06.06,0,0,1-.06,0Z" transform="translate(-597.58 -300.6)"/><path class="cls-5" d="M641.36,446a3.8,3.8,0,0,1-.05,2.14c-.2.66-.59,1.13-.74,1.77a2.11,2.11,0,0,0,.08,1.77c.26.51.89,1,1.44.69s.75-.81,1.52-1.31a1.33,1.33,0,0,1,1.58.17,5.59,5.59,0,0,1,.6.92,1.08,1.08,0,0,0,1.19.33,3.24,3.24,0,0,0,1.61-.93,0,0,0,0,1,.07,0h0a2.58,2.58,0,0,1-2.62,2,1.71,1.71,0,0,1-1.25-.66c-.26-.37-.4-.71-.47-.8s-.14-.1-.29-.05c-1.31.87-2.45,1.69-3.73-.13a3,3,0,0,1-.52-2.72,7.87,7.87,0,0,1,.74-1.37,11.13,11.13,0,0,0,.74-1.83,0,0,0,0,1,.07,0s0,0,0,0Z" transform="translate(-597.58 -300.6)"/><path class="cls-5" d="M657.39,394.25a2.4,2.4,0,0,1-.53-3.37,2.37,2.37,0,0,1,.47-.48,3.65,3.65,0,0,1,2-.59c1.25-.05,2.42,1,3.64.92.65,0,1.13-.25,1.88-.25a1.75,1.75,0,0,1,1.63,1.79,4.35,4.35,0,0,1-.39,2,.07.07,0,0,1-.08,0,.08.08,0,0,1,0,0,4.92,4.92,0,0,0-.7-2.46.5.5,0,0,0-.42-.15,8.62,8.62,0,0,1-2,.13,3.72,3.72,0,0,1-1.92-.9,2,2,0,0,0-1.62-.71,3,3,0,0,0-2.16,2.27,3.82,3.82,0,0,0,.25,1.74.06.06,0,0,1-.05.08h0Z" transform="translate(-597.58 -300.6)"/><path class="cls-5" d="M669.27,392.57c.11-1.07.92-2.32,2.19-2.17s2.35.43,3.6.57c.94.07,1.26-1.15,1.53-1.89.36-1.16,1.31-1,2-.28a3.8,3.8,0,0,1,1.6,2.8c0,1.15-.72,1.63-.21,2.61.3.55.82,1.25.65,2a5.8,5.8,0,0,1-2.67,3.37.05.05,0,0,1-.08,0,0,0,0,0,1,0-.07,9.73,9.73,0,0,0,1.7-3.11c.17-.65-.37-1-.66-1.63a2.53,2.53,0,0,1-.21-1.85,2.52,2.52,0,0,0,.18-2.48c-.34-.69-1.51-2.71-2-1.19-.34.95-.57,2.41-1.82,2.55a7.53,7.53,0,0,1-2.32-.12c-.92-.15-1.68-.76-2.49-.12a4.52,4.52,0,0,0-.9,1.1.06.06,0,0,1-.08,0,.06.06,0,0,1,0-.05Z" transform="translate(-597.58 -300.6)"/><path class="cls-5" d="M664,395.65c1.37-.87,3.43-.41,3.32,1.54a4.85,4.85,0,0,0,0,1.86c.27.65.88,1.75,1.67,1.47,1.46-.79.59-2.67,1.51-3.92a3,3,0,0,1,1.68-1.22.06.06,0,0,1,.07,0h0a4.07,4.07,0,0,0-1.12,3.27,2.67,2.67,0,0,1-2,2.68c-.92.15-1.44-.65-1.76-1.3l-.45-.89a13.88,13.88,0,0,1-.82-2.61c-.42-.72-1.3-.66-2.19-.77a.06.06,0,0,1,0-.08,0,0,0,0,1,0,0Z" transform="translate(-597.58 -300.6)"/><path class="cls-5" d="M625.41,413a13.83,13.83,0,0,1,.51-3.74,15.82,15.82,0,0,1,1.42-3.52,16.39,16.39,0,0,1,2.22-3.08,14,14,0,0,1,2.9-2.41,28.39,28.39,0,0,0-2.54,2.72c-.37.49-.75,1-1.08,1.5a15.68,15.68,0,0,0-1,1.57c-.3.53-.58,1.08-.83,1.64a15.55,15.55,0,0,0-.65,1.72A24.91,24.91,0,0,0,625.41,413Z" transform="translate(-597.58 -300.6)"/><path class="cls-5" d="M626.87,412.05a2.89,2.89,0,0,1-.16-1,4.36,4.36,0,0,1,.14-1,4.11,4.11,0,0,1,.38-.89,2.75,2.75,0,0,1,.65-.75,7,7,0,0,1-.18.93c-.07.29-.15.59-.23.87s-.16.58-.25.87S627,411.76,626.87,412.05Z" transform="translate(-597.58 -300.6)"/><path class="cls-5" d="M639.58,401.29l-.48.18a11.38,11.38,0,0,0-1.42.66,11.07,11.07,0,0,0-1.35.75,14.27,14.27,0,0,0-1.31.88c-.41.31-.81.65-1.19,1a22.26,22.26,0,0,0-2.15,2.3,10.75,10.75,0,0,1,1.81-2.62,12.17,12.17,0,0,1,5.42-3.38l.65-.16Z" transform="translate(-597.58 -300.6)"/><path class="cls-5" d="M633.11,431.73a5.74,5.74,0,0,1-.53.32c-.33-.3-.66-.6-1-.92l-.33-.35-.31-.35c-.22-.25-.42-.49-.62-.74-.39-.5-.76-1-1.1-1.57a15.63,15.63,0,0,1-1.45-2.89c-.07-.18-.13-.36-.19-.54l.25.42a28.75,28.75,0,0,0,1.79,2.75,25.93,25.93,0,0,0,2.4,2.84C632.4,431.05,632.75,431.4,633.11,431.73Z" transform="translate(-597.58 -300.6)"/><path class="cls-5" d="M637.93,435.34c-.25-.1-.51-.19-.76-.31l.08,0,.07,0Z" transform="translate(-597.58 -300.6)"/><line class="cls-6" x1="42.52" y1="133.27" x2="41.28" y2="133.06"/><path class="cls-5" d="M645.09,434.79h0Z" transform="translate(-597.58 -300.6)"/><path class="cls-5" d="M676.11,360.69c.12.6.21,1.16.33,1.71.06.27.12.54.19.81s.13.56.21.82a3,3,0,0,0,.65,1.34,4.19,4.19,0,0,0,1.35,1,2.6,2.6,0,0,1-1.77-.48,2.65,2.65,0,0,1-.66-.72,3.56,3.56,0,0,1-.37-.9,8.57,8.57,0,0,1-.18-.88,5.37,5.37,0,0,1-.07-.9A5.13,5.13,0,0,1,676.11,360.69Z" transform="translate(-597.58 -300.6)"/><path class="cls-5" d="M670.18,365.88a1.07,1.07,0,0,1,.3-.3.91.91,0,0,1,.41-.19.58.58,0,0,1,.57.21.82.82,0,0,1,.14.26,1.42,1.42,0,0,1,.07.22c.06.28.11.51.17.75a5.17,5.17,0,0,0,.21.7,3.07,3.07,0,0,0,.66,1.18,4.51,4.51,0,0,0,1.23.85,2.37,2.37,0,0,1-1.64-.35,2.51,2.51,0,0,1-.65-.65,3.45,3.45,0,0,1-.4-.79,5.74,5.74,0,0,1-.19-.82,4.35,4.35,0,0,1,0-.81,1.13,1.13,0,0,0,0-.26s0-.09-.11-.12a1,1,0,0,0-.34,0C670.44,365.81,670.31,365.84,670.18,365.88Z" transform="translate(-597.58 -300.6)"/><path class="cls-5" d="M666.29,372.15a1.67,1.67,0,0,1,.57-.69.84.84,0,0,1,.56-.13.89.89,0,0,1,.52.34,5,5,0,0,1,.41.8,1.71,1.71,0,0,0,.38.54,3.6,3.6,0,0,0,1.31.66c.5.17,1,.31,1.59.49a4.6,4.6,0,0,1-1.73.14,3,3,0,0,1-1.71-.73,2.11,2.11,0,0,1-.53-.84c-.09-.28-.15-.56-.23-.74a.3.3,0,0,0-.12-.17.36.36,0,0,0-.25,0A2.76,2.76,0,0,0,666.29,372.15Z" transform="translate(-597.58 -300.6)"/><path class="cls-5" d="M664.22,377.18a4,4,0,0,0,1,1.48,2.34,2.34,0,0,0,.71.39,2.89,2.89,0,0,0,.82.15h1.82c.63-.06,1.26-.15,1.88-.27a4.93,4.93,0,0,1-1.76.91,6.74,6.74,0,0,1-1,.17,5.57,5.57,0,0,1-1,0,3.21,3.21,0,0,1-1.05-.24,2.53,2.53,0,0,1-1.45-2.62Z" transform="translate(-597.58 -300.6)"/><path class="cls-5" d="M663.62,383.75a9,9,0,0,0,2,1,6.29,6.29,0,0,0,2.06.36,7,7,0,0,0,2.08-.29,12.59,12.59,0,0,0,2.06-.81,5.09,5.09,0,0,1-1.83,1.42,5.45,5.45,0,0,1-2.32.51,5,5,0,0,1-2.31-.6A4.53,4.53,0,0,1,663.62,383.75Z" transform="translate(-597.58 -300.6)"/><path class="cls-5" d="M620.23,398.78a3.41,3.41,0,0,0,.53.61.5.5,0,0,0,.51.12,2.3,2.3,0,0,0,.55-.39,3,3,0,0,1,.79-.48,2.14,2.14,0,0,1,1-.14,2.84,2.84,0,0,1,.9.23,3.84,3.84,0,0,1,1.37,1.06c-.55-.16-1.07-.35-1.57-.44a2.45,2.45,0,0,0-1.37.06,3.13,3.13,0,0,0-.65.35c-.12.07-.24.15-.38.22a1.32,1.32,0,0,1-.51.16.85.85,0,0,1-.58-.13,1,1,0,0,1-.35-.37A1.82,1.82,0,0,1,620.23,398.78Z" transform="translate(-597.58 -300.6)"/><path class="cls-5" d="M617.91,407.13a6,6,0,0,1,1.56-1.62,6.49,6.49,0,0,1,2.07-1,4.92,4.92,0,0,1,1.15-.17,3,3,0,0,1,1.21.18,2.82,2.82,0,0,1,1.59,1.64,3.68,3.68,0,0,0-1.78-1,4.48,4.48,0,0,0-2,.17,10.62,10.62,0,0,0-2,.74C619.16,406.37,618.56,406.75,617.91,407.13Z" transform="translate(-597.58 -300.6)"/><path class="cls-5" d="M618.5,412.32a6,6,0,0,1,1.31-1.43,6.82,6.82,0,0,1,1.7-1,4.43,4.43,0,0,1,1-.3,2.72,2.72,0,0,1,.57,0,3,3,0,0,1,.52.13,2.69,2.69,0,0,1,1.52,1.31,4.3,4.3,0,0,0-1.67-.66H623a2.32,2.32,0,0,0-.38.05,4.7,4.7,0,0,0-.82.29,16.75,16.75,0,0,0-1.67.78Z" transform="translate(-597.58 -300.6)"/><path class="cls-5" d="M618.64,419.9a4.67,4.67,0,0,1,1-1.75,5,5,0,0,1,1.6-1.24,4.06,4.06,0,0,1,2-.48,3.45,3.45,0,0,1,1.92.59,7.32,7.32,0,0,0-1.87.05,5.51,5.51,0,0,0-1.67.57,8.41,8.41,0,0,0-1.53,1A16.85,16.85,0,0,0,618.64,419.9Z" transform="translate(-597.58 -300.6)"/><path class="cls-5" d="M620.65,424.1a3.72,3.72,0,0,1,.8-1.49,4.45,4.45,0,0,1,1.36-1.08,4.4,4.4,0,0,1,1.66-.51,3.73,3.73,0,0,1,1.69.18c-.55.14-1.06.28-1.56.45a9.83,9.83,0,0,0-2.7,1.42C621.48,423.38,621.07,423.73,620.65,424.1Z" transform="translate(-597.58 -300.6)"/><path class="cls-5" d="M649.79,443.28a6.2,6.2,0,0,0,1.31,1.44,4.37,4.37,0,0,0,.78.47c.27.13.58.24.91.4a2.66,2.66,0,0,1,1.45,1.63,3.87,3.87,0,0,1,.12,2.08,9.13,9.13,0,0,0-.7-1.82,3.35,3.35,0,0,0-.54-.7,2.65,2.65,0,0,0-.71-.49c-.27-.14-.59-.26-.9-.45a3.56,3.56,0,0,1-.85-.65A3.33,3.33,0,0,1,649.79,443.28Z" transform="translate(-597.58 -300.6)"/><path class="cls-5" d="M652.09,441a4.24,4.24,0,0,1,4.42,1.51,4.46,4.46,0,0,1,.93,2.29,4.26,4.26,0,0,1-.4,2.36,7.37,7.37,0,0,0-.23-2.24,5.39,5.39,0,0,0-.95-1.9,4.58,4.58,0,0,0-1.62-1.31A7.06,7.06,0,0,0,652.09,441Z" transform="translate(-597.58 -300.6)"/><path class="cls-5" d="M654.49,439.2a4,4,0,0,1,4.87-.11,4.19,4.19,0,0,1,.92,1,3.79,3.79,0,0,1,.57,1.2,3.71,3.71,0,0,1-.15,2.52,5.35,5.35,0,0,0-.46-2.3,4.42,4.42,0,0,0-1.37-1.72,4.34,4.34,0,0,0-2-.79A6,6,0,0,0,654.49,439.2Z" transform="translate(-597.58 -300.6)"/><path class="cls-5" d="M661.16,436.24a2.88,2.88,0,0,1,2.8.65,3.28,3.28,0,0,1,.62.82,3.48,3.48,0,0,1,.33,1,3.73,3.73,0,0,1,.05,1,3.47,3.47,0,0,1-.66,1.8,7.74,7.74,0,0,0,0-1.8,3,3,0,0,0-.06-.42c0-.13-.06-.27-.1-.4a3.62,3.62,0,0,0-.3-.77,3.17,3.17,0,0,0-1.05-1.19A4.83,4.83,0,0,0,661.16,436.24Z" transform="translate(-597.58 -300.6)"/><path class="cls-5" d="M666,435.26a2.93,2.93,0,0,1,1.65.61,3.36,3.36,0,0,1,1.31,3.27,3.09,3.09,0,0,1-.79,1.58,7.48,7.48,0,0,0,.14-1.63,4.33,4.33,0,0,0-.3-1.47,4.43,4.43,0,0,0-.77-1.31A6.9,6.9,0,0,0,666,435.26Z" transform="translate(-597.58 -300.6)"/><path class="cls-5" d="M679,431.52a9,9,0,0,0,1.74.76,6.07,6.07,0,0,0,3.53,0,9.48,9.48,0,0,0,1.74-.74,3.86,3.86,0,0,1-1.5,1.31,4.31,4.31,0,0,1-2,.47,4.27,4.27,0,0,1-2-.5A4,4,0,0,1,679,431.52Z" transform="translate(-597.58 -300.6)"/><path class="cls-5" d="M677.65,435.44a18.1,18.1,0,0,0,1.76.73,9.72,9.72,0,0,0,1.76.47,12.17,12.17,0,0,0,1.81.16c.64,0,1.28,0,1.92-.05a5.12,5.12,0,0,1-1.85.73,5.66,5.66,0,0,1-2,0,5.51,5.51,0,0,1-1.89-.69A4.85,4.85,0,0,1,677.65,435.44Z" transform="translate(-597.58 -300.6)"/><path class="cls-5" d="M675.83,439.11a9.21,9.21,0,0,0,1.42,1.3,6.28,6.28,0,0,0,.78.48l.2.11.21.08a4.09,4.09,0,0,0,.42.16,6.42,6.42,0,0,0,1.79.32,10.31,10.31,0,0,0,1.92-.11,4.22,4.22,0,0,1-1.89.76,4.58,4.58,0,0,1-2.08-.19,3.47,3.47,0,0,1-.5-.2l-.46-.25a4.74,4.74,0,0,1-.82-.66A3.9,3.9,0,0,1,675.83,439.11Z" transform="translate(-597.58 -300.6)"/><path class="cls-5" d="M673.4,442.12q.66.64,1.38,1.23a10.18,10.18,0,0,0,1.48,1,10.61,10.61,0,0,0,1.62.71c.56.2,1.15.35,1.78.52a4.81,4.81,0,0,1-2,.11,5.55,5.55,0,0,1-3.39-1.85A4.55,4.55,0,0,1,673.4,442.12Z" transform="translate(-597.58 -300.6)"/><path class="cls-5" d="M713,392.82a3.49,3.49,0,0,1,.73-1.57,4.37,4.37,0,0,1,3-1.64,3.59,3.59,0,0,1,1.71.27,12.77,12.77,0,0,0-1.6.37,7.93,7.93,0,0,0-1.41.59,7.22,7.22,0,0,0-1.31.86A10.32,10.32,0,0,0,713,392.82Z" transform="translate(-597.58 -300.6)"/><path class="cls-5" d="M713.66,397a4.28,4.28,0,0,1,1.31-1.08,5.27,5.27,0,0,1,1.63-.57,5,5,0,0,1,1.72,0,4,4,0,0,1,1.61.57,12.32,12.32,0,0,0-1.63.07c-.53.07-1,.1-1.56.19a13.88,13.88,0,0,0-1.52.35Z" transform="translate(-597.58 -300.6)"/><path class="cls-5" d="M713.75,402a5.49,5.49,0,0,1,1.4-1.18,4.3,4.3,0,0,1,.88-.37,1.66,1.66,0,0,1,1.12,0,1.27,1.27,0,0,1,.51.38,2.43,2.43,0,0,1,.26.44.9.9,0,0,0,.39.49,1.32,1.32,0,0,0,.71.11,6.21,6.21,0,0,0,.86-.16,2.32,2.32,0,0,1-.76.55,1.5,1.5,0,0,1-1,.11,1.38,1.38,0,0,1-.5-.25,2.29,2.29,0,0,1-.32-.43,2,2,0,0,0-.21-.3.52.52,0,0,0-.19-.14,1.23,1.23,0,0,0-.66,0,5.64,5.64,0,0,0-.78.21C714.88,401.57,714.32,401.8,713.75,402Z" transform="translate(-597.58 -300.6)"/><path class="cls-7" d="M658.89,356.44" transform="translate(-597.58 -300.6)"/><path class="cls-5" d="M656.64,370.14a10.11,10.11,0,0,1,2.48.61c.4.15.79.32,1.18.51.19.09.37.21.56.32a6.05,6.05,0,0,1,.55.32,12.44,12.44,0,0,1,2,1.62,9,9,0,0,1,1.55,2c-.6-.58-1.22-1.14-1.88-1.67a21.63,21.63,0,0,0-2-1.45,23.08,23.08,0,0,0-2.16-1.23c-.36-.2-.74-.37-1.12-.54-.19-.1-.39-.17-.58-.25Z" transform="translate(-597.58 -300.6)"/><path class="cls-5" d="M663,373.9a17.32,17.32,0,0,0-1-2,20.72,20.72,0,0,0-1.24-1.86,18.09,18.09,0,0,0-1.44-1.71,14.9,14.9,0,0,0-1.7-1.48,14,14,0,0,1,1.87,1.31,17.5,17.5,0,0,1,1.66,1.56,22.71,22.71,0,0,1,1.49,1.76,21,21,0,0,1,1.3,1.93Z" transform="translate(-597.58 -300.6)"/><path class="cls-5" d="M661.64,370.58a15.94,15.94,0,0,1,.14-1.86c0-.31.08-.61.12-.92s.1-.6.16-.91a26.22,26.22,0,0,1,.92-3.56,20.77,20.77,0,0,1,1.45-3.36l.45-.79c.16-.26.33-.51.5-.76l.26-.38.28-.36.57-.72-.52.76-.25.37-.23.39c-.15.27-.3.52-.44.79l-.39.82a19.48,19.48,0,0,0-1.19,3.39,26.44,26.44,0,0,0-.66,3.53,8.91,8.91,0,0,1-.08.89c0,.3-.05.6-.05.89v1.77Z" transform="translate(-597.58 -300.6)"/><path class="cls-5" d="M659.57,364.6c-.44-.82-.91-1.65-1.39-2.47s-1-1.63-1.48-2.43-1-1.58-1.58-2.35l-.43-.57-.44-.55c-.15-.19-.31-.36-.47-.53s-.35-.33-.52-.49c.19.14.39.28.57.44s.35.31.51.49l.5.51.48.54c.66.72,1.22,1.46,1.81,2.22s1.14,1.52,1.7,2.3,1.09,1.56,1.62,2.36Z" transform="translate(-597.58 -300.6)"/><path class="cls-5" d="M659.05,360.72c0-.52.05-1,.11-1.56s.14-1,.23-1.5c.19-1,.42-2,.7-2.94.15-.49.29-1,.46-1.44l.24-.71.27-.7c.17-.48.38-.93.57-1.39s.42-.91.65-1.36l-.51,1.41c-.16.47-.31.94-.44,1.42l-.2.71c-.07.24-.13.49-.19.73-.13.48-.22,1-.33,1.45-.18,1-.33,2-.43,2.92,0,.49-.08,1-.1,1.47v1.43Z" transform="translate(-597.58 -300.6)"/><path class="cls-5" d="M659.07,359.33c-.13-.47-.27-.95-.43-1.42s-.32-1-.5-1.42-.39-.91-.61-1.36l-.19-.32c-.06-.11-.13-.21-.2-.32a3.25,3.25,0,0,0-.23-.29l-.27-.26c.11.06.21.14.32.21l.28.26.26.29.24.29a13.62,13.62,0,0,1,.86,1.28c.27.43.51.88.76,1.34s.46.9.68,1.38Z" transform="translate(-597.58 -300.6)"/><path class="cls-5" d="M659.63,348.37a17.09,17.09,0,0,0-.09,1.75v1.75c0,1.17.08,2.33.15,3.49.16,2.33.35,4.65.65,7,.09.57.17,1.16.27,1.7s.24,1.1.39,1.64c.29,1.09.65,2.17,1,3.27.21.53.41,1.06.66,1.6s.44,1.06.65,1.58a28.89,28.89,0,0,0,1.65,3.05l-.11.1a13,13,0,0,1-2.41-2.62,16.15,16.15,0,0,1-.93-1.54c-.29-.52-.55-1.06-.8-1.6a18.75,18.75,0,0,1-1.2-3.42l-.1-.44-.09-.44c-.06-.31-.09-.61-.13-.91-.07-.62-.09-1.2-.13-1.79-.06-1.17-.14-2.35-.17-3.53s0-2.35,0-3.53.07-2.35.14-3.53a29.32,29.32,0,0,1,.42-3.5Z" transform="translate(-597.58 -300.6)"/><path class="cls-5" d="M618.87,403.69c0,.16-.09.32-.13.47l-.29.1-.78.26-.19.06c-.43.11-.85.22-1.31.3l-.65.12-.88.11c-.43,0-.87.05-1.31.05-.74,0-1.47,0-2.2-.1s-1.46-.14-2.18-.24-1.44-.26-2.15-.42a26.38,26.38,0,0,1-4.14-1.36l0-.1a30.06,30.06,0,0,0,4.2,1c.71.1,1.42.19,2.13.24s1.42.1,2.13.1a16.79,16.79,0,0,0,2.13-.09l2.13-.17,1.55-.12.58-.05h.29Z" transform="translate(-597.58 -300.6)"/><path class="cls-5" d="M618.57,404.46a22.11,22.11,0,0,0-7.41,8.8,22.36,22.36,0,0,1,7-9.3Z" transform="translate(-597.58 -300.6)"/><path class="cls-5" d="M633.57,397a3.75,3.75,0,0,1-1-.6l-.22-.18-.21-.2a4.09,4.09,0,0,1-.39-.44,5.72,5.72,0,0,1-.32-.48l-.3-.49c-.22-.31-.43-.65-.66-.94a8.85,8.85,0,0,1-.6-1c-.08-.17-.18-.34-.25-.52s-.15-.35-.22-.53-.13-.37-.18-.55-.09-.38-.14-.56a11.16,11.16,0,0,1-.16-1.14h0a10.69,10.69,0,0,1,.43,1.06c.08.17.14.35.21.52s.13.35.21.52c.26.71.56,1.39.86,2.09a5.87,5.87,0,0,0,.57,1l.18.22.2.21c.06.07.26.26.4.39.52.54,1,1.08,1.57,1.61Z" transform="translate(-597.58 -300.6)"/><path class="cls-5" d="M621.43,397a4,4,0,0,0-.95-1.21l-.3-.24-.32-.29-.6-.57a4.32,4.32,0,0,1-.54-.66,5.58,5.58,0,0,1-.43-.71,5.71,5.71,0,0,1-.28-.79,2.93,2.93,0,0,1-.13-.83h0l.77,1.43.36.72.19.34.2.36a2,2,0,0,0,.51.61,1.45,1.45,0,0,0,.34.2l.2.09.18.11a1.15,1.15,0,0,1,.33.29l.14.16.12.19a1.42,1.42,0,0,1,.2.83Z" transform="translate(-597.58 -300.6)"/><path class="cls-5" d="M652.29,348.49c.29.39.52.76.77,1.13l.37.55c.12.18.26.36.39.56a1.83,1.83,0,0,1-.66-.35,2.68,2.68,0,0,1-.47-.54,2.62,2.62,0,0,1-.32-.65A2.07,2.07,0,0,1,652.29,348.49Z" transform="translate(-597.58 -300.6)"/><path class="cls-5" d="M653.21,348.26a4.85,4.85,0,0,1,.55.65l.23.33.27.34a.73.73,0,0,1-.48-.1,1.23,1.23,0,0,1-.35-.33,1.4,1.4,0,0,1-.2-.43A1,1,0,0,1,653.21,348.26Z" transform="translate(-597.58 -300.6)"/><path class="cls-5" d="M660.24,341.1c0,.65,0,1.26,0,1.87a6.85,6.85,0,0,0,0,.91,7.5,7.5,0,0,0,.15.93A2.06,2.06,0,0,1,660,344a3.55,3.55,0,0,1-.14-1,5.2,5.2,0,0,1,.09-1A3.35,3.35,0,0,1,660.24,341.1Z" transform="translate(-597.58 -300.6)"/><path class="cls-5" d="M671.1,358c-.15.34-.31.66-.47,1l-.51.93-.5.93c-.17.31-.33.65-.52.94a4.45,4.45,0,0,1,.23-1.07,6.28,6.28,0,0,1,.43-1,7.82,7.82,0,0,1,.6-.9A4,4,0,0,1,671.1,358Z" transform="translate(-597.58 -300.6)"/><path class="cls-5" d="M662.93,372.31a9.57,9.57,0,0,1,.11-1.6,14,14,0,0,1,.28-1.57,13.59,13.59,0,0,1,.45-1.54,5.88,5.88,0,0,1,.74-1.43c-.18.51-.3,1-.43,1.52s-.25,1-.36,1.54C663.47,370.26,663.25,371.29,662.93,372.31Z" transform="translate(-597.58 -300.6)"/><path class="cls-5" d="M664.21,374.67a14.27,14.27,0,0,1,.07-2c.05-.65.15-1.3.25-1.93a17.49,17.49,0,0,1,.45-1.9,7.36,7.36,0,0,1,.75-1.81c-.19.66-.31,1.25-.44,1.88s-.25,1.27-.35,1.91C664.71,372.13,664.5,373.4,664.21,374.67Z" transform="translate(-597.58 -300.6)"/><path class="cls-5" d="M664.21,377a3.69,3.69,0,0,1-.66.39,6.07,6.07,0,0,1-.7.29,5.9,5.9,0,0,1-.72.2,4,4,0,0,1-.77.09,3.69,3.69,0,0,1,.66-.39,6,6,0,0,1,1.42-.49A4.91,4.91,0,0,1,664.21,377Z" transform="translate(-597.58 -300.6)"/><path class="cls-5" d="M662.93,375.4a2.91,2.91,0,0,1-1.06-.11,5.06,5.06,0,0,1-1-.39,6.47,6.47,0,0,1-.89-.58l-.4-.35c-.12-.13-.23-.26-.34-.4.16.07.31.16.47.24l.45.24.9.49.91.45A7.49,7.49,0,0,0,662.93,375.4Z" transform="translate(-597.58 -300.6)"/><path class="cls-5" d="M673.31,448.59c-.25.38-.5.7-.76,1s-.53.65-.81,1a24.53,24.53,0,0,1-1.7,1.82,31.41,31.41,0,0,1-3.81,3.19,25,25,0,0,1-4.29,2.46,22.45,22.45,0,0,1-4.67,1.55,22.55,22.55,0,0,0,4.54-1.82,25.37,25.37,0,0,0,4.05-2.68,30.8,30.8,0,0,0,3.51-3.34c.54-.6,1-1.22,1.54-1.86.25-.32.48-.65.71-1s.46-.66.65-1Z" transform="translate(-597.58 -300.6)"/><path class="cls-5" d="M672.1,452.93a8.74,8.74,0,0,1-.08-1.14,6.18,6.18,0,0,1,.07-1.14c.07-.38.09-.76.16-1.14s.15-.74.26-1.12l.37.31c-.4.23-.81.43-1.22.66a10.61,10.61,0,0,1-1.26.54,5.66,5.66,0,0,1-.66.24l-.65.23-.65.21-.66.18a15.57,15.57,0,0,1-2.7.47,9.68,9.68,0,0,1-2.74-.15,15,15,0,0,0,2.68-.23,23.31,23.31,0,0,0,2.62-.65c.85-.25,1.7-.55,2.53-.88.42-.16.83-.33,1.24-.51l1.22-.55.57-.28-.19.59c-.12.34-.23.7-.32,1.06s-.19.73-.27,1.09-.15.74-.21,1.1A10.17,10.17,0,0,0,672.1,452.93Z" transform="translate(-597.58 -300.6)"/><path class="cls-5" d="M672.09,459.3a8.69,8.69,0,0,1-1-2.06,10.81,10.81,0,0,1-.45-2.25,14.72,14.72,0,0,1,0-2.3,13.47,13.47,0,0,1,.35-2.29l.42.34c-.45.22-.92.41-1.38.59s-.94.34-1.43.49a12.35,12.35,0,0,1-1.46.34,8.44,8.44,0,0,1-1.5.13,13.81,13.81,0,0,0,1.44-.37c.47-.15.93-.31,1.39-.5l1.36-.57a14.4,14.4,0,0,0,1.3-.66l.56-.29-.14.65a17.78,17.78,0,0,0-.32,2.19,18.07,18.07,0,0,0,0,2.21,13.6,13.6,0,0,0,.25,2.21A12.28,12.28,0,0,0,672.09,459.3Z" transform="translate(-597.58 -300.6)"/><path class="cls-5" d="M669.86,452c-.09.51-.22,1-.35,1.49s-.26,1-.39,1.45l-.42,1.44c-.16.47-.29,1-.48,1.45a6.7,6.7,0,0,1,0-1.55,8.61,8.61,0,0,1,.31-1.51,10.46,10.46,0,0,1,.53-1.45A6.83,6.83,0,0,1,669.86,452Z" transform="translate(-597.58 -300.6)"/><path class="cls-5" d="M667.52,454.24c-.29.48-.55,1-.79,1.45s-.48,1-.69,1.45-.42,1-.6,1.51a2.5,2.5,0,0,0-.15.38l-.15.38c-.1.26-.18.53-.31.79,0-.29,0-.57,0-.85s.07-.56.12-.83a9,9,0,0,1,.51-1.62,7.65,7.65,0,0,1,.84-1.47A5.1,5.1,0,0,1,667.52,454.24Z" transform="translate(-597.58 -300.6)"/><path class="cls-5" d="M668.59,452.93a11,11,0,0,1-1.63.85,17.92,17.92,0,0,1-1.72.66,13.72,13.72,0,0,1-1.79.43l-.46.06a1.79,1.79,0,0,0-.46,0,3.62,3.62,0,0,1-.93-.07,16.93,16.93,0,0,0,1.72-.5c.58-.2,1.15-.38,1.72-.56s1.16-.35,1.75-.51A18,18,0,0,1,668.59,452.93Z" transform="translate(-597.58 -300.6)"/><path class="cls-5" d="M666,455.48a8.14,8.14,0,0,1-1.42.62,9.63,9.63,0,0,1-1.5.36,9.92,9.92,0,0,1-1.54.15,6.63,6.63,0,0,1-1.54-.13c.5-.15,1-.25,1.5-.35s1-.18,1.47-.27,1-.17,1.5-.23A15.24,15.24,0,0,1,666,455.48Z" transform="translate(-597.58 -300.6)"/><path class="cls-5" d="M671.62,444.27a7.21,7.21,0,0,1-1.72,1.49,12.07,12.07,0,0,1-2,1.06l-.53.21c-.18.07-.36.12-.55.18a9.72,9.72,0,0,1-1.09.3c-.36.1-.74.14-1.11.21a8.75,8.75,0,0,1-1.14.09c.36-.15.71-.26,1.06-.39l.53-.19.53-.18c.69-.25,1.38-.52,2.06-.8s1.35-.58,2-.91A20.69,20.69,0,0,0,671.62,444.27Z" transform="translate(-597.58 -300.6)"/><path class="cls-5" d="M675.42,448.47a2.08,2.08,0,0,1,.22.65,3.66,3.66,0,0,1,0,.66,2.84,2.84,0,0,1-.1.65,2,2,0,0,1-.27.65,2.36,2.36,0,0,1-.21-.65,3.53,3.53,0,0,1,0-.65,3.74,3.74,0,0,1,.09-.66A2.1,2.1,0,0,1,675.42,448.47Z" transform="translate(-597.58 -300.6)"/><path class="cls-5" d="M677.05,454.4a3.5,3.5,0,0,1,.41.82,6.18,6.18,0,0,1,.27.83c.06.28.11.56.15.86a8.89,8.89,0,0,1,.07.89,2.13,2.13,0,0,1-.53-.76,6,6,0,0,1-.3-.84,6.58,6.58,0,0,1-.13-.89A3.49,3.49,0,0,1,677.05,454.4Z" transform="translate(-597.58 -300.6)"/><path class="cls-5" d="M678.07,455.37a1,1,0,0,1,.35.3,1,1,0,0,1,.19.34,1.17,1.17,0,0,1,.08.37,1.62,1.62,0,0,1,0,.44.72.72,0,0,1-.42-.24,1.38,1.38,0,0,1-.22-.35,1.41,1.41,0,0,1-.07-.41A1.17,1.17,0,0,1,678.07,455.37Z" transform="translate(-597.58 -300.6)"/><path class="cls-5" d="M682,442.24a13.5,13.5,0,0,0-.16,2.46,11.5,11.5,0,0,0,1.13,4.68,9.29,9.29,0,0,0,.57,1.08c.09.19.22.35.32.53s.23.35.34.53l-.47-.42c-.15-.14-.3-.3-.44-.46a9.69,9.69,0,0,1-.75-1,7.82,7.82,0,0,1-1-2.37c0-.21-.1-.42-.13-.65l-.08-.66v-1.31A6.86,6.86,0,0,1,682,442.24Z" transform="translate(-597.58 -300.6)"/><path class="cls-5" d="M685.43,445a20.92,20.92,0,0,1,1,2c.16.32.31.66.47,1s.35.62.57.95a2.45,2.45,0,0,1-1-.65,3.77,3.77,0,0,1-.65-1,4.3,4.3,0,0,1-.36-1.1A4,4,0,0,1,685.43,445Z" transform="translate(-597.58 -300.6)"/><path class="cls-5" d="M683.27,440.54a1.11,1.11,0,0,1,.43.15,1.81,1.81,0,0,1,.3.25,1.29,1.29,0,0,1,.18.35,1.17,1.17,0,0,1,.06.45.92.92,0,0,1-.43-.15,1.08,1.08,0,0,1-.3-.26,1.41,1.41,0,0,1-.19-.34A1,1,0,0,1,683.27,440.54Z" transform="translate(-597.58 -300.6)"/><path class="cls-5" d="M671.93,435.06c.51-.33,1-.65,1.53-.93l1.53-.85,1.54-.86,1.54-.88a7.16,7.16,0,0,1-1.27,1.31,11.54,11.54,0,0,1-1.51,1,13.3,13.3,0,0,1-1.62.76A9.49,9.49,0,0,1,671.93,435.06Z" transform="translate(-597.58 -300.6)"/><path class="cls-5" d="M673,439.71a3.66,3.66,0,0,1,.79-.33,5.62,5.62,0,0,1,.77-.23l.76-.21a7.66,7.66,0,0,0,.8-.23,1.57,1.57,0,0,1-.59.66,2.76,2.76,0,0,1-.81.35,3.56,3.56,0,0,1-.86.11A2.52,2.52,0,0,1,673,439.71Z" transform="translate(-597.58 -300.6)"/><path class="cls-5" d="M671.06,381.7a14,14,0,0,1,.41-1.44c.15-.48.33-.95.52-1.42a19.49,19.49,0,0,1,1.36-2.7,10.92,10.92,0,0,1,1.81-2.46l.57-.52c.2-.16.4-.31.61-.45l.31-.23.34-.18.69-.34.05.07c-.66.77-1.36,1.45-2,2.21-.17.17-.31.37-.47.56l-.24.27a3.11,3.11,0,0,0-.23.28l-.47.55-.45.6a21.4,21.4,0,0,0-1.53,2.52,20.59,20.59,0,0,0-1.22,2.71Z" transform="translate(-597.58 -300.6)"/><path class="cls-5" d="M654.17,435.67a1.16,1.16,0,0,1,.33.4,1.54,1.54,0,0,1,.08.19.81.81,0,0,1,0,.22,1.47,1.47,0,0,0-.11.46.51.51,0,0,0,.2.38,2.35,2.35,0,0,1,.3.33,1.67,1.67,0,0,0,.12.16.83.83,0,0,1,.09.16,2.06,2.06,0,0,1,.12.35,1.15,1.15,0,0,0,.06.21l.08.24,0,.07a.71.71,0,0,1-.29,0,1.07,1.07,0,0,1-.27-.09,1.25,1.25,0,0,1-.41-.35.65.65,0,0,1-.11-.22,1.05,1.05,0,0,1-.06-.24.69.69,0,0,1,0-.25,1,1,0,0,1,0-.25.9.9,0,0,0,0-.46c-.07-.13-.22-.25-.31-.39a.7.7,0,0,1,0-.45.85.85,0,0,1,.22-.48Z" transform="translate(-597.58 -300.6)"/><path class="cls-5" d="M641.75,438.42l1.59-1.2c.52-.41,1-.84,1.53-1.26a15.15,15.15,0,0,0,1.46-1.31,13,13,0,0,0,1.21-1.58c.38-.56.76-1.11,1.17-1.64s.81-1.06,1.24-1.56a33.08,33.08,0,0,1,2.78-2.9h0c-.8,1.08-1.63,2.12-2.47,3.14L649,431.64c-.42.52-.85,1-1.31,1.53l-1.3,1.53-.66.77c-.22.25-.45.5-.65.74a11.11,11.11,0,0,1-1.57,1.26,11.68,11.68,0,0,1-1.76,1Z" transform="translate(-597.58 -300.6)"/><path class="cls-5" d="M650.35,430.79a3.39,3.39,0,0,1,.38-.53,4,4,0,0,1,.47-.45,6.37,6.37,0,0,0,.55-.35,2.85,2.85,0,0,0,.45-.47,5,5,0,0,1,.42-.5,4.89,4.89,0,0,1,.46-.45,4.68,4.68,0,0,1,1.09-.72h0a5.4,5.4,0,0,1-.82,1l-.5.41a2.8,2.8,0,0,1-.53.37,4,4,0,0,0-.51.41c-.15.15-.26.35-.4.51a2.79,2.79,0,0,1-.49.42,2.33,2.33,0,0,1-.57.34Z" transform="translate(-597.58 -300.6)"/><path class="cls-5" d="M650.51,432.52a4.24,4.24,0,0,1,.46-.65,4,4,0,0,1,.55-.54c.21-.16.44-.29.65-.46a3.59,3.59,0,0,0,.52-.58c.16-.2.32-.4.5-.59s.35-.38.54-.55a7.12,7.12,0,0,1,1.25-.93h0a8,8,0,0,1-1,1.21c-.18.18-.38.35-.58.52a5.87,5.87,0,0,1-.61.48,3.07,3.07,0,0,0-.58.5c-.18.19-.32.42-.49.61a4.11,4.11,0,0,1-.57.53,4.07,4.07,0,0,1-.65.43Z" transform="translate(-597.58 -300.6)"/><path class="cls-5" d="M650.68,435.1a6.85,6.85,0,0,1,.58-.83,7.7,7.7,0,0,1,.66-.75c.24-.22.53-.43.76-.65a6.79,6.79,0,0,0,.65-.77,7,7,0,0,1,.66-.8c.25-.25.43-.51.65-.75a13,13,0,0,1,1.52-1.35h0a11.24,11.24,0,0,1-1.23,1.61c-.23.25-.46.49-.7.73a7.59,7.59,0,0,1-.75.65,6,6,0,0,0-.72.71c-.22.25-.4.55-.61.81a6,6,0,0,1-.7.73,7.07,7.07,0,0,1-.78.65Z" transform="translate(-597.58 -300.6)"/><path class="cls-5" d="M651.52,435.72a6.65,6.65,0,0,1,.65-.65,9.24,9.24,0,0,1,.73-.66,8.47,8.47,0,0,0,.76-.58,4.15,4.15,0,0,0,.66-.73l.55-.79.56-.77c.38-.51.75-1,1.18-1.51h0a6.81,6.81,0,0,1-.87,1.75c-.19.26-.39.52-.6.76a8.57,8.57,0,0,1-.69.66c-.25.21-.49.44-.7.65s-.42.51-.66.75a5.55,5.55,0,0,1-.75.61,4.79,4.79,0,0,1-.86.47Z" transform="translate(-597.58 -300.6)"/><path class="cls-5" d="M647.1,440.73a2,2,0,0,1,.21-.5,2.59,2.59,0,0,1,.32-.42c.13-.13.29-.23.41-.36a1.6,1.6,0,0,0,.29-.44,2,2,0,0,1,.27-.47,3.19,3.19,0,0,1,.32-.43,3.46,3.46,0,0,1,.82-.7h0a3.52,3.52,0,0,1-.52.95,3.25,3.25,0,0,1-.35.39,2.79,2.79,0,0,1-.4.37,1.9,1.9,0,0,0-.36.39c-.1.15-.16.33-.24.48a1.9,1.9,0,0,1-.34.41,1.7,1.7,0,0,1-.43.33Z" transform="translate(-597.58 -300.6)"/><path class="cls-5" d="M646.08,437.91a1.91,1.91,0,0,1,.23-.45,2.17,2.17,0,0,1,.32-.36c.13-.1.29-.17.4-.27a1.85,1.85,0,0,0,.3-.39,2.57,2.57,0,0,1,.26-.41c.1-.13.2-.25.31-.37a3,3,0,0,1,.81-.56h0a3.43,3.43,0,0,1-.51.84,2.73,2.73,0,0,1-.35.33,2.19,2.19,0,0,1-.39.29,1.59,1.59,0,0,0-.36.32c-.1.14-.16.29-.25.43a1.61,1.61,0,0,1-.34.35,1.79,1.79,0,0,1-.42.25Z" transform="translate(-597.58 -300.6)"/><path class="cls-5" d="M672.32,399.1c-.14.66-.29,1.31-.41,2s-.22,1.3-.33,2a16.12,16.12,0,0,0-.23,2,14.34,14.34,0,0,0,.13,2c.08.65.15,1.31.19,2s.07,1.31.09,2a33.39,33.39,0,0,1-.21,4h0c-.11-1.31-.16-2.66-.2-4l0-2v-5c0-.35,0-.66,0-1a11.86,11.86,0,0,1,.36-2,10.59,10.59,0,0,1,.66-1.89Z" transform="translate(-597.58 -300.6)"/><path class="cls-5" d="M670.22,409.78a2.9,2.9,0,0,1,.14.65,3.64,3.64,0,0,1,0,.66c0,.21-.09.43-.11.65a2.94,2.94,0,0,0,0,.66,4.62,4.62,0,0,1,.08.65v.65a5.25,5.25,0,0,1-.19,1.31h-.05a5.25,5.25,0,0,1-.19-1.31v-.65a4.62,4.62,0,0,1,.08-.65,2.94,2.94,0,0,0,.05-.66,5.52,5.52,0,0,0-.11-.65,3.64,3.64,0,0,1,0-.66,2.9,2.9,0,0,1,.14-.65Z" transform="translate(-597.58 -300.6)"/><path class="cls-5" d="M668.83,408.73a4.18,4.18,0,0,1,.17.78,5,5,0,0,1,0,.77c0,.25-.08.51-.08.77a3.94,3.94,0,0,0,.07.77,6.48,6.48,0,0,1,.09.77,6.78,6.78,0,0,1,0,.77,7.35,7.35,0,0,1-.16,1.55h0a7.87,7.87,0,0,1-.24-1.53v-.78c0-.26,0-.52.06-.77a3.3,3.3,0,0,0,0-.77,7,7,0,0,0-.12-.78,3.3,3.3,0,0,1,0-.77,4.19,4.19,0,0,1,.11-.78Z" transform="translate(-597.58 -300.6)"/><path class="cls-5" d="M666.82,407.12a6.73,6.73,0,0,1,.22,1,8.47,8.47,0,0,1,.1,1,8.68,8.68,0,0,0,0,1,5.59,5.59,0,0,0,.13,1c.06.33.12.66.16,1s.08.65.1,1a11.47,11.47,0,0,1,0,2h0a11.23,11.23,0,0,1-.36-2c0-.34,0-.66-.06-1s0-.65,0-1a5.68,5.68,0,0,0,0-1c0-.33-.13-.65-.19-1a8.4,8.4,0,0,1-.07-1,8.72,8.72,0,0,1,.06-1Z" transform="translate(-597.58 -300.6)"/><path class="cls-5" d="M665.8,407.33c0,.33,0,.65.05,1s0,.63,0,.95-.07.64-.08,1a4.49,4.49,0,0,0,.11,1c.07.31.14.62.2.93l.21.94c.11.62.23,1.24.31,1.89h0a7,7,0,0,1-.71-1.82c-.06-.32-.12-.64-.15-1a6.43,6.43,0,0,1,0-1,7.69,7.69,0,0,0,0-1c0-.33-.1-.66-.12-1a5.26,5.26,0,0,1,0-1,4.54,4.54,0,0,1,.23-.95Z" transform="translate(-597.58 -300.6)"/><path class="cls-5" d="M665.08,400.67a2.32,2.32,0,0,1,.33,1,3.25,3.25,0,0,0,0,.54,1.91,1.91,0,0,0,.14.52,4.32,4.32,0,0,1,.16.51,4.51,4.51,0,0,1,.1.53,3.5,3.5,0,0,1,0,1.07h0a3.33,3.33,0,0,1-.35-1,4.35,4.35,0,0,1-.06-.52,4.68,4.68,0,0,1,0-.53,1.57,1.57,0,0,0,0-.53c0-.18-.14-.34-.19-.51a2.34,2.34,0,0,1-.08-.53,2.56,2.56,0,0,1,0-.55Z" transform="translate(-597.58 -300.6)"/><path class="cls-5" d="M667.85,401.83a1.43,1.43,0,0,1,.18.47,2,2,0,0,1,.05.48c0,.16-.07.33-.07.48a1.28,1.28,0,0,0,.09.48,2.47,2.47,0,0,1,.11.47,4,4,0,0,1,.07.48,3.15,3.15,0,0,1-.12,1h0a2.77,2.77,0,0,1-.28-.94,3.84,3.84,0,0,1,0-.48,2.63,2.63,0,0,1,0-.49,1.93,1.93,0,0,0,0-.48,2.14,2.14,0,0,0-.15-.47,1.93,1.93,0,0,1,0-.48,1.64,1.64,0,0,1,.1-.49Z" transform="translate(-597.58 -300.6)"/><path class="cls-4" d="M664.33,403.17a7.58,7.58,0,0,0-1.05-4.07c-1.14-1.63-.49-2.68-.49-2.68" transform="translate(-597.58 -300.6)"/><path class="cls-4" d="M672.35,404.75s-.71-1.52,1.11-3.93,2.67-4,1.68-5.42" transform="translate(-597.58 -300.6)"/><path class="cls-5" d="M700,399.48a3.45,3.45,0,0,1-.34-.73,3.17,3.17,0,0,1-.19-.78,3.64,3.64,0,0,0-.06-.81,3.42,3.42,0,0,0-.23-.77,6.92,6.92,0,0,1-.28-.76c-.07-.25-.16-.51-.21-.77a6.29,6.29,0,0,1-.12-1.62h.07a6.24,6.24,0,0,1,.59,1.5,9.14,9.14,0,0,1,.23,1.59,3.43,3.43,0,0,0,.12.79c.08.27.22.51.31.76a3.38,3.38,0,0,1,.16.78,3.75,3.75,0,0,1,0,.82Z" transform="translate(-597.58 -300.6)"/><path class="cls-5" d="M701.93,400.29a6.28,6.28,0,0,1-.66-1.81c0-.32,0-.65-.11-1a5.67,5.67,0,0,0-.29-.91,6.94,6.94,0,0,1-.34-.9c-.1-.31-.2-.61-.27-.92a8.85,8.85,0,0,1-.24-1.92h0a8.26,8.26,0,0,1,.72,1.8,7.36,7.36,0,0,1,.21.93,7.67,7.67,0,0,1,.15,1,5.19,5.19,0,0,0,.18.94c.1.3.25.59.37.89a4.84,4.84,0,0,1,.22.93,5.22,5.22,0,0,1,.08,1Z" transform="translate(-597.58 -300.6)"/><path class="cls-5" d="M704.8,401.59a6.65,6.65,0,0,1-.55-1.14c-.07-.19-.15-.38-.21-.58s-.13-.4-.18-.6c-.1-.41-.14-.83-.25-1.23a9.53,9.53,0,0,0-.41-1.17c-.17-.38-.34-.77-.48-1.16s-.28-.78-.4-1.17a15,15,0,0,1-.52-2.46h0a14.78,14.78,0,0,1,1,2.31c.13.39.24.79.34,1.2s.21.8.28,1.21a8.32,8.32,0,0,0,.33,1.21c.14.4.35.77.5,1.15a4.56,4.56,0,0,1,.2.59c.06.2.12.4.16.6a7.61,7.61,0,0,1,.22,1.25Z" transform="translate(-597.58 -300.6)"/><path class="cls-5" d="M621.16,386.7a11.44,11.44,0,0,1,.81-2.61,14.2,14.2,0,0,1,3.11-4.48,11.65,11.65,0,0,1,2.16-1.67,26.3,26.3,0,0,0-1.87,2c-.29.34-.58.66-.85,1s-.54.7-.79,1.07a23.07,23.07,0,0,0-1.4,2.27C621.9,385.06,621.52,385.87,621.16,386.7Z" transform="translate(-597.58 -300.6)"/><path class="cls-5" d="M609.17,391.52c.42-1.78.93-3.54,1.5-5.27s1.26-3.43,2-5.1a58,58,0,0,1,12.54-17.87c1.31-1.27,2.69-2.48,4.12-3.62a51.47,51.47,0,0,1,4.44-3.2c-1.46,1.09-2.91,2.2-4.28,3.39s-2.72,2.42-4,3.71a64.85,64.85,0,0,0-7,8.36c-1,1.48-2,3-2.93,4.57s-1.77,3.18-2.55,4.82-1.49,3.31-2.13,5S609.72,389.77,609.17,391.52Z" transform="translate(-597.58 -300.6)"/><path class="cls-5" d="M620.91,370.72a42.68,42.68,0,0,1,4.33-5.51,43.23,43.23,0,0,1,5.16-4.78c.91-.74,1.86-1.42,2.83-2.09a29.61,29.61,0,0,1,3-1.84,42.19,42.19,0,0,1,6.36-2.95,64.75,64.75,0,0,0-6.16,3.27,56.14,56.14,0,0,0-5.71,4c-.23.18-.45.36-.65.54l-.66.56c-.44.38-.88.76-1.31,1.15s-.85.78-1.3,1.17-.84.81-1.25,1.23A68,68,0,0,0,620.91,370.72Z" transform="translate(-597.58 -300.6)"/><path class="cls-5" d="M616,427a32.19,32.19,0,0,0,1.31,3.92c.26.65.54,1.26.84,1.87s.66,1.21,1,1.79a26.72,26.72,0,0,0,2.36,3.33,30.77,30.77,0,0,0,2.84,3,19.09,19.09,0,0,1-4.47-4.32,16.83,16.83,0,0,1-1.16-1.73,19.4,19.4,0,0,1-1.76-3.78A18.28,18.28,0,0,1,616,427Z" transform="translate(-597.58 -300.6)"/><path class="cls-5" d="M627.58,446.55l-.66-.55c-.54-.46-1.07-.92-1.59-1.39s-1-1-1.53-1.46c-1-1-2-2-2.88-3.1s-1.82-2.19-2.7-3.3a27.07,27.07,0,0,0,2.34,3.57,32.59,32.59,0,0,0,6.07,6c.25.2.52.39.78.57Z" transform="translate(-597.58 -300.6)"/><path class="cls-5" d="M684.48,458.37c.65-.28,1.31-.54,2-.81s1.31-.53,1.91-.82c.32-.14.65-.29.95-.44s.65-.3.94-.44c.65-.31,1.25-.66,1.89-.93a11.57,11.57,0,0,1-1.7,1.27,15.28,15.28,0,0,1-1.87,1,15.45,15.45,0,0,1-2,.74A11.9,11.9,0,0,1,684.48,458.37Z" transform="translate(-597.58 -300.6)"/><path class="cls-5" d="M698.51,456.21c1.64-1.08,3.27-2.21,4.77-3.42.77-.61,1.52-1.22,2.26-1.87s1.45-1.31,2.15-2a55.79,55.79,0,0,0,4-4.28c1.26-1.49,2.44-3.05,3.57-4.65a38,38,0,0,1-3.27,4.9c-.6.79-1.24,1.53-1.9,2.27s-1.34,1.44-2.05,2.13a44.24,44.24,0,0,1-4.52,3.79A38.55,38.55,0,0,1,698.51,456.21Z" transform="translate(-597.58 -300.6)"/><path class="cls-5" d="M696.51,355.57c1.31.73,2.55,1.53,3.78,2.36s2.41,1.75,3.57,2.68,2.28,1.92,3.36,2.94,2.11,2.11,3.12,3.21,2,2.26,2.86,3.43,1.78,2.4,2.62,3.65,1.58,2.52,2.3,3.82a41.13,41.13,0,0,1,2,4c-.7-1.3-1.42-2.61-2.19-3.87s-1.57-2.52-2.41-3.73a69.64,69.64,0,0,0-11.87-13.15q-1.68-1.44-3.47-2.78c-.59-.45-1.19-.88-1.8-1.3S697.13,356,696.51,355.57Z" transform="translate(-597.58 -300.6)"/></svg>