<svg id="Livello_1" data-name="Livello 1" xmlns="http://www.w3.org/2000/svg" xmlns:xlink="http://www.w3.org/1999/xlink" viewBox="0 0 89.99 119.17"><defs><style>.cls-1{fill:none;}.cls-2{clip-path:url(#clip-path);}.cls-3{fill:#cc0b36;}</style><clipPath id="clip-path" transform="translate(-204.87 -175.47)"><rect class="cls-1" x="204.83" y="175.24" width="90.33" height="91.06"/></clipPath></defs><g class="cls-2"><path class="cls-3" d="M236.14,239.31c6.75-10.1,21.11-22.59,21.11-22.59s3.88-3.58,8.61-3.58,5.6-1.37,5.6-1.37l5.92-5.93a248.19,248.19,0,0,0,17.38-19.66.44.44,0,0,0-.63-.6c-5.57,4.84-17.66,17.78-17.66,17.78s-1.28,1.24-2.39.53.43-2.63.43-2.63c9.67-9.36,14.52-15.16,16.76-18.12a.44.44,0,0,0-.63-.61c-7.5,6.18-15.79,15.71-17.57,17.22-2,1.66-2.87.45-2.87.45s-1.21-.91.45-2.88c1.51-1.78,11-10.09,17.17-17.61a.44.44,0,0,0-.61-.63c-2.95,2.24-8.74,7.1-18.07,16.8,0,0-1.91,1.54-2.62.43s.53-2.4.53-2.4,12.91-12.13,17.74-17.7a.44.44,0,0,0-.61-.64A248.33,248.33,0,0,0,264.58,193l-5.92,5.94s-1.36.86-1.36,5.61-3.58,8.63-3.58,8.63-12.44,14.41-22.52,21.18-10.93,12-13.1,13.43-9,5-11.43,7.33-2.37,6,0,8.79c2.77,2.38,6.45,2.43,8.77,0s5.84-9.29,7.3-11.46,6.65-3,13.4-13.14" transform="translate(-204.87 -175.47)"/></g><path class="cls-3" d="M280.14,247.67c2.32,1.47,9.78,4.91,12.32,7.33s2.19,6.61-.73,9.95c-3.32,2.91-7.49,3.27-9.91.72s-5.84-10-7.31-12.36-7.27-2.88-14.07-13.74-22-23.79-22-23.79a14.69,14.69,0,0,0-5.12-2.81c-5.8-1.05-13.34,3.21-22.11-9.3a32.39,32.39,0,0,1-4.87-9.69,19.48,19.48,0,0,1-.74-4.43,14.44,14.44,0,0,1,.52-4.64,12.45,12.45,0,0,1,.82-2.1,5.22,5.22,0,0,1,2.9-2.91,12.54,12.54,0,0,1,2.11-.83,14.27,14.27,0,0,1,4.62-.52,19.41,19.41,0,0,1,4.41.74,32.51,32.51,0,0,1,9.67,4.88c12.47,8.81,8.22,16.36,9.27,22.19a14.87,14.87,0,0,0,2.8,5.13s12.89,15.25,23.72,22.07,11.38,12.63,13.71,14.11" transform="translate(-204.87 -175.47)"/><path class="cls-3" d="M233.86,275.91a4.63,4.63,0,0,0-1.31.22.88.88,0,0,0-.54.61,5.13,5.13,0,0,0-.15,1.46v13.23a5.24,5.24,0,0,0,.15,1.48.91.91,0,0,0,.56.6,4.32,4.32,0,0,0,1.29.21v.54c-1-.05-2.37-.08-4.19-.08s-3.31,0-4.21.08v-.54a5,5,0,0,0,1.4-.21,1,1,0,0,0,.6-.6,4.76,4.76,0,0,0,.17-1.48V277.49l-6.44,16.79h-.41l-7.21-17.17v12.77a11.74,11.74,0,0,0,.16,2.32,1.59,1.59,0,0,0,.69,1.06,4.45,4.45,0,0,0,1.73.46v.54c-.7-.05-1.66-.08-2.87-.08-1,0-1.75,0-2.32.08v-.54a3,3,0,0,0,1.3-.44,1.74,1.74,0,0,0,.56-1,11.53,11.53,0,0,0,.14-2.06v-12a5.62,5.62,0,0,0-.14-1.46.93.93,0,0,0-.56-.61,4.76,4.76,0,0,0-1.3-.22v-.53c.57.06,1.34.09,2.32.09,1.63,0,3,0,4.2-.09l5.4,13,4.9-12.89h1.89c1.82,0,3.22,0,4.19-.09Z" transform="translate(-204.87 -175.47)"/><path class="cls-3" d="M250.26,290.2a37.55,37.55,0,0,0,.18,4.06c-1.2-.05-3.24-.08-6.1-.08q-5.81,0-8.69.08v-.54a4,4,0,0,0,1.27-.21.94.94,0,0,0,.57-.6,4.82,4.82,0,0,0,.16-1.48V278.2a4.72,4.72,0,0,0-.16-1.46.92.92,0,0,0-.57-.61,4.3,4.3,0,0,0-1.27-.22v-.53q2.88.09,8.69.09c2.61,0,4.46,0,5.56-.09-.12,1.48-.18,2.79-.18,3.94a13.93,13.93,0,0,0,.08,1.81h-.61a7.61,7.61,0,0,0-1.43-4,3.8,3.8,0,0,0-2.94-1.14h-1.1a3.75,3.75,0,0,0-1.19.14.81.81,0,0,0-.52.53,4,4,0,0,0-.13,1.22v6.63h.86a2.44,2.44,0,0,0,2.14-1,6.43,6.43,0,0,0,1-2.48h.63c-.06.74-.09,1.57-.09,2.5v1.27c0,.92.06,2.18.17,3.79H246c-.38-2.34-1.46-3.52-3.25-3.52h-.86v6.73A4.22,4.22,0,0,0,242,293a.84.84,0,0,0,.52.52,4.14,4.14,0,0,0,1.19.13H245a3.86,3.86,0,0,0,3-1.3,8.73,8.73,0,0,0,1.65-4.39h.62C250.28,288.55,250.26,289.3,250.26,290.2Z" transform="translate(-204.87 -175.47)"/><path class="cls-3" d="M270.12,275.91a3.05,3.05,0,0,0-1.3.45,1.66,1.66,0,0,0-.56,1,10.54,10.54,0,0,0-.14,2.05v14.89l-.65,0-.71,0-11.58-14.66v10.22a11.74,11.74,0,0,0,.16,2.32,1.59,1.59,0,0,0,.69,1.06,4.45,4.45,0,0,0,1.73.46v.54c-.7-.05-1.65-.08-2.87-.08-1,0-1.75,0-2.32.08v-.54a3,3,0,0,0,1.3-.44,1.74,1.74,0,0,0,.56-1,11.53,11.53,0,0,0,.14-2.06v-12a5.62,5.62,0,0,0-.14-1.46.93.93,0,0,0-.56-.61,4.76,4.76,0,0,0-1.3-.22v-.53c.57.06,1.34.09,2.32.09s1.65,0,2.29-.09l10.33,12.71v-8.33a11.51,11.51,0,0,0-.17-2.31,1.61,1.61,0,0,0-.7-1.07,4.5,4.5,0,0,0-1.73-.47v-.53c.69.06,1.65.09,2.89.09a23,23,0,0,0,2.32-.09Z" transform="translate(-204.87 -175.47)"/><path class="cls-3" d="M288.78,275.91a3,3,0,0,0-1.29.45,1.63,1.63,0,0,0-.57,1,10.54,10.54,0,0,0-.14,2.05v7.08a11.21,11.21,0,0,1-1.11,5.65,4.73,4.73,0,0,1-2.08,1.83,7.69,7.69,0,0,1-3.31.64,7.61,7.61,0,0,1-4.81-1.33,4.75,4.75,0,0,1-1.67-2.48,16.72,16.72,0,0,1-.42-4.25V278.2a5.62,5.62,0,0,0-.14-1.46.92.92,0,0,0-.57-.61,4.39,4.39,0,0,0-1.29-.22v-.53c.92.06,2.3.09,4.17.09s3.26,0,4.25-.09v.53a5.31,5.31,0,0,0-1.42.22,1,1,0,0,0-.6.61,5.13,5.13,0,0,0-.15,1.46v10.06a8.12,8.12,0,0,0,.81,4.12,3.09,3.09,0,0,0,2.86,1.32,4,4,0,0,0,3.75-1.79,9.92,9.92,0,0,0,1.1-5.11v-7a10.51,10.51,0,0,0-.18-2.29,1.68,1.68,0,0,0-.71-1.09,4.6,4.6,0,0,0-1.69-.47v-.53c.68.06,1.65.09,2.9.09a22.93,22.93,0,0,0,2.31-.09Z" transform="translate(-204.87 -175.47)"/></svg>