<svg id="Livello_1" data-name="Livello 1" xmlns="http://www.w3.org/2000/svg" xmlns:xlink="http://www.w3.org/1999/xlink" viewBox="0 0 431.9 654.63"><defs><style>.cls-1{fill-opacity:0.8;}.cls-2{fill:none;}.cls-3{mask:url(#mask);}.cls-4{clip-path:url(#clip-path);}.cls-5{clip-path:url(#clip-path-2);}.cls-6{fill:#cc0b36;}.cls-7{clip-path:url(#clip-path-3);}</style><mask id="mask" x="-432.1" y="-824.42" width="1296" height="2304" maskUnits="userSpaceOnUse"><g transform="translate(-324.1 -632.42)"><g id="aa8482ebfb"><rect class="cls-1" x="-108" y="-192" width="1296" height="2304"/></g></g></mask><clipPath id="clip-path" transform="translate(-324.1 -632.42)"><rect class="cls-2" x="325.33" y="634.67" width="360" height="556"/></clipPath><clipPath id="clip-path-2" transform="translate(-324.1 -632.42)"><rect class="cls-2" x="325.44" y="636" width="358.56" height="553.33"/></clipPath><clipPath id="clip-path-3" transform="translate(-324.1 -632.42)"><rect class="cls-2" x="324" y="632" width="432" height="655.82"/></clipPath></defs><g class="cls-3"><g class="cls-4"><g class="cls-5"><path class="cls-6" d="M518.1,1026.34c7.74,0-.79,16.65-8.53,19.67s-9.44.52-9.44.52a13,13,0,0,1-3.8-9.7C496.59,1030.8,510.23,1026.34,518.1,1026.34Zm-1.84-221c-24.92,7.34-189.63,31.33-189.63,31.33s-1.19-2.37,2.09-11.67c2.36-6.69,94.69-101.72,146-154.15a2.18,2.18,0,0,0,1.57,0c.4-.13.66-.79.66-1.18a1.85,1.85,0,0,0-.26-.78c18.75-19.27,31.6-32.25,31.6-32.25L525.84,724l92.72-57.41,8.65,103.55s-43.54,14-77.64,24.77c.13-.26.13-.52.27-.92a5.7,5.7,0,0,0-1.05.26,9.47,9.47,0,0,0-.53,1.06C535,799.58,523.21,803.25,516.26,805.35Zm71.21-31.2-.39-.26.13.39Zm18.1,1.44c.27.13.53.13.79.26,0-.26.13-.65,0-.65s-.52-.13-.79-.26C605.57,775.2,605.44,775.59,605.57,775.59Zm-4.46-12.32a2.24,2.24,0,0,0,.92-.13c.27-.26.53-.4.79-.66a5.34,5.34,0,0,0-1.44,0C601.24,762.61,601.24,763,601.11,763.27Zm-.78,9.83v.26l.26-.13Zm-4.46,2.75a.48.48,0,0,0,.13.39h.26a.48.48,0,0,0-.13-.39ZM593,770.22c.13,0,.26.13.4,0s.13-.27.13-.4-.27-.13-.27-.26A1,1,0,0,1,593,770.22Zm-6.42-31.33h.91a.51.51,0,0,0-.13-.4,2.07,2.07,0,0,0-.91.14C586.56,738.49,586.56,738.76,586.56,738.89Zm-.92-15.34c.13.13.13.27.26.4h.4v-.4Zm-6.43-32.37.13.26.13-.26Zm-.13,56.75.26.14-.13-.4Zm-3.8.27a1,1,0,0,0,.52-.13c0-.14,0-.4-.13-.4h-.39C575.15,747.93,575.28,748.07,575.28,748.2Zm-4.46-47.85c.26-.26.52-.39.65-.65a1.89,1.89,0,0,1-.26-.79c-.26.26-.52.39-.65.66A1.85,1.85,0,0,0,570.82,700.35Zm-2.75,4.33,2.23.39a.48.48,0,0,0,.39-.13.13.13,0,0,0,.13.13c0,.13,0,.26.13.26s.26.13.39.13l-.39-.39v-.13h-.13c-.26-1.31-1.05-1.71-2.23-1.18A3.3,3.3,0,0,0,568.07,704.68Zm-1.84,64c.13.13.26.26.4.26,0-.26.13-.39.13-.66s-.27-.26-.27-.26A.86.86,0,0,0,566.23,768.65Zm-3.54,12.58c.26,0,.52.13.78.13v-.79s-.39-.13-.39,0A.72.72,0,0,0,562.69,781.23Zm-2.36-16.13v.4l.26-.13Zm-3.54-22.93c.13.26.26.39.26.65.13,0,.26-.13.39-.13-.13-.26-.26-.39-.39-.65ZM455.28,722a1.84,1.84,0,0,1-.79.26c.14.27.14.53.27.79a1.31,1.31,0,0,0,.39-.13A2,2,0,0,0,455.28,722Zm7.35-23.59.26.13v-.39Zm.26,115.08-.26-.26v.39Zm.65-111.67a.45.45,0,0,0-.26.13v.39C463.28,702.19,463.41,702.06,463.54,701.8ZM468,684.1v-.66a.51.51,0,0,0-.4.13v.4C467.74,684,467.87,684.1,468,684.1Zm3.54,117.58a1,1,0,0,0-.13-.66,2.28,2.28,0,0,0-.92.13c-.13,0,0,.53,0,.79A6.11,6.11,0,0,1,471.54,801.68ZM471.8,706a23.08,23.08,0,0,0-.65-2.89c0-.13-.52-.26-.79-.39s-.26.26-.66.66c.27.79.53,1.83.93,2.88,0,.13.26.27.39.27C471.41,706.25,471.93,706.12,471.8,706Zm3.41-23.86L475,682v.4Zm22.82.4c.53,1,1.05,2,1.57,3,.4-.13.93-.13.93-.26.13-.65.39-1.44.13-1.84a7.86,7.86,0,0,0-2-1.31A2.93,2.93,0,0,0,498,682.53Zm-19.8,4.71c-.39.14-1.05.27-1.18.53a15.9,15.9,0,0,0,0,2.49c.52-.4.92-.4,1.05-.66C478.23,688.82,478.1,688,478.23,687.24Zm6.95-2.88a4.54,4.54,0,0,1-.13-1.18l-2,.79c-.13,0,.13.52.13.92A8.87,8.87,0,0,1,485.18,684.36Zm1.58,60.17v-.26a.5.5,0,0,0-.4.13v.26A1.07,1.07,0,0,1,486.76,744.53Zm1.31-51.39a22.72,22.72,0,0,0-.92-2.62c-.39.13-1.31.4-1.31.53,0,.78.26,1.7.39,2.75C487.28,693.41,488.2,693.28,488.07,693.14Zm2.23,49.16-.27-.13.13.39Zm.78-43.78c0-.13-.26-.13-.39-.26,0,.13-.13.26-.13.39s.13.13.26.13Zm1.32,76a.49.49,0,0,0-.4.13v.4a.51.51,0,0,0,.4-.13Zm.13-100.27h-.4v.26h.4Zm4.06,32.11-.26.14.26.13Zm2.49,74.06c-.39.13-1.05,0-1.18.26s0,.79,0,1.19a9.26,9.26,0,0,1,1.05-.27C499,781.36,499.08,780.83,499.08,780.44Zm2.23-29.36a6.14,6.14,0,0,0-.65-1.05,7.91,7.91,0,0,0-1.84.92s.26.78.39.78A10.11,10.11,0,0,1,501.31,751.08Zm1.45,2.49c-.27-.13-.4-.13-.66-.26v.39c.13,0,.26.13.39.13S502.63,753.7,502.76,753.57Zm.65,29v-.39h-.26v.26C503.15,782.67,503.28,782.54,503.41,782.54Zm.66-38.67-.4-.26V744Zm20.19,31.07a6,6,0,0,0-.92-.4c-.26.53-.65,1.05-.91,1.57,0,.13.26.4.39.53C523.21,776.11,523.74,775.59,524.26,774.94Zm2.5-19.66a8.39,8.39,0,0,1-.4-.92,7.41,7.41,0,0,0-1.05.65c-.13,0,.26.79.39.66A2.57,2.57,0,0,0,526.76,755.28Zm21.37-35h.4l-.13-.39Zm-2,70.26.27.26c.13-.13.13-.26.26-.26l-.26-.27C546.3,790.41,546.3,790.54,546.16,790.54Zm-2.36,5,.27-.13-.27-.26Zm-.52-53.75h.39l-.13-.26Zm-2.1,33.17a3.19,3.19,0,0,1,.66.39c.13-.13.26-.26.26-.39l-.79-.4C541.44,774.67,541.18,774.94,541.18,774.94Zm-3.28-37.36a1.64,1.64,0,0,0,.4.52,1.31,1.31,0,0,1,.39-.13c-.13-.26-.26-.39-.39-.65A1.84,1.84,0,0,0,537.9,737.58Zm-6,9.57c0,.13.13.26.13.39h.4a.94.94,0,0,1-.27-.52C532,746.89,531.87,747,531.87,747.15Zm-10.1,2.36h0c1.05-.4,2.1-.66,3.15-1h.26c.13,0,.13,0,.26-.13a11.7,11.7,0,0,0,2.1.26.88.88,0,0,0,.66-.52c-.27-.14-.53-.4-.79-.4-.65.13-1.44.4-2.1.53h-.26c-.13,0-.13,0-.26.13a4,4,0,0,1-1.19-.26c-1-.14-1.7.13-1.83,1.44Zm-1.31,37.22.26.26.26-.26-.26-.26ZM516,755.93c0,.13.4.26.66.39,0-.78.13-1.44.13-2.23h-.66A8.82,8.82,0,0,0,516,755.93Zm-5.64,38.54-.39-.27.13.4Zm.27-56.37c-.4-.13-.79-.26-1.45-.52a5,5,0,0,0,.13,1.57c0,.13.79.26.79.13A2.54,2.54,0,0,0,510.63,738.1Zm3.53,66.07a4.74,4.74,0,0,0-1.44-.26c0,.39-.13,1,0,1a4.94,4.94,0,0,0,1.44.13A1.93,1.93,0,0,1,514.16,804.17ZM516,782.54c-.92-.52-1.7-1-3-2,0,1-.13,1.84,0,1.84a21.2,21.2,0,0,0,2.76.65C515.87,783.19,516.13,782.54,516,782.54Zm165.38,261.37a53.89,53.89,0,0,1-6,8.13H675c.13,0,.13.13.26.13-19.14,23.07-73.05,73.66-101.9,90.31-33.18,19.14-82.88,46.8-98.36,46.8s-23.74-10.88-19.15-18.75,7-19,20.73-25.69c0,0-3.68-27.79,7.6-48s26.5-49.41,51.8-55.83a193.52,193.52,0,0,1,37.12-5.51c.13,0,.13.13.26.13v-.13c14.56-.66,27.67.4,34.62,3.93l12.73,6.56s22.16-14.81,37-17S689.9,1028.57,681.38,1043.91Zm-168.27,57.41c0-.26-.26-.52-.52-.78a14.76,14.76,0,0,0-1.44,1.57.48.48,0,0,0-.13.39h-.13c-.13,0-.13-.13-.26-.13a.28.28,0,0,0-.27.27c.27,0,.4-.14.66-.14a.13.13,0,0,1,.13.14v-.14C512.2,1102.9,512.85,1102.5,513.11,1101.32Zm3,5c-.13-.26,0-.65-.26-.91s-.53-.13-.79-.26c.13.26.13.65.26.91S515.87,1106.17,516.13,1106.3Zm2.63,10.75h-.4l.27.26Zm2.48-9.17h-.39c-.13.13,0,.26,0,.39s.26.13.39.26Zm7.48,12.71a3.28,3.28,0,0,0-.13-1.18c-.13-.26-.92-.26-1.05,0s-.13.79-.26,1A8.76,8.76,0,0,0,528.72,1120.59Zm5.25-5.24h-.27l.14.26Zm.66-14.68c.13-.13.26-.39.39-.53-.13,0-.26.14-.39.14Zm.65,44-.39-.13.13.39Zm43.93-108.93.13.4.26-.13ZM539,1103.42a8.75,8.75,0,0,0-2-.13,11.7,11.7,0,0,0,.4,1.57c.52-.26,1.18-.39,1.7-.65C539.08,1104.21,539,1103.55,539,1103.42Zm2.75,13a1.74,1.74,0,0,1-.65-.13l.52.52A.48.48,0,0,0,541.7,1116.4Zm3.41,6.29c-.13,0-.39-.13-.52-.13v.39a.48.48,0,0,0,.39.13C545,1122.82,545,1122.69,545.11,1122.69Zm2.1-82.19v-.26l-.26.13Zm.66,112.2-.27-.26-.13.26Zm.39-44.56a2.62,2.62,0,0,0-.92.13c0,.26-.26.66-.13.79s.53.13.79.26A8.16,8.16,0,0,1,548.26,1108.14Zm9-5.24c-.13-.13-.13-.26-.26-.26a.28.28,0,0,0-.26.26c.13.13.13.26.26.26A.28.28,0,0,1,557.31,1102.9Zm0-62.79c-.13-.13-.13-.26-.26-.26a.45.45,0,0,1-.26.13c0,.13.13.26.13.39S557.18,1040.24,557.31,1040.11Zm3.93,79.43-.26-.26v.39Zm1.84-78.77,2.76.78c.13-.52.39-1.18.13-1.31-.79-.39-1.57-.66-2.63-1.18C563.21,1040,563,1040.77,563.08,1040.77Zm4.33,14-3.41-.39a5.3,5.3,0,0,0-.26.91c.39.4,1,1.18,1.44,1a4.23,4.23,0,0,0,2.1-.92C567.54,1055.44,567.41,1054.79,567.41,1054.79Zm5.51,59.25.26-.13c0-.13,0-.39-.13-.39a1.6,1.6,0,0,1-.79-.14A1.58,1.58,0,0,1,572.92,1114Zm.65,3.67-.26-.26-.13.39Zm.13-76.16c0-.13-.52-.26-.78-.39-.13.65-.39,1.31-.52,2l1,.52A13.19,13.19,0,0,0,573.7,1041.55Zm3.94,12.85c-.13,0-.26-.26-.26-.13s-.14.13-.27.26c.13.13.27.26.27.13A.28.28,0,0,0,577.64,1054.4Zm1.31,40.89a11.76,11.76,0,0,0,1-2.75c.13-.52-.4-1.18-.66-1.7-.26.65-.78,1.18-.78,1.83.13.92.26,1.84.39,2.62,0,.13-.13.13-.13.27.26.13.52.39.78.52-.26-.13-.39-.39-.65-.52C579.08,1095.42,579,1095.42,579,1095.29Zm18.75-48.89h.4c0-.26.13-.39.13-.66h-.39A1.34,1.34,0,0,1,597.7,1046.4Zm-12.85,87.3a.48.48,0,0,0-.13-.39c-.13-.13-.26,0-.39-.13a.46.46,0,0,0,.52.52Zm3.15-25.43c0-.13-.26-.13-.4-.26.14.26.14.39.27.65A1.31,1.31,0,0,1,588,1108.27Zm.4-19a1.23,1.23,0,0,0,.13-1.32c-.79-1.31-.79.13-1.19.39a6.33,6.33,0,0,1-1.7.79c-.4.14-.92-.13-1.44-.13a7.15,7.15,0,0,1,1,.92A2.33,2.33,0,0,0,588.4,1089.27Zm.91,30.4a6.34,6.34,0,0,1-.39-.91l-.79.39c.13.26.13.66.4.79S589.05,1119.81,589.31,1119.67Zm2,3.15v-.26l-.26.13ZM593,1041h-.91a7.11,7.11,0,0,0-2.37.65,2.08,2.08,0,0,0-1,1.31,1.5,1.5,0,0,0,.78,1.18,2.27,2.27,0,0,0,1.84.13,9.16,9.16,0,0,0,1.57-2.36C593,1041.81,592.85,1041.42,593,1041Zm2,9.69h0v-.26c.13-.39.39-.78.52-1.17a1.19,1.19,0,0,0-.13-.93c-.26.27-.78.53-.78.93a4.13,4.13,0,0,0,.39,1.17.13.13,0,0,0,0,.26c-.52.93-1.18,1.84-1.71,2.89a1.62,1.62,0,0,0,.4,1.18,2.64,2.64,0,0,0,1.7-.52C596.53,1053,595.34,1051.91,595,1050.72Zm2.36,56.11c-.13-.13-.13-.4-.26-.4s-.52-.13-.79-.26c.14.26.27.53.4.79A5.63,5.63,0,0,1,597.31,1106.83Zm2,4.59c0-.13-.39-.4-.65-.66-.27.66-.4,1.44-.66,2.1a4.71,4.71,0,0,0-.27,1.31,1.84,1.84,0,0,1,.4.26h.39A11,11,0,0,0,599.28,1111.42Zm.26-47.33a.46.46,0,0,0-.39.14,1,1,0,0,1-.13.65c.13,0,.39,0,.39-.13A1,1,0,0,0,599.54,1064.09Zm1.31,34.35a2.73,2.73,0,0,0-1.05.52,2.93,2.93,0,0,0,.53.66c.26-.13.65-.13.78-.4S600.85,1098.83,600.85,1098.44Zm.53-38.93-.4-.13.13.39Zm0-14.68v-.4l-.27.14Zm4.59,60.69a8.55,8.55,0,0,1-.53-1.31,4.33,4.33,0,0,0-.78.39.88.88,0,0,0,.26.92C605.05,1105.65,605.44,1105.52,606,1105.52Zm2-63.18a9.23,9.23,0,0,0,.79.52c-.13-.39-.26-.79-.39-1.31,0-.13-.26-.13-.4-.26Zm.92,10.61h-.39c0,.13-.13.27,0,.4a.48.48,0,0,0,.39.13C608.72,1053.35,608.85,1053.08,608.85,1053Zm.26,10.62a1.25,1.25,0,0,0,.92-.26c.27-.13.27-.52.4-.79H609C609,1063.05,609.11,1063.31,609.11,1063.57Zm3.55,9.44c-.79,0-1.58.13-2.23.13-.27.53-.66.79-.66,1a.83.83,0,0,0,.66.65,11.38,11.38,0,0,0,2.23-.52C612.79,1074.19,612.66,1073.4,612.66,1073Zm41.7-29,.27.26.13-.26Zm-6.82-7.6.13.26.13-.26ZM625,1075.9v-.4l-.26.13Zm1.58-24.25a7.46,7.46,0,0,0,.52.91h0a21.81,21.81,0,0,0,2-1.18c.26-.26.39-1.18.26-1.18-1-.26-2.36-1-3.28-.65C624.59,1050.07,626.3,1050.86,626.56,1051.65Zm2.75,41,.26.26.13-.39Zm-1.71-25.43c0-.13-.13-.39-.26-.39a1.34,1.34,0,0,0-.52.13c-.39.79-.66,1.44-1.05,2.1a1.65,1.65,0,0,0-.13.78,2.58,2.58,0,0,0,1.05-.13A1.69,1.69,0,0,0,627.6,1067.24Zm2.24,29.49a2.24,2.24,0,0,1-.92-.13,3.66,3.66,0,0,0,.13,1.18c.26-.13.65-.13.92-.26C630,1097.39,629.84,1097,629.84,1096.73Zm.39-55.18H631a2.2,2.2,0,0,1-.26-.65,2.73,2.73,0,0,0-.66.39C630,1041.16,630.1,1041.55,630.23,1041.55Zm.92,23.73c.78-.53,1.57-.92,2.36-1.45a1.06,1.06,0,0,0-.27-1c-1.31-1.06-1.57.39-2.48,1.17A3.52,3.52,0,0,0,631.15,1065.28Zm2.62,26.21c-.13-.13-.53-.13-.79-.26,0,.26-.26.66-.13.79s.53.13.79.26C633.64,1092,633.9,1091.76,633.77,1091.49Zm3.67-50.2-.26-.26c-.13.13-.26.13-.26.26Zm3.41,7.6-.26-.39-.26.26Zm3.28-4.06a3,3,0,0,0-.79-1,8.28,8.28,0,0,0-.91-.26.45.45,0,0,1,.13-.26c0,.13-.13.26-.13.39a2.28,2.28,0,0,0,.13.92,8.93,8.93,0,0,0,1.18.65Q643.93,1044.83,644.13,1044.83Zm3.8,2.49c-.13-.13-.13-.26-.26-.39a.46.46,0,0,0-.39-.14,1,1,0,0,1-.13.66A1.65,1.65,0,0,0,647.93,1047.32Zm6.56,10.22c-.92-.39-2.23-.26-2.36.92-.13.78.66,1.57,1,2.36a8.33,8.33,0,0,0,1.18-.79C654,1058.85,656.33,1058.33,654.49,1057.54Zm3.54-25c0-.4,0-1.18-.13-1.18a4.67,4.67,0,0,0-2.1-.27c.27.79.27,1.45.53,1.58C656.85,1032.64,657.51,1032.51,658,1032.51Zm2,31.85c-.26.26-.79.39-.92.66a4,4,0,0,0-.13,1.3v0a3.17,3.17,0,0,0,1-.78C660.26,1065.28,660.13,1064.75,660,1064.36Zm2.76-11.93c0-.65-.13-1.44-.13-2.1-.53.13-1.06.13-1.84.26.13.92,0,1.71.26,2S662.1,1052.43,662.76,1052.43Zm1.31,8.78-.27-.13v.26Z" transform="translate(-324.1 -632.42)"/></g></g></g><g class="cls-7"><path class="cls-6" d="M433.51,924.49c.39,1.06.65,2,1.05,3a11,11,0,0,1,.52,2l.52,2.23c.8,3.14,1.58,6.29,2.63,9.44,1.57,4.58,3.28,9,4.46,13.76a5,5,0,0,0,.78,1.7,46,46,0,0,0,2.5,4.2c.52.65.92,1.44,1.44,2.09l.79,1.05.52.66.66.65c2.22,2.5,5,4.46,8.26,4.46a20,20,0,0,0,4.72-1.05,4.53,4.53,0,0,0,1.18-.52l1-.66a12.93,12.93,0,0,0,2-1.31,23.57,23.57,0,0,0,7.21-9.17,40.28,40.28,0,0,0,2.89-12.46,10.77,10.77,0,0,1,.13-2.1v-2.09c0-1.31.13-2.76.26-4.2a43,43,0,0,0,.26-7.08c0-3.8,1.32-7.6.66-11.4V917c.79-2.1.39-4.46,1.18-6.56l.39-1.57a3.66,3.66,0,0,1,.13,1.18c.13,1.7.4,3.54.53,5.24a25.86,25.86,0,0,1,.26,3,17.89,17.89,0,0,1-.26,2.62c-.13,1-.27,2.23-.4,3.27a6.23,6.23,0,0,0,.27,1.58c.13.52.52,1,.13,1.44s-.27,1.18-.92,1.7.13,1.19-.13,1.71c-.66,1.31.39,2.36,1.05,3.41a1.87,1.87,0,0,1,.26.39c-.79.65,0,1.31.26,1.84a2.86,2.86,0,0,1-.39,3c-.26.39-.66.92-.53,1.31.4,1,.4,2.23,1.31,3.28.27.26.27.78.4,1.18.39,2.23.79,4.45,1.31,6.55.39,1.57.65,3.28-.39,4.85a1,1,0,0,0-.13.66c0,1,.13,2.09.13,3.14,0,1.44,0,2.89-.13,4.33a13.43,13.43,0,0,0-.27,3.28A15.34,15.34,0,0,0,483,972a7.64,7.64,0,0,1,1.05,2.88,6.42,6.42,0,0,0,.92,2.49c.65,1.32-.13,2.75,1.05,3.94,0,.13.13.13,0,.26-.53.78.26,1.57-.13,2.36s-.53,1.44-.92,2.09-.66.92-.39,1.45-.13.91-.27,1.3c-.26.93.27,2-.66,2.89.66.92.53,1.83.93,2.75.65,1.31,1,2.49.26,3.94a2.36,2.36,0,0,0,0,2.09c.65,1.84,3.67,2.49,6.55,1.44.66-.26,1.32-.52,1.84-.78a2.77,2.77,0,0,0,1.05-.66,16.72,16.72,0,0,0,1.31-2c.13-.27.39-.53.13-.79-1-1.18-.91-2.49-.91-3.8,0-1.05-.66-2.1-.27-3.15a3.29,3.29,0,0,0-.13-2.75,3.67,3.67,0,0,1,0-2.36c.13-.39.53-1.05.13-1.31-.65-.53-.13-.92.14-1.31l.39-.79c.78-1.44,0-2.75.26-4.19.13-.92-.39-1.7-.52-2.63-.13-.52-.13-1-.79-1.43s-1.05-1.06-.53-1.71c.13-.13,0-.39,0-.65a24.37,24.37,0,0,0-2.75-7.87c-1.05-1.84-1.05-3.8-1.31-5.77l-.4-4.72c0-.13-.26-.26-.39-.39-.39-.65-.66-1.44.26-2.1,1.84-1.31,1.58-2.75,1.31-4.06a16.39,16.39,0,0,1-.52-4.33,4.2,4.2,0,0,0-.26-1.7c-.14-1-.53-2.1,0-3s.26-2,.65-3a6.47,6.47,0,0,0,.27-2.75c-.14-1.18.13-2.36-1.06-3.41a1,1,0,0,1-.13-.65,4.13,4.13,0,0,0-.52-4.07,2.76,2.76,0,0,1-.52-1.44c0-2.23-.53-4.33.78-6.56a5.34,5.34,0,0,0,.53-2.49c.13-1.83,0-3.53.13-5.37a21.27,21.27,0,0,0,0-2.88c-.13-1.71-.13-3.41-.13-5a14.89,14.89,0,0,1,.39-4.19c.39-2,.66-3.93,1.05-5.9h-.39c0-.92.13-1.83.13-2.75a2.36,2.36,0,0,0-.4-1,25.78,25.78,0,0,1-1.05-2.75c-.13-.53,0-1.18-.13-1.7a33.53,33.53,0,0,0-2.62-9,6.53,6.53,0,0,1-.39-1.7,28,28,0,0,0-.92-4.46,16.31,16.31,0,0,0,.26-2.49v-1.58a6.45,6.45,0,0,0-.13-1.57,5,5,0,0,0-.92-2.23,3.28,3.28,0,0,0-.79-.65c-.26-.13-.13-.78-.78-.65s-.92.13-1.31.26a4.53,4.53,0,0,0-1.18.52h-.13c-.92-.39-1.58-.26-2,.26a4,4,0,0,0-.79,1.71l-.52.52a13.37,13.37,0,0,0-.66,1.18c-.79,1.71-1.57,3.41-2.23,5.11a4,4,0,0,0-.52,2c.39,3.54-.53,7.21-1.18,10.75-.53,3.27-.27,6.42-.92,9.56a34.16,34.16,0,0,0-.39,8.13,24.44,24.44,0,0,1-.4,6.3c-.26,1.17-.79,2.75-.52,3.53.52,1.45-.13,2.23-.66,3.41l-.78,2c-1.45,3.67-1.19,7.6-2,11.4-.53,2.36-.4,4.85-.66,7.34a11.41,11.41,0,0,0,.13,4.2,6.9,6.9,0,0,1-.26,4.85,3.61,3.61,0,0,0-.26,1.7c-.53,3.54-1.05,6.81-1.84,10a20.7,20.7,0,0,1-1.57,4.33l-.53.92a5.65,5.65,0,0,0-.52.91,3.28,3.28,0,0,1-.65.79,2.49,2.49,0,0,0-.53.79c-.27.26-.53.65-.92.78l-.52.4-.53.26a2.19,2.19,0,0,1-2.49-.13,8,8,0,0,1-1.05-.79l-.52-.52-.27-.27c-.13-.13-.13-.26-.26-.26a26.94,26.94,0,0,1-2.23-3,45.54,45.54,0,0,1-3.15-5.51,19.38,19.38,0,0,1-1.3-2.88c-.4-1.05-.79-2-1.19-3-.13-.39-.52-.65-.78-1a8,8,0,0,1-1.32-5.64,12.84,12.84,0,0,0,.26-5.51c-.13-.91-.26-1.83-.39-2.88l-.26-1.44-.39-1.58c-1.05-4.32-2.89-8.12-3.8-12.05-.4-1.45-.92-2.89-1.32-4.33-.65-2.62-1.57-5.77-1.44-8.26.13-2.88-.53-5.5-.4-8.39a40.15,40.15,0,0,0-.65-7.86c-.26-1.57-.39-3.41-.65-5a17.94,17.94,0,0,0-1.19-4.33c.13-2.36.13-4.72.27-6.82a32.24,32.24,0,0,1,.26-3.53c.13-1.19.26-2.1.52-3.41l.27-1.44a4.38,4.38,0,0,0,0-1.84,2.28,2.28,0,0,0-.13-.92v-.26h-.4c-.66.13-1.31.13-2,.26-.39,0-.65.13-.91.13,0-.13,0-.26-.13-.26l-.13-.39c0-.13-.13-.26-.13-.39l-.14-.13a2.41,2.41,0,0,0-.39-.53,2.27,2.27,0,0,0-1.18-.79,3.2,3.2,0,0,0-1.18,0,1.74,1.74,0,0,0-.79.27,1.57,1.57,0,0,0-.65.65c-.14.27-.27.27-.27.53a.64.64,0,0,0-.13.39,4,4,0,0,0,0,1.31v.26l-1.18.4c-.52.13-.92.26-1.44.39l-.39.13h-.4v.13l.14,1.57.13,1.84a2.94,2.94,0,0,0,.13,1l.13,1c.13.65.13,1.31.26,2,.13,1.31.52,3,.26,4.07-.52,1.44-.13,3.27-.78,4.72a9.13,9.13,0,0,0,0,3.79,2.31,2.31,0,0,0-.13.93,125.69,125.69,0,0,0-1.71,15.59,60.56,60.56,0,0,0-.13,8.39c.13,4.72.13,9.57.26,14.16v5.9l-.13,6c-.13,5.63,0,11.27,0,16.77h.39l.26,7.61a24.34,24.34,0,0,0,.53,3c.39,2.49.92,5,1.18,7.6.13,1.58,0,3.15.13,4.72a207,207,0,0,0,3,25.56c.26,1.58.39,3.15.52,4.72.65,5.11.52,10.36,1.45,15.34a44.05,44.05,0,0,0,2.23,8.26,59.31,59.31,0,0,1,2.22,7.86,4.75,4.75,0,0,0,2.49,3.54c1.06.52,1.71.13,1.71-1.18a25,25,0,0,0-.26-4.33c-.53-3-.66-6.29-1.58-9.43a7.59,7.59,0,0,1-.13-1.71c.13-2.75.52-5.63.66-8.52s.26-6.16.26-9.44c0-3,0-5.89.13-8.91.13-3.8-.79-7.34-1.18-11-.26-2.36-.52-4.72-.92-7.08-.13-1.31-.65-2.49-.65-3.8-.14-3,0-6,0-9a90.8,90.8,0,0,0-1.31-16.9c-.79-4.59-.27-8.91,0-13.11C433.11,929.48,433.11,926.85,433.51,924.49Zm-4.2-65.79Zm251.15,65.53a7.39,7.39,0,0,0,2.1-3.27,21,21,0,0,0,.78-3.93c.13-.53.13-1,.26-1.71.14-.39.4-.78.53-1.18l2.5-5.76c.39-.92.52-1.84.91-2.76s.39-2.09.92-2.49c.92-.66,1-1.83,2-2.36s.91-2,1.57-2.62a7.32,7.32,0,0,0,2-4.33l-2.23-1.17a6.52,6.52,0,0,0,.39-.92l-7.47-3.93c-.13.26-.4.52-.53.78l-2.23-1.18c0,.53-.13,1.05-.13,1.57s0,.79-.13.92c-1.31.92-.92,2.5-1.18,3.67a20.5,20.5,0,0,1-.92,3A10.66,10.66,0,0,1,678,899.2a5.59,5.59,0,0,0-1.31,2.49c-.4,2.23-1.06,4.46-.66,6.69a7.66,7.66,0,0,1-.26,2.35c-.27,1.58-.53,3.15-.79,4.72a17.37,17.37,0,0,1-2.49,4.33,15.83,15.83,0,0,0-2.1,4.19,63,63,0,0,1-4.33,9c-.92,1.57-1.83,3.14-2.75,4.58a36.33,36.33,0,0,1-5.64,6.95,10.64,10.64,0,0,1-1.31,1.18c-.53.4-.92.79-1.31,1a13.68,13.68,0,0,1-2.89,1.31,6.77,6.77,0,0,1-2.62.26,2.68,2.68,0,0,1-1.31-.78c-.13-.26-.4-.4-.53-.79l-.26.26a12.94,12.94,0,0,1-1.44-2.75c-.13-.52-.66-.78-.79-1.44l-.52-.92c-.13-.39-.26-.65-.4-1-.26-.65-.52-1.57-.79-2.36a21.63,21.63,0,0,1-.26-3q-.39-4.12-.78-8.66c-.13-1.43-.27-3-.53-4.45s-.52-2.88-.79-4.33a26.35,26.35,0,0,1-.13-3.27c-.13-3.54.26-7.21,0-10.75a31.62,31.62,0,0,0-1.05-6,15.12,15.12,0,0,1-.13-5.9,3.82,3.82,0,0,0-.91-3.41c-.66-.91-1.45-.91-2.1.13a8.38,8.38,0,0,0-1.45,3.55c-.39,2.49-1,5-.65,7.46a2.31,2.31,0,0,1-.13,1.32c-.53,2-1,3.8-1.45,5.76a4.75,4.75,0,0,0-2.75-.52,14.89,14.89,0,0,0-2.36.39,5.3,5.3,0,0,0-1.57.66,28.26,28.26,0,0,0-2.76,2.88c-.26.39-.78.79-.78,1.18,0,2.62-1.19,4.72-2,6.82-.79,1.7-.92,3.67-2.1,5.24a16.41,16.41,0,0,0-1.31,2,13.58,13.58,0,0,0-.92,2.09,7.6,7.6,0,0,1-2,2.89c-.53.39-1.32.91-1.45,1.44-.13,1-.78,1-1.44,1.18-.4.13-.66.26-1,.39a4,4,0,0,0-1.31.66c-.27.13-.4.26-.66.39l-.39.39v.13c0-.13,0,.4-.26.4,0,0-.14,0-.14.13a.13.13,0,0,1-.13.13.13.13,0,0,1-.13.13h-.26c-.78,0-1.71-.39-1.71-1.31,0-.26-.26-.39-.39-.65a33.68,33.68,0,0,1-5.11-10.88c-.92-3.28-.53-6.69-.27-10.23.27-2.88.79-5.77,1.31-8.65,0-.26-.13-.65-.13-.92a6.26,6.26,0,0,1,1.19-4.72,15.79,15.79,0,0,0,2.36-5.5,20,20,0,0,0,.26-2.62v-2.36c-.13-.79-.13-1.45-.26-2.1s-.26-1.31-.4-1.83-.26-1.18-.39-1.84a11.3,11.3,0,0,0-.53-2,5.3,5.3,0,0,0-1.83-2.36,4.26,4.26,0,0,0-3-.78,22.16,22.16,0,0,0-2.49.65c-1.57.13-3,1.58-4.33,2.36a12.73,12.73,0,0,0-4.2,4.46c-.78,1.31-1.7,2.62-2.62,4.06a13.34,13.34,0,0,0-1.57,4.85,2.27,2.27,0,0,1-.79,1.45,28.92,28.92,0,0,0-2.09,3.8,17.79,17.79,0,0,0-.8,3.8,5.91,5.91,0,0,1-.52,2.62c-1.44,3.8-2.36,7.86-4.72,11.27a20,20,0,0,0-1.83,4.2c-1.06,3.14-1.71,6.42-2.89,9.57,0,.13-.13.26-.13.39a78.34,78.34,0,0,0-2.75-16.52,27,27,0,0,1-.53-3,87.76,87.76,0,0,0-1.7-10.09,36.2,36.2,0,0,0-1.84-4.72c.13-.27.13-.4.26-.66a8.06,8.06,0,0,0,.39-3.54,4,4,0,0,0-2.88-3.67,5.25,5.25,0,0,0-1.18-1.18c-.92-.66-1.71-.53-2,.53a3.06,3.06,0,0,0-.26,1,15.11,15.11,0,0,0-2,1,4.76,4.76,0,0,0-1.18,1.05,31.11,31.11,0,0,0-1.57,3c-.13.39-.4.92-.26,1.18.78,2.09.39,4.19.13,6.16-.13,1.7.26,3.4-.53,5.11A13,13,0,0,0,551,911a11.26,11.26,0,0,1-.66,3.68c-.26.65-.79,1.57-.53,2.1.53.91-.13,1.43-.52,2a7.41,7.41,0,0,0-.65,1,10.05,10.05,0,0,0-1.06,3.14,12.32,12.32,0,0,1-.65,3.15c-.39,1.31-.26,2.75-.52,4.07a4.67,4.67,0,0,0,0,2.35,2.19,2.19,0,0,1-.4,2.62c-.26.27-.26.66-.39.92-1,3.93-2,7.87-3.15,11.93a14.12,14.12,0,0,1-.92,2.1c-.13.39-.39.65-.52,1l-.65.93c-.4.65-.93,1.17-1.32,1.83l-1.57,1.7a24.92,24.92,0,0,1-2.75,2.49,19.5,19.5,0,0,1-2.89,2.1c-.13.13-.27.39-.4.53-.65.78-1.83,1.17-2.49.26l-.13-.26a14.44,14.44,0,0,0-1.44-1.84c-.39-.39-1.18-.79-1.84-1.31a13,13,0,0,1-4.06-4.72c-.4-.78-.92-1.44-1.31-2.23a13.45,13.45,0,0,1-1.71-3.67.49.49,0,0,0,.4-.13,6.65,6.65,0,0,0,2.75-1.7c1.44-1.57,3.15-3,4.06-5.25a2.46,2.46,0,0,1,.66-.91,41.85,41.85,0,0,0,3.94-4.2c1.17-1.57,2.36-3,3.4-4.58l.79-1.19.4-.52.52-.79c.66-.92,1.18-1.83,1.7-2.62,1.32-2.23,1.32-4.59,2-6.95a25.87,25.87,0,0,0,.79-4.59A16.05,16.05,0,0,1,540,911c.53-1.83,1-3.66,1.57-5.63a20,20,0,0,0,.79-5.64,23.4,23.4,0,0,0-.13-3c-.13-.53-.13-1.05-.26-1.57s-.27-1.32-.53-2a26.21,26.21,0,0,0-2.62-6.29l-.39-.66-.53-.65c-.39-.4-.66-.92-1-1.31a19.13,19.13,0,0,0-2.62-2.1c-.39-.26-.79-.39-1.18-.65a12.76,12.76,0,0,0-6.69-.79,10.75,10.75,0,0,0-5,2.22l-1.18.79-.53.53-.52.39a12.45,12.45,0,0,0-1.31,1.31,31.81,31.81,0,0,0-6.17,7.86,42,42,0,0,0-2.23,4.86,43.58,43.58,0,0,0-2.75,9.56c-.39,1.84-.53,3.81-.79,5.64-.26,1.57-.52,3.15-.79,4.72a44.82,44.82,0,0,0-.39,5.89,19.67,19.67,0,0,0,.26,2.76c.13.92.66,2,.26,2.62-.39,1,0,2.1-.52,3s.39,2.22.26,3.14c-.26,2.49,1.18,4.2,2.23,6,.13.26.53.53.39.79-.52,1.31.66,2.23,1.19,3.14a9.47,9.47,0,0,1,1.31,5.38,5.44,5.44,0,0,0,.53,2.62c1.17,1.7,2.22,3.67,4.19,5a19.41,19.41,0,0,1,1.58,1.57,26.23,26.23,0,0,0,4.84,4.33,11.64,11.64,0,0,0,3.42,1.7,10.85,10.85,0,0,0,2,.53c.65.13,1.3.13,2,.26a6.41,6.41,0,0,0,1.57-.13,13.4,13.4,0,0,0,3-.92A22,22,0,0,0,535.8,965c.79-.39,1.44-.79,2.1-1.18a10.83,10.83,0,0,1,2.1-.92,2.3,2.3,0,0,0,.92-.65c.78-.66,1.44-1.31,2.23-2s1.44-1.31,2.09-2.1c.92-1,1.84-2,2.63-3s1.7-2.1,2.49-3.14c.53-.79,1.18-1.58,1.84-2.5a18.35,18.35,0,0,0,1.57-2.62,37,37,0,0,0,1.31-3.53,17.42,17.42,0,0,0,.79-3.55c.26-1.7.13-3.4.79-5.11a11.94,11.94,0,0,0,.39-4.32c0-2.36,1.18-4.59.52-6.82v-.39a7,7,0,0,0,.4-.92,6.79,6.79,0,0,1,.26,1.44c.26,1.57.53,3,.79,4.59a13.85,13.85,0,0,1,.52,2.49,39.74,39.74,0,0,1-.39,5.64,55.18,55.18,0,0,0-.79,11c.13,1.3.13,2.75.27,4.32a15.54,15.54,0,0,0,1.17,5.38l1.58,3.67,5-.53a7.92,7.92,0,0,0,3.28-1A11.71,11.71,0,0,0,572.4,957a11,11,0,0,0,1-1.58c.13-.26.26-.52.4-.78l.26-.53.53-1.18a22.2,22.2,0,0,1,1.3-2.36,11.73,11.73,0,0,0,1.05-3.27c.26-1.18.4-2.23.66-3.41.66-3,1.44-6,2-9,.4-1.7.53-3.27.93-5,.65-3.15,1.44-6.29,2.1-9.31a35.36,35.36,0,0,1,1.44-5.37c.52-1.44,1.17-2.88,1.83-4.33.79-1.83,1.57-3.53,2.36-5.24a17.07,17.07,0,0,0,.79-2.49c.26-.79.39-2,.92-2.36.26-.13.39-.39.52-.52s.14,0,.14-.14a.93.93,0,0,1,.52.14c.26.26.26.13.26.13s-.13-.27,0-.13c.26.39.13.26.13-.14s-.13-1.17-.13-1.83v-.52c.13.65.13.65.26.26a3.91,3.91,0,0,1,.26-1.31c.4-1.18.92-1.57.66.52-.13.79-.26,1.71-.13,1.31s.39-.39.65-.65a11,11,0,0,0,1-1.18c.4-.39.4-.13.4,0a9.33,9.33,0,0,1,.65,3.54v1.18a15,15,0,0,1-.26,1.83,12.68,12.68,0,0,1-1.57,4.2,9.46,9.46,0,0,0-.4,1.18c-.26,2-.52,4.06-.78,6.16a85.72,85.72,0,0,0-.79,8.65c0,2.23-.26,4.72.39,7.08a18.86,18.86,0,0,0,4.07,8.26,21,21,0,0,0,2.36,2.36c.4.39.79.65,1.18,1,.26.13.39.4.66.53l.26.26.39.4a8.43,8.43,0,0,0,5.91,2.61,11.89,11.89,0,0,0,4.84-.91,7.46,7.46,0,0,0,3.55-3l.39-.39a3.91,3.91,0,0,0,1.83-1.44,6.46,6.46,0,0,1,1.71-1.57c.65-.4,1.18-.79,1.71-1.19a19.78,19.78,0,0,1,1.7-1.31,5.79,5.79,0,0,0,2.1-2.22,6.28,6.28,0,0,1,1.7-2.1,22.77,22.77,0,0,0,1.44-2.49,6.24,6.24,0,0,1,1.71-2.36c.13-1.84,1.05-3.54,1.32-5.25a20.76,20.76,0,0,1,.52-2.75c0,.27-.13.66-.13.92a5.7,5.7,0,0,0,0,2.1,6.67,6.67,0,0,0,.26,1.7c.13,1.18.39,2.49.52,3.8a36.23,36.23,0,0,0,.66,5.25,22.55,22.55,0,0,1,.65,2.88,67.24,67.24,0,0,0,.53,7.08,31.43,31.43,0,0,0,.66,3.54,19.8,19.8,0,0,0,1.44,3.54,18.11,18.11,0,0,0,2.36,3.53,17.87,17.87,0,0,0,3.41,2.89c.39.26.65.39,1,.66a17.05,17.05,0,0,0,13.51,1.3,33.75,33.75,0,0,0,6.56-3.27,16,16,0,0,0,3.14-2.75c.92-1.06,1.7-2.1,2.63-3.28.52-.66,1-1.44,1.57-2.23L669.7,949a56.23,56.23,0,0,0-.78,6.55,58.64,58.64,0,0,0,.52,8.26,29.39,29.39,0,0,1,.92,5.9,16.22,16.22,0,0,0,1,5c.79,2.62.26,5.51,1.7,7.87a.78.78,0,0,1,.13.52c-.39,1.57.79,3.14.53,4.72s0,2.88-.13,4.33a4.82,4.82,0,0,0,.26,3,17.19,17.19,0,0,1,.53,2.75,18.76,18.76,0,0,0,.78,2.89,5.9,5.9,0,0,1,.53,3c.52.79,1,1.58,1.57,2.49a24.54,24.54,0,0,0,1.58,2.49,19,19,0,0,1,2.35,3.28,13.41,13.41,0,0,1,1.84,3.67,11.91,11.91,0,0,0,2.62,3.67c3.15,2.75,6.17,1.7,7.09-1.71a14.12,14.12,0,0,0,.65-2.23,3.23,3.23,0,0,0,.13-1.57,26.11,26.11,0,0,0-.91-3.41,3.22,3.22,0,0,0-.53-1.17,10.36,10.36,0,0,1-2.36-2.36c-.53-.92-1-2-1.57-2.89-.79-1.7-2.1-3.14-2.37-5.24a15.18,15.18,0,0,0-1.57-4.72,10.88,10.88,0,0,1-.92-4.06c0-.79.13-2-.26-2.36-.78-.79-.39-1.45-.26-2.36.13-.39.13-.92.26-1.31.39-2.49-.65-5-.52-7.6a34.3,34.3,0,0,0-.79-4.86,5.47,5.47,0,0,0-.79-2.75,3,3,0,0,1-.52-3.14,3.66,3.66,0,0,0,0-1.19,149.39,149.39,0,0,0-1.7-15.33c-.66-3.8-.27-7.47,0-11.14.13-1.57.26-3,.52-4.59l.65-4.59c0-.26-.13-.65-.13-.91v-.53c.4-.92.66-2,1.05-2.89C680.33,924.76,680.46,924.49,680.46,924.23Zm-165.38,8.13a1,1,0,0,1-.13-1.05,11,11,0,0,0-1.05-6.42,6.23,6.23,0,0,1-.52-2.23c0-3.4-.14-7.08,1.83-10.22a16.88,16.88,0,0,0,1.45-3.54,24.61,24.61,0,0,1,3.27-7.34L522.3,898a10.57,10.57,0,0,0,1-1.44l1.32-1.31c.39-.39.91-.79,1.31-1.18l.92-.66a2.19,2.19,0,0,1,2.75-.13l.13.13a3.11,3.11,0,0,1,.92,1.71v.78a.51.51,0,0,1-.13.4v.52H531c0,1-.13,2.23-.26,3.54,0,.52.13,1,.13,1.57a22.31,22.31,0,0,1,.13,4.2,14.16,14.16,0,0,1-.65,2.49c-.92,4.71-2,9.43-3,14.28a9.88,9.88,0,0,1-1,2.5c-1.31,2.75-2.76,5.37-3.93,8.12-.66,1.57-1.19,3.28-1.71,5a10.87,10.87,0,0,1-2.62,4.33l-.13.13a4.6,4.6,0,0,1-.14-1.44,16.88,16.88,0,0,0-.78-4.33C516.53,935.77,516.53,933.8,515.08,932.36Zm-3.41,88.48c-.91.79-1.31.65-1.83,0-.27-.39-.53-.52-.92-.26a15.75,15.75,0,0,0-1.58,1.44,14.13,14.13,0,0,0-1.57,2,3.84,3.84,0,0,1-.92,1.06c-1.7,1.7-3.41,2.88-4.59,4.32a6.65,6.65,0,0,1-1.44,1.31,3.35,3.35,0,0,1-2.1.66.68.68,0,0,0-.52.26,16.7,16.7,0,0,0-1.44,2l-.92,1.3-.66,1.32a3.89,3.89,0,0,0-.52,1c-.13.4-.4.79-.26,1.06a4.62,4.62,0,0,0,.26,1.3l.78,1.19c.53.52,1.32.78,1.45,1.3s.78.66,1.31.92a2.79,2.79,0,0,1,.91.79,1.13,1.13,0,0,0,1.19.39c.13,0,.13,0,.13.13-.13.79.65.4.65,1s.26,1.05.26,1.58,0,.91.4.91.39.52.52.79c.4.52,1.05.39,1.31,1.44.66-.39,1.32-.26,1.84-.78.79-.66,1.31-1.32,2-.79a.48.48,0,0,0,.39.13,1,1,0,0,0,.53,1.44,7.45,7.45,0,0,0,1.83.65,3.52,3.52,0,0,0,1.71,0c1.83-.65,3-1.17,3.27-2.36,0-.13.13-.26.27-.39.65-.26,1.31-.52,1.83-.78a17.14,17.14,0,0,0,1.71-1c.78-.53,1.44-1.05,2.23-1.57.92-.79.78-2,1.18-2.76a4,4,0,0,0,.39-1.7c0-.26-.26-.66-.13-.92a18.92,18.92,0,0,1,1.44-1.84,3.94,3.94,0,0,0,1.18-3.27c-.13-.79,1-1.84,1.58-2.75.39-.53.39-1,.78-1.7.27-.4,0-.66,0-.93s-.39-.52-.39-.78a19.1,19.1,0,0,0-1.31-2.36,10.94,10.94,0,0,0-1.18-1.18,7.69,7.69,0,0,0-2.36-1.83c-.53-.27-1.18-.53-1.57-.79s-.66-.53-.92-.66a3.71,3.71,0,0,0-.79-.65c-.13-.13-.39,0-.65.13,0,0-.14,0-.14.13-.26.13-.52.39-.39,0,.26-.66-.13-.26.13-1.05s-.4,0-.4-.39c.14-1-1,.26-2,1.18-.13.13-.4.39-.4.26C513.11,1019.27,512.2,1020.45,511.67,1020.84Zm-1,10.62c.13.39.52.52.26,1.18-.13.26,0,.52.13.52.26.26,0,.66,0,.92s-.39.65-1,.91a10.6,10.6,0,0,1-2.1,1.06h.53a1,1,0,0,1-.53.26.64.64,0,0,1,.39.13,3.07,3.07,0,0,1,.92.39c.13.13-.13.13-.13.26a20.42,20.42,0,0,0,.92,2.49.4.4,0,0,1-.13.53c0,.13-.14.26-.14.53l-.26.52a3.79,3.79,0,0,0-.26,1.18c0,.52.13,1.31.13,2.23a1.6,1.6,0,0,1-1.44,1.7,3.25,3.25,0,0,0-1.44,1,6.21,6.21,0,0,0-.27-1.44c0-.27.14-.4.14-.66a9.84,9.84,0,0,0,.78-4.06,5.85,5.85,0,0,0-.65-2,2.4,2.4,0,0,0-1.19-1,4.49,4.49,0,0,1-.13-1.31v-.26c0,1-.13.92-.26.92s-.26.79-.26.13,0-.4-.13-.13-.13.13-.13-.14.26-.52.13-.26c-.39.53-.13.13.13-.26.13-.13.13-.26.26-.39.66-.66,0-.13.26-.26s-.26.13-.39.26-.13,0-.65.26-.92.26-.53.13h0a6.35,6.35,0,0,1-1.84-.78c-.52-.4-.13-.92.27-1.19a3.54,3.54,0,0,1,1-.91v-.26c0-.27.26-.53.65-.27.92.79.92.53,1.18.27s.53-.79.92-.79c.13,0,.26-.26.39-.26s.66-.66.66-.4.26,0,.26.27.13.13.26,0,.13,0,1.19-1.58c.13-.26.13-.26.13-.13s0,.26.26,0a15,15,0,0,0,1.05-1.17l.79-.79c.26-.14.65-.4.91-.27s.26.53-.39,1.45C510.49,1031.2,510.63,1031.33,510.63,1031.46Zm176.52,15.47a9.09,9.09,0,0,1,.52-1.32c.13-.52.26-1,.4-1.57s.13-1,.26-1.57V1041a14.31,14.31,0,0,0-.13-2.36,13.7,13.7,0,0,0-.4-2.36,17.24,17.24,0,0,0-2-5.9,14.31,14.31,0,0,0-6.56-5.64,19.39,19.39,0,0,0-7.48-1.44,31.08,31.08,0,0,0-13.11,2.88c-1.45.66-2.89,1.19-4.33,1.71-4.72,2-9.31,4.06-13.64,6.29a48.23,48.23,0,0,0-7.08,4.33,45.89,45.89,0,0,1-6.82,3.93,4.3,4.3,0,0,0-2,1.7c0-.26-.13-.39-.13-.65a11.75,11.75,0,0,0-.92-2.88,4.62,4.62,0,0,0-1.31-2,38.13,38.13,0,0,0-5.11-3.94,4.39,4.39,0,0,0-2.23-1c-4.07-.53-8.13-1.84-12.07-2.76-3.28-.65-6.68-.65-10.1-1.57a28,28,0,0,0-8.78-.66,63.83,63.83,0,0,1-7.22-.13c-1.31-.13-3.14-.52-3.93-.13a4.74,4.74,0,0,1-3.81-.13c-.65-.13-1.44-.26-2.22-.39-4.2-.65-8.53.26-13,.65a37.87,37.87,0,0,0-8.26,1.84,11.26,11.26,0,0,0-4.46,1.83,11.29,11.29,0,0,1-5.24,2.23,6,6,0,0,0-2,.79,58.41,58.41,0,0,0-20.2,15.07c-3.93,4.46-8,8.65-11.67,13.24a119.84,119.84,0,0,0-8.26,11.8,4.41,4.41,0,0,0-.4,1.44,12.51,12.51,0,0,1-1.44,3,8.82,8.82,0,0,1-2,2.36,15.7,15.7,0,0,0-4.06,4.72,48.63,48.63,0,0,0-2.5,5.89,105.19,105.19,0,0,1-4.71,12.06,28.23,28.23,0,0,0-1.71,4.72c-1.05,2.88-1.84,6.29-3,8.91a26.19,26.19,0,0,0-1.57,4.46c-.39,1.58-.66,3.41-.92,5a32.92,32.92,0,0,0,.13,8.78,47.83,47.83,0,0,0,.92,7c-.79-.13-1.44-.39-2.23-.52a4.33,4.33,0,0,0-1.83,0,22.62,22.62,0,0,0-5.64,2.62,6.06,6.06,0,0,0-2,1.57c-2.1,3.54-4.46,6.56-6.56,10a23.84,23.84,0,0,0-2.23,4.85c-.66,2-1.05,3.41-1.7,5.12a15.48,15.48,0,0,0-1.05,4.58,8.84,8.84,0,0,0,0,2.62c0,.53.13.92.13,1.45s.13,1.18.26,1.7a14.08,14.08,0,0,0,1.18,3.28c.39.52.66,1.18,1.05,1.7s.79,1.05,1.18,1.58c1.05,1.17,1.58,1.7,2.36,2.49,1.31,1.17,2.76,2.62,3.8,2.75a6.23,6.23,0,0,1,3.68,2c.65.39,1.31.91,2,1.3a17.42,17.42,0,0,0,6.82,2.23l1.18.13h6.3c2.89,0,5.64-1,8.26-1.83a13.19,13.19,0,0,0,4.07-1.83,8.65,8.65,0,0,1,4.59-2.1,4.44,4.44,0,0,0,1.7-.66,81.47,81.47,0,0,0,10.1-5.38c1.57-.91,3.15-2,4.59-2.88s3-2.09,4.46-3.14a128.4,128.4,0,0,1,13.77-7.87c3.81-2.09,7.74-4.06,11.54-6.29a5.33,5.33,0,0,0,.92-.92c1.57-1.31,3.28-2.49,5.12-2.49a11.85,11.85,0,0,0,5.5-1.44,41.23,41.23,0,0,0,5-3.28c3.28-2.62,6.16-5.37,9.44-7.6,1.18-.78,2.23-2,3.54-2.88,2.23-1.71,4.33-3.93,6.69-5s4.59-3.15,6.95-4.33a41,41,0,0,0,6.29-4.32c2.5-2,5.38-3.8,7.09-6.56a3.52,3.52,0,0,1,1.31-1,32.74,32.74,0,0,0,8.78-6.55,17.63,17.63,0,0,1,2.89-2.49c5-3.28,9.84-6.82,15.34-9.31a26.47,26.47,0,0,0,5.77-3.93c3.94-3.28,7.35-7,11-10.09,2-1.84,3.8-3.54,5.77-5.51,3.28-3.28,6.69-6.42,10-9.7,2.76-2.75,5.51-5.24,8.53-7.73l6-5.24c2-1.71,4.06-3.55,6.16-5.51l-.26-.26a62.17,62.17,0,0,0,5.37-6A23.26,23.26,0,0,1,687.15,1046.93Zm-205.38,82.58c.79-1.71,0-3.15,0-4.46v-.92c0-.39.13-.66.13-1.05a10.48,10.48,0,0,1,.53-2,13.64,13.64,0,0,1,1.83-3.66A10.51,10.51,0,0,0,486,1114c.79-3,2.1-6,2.49-9.18a18.43,18.43,0,0,1,1.05-3.28l1.7-4.72,1.58-4.58c.52-1.44,1-3,1.7-4.46s1.18-2.88,1.84-4.33c2-4.19,4.2-8.38,7.87-11.27.39-.39.78-.91,1.18-1.31.92-1.18,1.83-2.36,2.75-3.53s2-2.36,3-3.42a87,87,0,0,1,9.05-8.12c1.18-.92,2.49-1.7,3.8-2.62a35.6,35.6,0,0,0,3.8-2.5c3.15-2,6.3-4.06,9.58-5.89a23.51,23.51,0,0,1,7.34-3.41,66.92,66.92,0,0,0,6.82-2.23c3.67-1.18,7.87-.78,11.54-2.1a1.67,1.67,0,0,1,.79-.13c2.36.39,4.59-.39,7,0,2,.39,4.2.53,6.16.92a15.21,15.21,0,0,0,4.33.53,18.85,18.85,0,0,1,3.8.39c2.76.39,5.78.26,8.27,1.44,2.62-.26,5.38.4,7.86.53,3.81.26,7.35.91,10.5,3a16.91,16.91,0,0,0,2.62,1.44l2.75,1.18a12.33,12.33,0,0,0,3.29.92,5.2,5.2,0,0,0,2.49-.13,2.85,2.85,0,0,0,1-.66c.14.53.66.66,1.58.4.13,0,.39-.14.52-.14a19.79,19.79,0,0,0-1.83,3.8,34.11,34.11,0,0,1-1.71,4.2l-.39.79-.66,1.18c-.39.78-.78,1.57-1.18,2.48a6.49,6.49,0,0,1-1,1.58c-1.83,2.36-3.8,4.72-5.64,7.08-3.93,5-7.73,9.83-11.8,14.42-2.62,2.88-4.2,6.29-6.56,9.31l-4.32,5.89a29.71,29.71,0,0,1-2.36,3.15c-2.23,2.23-4.6,4.32-7,6.29-4.33,3.67-8.65,7.34-12.85,11a26.59,26.59,0,0,1-5.64,3.8c-1.84.92-3.8,1.7-5.9,2.62-2.49,1-5.11,2.5-7.87,3.8-.39.27-.91.53-1.31.79a4.06,4.06,0,0,0-.92.66c-.65.39-1.18.91-1.84,1.31-1.31.78-2.75,1.83-4.19,2.75-2.1,1.18-4.46,2.62-6.42,3.93l-6.17,3.93c-2.23,1.45-4.33,2.89-6.56,4.2a80.11,80.11,0,0,1-13.11,6.29,43,43,0,0,1-7.87,2l-1.71.13h-1.7a23.75,23.75,0,0,1-3.15-.26,22,22,0,0,1-6.95-2.23c-.78-.53-1.57-.92-2.1-1.32-.13-.13-.26-.26-.39-.26s-.26-.13-.39-.26a.68.68,0,0,1-.27-.52.8.8,0,0,1-.13-.53c.13-1-.53-2.36-.13-3.67s-.53-3-.4-4.45a8.22,8.22,0,0,0,0-2.62c-.13-.79-.26-1.84-.39-2.63-.39-1.7-.91-3.14-1.31-4.58C481.9,1130.29,481.64,1129.64,481.77,1129.51Zm195.8-90.32a1.71,1.71,0,0,1-.13.79,2.77,2.77,0,0,1-.13.66c0,.26-.13.26-.13.52v.13l-.13.13-.39.52a29.39,29.39,0,0,1-2,2.63c-1.45,1.83-3,3.79-4.72,5.76-2.76,3.41-6.43,5.77-9.71,8.52-2,1.58-3.67,3.41-5.77,4.85a28.16,28.16,0,0,0-3.41,3.41,42.29,42.29,0,0,1-3.28,3.54c-1.57,1.57-3,3.15-4.59,4.72l-4.72,4.72c-1.83,1.83-3.41,3.8-5.11,5.5-3.28,3.41-6.56,6.69-9.84,9.57l-1.44,1.18-1.57,1.31c-1.06.79-2.1,1.57-3.29,2.36-2,1.31-3.93,2.49-6,3.67-2.49,1.45-5.11,3-7.74,4.59-1.17.79-2.23,1.57-3.4,2.49s-2.37,2.1-3.41,2.36c-1.58.39-2.76,1.57-4.33,2s-2.76,2.09-3.93,2.75c-3.29,1.57-5,4.19-7.09,6.42-.26.27-.65.92-.91.92-2,.39-2.76,2.1-3.94,3.28a19.72,19.72,0,0,1-6.82,4.58,11.75,11.75,0,0,0-3.28,1.84,36,36,0,0,0-6.29,6.42,11.51,11.51,0,0,1-2.23,2.1c-2.24,2-4.46,3.8-6.69,5.51a35.12,35.12,0,0,1-3.55,2.49l-3.8,2.49a37.28,37.28,0,0,1-11.67,5.76,7.84,7.84,0,0,0-1.57.66c-2.63,1.31-5.12,2.75-7.74,3.93-3.54,1.7-7.08,3.28-10.75,4.85-1.31.65-2.76,1.05-4.2,1.71s-2.76,1.17-4.2,1.83c-3.27,1.7-6.56,3.41-9.57,5.11-2.23,1.31-4.2,2.75-6.82,3.41-2.1.52-4.07,1.57-6,2.23a16.68,16.68,0,0,1-5.11.65h-2.49a14.11,14.11,0,0,0-2.36.14c-.13,0-.52,0-.65-.14-1.71-1-3.94-1-5.65-2.36a25,25,0,0,1-3.93-3.4c-.79-1-.79-1.58-1.31-2.1l-.14-.13a1.08,1.08,0,0,1-.13-.92v-.39a1.19,1.19,0,0,1,.13-.66c.14-1.84.27-4.46,1.71-6.42a7.6,7.6,0,0,1,.66-3,31.34,31.34,0,0,1,1.31-3.15,15.53,15.53,0,0,1,5.77-7.73c.39-.27.65-.4,1.05-.66a4.06,4.06,0,0,1,.92-.66c.65-.52,1.44-1.17,2.22-1.83a6.56,6.56,0,0,0,1.32-1.31,19.65,19.65,0,0,0,.65,2.62,10.79,10.79,0,0,0,1.84,3.41,11.64,11.64,0,0,0,6.16,4.06c1.45.4,3,.79,4.46,1.31a31.16,31.16,0,0,0,10.36,1.18c3.41-.13,6.82-.39,10.23-.66a18,18,0,0,0,3.67-.65c1.18-.39,2.5-.78,3.67-1.18,5.25-2,10.24-4.72,15-7.08a86.72,86.72,0,0,0,7.6-4.46c2.1-1.3,4.2-2.62,6.3-3.66s4.46-2.23,6.69-3.67c.92-.53,2-1.19,2.88-1.84l1.31-.78,1.19-.79a50.62,50.62,0,0,1,5.37-2.63c1.31-.65,2.63-1.17,4.07-2s2.75-1.44,4.06-2.23c2.63-1.57,5.25-3.14,7.74-4.85l-.13-.26c2.23-1.71,4.46-3.28,6.56-5.11.91-.79,1.57-1.71,2.36-2.49,1.84-2.1,3.67-4.2,5.51-6.42a43.94,43.94,0,0,1,3.67-3.55,114.56,114.56,0,0,0,16.13-22.28,44.57,44.57,0,0,1,2.76-4.19,129,129,0,0,0,8.39-14,66,66,0,0,0,3.28-8.39c.91-2.75,1.3-5.24,2.36-8.13a11.58,11.58,0,0,0,.65-4.85.45.45,0,0,0,.26-.13c2.63-1.31,5.77-2.09,8.66-3.8a5.82,5.82,0,0,1,1.57-.65c2.76-.66,5.77-1.31,8.53-2.23,5.64-1.84,11-3.67,15.74-4.2a33.22,33.22,0,0,0,4.06-.65,19.93,19.93,0,0,1,3.8-.39,10.13,10.13,0,0,1,3.54.78c.27.13.53.13.79.26a1.25,1.25,0,0,1,.66.53,9.1,9.1,0,0,1,.65,2.23A7.41,7.41,0,0,1,677.57,1039.19Zm77.51-124.52c0-5.25,0-10.49-.13-15.73,0-2.1-.39-4.33-.52-6.42-.4-5.38-1-10.62-1.45-16-.26-3.14-.13-6.55-.39-9.7-.52-8.78-1.18-17.56-1.83-26.35q-.6-6.48-1.19-13c-.26-2.23-.52-4.33-.65-6.42s-.39-4.2-.66-6.43c-.26-3.14-.39-6.42-.52-9.7-.53-10.61-1-21.36-2.63-31.59a133.94,133.94,0,0,0-3.8-16.78c-.91-2.75-1.57-5.5-2.36-8.12a67.57,67.57,0,0,0-2.62-7.74c-1.57-4.06-3.54-5.37-5.12-5.5a1.33,1.33,0,0,0-1.05.66c0,.13-.13.39-.13.52v.26c0,.13.13.26.13.39s.14.4.27.66.26.39.39.65a7.68,7.68,0,0,1,.65,1.84,9.23,9.23,0,0,1,.66,2.1l.4,1.05.39,1.18c2,6,2.75,13.11,4.46,19.79a28.94,28.94,0,0,1,.52,3.54c.4,5.77.4,11.53.53,17.43.13,6.16.13,12.19.13,18.35l-.13,9.31v9.44c.13,7.86,1.31,15.07,1.83,22.67.4,4.85.79,9.84,1.31,14.68.27,2.62.79,5.25.92,7.87.27,6.16.27,12.32.27,18.48,0,11.4.39,22.81,1,34.08.53,9.57-.13,18.35-.52,27.27-.13,5.24-.26,10.61-.65,15.86-.27,3.14,0,6.81,0,10.22s.26,6.82.26,10.36c.13,9.43.13,18.74.26,28.18,0,5.24.13,10.35.13,15.6,0,10.09-.13,20.18-.26,30.28-.13,5.89-.13,11.79-.39,17.82-.14,5-.53,10.09-.93,15.08l-1.17,18.87c-.13,2.88-.13,5.77-.27,8.78s.14,6.43-.39,8.53c-.66,3-.53,6.55-1.31,9.3-.92,3-.4,7.08-.79,10-1.18,7.48-.53,13.64-.26,20.19a17.22,17.22,0,0,1,0,2.62c-1,3.8-.53,7.47-.53,10.88a80.26,80.26,0,0,1-1.7,17.17,38.27,38.27,0,0,0-1,7.74c-.13,3.14-.26,6.42-.39,9.56,0,1.45,0,3-.14,4.46s-.13,2.62-.13,3.8a9.28,9.28,0,0,1-1.44,4.07,6.26,6.26,0,0,1-1.83,1.83,9,9,0,0,1-3,1.18,53.18,53.18,0,0,1-8.65,1c-3.16.13-6.56.39-9.84.78l-2.49.4-2.37.39-4.72.79a182.43,182.43,0,0,1-27.67,3,35,35,0,0,0-3.54.26c-6.16.79-12.2,1.71-18.36,2.49-8.4,1.06-16.66,2-24.92,3-6.29.79-12.59,1.18-18.88,2.1-7.74,1.17-15.61,2.49-23.21,3.93-5.52,1-10.63,2.36-16.53,2.89-4.72.52-9.57,1.44-14.3,2.35-7.47,1.31-15.73,1.31-22.95,3a5.41,5.41,0,0,1-1.44.13c-4.46-.26-9,.79-13.64.66-3.93-.27-8.13-.14-12.07-.4a45.84,45.84,0,0,0-8.52-.13,76.8,76.8,0,0,1-7.74,0c-5.64,0-11.54.66-16.91,0-5.12.79-10.76.92-16,1.7-5,.66-9.84,1.19-14.69,1.58-.53-2.75-1.44-5.51-1.44-8.52a33.05,33.05,0,0,0-1.45-8.65,45.63,45.63,0,0,1-1.31-7.34c-.13-1.32-.13-3.15-.66-4.07-.91-1.44-.65-2.49-.65-3.8v-2.23c0-4.19-1.57-8.39-2.1-12.58-.26-2.62-1.31-5.25-1.83-7.87a15.38,15.38,0,0,0-1.45-4.32,8.32,8.32,0,0,1-1.31-5.11,5.62,5.62,0,0,0-.4-2c-1.83-8.78-5.24-16.52-8.13-23.86-2.22-5.37-3-11.27-4.06-17.17-.79-4.85-1.45-9.7-2.23-14.55-.13-.52-.39-.92-.52-1.44-.79-2.1-1.32-4.59-.66-6.42,1.31-4.07.39-8.52-.66-12.72-1.05-4.46-2.49-8.78-3.14-13.37-.27-1.7-.79-3.4-1.18-5-.66-3.14-1.84-6.42-1.84-9.3,0-3.15-1.05-6.17-1.18-9.31a48.63,48.63,0,0,0-1.44-8.52c-.79-3.54-1.31-7.34-3.15-10.49a4.4,4.4,0,0,1-.39-2,41.74,41.74,0,0,0-2.89-12.18,22,22,0,0,1-1.31-4.2c-1.31-6.68-3-13.23-3-20a50.41,50.41,0,0,0-.78-7.48c-.92-5.5-2.1-11-2.76-16.51-.39-3-.92-6-1.57-9-1.05-5.12-1.84-10.23-2.76-15.34-.78-4.33-1.31-8.52-1.7-12.85-.53-6-1.18-12.19-1.84-18.21h-.39c-.4-2.76-.79-5.65-1.18-8.4a24,24,0,0,0-.92-3.27c-.78-2.76-1.57-5.51-2.36-8.39-.39-1.71-.52-3.41-.92-5.12-.92-4.58-2-9.3-3.15-13.89s-2.75-9.17-4.32-13.63c-.66-1.58-1.05-3.28-1.58-5-1.57-5.51-3-11.14-5-16.39a64,64,0,0,0-3.93-8.52,34.19,34.19,0,0,1-3-8.78,8.06,8.06,0,0,0-2.49-4.72c-1.05-1-1.84-.78-1.84,1.18a31.29,31.29,0,0,0,.39,6c.92,3.8,1.58,7.73,3.15,11.28a8,8,0,0,1,.53,2c.52,3.15.91,6.29,1.44,9.44,1.18,6.55,2.49,13.11,3.54,19.53a37,37,0,0,0,1.44,5.76c.26.93.53,1.71.79,2.63s.53,2,.79,3c.65,2.62,1.31,5.11,2,7.73.4,1.45,1,2.76,1.32,4.07.52,3.28.91,6.55,1.3,9.83a164.39,164.39,0,0,0,3.29,18.09c1.18,5,1.18,9.83,1.57,14.68.26,2.89.65,5.77.78,8.65a26,26,0,0,0,.92,5.38c.4,1.83.92,3.67,1.31,5.5L374.63,997c.65,2.75,1.3,5.51,1.83,8.26,1.18,5.37,2.23,10.62,3.41,16,.66,3.15,1.44,6.3,2,9.44.52,2.62.79,5.38,1.18,8.13.52,3.41,1.05,6.68,1.57,10.09.26,1.57.79,3,1.05,4.59s1.18,3.28,1.05,4.46c-.26,1.7.39,3.53.13,5.11-.39,1.83.78,3.8.78,5.37.14,4.06,1.71,7.08,3,10.49.13.52.52,1,.52,1.31-.39,2.23.78,3.93,1.44,5.63A24.94,24.94,0,0,1,394,1095a14.42,14.42,0,0,0,.4,4.19c1,3.28,1.7,6.69,3.27,9.71a12.91,12.91,0,0,1,1.06,3.4c1.83,6.56,3.27,13.24,4.71,19.93,1.06,5,2,9.83,1.58,14.81a10.09,10.09,0,0,0,.13,2l1.58,10,1,6.82c.4,2.36.79,4.59,1.31,7,.66,3.41,1.19,6.82,2.1,10.09,1.19,4.07,2.36,8,3.55,11.8a58,58,0,0,1,2.48,8.78,56.78,56.78,0,0,0,2.1,7.61c1.32,3.93,1.32,8.39,3.15,12.18.14.27.27.53.14.79-.14,2.5,1.17,4.85,1.17,7.34,0,2.23.4,4.46.4,6.56a13.21,13.21,0,0,0,.39,4.45,20.52,20.52,0,0,1,.39,4.07c.26,3,1.18,6,.79,9a30.66,30.66,0,0,1,1.44,5,75.09,75.09,0,0,0-9.44,1c-.79.13-1.57.27-2.23.4a20.64,20.64,0,0,0,.39-2.49,55.77,55.77,0,0,0-1-11.67c-1.58-6.82-2.23-14-3.68-21a16.74,16.74,0,0,1-.39-3.68c-.39-6-.52-12-1.18-18.21-.4-3.28-.66-6.43-1.31-9.84s-1.18-6.42-1.84-9.57a72.26,72.26,0,0,1-1.44-8.78l-.39-4.59-.4-4.71c-.66-8-2.23-15.21-3.41-22.94-.65-5-1.57-10-2.49-14.94-.52-2.76-1.31-5.25-1.7-8-.53-3.15-.92-6.29-1.45-9.44s-1.18-6.55-1.83-9.57c-1.18-5.77-2.62-11.4-3.68-16.78-.52-2.88-1-5.63-1.57-8.52s-1.18-5.63-1.7-8.52c-2.1-9.57-2.89-18.61-4.07-27.65-.79-5.25-1.7-10.75-2.36-16.12a101,101,0,0,0-2-10.23c-.79-3.41-1.57-6.82-2.23-10.36-2-9.43-3.93-18.74-5.77-28.18-1-5.24-2.23-10.35-3.27-15.6-2-10.09-3.94-20.18-5.78-30.27-1.05-6-2.35-12.07-3.67-18-1.05-5.12-2.1-10.23-3.28-15.34-1.44-6.29-3-12.71-4.72-19-.78-2.88-1.84-5.76-2.88-8.65-.53-1.44-1.05-2.88-1.71-4.59a35.46,35.46,0,0,1-1.57-4.06c-.79-3.27-2.75-6.55-3.41-9.18a21.2,21.2,0,0,0-1.58-4.32l-.78-2-.14-.39v-.13c.27-.13.27-.13.27-.26a1,1,0,0,1,.13-.52c-.4-.13,1.18-.4,2.23-.53s2.1-.39,3.15-.66,2.09-.52,2.62-.52c3.93.39,7.6-.92,11-1.44a103.46,103.46,0,0,1,17.7-1.7,42.89,42.89,0,0,0,8.13-.66c3.28-.66,6.56-1.31,9.71-2a44.08,44.08,0,0,0,9.7-3.27c1.84-.92,4.33-1.71,6.43-2.49,6.3-2.36,12.2-5,18.1-7.08a85.34,85.34,0,0,1,8.91-2.63c3-.65,6-1.17,9.32-1.57,4.72-.65,9.57-1,14.42-1.83a133.89,133.89,0,0,1,14-1.58,20.92,20.92,0,0,0,3.68-.52c6.16-1.05,12.45-2.23,18.62-3.28,8.39-1.44,16.92-2.88,25.31-4.19a196.27,196.27,0,0,0,19.41-3.8,215,215,0,0,0,23.08-7.61c5.38-2.09,10.23-4.45,16.13-6.42,2.36-.79,4.59-1.7,6.82-2.62s4.47-1.84,6.82-2.75c7.22-2.75,15.61-4.07,22.56-7.21a5.93,5.93,0,0,1,1.44-.39c4.59-.79,8.92-3,13.51-4.07,3.94-.92,8-2.22,11.94-3.28a64.93,64.93,0,0,0,8.39-2.62c2.23-1,5-1.7,7.48-2.62,5.5-1.84,10.88-4.59,16.26-5.77,4.72-2.49,10.1-4.45,14.82-6.68,3.54-1.7,7-3.15,10.36-4.46,1.7-.65,3.54-1.31,5.37-1.83l2.76-.79c.92-.26,2-.52,2.89-.78a112.07,112.07,0,0,0,11.93-4.33c5.24-2.23,8.52-4.46,9.57-6,.14-.26.27-.39.4-.65v-.53c.13-.4.52-.66.13-1.05-.13-.26-.79-.26-.79-.39a4.46,4.46,0,0,0-.79-.39,8.08,8.08,0,0,0-2.1-.4c-1.44-.13-2.88-.39-4.58-.39a15.81,15.81,0,0,0-4.07.39c-3.67.79-7.35,1.7-11.15,2.76a36.77,36.77,0,0,0-3.93,1.17c-6.56,3.28-14,5.77-21,8.39-5.91,2.23-11.42,5.11-17.71,7.08a151,151,0,0,0-15.48,6.16,112,112,0,0,1-12.58,4.85c-2.5.79-5.91,1.57-7.35,2.49-2.75,1.7-4.72,1.83-6.95,2.23-1.31.26-2.63.53-3.93.92-7.61,1.57-15.35,4.33-23.35,6.16a134.25,134.25,0,0,0-15.08,5c-.79.26-1.44.52-2.23.78l-2,.79a34.24,34.24,0,0,0-3.8,1.84,26.32,26.32,0,0,1-9.31,3.67c-1.06.26-2.36.78-3.55,1.18-7.47,2.62-14.81,5.11-22.16,7.47-3.67,1.18-7.35,2.36-11,3.41l-5.5,1.57c-1.84.52-3.67.92-5.64,1.44-10.89,2.88-22,4.85-33.19,6.95-4.58.78-9.17,1.7-13.76,2.49l-6.95,1.18c-2.36.39-4.59.92-6.82,1.18-.92.13-1.71.52-2.63.65-4.06.92-8.78,1.44-12.2.92a32,32,0,0,0-12.06.65,99.91,99.91,0,0,0-12.07,3.81c-8.13,3.14-15.73,6.68-24,8.39-3,.52-6.16,1.31-9.44,1.83-5.9,1.05-12.33,2.36-17.83,2.49-1.44,0-2.89.14-4.2.27a31.35,31.35,0,0,1,5.25-2.49,34.23,34.23,0,0,0,7.6-3.81,39.37,39.37,0,0,1,6.17-3.14c1.31-.53,3-.92,3.67-1.7,1.18-1.32,2.23-1.32,3.41-1.71a13,13,0,0,0,2.1-.65c4.06-1.32,7.34-4.07,11.14-5.91a71.15,71.15,0,0,0,6.69-4.32,11.6,11.6,0,0,0,3.41-2.75,7.32,7.32,0,0,1,4.2-3,10.91,10.91,0,0,0,1.7-.92A176.51,176.51,0,0,0,436.4,786c4.45-3.8,9.3-6.82,14.16-10.1,3.93-2.75,7.87-5.37,11.8-8.26.4-.26.66-.78.92-1,1.57-1.58,3.28-3.15,5.25-3.54,4.06-.79,7.34-3.67,10.49-6.43a121.33,121.33,0,0,1,10-8.38c1.32-.92,2.49-2.1,3.81-3,2.36-1.84,4.85-4.06,7.47-5s5.25-2.88,7.87-3.93a54.64,54.64,0,0,0,7.34-3.67c3-1.7,6.43-3.15,8.79-5.64A5.51,5.51,0,0,1,526,726a31.29,31.29,0,0,0,10.49-6.15,31.44,31.44,0,0,1,3.41-2.5c2.89-1.57,5.64-3.41,8.39-5.11,1.44-.92,2.76-1.7,4.2-2.62a14.67,14.67,0,0,1,4.2-1.84,44.79,44.79,0,0,0,6.81-2.88c.66-.39,1.32-.78,2-1.18l1.71-1.18,3.41-2.36c2.23-1.57,4.46-3.15,6.68-4.58q3.75-2.57,7.09-5.12c3.93-3,8.13-5.76,12.2-8.52a70.8,70.8,0,0,1,10.62-6c2.23-1.05,4.59-2.23,7-3.14v.78a28.2,28.2,0,0,0,.39,3.28c.4,2.75.79,5.51,1.18,8.26.13,1.57,0,3.27.13,5,.4,9.57,2.36,18.61,4.6,27.26.39,1.57.65,3.28.91,4.85.79,5.37,1.05,10.88,2,16.25a65.84,65.84,0,0,0,2,8.79,33.39,33.39,0,0,1,1.06,8.78,6.75,6.75,0,0,0,1.44,4.72c.92,1.05,1.57.92,2-.65a25.08,25.08,0,0,0,.79-5.51c0-3.67.27-7.47-.52-11.14a9.4,9.4,0,0,1-.13-2c.26-3.15.52-6.29.52-9.44s0-6.68-.13-10-.39-6.55-.53-9.83c-.26-4.06-1.44-7.6-2.1-11.4-.39-2.36-.78-4.85-1.17-7.21a20.46,20.46,0,0,1-.66-3.81c-.13-3.27,0-6.42,0-9.69V672a4.28,4.28,0,0,1,.13-.92c.13-.65.26-1.57.53-2.88a15.82,15.82,0,0,0,0-2.49,8.37,8.37,0,0,0-1.32-3.54,3.48,3.48,0,0,0-.65-.79l-.79-.78-.39-.4a5,5,0,0,0-2.23-1c-.13,0-.39-.13-.52-.13h-2l-.53.13h-.39a9.1,9.1,0,0,0-1.84.79c-1.17.66-2.49,1.18-3.67,1.84s-2.23,1-3.41,1.57c-2.23.92-4.46,1.83-6.56,2.75-2.62,1.18-5.11,2.76-7.73,3.8a25.06,25.06,0,0,0-4.59,3c-1.44,1-2.89,2.23-4.33,3.4-3.94,3-7.87,6-11.67,9-2.1,1.7-4.2,3.41-6.3,5s-4.07,3.15-6.16,4.59l-1.58,1.18a10.79,10.79,0,0,1-1.31.78,31.07,31.07,0,0,1-3.15,1.71c-1.31.65-2.88,1.57-4.45,2.49l-1.19.79-1,.78L546.82,704a64.17,64.17,0,0,1-6.56,3.8c-2.75,1.58-5.63,3-8.39,4.46-1.31.66-2.49,1.57-3.8,2.23s-2.76,2-3.81,2.09c-1.57.27-3.15,1.32-4.72,1.45s-3.28,1.7-4.72,2.23c-3.8,1.18-6.16,3.54-8.92,5.76-.39.27-.92.79-1.18.92-2.23.26-3.41,2-4.85,3a31.15,31.15,0,0,1-8.13,4.59,13.25,13.25,0,0,0-3.81,2c-2.62,2.23-5.37,4.32-7.34,7a21.93,21.93,0,0,1-2.49,2.36c-5,4.45-10,8.91-14.82,13.1-3.68,3.15-7.48,6-11.94,7.74a10.23,10.23,0,0,0-1.57.91c-2.62,1.71-5.24,3.55-7.87,5.25-3.67,2.23-7.34,4.46-11.14,6.55-2.89,1.57-5.91,2.89-8.66,4.59-3.41,2.1-7,4.46-10.1,6.82-2.36,1.7-4.33,3.67-7.08,5.11a34.06,34.06,0,0,0-6,4.45c-3.15,2.49-7.22,3.94-10,6.82a1.1,1.1,0,0,1-.66.39c-2.23.66-4.06,2.5-6.29,3.28-2,.66-3.94,1.44-5.9,2.1a11.82,11.82,0,0,0-4.07,1.57,29.56,29.56,0,0,1-3.67,1.57c-2.76,1.06-5.25,2.89-8.13,3.28-2.1,1.71-4.73,2.89-7,4.33a54.44,54.44,0,0,1-10.61,5.76,14.32,14.32,0,0,0-3.29,1.84c.66-2.23,2.36-4.2,3.81-6.16s2.49-4.06,4.59-5.63a22.3,22.3,0,0,0,4.46-4.72A20.45,20.45,0,0,1,356,811c.79-.65,2.1-1.31,2.36-2,.53-1.31,1.31-1.45,2.23-2l1.58-.78c2.88-1.58,4.85-4.33,7.47-6.43a48.53,48.53,0,0,0,4.33-4.58,9.17,9.17,0,0,0,2.1-2.89,5.34,5.34,0,0,1,2.75-3.15,9.07,9.07,0,0,0,1.18-1,108.85,108.85,0,0,0,12.07-15.08A87.58,87.58,0,0,1,401,762.48c2.62-2.75,5.12-5.63,7.74-8.39.26-.26.26-.65.52-1,.93-1.58,2.1-3,3.68-3.41,3.41-.79,5.51-3.54,7.61-6.16a78,78,0,0,1,6.81-8c.92-.92,1.71-2.09,2.63-3,1.57-1.84,3-4.2,5-5.38,2.1-1.44,3.41-3.41,5.38-4.85a32.82,32.82,0,0,0,4.72-4.71c1.84-2.1,4.06-4.2,4.85-6.95a2.62,2.62,0,0,1,.92-1.18,21.34,21.34,0,0,0,6-7.6,17.86,17.86,0,0,1,1.84-2.89c3.41-3.93,6.42-8.26,10.75-11.27a24.08,24.08,0,0,0,4.2-4.07c2.89-3.27,5.51-6.55,8.39-9.69,1.57-1.71,3-3.55,4.6-5.38,2.48-3.15,5.11-6.16,7.73-9.18a69,69,0,0,1,6.95-6.94l.66-.53.26-.26.53-.39a7.76,7.76,0,0,1,.91-.53,4,4,0,0,1,1.44-.52l.13-.66c.14-.13.27-.13.53-.13s.13.53.13.66v.65c0,.27.27.13.4.27a3.34,3.34,0,0,1,1,1.83.48.48,0,0,0,.13.39v.66a10.09,10.09,0,0,0,.13,2l.27,2.75c.13.92.26,2,.39,2.88.4,2,.79,3.8,1.31,5.64a106.11,106.11,0,0,0,4.07,10.22A38.41,38.41,0,0,1,515,681c1.31,4.07,2,8.39,3.15,12.59.66,2.36,1.57,4.72,2.36,6.94a19.27,19.27,0,0,1,1.31,7.08,4.7,4.7,0,0,0,1.57,3.8c.92.92,1.58.79,2-.52a17.87,17.87,0,0,0,.79-4.59c-.13-3,0-6.16-.92-9.18a6.37,6.37,0,0,1-.13-1.57,76.69,76.69,0,0,0-.13-7.73c-.26-2.75-.52-5.5-1-8.26s-1-5.37-1.44-7.86c-.53-3.15-2.1-5.64-2.89-8.39-.52-1.84-.91-3.41-1.31-5.11a24.21,24.21,0,0,1-.79-3.28l-.26-5.11-.39-6.69a25.07,25.07,0,0,0-1-6,7.45,7.45,0,0,0-1-2l-1.18-1.57a8.44,8.44,0,0,0-1.18-.92.45.45,0,0,0-.26-.13h-.14c0,.13.14-.26-.13.26-.13,0-.39-.13-.52-.13s-.52-.13-.79-.13a5.69,5.69,0,0,0-3.15.66c-1,.53-2.23,1.18-3.27,1.83s-2.37,1.71-3.54,2.63-2.36,2-3.68,3L495,642.15l-.92.79-.79-.13-.26.26c-1.71,1.44-3.28,3.15-5.12,4.46a8.93,8.93,0,0,0-1.57,1.57c-.39.53-.92,1.18-1.31,1.71-.92,1.17-1.71,2.36-2.49,3.53l-7.22,9.31c-1.31,1.7-2.49,3.54-3.8,5.25l-7.74,9.82c-1.57,2-3,3.94-4.59,5.77-1.31,1.57-2.88,3-4.32,4.59-1.84,1.84-3.55,3.8-5.38,5.63-.79.93-1.44,1.84-2.23,2.89s-1.44,2.36-2.23,2.75c-1.18.53-2,1.84-3.15,2.36s-1.83,2.23-2.88,2.88c-2.62,1.84-3.55,4.33-4.86,6.82-.13.4-.39.92-.52.92-1.71.65-2.1,2.36-2.88,3.54a15.58,15.58,0,0,1-5.12,5,6.46,6.46,0,0,0-2.49,2.1c-1.45,2.09-3.28,4.19-4.33,6.55a8.48,8.48,0,0,1-1.58,2.23c-3.27,4.19-6.55,8.25-10,12.45-2.36,3-4.85,6-8.26,8a7.55,7.55,0,0,0-1,.91c-1.71,1.84-3.41,3.68-5.25,5.51q-3.74,3.74-7.48,7.08c-2,1.7-4.06,3.27-5.9,5.11-2.23,2.36-4.45,4.72-6.42,7.21-1.45,1.83-2.49,3.67-4.46,5.38a25.41,25.41,0,0,0-3.93,4.58c-2,2.49-5,4.33-6.43,7.21-.13.13-.26.39-.4.39-1.7.92-2.62,2.76-4.32,3.8-1.45.79-2.89,2-4.33,2.76a7.89,7.89,0,0,0-2.89,2.23,17.9,17.9,0,0,1-2.49,2.09c-1.83,1.58-3.14,3.67-5.37,4.85-1.06,2.1-2.63,3.8-3.67,5.77a36.57,36.57,0,0,1-5.39,8.13,13,13,0,0,0-2.61,5,13.23,13.23,0,0,0-.4,2.1c-.66.13-1.31.13-2,.26-.26.26-.13.92-.13,1.44l.13,1.71a27.9,27.9,0,0,0,.27,3.27c.13,1,.26,2.23.39,3.28s.52,2.23.78,3.28a16.49,16.49,0,0,0,.93,2.48c.26.79.65,1.45.91,2.1a23.18,23.18,0,0,0,2.36,3.81,16.08,16.08,0,0,1,1.7,3.4c1.58,3.8,3,7.21,4.33,10.75s2.76,7.34,4.2,11a67.12,67.12,0,0,1,2.76,7.74c3.41,12.31,6.68,24.77,7.74,37.22.13,2.23.52,4.59.78,7s.66,4.85,1,7.21c1.7,10.49,3.67,21,5.38,31.33.92,5.77,2,11.4,3.14,17,2,9.69,3.68,19.4,5.65,29.1,1.57,8.12,2.88,16.12,4.06,24.25,1.71,11.4,3.41,22.8,5,34.21h.4l1.17,7.86.66,4.07c.26,1.44.53,2.75.79,4.06.52,2.23,1.18,4.32,1.84,6.42,1.57,5.25,3.27,10.36,4.45,15.47.66,3.15,1,6.42,1.58,9.7,2.88,17.57,5.11,35.39,8.52,52.69.52,3.15,1.32,6.56,2.1,9.83,1.31,5.25,2.75,10.49,3.54,15.73s1.71,10.62,2.49,15.73a170.81,170.81,0,0,0,3.68,17.17c.78,2.75,1.44,5.64,2.09,8.39s1.32,5.51,2,8.39a42.39,42.39,0,0,0,2.89,9.57,3.9,3.9,0,0,0,.52,1c-8.39,2-10.62,5-5,6.82,1.44.52,2.75.91,4.19,1.43a15.05,15.05,0,0,0,3.94.66c3.54.13,7.34.13,11,.27h1.31a24,24,0,0,1,.26,4.32,25,25,0,0,0,1.18,6.69c.79,2.88,2.23,4.85,3.54,5.37s2.75,0,3.81-1.84a15.88,15.88,0,0,0,1.44-2.49,5.57,5.57,0,0,0,.65-2.23c.13-2,.26-3.93.26-6a6,6,0,0,0-.13-2.22,28,28,0,0,1-1.05-2.89c4.86-.52,9.84-.78,14.56-1,6.17-.4,12.07-1.18,18.49-1a136,136,0,0,0,16.26-.66c4.59-.39,8.92-.52,13.38-.52,2.62,0,6,.26,7.74-.13a17.44,17.44,0,0,1,7.34-.14c1.32.14,2.76.14,4.2.27,8,.39,16.13-1,24.26-1.57,5-.27,10.1-1.32,15.21-2a42.83,42.83,0,0,0,8.4-1.71,31,31,0,0,1,9.83-1.7,36.19,36.19,0,0,0,3.68-.4c15.61-2.22,30.69-5.24,45.38-8.51,10.75-2.37,21.77-3.8,32.78-5.38,9.05-1.31,18.23-2.49,27.28-3.8.92-.13,1.71-.52,2.62-.65,4.07-.92,8.66-1.71,11.94-1.32,1.83.27,3.67.27,5.51.4h5.64a101.44,101.44,0,0,0,12.33-.66,24.6,24.6,0,0,0,7.07-2,17.34,17.34,0,0,0,3.41-2.09,19.21,19.21,0,0,0,2.76-2.89,21.36,21.36,0,0,0,3.15-6.81,45.38,45.38,0,0,0,1.18-6.82c.39-3.14.39-6.42.65-9.56.39-5.9.39-12.46,1.31-17.7,1.05-5.77,1.05-11.54,2-17.3a159,159,0,0,0,1.31-16.13c.4-6.81,1-13.89.13-20.32a17.83,17.83,0,0,1,.13-3.66,125.11,125.11,0,0,0,.66-23.34c-.13-2.49-.26-5.37-.13-8.12.53-12.58.66-25.3,2.23-37.49.52-4.33.78-9.31.92-13.9.13-5.24.26-10.35.52-15.6s.26-10.35.53-15.59c.26-5.77.26-11.28.26-17,0-9.7.13-19.4.13-29.1,0-8.13.13-16.12.39-24.25.39-11.28.53-22.68.79-34.08ZM619.34,663.91Z" transform="translate(-324.1 -632.42)"/></g></svg>