<svg id="Livello_1" data-name="Livello 1" xmlns="http://www.w3.org/2000/svg" viewBox="0 0 195.24 195.24"><defs><style>.cls-1{fill:#f6eee3;}.cls-2{fill:#cc0b36;}</style></defs><path class="cls-1" d="M311,185.24l-100,100a37.51,37.51,0,1,1-37.5-37.5l100-100a26.52,26.52,0,0,1,37.5,37.5Z" transform="translate(-129.79 -133.75)"/><path class="cls-2" d="M284.2,183.41l-8.84-8.83-93.79,93.79a18.56,18.56,0,0,0-8-1.88,18.75,18.75,0,1,0,18.75,18.75,18.52,18.52,0,0,0-1.88-8Z" transform="translate(-129.79 -133.75)"/><path class="cls-2" d="M315.45,143.33a32.8,32.8,0,0,0-46.34,0l-98.25,98.25A43.77,43.77,0,0,0,164.17,328a45.94,45.94,0,0,0,9.29,1,43.77,43.77,0,0,0,43.74-41.07l98.25-98.25A32.8,32.8,0,0,0,315.45,143.33Zm-8.84,37.5-100,100a6.2,6.2,0,0,0-1.83,4.41,31.18,31.18,0,0,1-11.58,24.28,31.63,31.63,0,0,1-26.47,6.26A31.09,31.09,0,0,1,143,292.05a31.52,31.52,0,0,1,6.27-26.47A31.16,31.16,0,0,1,173.53,254a6.23,6.23,0,0,0,4.42-1.83l100-100a20.27,20.27,0,0,1,28.66,28.67Z" transform="translate(-129.79 -133.75)"/></svg>