<svg id="Livello_1" data-name="Livello 1" xmlns="http://www.w3.org/2000/svg" viewBox="0 0 823.55 272.89"><defs><style>.cls-1,.cls-2{fill:#cc0b36;}.cls-2{fill-rule:evenodd;}.cls-3{fill:#f8f8f8;}</style></defs><path class="cls-1" d="M117.32,1320.33c11.53-1.55,62.2-3.52,78.21,0a62.1,62.1,0,0,1,18.5,7.56,39.64,39.64,0,0,0,12.6,5.29c9.57,1.84,32.92,2.49,50,2.49h27.26a73.92,73.92,0,0,1-7.71-2c-7.88-2.56-24.28-8.92-30-14.61a11.9,11.9,0,0,1-2.76-4.95,12.33,12.33,0,0,1-.42-2.83,11.87,11.87,0,0,1,.26-2.85,72.07,72.07,0,0,1-8.7.56,59.91,59.91,0,0,1-8.45-.59,1.23,1.23,0,0,1-1-1.39,1.16,1.16,0,0,1,.48-.8,1.09,1.09,0,0,1,.9-.23,64.22,64.22,0,0,0,18.21-.19,106,106,0,0,0,27.46-8.18,90.92,90.92,0,0,0,13.67-7.37c.36-.24.73-.51,1.09-.78a.41.41,0,0,1,.11-.07,109.89,109.89,0,0,0,8.76-7.52c5.65-5.19,11-10.09,15.63-10.09,5.95,0,16.7,1.32,21.81,10.15a47.85,47.85,0,0,0,9.94,11.57l.1.08a62.16,62.16,0,0,0,9.92,7,59.33,59.33,0,0,0,8,3.81h0l.49.2c5.68,2.17,11,1.65,14.52-1.4a11.22,11.22,0,0,0,1-1,8.62,8.62,0,0,0,1.41-1.93,8.85,8.85,0,0,0,.85-2.23,9.55,9.55,0,0,0,.21-2.38,8.89,8.89,0,0,0-.45-2.35c-2.94-7.14-7.11-30.36-8.8-43.86-.08-.62-.18-1.21-.28-1.76-1.58-7.87-6.47-10.39-16.16-12.79-1.55-.39-3.21-.78-5-1.17-1.49-.33-3-.69-4.66-1.07a146.71,146.71,0,0,0-14.59-2.5l-.8-.11c-7.93-1.07-16.93-2.27-27.66-8a1.18,1.18,0,0,1-.6-.73,1.23,1.23,0,0,1,.82-1.52,1.19,1.19,0,0,1,.94.09c8.88,4.76,16,6.23,24.72,7.45l-7.14-17.35c-.69-.42-1.48-1.53-2.68-4.28-.27-.62-.55-1.24-.81-1.81l-.48-1.09-.05-.11v0c-1.79-3.7-4.69-9.94-7.66-16.73-1.33.6-2.7,1.24-4.15,1.93s-2.78,1.32-4.3,2-3.11,1.44-4.8,2.22a274.59,274.59,0,0,1-36,14.43c-2.71.84-5.51,1.73-8.37,2.63-16.46,5.19-35.11,11.07-43.84,13-1.93.42-3.54.79-5,1.13a96.35,96.35,0,0,1-19.7,2.79c-12.7.81-20.84,1.64-21,1.65-3.15.1-8.5.23-14.95.23-15.38,0-36.91-.74-49.11-4.42a1.16,1.16,0,0,1-.67-.6,1.22,1.22,0,0,1-.09-.9,1.25,1.25,0,0,1,.56-.71,1.23,1.23,0,0,1,.9-.14c16.95,5.12,52.71,4.42,63.18,4.1.08,0,8.27-.84,21-1.66a92.58,92.58,0,0,0,19.31-2.73c1.45-.33,3.07-.71,5-1.13,8.63-1.9,27.22-7.76,43.63-12.93l8.37-2.64A272.8,272.8,0,0,0,314.07,1190c1.7-.79,3.29-1.53,4.81-2.22s2.93-1.37,4.27-2,2.87-1.36,4.23-2v0h0c-.27-.41-.53-.84-.81-1.3-4.44-7.45-12.73-29.29-18.22-43.74-1.84-4.85-3.29-8.69-4.19-10.89a40,40,0,0,1-2.58-8.84v0a47.67,47.67,0,0,1-1.84-7v0a.2.2,0,0,1,0-.11v-.06s0-.1,0-.14a.28.28,0,0,1,0-.11,8,8,0,0,0-.61-3.13,6.15,6.15,0,0,1-.28-1.2,6.33,6.33,0,0,1-.05-1.23,7.42,7.42,0,0,1,.17-1.23,7,7,0,0,1,.41-1.16,6.29,6.29,0,0,1,.61-1.07,6.59,6.59,0,0,1,.81-.94,7.9,7.9,0,0,1,1-.77,7.15,7.15,0,0,1,1.1-.57l5.89-2.41a6.88,6.88,0,0,1,1.32-.39,7,7,0,0,1,1.37-.1,6.28,6.28,0,0,1,1.36.19,5.83,5.83,0,0,1,1.29.46,6.69,6.69,0,0,1,1.17.72,6.41,6.41,0,0,1,1,1,6.63,6.63,0,0,1,.77,1.13,7.33,7.33,0,0,1,.51,1.27l.67,2.28a8.16,8.16,0,0,1,2.9,3.34c.41.95,4.83,11.74,10,24.23,5.35,13.06,11.42,27.86,13.85,33.7.79,1.91,1.72,4.11,2.72,6.46,1.17,2.76,2.43,5.72,3.67,8.68,8.61,1.64,18.66,6,32.46,13.92,18.78,10.85,37.13,21.88,44.28,29.24,7.33,7.52,6.75,18.25-1.86,34.8-1.07,2-2.05,4.08-3,6.24a65.13,65.13,0,0,1,8.84,13.21c2.93,6.33-.27,15.76-9,26.57l-.8,1c-5.25,6.53-11.18,13.88-17,19,.53,2.38,1,4.68,1.49,6.66,1.52,6.87,2.4,11.33,3,14.36H858.84c5.94,0,12.69-.91,18.58,0a5.61,5.61,0,0,0,.82,0c1,0,2.62,2.18,3.27,2.86.31.35,2.45,3.46,2.62,3.46H427c-5.9,0-12.62.9-18.47,0a.75.75,0,0,1-.21,0,1.5,1.5,0,0,1-.37,0,5,5,0,0,1-2.57-2.12c-.33-.45-1.25-1.85-2.71-4.18-2-3.13-5-7.93-9-14.36l-.4.09c-2.93.52-6.76,1.43-10.82,2.39-8.55,2-18.17,4.28-24.49,4.28-.38,0-.73,0-1.09,0a10.2,10.2,0,0,1-3.31-.7c-3.3,1.45-7.84,1.79-14,1.79-1.53,0-3.17,0-4.9,0-4.7-.08-10.12-.45-15.65-1.08-.8,0-1.65.07-2.59.07H276.64c-3.82,0-37.65-.08-50.46-2.54a42.37,42.37,0,0,1-13.35-5.57,59.7,59.7,0,0,0-17.83-7.29c-15.78-3.5-65.92-1.54-77.35,0a1.16,1.16,0,0,1-.88-.25,1.14,1.14,0,0,1-.46-.8,1.21,1.21,0,0,1,.23-.9,1.19,1.19,0,0,1,.78-.48Zm176.3-20.67c-1.64,4.11-1.53,9.91,4,13.39,6.81,4.27,16.41,8,24.88,11.22,2.49,1,4.9,1.89,7.1,2.78l1.38.56c6.15,2.49,12.48,5.05,18.33,6a16.53,16.53,0,0,1-1.12-11.24,30.33,30.33,0,0,1,2.48-7.37c2.73-5.69,9.11-10.27,19-13.65a66.51,66.51,0,0,1-7.54-5.52l-2.48.47a77.8,77.8,0,0,1-14.82,1.91h-.53c-9.81-.13-22.46-3.51-28.55-5.13a38.72,38.72,0,0,0-7.71-1.38c-.28.21-.56.41-.83.59A93.83,93.83,0,0,1,293.62,1299.66Zm57.51-16.47c-4.5-7.78-14.28-8.93-19.7-8.93-3.68,0-8.68,4.58-14,9.45-2.15,2-4.37,4-6.61,5.84a47.29,47.29,0,0,1,5.53,1.18c6,1.59,18.44,4.92,27.94,5a71.53,71.53,0,0,0,14.86-1.86l.63-.12A48.91,48.91,0,0,1,351.13,1283.19Zm13.8-52.81,2.32.54L355.84,1203a2.49,2.49,0,0,0-.86-.12,18.47,18.47,0,0,0-7,2.1,16.87,16.87,0,0,0-4.28,3c-.57.53-1,1-1.33,1.35L350,1227.8l.09,0A145.21,145.21,0,0,1,364.93,1230.38Zm-58.51-103.49c.9,2.24,2.37,6.07,4.21,10.94,5.45,14.38,13.7,36.1,18,43.36,2.3,3.86,3.55,4.46,3.83,4.55.51-.66.81-4.25-1.4-11.6-4-13.08-19.32-51.73-24-62.05a1.18,1.18,0,0,1,0-1,5.15,5.15,0,0,1,1.87-1.72,6.92,6.92,0,0,1,2.24-.85,6.72,6.72,0,0,0-2.45-.09,5.36,5.36,0,0,0-3.87,2c-.75,1.21-1.57,3.6-1,7.85a.47.47,0,0,1,0,.17A37.66,37.66,0,0,0,306.42,1126.89Zm6.58-26.74a3.91,3.91,0,0,0-3.34-.1l-5.9,2.4a4.32,4.32,0,0,0-1.29.85,4.08,4.08,0,0,0-.89,1.25,3.93,3.93,0,0,0-.36,1.5,4.15,4.15,0,0,0,.21,1.52v0a13.62,13.62,0,0,1,5.05-4.14,10.79,10.79,0,0,1,4.26-1.27,10.64,10.64,0,0,1,4.41.54v0A4,4,0,0,0,313,1100.15ZM345.35,1173c-1-2.35-1.94-4.56-2.74-6.48-2.42-5.85-8.49-20.65-13.84-33.71-4.91-12-9.55-23.26-9.95-24.19a5.77,5.77,0,0,0-2.28-2.44h0l-.14-.1h0a8.47,8.47,0,0,0-4.32-1.43,8.81,8.81,0,0,0-2.29.21,8.26,8.26,0,0,0-2.15.83,12.52,12.52,0,0,0-1.5.88,9.55,9.55,0,0,1,2.35-.6,7.2,7.2,0,0,1,3,0,7,7,0,0,1,2.68,1.25c1.31,1.27,2,2,1.24,2.89a1.16,1.16,0,0,1-.62.39,1.24,1.24,0,0,1-.74,0,11,11,0,0,0-3.65.87c-.28.19-.51.35-.67.48,5.09,11.4,19.93,48.74,23.79,61.59,1.17,3.87,3.52,13,.05,14.58a2.46,2.46,0,0,1-.93.2,2.79,2.79,0,0,1-.58-.07c2.46,5.51,4.74,10.42,6.24,13.52h0l0,.1.53,1.19c.26.59.55,1.21.82,1.85q.56,1.28,1.23,2.49a20.79,20.79,0,0,1,6.13-4.56,20,20,0,0,1,8-2.33,6.34,6.34,0,0,1,.76,0c-.36-2.19-1.85-7.13-6.45-18.19l0-.07C347.93,1179.07,346.59,1175.91,345.35,1173Zm80.91,52.59c-6.94-7.14-25.13-18.07-43.74-28.82-12.71-7.34-22.13-11.51-30.11-13.31,5.27,12.9,6.06,17,5.76,18.76l12,29.37,2.39.56c-2.4-9.9-2.72-21.05-2.72-29.81a1.18,1.18,0,0,1,.08-.49,1.36,1.36,0,0,1,.26-.41,1.31,1.31,0,0,1,.89-.37,1.15,1.15,0,0,1,.48.1,1.18,1.18,0,0,1,.4.27,1.06,1.06,0,0,1,.26.41,1.18,1.18,0,0,1,.08.49c0,9,.35,20.53,3,30.47,7.42,1.88,13.75,4.24,16.43,11.56,4.62-7.86,12.25-16.48,18.59-18.91a1.12,1.12,0,0,1,.93,0,1.15,1.15,0,0,1,.65.68,1.22,1.22,0,0,1-.7,1.58c-6.32,2.44-14.47,12.21-18.56,20,.09.48.18,1,.24,1.49,1.63,13,5.81,36.37,8.64,43.22a10.38,10.38,0,0,1,.61,2.81,10.7,10.7,0,0,1-.14,2.88,11.09,11.09,0,0,1-.88,2.74,11,11,0,0,1-1.57,2.41v0l.64,1.52a14.12,14.12,0,0,0,4.39,1.73,7.13,7.13,0,0,0,3.28.23,7,7,0,0,0,3-1.27c2.32-1.94,3.4-6.17,3.22-12.58-.15-5.76.86-15.36,6.52-28.34l0-.06c1.08-2.45,2.18-4.75,3.37-7C432,1242.09,432.73,1232.23,426.26,1225.58Zm-6,78.57.79-1c8-9.9,11.15-18.65,8.68-24a60.85,60.85,0,0,0-7.71-11.72c-4.78,11.63-5.66,20.22-5.53,25.46.2,7.29-1.14,12-4.09,14.52a8.14,8.14,0,0,1-5.56,1.87,14.16,14.16,0,0,1-2.82-.31,16.23,16.23,0,0,1-2.63-.79l3.14,13.76A172.57,172.57,0,0,0,420.3,1304.15Zm-14.72,41.58c1.09,1.69,1.59,2.46,1.79,2.73s.24.33.37.48c0-.14,0-.3-.07-.49-.14-.76-.31-1.65-.51-2.72-.56-3-1.43-7.34-2.87-13.82-.49-2.18-1.07-4.75-1.65-7.36v-.06l-3.66-16-.77-1.9h0c-.4-.25-.79-.51-1.17-.79-3.75,2.76-8.8,3.42-14.19,1.87v0l1.8,4.38c.56.9,5.5,8.94,10.64,17.25a.18.18,0,0,1,.05.07.76.76,0,0,0,.08.11C400.85,1338.23,403.91,1343.1,405.58,1345.73ZM357,1335.67c5.92.27,16-2.11,24.89-4.21,3.86-.91,7.51-1.77,10.42-2.31l-9.85-15.94a1.42,1.42,0,0,1-.08-.18l-2.69-6.53a62,62,0,0,1-7.26-3.48c-10.38,3.23-17,7.61-19.58,13a28,28,0,0,0-2.28,6.77c-1,5.06-.14,9.28,2.26,11.33a.38.38,0,0,1,.12.09,5.54,5.54,0,0,0,1.16.73,7.37,7.37,0,0,0,2.88.68Zm-22.26,1a79.3,79.3,0,0,0,14.69-.58c-6.31-.94-13-3.63-19.39-6.25l-1.38-.56c-2.2-.88-4.58-1.8-7.07-2.76-8.57-3.29-18.28-7-25.29-11.43a12.26,12.26,0,0,1-1.67-1.18,11.69,11.69,0,0,1-1.46-1.44,12.55,12.55,0,0,1-2.12-3.49,12.68,12.68,0,0,1-.61-2,12.7,12.7,0,0,1-.21-4.08,11.51,11.51,0,0,1,.39-2,107.38,107.38,0,0,1-24.78,7.16c-.5,2.21-.86,6.3,2.08,9.24,5,5,20.06,11.1,29,14a122.82,122.82,0,0,0,22.32,4.26c5.48.63,10.85,1,15.51,1.08Z" transform="translate(-116.3 -1079.56)"/><path class="cls-1" d="M622.55,1205c.94-1.28,2.06-2.85,1.42-3.43s-7.14-7-9-9.4-.83-5.86-.19-7.45-.32-4.75-2.38-8.08-8.43-12-8.43-12,.82-3.49.82-4v-4.73c0-1.43,0-1.43-.82-2.22s-.61-2.69,0-3.49-1.4-1.9-2.35-2.69-2.07-.31-1.78-1.42-3.46-2.7-7.71,0-16.2-2.06-32.37,2.54-18.52,28-18.52,28c-6.62,13,1.23,28,4.66,30.58s7,11.41,7.51,14.33.48,12.13-1.9,17.52-10.78,18.7-19,27.73-12.68,21.08-14.9,33.44,1.58,36.13,2.85,38.5,0,9.51,0,9.51H621.75s-2.38-8.4-1.9-11.45-.16-18.66-1.9-24.21-10.15-20.91-13.32-25.34-16.65-22.82-18.12-26,1.47-5.71,3.69-9.67,3.17-4,5.1-6.78,3.46-5.9,3.62-8,2.7-.95,6.82-2.06,8.4-1.42,10.31-2.91,1-6.75.47-7.54a2.61,2.61,0,0,1,.8-2.79,2.7,2.7,0,0,0,.78-2.6,17.81,17.81,0,0,1-.63-3s1.11-1.11.79-1.75a22.7,22.7,0,0,1-.47-6.81c.31-1.43,3.8-1.11,4.76-2.38" transform="translate(-116.3 -1079.56)"/><path class="cls-2" d="M765.79,1352.24H913s.25-12.38-2.92-43.35-8.1-28.27-14.42-40.56-9.8-19.58-13.87-30.86-.5-22.48-.5-22.48c2-.12,4.51-6.35,8.13-9.48s13.46-6.22,20.66-17.55,0-26.92,0-26.92.64,2.7,14.34-6.14,15.89-28.9,15.36-41.57S931.4,1095,926.46,1093a161.26,161.26,0,0,0-19.67-7c-11.31-3.36-19.42,2.93-21.54,6.89-1.29,2.4-1.82,7.07-1.82,7.07s-4.29-2.43-17.8-9.09-22.51-12.4-34.3-11-15.05,3.81-24.53,7-17.3,1.92-29,14.32-4,24.75-4,24.75a19.76,19.76,0,0,0-3.08,8.31c-.62,4.87-3,10.92-3,14.72s3.43,9.49,3.76,10.33c1.63,4.26-2.47,7-5.71,15.56s-8.27,12.9-10,15,.81,4.91,4,6,5.87,2.63,5.75,6.4,2,5.55,2.14,6.21,2.06,4.51,2.66,6.21,3.79,2.66,4.52,5.2,1.21,13.43,2.74,16.52,12.32,2.93,19,1.08,15.93-4.1,20.27-1.08,8,9,8.57,13.43,4.06,10.11-4.25,18.6-8.53,8.86-12,15.89a52.33,52.33,0,0,1-13.8,17.7c-5.85,4.82-25.79,20.65-29.56,50.23" transform="translate(-116.3 -1079.56)"/><path class="cls-3" d="M823.17,1295.06a13.31,13.31,0,0,0,2,.18q1.44.06,3.3.09l3.66,0H849v1.26a54.07,54.07,0,0,1-2.91,5.79q-1.77,3.09-3.54,6.72a46.29,46.29,0,0,0-2.94,7.8,33.32,33.32,0,0,0-1.17,9q0,.36.09,1.32t.15,2q.06,1,.06,1.59a4.73,4.73,0,0,1-1.08,3,4,4,0,0,1-3.3,1.35,3.8,3.8,0,0,1-3.3-1.5,6.31,6.31,0,0,1-1.08-3.78,18.71,18.71,0,0,1,1.2-6.54,36.91,36.91,0,0,1,3.12-6.39q1.92-3.15,4.14-6.15t4.35-5.76q2.13-2.76,3.69-5.22l-1.38,2.76H828.69q-2.46,0-3.12.6a3.55,3.55,0,0,0-.9,2.1h-1.26q0-4-.06-6.27T823.17,1295.06Z" transform="translate(-116.3 -1079.56)"/><path class="cls-3" d="M866.37,1283a16.54,16.54,0,0,1,6.09,1,9.84,9.84,0,0,1,4.17,2.91,6.85,6.85,0,0,1,1.5,4.44,7.67,7.67,0,0,1-2.37,5.61,25.18,25.18,0,0,1-6.57,4.47l-.48-.84a9.36,9.36,0,0,0,1.5-2.7,14.8,14.8,0,0,0,.75-3.12,23.05,23.05,0,0,0,.21-2.94,10.07,10.07,0,0,0-1.41-5.73,4.44,4.44,0,0,0-3.87-2.07,3.9,3.9,0,0,0-3.18,1.38,5.47,5.47,0,0,0-1.14,3.6,9.07,9.07,0,0,0,1.35,4.8,19.81,19.81,0,0,0,3.48,4.2q2.13,2,4.53,4t4.53,4.08a20.62,20.62,0,0,1,3.48,4.47,10.42,10.42,0,0,1,1.35,5.25,9.43,9.43,0,0,1-1.92,5.88,13.1,13.1,0,0,1-5.22,4,18.41,18.41,0,0,1-7.56,1.47,20.3,20.3,0,0,1-6.9-1.14,11.52,11.52,0,0,1-5.1-3.45,8.57,8.57,0,0,1-1.92-5.67,9.61,9.61,0,0,1,1.38-5.13,13.43,13.43,0,0,1,3.75-3.93,26.38,26.38,0,0,1,5.31-2.88l.48.84a10.5,10.5,0,0,0-2.73,4.62,20.35,20.35,0,0,0-.12,10.5,7.79,7.79,0,0,0,2.13,3.75,6.44,6.44,0,0,0,8.49-.39,6.81,6.81,0,0,0,1.59-4.68,9.72,9.72,0,0,0-1.32-5,20.21,20.21,0,0,0-3.39-4.26q-2.07-2-4.44-3.93t-4.44-3.93a19,19,0,0,1-3.39-4.38,10.73,10.73,0,0,1-1.32-5.31,8.33,8.33,0,0,1,1.77-5.46,10.72,10.72,0,0,1,4.68-3.24A17.88,17.88,0,0,1,866.37,1283Z" transform="translate(-116.3 -1079.56)"/><path class="cls-3" d="M567.15,1299.88a9.68,9.68,0,0,1,5.86,1.59,5.25,5.25,0,0,1,2.16,4.51,6.36,6.36,0,0,1-.94,3.41,12.92,12.92,0,0,1-2.47,2.9,31.12,31.12,0,0,1-3.29,2.57c-1.17.8-2.29,1.59-3.38,2.38a18.39,18.39,0,0,0-2.79,2.42h10.37a4.17,4.17,0,0,0,2.5-.48,2.86,2.86,0,0,0,.72-1.68h1c0,2.15,0,3.81,0,5s.08,2.23.15,3.12a11.22,11.22,0,0,0-1.59-.14c-.76,0-1.64-.06-2.64-.07l-2.92,0H556v-.91a45.48,45.48,0,0,1,3.31-3.17,45,45,0,0,0,3.86-3.84,22.45,22.45,0,0,0,3.2-4.58,11.32,11.32,0,0,0,1.29-5.31,5.14,5.14,0,0,0-1.15-3.74,4.47,4.47,0,0,0-3.31-1.15,7,7,0,0,0-3.63.93,9.2,9.2,0,0,0-2.8,2.77l-.82-.49a13.92,13.92,0,0,1,2.42-3,11,11,0,0,1,3.63-2.18A14.78,14.78,0,0,1,567.15,1299.88Z" transform="translate(-116.3 -1079.56)"/></svg>